<svg xmlns="http://www.w3.org/2000/svg" viewBox="0 0 233.75 27.93"><defs><style>.cls-1{fill:#e6c338;}</style></defs><title>見出し7</title><g id="レイヤー_2" data-name="レイヤー 2"><g id="レイヤー_1-2" data-name="レイヤー 1"><path class="cls-1" d="M9.3,0A15.93,15.93,0,0,1,17,2V6.67a15,15,0,0,0-7.5-2.55,5.42,5.42,0,0,0-3.11.77A2.38,2.38,0,0,0,5.22,6.94q0,1.54,2.08,2.85.58.39,4.5,2.18a12.88,12.88,0,0,1,4.83,3.51,7.39,7.39,0,0,1,1.48,4.64,7.08,7.08,0,0,1-2.52,5.66,9.72,9.72,0,0,1-6.54,2.15,15.41,15.41,0,0,1-4.49-.58,19.47,19.47,0,0,1-4.22-2V20.19q4.37,3.63,8.23,3.63A5.29,5.29,0,0,0,11.69,23a2.59,2.59,0,0,0,1.19-2.22,3.51,3.51,0,0,0-2.07-3.08q-1.71-.94-4.42-2.24A13,13,0,0,1,1.59,12,6.93,6.93,0,0,1,0,7.51,6.63,6.63,0,0,1,2.55,2,10.5,10.5,0,0,1,9.3,0"/><path class="cls-1" d="M41.23.35a8.77,8.77,0,0,1,6.21,2.21,7.42,7.42,0,0,1,2.39,5.7A7.34,7.34,0,0,1,47.41,14,9.15,9.15,0,0,1,41,16.16H36V27.58H30.71V.35ZM39.93,12a5,5,0,0,0,3.28-1,3.47,3.47,0,0,0,1.18-2.85q0-3.76-4.83-3.76H36V12Z"/><path class="cls-1" d="M76,0a16.34,16.34,0,0,1,7.61,1.74,13.42,13.42,0,0,1,5.39,5A13.54,13.54,0,0,1,91,14a13.68,13.68,0,0,1-7.34,12.15,16.28,16.28,0,0,1-7.71,1.8,16.16,16.16,0,0,1-7.69-1.83A13.47,13.47,0,0,1,60.91,14a13.71,13.71,0,0,1,1.93-7,13.41,13.41,0,0,1,5.32-5.12A16.23,16.23,0,0,1,76,0M66.35,14a9.69,9.69,0,0,0,1.23,4.87A8.53,8.53,0,0,0,71,22.2a10.24,10.24,0,0,0,5,1.19,9.46,9.46,0,0,0,6.89-2.63A9.06,9.06,0,0,0,85.55,14a9.81,9.81,0,0,0-1.22-4.88A8.43,8.43,0,0,0,80.9,5.73a11,11,0,0,0-10,0,8.32,8.32,0,0,0-3.4,3.35A9.94,9.94,0,0,0,66.35,14"/><polygon class="cls-1" points="108.5 0.35 124.68 19.36 124.68 0.35 129.82 0.35 129.82 27.58 125.3 27.58 109.03 8.26 109.03 27.58 103.88 27.58 103.88 0.35 108.5 0.35"/><path class="cls-1" d="M158.08,0a19.73,19.73,0,0,1,4.54.53,23.12,23.12,0,0,1,4.79,1.79v5a22.44,22.44,0,0,0-4.65-2.09,15.31,15.31,0,0,0-4.45-.64,11.32,11.32,0,0,0-5.24,1.2,8.8,8.8,0,0,0-3.64,3.38A9.34,9.34,0,0,0,148.14,14a9.39,9.39,0,0,0,1.29,4.89A8.62,8.62,0,0,0,153,22.21a11.52,11.52,0,0,0,5.26,1.18,14.11,14.11,0,0,0,4.28-.64,30.93,30.93,0,0,0,5.14-2.32v5a23.71,23.71,0,0,1-4.87,2,20.5,20.5,0,0,1-5.18.59,16.82,16.82,0,0,1-7.7-1.72,12.85,12.85,0,0,1-5.33-4.94,13.45,13.45,0,0,1-1.94-7.06,13.91,13.91,0,0,1,2-7.39,13.41,13.41,0,0,1,5.5-5.05A17.21,17.21,0,0,1,158.08,0"/><polygon class="cls-1" points="198.32 0.35 198.32 4.46 185.98 4.46 185.98 11.62 197.79 11.62 197.79 15.73 185.98 15.73 185.98 23.47 198.59 23.47 198.59 27.58 180.72 27.58 180.72 0.35 198.32 0.35"/><path class="cls-1" d="M221.29.35a9.13,9.13,0,0,1,6.26,2.12A7,7,0,0,1,230,8a6.9,6.9,0,0,1-1.2,4,8,8,0,0,1-3.56,2.72,7.87,7.87,0,0,1,2.32,1.91A24.42,24.42,0,0,1,230,20.76q2.5,5,3.71,6.82h-5.87a32.38,32.38,0,0,1-1.64-2.87,63.12,63.12,0,0,0-3.32-5.86,8,8,0,0,0-2-2.14,4,4,0,0,0-2.24-.63h-1.91v11.5h-5.26V.35ZM220.1,12a4.76,4.76,0,0,0,3.24-1,3.56,3.56,0,0,0,1.18-2.83,3.35,3.35,0,0,0-1.17-2.8A5.26,5.26,0,0,0,220,4.39h-3.28V12Z"/></g></g></svg>