<svg xmlns="http://www.w3.org/2000/svg" viewBox="0 0 327.67 29.76"><defs><style>.cls-1{fill:#e6c338;}</style></defs><title>見出し3</title><g id="レイヤー_2" data-name="レイヤー 2"><g id="レイヤー_1-2" data-name="レイヤー 1"><polygon class="cls-1" points="26.89 0 26.89 4.5 16.32 4.5 16.32 29.76 10.57 29.76 10.57 4.5 0 4.5 0 0 26.89 0"/><rect class="cls-1" x="40.11" width="5.75" height="29.76"/><polygon class="cls-1" points="66.45 0 76.23 11.74 86.01 0 91.14 0 91.14 29.76 85.39 29.76 85.39 8.86 85.22 8.86 76.61 19.34 75.81 19.34 67.2 8.86 67.03 8.86 67.03 29.76 61.28 29.76 61.28 0 66.45 0"/><polygon class="cls-1" points="125.67 0 125.67 4.5 112.19 4.5 112.19 12.31 125.09 12.31 125.09 16.81 112.19 16.81 112.19 25.27 125.97 25.27 125.97 29.76 106.43 29.76 106.43 0 125.67 0"/><polygon class="cls-1" points="185.6 0 185.6 4.5 175.04 4.5 175.04 29.76 169.29 29.76 169.29 4.5 158.72 4.5 158.72 0 185.6 0"/><path class="cls-1" d="M213.78,0l13.15,29.76h-6.07l-3.09-7.24H204.54l-2.88,7.24h-6L207.9,0Zm-7.5,18.15h9.61l-5-11.78Z"/><path class="cls-1" d="M250.05,0a10.12,10.12,0,0,1,6.67,2.13,6.63,6.63,0,0,1,2.58,5.32,6.17,6.17,0,0,1-1.08,3.6,7.31,7.31,0,0,1-3.12,2.47v.26A8.54,8.54,0,0,1,260,16.56a7.36,7.36,0,0,1,1.74,4.87,7.94,7.94,0,0,1-1.27,4.42,7.8,7.8,0,0,1-3.51,2.93,13.17,13.17,0,0,1-5.29,1H239.15V0Zm-1.53,12.36a5.51,5.51,0,0,0,3.6-1.09,3.71,3.71,0,0,0,1.32-3,3.38,3.38,0,0,0-1.21-2.74,4.83,4.83,0,0,0-3.2-1H244.9v7.86Zm1.34,12.91a7.41,7.41,0,0,0,4.41-1.1,3.76,3.76,0,0,0,1.49-3.23,3.52,3.52,0,0,0-1.48-3,6.52,6.52,0,0,0-4-1.1H244.9v8.41Z"/><polygon class="cls-1" points="281.02 0 281.02 25.27 295.46 25.27 295.46 29.76 275.27 29.76 275.27 0 281.02 0"/><polygon class="cls-1" points="327.37 0 327.37 4.5 313.89 4.5 313.89 12.31 326.8 12.31 326.8 16.81 313.89 16.81 313.89 25.27 327.67 25.27 327.67 29.76 308.13 29.76 308.13 0 327.37 0"/></g></g></svg>