<svg xmlns="http://www.w3.org/2000/svg" viewBox="0 0 216.39 46.4"><defs><style>.cls-1{fill:#422610;}</style></defs><title>ココカラカイギ_ヘッダーロゴ</title><g id="レイヤー_2" data-name="レイヤー 2"><g id="レイヤー_1-2" data-name="レイヤー 1"><path class="cls-1" d="M78.06,30.3l-1.93-2.06a1.35,1.35,0,0,1,0-1.82C80,22.1,80.48,16,80.36,12.22A1.33,1.33,0,0,0,79,10.94L62,10.87a1.33,1.33,0,0,1-1.33-1.34V6.72A1.33,1.33,0,0,1,62,5.39l21.88.09a1.33,1.33,0,0,1,1.3,1.07l.22,1.14c.12.59,2.6,13.94-5.4,22.62a1.33,1.33,0,0,1-1.94,0"/><path class="cls-1" d="M62,29.8l-1.9-2.08a1.33,1.33,0,0,1,0-1.82c7.89-8.09,7-19.14,6.71-21.58a1.55,1.55,0,0,1,.13-1,1,1,0,0,1,.5-.39l3-1A1.33,1.33,0,0,1,72.22,3c.5,4.51.95,17.5-8.26,26.81a1.33,1.33,0,0,1-1.93,0"/><path class="cls-1" d="M141.21,30.3l-1.93-2.06a1.35,1.35,0,0,1,0-1.82c3.85-4.33,4.36-10.42,4.23-14.21a1.33,1.33,0,0,0-1.33-1.28l-17.05-.07a1.33,1.33,0,0,1-1.33-1.34V6.72a1.33,1.33,0,0,1,1.34-1.32L147,5.48a1.33,1.33,0,0,1,1.3,1.07l.22,1.14c.12.59,2.6,13.94-5.4,22.62a1.33,1.33,0,0,1-1.94,0"/><path class="cls-1" d="M125.18,29.8l-1.9-2.08a1.33,1.33,0,0,1,0-1.82c7.89-8.09,7-19.14,6.71-21.58a1.55,1.55,0,0,1,.13-1,1,1,0,0,1,.5-.39l3-1A1.33,1.33,0,0,1,135.37,3c.5,4.51.95,17.5-8.26,26.81a1.33,1.33,0,0,1-1.93,0"/><path class="cls-1" d="M155,16.07V13.18a1.43,1.43,0,0,1,1.41-1.36c9.19-.61,12.35-7.07,13.27-9.77a1.51,1.51,0,0,1,1.69-.93l3.17.51a1.37,1.37,0,0,1,1.19,1.69c-1.63,5.35-7.15,13.45-19.16,14.11A1.44,1.44,0,0,1,155,16.07"/><path class="cls-1" d="M168.86,30.27h-3a1.34,1.34,0,0,1-1.4-1.27V12.42a1.34,1.34,0,0,1,1.4-1.27h3a1.34,1.34,0,0,1,1.4,1.27V29a1.34,1.34,0,0,1-1.4,1.27"/><path class="cls-1" d="M196.51,11.3H182.23a1.35,1.35,0,0,1-1.35-1.35V7.1a1.35,1.35,0,0,1,1.35-1.35h14.28a1.35,1.35,0,0,1,1.35,1.35V9.95a1.35,1.35,0,0,1-1.35,1.35"/><path class="cls-1" d="M203.9,22.19H187.19a1.35,1.35,0,0,1-1.35-1.35V18a1.35,1.35,0,0,1,1.35-1.35H203.9A1.35,1.35,0,0,1,205.25,18v2.85a1.35,1.35,0,0,1-1.35,1.35"/><path class="cls-1" d="M189.77,30l-.49-28.6A1.33,1.33,0,0,1,190.61,0l2.85,0a1.33,1.33,0,0,1,1.37,1.29l.49,28.6A1.32,1.32,0,0,1,194,31.22l-2.85,0A1.33,1.33,0,0,1,189.77,30"/><path class="cls-1" d="M207.44,9.92h-2.85a1.35,1.35,0,0,1-1.35-1.35V6.32A1.35,1.35,0,0,1,204.59,5h2.85a1.35,1.35,0,0,1,1.35,1.35V8.58a1.35,1.35,0,0,1-1.35,1.35"/><path class="cls-1" d="M215,9.92h-2.85a1.35,1.35,0,0,1-1.35-1.35V6.32A1.35,1.35,0,0,1,212.19,5H215a1.35,1.35,0,0,1,1.35,1.35V8.58A1.35,1.35,0,0,1,215,9.92"/><path class="cls-1" d="M207.49,18.24l-3.67-2.11a1.55,1.55,0,0,0-2.33,1.34V21.7A1.56,1.56,0,0,0,203.83,23l3.67-2.12a1.55,1.55,0,0,0,0-2.69"/><path class="cls-1" d="M50.7,30.92H31.1a1.52,1.52,0,0,1-1.52-1.52V27.19a1.53,1.53,0,0,1,1.52-1.53H45.45A1.52,1.52,0,0,0,47,24.15V10.09a1.52,1.52,0,0,0-1.52-1.52H31.24A1.53,1.53,0,0,1,29.71,7V4.83a1.52,1.52,0,0,1,1.52-1.52H50.7a1.52,1.52,0,0,1,1.52,1.52V29.4a1.52,1.52,0,0,1-1.52,1.52"/><path class="cls-1" d="M21.13,33.86H1.52A1.61,1.61,0,0,1,0,32.18V29.73A1.61,1.61,0,0,1,1.52,28H15.87a1.61,1.61,0,0,0,1.52-1.69V10.81a1.61,1.61,0,0,0-1.52-1.68H1.66A1.61,1.61,0,0,1,.13,7.44V5A1.61,1.61,0,0,1,1.66,3.3H21.13A1.61,1.61,0,0,1,22.65,5V32.18a1.61,1.61,0,0,1-1.52,1.68"/><path class="cls-1" d="M68.52,46.31H66.86a.25.25,0,0,1-.2-.1l-1.88-2.31a.26.26,0,0,0-.47.17v2a.26.26,0,0,1-.26.26H62.65a.26.26,0,0,1-.26-.26V40.22a.26.26,0,0,1,.26-.26H64a.26.26,0,0,1,.26.26v1.84a.26.26,0,0,0,.47.17l1.76-2.17a.27.27,0,0,1,.2-.1h1.41a.26.26,0,0,1,.21.42l-1.89,2.38a.26.26,0,0,0,0,.33l2.27,2.79a.26.26,0,0,1-.2.43"/><path class="cls-1" d="M85.14,46.31H83.76a.26.26,0,0,1-.24-.16l-.39-1a.26.26,0,0,0-.24-.16H80.48a.26.26,0,0,0-.24.16l-.39,1a.26.26,0,0,1-.24.16H78.22a.26.26,0,0,1-.24-.37l2.58-5.83a.27.27,0,0,1,.24-.16h1.78a.27.27,0,0,1,.24.16l2.57,5.83a.26.26,0,0,1-.24.37m-2.66-2.75-.54-1.35a.26.26,0,0,0-.49,0l-.55,1.35a.26.26,0,0,0,.24.36h1.09a.26.26,0,0,0,.24-.36"/><path class="cls-1" d="M101,45.86l-.35.13-.28.09-.39.1a7.78,7.78,0,0,1-.87.15,7.18,7.18,0,0,1-.91.05A4.52,4.52,0,0,1,96.44,46a3,3,0,0,1-1.31-1.1,3.22,3.22,0,0,1-.49-1.82,3.85,3.85,0,0,1,.25-1.37,2.41,2.41,0,0,1,.78-1.08,3.7,3.7,0,0,1,1.74-.75,6.66,6.66,0,0,1,.93-.06,6.31,6.31,0,0,1,1.38.13c.31.07.64.16,1,.27a.28.28,0,0,1,.19.25v1.31a5,5,0,0,0-.91-.42,3.6,3.6,0,0,0-1.2-.17,2.46,2.46,0,0,0-1.33.31,1.74,1.74,0,0,0-.69.75,2.07,2.07,0,0,0-.19.84,1.83,1.83,0,0,0,.22.89,1.65,1.65,0,0,0,.68.65,2.27,2.27,0,0,0,1.1.25,3.64,3.64,0,0,0,.78-.09v-.75H98.5v-1a.26.26,0,0,1,.26-.27h2a.26.26,0,0,1,.26.27Z"/><path class="cls-1" d="M118,43.13a3.35,3.35,0,0,1-.41,1.64A3,3,0,0,1,116.37,46a4.1,4.1,0,0,1-2,.44,4,4,0,0,1-2-.46,3,3,0,0,1-1.21-1.21,3.44,3.44,0,0,1,0-3.2,3,3,0,0,1,1.21-1.2,4.08,4.08,0,0,1,2-.46,4.35,4.35,0,0,1,1.57.26,3.11,3.11,0,0,1,1.13.71,2.92,2.92,0,0,1,.67,1,3.41,3.41,0,0,1,.23,1.25m-2,0a1.94,1.94,0,0,0-.11-.65,1.4,1.4,0,0,0-.32-.52,1.5,1.5,0,0,0-.52-.34,1.92,1.92,0,0,0-.71-.12,1.63,1.63,0,1,0,0,3.26,1.83,1.83,0,0,0,.9-.21,1.4,1.4,0,0,0,.56-.58,1.81,1.81,0,0,0,.19-.85"/><path class="cls-1" d="M132.29,44.46a1.75,1.75,0,0,1-.3,1,1.9,1.9,0,0,1-.85.67,3.14,3.14,0,0,1-1.25.23l-.48,0a5.1,5.1,0,0,1-.76-.14,6.59,6.59,0,0,1-1-.34V44.33a6.92,6.92,0,0,0,.95.5,2.52,2.52,0,0,0,1,.2.85.85,0,0,0,.64-.17.47.47,0,0,0,.15-.3.52.52,0,0,0-.25-.44,3.48,3.48,0,0,0-.72-.36,6,6,0,0,1-.92-.48,2.16,2.16,0,0,1-.64-.65,1.68,1.68,0,0,1-.25-.92,1.69,1.69,0,0,1,1-1.59,2.91,2.91,0,0,1,1.26-.25,4.28,4.28,0,0,1,1,.11,4,4,0,0,1,.74.23,3,3,0,0,1,.4.2V41.9a4.86,4.86,0,0,0-.87-.5,2.39,2.39,0,0,0-1-.22.79.79,0,0,0-.52.14.42.42,0,0,0,0,.67,2.94,2.94,0,0,0,.57.33,10.28,10.28,0,0,1,1.17.62,2.28,2.28,0,0,1,.69.63,1.55,1.55,0,0,1,.25.9"/><path class="cls-1" d="M148.7,46.31h-1.39a.26.26,0,0,1-.26-.26v-2a.26.26,0,0,0-.26-.26h-2.36a.26.26,0,0,0-.26.26v2a.26.26,0,0,1-.26.26h-1.39a.26.26,0,0,1-.26-.26V40.22a.26.26,0,0,1,.26-.26h1.39a.26.26,0,0,1,.26.26V42a.26.26,0,0,0,.26.26h2.36a.26.26,0,0,0,.26-.26V40.22a.26.26,0,0,1,.26-.26h1.39a.26.26,0,0,1,.26.26V46a.26.26,0,0,1-.26.26"/><path class="cls-1" d="M160.88,46.31h-1.39a.26.26,0,0,1-.26-.26V40.22a.26.26,0,0,1,.26-.26h1.39a.26.26,0,0,1,.26.26V46a.26.26,0,0,1-.26.26"/><path class="cls-1" d="M178.54,46.31h-1.39a.26.26,0,0,1-.26-.26V43.37a.26.26,0,0,0-.46-.17l-1.26,1.55H175l-1.27-1.56a.26.26,0,0,0-.47.17V46a.26.26,0,0,1-.26.26h-1.34a.26.26,0,0,1-.26-.26V40.22a.26.26,0,0,1,.26-.26H173a.27.27,0,0,1,.2.1l1.67,2a.26.26,0,0,0,.4,0l1.68-2a.27.27,0,0,1,.2-.1h1.35a.26.26,0,0,1,.26.26V46a.26.26,0,0,1-.26.26"/><path class="cls-1" d="M195.64,46.31h-1.38a.26.26,0,0,1-.24-.16l-.39-1a.26.26,0,0,0-.24-.16H191a.26.26,0,0,0-.24.16l-.39,1a.26.26,0,0,1-.24.16h-1.38a.26.26,0,0,1-.24-.37l2.58-5.83a.27.27,0,0,1,.24-.16h1.78a.26.26,0,0,1,.24.16l2.57,5.83a.26.26,0,0,1-.24.37M193,43.56l-.54-1.35a.26.26,0,0,0-.49,0l-.55,1.35a.26.26,0,0,0,.24.36h1.09a.26.26,0,0,0,.24-.36"/><path class="cls-1" d="M111.53,7H97.36a1.33,1.33,0,0,1-1.43-1.2V3.22A1.33,1.33,0,0,1,97.36,2h14.17A1.33,1.33,0,0,1,113,3.22V5.77A1.33,1.33,0,0,1,111.53,7"/><path class="cls-1" d="M115.82,14.74H94.72a.94.94,0,0,1-.94-.94V11a.94.94,0,0,1,.94-.94h21.11a.94.94,0,0,1,.94.94V13.8a.94.94,0,0,1-.94.94"/><path class="cls-1" d="M97.69,29.61a34.23,34.23,0,0,1-4.07-.24.94.94,0,0,1-.81-1.1l.66-3.68-.42,2.32.25-1.43a.94.94,0,0,1,1-.77c2.51.29,9.85.75,14.22-2.91,2.18-1.83,3.32-4.43,3.48-7.93A.94.94,0,0,1,113,13h2.83a1,1,0,0,1,.94,1c-.2,4.89-1.95,8.75-5.18,11.45-4.14,3.46-9.83,4.19-13.89,4.19"/><path class="cls-1" d="M110.67,14.73c.78,0,1.38.56.85,2.48l3.06-1.75L112.37,13s-2.49,1.78-1.7,1.75"/></g></g></svg>