<svg xmlns="http://www.w3.org/2000/svg" viewBox="0 0 159.81 193.55"><defs><style>.cls-1{fill:#fff;}</style></defs><title>白抜きロゴ</title><g id="レイヤー_2" data-name="レイヤー 2"><g id="画像"><g id="ロゴ"><path class="cls-1" d="M62.45,181.44l-1.31-1.56a1.1,1.1,0,0,1,0-1.37c2.6-3.26,2.95-7.85,2.86-10.7a1,1,0,0,0-.9-1l-11.52-.05a1,1,0,0,1-.9-1v-2.12a1,1,0,0,1,.9-1l14.78.07a.93.93,0,0,1,.88.81l.15.86c.08.44,1.76,10.5-3.65,17A.84.84,0,0,1,62.45,181.44Z"/><path class="cls-1" d="M51.61,181.06l-1.29-1.57a1.09,1.09,0,0,1,0-1.38c5.33-6.09,4.74-14.41,4.53-16.25a1.28,1.28,0,0,1,.09-.74.68.68,0,0,1,.34-.3l2-.76a.91.91,0,0,1,1.18.84c.34,3.4.64,13.18-5.58,20.19A.84.84,0,0,1,51.61,181.06Z"/><path class="cls-1" d="M105.11,181.44l-1.31-1.56a1.1,1.1,0,0,1,0-1.37c2.6-3.26,2.95-7.85,2.86-10.7a1,1,0,0,0-.9-1l-11.52-.05a1,1,0,0,1-.9-1v-2.12a1,1,0,0,1,.9-1l14.78.07a.93.93,0,0,1,.88.81l.15.86c.08.44,1.76,10.5-3.65,17A.84.84,0,0,1,105.11,181.44Z"/><path class="cls-1" d="M94.28,181.06,93,179.49a1.09,1.09,0,0,1,0-1.38c5.33-6.09,4.74-14.41,4.53-16.25a1.28,1.28,0,0,1,.09-.74.68.68,0,0,1,.34-.3l2-.76a.91.91,0,0,1,1.18.84c.34,3.4.64,13.18-5.58,20.19A.84.84,0,0,1,94.28,181.06Z"/><path class="cls-1" d="M114.44,170.72v-2.18a1,1,0,0,1,1-1,10,10,0,0,0,9-7.36,1,1,0,0,1,1.14-.7l2.14.39a1,1,0,0,1,.8,1.27,14.16,14.16,0,0,1-12.95,10.63A1,1,0,0,1,114.44,170.72Z"/><path class="cls-1" d="M123.79,181.41h-2a1,1,0,0,1-.95-1V168a1,1,0,0,1,.95-1h2a1,1,0,0,1,.95,1v12.48A1,1,0,0,1,123.79,181.41Z"/><path class="cls-1" d="M142.47,167.12h-9.65a1,1,0,0,1-.91-1V164a1,1,0,0,1,.91-1h9.65a1,1,0,0,1,.91,1v2.15A1,1,0,0,1,142.47,167.12Z"/><path class="cls-1" d="M147.47,175.33H136.18a1,1,0,0,1-.91-1v-2.15a1,1,0,0,1,.91-1h11.29a1,1,0,0,1,.91,1v2.15A1,1,0,0,1,147.47,175.33Z"/><path class="cls-1" d="M137.92,181.19l-.33-21.54a1,1,0,0,1,.9-1l1.93,0a1,1,0,0,1,.93,1l.33,21.54a1,1,0,0,1-.9,1l-1.93,0A1,1,0,0,1,137.92,181.19Z"/><path class="cls-1" d="M149.86,166.09h-1.93a1,1,0,0,1-.91-1v-1.7a1,1,0,0,1,.91-1h1.93a1,1,0,0,1,.91,1v1.7A1,1,0,0,1,149.86,166.09Z"/><path class="cls-1" d="M155,166.09h-1.93a1,1,0,0,1-.91-1v-1.7a1,1,0,0,1,.91-1H155a1,1,0,0,1,.91,1v1.7A1,1,0,0,1,155,166.09Z"/><path class="cls-1" d="M149.94,172.38l-2.29-1.47a1.17,1.17,0,0,0-1.81,1v2.95a1.17,1.17,0,0,0,1.81,1l2.29-1.47A1.17,1.17,0,0,0,149.94,172.38Z"/><path class="cls-1" d="M44,181.9H30.72a1.09,1.09,0,0,1-1-1.15v-1.67a1.09,1.09,0,0,1,1-1.15h9.69a1.09,1.09,0,0,0,1-1.15V166.21a1.09,1.09,0,0,0-1-1.15h-9.6a1.09,1.09,0,0,1-1-1.15v-1.67a1.09,1.09,0,0,1,1-1.15H44a1.09,1.09,0,0,1,1,1.15v18.51A1.09,1.09,0,0,1,44,181.9Z"/><path class="cls-1" d="M24,184.11H10.73a1.17,1.17,0,0,1-1-1.27V181a1.17,1.17,0,0,1,1-1.27h9.69a1.17,1.17,0,0,0,1-1.27V166.75a1.17,1.17,0,0,0-1-1.27h-9.6a1.17,1.17,0,0,1-1-1.27v-1.84a1.17,1.17,0,0,1,1-1.27H24a1.17,1.17,0,0,1,1,1.27v20.47A1.17,1.17,0,0,1,24,184.11Z"/><path class="cls-1" d="M56,193.49H54.88a.17.17,0,0,1-.14-.07l-1.27-1.74a.18.18,0,0,0-.31.12v1.49a.19.19,0,0,1-.18.2H52a.19.19,0,0,1-.18-.2V188.9a.19.19,0,0,1,.18-.2H53a.19.19,0,0,1,.18.2v1.39a.18.18,0,0,0,.31.12l1.19-1.63a.17.17,0,0,1,.14-.07h1a.2.2,0,0,1,.14.32l-1.28,1.8a.22.22,0,0,0,0,.25l1.53,2.1A.2.2,0,0,1,56,193.49Z"/><path class="cls-1" d="M67.23,193.49h-.93a.18.18,0,0,1-.16-.12l-.26-.72a.18.18,0,0,0-.16-.12H64.08a.18.18,0,0,0-.16.12l-.27.72a.18.18,0,0,1-.16.12h-.93a.2.2,0,0,1-.16-.28l1.74-4.39a.18.18,0,0,1,.16-.12h1.2a.18.18,0,0,1,.16.12l1.74,4.39A.2.2,0,0,1,67.23,193.49Zm-1.8-2.07-.37-1a.17.17,0,0,0-.33,0l-.37,1a.2.2,0,0,0,.16.27h.74A.2.2,0,0,0,65.43,191.42Z"/><path class="cls-1" d="M78,193.15l-.24.1-.19.07-.26.08a5.16,5.16,0,0,1-.59.12,4.61,4.61,0,0,1-.62,0,2.75,2.75,0,0,1-1.21-.27,2.05,2.05,0,0,1-.89-.82,2.64,2.64,0,0,1-.33-1.37,3.19,3.19,0,0,1,.17-1,1.81,1.81,0,0,1,.53-.81,2.39,2.39,0,0,1,.59-.38,2.33,2.33,0,0,1,.58-.18,4.07,4.07,0,0,1,.63,0,3.83,3.83,0,0,1,.94.1l.68.2a.2.2,0,0,1,.13.19v1a3.39,3.39,0,0,0-.62-.32,2.23,2.23,0,0,0-.81-.13,1.53,1.53,0,0,0-.9.24,1.27,1.27,0,0,0-.47.56,1.7,1.7,0,0,0-.13.64,1.48,1.48,0,0,0,.15.67,1.18,1.18,0,0,0,.46.49,1.41,1.41,0,0,0,.74.18,2.1,2.1,0,0,0,.53-.07v-.56h-.58v-.77a.19.19,0,0,1,.18-.2h1.36a.19.19,0,0,1,.18.2Z"/><path class="cls-1" d="M89.43,191.1a2.75,2.75,0,0,1-.28,1.23,2.13,2.13,0,0,1-.82.89,2.54,2.54,0,0,1-1.33.33,2.49,2.49,0,0,1-1.35-.35,2.14,2.14,0,0,1-.82-.91,2.85,2.85,0,0,1,0-2.41,2.12,2.12,0,0,1,.82-.9,2.51,2.51,0,0,1,1.35-.34,2.71,2.71,0,0,1,1.06.2,2.1,2.1,0,0,1,.77.53,2.28,2.28,0,0,1,.45.78A2.84,2.84,0,0,1,89.43,191.1Zm-1.32,0a1.62,1.62,0,0,0-.07-.49,1.08,1.08,0,0,0-.22-.39,1,1,0,0,0-.35-.26,1.18,1.18,0,0,0-.48-.09,1,1,0,0,0-.82.34,1.47,1.47,0,0,0,0,1.78,1,1,0,0,0,.82.34,1.12,1.12,0,0,0,.61-.16,1,1,0,0,0,.38-.43A1.49,1.49,0,0,0,88.11,191.1Z"/><path class="cls-1" d="M99.09,192.1a1.43,1.43,0,0,1-.21.78,1.33,1.33,0,0,1-.57.5,2,2,0,0,1-.85.17l-.33,0a3.39,3.39,0,0,1-.51-.11,3.76,3.76,0,0,1-.67-.26V192a4.58,4.58,0,0,0,.64.37,1.56,1.56,0,0,0,.67.15.54.54,0,0,0,.43-.12.38.38,0,0,0,.1-.23.4.4,0,0,0-.17-.33,2.28,2.28,0,0,0-.49-.27,3.72,3.72,0,0,1-.62-.36,1.57,1.57,0,0,1-.44-.49,1.37,1.37,0,0,1-.17-.69,1.44,1.44,0,0,1,.17-.7,1.24,1.24,0,0,1,.52-.5,1.8,1.8,0,0,1,.85-.19,2.71,2.71,0,0,1,.66.08,2.68,2.68,0,0,1,.5.17l.27.15v1.12a3.45,3.45,0,0,0-.59-.38,1.5,1.5,0,0,0-.69-.17.49.49,0,0,0-.35.1.34.34,0,0,0-.11.26.33.33,0,0,0,.11.25,1.86,1.86,0,0,0,.39.25,7.44,7.44,0,0,1,.79.47,1.65,1.65,0,0,1,.47.48A1.25,1.25,0,0,1,99.09,192.1Z"/><path class="cls-1" d="M110.17,193.49h-.94a.19.19,0,0,1-.18-.2v-1.47a.19.19,0,0,0-.18-.2h-1.59a.19.19,0,0,0-.18.2v1.47a.19.19,0,0,1-.18.2H106a.19.19,0,0,1-.18-.2V188.9a.19.19,0,0,1,.18-.2h.94a.19.19,0,0,1,.18.2v1.36a.19.19,0,0,0,.18.2h1.59a.19.19,0,0,0,.18-.2V188.9a.19.19,0,0,1,.18-.2h.94a.19.19,0,0,1,.18.2v4.39A.19.19,0,0,1,110.17,193.49Z"/><path class="cls-1" d="M118.4,193.49h-.94a.19.19,0,0,1-.18-.2V188.9a.19.19,0,0,1,.18-.2h.94a.19.19,0,0,1,.18.2v4.39A.19.19,0,0,1,118.4,193.49Z"/><path class="cls-1" d="M130.33,193.49h-.94a.19.19,0,0,1-.18-.2v-2a.18.18,0,0,0-.31-.12l-.85,1.17h-.1l-.86-1.17a.18.18,0,0,0-.31.12v2a.19.19,0,0,1-.18.2h-.9a.19.19,0,0,1-.18-.2V188.9a.19.19,0,0,1,.18-.2h.91a.17.17,0,0,1,.14.07l1.13,1.54a.17.17,0,0,0,.27,0l1.14-1.54a.17.17,0,0,1,.14-.07h.91a.19.19,0,0,1,.18.2v4.39A.19.19,0,0,1,130.33,193.49Z"/><path class="cls-1" d="M141.88,193.49h-.93a.18.18,0,0,1-.16-.12l-.26-.72a.18.18,0,0,0-.16-.12h-1.63a.18.18,0,0,0-.16.12l-.27.72a.18.18,0,0,1-.16.12h-.93a.2.2,0,0,1-.16-.28l1.74-4.39a.18.18,0,0,1,.16-.12h1.2a.18.18,0,0,1,.16.12l1.74,4.39A.2.2,0,0,1,141.88,193.49Zm-1.8-2.07-.37-1a.17.17,0,0,0-.33,0l-.37,1a.2.2,0,0,0,.16.27h.74A.2.2,0,0,0,140.09,191.42Z"/><path class="cls-1" d="M85.06,163.86H75.48a.94.94,0,0,1-1-.91V161a.94.94,0,0,1,1-.91h9.58a.94.94,0,0,1,1,.91V163A.94.94,0,0,1,85.06,163.86Z"/><path class="cls-1" d="M88,169.71H73.7a.67.67,0,0,1-.63-.71v-2.13a.67.67,0,0,1,.63-.71H88a.67.67,0,0,1,.63.71V169A.67.67,0,0,1,88,169.71Z"/><path class="cls-1" d="M75.71,180.91a20.43,20.43,0,0,1-2.75-.18.7.7,0,0,1-.54-.83l.45-2.77-.28,1.74.17-1.08a.65.65,0,0,1,.69-.58c1.69.22,6.65.57,9.61-2.19a8.22,8.22,0,0,0,2.35-6,.67.67,0,0,1,.63-.67H88a.68.68,0,0,1,.64.74c-.14,3.69-1.31,6.58-3.5,8.62C82.29,180.36,78.45,180.91,75.71,180.91Z"/><path class="cls-1" d="M84.48,169.71c.53,0,.93.42.58,1.86l2.07-1.32-1.49-1.86S83.95,169.73,84.48,169.71Z"/><path class="cls-1" d="M139.88,61.24a.66.66,0,0,0-.93.36l-1.07,2.49a.81.81,0,0,0,.33,1l2.46,1.31a.47.47,0,0,1-.16.87l-8.49.45a.75.75,0,0,0-.66.81l.12,2.76a.73.73,0,0,0,.73.74l14.94-.8a.43.43,0,0,1,.43.46l0,11.91a.44.44,0,0,1-.39.46L133,84.85a.75.75,0,0,0-.66.81l.12,2.76a.73.73,0,0,0,.73.74l17.53-.94h.05a.87.87,0,0,0,.66-.85l0-19.17a1.81,1.81,0,0,0-.95-1.64Z"/><path class="cls-1" d="M76.16,96.26,37.66,111a.7.7,0,0,1-.91-.72l0-9.82a1.52,1.52,0,0,1,.92-1.45L62.1,89.67a.76.76,0,0,0,.46-.72V86a.7.7,0,0,0-.91-.72L34.86,95.57a.37.37,0,0,1-.22,0l-25.3-6a.47.47,0,0,1,0-.88l18.5-7a.76.76,0,0,0,.46-.72V78.09a.7.7,0,0,0-.9-.72L.93,87.35A1.52,1.52,0,0,0,0,88.8v18.78a2.36,2.36,0,0,0,1.71,2.35l21.91,5.19a.71.71,0,0,0,.83-.75v-2.84a.75.75,0,0,0-.54-.75l-19.49-4.6a.75.75,0,0,1-.54-.75V93.12a.42.42,0,0,1,.5-.45l28.18,6.81a.45.45,0,0,1,.32.45v15.38a1.4,1.4,0,0,0,1.83,1.44l1.3-.51,40.63-15.6a.76.76,0,0,0,.46-.72V97A.7.7,0,0,0,76.16,96.26ZM34.6,97.43v0Z"/><path class="cls-1" d="M156.5,127.61,129.37,139.3a.7.7,0,0,1-.93-.71v-13a.77.77,0,0,1,.44-.71l30.21-13a1.26,1.26,0,0,0,.72-1.16v-3a.75.75,0,0,0-.52-.74l-42-11.23a.71.71,0,0,0-.84.74v2.86a.75.75,0,0,0,.52.74L152,109.46a.44.44,0,0,1,0,.8L126.73,121.2a.62.62,0,0,1-.41,0L75.61,107.67a.71.71,0,0,0-.84.74v2.86a.75.75,0,0,0,.52.74l48.76,13a.75.75,0,0,1,.52.74v17.52A1.67,1.67,0,0,0,126.8,145l1.64-.69h0L157,132a.77.77,0,0,0,.44-.71v-3A.7.7,0,0,0,156.5,127.61Z"/><path class="cls-1" d="M129.53,39.21A2.16,2.16,0,0,0,127.7,37L91.23,33.29a.72.72,0,0,0-.75.76v2.79a.74.74,0,0,0,.62.76l31,3.06a.47.47,0,0,1,.23.8l-16,15.45a2.09,2.09,0,0,1-1.66.6L39.61,51.13a.73.73,0,0,0-.78.69v.35a.83.83,0,0,0,0,.26V73.78a.73.73,0,0,0,.68.76H42a.73.73,0,0,0,.68-.76V56.24a.43.43,0,0,1,.45-.46l60.38,5.93a.44.44,0,0,1,.37.46V79.81a.43.43,0,0,1-.45.46l-26.23-2.7a.72.72,0,0,0-.75.76v2.79a.74.74,0,0,0,.62.76l28,2.91a2.77,2.77,0,0,0,2.32-.91l9-9.74a2,2,0,0,0,.52-1.35V69.41a.68.68,0,0,0-1.16-.55l-7.36,7.89a.41.41,0,0,1-.7-.33V61.73a.48.48,0,0,1,.14-.35L125,44.82a.41.41,0,0,1,.68.35V56.57a.73.73,0,0,0,.68.76h2.5a.73.73,0,0,0,.68-.76Z"/><path class="cls-1" d="M111.1,140.17l-44.8-11.89a.75.75,0,0,1-.52-.74V116.09a.75.75,0,0,0-.52-.74l-2.5-.67a.71.71,0,0,0-.85.74V130.1a1.81,1.81,0,0,0,1.26,1.78l47.47,12.6a1,1,0,0,0,1.2-1.06v-2.2A1.07,1.07,0,0,0,111.1,140.17Z"/><path class="cls-1" d="M80,3.45a.71.71,0,0,0,0-.17l-.18-1.86A1.47,1.47,0,0,0,78.21,0L36.76,5.09a.63.63,0,0,0-.51.71l.28,2.8a.6.6,0,0,0,.64.57L71.84,4.93a.39.39,0,0,1,.28.67l-7.71,8.21a.33.33,0,0,1-.2.11L16.69,19.74a1.69,1.69,0,0,0-1.37,1.91.71.71,0,0,0,0,.17L16.71,39a.6.6,0,0,0,.63.59l2.52-.26a.63.63,0,0,0,.53-.7L19.19,24a.38.38,0,0,1,.31-.42l43.4-5.32a.61.61,0,0,1,.66.59l1.23,14.42a.65.65,0,0,1-.52.72L29.13,38.76a.63.63,0,0,0-.51.71l.28,2.8a.6.6,0,0,0,.64.57l37.59-5.12A2.37,2.37,0,0,0,68.57,37l7-7.53a.82.82,0,0,0,.2-.63l-.31-3.26a.67.67,0,0,0-1.16-.47L68.9,30.9a.58.58,0,0,1-1-.41L66.78,17.32a.7.7,0,0,1,.18-.54l9-9.63a.34.34,0,0,1,.59.25l.64,7.77a.6.6,0,0,0,.63.59l2.52-.26a.63.63,0,0,0,.53-.7Z"/></g></g></g></svg>