<svg xmlns="http://www.w3.org/2000/svg" viewBox="0 0 268.67 291.93"><defs><style>.cls-1{fill:#422610;}.cls-2{fill:#e5c337;}.cls-3{fill:#3e5aa6;}.cls-4{fill:#ad3123;}.cls-5{fill:#7ba32c;}</style></defs><title>ロゴ</title><g id="レイヤー_2" data-name="レイヤー 2"><g id="レイヤー_1-2" data-name="レイヤー 1"><path class="cls-1" d="M105,273.65l-2.2-2.35a1.52,1.52,0,0,1,0-2.06c4.38-4.92,5-11.84,4.81-16.14a1.51,1.51,0,0,0-1.51-1.45l-19.37-.08a1.51,1.51,0,0,1-1.51-1.52v-3.2a1.51,1.51,0,0,1,1.52-1.51l24.86.1a1.51,1.51,0,0,1,1.48,1.22l.25,1.29c.13.67,3,15.83-6.13,25.69a1.51,1.51,0,0,1-2.21,0"/><path class="cls-1" d="M86.77,273.08l-2.16-2.37a1.51,1.51,0,0,1,0-2.08c9-9.19,8-21.74,7.62-24.51a1.74,1.74,0,0,1,.15-1.11,1.12,1.12,0,0,1,.57-.45l3.38-1.15a1.51,1.51,0,0,1,2,1.26c.57,5.12,1.07,19.87-9.38,30.45a1.52,1.52,0,0,1-2.19-.05"/><path class="cls-1" d="M176.7,273.65l-2.2-2.35a1.52,1.52,0,0,1,0-2.06c4.38-4.92,5-11.84,4.81-16.14a1.51,1.51,0,0,0-1.5-1.45l-19.37-.08a1.51,1.51,0,0,1-1.5-1.52v-3.2a1.51,1.51,0,0,1,1.52-1.51l24.85.1a1.51,1.51,0,0,1,1.48,1.22L185,248c.13.67,3,15.83-6.13,25.69a1.51,1.51,0,0,1-2.21,0"/><path class="cls-1" d="M158.49,273.08l-2.16-2.37a1.51,1.51,0,0,1,0-2.08c9-9.19,8-21.74,7.62-24.51a1.75,1.75,0,0,1,.15-1.11,1.12,1.12,0,0,1,.57-.45l3.38-1.15a1.51,1.51,0,0,1,2,1.26c.57,5.12,1.07,19.87-9.38,30.45a1.52,1.52,0,0,1-2.19-.05"/><path class="cls-1" d="M192.39,257.49V254.2a1.63,1.63,0,0,1,1.6-1.54c10.44-.69,14-8,15.08-11.09a1.72,1.72,0,0,1,1.92-1.06l3.6.59a1.55,1.55,0,0,1,1.35,1.91c-1.86,6.08-8.13,15.28-21.77,16a1.64,1.64,0,0,1-1.79-1.55"/><path class="cls-1" d="M208.11,273.62h-3.37a1.52,1.52,0,0,1-1.59-1.44V253.35a1.52,1.52,0,0,1,1.59-1.44h3.37a1.52,1.52,0,0,1,1.59,1.44v18.83a1.52,1.52,0,0,1-1.59,1.44"/><path class="cls-1" d="M239.51,252.06H223.29a1.53,1.53,0,0,1-1.53-1.53v-3.24a1.53,1.53,0,0,1,1.53-1.53h16.22a1.53,1.53,0,0,1,1.53,1.53v3.24a1.53,1.53,0,0,1-1.53,1.53"/><path class="cls-1" d="M247.91,264.44h-19a1.53,1.53,0,0,1-1.53-1.53v-3.24a1.53,1.53,0,0,1,1.53-1.53h19a1.53,1.53,0,0,1,1.53,1.53v3.24a1.53,1.53,0,0,1-1.53,1.53"/><path class="cls-1" d="M231.86,273.29l-.55-32.49a1.51,1.51,0,0,1,1.51-1.51l3.24-.05a1.51,1.51,0,0,1,1.56,1.46l.55,32.49a1.51,1.51,0,0,1-1.51,1.51l-3.24.05a1.51,1.51,0,0,1-1.56-1.46"/><path class="cls-1" d="M251.94,250.5H248.7a1.53,1.53,0,0,1-1.53-1.53v-2.57a1.53,1.53,0,0,1,1.53-1.53h3.24a1.53,1.53,0,0,1,1.53,1.53V249a1.53,1.53,0,0,1-1.53,1.53"/><path class="cls-1" d="M260.57,250.5h-3.24A1.53,1.53,0,0,1,255.8,249v-2.57a1.53,1.53,0,0,1,1.53-1.53h3.24a1.53,1.53,0,0,1,1.53,1.53V249a1.53,1.53,0,0,1-1.53,1.53"/><path class="cls-1" d="M252.31,260.13l-4.8-2.77a1.56,1.56,0,0,0-2.33,1.35v5.54a1.55,1.55,0,0,0,2.33,1.35l4.8-2.77a1.55,1.55,0,0,0,0-2.69"/><path class="cls-1" d="M73.91,274.36H51.64a1.73,1.73,0,0,1-1.73-1.73v-2.52a1.73,1.73,0,0,1,1.73-1.73H67.93a1.73,1.73,0,0,0,1.73-1.73v-16A1.73,1.73,0,0,0,67.93,249H51.79a1.73,1.73,0,0,1-1.73-1.73v-2.52A1.73,1.73,0,0,1,51.79,243H73.91a1.73,1.73,0,0,1,1.73,1.73v27.92a1.73,1.73,0,0,1-1.73,1.73"/><path class="cls-1" d="M40.31,277.69H18a1.83,1.83,0,0,1-1.73-1.91V273A1.83,1.83,0,0,1,18,271.08H34.34a1.83,1.83,0,0,0,1.73-1.91V251.51a1.83,1.83,0,0,0-1.73-1.91H18.2a1.83,1.83,0,0,1-1.73-1.91V244.9A1.83,1.83,0,0,1,18.2,243H40.31A1.83,1.83,0,0,1,42,244.9v30.88a1.83,1.83,0,0,1-1.73,1.91"/><path class="cls-1" d="M94.14,291.83H92.26a.3.3,0,0,1-.23-.11l-2.14-2.62a.3.3,0,0,0-.53.19v2.25a.3.3,0,0,1-.3.3H87.48a.3.3,0,0,1-.3-.3v-6.62a.3.3,0,0,1,.3-.3h1.58a.3.3,0,0,1,.3.3V287a.3.3,0,0,0,.53.19l2-2.46a.3.3,0,0,1,.23-.11h1.6a.3.3,0,0,1,.23.48l-2.15,2.71a.3.3,0,0,0,0,.37l2.58,3.17a.3.3,0,0,1-.23.48"/><path class="cls-1" d="M113,291.83h-1.57a.3.3,0,0,1-.28-.19l-.44-1.09a.3.3,0,0,0-.28-.19h-2.73a.3.3,0,0,0-.27.18l-.45,1.09a.3.3,0,0,1-.28.18h-1.57a.3.3,0,0,1-.27-.42l2.93-6.62a.3.3,0,0,1,.27-.18h2a.29.29,0,0,1,.27.18l2.92,6.62a.3.3,0,0,1-.27.42m-3-3.13-.62-1.54a.3.3,0,0,0-.55,0l-.62,1.54a.3.3,0,0,0,.27.41h1.24a.3.3,0,0,0,.28-.41"/><path class="cls-1" d="M131.07,291.32l-.4.15-.32.1-.45.12a9.87,9.87,0,0,1-1,.17,8.78,8.78,0,0,1-1,.06,5.07,5.07,0,0,1-2-.4,3.33,3.33,0,0,1-1.49-1.24,3.66,3.66,0,0,1-.56-2.07,4.37,4.37,0,0,1,.29-1.55,2.73,2.73,0,0,1,.88-1.22,4.11,4.11,0,0,1,1-.58,4.22,4.22,0,0,1,1-.27,7.57,7.57,0,0,1,1.06-.07,7.13,7.13,0,0,1,1.57.14c.35.08.73.18,1.14.31a.31.31,0,0,1,.22.29v1.49a6,6,0,0,0-1-.48,4.16,4.16,0,0,0-1.36-.19,2.8,2.8,0,0,0-1.51.36,2,2,0,0,0-.79.85,2.33,2.33,0,0,0-.22,1,2.06,2.06,0,0,0,.25,1,1.88,1.88,0,0,0,.77.74,2.58,2.58,0,0,0,1.24.28,3.92,3.92,0,0,0,.89-.11v-.85h-1v-1.15a.3.3,0,0,1,.3-.3h2.28a.3.3,0,0,1,.3.3Z"/><path class="cls-1" d="M150.34,288.22a3.8,3.8,0,0,1-.47,1.86,3.37,3.37,0,0,1-1.39,1.35,4.65,4.65,0,0,1-2.24.5,4.59,4.59,0,0,1-2.27-.52A3.4,3.4,0,0,1,142.6,290a3.9,3.9,0,0,1,0-3.64A3.33,3.33,0,0,1,144,285a4.6,4.6,0,0,1,2.27-.52,5,5,0,0,1,1.78.3,3.56,3.56,0,0,1,1.29.8,3.38,3.38,0,0,1,.77,1.18,3.9,3.9,0,0,1,.26,1.42m-2.22,0a2.19,2.19,0,0,0-.12-.74,1.59,1.59,0,0,0-.36-.58,1.71,1.71,0,0,0-.59-.39,2.19,2.19,0,0,0-.81-.14,1.85,1.85,0,1,0,0,3.7,2.06,2.06,0,0,0,1-.24,1.57,1.57,0,0,0,.64-.66,2,2,0,0,0,.22-1"/><path class="cls-1" d="M166.58,289.74a2,2,0,0,1-.35,1.17,2.17,2.17,0,0,1-1,.76,3.6,3.6,0,0,1-1.42.26l-.55,0a6.12,6.12,0,0,1-.86-.16,6.81,6.81,0,0,1-1.12-.39v-1.77a8,8,0,0,0,1.08.56,2.87,2.87,0,0,0,1.13.22,1,1,0,0,0,.72-.19.53.53,0,0,0,.16-.35.59.59,0,0,0-.28-.49,4,4,0,0,0-.82-.41,6.43,6.43,0,0,1-1-.54,2.49,2.49,0,0,1-.73-.74,1.9,1.9,0,0,1-.28-1,1.92,1.92,0,0,1,1.16-1.81,3.32,3.32,0,0,1,1.44-.28,5,5,0,0,1,1.12.12,4.85,4.85,0,0,1,.85.26,3.4,3.4,0,0,1,.46.23v1.69a6,6,0,0,0-1-.57,2.76,2.76,0,0,0-1.16-.25.9.9,0,0,0-.59.16.48.48,0,0,0-.18.39.47.47,0,0,0,.18.37,3.15,3.15,0,0,0,.65.38,13,13,0,0,1,1.33.7,2.66,2.66,0,0,1,.78.72,1.75,1.75,0,0,1,.28,1"/><path class="cls-1" d="M185.22,291.83h-1.58a.3.3,0,0,1-.3-.3v-2.22a.3.3,0,0,0-.3-.3h-2.68a.3.3,0,0,0-.3.3v2.22a.3.3,0,0,1-.3.3h-1.58a.3.3,0,0,1-.3-.3v-6.62a.3.3,0,0,1,.3-.3h1.58a.3.3,0,0,1,.3.3V287a.3.3,0,0,0,.3.3H183a.3.3,0,0,0,.3-.3v-2.06a.3.3,0,0,1,.3-.3h1.58a.3.3,0,0,1,.3.3v6.62a.3.3,0,0,1-.3.3"/><path class="cls-1" d="M199.05,291.83h-1.58a.3.3,0,0,1-.3-.3v-6.62a.3.3,0,0,1,.3-.3h1.58a.3.3,0,0,1,.3.3v6.62a.3.3,0,0,1-.3.3"/><path class="cls-1" d="M219.1,291.83h-1.58a.3.3,0,0,1-.3-.3v-3a.3.3,0,0,0-.53-.19l-1.43,1.77h-.17l-1.44-1.77a.3.3,0,0,0-.53.19v3a.3.3,0,0,1-.3.3h-1.52a.3.3,0,0,1-.3-.3v-6.62a.3.3,0,0,1,.3-.3h1.53a.3.3,0,0,1,.23.11L215,287a.3.3,0,0,0,.46,0l1.91-2.32a.3.3,0,0,1,.23-.11h1.54a.3.3,0,0,1,.3.3v6.62a.3.3,0,0,1-.3.3"/><path class="cls-1" d="M238.52,291.83H237a.3.3,0,0,1-.28-.19l-.44-1.09a.29.29,0,0,0-.28-.19h-2.73a.29.29,0,0,0-.27.18l-.45,1.09a.3.3,0,0,1-.28.18h-1.57a.3.3,0,0,1-.27-.42l2.93-6.62a.3.3,0,0,1,.27-.18h2a.29.29,0,0,1,.27.18l2.92,6.62a.3.3,0,0,1-.27.42m-3-3.13-.62-1.54a.3.3,0,0,0-.55,0l-.62,1.54a.3.3,0,0,0,.27.41h1.25a.3.3,0,0,0,.28-.41"/><path class="cls-1" d="M143,247.15H126.9a1.51,1.51,0,0,1-1.63-1.36v-2.89a1.51,1.51,0,0,1,1.63-1.37H143a1.51,1.51,0,0,1,1.63,1.37v2.89a1.51,1.51,0,0,1-1.63,1.36"/><path class="cls-1" d="M147.87,256h-24a1.07,1.07,0,0,1-1.07-1.07v-3.21a1.07,1.07,0,0,1,1.07-1.07h24a1.07,1.07,0,0,1,1.07,1.07v3.21a1.07,1.07,0,0,1-1.07,1.07"/><path class="cls-1" d="M127.28,272.87a38.37,38.37,0,0,1-4.62-.28,1.07,1.07,0,0,1-.92-1.25l.75-4.18L122,269.8l.29-1.62a1.07,1.07,0,0,1,1.17-.87c2.85.33,11.19.86,16.15-3.31,2.47-2.08,3.77-5,4-9a1.06,1.06,0,0,1,1.06-1h3.21a1.07,1.07,0,0,1,1.07,1.13c-.23,5.56-2.21,9.93-5.89,13-4.7,3.93-11.16,4.76-15.77,4.76"/><path class="cls-1" d="M142,256c.89,0,1.56.63,1,2.81l3.48-2L144,254s-2.83,2-1.94,2"/><path class="cls-1" d="M235.16,92.36a1.17,1.17,0,0,0-1.56.55l-1.79,3.76a1.17,1.17,0,0,0,.55,1.56l4.14,2a.69.69,0,0,1-.26,1.31L222,102.2a1.16,1.16,0,0,0-1.11,1.22l.2,4.16a1.17,1.17,0,0,0,1.22,1.11l25.11-1.2a.69.69,0,0,1,.72.69l0,18a.69.69,0,0,1-.66.69L223.58,128a1.17,1.17,0,0,0-1.11,1.22l.2,4.16a1.17,1.17,0,0,0,1.22,1.11L253.36,133h.08a1.35,1.35,0,0,0,1.1-1.28l.06-28.92a2.7,2.7,0,0,0-1.59-2.47Z"/><path class="cls-2" d="M128,145.19,63.31,167.48a1.15,1.15,0,0,1-1.53-1.09l0-14.81a2.3,2.3,0,0,1,1.55-2.18l41.09-14.15a1.15,1.15,0,0,0,.78-1.09v-4.44a1.15,1.15,0,0,0-1.52-1.09l-45,15.51a.71.71,0,0,1-.37,0l-42.54-9a.69.69,0,0,1-.08-1.33l31.1-10.54a1.15,1.15,0,0,0,.78-1.09v-4.43A1.15,1.15,0,0,0,46,116.69L1.56,131.75A2.3,2.3,0,0,0,0,133.93v28.32a3.62,3.62,0,0,0,2.87,3.54l36.83,7.83a1.15,1.15,0,0,0,1.39-1.13v-4.29a1.15,1.15,0,0,0-.91-1.12L7.41,160.16A1.15,1.15,0,0,1,6.5,159V140.45a.69.69,0,0,1,.84-.67L54.7,150a.69.69,0,0,1,.54.68l0,23.2a2.3,2.3,0,0,0,3.07,2.17l2.19-.77,68.3-23.52a1.15,1.15,0,0,0,.78-1.09v-4.44a1.15,1.15,0,0,0-1.53-1.09m-69.86,1.76v-.07l0,.07Z"/><path class="cls-3" d="M263.09,192.47l-45.6,17.63a1.15,1.15,0,0,1-1.57-1.07V189.44a1.15,1.15,0,0,1,.74-1.07l50.78-19.67a1.89,1.89,0,0,0,1.21-1.76v-4.48a1.15,1.15,0,0,0-.88-1.12L197.17,144.4a1.15,1.15,0,0,0-1.42,1.12v4.31a1.15,1.15,0,0,0,.88,1.12l59,14.14a.64.64,0,0,1,.08,1.21l-42.63,16.49a1.16,1.16,0,0,1-.68,0l-85.26-20.45a1.15,1.15,0,0,0-1.42,1.12v4.31a1.15,1.15,0,0,0,.88,1.12l82,19.66a1.15,1.15,0,0,1,.88,1.12v26.42a2.76,2.76,0,0,0,3.74,2.58l2.76-1h0l48-18.56a1.15,1.15,0,0,0,.74-1.07v-4.5a1.15,1.15,0,0,0-1.57-1.07"/><path class="cls-4" d="M217.76,59.14a3.38,3.38,0,0,0-3.07-3.37l-61.31-5.56a1.15,1.15,0,0,0-1.25,1.15v4.21a1.15,1.15,0,0,0,1.05,1.15l52,4.61a.69.69,0,0,1,.39,1.21L178.77,85.83a3.76,3.76,0,0,1-2.79.91L66.58,77.12a1.19,1.19,0,0,0-1.32,1v.53a1.19,1.19,0,0,0-.07.39v32.18a1.15,1.15,0,0,0,1.15,1.15h4.19a1.15,1.15,0,0,0,1.15-1.15V84.82a.69.69,0,0,1,.75-.69l101.51,8.95a.69.69,0,0,1,.63.69v26.61a.69.69,0,0,1-.76.69L129.72,117a1.15,1.15,0,0,0-1.26,1.15v4.21a1.15,1.15,0,0,0,1,1.15l47.11,4.39a4.94,4.94,0,0,0,3.9-1.37l15.17-14.69a2.84,2.84,0,0,0,.87-2v-5.11a1.15,1.15,0,0,0-1.95-.83l-12.37,11.9a.69.69,0,0,1-1.17-.5V93.11a.69.69,0,0,1,.24-.52l28.78-25a.69.69,0,0,1,1.14.52V85.33a1.15,1.15,0,0,0,1.15,1.15h4.19a1.15,1.15,0,0,0,1.15-1.15Z"/><path class="cls-3" d="M186.78,211.41l-75.31-17.93a1.15,1.15,0,0,1-.88-1.12V175.1a1.15,1.15,0,0,0-.88-1.12l-4.19-1a1.15,1.15,0,0,0-1.42,1.12v22.13a2.77,2.77,0,0,0,2.12,2.69l79.8,19a1.64,1.64,0,0,0,2-1.59V213a1.64,1.64,0,0,0-1.25-1.59"/><path class="cls-5" d="M134.43,5.21a1,1,0,0,0,0-.26l-.31-2.81A2.4,2.4,0,0,0,131.48,0L61.8,7.67a1,1,0,0,0-.87,1.08L61.4,13a1,1,0,0,0,1.08.86l58.3-6.41a.59.59,0,0,1,.47,1l-13,12.39a.58.58,0,0,1-.34.16l-79.9,8.78a2.61,2.61,0,0,0-2.31,2.88.91.91,0,0,0,0,.26L28.1,58.77a1,1,0,0,0,1.06.88l4.23-.39a1,1,0,0,0,.88-1.06l-2-22.08a.58.58,0,0,1,.52-.64l73-8a1,1,0,0,1,1.1.9l2.06,21.74a1,1,0,0,1-.87,1.08L49,58.45a1,1,0,0,0-.86,1.08l.46,4.22a1,1,0,0,0,1.08.86l63.19-7.72a4.15,4.15,0,0,0,2.42-1.13l11.82-11.35a1.15,1.15,0,0,0,.34-1l-.53-4.92a1.15,1.15,0,0,0-1.95-.7l-9.13,8.76a1,1,0,0,1-1.68-.62l-1.88-19.85a1,1,0,0,1,.3-.82l15.18-14.52a.59.59,0,0,1,1,.37l1.07,11.72a1,1,0,0,0,1.06.88l4.23-.39a1,1,0,0,0,.88-1.06Z"/></g></g></svg>