<svg xmlns="http://www.w3.org/2000/svg" viewBox="0 0 332.72 72.45"><defs><style>.cls-1{fill:#422610;}.cls-2{fill:none;stroke:#422610;stroke-miterlimit:10;stroke-width:3px;}</style></defs><title>申し込みボタン</title><g id="レイヤー_2" data-name="レイヤー 2"><g id="レイヤー_1-2" data-name="レイヤー 1"><path class="cls-1" d="M33.22,33.19c-1.11.09-2.24.18-3.73.18-.38,0-.49-.13-.53-.47s-.16-1.15-.24-1.93a11.32,11.32,0,0,0,1.73.11c.93,0,1.89-.09,2.82-.18,0-.73,0-1.58,0-2.53a8.23,8.23,0,0,0-.15-1.8,12.59,12.59,0,0,1,2.64.4c.27.07.45.22.45.42a.79.79,0,0,1-.13.35,2.73,2.73,0,0,0-.31.87c-.07.58-.09,1.13-.11,1.84a21.64,21.64,0,0,0,2.84-.82c.2-.07.36,0,.38.2A11.15,11.15,0,0,1,39,31.57c0,.22-.07.29-.29.36a22.81,22.81,0,0,1-3.18.84c0,1.07,0,2.15,0,3.22A14,14,0,0,1,41,34.77c2.76,0,4.73,1.78,4.73,4.44,0,2.84-1.82,4.51-4.82,4.51a8.61,8.61,0,0,1-1.82-.2.6.6,0,0,1-.49-.67A3.88,3.88,0,0,0,37.9,41a8.3,8.3,0,0,0,2.78.4,2.2,2.2,0,0,0,2.4-2.29c0-1.44-.89-2.24-2.44-2.24a11,11,0,0,0-5.09,1.51c0,.93,0,1.69.09,2.67s.18,2.38.18,2.89c0,.31,0,.65-.33.73a8.85,8.85,0,0,1-1.64.27c-.24,0-.33-.15-.53-.44a13.7,13.7,0,0,0-3.16-2.85,4.17,4.17,0,0,0-.71.49.55.55,0,0,1-.38.16.62.62,0,0,1-.49-.36c-.24-.4-.69-1.33-1-2.07a8.18,8.18,0,0,0,2-.78c1-.53,2-1.13,3.62-2.07Zm-2.07,7.64a22.64,22.64,0,0,0,2.09,1c.18,0,.24,0,.22-.18,0-.58-.09-1.6-.13-2.33-.62.42-1.38.93-2.18,1.51M41.77,29.17c.16-.24.22-.31.38-.27a10.56,10.56,0,0,1,4.71,2.71c.09.09.13.16.13.22a.59.59,0,0,1-.09.22c-.29.44-.87,1.13-1.2,1.58-.07.09-.38.11-.44,0a10.27,10.27,0,0,0-4.51-2.73,13.9,13.9,0,0,1,1-1.73"/><path class="cls-1" d="M62.55,28.06a15,15,0,0,0-.18-2.71c.85,0,1.69.07,2.44.15.2,0,.36.11.36.22a1.1,1.1,0,0,1-.11.47A5.83,5.83,0,0,0,64.9,28v.73h3.91c2.15,0,2.91,0,3,0s.24,0,.24.24,0,1,0,3.42v3.24c0,4.13,0,4.91,0,5s0,.24-.24.24H70c-.22,0-.24,0-.24-.24V39.9H64.9v1.44c0,2.64,0,4,0,4.11s0,.24-.22.24h-2c-.2,0-.22,0-.22-.24s0-1.47,0-4.09V39.9H57.86v.84c0,.22,0,.24-.24.24H55.75c-.22,0-.24,0-.24-.24s0-.91,0-5.07V32.8c0-2.89,0-3.69,0-3.84s0-.24.24-.24.91,0,3,0h3.76Zm-4.69,5.2h4.69V30.78H57.86Zm4.69,2H57.86v2.64h4.69Zm2.35-2h4.84V30.78H64.9Zm4.84,2H64.9v2.64h4.84Z"/><path class="cls-1" d="M88.13,26.84c.38.09.53.2.53.42a2.15,2.15,0,0,1-.22.73,13.31,13.31,0,0,0-.31,2.71c-.22,3.42-.33,5.69-.33,8.6,0,2.24.27,2.76,2,2.76,2,0,5.06-1.2,7.77-4.09a7.69,7.69,0,0,0,.51,2.11,1.48,1.48,0,0,1,.18.53c0,.2-.09.38-.44.69a12.69,12.69,0,0,1-8.42,3.33c-2.84,0-4.18-1.13-4.18-4.53,0-3.73.2-6.93.31-9.6a14.8,14.8,0,0,0-.22-4.07,22.88,22.88,0,0,1,2.78.4"/><path class="cls-1" d="M112.33,40.77a3.36,3.36,0,0,0,1.82,1.84,12.67,12.67,0,0,0,4.11.44c2.87,0,6.24-.15,9.55-.49a4.12,4.12,0,0,0-.6,1.73c-.11.71-.11.71-.82.76-2.82.15-5.46.22-7.77.22a15.14,15.14,0,0,1-5.2-.65,4.29,4.29,0,0,1-2.18-2,25.37,25.37,0,0,1-2.29,2,2,2,0,0,0-.45.44c-.11.15-.2.22-.33.22s-.22-.11-.31-.29A19.28,19.28,0,0,1,107,42.9a10.11,10.11,0,0,0,1.31-.69,14.33,14.33,0,0,0,1.87-1.42V35.88H109c-1.2,0-1.51,0-1.62,0s-.27,0-.27-.27V33.95c0-.22,0-.24.27-.24s.42,0,1.62,0h1.42c1.18,0,1.53,0,1.67,0s.24,0,.24.24,0,.76,0,2.11Zm-1.38-10c-.16.11-.22.15-.29.15s-.11,0-.18-.15a16.72,16.72,0,0,0-2.73-3.47c-.18-.15-.13-.22.11-.38l1.24-.82c.24-.16.29-.18.47,0a16.9,16.9,0,0,1,2.78,3.31c.13.2.13.24-.11.42Zm7.87-4.27c1,0,1.73,0,2,0a.22.22,0,0,1,.22.25,16.45,16.45,0,0,0,.27,3.27,14,14,0,0,0,6.24,9.38,8.2,8.2,0,0,0-1.18,1.73c-.18.33-.26.49-.4.49s-.27-.09-.49-.29a15.79,15.79,0,0,1-5.4-8.44A15.52,15.52,0,0,1,115,41.15c-.24.2-.38.31-.49.31s-.22-.13-.47-.42a5.32,5.32,0,0,0-1.38-1.31c3.55-2.49,5.55-6,6.07-11h-1.93c-1.38,0-1.78,0-1.91,0s-.27,0-.27-.27V26.75c0-.22,0-.25.27-.25s.53,0,1.91,0Z"/><path class="cls-1" d="M148.29,32.82a7,7,0,0,0,0-1.51,9.6,9.6,0,0,1,2.58,1,.42.42,0,0,1,.16.6,3.72,3.72,0,0,0-.35.87c-.18.93-.4,1.91-.62,2.87a25.88,25.88,0,0,1,3.47,2.13c.22.13.2.24.13.47a18.79,18.79,0,0,1-1,1.91c-.07.11-.13.15-.2.15a.42.42,0,0,1-.27-.15A18.11,18.11,0,0,0,149.29,39a13.63,13.63,0,0,1-4.49,5.84c-.2.15-.31.24-.44.24a.61.61,0,0,1-.33-.15,4.56,4.56,0,0,0-1.93-.91,12.26,12.26,0,0,0,5-6,15,15,0,0,0-4.4-1.35A15.38,15.38,0,0,1,140,41.1a3.65,3.65,0,0,1-2.84,1.22c-1.29,0-2.64-.89-2.64-3,0-2.76,2.84-4.91,6.55-4.91.73-1.84,1.29-3.4,1.84-5.26l-3.07.36a4.84,4.84,0,0,0-1,.24,1.13,1.13,0,0,1-.4.09.36.36,0,0,1-.36-.25,13.45,13.45,0,0,1-.64-2.42,8.2,8.2,0,0,0,2,.13A24.75,24.75,0,0,0,142.8,27a2.56,2.56,0,0,0,1.09-.38.49.49,0,0,1,.29-.09.51.51,0,0,1,.31.09A7.37,7.37,0,0,1,146,27.82a.53.53,0,0,1,.2.38.57.57,0,0,1-.22.38,3,3,0,0,0-.6,1.15c-.58,1.51-1.2,3.24-1.87,4.84a18.37,18.37,0,0,1,4.31,1.11,21.83,21.83,0,0,0,.47-2.87M136.56,39c0,.71.24,1,.78,1a1.79,1.79,0,0,0,1.29-.84,15.18,15.18,0,0,0,1.62-2.71c-2.27.09-3.69,1.27-3.69,2.53"/><path class="cls-1" d="M166,27.42c.24.13.33.27.33.44a1.12,1.12,0,0,1-.16.49,4.51,4.51,0,0,0-.4,1.22,44.15,44.15,0,0,0-1.11,8.09c0,.89,0,1.91.07,2.84.44-1,.91-2,1.38-3.09a6,6,0,0,0,.78,1.4.47.47,0,0,1,.13.31.64.64,0,0,1-.13.36,13.15,13.15,0,0,0-1.13,3.38,4.11,4.11,0,0,0,0,1.18c0,.16-.07.22-.27.29a9.28,9.28,0,0,1-1.67.38c-.24.07-.33,0-.44-.27a20.71,20.71,0,0,1-1-6.78,48.18,48.18,0,0,1,.91-8.42,11.18,11.18,0,0,0,.16-2.62,17.54,17.54,0,0,1,2.53.8m7.64,5.93a45.06,45.06,0,0,1-4.58,0c-.29,0-.38-.07-.4-.29a13.74,13.74,0,0,1-.15-2,32.07,32.07,0,0,0,5.06.07c0-.8,0-1.51,0-2.33a9.3,9.3,0,0,0-.29-2.18,12.39,12.39,0,0,1,2.69.42c.25.07.4.18.4.38a1,1,0,0,1-.13.38,2.5,2.5,0,0,0-.18.78c0,.75,0,1.33,0,2.35,1-.09,2.2-.24,3.16-.4.27-.07.31,0,.35.27a8.77,8.77,0,0,1,.13,1.58c0,.2-.09.31-.24.33a24.91,24.91,0,0,1-3.42.47c0,2.49,0,4,.15,6a14.57,14.57,0,0,1,3.69,2.13c.2.13.22.2.11.44a11.84,11.84,0,0,1-1,1.71.26.26,0,0,1-.2.13.3.3,0,0,1-.2-.11,13.3,13.3,0,0,0-2.4-1.78c-.18,1.87-1.45,2.89-4.07,2.89s-4-1.2-4-3.11,1.64-3.13,3.89-3.13a9.32,9.32,0,0,1,1.78.18c0-1.71-.07-3.33-.09-5.09m-1.8,6.91c-1,0-1.67.38-1.67,1.07s.49,1.11,1.8,1.11c1.11,0,1.82-.64,1.82-1.44a3.17,3.17,0,0,0,0-.44,6.19,6.19,0,0,0-1.93-.29"/><path class="cls-1" d="M192.92,37.15c.2.11.22.22.11.4a3.66,3.66,0,0,0-.58,1.69c0,1.4,1.44,2.09,5.26,2.09a28.27,28.27,0,0,0,6-.64c.31-.07.42,0,.47.2a18.52,18.52,0,0,1,.35,2.18c0,.2-.11.29-.38.33a33.46,33.46,0,0,1-6.62.53c-5,0-7.53-1.6-7.53-4.49a5.86,5.86,0,0,1,1.18-3.18c.58.29,1.13.58,1.71.89m5-8.71c1.62,0,3.29-.11,4.71-.2.22,0,.31.07.33.24a15,15,0,0,1,.11,1.89c0,.31-.11.44-.38.47a12.94,12.94,0,0,0-5.44,2.2,1,1,0,0,1-.56.2.92.92,0,0,1-.46-.13,5.4,5.4,0,0,0-1.56-.71c1.15-.75,2.13-1.38,2.91-1.84a15.19,15.19,0,0,1-1.82.07,27.74,27.74,0,0,1-3.89-.38c-.2,0-.29-.13-.29-.4,0-.53,0-1.18.09-2a28,28,0,0,0,6.24.58"/><path class="cls-1" d="M220,28.06a7.44,7.44,0,0,0,0-2.15,14.56,14.56,0,0,1,2.67.47c.29.09.44.22.44.4a.7.7,0,0,1-.16.35,2.33,2.33,0,0,0-.38.82c-.11.6-.2,1-.31,1.82a40.51,40.51,0,0,0,4.17-.82c.31-.09.42-.07.47.22a10.07,10.07,0,0,1,.16,1.65c0,.24-.07.31-.27.35-1.91.42-3.11.67-5,.91-.31,1.84-.62,3.33-1,4.89a9.6,9.6,0,0,1,6.38-2.36c3,0,5,1.91,5,4.2a5,5,0,0,1-2.53,4.49,14.81,14.81,0,0,1-5.67,1.78,10.77,10.77,0,0,1-1.65.15c-.22,0-.38-.11-.56-.53a4.21,4.21,0,0,0-1.2-1.58,17.31,17.31,0,0,0,6.38-1.22c1.71-.71,2.53-1.73,2.53-3.13,0-1.15-.84-2.11-2.53-2.11A7.39,7.39,0,0,0,221,39.42c-.2.29-.42.56-.62.84s-.22.36-.42.33a6.26,6.26,0,0,1-1.67-.49c-.36-.16-.49-.24-.49-.44a1.55,1.55,0,0,1,.09-.44c.11-.38.2-.71.29-1,.49-2,.8-3.6,1.18-5.82-1.2.09-2.6.2-3.73.2a.38.38,0,0,1-.42-.31c-.07-.27-.22-1.2-.31-1.93,1.73,0,3.11-.07,4.82-.2.11-.78.2-1.51.27-2"/><path class="cls-1" d="M246.76,31.51c.24.11.36.25.36.42a.65.65,0,0,1-.11.33,4.15,4.15,0,0,0-.44,1.18,36.69,36.69,0,0,0-.53,4A10.83,10.83,0,0,1,253.45,34c3.24,0,5.18,1.89,5.18,4.75a5.45,5.45,0,0,1-3.36,5,19.35,19.35,0,0,1-5.69,1.53c-.49.07-.69,0-.89-.29a5.67,5.67,0,0,0-1.51-1.89,18.43,18.43,0,0,0,6.11-1.24c1.8-.78,2.62-1.93,2.62-3.35,0-1.2-.76-2.29-2.67-2.29s-4.31,1.27-6.4,3.38a6.05,6.05,0,0,0-1,1.22c-.13.22-.22.22-.51.15a15.15,15.15,0,0,1-1.51-.6c-.22-.09-.31-.13-.31-.44.13-2.58.42-5.2.69-7.18a14.13,14.13,0,0,0,.2-2,12.37,12.37,0,0,1,2.31.8m.56-5.62a.37.37,0,0,1,.42-.11,14.57,14.57,0,0,1,4.35,2.64c.11.09.16.16.16.24a.6.6,0,0,1-.11.27A14.83,14.83,0,0,1,251,30.49c-.09.11-.18.18-.24.18s-.15,0-.27-.15A17.76,17.76,0,0,0,246,27.62a12.31,12.31,0,0,1,1.31-1.73"/><path class="cls-1" d="M314.19,33.78l-18-11a1.55,1.55,0,0,0-2.36,1.33V46.13a1.55,1.55,0,0,0,2.36,1.33l18-11a1.55,1.55,0,0,0,0-2.65"/><rect class="cls-2" x="1.5" y="1.5" width="329.72" height="69.45"/></g></g></svg>