<svg xmlns="http://www.w3.org/2000/svg" viewBox="0 0 413.01 286.64"><defs><style>.cls-1{fill:#efe3df;}</style></defs><title>背景パーツ2</title><g id="レイヤー_2" data-name="レイヤー 2"><g id="レイヤー_1-2" data-name="レイヤー 1"><path class="cls-1" d="M407.14,23.1a5.06,5.06,0,0,0,0-1.16L406,9.47c-.54-5.84-5-10-9.9-9.41l-261,34c-2,.26-3.46,2.4-3.24,4.78l1.74,18.73c.22,2.38,2,4.09,4,3.83L356,33c2.09-.27,3.27,2.75,1.76,4.46l-48.53,55a2.07,2.07,0,0,1-1.28.71L8.7,132c-5.36.7-9.23,6.41-8.64,12.75A5.17,5.17,0,0,0,0,145.93L8.87,260.67c.19,2.38,2,4.14,4,3.92l15.85-1.71c2-.22,3.49-2.33,3.31-4.71l-7.56-97.94a2.52,2.52,0,0,1,1.95-2.82l273.25-35.57c2.07-.27,3.93,1.52,4.12,4l7.72,96.45c.19,2.38-1.26,4.51-3.26,4.81L87.09,259.27c-2,.26-3.46,2.4-3.24,4.78l1.74,18.73c.22,2.38,2,4.09,4,3.83l236.69-34.24a14.64,14.64,0,0,0,9.07-5L379.67,197a5.67,5.67,0,0,0,1.29-4.21L379,171c-.38-4.23-4.7-6.08-7.28-3.13l-34.21,38.86c-2.25,2.56-6,.91-6.3-2.77l-7-88a4.91,4.91,0,0,1,1.14-3.61l56.87-64.39c1.33-1.5,3.54-.53,3.7,1.64l4,52c.19,2.38,2,4.14,4,3.92l15.85-1.71c2-.22,3.5-2.33,3.31-4.71Z"/></g></g></svg>