<svg xmlns="http://www.w3.org/2000/svg" viewBox="0 0 488.14 264.95"><defs><style>.cls-1{fill:#efe3df;}</style></defs><title>背景パーツ5</title><g id="レイヤー_2" data-name="レイヤー 2"><g id="レイヤー_1-2" data-name="レイヤー 1"><path class="cls-1" d="M475.36,39.39,270.92,202.66c-2.36,1.88-5.86.55-6.87-2.61l-19-59.35a9.67,9.67,0,0,1,2.81-10.52L377.7,26.53a4.84,4.84,0,0,0,1.41-5.25L373.46,3.49c-1-3.17-4.51-4.51-6.87-2.62L224.31,114.49A2.36,2.36,0,0,1,223,115L58.56,127.49c-2.65.2-4.08-3.58-2-5.24L155,44.47a4.83,4.83,0,0,0,1.42-5.26l-5.64-17.76c-1-3.16-4.49-4.5-6.86-2.63L3.35,129.93A9.66,9.66,0,0,0,.5,140.45L36.54,254c2.18,6.86,8.36,11.41,14.83,10.93l142.44-10.66c2.77-.21,4.5-3.17,3.57-6.1L191.92,231a4.75,4.75,0,0,0-4.72-3.47L60.53,237.13a4.75,4.75,0,0,1-4.72-3.47L32.17,159.18a2.69,2.69,0,0,1,2.15-3.66L217.76,142.6a2.86,2.86,0,0,1,2.82,2.09l29.46,93c2,6.37,9.08,9,13.8,5.21l6.9-5.6L486.48,65a4.83,4.83,0,0,0,1.41-5.25L482.24,42c-1-3.17-4.51-4.51-6.87-2.62m-249.06,86.8,0-.28.17.24Z"/></g></g></svg>