<svg xmlns="http://www.w3.org/2000/svg" viewBox="0 0 653.36 329.81"><defs><style>.cls-1{fill:#efe3df;}</style></defs><title>背景パーツ6</title><g id="レイヤー_2" data-name="レイヤー 2"><g id="レイヤー_1-2" data-name="レイヤー 1"><path class="cls-1" d="M631.23,212.84l-181,78c-3,1.29-6.22-1.17-6.22-4.75V199.41a5.11,5.11,0,0,1,2.92-4.75l201.61-87a8.38,8.38,0,0,0,4.79-7.77L653.36,80a5,5,0,0,0-3.5-5L369.53.14c-2.87-.77-5.64,1.66-5.64,5V24.18a5,5,0,0,0,3.5,5L601.51,91.72c2.41.64,2.63,4.36.32,5.35L432.59,170a4.13,4.13,0,0,1-2.71.2L91.39,79.74c-2.87-.77-5.63,1.66-5.63,5v19.09a5,5,0,0,0,3.5,5l325.43,87a5,5,0,0,1,3.5,5V317.59c0,8.55,7.67,14.45,14.84,11.42L444,324.38v0l190.53-82.12a5.11,5.11,0,0,0,2.92-4.75v-19.9c0-3.58-3.22-6-6.22-4.75"/><path class="cls-1" d="M328.28,296.64l-299-79.33a5,5,0,0,1-3.5-5V135.95a5,5,0,0,0-3.5-5L5.64,126.52c-2.88-.77-5.64,1.66-5.64,5v97.94c0,5.67,3.49,10.59,8.43,11.91L325.25,325.4c4.09,1.09,8-2.36,8-7V303.69a7.13,7.13,0,0,0-5-7"/></g></g></svg>