<svg xmlns="http://www.w3.org/2000/svg" viewBox="0 0 491.49 340.64"><defs><style>.cls-1{fill:#efe3df;}</style></defs><title>背景パーツ3</title><g id="レイヤー_2" data-name="レイヤー 2"><g id="レイヤー_1-2" data-name="レイヤー 1"><path class="cls-1" d="M487.87,313.34l-276.8-47c-3.19-.54-4.63-4.3-2.82-7.37l34-57.58a10.38,10.38,0,0,1,10.43-5.27L428.39,226a5.19,5.19,0,0,0,5.21-2.62L443.8,206.1c1.82-3.07.39-6.83-2.81-7.38L248.36,166a2.52,2.52,0,0,1-1.33-.67L119.52,42.59c-2.06-2-.05-5.82,2.78-5.33L254.91,60.51a5.18,5.18,0,0,0,5.23-2.62l10.19-17.2c1.81-3.06.39-6.81-2.79-7.37L78.11.13A10.37,10.37,0,0,0,67.65,5.37L2.5,115.35C-1.43,122-.66,130.2,4.35,135L114.66,241.46c2.15,2.07,5.75,1.34,7.43-1.5l9.86-16.64a5.1,5.1,0,0,0-.59-6.26L33.14,122.51a5.1,5.1,0,0,1-.59-6.26L75.29,44.1a2.89,2.89,0,0,1,4.47-.89L221.17,180.85a3.06,3.06,0,0,1,.34,3.75l-53.44,90.06c-3.66,6.17-.75,13.73,5.69,14.77l9.41,1.52,292.09,49.62a5.19,5.19,0,0,0,5.21-2.62l10.21-17.23c1.82-3.07.38-6.83-2.81-7.38M240.42,176l.2-.23-.07.3Z"/></g></g></svg>