<svg xmlns="http://www.w3.org/2000/svg" viewBox="0 0 165.74 33.2"><defs><style>.cls-1{fill:#e6c338;}</style></defs><title>見出し2</title><g id="レイヤー_2" data-name="レイヤー 2"><g id="レイヤー_1-2" data-name="レイヤー 1"><polygon class="cls-1" points="19.41 0 19.41 4.8 6.15 4.8 6.15 13.03 19.41 13.03 19.41 17.88 6.15 17.88 6.15 31.82 0 31.82 0 0 19.41 0"/><rect class="cls-1" x="34.48" width="6.15" height="31.82"/><polygon class="cls-1" points="106.43 1.38 106.43 28.4 121.88 28.4 121.88 33.2 100.28 33.2 100.28 1.38 106.43 1.38"/><path class="cls-1" d="M148.74,1.38a18.78,18.78,0,0,1,8.84,2,14.7,14.7,0,0,1,6,5.69,16,16,0,0,1,2.14,8.25,15.85,15.85,0,0,1-2.15,8.28,14.45,14.45,0,0,1-6.12,5.59,20,20,0,0,1-9.09,2h-13V1.38Zm-.64,27a11.11,11.11,0,0,0,8.19-3.06,10.81,10.81,0,0,0,3.09-8,10.75,10.75,0,0,0-3.11-8.13,11.6,11.6,0,0,0-8.37-3h-6.33V28.4Z"/><polygon class="cls-1" points="82.38 1.08 82.38 5.88 67.96 5.88 67.96 14.24 81.76 14.24 81.76 19.05 67.96 19.05 67.96 28.09 82.69 28.09 82.69 32.9 61.81 32.9 61.81 1.08 82.38 1.08"/></g></g></svg>