<svg xmlns="http://www.w3.org/2000/svg" viewBox="0 0 238.16 31.16"><defs><style>.cls-1{fill:#e6c338;}</style></defs><title>見出し5</title><g id="レイヤー_2" data-name="レイヤー 2"><g id="レイヤー_1-2" data-name="レイヤー 1"><path class="cls-1" d="M18.52.39,31.94,30.77h-6.2l-3.15-7.39H9.09L6.15,30.77H0L12.52.39ZM10.87,18.92h9.8l-5.13-12Z"/><path class="cls-1" d="M56.35,0a21.87,21.87,0,0,1,5.06.59,25.6,25.6,0,0,1,5.35,2V8.11a25.2,25.2,0,0,0-5.18-2.33,17.08,17.08,0,0,0-5-.72A12.63,12.63,0,0,0,50.76,6.4a9.82,9.82,0,0,0-4.05,3.77,10.41,10.41,0,0,0-1.45,5.41A10.47,10.47,0,0,0,46.7,21a9.63,9.63,0,0,0,4,3.73,12.86,12.86,0,0,0,5.87,1.32,15.7,15.7,0,0,0,4.77-.72,34.48,34.48,0,0,0,5.73-2.59v5.53a26.5,26.5,0,0,1-5.44,2.2,22.9,22.9,0,0,1-5.78.65,18.75,18.75,0,0,1-8.59-1.91,14.35,14.35,0,0,1-5.95-5.51,15,15,0,0,1-2.16-7.88,15.51,15.51,0,0,1,2.23-8.24A15,15,0,0,1,47.55,2a19.18,19.18,0,0,1,8.8-2"/><path class="cls-1" d="M94.54,0a21.87,21.87,0,0,1,5.06.59,25.6,25.6,0,0,1,5.35,2V8.11a25.23,25.23,0,0,0-5.19-2.33,17.08,17.08,0,0,0-5-.72A12.63,12.63,0,0,0,89,6.4a9.8,9.8,0,0,0-4.05,3.77,10.4,10.4,0,0,0-1.45,5.41A10.48,10.48,0,0,0,84.89,21a9.63,9.63,0,0,0,4,3.73,12.86,12.86,0,0,0,5.87,1.32,15.7,15.7,0,0,0,4.77-.72,34.48,34.48,0,0,0,5.73-2.59v5.53a26.52,26.52,0,0,1-5.43,2.2,22.91,22.91,0,0,1-5.78.65,18.76,18.76,0,0,1-8.59-1.91,14.36,14.36,0,0,1-5.95-5.51,15,15,0,0,1-2.16-7.88,15.5,15.5,0,0,1,2.23-8.24A15,15,0,0,1,85.75,2a19.18,19.18,0,0,1,8.8-2"/><path class="cls-1" d="M128.6,0a17.75,17.75,0,0,1,8.54,2.22V7.44q-4.72-2.85-8.37-2.85a6.06,6.06,0,0,0-3.47.86,2.65,2.65,0,0,0-1.25,2.29q0,1.72,2.33,3.18.65.44,5,2.44a14.39,14.39,0,0,1,5.39,3.91,8.25,8.25,0,0,1,1.65,5.17,7.9,7.9,0,0,1-2.82,6.32,10.85,10.85,0,0,1-7.29,2.4,17.3,17.3,0,0,1-5-.64,21.82,21.82,0,0,1-4.71-2.21V22.53q4.87,4,9.17,4a5.92,5.92,0,0,0,3.48-.93,2.9,2.9,0,0,0,1.33-2.48,3.92,3.92,0,0,0-2.31-3.43q-1.91-1-4.93-2.5a14.5,14.5,0,0,1-5.36-3.8,7.75,7.75,0,0,1-1.77-5,7.4,7.4,0,0,1,2.85-6.1A11.7,11.7,0,0,1,128.6,0"/><polygon class="cls-1" points="172.13 0.39 172.13 4.98 158.36 4.98 158.36 12.96 171.54 12.96 171.54 17.55 158.36 17.55 158.36 26.18 172.43 26.18 172.43 30.77 152.49 30.77 152.49 0.39 172.13 0.39"/><path class="cls-1" d="M195.62,0a17.75,17.75,0,0,1,8.54,2.22V7.44q-4.72-2.85-8.37-2.85a6,6,0,0,0-3.47.86,2.65,2.65,0,0,0-1.25,2.29q0,1.72,2.33,3.18.65.44,5,2.44a14.36,14.36,0,0,1,5.39,3.91,8.24,8.24,0,0,1,1.65,5.17,7.9,7.9,0,0,1-2.82,6.32,10.85,10.85,0,0,1-7.29,2.4,17.32,17.32,0,0,1-5-.64,21.84,21.84,0,0,1-4.71-2.21V22.53q4.87,4,9.17,4a5.92,5.92,0,0,0,3.48-.93,2.9,2.9,0,0,0,1.33-2.48,3.92,3.92,0,0,0-2.31-3.43q-1.91-1-4.93-2.5a14.51,14.51,0,0,1-5.36-3.8,7.75,7.75,0,0,1-1.77-5,7.4,7.4,0,0,1,2.85-6.1A11.71,11.71,0,0,1,195.62,0"/><path class="cls-1" d="M228.31,0a17.75,17.75,0,0,1,8.54,2.22V7.44q-4.72-2.85-8.37-2.85a6.05,6.05,0,0,0-3.47.86,2.65,2.65,0,0,0-1.25,2.29q0,1.72,2.33,3.18.65.44,5,2.44a14.37,14.37,0,0,1,5.39,3.91,8.24,8.24,0,0,1,1.65,5.17,7.9,7.9,0,0,1-2.82,6.32,10.85,10.85,0,0,1-7.29,2.4,17.3,17.3,0,0,1-5-.64,21.77,21.77,0,0,1-4.71-2.21V22.53q4.87,4,9.17,4a5.92,5.92,0,0,0,3.48-.93,2.89,2.89,0,0,0,1.33-2.48A3.92,3.92,0,0,0,230,19.72q-1.91-1-4.93-2.5a14.51,14.51,0,0,1-5.36-3.8,7.75,7.75,0,0,1-1.77-5,7.4,7.4,0,0,1,2.85-6.1A11.71,11.71,0,0,1,228.31,0"/></g></g></svg>