<svg xmlns="http://www.w3.org/2000/svg" viewBox="0 0 711.52 359.17">
    <defs>
        <style>
            .cls-1{fill:#efe3df;}
        </style>
    </defs>
    <title>
        背景パーツ01
    </title>
    <g id="レイヤー_2" data-name="レイヤー 2">
        <path d="M687.41,231.78l-197.14,85c-3.26,1.41-6.77-1.28-6.77-5.18V217.16a5.56,5.56,0,0,1,3.18-5.17L706.25,117.2a9.13,9.13,0,0,0,5.22-8.46l.06-21.59a5.46,5.46,0,0,0-3.81-5.4L402.43.16c-3.13-.84-6.14,1.8-6.14,5.4V26.34a5.46,5.46,0,0,0,3.81,5.39l255,68.15c2.62.7,2.86,4.75.35,5.83L471.09,185.15a4.49,4.49,0,0,1-3,.22L99.53,86.84c-3.13-.84-6.14,1.81-6.14,5.39V113a5.46,5.46,0,0,0,3.82,5.39l354.4,94.74a5.46,5.46,0,0,1,3.81,5.39V345.86c0,9.3,8.36,15.74,16.16,12.44l11.92-5v0L691,263.8a5.58,5.58,0,0,0,3.18-5.18V237c0-3.9-3.51-6.58-6.77-5.17" class="cls-1"/>
        <path d="M357.5,323,31.9,236.66a5.46,5.46,0,0,1-3.82-5.39V148a5.46,5.46,0,0,0-3.81-5.39L6.14,137.78C3,136.94,0,139.59,0,143.18V249.84c0,6.17,3.8,11.54,9.18,13l345,91.55c4.45,1.18,8.73-2.57,8.73-7.67v-16A7.77,7.77,0,0,0,357.5,323" class="cls-1"/>
    </g>
</svg>
