<svg xmlns="http://www.w3.org/2000/svg" viewBox="0 0 397.57 86.57"><defs><style>.cls-1{fill:#42260f;}.cls-2{fill:none;stroke:#422610;stroke-miterlimit:10;stroke-width:3.58px;}</style></defs><title>応募ボタン</title><g id="レイヤー_2" data-name="レイヤー 2"><g id="レイヤー_1-2" data-name="レイヤー 1"><path class="cls-1" d="M39.69,39.67c-1.33.11-2.68.21-4.46.21-.45,0-.58-.16-.64-.56s-.19-1.38-.29-2.31a13.53,13.53,0,0,0,2.07.13c1.12,0,2.26-.11,3.37-.21,0-.87,0-1.88,0-3a9.84,9.84,0,0,0-.19-2.15,15,15,0,0,1,3.16.48c.32.08.53.26.53.5a.94.94,0,0,1-.16.42,3.26,3.26,0,0,0-.37,1c-.08.69-.11,1.35-.13,2.2a25.86,25.86,0,0,0,3.4-1c.24-.08.42,0,.45.24a13.32,13.32,0,0,1,.16,2.07c0,.27-.08.35-.34.43a27.26,27.26,0,0,1-3.8,1c0,1.27,0,2.58-.05,3.85A16.74,16.74,0,0,1,49,41.55c3.29,0,5.65,2.12,5.65,5.31,0,3.4-2.18,5.39-5.76,5.39A10.28,10.28,0,0,1,46.67,52a.71.71,0,0,1-.58-.8,4.63,4.63,0,0,0-.8-2.26,9.92,9.92,0,0,0,3.32.48,2.63,2.63,0,0,0,2.87-2.73C51.48,45,50.41,44,48.56,44a13.13,13.13,0,0,0-6.08,1.81c0,1.11.05,2,.11,3.19s.21,2.84.21,3.45c0,.37.05.77-.4.88a10.57,10.57,0,0,1-2,.32c-.29,0-.4-.19-.64-.53A16.38,16.38,0,0,0,36,49.73a5,5,0,0,0-.85.59.66.66,0,0,1-.45.19.74.74,0,0,1-.58-.43c-.29-.48-.82-1.59-1.22-2.47a9.77,9.77,0,0,0,2.44-.93c1.14-.64,2.39-1.35,4.33-2.47ZM37.22,48.8A27,27,0,0,0,39.72,50c.21.05.29,0,.27-.21-.05-.69-.11-1.91-.16-2.79-.74.51-1.65,1.12-2.6,1.81M49.91,34.86c.19-.29.27-.37.45-.32A12.62,12.62,0,0,1,56,37.78c.11.11.16.19.16.27a.71.71,0,0,1-.11.27c-.35.53-1,1.35-1.43,1.88-.08.11-.45.13-.53,0a12.27,12.27,0,0,0-5.39-3.27,16.6,16.6,0,0,1,1.22-2.07"/><path class="cls-1" d="M74.74,33.53a18,18,0,0,0-.21-3.24c1,0,2,.08,2.92.19.24,0,.43.13.43.26a1.32,1.32,0,0,1-.13.56,7,7,0,0,0-.19,2.18v.87h4.67c2.58,0,3.48-.05,3.64-.05s.29,0,.29.29-.05,1.14-.05,4.09v3.88c0,4.94.05,5.87.05,6s0,.29-.29.29H83.64c-.27,0-.29,0-.29-.29v-.9H77.56v1.73c0,3.16,0,4.78,0,4.91s0,.29-.27.29H75c-.24,0-.26,0-.26-.29s.05-1.75.05-4.88V47.68h-5.6v1c0,.27,0,.29-.29.29H66.62c-.27,0-.29,0-.29-.29s.05-1.09.05-6.05V39.19c0-3.45-.05-4.41-.05-4.59s0-.29.29-.29,1.09.05,3.64.05h4.49Zm-5.6,6.21h5.6v-3h-5.6Zm5.6,2.36h-5.6v3.16h5.6Zm2.81-2.36h5.79v-3H77.56Zm5.79,2.36H77.56v3.16h5.79Z"/><path class="cls-1" d="M105.31,32.07c.45.11.64.24.64.5a2.57,2.57,0,0,1-.27.88,15.9,15.9,0,0,0-.37,3.24c-.27,4.09-.4,6.8-.4,10.27,0,2.68.32,3.29,2.44,3.29,2.36,0,6.05-1.43,9.29-4.88a9.19,9.19,0,0,0,.61,2.52,1.76,1.76,0,0,1,.21.64c0,.24-.11.45-.53.82a15.17,15.17,0,0,1-10.06,4c-3.4,0-5-1.35-5-5.41,0-4.46.24-8.28.37-11.47A17.68,17.68,0,0,0,102,31.6a27.34,27.34,0,0,1,3.32.48"/><path class="cls-1" d="M134.23,48.72a4,4,0,0,0,2.18,2.2,15.14,15.14,0,0,0,4.91.53c3.43,0,7.46-.19,11.42-.58a4.92,4.92,0,0,0-.72,2.07c-.13.85-.13.85-1,.9-3.37.19-6.53.27-9.29.27a18.1,18.1,0,0,1-6.21-.77,5.13,5.13,0,0,1-2.6-2.36,30.32,30.32,0,0,1-2.73,2.34,2.44,2.44,0,0,0-.53.53c-.13.19-.24.27-.4.27s-.27-.13-.37-.35a23,23,0,0,1-1.09-2.49,12.08,12.08,0,0,0,1.57-.82,17.12,17.12,0,0,0,2.23-1.7V42.88h-1.3c-1.44,0-1.81.05-1.94.05-.29,0-.32,0-.32-.32v-2c0-.26,0-.29.32-.29.13,0,.5.05,1.94.05H132c1.41,0,1.83-.05,2-.05s.29,0,.29.29-.05.9-.05,2.52Zm-1.65-11.89c-.19.13-.27.19-.35.19s-.13-.05-.21-.19a20,20,0,0,0-3.26-4.14c-.21-.19-.16-.27.13-.45l1.49-1c.29-.19.35-.21.56,0a20.19,20.19,0,0,1,3.32,4c.16.24.16.29-.13.5Zm9.4-5.1c1.22,0,2.07-.05,2.41-.05a.26.26,0,0,1,.27.29,19.66,19.66,0,0,0,.32,3.9,16.75,16.75,0,0,0,7.46,11.2A9.8,9.8,0,0,0,151,49.14c-.21.4-.32.58-.48.58s-.32-.11-.58-.35a18.87,18.87,0,0,1-6.45-10.09,18.55,18.55,0,0,1-6.05,9.88c-.29.24-.45.37-.58.37s-.27-.16-.56-.5a6.36,6.36,0,0,0-1.65-1.57c4.25-3,6.64-7.11,7.25-13.17h-2.31c-1.65,0-2.12.05-2.28.05s-.32,0-.32-.32V32c0-.27,0-.29.32-.29s.64.05,2.28.05Z"/><path class="cls-1" d="M177.19,39.22a8.32,8.32,0,0,0,0-1.81,11.47,11.47,0,0,1,3.08,1.14.5.5,0,0,1,.19.72,4.45,4.45,0,0,0-.42,1c-.21,1.12-.48,2.28-.74,3.42a30.92,30.92,0,0,1,4.14,2.55c.26.16.24.29.16.56a22.45,22.45,0,0,1-1.14,2.28c-.08.13-.16.19-.24.19a.5.5,0,0,1-.32-.19,21.64,21.64,0,0,0-3.48-2.49,16.28,16.28,0,0,1-5.36,7c-.24.19-.37.29-.53.29a.72.72,0,0,1-.4-.19,5.45,5.45,0,0,0-2.31-1.09,14.65,14.65,0,0,0,5.95-7.19,17.94,17.94,0,0,0-5.26-1.62c-1.41,2.92-2.18,4.25-3.24,5.31a4.36,4.36,0,0,1-3.4,1.46c-1.54,0-3.16-1.06-3.16-3.64,0-3.29,3.4-5.87,7.83-5.87.88-2.2,1.54-4.06,2.2-6.29l-3.66.42a5.79,5.79,0,0,0-1.19.29,1.35,1.35,0,0,1-.48.11.44.44,0,0,1-.43-.29,16.07,16.07,0,0,1-.77-2.89,9.79,9.79,0,0,0,2.34.16,29.57,29.57,0,0,0,4.11-.35,3.06,3.06,0,0,0,1.3-.45.58.58,0,0,1,.35-.11.61.61,0,0,1,.37.11,8.81,8.81,0,0,1,1.8,1.46.63.63,0,0,1,.24.45.69.69,0,0,1-.27.45,3.62,3.62,0,0,0-.72,1.38c-.69,1.81-1.43,3.88-2.23,5.79a22,22,0,0,1,5.15,1.33,26.09,26.09,0,0,0,.56-3.42m-14,7.41c0,.85.29,1.22.93,1.22a2.14,2.14,0,0,0,1.54-1,18.14,18.14,0,0,0,1.94-3.24c-2.71.11-4.41,1.51-4.41,3"/><path class="cls-1" d="M198.3,32.76c.29.16.4.32.4.53a1.34,1.34,0,0,1-.19.58,5.38,5.38,0,0,0-.48,1.46A52.76,52.76,0,0,0,196.71,45c0,1.06,0,2.28.08,3.4.53-1.22,1.09-2.36,1.65-3.69a7.15,7.15,0,0,0,.93,1.67.57.57,0,0,1,.16.37.76.76,0,0,1-.16.43,15.72,15.72,0,0,0-1.35,4,4.91,4.91,0,0,0,0,1.41c0,.19-.08.27-.32.35a11.09,11.09,0,0,1-2,.45c-.29.08-.4.05-.53-.32A24.74,24.74,0,0,1,194,45a57.57,57.57,0,0,1,1.09-10.06,13.36,13.36,0,0,0,.19-3.13,21,21,0,0,1,3,1m9.13,7.09a53.84,53.84,0,0,1-5.47,0c-.35,0-.45-.08-.48-.35a16.41,16.41,0,0,1-.18-2.41,38.33,38.33,0,0,0,6.05.08c0-1,0-1.81,0-2.79a11.11,11.11,0,0,0-.35-2.6,14.81,14.81,0,0,1,3.21.5c.29.08.48.21.48.45a1.14,1.14,0,0,1-.16.45,3,3,0,0,0-.21.93c-.05.9-.05,1.59-.05,2.81,1.25-.11,2.63-.29,3.77-.48.32-.08.37,0,.42.32a10.48,10.48,0,0,1,.16,1.88c0,.24-.11.37-.29.4a29.76,29.76,0,0,1-4.09.56c0,3,.05,4.83.19,7.11a17.41,17.41,0,0,1,4.41,2.55c.24.16.26.24.13.53a14.15,14.15,0,0,1-1.22,2,.31.31,0,0,1-.24.16.36.36,0,0,1-.24-.13,15.89,15.89,0,0,0-2.87-2.12c-.21,2.23-1.73,3.45-4.86,3.45s-4.75-1.43-4.75-3.72,2-3.74,4.64-3.74a11.13,11.13,0,0,1,2.13.21c-.05-2-.08-4-.11-6.08m-2.15,8.26c-1.25,0-2,.45-2,1.27s.58,1.33,2.15,1.33c1.33,0,2.18-.77,2.18-1.73a3.78,3.78,0,0,0,0-.53,7.4,7.4,0,0,0-2.31-.34"/><path class="cls-1" d="M230.52,44.39c.24.13.26.27.13.48a4.37,4.37,0,0,0-.69,2c0,1.67,1.73,2.5,6.29,2.5a33.78,33.78,0,0,0,7.2-.77c.37-.08.5,0,.56.24a22.14,22.14,0,0,1,.42,2.6c0,.24-.13.35-.45.4a40,40,0,0,1-7.91.64c-5.95,0-9-1.91-9-5.36a7,7,0,0,1,1.41-3.8c.69.35,1.35.69,2,1.06m6-10.41c1.94,0,3.93-.13,5.63-.24.27,0,.37.08.4.29a17.9,17.9,0,0,1,.13,2.26c0,.37-.13.53-.45.56a15.46,15.46,0,0,0-6.5,2.63,1.15,1.15,0,0,1-.67.24,1.1,1.1,0,0,1-.55-.16,6.45,6.45,0,0,0-1.86-.85c1.38-.9,2.55-1.65,3.48-2.2a18.15,18.15,0,0,1-2.18.08,33.14,33.14,0,0,1-4.65-.45c-.24-.05-.35-.16-.35-.48,0-.64.05-1.41.11-2.36a33.46,33.46,0,0,0,7.46.69"/><path class="cls-1" d="M262.92,33.53a8.89,8.89,0,0,0-.05-2.58,17.4,17.4,0,0,1,3.19.56c.34.11.53.27.53.48a.84.84,0,0,1-.19.42,2.78,2.78,0,0,0-.45,1c-.13.72-.24,1.25-.37,2.18a48.41,48.41,0,0,0,5-1c.37-.11.5-.08.56.26a12,12,0,0,1,.19,2c0,.29-.08.37-.32.42-2.28.5-3.72.8-5.95,1.09-.37,2.2-.74,4-1.22,5.84a11.48,11.48,0,0,1,7.62-2.81c3.53,0,5.92,2.28,5.92,5a6,6,0,0,1-3,5.36,17.7,17.7,0,0,1-6.77,2.12,12.87,12.87,0,0,1-2,.19c-.27,0-.45-.13-.66-.64a5,5,0,0,0-1.43-1.89c3.88-.24,5.5-.58,7.62-1.46s3-2.07,3-3.74c0-1.38-1-2.52-3-2.52a8.83,8.83,0,0,0-7,3.29c-.24.35-.5.66-.74,1s-.26.43-.5.4a7.48,7.48,0,0,1-2-.58c-.43-.19-.59-.29-.59-.53a1.86,1.86,0,0,1,.11-.53c.13-.45.24-.85.34-1.25.58-2.34,1-4.3,1.41-7-1.43.11-3.11.24-4.46.24a.45.45,0,0,1-.5-.37c-.08-.32-.27-1.43-.37-2.31,2.07,0,3.72-.08,5.76-.24.13-.93.24-1.81.32-2.44"/><path class="cls-1" d="M294.86,37.65c.29.13.43.29.43.51a.78.78,0,0,1-.13.4,5,5,0,0,0-.53,1.41,43.84,43.84,0,0,0-.64,4.83,12.94,12.94,0,0,1,8.87-4.2c3.88,0,6.19,2.26,6.19,5.68a6.51,6.51,0,0,1-4,5.95,23.12,23.12,0,0,1-6.8,1.83c-.59.08-.82.05-1.06-.35a6.78,6.78,0,0,0-1.81-2.26,22,22,0,0,0,7.3-1.49c2.15-.93,3.13-2.31,3.13-4,0-1.43-.9-2.73-3.19-2.73s-5.15,1.51-7.65,4a7.23,7.23,0,0,0-1.14,1.46c-.16.26-.27.26-.61.19a18.1,18.1,0,0,1-1.8-.72c-.27-.1-.37-.16-.37-.53.16-3.08.51-6.21.82-8.57a16.88,16.88,0,0,0,.24-2.39,14.78,14.78,0,0,1,2.76,1m.67-6.72a.44.44,0,0,1,.51-.13,17.41,17.41,0,0,1,5.2,3.16c.13.11.19.19.19.29a.72.72,0,0,1-.14.32,17.72,17.72,0,0,1-1.35,1.86c-.11.13-.21.21-.29.21s-.19-.05-.32-.19A21.22,21.22,0,0,0,294,33a14.71,14.71,0,0,1,1.57-2.07"/><path class="cls-1" d="M375.43,40.36,353.86,27.19A1.86,1.86,0,0,0,351,28.77V55.12a1.86,1.86,0,0,0,2.83,1.59l21.57-13.18a1.86,1.86,0,0,0,0-3.17"/><rect class="cls-2" x="1.79" y="1.79" width="393.99" height="82.99"/></g></g></svg>