<svg xmlns="http://www.w3.org/2000/svg" viewBox="0 0 42.25 8.48"><defs><style>.cls-1{fill:#42260f;}</style></defs><title>メニュー03</title><g id="レイヤー_2" data-name="レイヤー 2"><g id="バナー"><path class="cls-1" d="M5.17,0V1.28H1.64V3.47H5.17V4.76H1.64V8.48H0V0Z"/><path class="cls-1" d="M10.83,0V8.48H9.19V0Z"/><path class="cls-1" d="M20.7,0V1.28H16.86V3.51h3.68V4.79H16.86V7.2h3.93V8.48H15.22V0Z"/><path class="cls-1" d="M26.44,0V7.2h4.12V8.48H24.8V0Z"/><path class="cls-1" d="M37.72,0a5,5,0,0,1,2.36.54,3.92,3.92,0,0,1,1.6,1.52,4.27,4.27,0,0,1,.57,2.2,4.22,4.22,0,0,1-.57,2.2A3.86,3.86,0,0,1,40,7.95a5.36,5.36,0,0,1-2.42.53H34.17V0Zm-.17,7.2a3,3,0,0,0,2.18-.82,2.88,2.88,0,0,0,.82-2.14,2.86,2.86,0,0,0-.83-2.17,3.09,3.09,0,0,0-2.23-.8H35.81V7.2Z"/></g></g></svg>