<svg xmlns="http://www.w3.org/2000/svg" viewBox="0 0 103.01 8.69"><defs><style>.cls-1{fill:#42260f;}</style></defs><title>メニュー07</title><g id="レイヤー_2" data-name="レイヤー 2"><g id="バナー"><path class="cls-1" d="M1.64.11V8.58H0V.11Z"/><path class="cls-1" d="M7.47.11l5,5.92V.11h1.6V8.58H12.7l-5.07-6v6H6V.11Z"/><path class="cls-1" d="M23.64.11V1.39H20.1V3.58h3.53V4.87H20.1V8.58H18.46V.11Z"/><path class="cls-1" d="M32,0a5.09,5.09,0,0,1,2.37.54A4.18,4.18,0,0,1,36,2.11a4.22,4.22,0,0,1,.62,2.24,4.26,4.26,0,0,1-2.29,3.78,5.36,5.36,0,0,1-4.8,0,4.27,4.27,0,0,1-1.68-6A4.16,4.16,0,0,1,29.53.57,5,5,0,0,1,32,0ZM29,4.35a3,3,0,0,0,.38,1.52,2.66,2.66,0,0,0,1.07,1A3.19,3.19,0,0,0,32,7.28a3,3,0,0,0,2.15-.82,2.82,2.82,0,0,0,.84-2.11,3,3,0,0,0-.38-1.52,2.63,2.63,0,0,0-1.07-1,3.43,3.43,0,0,0-3.1,0,2.6,2.6,0,0,0-1.06,1A3.09,3.09,0,0,0,29,4.35Z"/><path class="cls-1" d="M42.13.11l2.79,3.34L47.71.11h1.46V8.58H47.53v-6h0L45,5.62H44.8l-2.45-3h0v6H40.66V.11Z"/><path class="cls-1" d="M57.83.11l3.75,8.48H59.84L59,6.52H55.19l-.82,2.06H52.65L56.15.11ZM55.69,5.28h2.74L57,1.92Z"/><path class="cls-1" d="M72.09.11V1.39h-3V8.58H67.44V1.39h-3V.11Z"/><path class="cls-1" d="M77.5.11V8.58H75.86V.11Z"/><path class="cls-1" d="M86.24,0a5.09,5.09,0,0,1,2.37.54,4.18,4.18,0,0,1,1.68,1.57,4.22,4.22,0,0,1,.62,2.24,4.26,4.26,0,0,1-2.29,3.78,5.36,5.36,0,0,1-4.8,0,4.27,4.27,0,0,1-1.68-6A4.16,4.16,0,0,1,83.81.57,5,5,0,0,1,86.24,0Zm-3,4.35a3,3,0,0,0,.38,1.52,2.66,2.66,0,0,0,1.07,1,3.19,3.19,0,0,0,1.55.37,3,3,0,0,0,2.15-.82,2.82,2.82,0,0,0,.84-2.11,3,3,0,0,0-.38-1.52,2.63,2.63,0,0,0-1.07-1,3.43,3.43,0,0,0-3.1,0,2.6,2.6,0,0,0-1.06,1A3.09,3.09,0,0,0,83.24,4.35Z"/><path class="cls-1" d="M96.37.11l5,5.92V.11H103V8.58h-1.41l-5.07-6v6h-1.6V.11Z"/></g></g></svg>