<svg xmlns="http://www.w3.org/2000/svg" viewBox="0 0 67.48 11.25"><defs><style>.cls-1{fill:#42260f;}</style></defs><title>メニュー02</title><g id="レイヤー_2" data-name="レイヤー 2"><g id="バナー"><path class="cls-1" d="M3.28.11A2.73,2.73,0,0,1,5.21.8,2.31,2.31,0,0,1,6,2.57,2.28,2.28,0,0,1,5.2,4.35a2.85,2.85,0,0,1-2,.68H1.64V8.58H0V.11ZM2.87,3.75a1.57,1.57,0,0,0,1-.3,1.08,1.08,0,0,0,.37-.89q0-1.17-1.51-1.17H1.64V3.75Z"/><path class="cls-1" d="M12.8.11a2.84,2.84,0,0,1,1.95.66,2.18,2.18,0,0,1,.75,1.72,2.15,2.15,0,0,1-.37,1.26A2.47,2.47,0,0,1,14,4.6a2.46,2.46,0,0,1,.72.6,7.61,7.61,0,0,1,.78,1.27Q16.3,8,16.68,8.58H14.85q-.19-.28-.51-.89a19.36,19.36,0,0,0-1-1.82,2.46,2.46,0,0,0-.63-.67A1.25,1.25,0,0,0,12,5h-.59V8.58H9.75V.11Zm-.37,3.62a1.48,1.48,0,0,0,1-.32,1.11,1.11,0,0,0,.37-.88,1,1,0,0,0-.36-.87,1.64,1.64,0,0,0-1-.29h-1V3.72Z"/><path class="cls-1" d="M24.59,0A5.09,5.09,0,0,1,27,.54a4.18,4.18,0,0,1,1.68,1.57,4.22,4.22,0,0,1,.62,2.24A4.26,4.26,0,0,1,27,8.13a5.36,5.36,0,0,1-4.8,0A4.19,4.19,0,0,1,19.9,4.35a4.26,4.26,0,0,1,.6-2.19A4.17,4.17,0,0,1,22.16.57,5,5,0,0,1,24.59,0Zm-3,4.35A3,3,0,0,0,22,5.87a2.66,2.66,0,0,0,1.07,1,3.19,3.19,0,0,0,1.55.37,3,3,0,0,0,2.15-.82,2.82,2.82,0,0,0,.84-2.11,3,3,0,0,0-.38-1.52,2.63,2.63,0,0,0-1.07-1,3.43,3.43,0,0,0-3.1,0,2.6,2.6,0,0,0-1.06,1A3.09,3.09,0,0,0,21.6,4.35Z"/><path class="cls-1" d="M35,.11V8.26a3.14,3.14,0,0,1-.73,2.18,2.46,2.46,0,0,1-1.93.82H32l-.11-1.41q1.46,0,1.46-1.71v-8Z"/><path class="cls-1" d="M44.84.11V1.39H41V3.62h3.68V4.9H41V7.3h3.93V8.58H39.35V.11Z"/><path class="cls-1" d="M53.39,0A6.12,6.12,0,0,1,54.8.16,7.15,7.15,0,0,1,56.3.72V2.26a7.08,7.08,0,0,0-1.45-.65,4.81,4.81,0,0,0-1.39-.2,3.53,3.53,0,0,0-1.63.37A2.74,2.74,0,0,0,50.7,2.84a2.9,2.9,0,0,0-.4,1.51,2.92,2.92,0,0,0,.4,1.52,2.7,2.7,0,0,0,1.13,1,3.59,3.59,0,0,0,1.64.37,4.41,4.41,0,0,0,1.33-.2,9.69,9.69,0,0,0,1.6-.72V7.9a7.36,7.36,0,0,1-1.52.61,6.39,6.39,0,0,1-1.61.18,5.24,5.24,0,0,1-2.4-.53A4,4,0,0,1,49.2,6.62a4.19,4.19,0,0,1-.6-2.2,4.32,4.32,0,0,1,.62-2.3A4.17,4.17,0,0,1,50.93.55,5.36,5.36,0,0,1,53.39,0Z"/><path class="cls-1" d="M67.48.11V1.39h-3V8.58H62.83V1.39h-3V.11Z"/></g></g></svg>