<svg xmlns="http://www.w3.org/2000/svg" viewBox="0 0 30.14 10.7"><defs><style>.cls-1{fill:#42260f;}</style></defs><title>メニュー08</title><g id="レイヤー_2" data-name="レイヤー 2"><g id="バナー"><path class="cls-1" d="M4.87,0a5,5,0,0,1,2.4.58A4.35,4.35,0,0,1,9.59,4.45,4.37,4.37,0,0,1,8,7.84a4.4,4.4,0,0,1-1.74.87V8.8a5.92,5.92,0,0,0,2.48.66,2.73,2.73,0,0,0,.75-.1l0,.07L8.12,10.7A8.81,8.81,0,0,1,3.58,8.79,4.4,4.4,0,0,1,1.73,8,4.35,4.35,0,0,1,.45,6.41,4.29,4.29,0,0,1,0,4.48,4.41,4.41,0,0,1,.63,2.2,4.23,4.23,0,0,1,2.35.57,5.38,5.38,0,0,1,4.87,0ZM1.74,4.47a2.88,2.88,0,0,0,.85,2.16,3.07,3.07,0,0,0,2.24.83,3.19,3.19,0,0,0,1.56-.38A2.74,2.74,0,0,0,7.47,6a3,3,0,0,0,.39-1.53,3.18,3.18,0,0,0-.39-1.57A2.71,2.71,0,0,0,6.39,1.83a3.19,3.19,0,0,0-1.56-.39,3.07,3.07,0,0,0-2.24.83A2.92,2.92,0,0,0,1.74,4.47Z"/><path class="cls-1" d="M15.19.11a2.47,2.47,0,0,1,1.66.56,1.81,1.81,0,0,1,.66,1.44,2,2,0,0,1-.39,1.18A4.55,4.55,0,0,1,15.9,4.38L17.1,5.76a5.55,5.55,0,0,0,1-1.38h1.58a7.38,7.38,0,0,1-1.59,2.45l1.75,2H17.63l-.8-.91a4.72,4.72,0,0,1-1.27.79,4,4,0,0,1-1.46.24,2.59,2.59,0,0,1-1.77-.63,2,2,0,0,1-.72-1.55,2.05,2.05,0,0,1,.52-1.37,5.12,5.12,0,0,1,1.48-1.12,5.19,5.19,0,0,1-.67-1,2.25,2.25,0,0,1-.21-.94A1.94,1.94,0,0,1,13.41.71,2.63,2.63,0,0,1,15.19.11Zm-1.91,6.5a.91.91,0,0,0,.32.7,1.11,1.11,0,0,0,.76.29,2.48,2.48,0,0,0,1.58-.72L14.45,5.21a4.44,4.44,0,0,0-.86.68A1,1,0,0,0,13.28,6.61Zm1-4.48a1.32,1.32,0,0,0,.23.66,2.9,2.9,0,0,0,.53.65,3.5,3.5,0,0,0,.72-.57,1,1,0,0,0,.27-.67.78.78,0,0,0-.25-.59.89.89,0,0,0-.64-.24.93.93,0,0,0-.61.21A.67.67,0,0,0,14.3,2.13Z"/><path class="cls-1" d="M26.31.11,30.14,8.8H28.37l-.9-2.11H23.61L22.77,8.8H21L24.59.11Zm-2.19,5.3h2.81L25.45,2Z"/></g></g></svg>