<svg xmlns="http://www.w3.org/2000/svg" viewBox="0 0 81.61 8.69"><defs><style>.cls-1{fill:#42260f;}</style></defs><title>メニュー05</title><g id="レイヤー_2" data-name="レイヤー 2"><g id="バナー"><path class="cls-1" d="M5.17.11,8.92,8.58H7.19L6.31,6.52H2.54L1.72,8.58H0L3.5.11ZM3,5.28H5.77L4.34,1.92Z"/><path class="cls-1" d="M15.51.11a2.89,2.89,0,0,1,1.9.61,1.89,1.89,0,0,1,.73,1.52,1.75,1.75,0,0,1-.31,1,2.08,2.08,0,0,1-.89.7V4a2.43,2.43,0,0,1,1.38.79,2.1,2.1,0,0,1,.49,1.39,2.26,2.26,0,0,1-.36,1.26,2.23,2.23,0,0,1-1,.83A3.75,3.75,0,0,1,16,8.58H12.4V.11Zm-.44,3.52a1.57,1.57,0,0,0,1-.31,1.05,1.05,0,0,0,.38-.86,1,1,0,0,0-.35-.78,1.38,1.38,0,0,0-.91-.29H14V3.63Zm.38,3.68A2.1,2.1,0,0,0,16.71,7a1.07,1.07,0,0,0,.42-.92,1,1,0,0,0-.42-.85,1.86,1.86,0,0,0-1.13-.31H14V7.3Z"/><path class="cls-1" d="M27,0a5.09,5.09,0,0,1,2.37.54,4.18,4.18,0,0,1,1.68,1.57,4.21,4.21,0,0,1,.62,2.24,4.26,4.26,0,0,1-2.29,3.78,5.36,5.36,0,0,1-4.8,0,4.2,4.2,0,0,1-2.28-3.77A4.26,4.26,0,0,1,23,2.16,4.17,4.17,0,0,1,24.61.57,5,5,0,0,1,27,0ZM24,4.35a3,3,0,0,0,.38,1.52,2.66,2.66,0,0,0,1.07,1A3.19,3.19,0,0,0,27,7.28a3,3,0,0,0,2.15-.82A2.82,2.82,0,0,0,30,4.35a3,3,0,0,0-.38-1.52,2.63,2.63,0,0,0-1.07-1,3.43,3.43,0,0,0-3.1,0,2.6,2.6,0,0,0-1.06,1A3.09,3.09,0,0,0,24,4.35Z"/><path class="cls-1" d="M37.32.11V5a2.69,2.69,0,0,0,.23,1.21,1.78,1.78,0,0,0,.74.74,2.4,2.4,0,0,0,1.2.29A2.72,2.72,0,0,0,40.77,7a1.73,1.73,0,0,0,.77-.75,2.94,2.94,0,0,0,.24-1.32V.11h1.64v5a3.35,3.35,0,0,1-1,2.63,4.2,4.2,0,0,1-2.9.92,4.66,4.66,0,0,1-2-.42,3,3,0,0,1-1.32-1.21,3.66,3.66,0,0,1-.46-1.86V.11Z"/><path class="cls-1" d="M54.75.11V1.39h-3V8.58H50.1V1.39h-3V.11Z"/><path class="cls-1" d="M66,.11V5a2.69,2.69,0,0,0,.23,1.21A1.78,1.78,0,0,0,67,7a2.4,2.4,0,0,0,1.2.29A2.72,2.72,0,0,0,69.45,7a1.73,1.73,0,0,0,.77-.75,2.94,2.94,0,0,0,.24-1.32V.11H72.1v5a3.35,3.35,0,0,1-1,2.63,4.2,4.2,0,0,1-2.9.92,4.66,4.66,0,0,1-2-.42,3,3,0,0,1-1.32-1.21,3.66,3.66,0,0,1-.46-1.86V.11Z"/><path class="cls-1" d="M78.86,0a5,5,0,0,1,2.39.62V2.07a4.68,4.68,0,0,0-2.34-.79,1.7,1.7,0,0,0-1,.24.74.74,0,0,0-.35.64q0,.48.65.88.18.12,1.4.68a4,4,0,0,1,1.51,1.09,2.3,2.3,0,0,1,.46,1.44A2.2,2.2,0,0,1,80.82,8a3,3,0,0,1-2,.67,4.84,4.84,0,0,1-1.4-.18,6.09,6.09,0,0,1-1.31-.62V6.28a4.12,4.12,0,0,0,2.56,1.13,1.65,1.65,0,0,0,1-.26A.81.81,0,0,0,80,6.46a1.09,1.09,0,0,0-.64-1Q78.8,5.21,78,4.8a4.07,4.07,0,0,1-1.5-1.06A2.16,2.16,0,0,1,76,2.34a2.06,2.06,0,0,1,.8-1.7A3.27,3.27,0,0,1,78.86,0Z"/></g></g></svg>