<svg xmlns="http://www.w3.org/2000/svg" viewBox="0 0 68.45 8.69"><defs><style>.cls-1{fill:#42260f;}</style></defs><title>メニュー06</title><g id="レイヤー_2" data-name="レイヤー 2"><g id="バナー"><path class="cls-1" d="M5.17.11,8.92,8.58H7.19L6.31,6.52H2.54L1.72,8.58H0L3.5.11ZM3,5.28H5.77L4.34,1.92Z"/><path class="cls-1" d="M16.85,0a6.12,6.12,0,0,1,1.41.16,7.15,7.15,0,0,1,1.49.56V2.26a7.08,7.08,0,0,0-1.45-.65,4.81,4.81,0,0,0-1.39-.2,3.53,3.53,0,0,0-1.63.37,2.74,2.74,0,0,0-1.13,1.05,2.9,2.9,0,0,0-.4,1.51,2.92,2.92,0,0,0,.4,1.52,2.7,2.7,0,0,0,1.13,1,3.59,3.59,0,0,0,1.64.37,4.41,4.41,0,0,0,1.33-.2,9.69,9.69,0,0,0,1.6-.72V7.9a7.36,7.36,0,0,1-1.52.61,6.39,6.39,0,0,1-1.61.18,5.24,5.24,0,0,1-2.4-.53,4,4,0,0,1-1.66-1.54,4.19,4.19,0,0,1-.6-2.2,4.32,4.32,0,0,1,.62-2.3A4.17,4.17,0,0,1,14.4.55,5.36,5.36,0,0,1,16.85,0Z"/><path class="cls-1" d="M28.35,0a6.12,6.12,0,0,1,1.41.16,7.15,7.15,0,0,1,1.49.56V2.26a7.08,7.08,0,0,0-1.45-.65,4.81,4.81,0,0,0-1.39-.2,3.53,3.53,0,0,0-1.63.37,2.74,2.74,0,0,0-1.13,1.05,2.9,2.9,0,0,0-.4,1.51,2.92,2.92,0,0,0,.4,1.52,2.7,2.7,0,0,0,1.13,1,3.59,3.59,0,0,0,1.64.37,4.41,4.41,0,0,0,1.33-.2,9.69,9.69,0,0,0,1.6-.72V7.9a7.36,7.36,0,0,1-1.52.61,6.39,6.39,0,0,1-1.61.18,5.24,5.24,0,0,1-2.4-.53,4,4,0,0,1-1.66-1.54,4.19,4.19,0,0,1-.6-2.2,4.32,4.32,0,0,1,.62-2.3A4.17,4.17,0,0,1,25.9.55,5.36,5.36,0,0,1,28.35,0Z"/><path class="cls-1" d="M37.86,0a5,5,0,0,1,2.39.62V2.07a4.68,4.68,0,0,0-2.34-.79,1.7,1.7,0,0,0-1,.24.74.74,0,0,0-.35.64q0,.48.65.88.18.12,1.4.68a4,4,0,0,1,1.51,1.09,2.3,2.3,0,0,1,.46,1.44A2.2,2.2,0,0,1,39.83,8a3,3,0,0,1-2,.67,4.83,4.83,0,0,1-1.4-.18,6.09,6.09,0,0,1-1.31-.62V6.28a4.12,4.12,0,0,0,2.56,1.13,1.65,1.65,0,0,0,1-.26A.81.81,0,0,0,39,6.46a1.09,1.09,0,0,0-.64-1Q37.8,5.21,37,4.8a4.07,4.07,0,0,1-1.5-1.06A2.16,2.16,0,0,1,35,2.34a2.06,2.06,0,0,1,.8-1.7A3.27,3.27,0,0,1,37.86,0Z"/><path class="cls-1" d="M50,.11V1.39H46.17V3.62h3.68V4.9H46.17V7.3H50.1V8.58H44.53V.11Z"/><path class="cls-1" d="M56.58,0A5,5,0,0,1,59,.62V2.07a4.68,4.68,0,0,0-2.34-.79,1.7,1.7,0,0,0-1,.24.74.74,0,0,0-.35.64q0,.48.65.88.18.12,1.4.68a4,4,0,0,1,1.51,1.09,2.3,2.3,0,0,1,.46,1.44A2.2,2.2,0,0,1,58.54,8a3,3,0,0,1-2,.67,4.83,4.83,0,0,1-1.4-.18,6.09,6.09,0,0,1-1.31-.62V6.28a4.12,4.12,0,0,0,2.56,1.13,1.65,1.65,0,0,0,1-.26.81.81,0,0,0,.37-.69,1.09,1.09,0,0,0-.64-1q-.54-.29-1.38-.7a4.07,4.07,0,0,1-1.5-1.06,2.16,2.16,0,0,1-.49-1.41,2.06,2.06,0,0,1,.8-1.7A3.27,3.27,0,0,1,56.58,0Z"/><path class="cls-1" d="M65.7,0a5,5,0,0,1,2.39.62V2.07a4.68,4.68,0,0,0-2.34-.79,1.7,1.7,0,0,0-1,.24.74.74,0,0,0-.35.64q0,.48.65.88.18.12,1.4.68A4,4,0,0,1,68,4.82a2.3,2.3,0,0,1,.46,1.44A2.2,2.2,0,0,1,67.67,8a3,3,0,0,1-2,.67,4.83,4.83,0,0,1-1.4-.18,6.09,6.09,0,0,1-1.31-.62V6.28a4.12,4.12,0,0,0,2.56,1.13,1.65,1.65,0,0,0,1-.26.81.81,0,0,0,.37-.69,1.09,1.09,0,0,0-.64-1q-.54-.29-1.38-.7a4.07,4.07,0,0,1-1.5-1.06,2.16,2.16,0,0,1-.49-1.41,2.06,2.06,0,0,1,.8-1.7A3.27,3.27,0,0,1,65.7,0Z"/></g></g></svg>