<svg xmlns="http://www.w3.org/2000/svg" viewBox="0 0 93.37 8.48"><defs><style>.cls-1{fill:#42260f;}</style></defs><title>メニュー04</title><g id="レイヤー_2" data-name="レイヤー 2"><g id="バナー"><path class="cls-1" d="M7.66,0V1.28h-3V8.48H3V1.28H0V0Z"/><path class="cls-1" d="M13.07,0V8.48H11.43V0Z"/><path class="cls-1" d="M18.94,0l2.79,3.34L24.51,0H26V8.48H24.33v-6h0l-2.45,3H21.6l-2.45-3h0v6H17.46V0Z"/><path class="cls-1" d="M35.81,0V1.28H32V3.51h3.68V4.79H32V7.2H35.9V8.48H30.33V0Z"/><path class="cls-1" d="M52.89,0V1.28h-3V8.48H48.24V1.28h-3V0Z"/><path class="cls-1" d="M60.92,0l3.75,8.48H62.94l-.88-2.06H58.28l-.82,2.06H55.75L59.24,0ZM58.78,5.17h2.74L60.09,1.81Z"/><path class="cls-1" d="M71.26,0a2.89,2.89,0,0,1,1.9.61,1.89,1.89,0,0,1,.73,1.52,1.75,1.75,0,0,1-.31,1,2.08,2.08,0,0,1-.89.7v.07a2.44,2.44,0,0,1,1.38.79,2.1,2.1,0,0,1,.49,1.39,2.26,2.26,0,0,1-.36,1.26,2.23,2.23,0,0,1-1,.83,3.75,3.75,0,0,1-1.51.28H68.15V0Zm-.44,3.52a1.57,1.57,0,0,0,1-.31,1.05,1.05,0,0,0,.38-.86,1,1,0,0,0-.35-.78A1.38,1.38,0,0,0,71,1.28H69.79V3.52ZM71.2,7.2a2.11,2.11,0,0,0,1.26-.31A1.07,1.07,0,0,0,72.88,6a1,1,0,0,0-.42-.85,1.86,1.86,0,0,0-1.13-.31H69.79V7.2Z"/><path class="cls-1" d="M80.08,0V7.2H84.2V8.48H78.44V0Z"/><path class="cls-1" d="M93.29,0V1.28H89.45V3.51h3.68V4.79H89.45V7.2h3.93V8.48H87.81V0Z"/></g></g></svg>