<svg xmlns="http://www.w3.org/2000/svg" viewBox="0 0 69.76 8.69"><defs><style>.cls-1{fill:#42260f;}</style></defs><title>メニュー01</title><g id="レイヤー_2" data-name="レイヤー 2"><g id="バナー"><path class="cls-1" d="M1.48.11,4.26,3.45,7,.11H8.51V8.58H6.87v-6h0l-2.45,3H4.14l-2.45-3h0v6H0V.11Z"/><path class="cls-1" d="M18.35.11V1.39H14.51V3.62h3.68V4.9H14.51V7.3h3.93V8.58H12.87V.11Z"/><path class="cls-1" d="M24.91,0A5,5,0,0,1,27.3.62V2.07A4.68,4.68,0,0,0,25,1.28a1.7,1.7,0,0,0-1,.24.74.74,0,0,0-.35.64q0,.48.65.88.18.12,1.4.68A4,4,0,0,1,27.2,4.82a2.3,2.3,0,0,1,.46,1.44A2.2,2.2,0,0,1,26.87,8a3,3,0,0,1-2,.67,4.83,4.83,0,0,1-1.4-.18,6.09,6.09,0,0,1-1.31-.62V6.28a4.12,4.12,0,0,0,2.56,1.13,1.65,1.65,0,0,0,1-.26A.81.81,0,0,0,26,6.46a1.09,1.09,0,0,0-.64-1q-.54-.29-1.38-.7a4.07,4.07,0,0,1-1.5-1.06A2.16,2.16,0,0,1,22,2.34a2.06,2.06,0,0,1,.8-1.7A3.27,3.27,0,0,1,24.91,0Z"/><path class="cls-1" d="M34,0a5,5,0,0,1,2.39.62V2.07a4.68,4.68,0,0,0-2.34-.79,1.7,1.7,0,0,0-1,.24.74.74,0,0,0-.35.64q0,.48.65.88.18.12,1.4.68a4,4,0,0,1,1.51,1.09,2.3,2.3,0,0,1,.46,1.44A2.2,2.2,0,0,1,36,8a3,3,0,0,1-2,.67,4.83,4.83,0,0,1-1.4-.18,6.09,6.09,0,0,1-1.31-.62V6.28a4.12,4.12,0,0,0,2.56,1.13,1.65,1.65,0,0,0,1-.26.81.81,0,0,0,.37-.69,1.09,1.09,0,0,0-.64-1q-.54-.29-1.38-.7a4.07,4.07,0,0,1-1.5-1.06,2.16,2.16,0,0,1-.49-1.41,2.06,2.06,0,0,1,.8-1.7A3.27,3.27,0,0,1,34,0Z"/><path class="cls-1" d="M45,.11l3.75,8.48H47l-.88-2.06H42.37l-.82,2.06H39.83L43.33.11ZM42.87,5.28h2.74L44.18,1.92Z"/><path class="cls-1" d="M56.68,0a7.48,7.48,0,0,1,3.11.7V2.2a6.68,6.68,0,0,0-3-.78,3.58,3.58,0,0,0-1.65.37A2.66,2.66,0,0,0,54,2.85a3.06,3.06,0,0,0-.4,1.55,2.7,2.7,0,0,0,.86,2.09,3.25,3.25,0,0,0,2.28.79,4,4,0,0,0,.74-.07A5.07,5.07,0,0,0,58.32,7V5.55h-1.4V4.27h3V7.77a4.9,4.9,0,0,1-1.5.68,6.72,6.72,0,0,1-1.82.25,5.29,5.29,0,0,1-2.43-.55,4.13,4.13,0,0,1-2.31-3.77,4.23,4.23,0,0,1,.62-2.25A4.19,4.19,0,0,1,54.23.56,5.35,5.35,0,0,1,56.68,0Z"/><path class="cls-1" d="M69.68.11V1.39H65.84V3.62h3.68V4.9H65.84V7.3h3.93V8.58H64.2V.11Z"/></g></g></svg>