<svg xmlns="http://www.w3.org/2000/svg" viewBox="0 0 78.47 9.8"><defs><style>.cls-1{fill:#42260f;}</style></defs><title>メニュー08</title><g id="レイヤー_2" data-name="レイヤー 2"><g id="バナー"><path class="cls-1" d="M3.26,0A5.58,5.58,0,0,1,5.95.7V2.34a5.25,5.25,0,0,0-2.63-.9,1.91,1.91,0,0,0-1.09.27.84.84,0,0,0-.39.72q0,.54.73,1,.21.14,1.58.77a4.53,4.53,0,0,1,1.7,1.23,2.59,2.59,0,0,1,.52,1.63,2.48,2.48,0,0,1-.88,2,3.41,3.41,0,0,1-2.29.76,5.43,5.43,0,0,1-1.58-.2A6.81,6.81,0,0,1,.12,8.9V7.08A4.64,4.64,0,0,0,3,8.35,1.86,1.86,0,0,0,4.1,8.06a.91.91,0,0,0,.42-.78A1.23,1.23,0,0,0,3.79,6.2q-.6-.33-1.55-.79A4.58,4.58,0,0,1,.56,4.22,2.44,2.44,0,0,1,0,2.63,2.33,2.33,0,0,1,.9.71,3.68,3.68,0,0,1,3.26,0Z"/><path class="cls-1" d="M14.74.12A3.08,3.08,0,0,1,16.92.9a2.6,2.6,0,0,1,.84,2,2.57,2.57,0,0,1-.85,2,3.21,3.21,0,0,1-2.24.77H12.9v4H11.05V.12Zm-.46,4.1a1.77,1.77,0,0,0,1.15-.34,1.22,1.22,0,0,0,.41-1q0-1.32-1.7-1.32H12.9V4.22Z"/><path class="cls-1" d="M26.36,0A5.74,5.74,0,0,1,29,.61a4.71,4.71,0,0,1,1.89,1.76,4.75,4.75,0,0,1,.7,2.53,4.8,4.8,0,0,1-2.57,4.26,6,6,0,0,1-5.4,0A4.73,4.73,0,0,1,21.08,4.9a4.8,4.8,0,0,1,.68-2.47A4.7,4.7,0,0,1,23.63.64,5.68,5.68,0,0,1,26.36,0ZM23,4.9a3.4,3.4,0,0,0,.43,1.71,3,3,0,0,0,1.2,1.18,3.6,3.6,0,0,0,1.74.42,3.32,3.32,0,0,0,2.42-.92,3.17,3.17,0,0,0,.95-2.38,3.44,3.44,0,0,0-.43-1.71A3,3,0,0,0,28.09,2,3.85,3.85,0,0,0,24.6,2a2.92,2.92,0,0,0-1.19,1.18A3.48,3.48,0,0,0,23,4.9Z"/><path class="cls-1" d="M37.21.12l5.67,6.67V.12h1.8V9.67H43.11L37.4,2.9V9.67h-1.8V.12Z"/><path class="cls-1" d="M52.36,0A5.58,5.58,0,0,1,55,.7V2.34a5.25,5.25,0,0,0-2.63-.9,1.91,1.91,0,0,0-1.09.27.84.84,0,0,0-.39.72q0,.54.73,1,.21.14,1.58.77a4.53,4.53,0,0,1,1.7,1.23,2.59,2.59,0,0,1,.52,1.63,2.48,2.48,0,0,1-.88,2,3.41,3.41,0,0,1-2.29.76,5.43,5.43,0,0,1-1.58-.2,6.81,6.81,0,0,1-1.48-.69V7.08a4.64,4.64,0,0,0,2.88,1.27,1.86,1.86,0,0,0,1.09-.29.91.91,0,0,0,.42-.78,1.23,1.23,0,0,0-.72-1.08q-.6-.33-1.55-.79a4.58,4.58,0,0,1-1.69-1.2,2.44,2.44,0,0,1-.56-1.59A2.33,2.33,0,0,1,50,.71,3.68,3.68,0,0,1,52.36,0Z"/><path class="cls-1" d="M66,.12V1.57H61.72V4.07h4.14V5.52H61.72V8.23h4.42V9.67H59.87V.12Z"/><path class="cls-1" d="M74.1.12a3.2,3.2,0,0,1,2.19.75,2.46,2.46,0,0,1,.85,1.94,2.43,2.43,0,0,1-.42,1.42,2.79,2.79,0,0,1-1.25,1,2.77,2.77,0,0,1,.81.67,8.54,8.54,0,0,1,.88,1.43Q78,9,78.47,9.67H76.41a11.39,11.39,0,0,1-.57-1,21.79,21.79,0,0,0-1.16-2.05A2.79,2.79,0,0,0,74,5.86a1.41,1.41,0,0,0-.79-.22h-.67v4H70.66V.12ZM73.68,4.2a1.67,1.67,0,0,0,1.14-.36,1.25,1.25,0,0,0,.41-1,1.17,1.17,0,0,0-.41-1,1.85,1.85,0,0,0-1.17-.32H72.51V4.2Z"/></g></g></svg>