<svg xmlns="http://www.w3.org/2000/svg" viewBox="0 0 321.03 348.83"><defs><style>.cls-1{fill:#42260f;}.cls-2{fill:#e5c337;}.cls-3{fill:#3e5aa6;}.cls-4{fill:#ad3123;}.cls-5{fill:#7ba32c;}</style></defs><title>ロゴ</title><g id="レイヤー_2" data-name="レイヤー 2"><g id="レイヤー_1-2" data-name="レイヤー 1"><path class="cls-1" d="M125.44,327l-2.62-2.8a1.82,1.82,0,0,1,0-2.46c5.23-5.88,5.92-14.14,5.75-19.28a1.8,1.8,0,0,0-1.8-1.74l-23.15-.09a1.81,1.81,0,0,1-1.8-1.82l0-3.83a1.81,1.81,0,0,1,1.82-1.8l29.7.12a1.81,1.81,0,0,1,1.77,1.46l.3,1.54c.16.8,3.53,18.92-7.33,30.7a1.8,1.8,0,0,1-2.64,0"/><path class="cls-1" d="M103.68,326.31l-2.59-2.83a1.81,1.81,0,0,1,0-2.48c10.71-11,9.52-26,9.11-29.29a2.08,2.08,0,0,1,.17-1.33,1.34,1.34,0,0,1,.68-.53l4-1.38a1.8,1.8,0,0,1,2.37,1.51c.68,6.12,1.28,23.75-11.21,36.39a1.81,1.81,0,0,1-2.62-.06"/><path class="cls-1" d="M211.14,327l-2.62-2.8a1.82,1.82,0,0,1,0-2.46c5.23-5.88,5.92-14.14,5.75-19.28a1.8,1.8,0,0,0-1.8-1.74l-23.15-.09a1.81,1.81,0,0,1-1.8-1.82V295a1.81,1.81,0,0,1,1.82-1.8l29.7.12a1.81,1.81,0,0,1,1.77,1.46l.3,1.54c.16.8,3.53,18.92-7.33,30.7a1.8,1.8,0,0,1-2.64,0"/><path class="cls-1" d="M189.39,326.31l-2.58-2.83a1.81,1.81,0,0,1,0-2.48c10.71-11,9.53-26,9.11-29.29a2.09,2.09,0,0,1,.18-1.33,1.33,1.33,0,0,1,.68-.53l4-1.38a1.8,1.8,0,0,1,2.37,1.51c.68,6.12,1.28,23.75-11.21,36.39a1.81,1.81,0,0,1-2.62-.06"/><path class="cls-1" d="M229.89,307.67v-3.92a1.94,1.94,0,0,1,1.92-1.84c12.47-.82,16.77-9.6,18-13.26a2.06,2.06,0,0,1,2.3-1.27l4.3.7a1.85,1.85,0,0,1,1.61,2.29c-2.22,7.26-9.71,18.26-26,19.15a2,2,0,0,1-2.14-1.85"/><path class="cls-1" d="M248.67,326.95h-4a1.82,1.82,0,0,1-1.9-1.72v-22.5a1.82,1.82,0,0,1,1.9-1.73h4a1.82,1.82,0,0,1,1.9,1.73v22.5a1.82,1.82,0,0,1-1.9,1.72"/><path class="cls-1" d="M286.2,301.19H266.82a1.83,1.83,0,0,1-1.83-1.83v-3.87a1.83,1.83,0,0,1,1.83-1.83H286.2a1.83,1.83,0,0,1,1.83,1.83v3.87a1.83,1.83,0,0,1-1.83,1.83"/><path class="cls-1" d="M296.23,316H273.56a1.83,1.83,0,0,1-1.83-1.83v-3.87a1.83,1.83,0,0,1,1.83-1.83h22.67a1.83,1.83,0,0,1,1.83,1.83v3.87a1.83,1.83,0,0,1-1.83,1.83"/><path class="cls-1" d="M277.05,326.55l-.66-38.83a1.8,1.8,0,0,1,1.8-1.81l3.87-.06a1.81,1.81,0,0,1,1.86,1.75l.66,38.83a1.8,1.8,0,0,1-1.8,1.81l-3.87.06a1.81,1.81,0,0,1-1.86-1.75"/><path class="cls-1" d="M301,299.33h-3.87a1.83,1.83,0,0,1-1.83-1.83v-3.07a1.83,1.83,0,0,1,1.83-1.83H301a1.83,1.83,0,0,1,1.83,1.83v3.07a1.83,1.83,0,0,1-1.83,1.83"/><path class="cls-1" d="M311.36,299.33h-3.87a1.83,1.83,0,0,1-1.83-1.83v-3.07a1.83,1.83,0,0,1,1.83-1.83h3.87a1.83,1.83,0,0,1,1.83,1.83v3.07a1.83,1.83,0,0,1-1.83,1.83"/><path class="cls-1" d="M301.49,310.83l-5.73-3.31a1.86,1.86,0,0,0-2.79,1.61v6.62a1.86,1.86,0,0,0,2.79,1.61l5.73-3.31a1.86,1.86,0,0,0,0-3.21"/><path class="cls-1" d="M88.31,327.84H61.71a2.07,2.07,0,0,1-2.07-2.07v-3a2.07,2.07,0,0,1,2.07-2.07H81.17a2.07,2.07,0,0,0,2.07-2.07V299.55a2.07,2.07,0,0,0-2.07-2.07H61.89a2.07,2.07,0,0,1-2.07-2.07v-3a2.07,2.07,0,0,1,2.07-2.06H88.31a2.07,2.07,0,0,1,2.07,2.06v33.36a2.07,2.07,0,0,1-2.07,2.07"/><path class="cls-1" d="M48.17,331.82H21.56a2.18,2.18,0,0,1-2.07-2.29v-3.32a2.19,2.19,0,0,1,2.07-2.29H41a2.18,2.18,0,0,0,2.07-2.29V300.53A2.19,2.19,0,0,0,41,298.24H21.74A2.18,2.18,0,0,1,19.68,296v-3.32a2.18,2.18,0,0,1,2.07-2.29H48.17a2.18,2.18,0,0,1,2.07,2.29v36.9a2.18,2.18,0,0,1-2.07,2.29"/><path class="cls-1" d="M112.49,348.72h-2.25a.36.36,0,0,1-.28-.13l-2.56-3.13a.36.36,0,0,0-.63.22v2.68a.36.36,0,0,1-.35.36h-1.89a.36.36,0,0,1-.36-.36v-7.91a.36.36,0,0,1,.36-.35h1.89a.35.35,0,0,1,.35.35v2.5a.36.36,0,0,0,.63.22l2.38-2.94a.35.35,0,0,1,.28-.13H112a.36.36,0,0,1,.28.58l-2.57,3.24a.36.36,0,0,0,0,.45l3.08,3.78a.36.36,0,0,1-.28.58"/><path class="cls-1" d="M135,348.72h-1.88a.35.35,0,0,1-.33-.22l-.52-1.3A.35.35,0,0,0,132,347h-3.26a.35.35,0,0,0-.33.22l-.54,1.31a.36.36,0,0,1-.33.22h-1.88a.36.36,0,0,1-.33-.5l3.5-7.91a.35.35,0,0,1,.33-.21h2.41a.35.35,0,0,1,.33.21l3.49,7.91a.36.36,0,0,1-.33.5M131.43,345l-.74-1.84a.36.36,0,0,0-.66,0l-.75,1.84a.36.36,0,0,0,.33.49h1.49a.36.36,0,0,0,.33-.49"/><path class="cls-1" d="M156.62,348.11l-.48.17-.38.12-.53.14a11.8,11.8,0,0,1-1.18.21,10.49,10.49,0,0,1-1.24.07,6.06,6.06,0,0,1-2.43-.48,4,4,0,0,1-1.78-1.49,4.38,4.38,0,0,1-.67-2.47,5.22,5.22,0,0,1,.35-1.86,3.26,3.26,0,0,1,1.06-1.46,4.91,4.91,0,0,1,1.18-.69,5,5,0,0,1,1.17-.32A9,9,0,0,1,153,340a8.52,8.52,0,0,1,1.88.17c.42.1.87.22,1.36.37a.37.37,0,0,1,.26.35v1.78a7.11,7.11,0,0,0-1.24-.57,5,5,0,0,0-1.63-.23,3.35,3.35,0,0,0-1.8.43,2.36,2.36,0,0,0-.94,1,2.78,2.78,0,0,0-.27,1.14,2.46,2.46,0,0,0,.3,1.2,2.25,2.25,0,0,0,.92.88,3.09,3.09,0,0,0,1.49.33,4.68,4.68,0,0,0,1.06-.13v-1h-1.17v-1.38a.36.36,0,0,1,.35-.36h2.73a.36.36,0,0,1,.36.36Z"/><path class="cls-1" d="M179.65,344.4a4.54,4.54,0,0,1-.56,2.22,4,4,0,0,1-1.66,1.61,5.56,5.56,0,0,1-2.68.6,5.48,5.48,0,0,1-2.71-.62,4.06,4.06,0,0,1-1.64-1.64,4.65,4.65,0,0,1,0-4.34A4,4,0,0,1,172,340.6a5.49,5.49,0,0,1,2.71-.62,5.94,5.94,0,0,1,2.13.35,4.26,4.26,0,0,1,1.54,1,4,4,0,0,1,.92,1.41,4.66,4.66,0,0,1,.31,1.7m-2.65,0a2.61,2.61,0,0,0-.14-.89,1.9,1.9,0,0,0-.43-.7,2,2,0,0,0-.71-.46,2.61,2.61,0,0,0-1-.16,2.21,2.21,0,1,0,0,4.42,2.46,2.46,0,0,0,1.22-.28,1.88,1.88,0,0,0,.76-.78,2.43,2.43,0,0,0,.26-1.15"/><path class="cls-1" d="M199,346.21a2.38,2.38,0,0,1-.41,1.4,2.6,2.6,0,0,1-1.15.9,4.3,4.3,0,0,1-1.7.31l-.66,0a7.31,7.31,0,0,1-1-.19,8.14,8.14,0,0,1-1.34-.46V346a9.5,9.5,0,0,0,1.29.67,3.43,3.43,0,0,0,1.35.27,1.17,1.17,0,0,0,.86-.22.64.64,0,0,0,.2-.41.71.71,0,0,0-.34-.59,4.81,4.81,0,0,0-1-.49,7.68,7.68,0,0,1-1.24-.65,3,3,0,0,1-.88-.88,2.27,2.27,0,0,1-.34-1.25,2.29,2.29,0,0,1,1.39-2.16,4,4,0,0,1,1.72-.34,6,6,0,0,1,1.33.14,5.79,5.79,0,0,1,1,.31,4.07,4.07,0,0,1,.55.27v2a7.13,7.13,0,0,0-1.18-.68,3.3,3.3,0,0,0-1.39-.3,1.07,1.07,0,0,0-.7.19.58.58,0,0,0-.22.46.56.56,0,0,0,.22.44,3.77,3.77,0,0,0,.78.45,15.54,15.54,0,0,1,1.59.84,3.17,3.17,0,0,1,.94.86,2.09,2.09,0,0,1,.34,1.22"/><path class="cls-1" d="M221.32,348.72h-1.88a.36.36,0,0,1-.36-.36v-2.65a.35.35,0,0,0-.35-.35h-3.2a.35.35,0,0,0-.35.35v2.65a.36.36,0,0,1-.36.36h-1.89a.36.36,0,0,1-.36-.36v-7.91a.36.36,0,0,1,.36-.35h1.89a.36.36,0,0,1,.36.35v2.46a.35.35,0,0,0,.35.36h3.2a.36.36,0,0,0,.35-.36v-2.46a.36.36,0,0,1,.36-.35h1.88a.35.35,0,0,1,.35.35v7.91a.36.36,0,0,1-.35.36"/><path class="cls-1" d="M237.85,348.72H236a.36.36,0,0,1-.35-.36v-7.91a.35.35,0,0,1,.35-.35h1.89a.35.35,0,0,1,.35.35v7.91a.36.36,0,0,1-.35.36"/><path class="cls-1" d="M261.81,348.72h-1.89a.36.36,0,0,1-.35-.36v-3.64a.36.36,0,0,0-.63-.22l-1.71,2.11H257l-1.72-2.12a.36.36,0,0,0-.63.22v3.64a.36.36,0,0,1-.36.36h-1.82a.36.36,0,0,1-.36-.36v-7.91a.36.36,0,0,1,.36-.35h1.83a.36.36,0,0,1,.28.13l2.27,2.77a.36.36,0,0,0,.55,0l2.28-2.77a.35.35,0,0,1,.28-.13h1.83a.36.36,0,0,1,.36.35v7.91a.36.36,0,0,1-.36.36"/><path class="cls-1" d="M285,348.72h-1.87a.35.35,0,0,1-.33-.22l-.53-1.3A.35.35,0,0,0,282,347h-3.27a.35.35,0,0,0-.33.22l-.54,1.31a.36.36,0,0,1-.33.22h-1.87a.36.36,0,0,1-.33-.5l3.5-7.91a.36.36,0,0,1,.33-.21h2.41a.35.35,0,0,1,.33.21l3.49,7.91a.36.36,0,0,1-.33.5M281.41,345l-.74-1.84a.36.36,0,0,0-.66,0l-.75,1.84a.35.35,0,0,0,.33.49h1.49a.36.36,0,0,0,.33-.49"/><path class="cls-1" d="M170.87,295.32H151.63a1.81,1.81,0,0,1-1.95-1.63v-3.45a1.81,1.81,0,0,1,1.95-1.63h19.23a1.81,1.81,0,0,1,1.95,1.63v3.45a1.81,1.81,0,0,1-1.95,1.63"/><path class="cls-1" d="M176.69,305.86H148a1.28,1.28,0,0,1-1.27-1.27v-3.84a1.28,1.28,0,0,1,1.27-1.28h28.65a1.28,1.28,0,0,1,1.27,1.28v3.84a1.28,1.28,0,0,1-1.27,1.27"/><path class="cls-1" d="M152.08,326.05a45.85,45.85,0,0,1-5.52-.33,1.27,1.27,0,0,1-1.09-1.49l.9-5-.56,3.15.34-1.94a1.27,1.27,0,0,1,1.4-1c3.4.39,13.37,1,19.3-4,3-2.48,4.51-6,4.73-10.77a1.27,1.27,0,0,1,1.27-1.21h3.84a1.28,1.28,0,0,1,1.28,1.34c-.28,6.64-2.64,11.87-7,15.54-5.62,4.7-13.34,5.69-18.85,5.69"/><path class="cls-1" d="M169.7,305.86c1.06,0,1.87.75,1.16,3.36l4.15-2.39-3-3.36s-3.38,2.42-2.31,2.38"/><path class="cls-1" d="M281,110.36a1.4,1.4,0,0,0-1.86.66L277,115.51a1.39,1.39,0,0,0,.66,1.86l4.94,2.36a.83.83,0,0,1-.32,1.57l-17.06.82a1.39,1.39,0,0,0-1.32,1.46l.24,5a1.4,1.4,0,0,0,1.46,1.33l30-1.44a.83.83,0,0,1,.87.83l0,21.47a.83.83,0,0,1-.79.82l-28.47,1.36a1.4,1.4,0,0,0-1.33,1.46l.24,5a1.4,1.4,0,0,0,1.46,1.33L302.74,159h.1a1.61,1.61,0,0,0,1.32-1.53l.07-34.55a3.22,3.22,0,0,0-1.9-2.95Z"/><path class="cls-2" d="M153,173.49,75.65,200.12a1.37,1.37,0,0,1-1.82-1.3l0-17.7a2.75,2.75,0,0,1,1.86-2.61l49.1-16.91a1.37,1.37,0,0,0,.93-1.3V155a1.38,1.38,0,0,0-1.82-1.3L70,172.24a.85.85,0,0,1-.44,0L18.76,161.52a.83.83,0,0,1-.09-1.59l37.16-12.6a1.37,1.37,0,0,0,.93-1.3v-5.29a1.37,1.37,0,0,0-1.82-1.3l-53.08,18A2.75,2.75,0,0,0,0,160v33.84a4.33,4.33,0,0,0,3.43,4.23l44,9.36a1.38,1.38,0,0,0,1.66-1.35V201A1.38,1.38,0,0,0,48,199.66L8.85,191.37A1.37,1.37,0,0,1,7.76,190v-22.2a.82.82,0,0,1,1-.81l56.6,12.27a.82.82,0,0,1,.65.81l0,27.72a2.75,2.75,0,0,0,3.67,2.6l2.62-.92,81.61-28.11a1.37,1.37,0,0,0,.93-1.3v-5.3a1.38,1.38,0,0,0-1.82-1.3m-83.48,2.1,0-.08,0,.08Z"/><path class="cls-3" d="M314.37,230l-54.49,21.07a1.37,1.37,0,0,1-1.87-1.28V226.36a1.37,1.37,0,0,1,.88-1.28l60.68-23.51a2.26,2.26,0,0,0,1.44-2.1l0-5.35a1.38,1.38,0,0,0-1.06-1.34L235.6,172.55a1.38,1.38,0,0,0-1.7,1.34V179a1.38,1.38,0,0,0,1.06,1.34l70.47,16.9a.76.76,0,0,1,.1,1.45l-50.94,19.7a1.38,1.38,0,0,1-.82.05L151.89,194a1.37,1.37,0,0,0-1.7,1.34v5.15a1.37,1.37,0,0,0,1.05,1.34l98,23.49a1.37,1.37,0,0,1,1.06,1.34v31.57a3.3,3.3,0,0,0,4.47,3.08l3.3-1.25h0l57.35-22.18a1.37,1.37,0,0,0,.88-1.28v-5.37a1.38,1.38,0,0,0-1.87-1.28"/><path class="cls-4" d="M260.2,70.67a4,4,0,0,0-3.67-4L183.27,60a1.38,1.38,0,0,0-1.5,1.37v5A1.37,1.37,0,0,0,183,67.77l62.17,5.51a.82.82,0,0,1,.47,1.44l-32.06,27.84a4.49,4.49,0,0,1-3.33,1.08L79.56,92.15A1.43,1.43,0,0,0,78,93.4V94a1.43,1.43,0,0,0-.09.47V133a1.37,1.37,0,0,0,1.38,1.38h5A1.37,1.37,0,0,0,85.65,133V101.36a.82.82,0,0,1,.9-.82l121.3,10.69a.82.82,0,0,1,.75.82v31.8a.83.83,0,0,1-.9.82L155,139.8a1.38,1.38,0,0,0-1.5,1.37v5a1.37,1.37,0,0,0,1.25,1.37L211,152.82a5.9,5.9,0,0,0,4.66-1.64l18.12-17.55a3.39,3.39,0,0,0,1-2.44v-6.1a1.37,1.37,0,0,0-2.33-1l-14.78,14.22a.83.83,0,0,1-1.4-.59V111.26a.83.83,0,0,1,.29-.62L251,80.77a.83.83,0,0,1,1.37.62V102a1.37,1.37,0,0,0,1.37,1.38h5a1.38,1.38,0,0,0,1.38-1.38Z"/><path class="cls-3" d="M223.19,252.62l-90-21.42a1.37,1.37,0,0,1-1.05-1.34V209.22a1.38,1.38,0,0,0-1.05-1.34l-5-1.21a1.37,1.37,0,0,0-1.7,1.34v26.45a3.31,3.31,0,0,0,2.54,3.22l95.36,22.7a2,2,0,0,0,2.41-1.9v-4a2,2,0,0,0-1.5-1.9"/><path class="cls-5" d="M160.63,6.22a1.13,1.13,0,0,0,0-.31l-.37-3.36A2.86,2.86,0,0,0,157.11,0L73.85,9.17a1.17,1.17,0,0,0-1,1.29l.56,5a1.17,1.17,0,0,0,1.29,1l69.66-7.66a.7.7,0,0,1,.56,1.2L129.4,24.88a.7.7,0,0,1-.41.19L33.52,35.57A3.12,3.12,0,0,0,30.76,39a1.09,1.09,0,0,0,0,.31l2.82,30.91a1.17,1.17,0,0,0,1.27,1.06l5.06-.46A1.17,1.17,0,0,0,41,69.55L38.54,43.16a.7.7,0,0,1,.62-.76l87.17-9.58a1.19,1.19,0,0,1,1.32,1.07l2.46,26a1.19,1.19,0,0,1-1,1.3L58.53,69.85a1.17,1.17,0,0,0-1,1.29l.55,5a1.17,1.17,0,0,0,1.29,1L134.84,68a5,5,0,0,0,2.89-1.35l14.13-13.57a1.38,1.38,0,0,0,.41-1.14l-.63-5.87a1.38,1.38,0,0,0-2.32-.84L138.41,55.69a1.19,1.19,0,0,1-2-.75l-2.25-23.72a1.2,1.2,0,0,1,.36-1L152.66,12.9a.7.7,0,0,1,1.18.44l1.28,14a1.17,1.17,0,0,0,1.27,1.06l5.06-.46a1.16,1.16,0,0,0,1.05-1.27Z"/></g></g></svg>