<svg xmlns="http://www.w3.org/2000/svg" viewBox="0 0 522.22 263.61"><defs><style>.cls-1{fill:#efe3df;}</style></defs><title>背景パーツ06</title><g id="レイヤー_2" data-name="レイヤー 2"><g id="レイヤー_1-2" data-name="レイヤー 1"><path class="cls-1" d="M504.53,170.12,359.84,232.48c-2.39,1-5-.94-5-3.8V159.39a4.09,4.09,0,0,1,2.33-3.8L518.35,86a6.7,6.7,0,0,0,3.83-6.21l0-15.84a4,4,0,0,0-2.8-4L295.36.11c-2.3-.61-4.5,1.33-4.5,4V19.33a4,4,0,0,0,2.8,4l187.12,50a2.33,2.33,0,0,1,.26,4.28l-135.28,58.3a3.3,3.3,0,0,1-2.17.16L73.05,63.73c-2.3-.61-4.5,1.33-4.5,4V82.95a4,4,0,0,0,2.8,4l260.11,69.53a4,4,0,0,1,2.8,4v93.45c0,6.83,6.13,11.55,11.86,9.13l8.75-3.7v0l152.29-65.64a4.08,4.08,0,0,0,2.33-3.8v-15.9c0-2.86-2.58-4.83-5-3.8"/><path class="cls-1" d="M262.39,237.1l-239-63.41a4,4,0,0,1-2.8-4V108.66a4,4,0,0,0-2.8-4L4.51,101.13c-2.3-.62-4.51,1.32-4.51,4v78.29c0,4.53,2.79,8.47,6.74,9.52L260,260.09c3.27.87,6.4-1.89,6.4-5.63V242.73a5.7,5.7,0,0,0-4-5.63"/></g></g></svg>