<svg xmlns="http://www.w3.org/2000/svg" viewBox="0 0 450.89 310.56"><defs><style>.cls-1{fill:#efe3df;}</style></defs><title>背景パーツ02</title><g id="レイヤー_2" data-name="レイヤー 2"><path class="cls-1" d="M445,25.27a5.53,5.53,0,0,0,.05-1.26L443.9,10.39C443.35,4,438.54-.6,433.16.06l-285,35.24c-2.19.27-3.79,2.6-3.56,5.19l1.77,20.45c.22,2.6,2.18,4.48,4.38,4.21L389.17,35.67c2.28-.28,3.55,3,1.89,4.88l-53.33,59.61a2.26,2.26,0,0,1-1.4.76L9.59,141.33c-5.85.72-10.11,6.93-9.51,13.85A5.53,5.53,0,0,0,0,156.43L8.87,281.66c.18,2.6,2.11,4.53,4.31,4.3l17.3-1.76c2.2-.22,3.83-2.51,3.64-5.11l-7.56-106.9a2.75,2.75,0,0,1,2.14-3.06l298.35-36.9c2.26-.28,4.27,1.69,4.47,4.37l7.74,105.27c.19,2.6-1.4,4.91-3.59,5.22L94.21,280.68c-2.19.27-3.79,2.6-3.56,5.19l1.77,20.45c.22,2.6,2.18,4.48,4.38,4.21l258.45-35.71a16,16,0,0,0,9.93-5.41l48.67-54.63a6.19,6.19,0,0,0,1.44-4.59l-2-23.8c-.39-4.61-5.09-6.67-7.92-3.46l-37.59,42.15c-2.48,2.78-6.56.95-6.85-3.07l-7.07-96.1a5.35,5.35,0,0,1,1.27-3.93l62.49-69.85c1.46-1.63,3.86-.55,4,1.82l4,56.74c.18,2.6,2.11,4.53,4.31,4.3l17.3-1.76c2.2-.22,3.83-2.51,3.64-5.11Z"/></g></svg>