<svg xmlns="http://www.w3.org/2000/svg" viewBox="0 0 250.08 39.68"><defs><style>.cls-1{fill:#e6c338;}</style></defs><title>見出し01</title><g id="レイヤー_2" data-name="レイヤー 2"><path class="cls-1" d="M11.66,2a9.72,9.72,0,0,1,6.88,2.45,8.23,8.23,0,0,1,2.65,6.32,8.13,8.13,0,0,1-2.68,6.33,10.14,10.14,0,0,1-7.06,2.42H5.83V32.18H0V2ZM10.22,15a5.6,5.6,0,0,0,3.64-1.07,3.85,3.85,0,0,0,1.31-3.16q0-4.17-5.36-4.17h-4V15Z"/><path class="cls-1" d="M45.55,2a10.12,10.12,0,0,1,6.93,2.35,7.78,7.78,0,0,1,2.68,6.14A7.65,7.65,0,0,1,53.83,15a8.8,8.8,0,0,1-3.94,3,8.77,8.77,0,0,1,2.57,2.12,27.18,27.18,0,0,1,2.79,4.52q2.76,5.49,4.1,7.56h-6.5A35.9,35.9,0,0,1,51,29a69.53,69.53,0,0,0-3.67-6.49,8.81,8.81,0,0,0-2.25-2.38,4.47,4.47,0,0,0-2.48-.7H40.51V32.18H34.68V2ZM44.23,14.87a5.27,5.27,0,0,0,3.6-1.15,3.94,3.94,0,0,0,1.31-3.13,3.71,3.71,0,0,0-1.3-3.1,5.83,5.83,0,0,0-3.69-1H40.51v8.4Z"/><path class="cls-1" d="M87.49,1.61a18.13,18.13,0,0,1,8.43,1.93,14.88,14.88,0,0,1,6,5.57,15,15,0,0,1,2.23,8A15.16,15.16,0,0,1,96,30.57a19.08,19.08,0,0,1-17.07,0A14.94,14.94,0,0,1,70.81,17.1,15.2,15.2,0,0,1,73,9.3a14.87,14.87,0,0,1,5.9-5.67,18,18,0,0,1,8.64-2M76.84,17.1a10.75,10.75,0,0,0,1.36,5.4A9.46,9.46,0,0,0,82,26.21a11.35,11.35,0,0,0,5.5,1.32,10.49,10.49,0,0,0,7.64-2.92,10,10,0,0,0,3-7.52,10.88,10.88,0,0,0-1.35-5.41A9.34,9.34,0,0,0,93,8a12.17,12.17,0,0,0-11,0,9.23,9.23,0,0,0-3.77,3.72,11,11,0,0,0-1.32,5.41"/><path class="cls-1" d="M127.4,0V29a11.2,11.2,0,0,1-2.59,7.74,8.76,8.76,0,0,1-6.87,2.91h-.57a4,4,0,0,1-.57,0l-.41-5q5.19,0,5.19-6.07V0Z"/><polygon class="cls-1" points="169.53 2 169.53 6.56 155.86 6.56 155.86 14.48 168.95 14.48 168.95 19.04 155.86 19.04 155.86 27.62 169.84 27.62 169.84 32.18 150.03 32.18 150.03 2 169.53 2"/><path class="cls-1" d="M200,1.61a21.76,21.76,0,0,1,5,.58,25.43,25.43,0,0,1,5.31,2V9.67a24.91,24.91,0,0,0-5.15-2.31,17,17,0,0,0-4.94-.71A12.54,12.54,0,0,0,194.41,8a9.74,9.74,0,0,0-4,3.75,10.33,10.33,0,0,0-1.44,5.38,10.39,10.39,0,0,0,1.43,5.42,9.56,9.56,0,0,0,4,3.71,12.76,12.76,0,0,0,5.83,1.31,15.64,15.64,0,0,0,4.74-.71,34.3,34.3,0,0,0,5.69-2.57v5.49a26.36,26.36,0,0,1-5.4,2.18,22.71,22.71,0,0,1-5.75.65,18.64,18.64,0,0,1-8.53-1.9,14.26,14.26,0,0,1-5.91-5.48,14.9,14.9,0,0,1-2.15-7.83,15.41,15.41,0,0,1,2.21-8.19,14.85,14.85,0,0,1,6.09-5.59,19,19,0,0,1,8.74-2"/><polygon class="cls-1" points="250.09 2 250.09 6.56 239.37 6.56 239.37 32.18 233.54 32.18 233.54 6.56 222.83 6.56 222.83 2 250.09 2"/></g></svg>