<svg xmlns="http://www.w3.org/2000/svg" viewBox="0 0 267.32 28.5"><defs><style>.cls-1{fill:#e6c338;}</style></defs><title>見出し04</title><g id="レイヤー_2" data-name="レイヤー 2"><path class="cls-1" d="M16.94.36,29.21,28.14H23.55l-2.88-6.76H8.31L5.63,28.14H0L11.45.36Zm-7,16.94h9l-4.69-11Z"/><path class="cls-1" d="M50.8.36a9.45,9.45,0,0,1,6.23,2,6.19,6.19,0,0,1,2.41,5,5.77,5.77,0,0,1-1,3.36A6.83,6.83,0,0,1,55.52,13v.24A8,8,0,0,1,60,15.82a6.87,6.87,0,0,1,1.62,4.54,7.39,7.39,0,0,1-1.18,4.13,7.28,7.28,0,0,1-3.28,2.73,12.3,12.3,0,0,1-4.94.91H40.62V.36ZM49.37,11.89a5.14,5.14,0,0,0,3.36-1A3.46,3.46,0,0,0,54,8.05,3.15,3.15,0,0,0,52.83,5.5a4.5,4.5,0,0,0-3-.94H46v7.34Zm1.25,12.05a6.91,6.91,0,0,0,4.12-1,3.51,3.51,0,0,0,1.39-3,3.29,3.29,0,0,0-1.38-2.79,6.09,6.09,0,0,0-3.71-1H46v7.85Z"/><path class="cls-1" d="M88.58,0a16.69,16.69,0,0,1,7.77,1.78,13.7,13.7,0,0,1,5.5,5.13,13.82,13.82,0,0,1,2,7.35,14,14,0,0,1-7.49,12.4,16.62,16.62,0,0,1-7.87,1.84,16.5,16.5,0,0,1-7.85-1.87,13.75,13.75,0,0,1-7.47-12.37,14,14,0,0,1,2-7.18,13.69,13.69,0,0,1,5.43-5.22A16.55,16.55,0,0,1,88.58,0Zm-9.8,14.26a9.89,9.89,0,0,0,1.25,5,8.71,8.71,0,0,0,3.49,3.42,10.44,10.44,0,0,0,5.06,1.21,9.66,9.66,0,0,0,7-2.68,9.24,9.24,0,0,0,2.75-6.92,10,10,0,0,0-1.24-5,8.6,8.6,0,0,0-3.5-3.43,11.2,11.2,0,0,0-10.16,0A8.49,8.49,0,0,0,80,9.28,10.13,10.13,0,0,0,78.77,14.26Z"/><path class="cls-1" d="M122.24.36V16.53a8.82,8.82,0,0,0,.75,4,5.83,5.83,0,0,0,2.44,2.42,7.87,7.87,0,0,0,3.94,1,8.9,8.9,0,0,0,4.19-.9,5.7,5.7,0,0,0,2.52-2.47,9.67,9.67,0,0,0,.8-4.33V.36h5.37v16.5q0,5.61-3.36,8.62t-9.51,3a15.19,15.19,0,0,1-6.69-1.37,9.74,9.74,0,0,1-4.33-4,12,12,0,0,1-1.49-6.09V.36Z"/><path class="cls-1" d="M179.35.36v4.2h-9.86V28.14h-5.37V4.55h-9.86V.36Z"/><path class="cls-1" d="M216.2.36V16.53a8.82,8.82,0,0,0,.75,4,5.83,5.83,0,0,0,2.44,2.42,7.87,7.87,0,0,0,3.94,1,8.9,8.9,0,0,0,4.19-.9A5.7,5.7,0,0,0,230,20.49a9.67,9.67,0,0,0,.8-4.33V.36h5.37v16.5q0,5.61-3.36,8.62t-9.51,3a15.19,15.19,0,0,1-6.69-1.37,9.74,9.74,0,0,1-4.33-4,12,12,0,0,1-1.49-6.09V.36Z"/><path class="cls-1" d="M258.31,0a16.24,16.24,0,0,1,7.81,2V6.8a15.29,15.29,0,0,0-7.66-2.61A5.54,5.54,0,0,0,255.3,5a2.43,2.43,0,0,0-1.14,2.1q0,1.57,2.13,2.9.6.4,4.59,2.23a13.16,13.16,0,0,1,4.93,3.58,7.54,7.54,0,0,1,1.51,4.73,7.23,7.23,0,0,1-2.58,5.78,9.92,9.92,0,0,1-6.67,2.2,15.77,15.77,0,0,1-4.58-.59,19.86,19.86,0,0,1-4.31-2V20.6q4.45,3.7,8.39,3.7a5.41,5.41,0,0,0,3.18-.86A2.65,2.65,0,0,0,262,21.18,3.58,3.58,0,0,0,259.86,18q-1.75-1-4.51-2.29a13.27,13.27,0,0,1-4.9-3.48,7.09,7.09,0,0,1-1.62-4.61,6.77,6.77,0,0,1,2.6-5.58A10.71,10.71,0,0,1,258.31,0Z"/></g></svg>