<svg xmlns="http://www.w3.org/2000/svg" viewBox="0 0 327.67 29.76"><defs><style>.cls-1{fill:#e6c338;}</style></defs><title>見出し03</title><g id="レイヤー_2" data-name="レイヤー 2"><g id="バナー"><path class="cls-1" d="M26.89,0V4.49H16.32V29.76H10.57V4.49H0V0Z"/><path class="cls-1" d="M45.86,0V29.76H40.11V0Z"/><path class="cls-1" d="M66.45,0l9.78,11.74L86,0h5.13V29.76H85.39V8.86h-.17L76.62,19.34h-.81L67.2,8.86H67v20.9H61.28V0Z"/><path class="cls-1" d="M125.67,0V4.49H112.18v7.82H125.1v4.5H112.18v8.46H126v4.5H106.43V0Z"/><path class="cls-1" d="M185.6,0V4.49H175V29.76h-5.75V4.49H158.72V0Z"/><path class="cls-1" d="M213.78,0l13.15,29.76h-6.07l-3.09-7.24H204.54l-2.88,7.24h-6L207.9,0Zm-7.5,18.15h9.61l-5-11.78Z"/><path class="cls-1" d="M250.05,0a10.13,10.13,0,0,1,6.67,2.13,6.63,6.63,0,0,1,2.58,5.32,6.18,6.18,0,0,1-1.08,3.6,7.31,7.31,0,0,1-3.12,2.47v.26a8.54,8.54,0,0,1,4.85,2.78,7.36,7.36,0,0,1,1.74,4.87,7.92,7.92,0,0,1-1.27,4.42,7.79,7.79,0,0,1-3.51,2.93,13.17,13.17,0,0,1-5.29,1H239.15V0Zm-1.53,12.36a5.51,5.51,0,0,0,3.6-1.09,3.7,3.7,0,0,0,1.32-3,3.38,3.38,0,0,0-1.21-2.74,4.82,4.82,0,0,0-3.2-1H244.9v7.86Zm1.34,12.91a7.4,7.4,0,0,0,4.41-1.1,3.76,3.76,0,0,0,1.49-3.23,3.52,3.52,0,0,0-1.48-3,6.52,6.52,0,0,0-4-1.1H244.9v8.41Z"/><path class="cls-1" d="M281,0V25.27h14.44v4.5h-20.2V0Z"/><path class="cls-1" d="M327.37,0V4.49H313.89v7.82H326.8v4.5H313.89v8.46h13.78v4.5H308.13V0Z"/></g></g></svg>