<svg xmlns="http://www.w3.org/2000/svg" viewBox="0 0 354.39 27.16"><defs><style>.cls-1{fill:#e6c338;}</style></defs><title>見出し06</title><g id="レイヤー_2" data-name="レイヤー 2"><g id="レイヤー_1-2" data-name="レイヤー 1"><rect class="cls-1" y="0.34" width="5.12" height="26.48"/><polygon class="cls-1" points="23.32 0.34 39.06 18.82 39.06 0.34 44.06 0.34 44.06 26.82 39.66 26.82 23.84 8.04 23.84 26.82 18.83 26.82 18.83 0.34 23.32 0.34"/><polygon class="cls-1" points="73.79 0.34 73.79 4.34 62.76 4.34 62.76 11.19 73.79 11.19 73.79 15.22 62.76 15.22 62.76 26.82 57.65 26.82 57.65 0.34 73.79 0.34"/><path class="cls-1" d="M99.79,0a15.94,15.94,0,0,1,7.4,1.7,13.06,13.06,0,0,1,5.24,4.89,13.18,13.18,0,0,1,2,7,13.3,13.3,0,0,1-7.14,11.82,15.83,15.83,0,0,1-7.5,1.75,15.71,15.71,0,0,1-7.48-1.78,13.1,13.1,0,0,1-7.12-11.79A13.33,13.33,0,0,1,87,6.75a13,13,0,0,1,5.18-5A15.77,15.77,0,0,1,99.79,0M90.45,13.59a9.43,9.43,0,0,0,1.19,4.74A8.28,8.28,0,0,0,95,21.59a10,10,0,0,0,4.82,1.16,9.2,9.2,0,0,0,6.7-2.56,8.81,8.81,0,0,0,2.63-6.6,9.55,9.55,0,0,0-1.18-4.75,8.21,8.21,0,0,0-3.34-3.27,10.68,10.68,0,0,0-9.69,0A8.11,8.11,0,0,0,91.6,8.84a9.66,9.66,0,0,0-1.16,4.75"/><path class="cls-1" d="M136.48.34a8.88,8.88,0,0,1,6.09,2.07,6.83,6.83,0,0,1,2.35,5.38,6.72,6.72,0,0,1-1.17,3.93,7.74,7.74,0,0,1-3.46,2.64,7.7,7.7,0,0,1,2.26,1.86,23.81,23.81,0,0,1,2.45,4q2.43,4.81,3.6,6.63h-5.7A31.4,31.4,0,0,1,141.29,24a61.17,61.17,0,0,0-3.22-5.7,7.75,7.75,0,0,0-2-2.09,3.91,3.91,0,0,0-2.18-.62h-1.86V26.82h-5.12V.34Zm-1.16,11.3a4.63,4.63,0,0,0,3.16-1,3.46,3.46,0,0,0,1.15-2.75,3.26,3.26,0,0,0-1.14-2.72,5.12,5.12,0,0,0-3.24-.9h-3.18v7.37Z"/><polygon class="cls-1" points="164.32 0.34 173.02 10.79 181.72 0.34 186.29 0.34 186.29 26.82 181.17 26.82 181.17 8.23 181.02 8.23 173.36 17.55 172.64 17.55 164.98 8.23 164.83 8.23 164.83 26.82 159.71 26.82 159.71 0.34 164.32 0.34"/><path class="cls-1" d="M213.31.34,225,26.82h-5.4l-2.75-6.44H205.08l-2.56,6.44h-5.36L208.07.34Zm-6.67,16.15h8.55L210.71,6Z"/><polygon class="cls-1" points="257.84 0.34 257.84 4.34 248.44 4.34 248.44 26.82 243.32 26.82 243.32 4.34 233.93 4.34 233.93 0.34 257.84 0.34"/><rect class="cls-1" x="269.61" y="0.34" width="5.12" height="26.48"/><path class="cls-1" d="M302,0a15.94,15.94,0,0,1,7.4,1.7,13,13,0,0,1,5.24,4.89,13.17,13.17,0,0,1,2,7,13.3,13.3,0,0,1-7.14,11.82A15.83,15.83,0,0,1,302,27.16a15.71,15.71,0,0,1-7.48-1.78,13.1,13.1,0,0,1-7.12-11.79,13.33,13.33,0,0,1,1.88-6.84,13,13,0,0,1,5.17-5A15.78,15.78,0,0,1,302,0m-9.34,13.59a9.42,9.42,0,0,0,1.19,4.74,8.3,8.3,0,0,0,3.33,3.26A10,10,0,0,0,302,22.74a9.21,9.21,0,0,0,6.7-2.56,8.81,8.81,0,0,0,2.63-6.6,9.54,9.54,0,0,0-1.18-4.75,8.2,8.2,0,0,0-3.34-3.27,10.68,10.68,0,0,0-9.69,0,8.1,8.1,0,0,0-3.31,3.26,9.66,9.66,0,0,0-1.16,4.75"/><polygon class="cls-1" points="333.66 0.34 349.39 18.82 349.39 0.34 354.39 0.34 354.39 26.82 350 26.82 334.17 8.04 334.17 26.82 329.17 26.82 329.17 0.34 333.66 0.34"/></g></g></svg>