<svg xmlns="http://www.w3.org/2000/svg" viewBox="0 0 225.42 28.65"><defs><style>.cls-1{fill:#e6c338;}</style></defs><title>見出し05</title><g id="レイヤー_2" data-name="レイヤー 2"><g id="レイヤー_1-2" data-name="レイヤー 1"><path class="cls-1" d="M17,.36,29.37,28.29h-5.7l-2.9-6.8H8.36l-2.7,6.8H0L11.52.36Zm-7,17h9L14.29,6.34Z"/><path class="cls-1" d="M55.49,0a20.15,20.15,0,0,1,4.66.54,23.54,23.54,0,0,1,4.92,1.84V7.46A23.13,23.13,0,0,0,60.3,5.32a15.71,15.71,0,0,0-4.57-.66,11.61,11.61,0,0,0-5.38,1.23,9,9,0,0,0-3.73,3.47,9.57,9.57,0,0,0-1.33,5,9.63,9.63,0,0,0,1.32,5,8.85,8.85,0,0,0,3.72,3.43A11.82,11.82,0,0,0,55.73,24a14.48,14.48,0,0,0,4.39-.66A31.76,31.76,0,0,0,65.39,21V26a24.37,24.37,0,0,1-5,2,21,21,0,0,1-5.32.6,17.25,17.25,0,0,1-7.9-1.76,13.2,13.2,0,0,1-5.47-5.07,13.8,13.8,0,0,1-2-7.25,14.26,14.26,0,0,1,2-7.58A13.75,13.75,0,0,1,47.4,1.82,17.63,17.63,0,0,1,55.49,0Z"/><path class="cls-1" d="M93.37,0A20.15,20.15,0,0,1,98,.54a23.54,23.54,0,0,1,4.92,1.84V7.46a23.13,23.13,0,0,0-4.77-2.14,15.71,15.71,0,0,0-4.57-.66,11.61,11.61,0,0,0-5.38,1.23A9,9,0,0,0,84.5,9.36a9.57,9.57,0,0,0-1.33,5,9.63,9.63,0,0,0,1.32,5,8.85,8.85,0,0,0,3.72,3.43A11.82,11.82,0,0,0,93.61,24,14.48,14.48,0,0,0,98,23.33,31.76,31.76,0,0,0,103.26,21V26a24.37,24.37,0,0,1-5,2,21,21,0,0,1-5.32.6,17.25,17.25,0,0,1-7.9-1.76,13.2,13.2,0,0,1-5.47-5.07,13.8,13.8,0,0,1-2-7.25,14.26,14.26,0,0,1,2-7.58,13.75,13.75,0,0,1,5.64-5.18A17.63,17.63,0,0,1,93.37,0Z"/><path class="cls-1" d="M124.69,0a16.33,16.33,0,0,1,7.86,2v4.8a15.37,15.37,0,0,0-7.7-2.62,5.57,5.57,0,0,0-3.19.79,2.44,2.44,0,0,0-1.15,2.11q0,1.58,2.14,2.92.6.4,4.62,2.24a13.23,13.23,0,0,1,5,3.6,7.58,7.58,0,0,1,1.52,4.76,7.26,7.26,0,0,1-2.59,5.81,10,10,0,0,1-6.71,2.21,15.85,15.85,0,0,1-4.61-.59,20,20,0,0,1-4.33-2V20.71q4.48,3.72,8.44,3.72a5.44,5.44,0,0,0,3.2-.86,2.66,2.66,0,0,0,1.22-2.28,3.6,3.6,0,0,0-2.12-3.16q-1.76-1-4.54-2.3a13.34,13.34,0,0,1-4.93-3.5,7.12,7.12,0,0,1-1.63-4.64,6.8,6.8,0,0,1,2.62-5.61A10.76,10.76,0,0,1,124.69,0Z"/><path class="cls-1" d="M164.7.36V4.58H152v7.34h12.12v4.22H152v7.94H165v4.22H146.65V.36Z"/><path class="cls-1" d="M186.31,0a16.33,16.33,0,0,1,7.86,2v4.8a15.37,15.37,0,0,0-7.7-2.62,5.57,5.57,0,0,0-3.19.79,2.44,2.44,0,0,0-1.15,2.11q0,1.58,2.14,2.92.6.4,4.62,2.24a13.23,13.23,0,0,1,5,3.6,7.58,7.58,0,0,1,1.52,4.76,7.26,7.26,0,0,1-2.59,5.81,10,10,0,0,1-6.71,2.21,15.85,15.85,0,0,1-4.61-.59,20,20,0,0,1-4.33-2V20.71q4.48,3.72,8.44,3.72a5.44,5.44,0,0,0,3.2-.86A2.66,2.66,0,0,0,190,21.29a3.6,3.6,0,0,0-2.12-3.16q-1.76-1-4.54-2.3a13.34,13.34,0,0,1-4.93-3.5,7.12,7.12,0,0,1-1.63-4.64,6.8,6.8,0,0,1,2.62-5.61A10.76,10.76,0,0,1,186.31,0Z"/><path class="cls-1" d="M216.37,0a16.33,16.33,0,0,1,7.86,2v4.8a15.37,15.37,0,0,0-7.7-2.62,5.57,5.57,0,0,0-3.19.79,2.44,2.44,0,0,0-1.15,2.11q0,1.58,2.14,2.92.6.4,4.62,2.24a13.23,13.23,0,0,1,5,3.6,7.58,7.58,0,0,1,1.52,4.76,7.26,7.26,0,0,1-2.59,5.81,10,10,0,0,1-6.71,2.21,15.85,15.85,0,0,1-4.61-.59,20,20,0,0,1-4.33-2V20.71q4.48,3.72,8.44,3.72a5.44,5.44,0,0,0,3.2-.86A2.66,2.66,0,0,0,220,21.29a3.6,3.6,0,0,0-2.12-3.16q-1.76-1-4.54-2.3a13.34,13.34,0,0,1-4.93-3.5,7.12,7.12,0,0,1-1.63-4.64,6.8,6.8,0,0,1,2.62-5.61A10.76,10.76,0,0,1,216.37,0Z"/></g></g></svg>