<svg xmlns="http://www.w3.org/2000/svg" viewBox="0 0 495 822.17">
    <defs>
        <style>
            .cls-1{fill:#fcf5e6;}.cls-2{fill:#e6c338;}.cls-3{fill:#422610;}.cls-4,.cls-6,.cls-7{fill:none;stroke-miterlimit:10;}.cls-4{stroke:#41250f;stroke-width:0.85px;stroke-dasharray:3.4 3.4;}.cls-5{fill:#56504c;}.cls-6,.cls-7{stroke:#422610;}.cls-6{stroke-width:5.73px;}.cls-7{stroke-width:2.87px;}
        </style>
    </defs>
    <title>
        スケジュール1
    </title>
    <g id="レイヤー_2" data-name="レイヤー 2">
        <g id="レイヤー_1-2" data-name="レイヤー 1">
            <rect width="311.81" height="56.69" x="136.59" y="131.67" class="cls-1"/>
            <rect width="311.81" height="56.69" x="136.59" y="188.36" class="cls-2"/>
            <rect width="311.81" height="56.69" x="136.59" y="413.52" class="cls-2"/>
            <rect width="311.81" height="56.69" x="136.59" y="471.27" class="cls-1"/>
            <path d="M37.4,37.08a16.49,16.49,0,0,1-1.94,8.55,18.32,18.32,0,0,1-4.56,5.23q-3.72,2.92-10.43,2.92H1.77V19.13h14.4a39.38,39.38,0,0,1,5.56.34,24.63,24.63,0,0,1,4.16,1A16.51,16.51,0,0,1,29,21.79a16.22,16.22,0,0,1,2.33,1.64,16,16,0,0,1,3.11,3.42,16.77,16.77,0,0,1,2.12,4.58,19.36,19.36,0,0,1,.79,5.65m-10.63-.45A11.58,11.58,0,0,0,25.16,30a7.92,7.92,0,0,0-3.88-3.16,13.75,13.75,0,0,0-4.61-.8H12.22V46.61h4.45a12.74,12.74,0,0,0,7.1-2q3-2,3-8" class="cls-3"/>
            <path d="M92.15,53.78H81.45l-2.83-7H63.57l-2.88,7H50L65.32,19.13H76.87ZM76.22,40.73,71.15,28.08,66,40.73Z" class="cls-3"/>
            <polygon points="140.8 19.13 127.22 37.91 127.22 53.78 116.77 53.78 116.77 38.11 102.94 19.13 113.79 19.13 121.75 30.03 129.72 19.13 140.8 19.13" class="cls-3"/>
            <path d="M166.45,0a42.76,42.76,0,0,0,7.9.46h8.36A65,65,0,0,0,190.87.2a101.89,101.89,0,0,0-.46,10.6v34.5a75.93,75.93,0,0,0,.53,9.94H176.59a75.27,75.27,0,0,0,.53-9.94V11.72h-2.63a69.54,69.54,0,0,0-8,.46Z" class="cls-3"/>
            <line x1="90" x2="495" y1="131.11" y2="131.11" class="cls-4"/>
            <line x1="90" x2="495" y1="187.81" y2="187.81" class="cls-4"/>
            <line x1="90" x2="495" y1="301.19" y2="301.19" class="cls-4"/>
            <line x1="90" x2="495" y1="357.89" y2="357.89" class="cls-4"/>
            <line x1="90" x2="495" y1="471.27" y2="471.27" class="cls-4"/>
            <line x1="90" x2="495" y1="527.96" y2="527.96" class="cls-4"/>
            <line x1="90" x2="495" y1="584.66" y2="584.66" class="cls-4"/>
            <line x1="90" x2="495" y1="641.35" y2="641.35" class="cls-4"/>
            <line x1="90" x2="495" y1="754.74" y2="754.74" class="cls-4"/>
            <path d="M4.68,123.74l-2.91,2.2v-3.23l2.91-2.18H7.6v21.15H4.68Z" class="cls-5"/>
            <path d="M14,138.84l8-10.34a4,4,0,0,0,.63-1.16,4.46,4.46,0,0,0,.11-1A3.2,3.2,0,0,0,22,124.3a2.7,2.7,0,0,0-2.12-.92,2.75,2.75,0,0,0-2,.8,3.52,3.52,0,0,0-1,2.25H14a6.58,6.58,0,0,1,1.72-4.36,5.41,5.41,0,0,1,4-1.71A5.78,5.78,0,0,1,24,122.11a6.26,6.26,0,0,1,.46,8l-6.6,8.53h7.84v3H14Z" class="cls-5"/>
            <path d="M32.74,126.12h2.79V129H32.74Zm0,6.43h2.79v2.87H32.74Z" class="cls-5"/>
            <path d="M41.7,126.44a5.77,5.77,0,0,1,1.81-4.5,5.65,5.65,0,0,1,4-1.56,5.73,5.73,0,0,1,4.06,1.57,6,6,0,0,1,1.76,4.51v9.32a6,6,0,0,1-1.76,4.49,5.84,5.84,0,0,1-4.06,1.6,5.82,5.82,0,0,1-5.81-6.08Zm8.7.19q-.08-3.18-2.9-3.24t-2.88,3.24v9q.06,3.21,2.88,3.24t2.9-3.24Z" class="cls-5"/>
            <path d="M57.31,126.44a5.77,5.77,0,0,1,1.81-4.5,5.65,5.65,0,0,1,4-1.56,5.73,5.73,0,0,1,4.06,1.57,6,6,0,0,1,1.76,4.51v9.32a6,6,0,0,1-1.76,4.49,5.84,5.84,0,0,1-4.06,1.6,5.82,5.82,0,0,1-5.81-6.08Zm8.7.19q-.08-3.18-2.9-3.24t-2.88,3.24v9q.06,3.21,2.88,3.24T66,135.6Z" class="cls-5"/>
            <path d="M4.68,180.43l-2.91,2.2v-3.23l2.91-2.18H7.6v21.15H4.68Z" class="cls-5"/>
            <path d="M18.11,186.16h1a3.1,3.1,0,0,0,2.34-.86,2.92,2.92,0,0,0,.83-2.16,3.14,3.14,0,0,0-.86-2.2,3,3,0,0,0-2.14-.86,2.66,2.66,0,0,0-1.72.63,3.18,3.18,0,0,0-1.1,1.94H13.54a6.26,6.26,0,0,1,1.84-4,5.27,5.27,0,0,1,3.79-1.62,5.78,5.78,0,0,1,4.44,1.84,6.19,6.19,0,0,1,1.6,4.18,6.49,6.49,0,0,1-.44,2.35,4.92,4.92,0,0,1-1.81,2,5.27,5.27,0,0,1,1.93,2.09,6,6,0,0,1,.57,2.55,6.33,6.33,0,0,1-1.78,4.68,6,6,0,0,1-4.44,1.78,5.51,5.51,0,0,1-3.71-1.39,6.67,6.67,0,0,1-2.09-4h2.94a4.29,4.29,0,0,0,1.11,1.71,2.73,2.73,0,0,0,1.94.68,2.91,2.91,0,0,0,2.18-.92,3.3,3.3,0,0,0,.93-2.44,3.44,3.44,0,0,0-.93-2.5,3.1,3.1,0,0,0-2.25-.86H18.11Z" class="cls-5"/>
            <path d="M33.28,182.81h2.79v2.87H33.28Zm0,6.43h2.79v2.87H33.28Z" class="cls-5"/>
            <path d="M42.24,183.13a5.77,5.77,0,0,1,1.81-4.5,5.65,5.65,0,0,1,4-1.56,5.73,5.73,0,0,1,4.06,1.57,6,6,0,0,1,1.76,4.51v9.32A6,6,0,0,1,52.11,197a5.84,5.84,0,0,1-4.06,1.6,5.82,5.82,0,0,1-5.81-6.08Zm8.7.19q-.08-3.18-2.9-3.24t-2.88,3.24v9q.06,3.21,2.88,3.24t2.9-3.24Z" class="cls-5"/>
            <path d="M57.85,183.13a5.77,5.77,0,0,1,1.81-4.5,5.65,5.65,0,0,1,4-1.56,5.73,5.73,0,0,1,4.06,1.57,6,6,0,0,1,1.76,4.51v9.32A6,6,0,0,1,67.72,197a5.84,5.84,0,0,1-4.06,1.6,5.82,5.82,0,0,1-5.81-6.08Zm8.7.19q-.08-3.18-2.9-3.24t-2.88,3.24v9q.06,3.21,2.88,3.24t2.9-3.24Z" class="cls-5"/>
            <path d="M4.68,237.13l-2.91,2.2V236.1l2.91-2.18H7.6v21.15H4.68Z" class="cls-5"/>
            <path d="M13.42,249.08l6.84-15.15h3.26l-6.92,15.15H22V243h2.92v6.09h1.64v2.84H24.89v3.15H22v-3.14H13.42Z" class="cls-5"/>
            <path d="M33.28,239.5h2.79v2.87H33.28Zm0,6.43h2.79v2.87H33.28Z" class="cls-5"/>
            <path d="M42.24,239.82a5.77,5.77,0,0,1,1.81-4.5,5.65,5.65,0,0,1,4-1.56,5.73,5.73,0,0,1,4.06,1.57,6,6,0,0,1,1.76,4.51v9.32a6,6,0,0,1-1.76,4.49,5.84,5.84,0,0,1-4.06,1.6,5.82,5.82,0,0,1-5.81-6.08Zm8.7.19q-.08-3.18-2.9-3.24T45.17,240v9q.06,3.21,2.88,3.24t2.9-3.24Z" class="cls-5"/>
            <path d="M57.85,239.82a5.77,5.77,0,0,1,1.81-4.5,5.65,5.65,0,0,1,4-1.56,5.73,5.73,0,0,1,4.06,1.57,6,6,0,0,1,1.76,4.51v9.32a6,6,0,0,1-1.76,4.49,5.84,5.84,0,0,1-4.06,1.6,5.82,5.82,0,0,1-5.81-6.08Zm8.7.19q-.08-3.18-2.9-3.24T60.77,240v9q.06,3.21,2.88,3.24t2.9-3.24Z" class="cls-5"/>
            <path d="M4.68,293.82,1.77,296V292.8l2.91-2.18H7.6v21.15H4.68Z" class="cls-5"/>
            <path d="M14.51,290.62H25.43v3H17.27v4.81a5.08,5.08,0,0,1,3.28-1.16,6,6,0,0,1,2.17.43,4.74,4.74,0,0,1,1.51,1.1,5.13,5.13,0,0,1,1.23,2,7.46,7.46,0,0,1,.28,1.52q.08.91.08,2.25a13.55,13.55,0,0,1-.28,3.16,5.12,5.12,0,0,1-1,1.93,5.78,5.78,0,0,1-1.76,1.5,5.09,5.09,0,0,1-2.67.74,6.27,6.27,0,0,1-3.81-1.27,6,6,0,0,1-2.18-4.21h2.94A2.75,2.75,0,0,0,20,308.92a2.93,2.93,0,0,0,1.69-.44,2.2,2.2,0,0,0,.84-1.1,5.31,5.31,0,0,0,.31-1.48q0-.79,0-1.53a6.26,6.26,0,0,0-.55-2.95,2.23,2.23,0,0,0-.92-.86,3.83,3.83,0,0,0-1.51-.26,2.91,2.91,0,0,0-1.47.38,3.39,3.39,0,0,0-1.19,1.37H14.51Z" class="cls-5"/>
            <path d="M33.28,296.2h2.79v2.87H33.28Zm0,6.43h2.79v2.87H33.28Z" class="cls-5"/>
            <path d="M42.24,296.52a5.77,5.77,0,0,1,1.81-4.5,5.65,5.65,0,0,1,4-1.56A5.73,5.73,0,0,1,52.11,292a6,6,0,0,1,1.76,4.51v9.32a6,6,0,0,1-1.76,4.49,5.84,5.84,0,0,1-4.06,1.6,5.82,5.82,0,0,1-5.81-6.08Zm8.7.19q-.08-3.18-2.9-3.24t-2.88,3.24v9q.06,3.21,2.88,3.24t2.9-3.24Z" class="cls-5"/>
            <path d="M57.85,296.52a5.77,5.77,0,0,1,1.81-4.5,5.65,5.65,0,0,1,4-1.56A5.73,5.73,0,0,1,67.72,292a6,6,0,0,1,1.76,4.51v9.32a6,6,0,0,1-1.76,4.49,5.84,5.84,0,0,1-4.06,1.6,5.82,5.82,0,0,1-5.81-6.08Zm8.7.19q-.08-3.18-2.9-3.24t-2.88,3.24v9q.06,3.21,2.88,3.24t2.9-3.24Z" class="cls-5"/>
            <path d="M4.68,350.51l-2.91,2.2v-3.23l2.91-2.18H7.6v21.15H4.68Z" class="cls-5"/>
            <path d="M14.17,353.22A5.79,5.79,0,0,1,16,348.71a5.64,5.64,0,0,1,4-1.57,6,6,0,0,1,3.7,1.22,5.71,5.71,0,0,1,2,3.58h-3A2.68,2.68,0,0,0,20,350.16q-2.82.06-2.87,3.25v2a12.09,12.09,0,0,1,3.91-.65,4.71,4.71,0,0,1,3.44,1.39,6.14,6.14,0,0,1,1.35,4.48v1.93A6,6,0,0,1,24,367,5.84,5.84,0,0,1,20,368.63a5.82,5.82,0,0,1-5.81-6.08Zm2.92,9.16q.06,3.21,2.88,3.24t2.9-3.24v-1.73q-.08-3.18-2.9-3.24t-2.88,3.24Z" class="cls-5"/>
            <path d="M33.28,352.89h2.79v2.87H33.28Zm0,6.43h2.79v2.87H33.28Z" class="cls-5"/>
            <path d="M42.24,353.21a5.77,5.77,0,0,1,1.81-4.5,5.64,5.64,0,0,1,4-1.56,5.73,5.73,0,0,1,4.06,1.57,6,6,0,0,1,1.76,4.51v9.32a6,6,0,0,1-1.76,4.5A5.84,5.84,0,0,1,48,368.63a5.82,5.82,0,0,1-5.81-6.08Zm8.7.19q-.08-3.18-2.9-3.24t-2.88,3.24v9q.06,3.21,2.88,3.24t2.9-3.24Z" class="cls-5"/>
            <path d="M57.85,353.21a5.77,5.77,0,0,1,1.81-4.5,5.64,5.64,0,0,1,4-1.56,5.73,5.73,0,0,1,4.06,1.57,6,6,0,0,1,1.76,4.51v9.32a6,6,0,0,1-1.76,4.5,5.84,5.84,0,0,1-4.06,1.59,5.82,5.82,0,0,1-5.81-6.08Zm8.7.19q-.08-3.18-2.9-3.24t-2.88,3.24v9q.06,3.21,2.88,3.24t2.9-3.24Z" class="cls-5"/>
            <path d="M4.68,407.2l-2.91,2.2v-3.23L4.68,404H7.6v21.15H4.68Z" class="cls-5"/>
            <path d="M14.54,404H26.18v3l-6.93,18.13H16L22.89,407H17.46v3.07H14.54Z" class="cls-5"/>
            <path d="M33.28,409.58h2.79v2.87H33.28Zm0,6.43h2.79v2.87H33.28Z" class="cls-5"/>
            <path d="M42.24,409.9a5.77,5.77,0,0,1,1.81-4.5,5.65,5.65,0,0,1,4-1.56,5.73,5.73,0,0,1,4.06,1.57,6,6,0,0,1,1.76,4.51v9.32a6,6,0,0,1-1.76,4.49,5.84,5.84,0,0,1-4.06,1.6,5.82,5.82,0,0,1-5.81-6.08Zm8.7.19q-.08-3.18-2.9-3.24t-2.88,3.24v9q.06,3.21,2.88,3.24t2.9-3.24Z" class="cls-5"/>
            <path d="M57.85,409.9a5.77,5.77,0,0,1,1.81-4.5,5.65,5.65,0,0,1,4-1.56,5.73,5.73,0,0,1,4.06,1.57,6,6,0,0,1,1.76,4.51v9.32a6,6,0,0,1-1.76,4.49,5.84,5.84,0,0,1-4.06,1.6,5.82,5.82,0,0,1-5.81-6.08Zm8.7.19q-.08-3.18-2.9-3.24t-2.88,3.24v9q.06,3.21,2.88,3.24t2.9-3.24Z" class="cls-5"/>
            <path d="M4.68,463.9l-2.91,2.2v-3.23l2.91-2.18H7.6v21.15H4.68Z" class="cls-5"/>
            <path d="M13.71,475.67a5.52,5.52,0,0,1,2.5-4.76,6.19,6.19,0,0,1-1.48-1.9,4.4,4.4,0,0,1-.62-2.38,6.06,6.06,0,0,1,1.73-4.37A5.51,5.51,0,0,1,20,460.53a5.65,5.65,0,0,1,4.21,1.74,6.17,6.17,0,0,1,1.67,4.36,4.76,4.76,0,0,1-.57,2.38,7.06,7.06,0,0,1-1.54,1.9,5.51,5.51,0,0,1,2.5,4.76,6.11,6.11,0,0,1-1.82,4.57A6.29,6.29,0,0,1,20,482a6.08,6.08,0,0,1-4.39-1.78A6,6,0,0,1,13.71,475.67Zm2.93,0a3.21,3.21,0,0,0,1,2.38A3.11,3.11,0,0,0,20,479a3.16,3.16,0,0,0,2.36-1,3.26,3.26,0,0,0,1-2.38,3.29,3.29,0,0,0-1-2.41,3.37,3.37,0,0,0-2.36-.95,3.32,3.32,0,0,0-2.31.95A3.24,3.24,0,0,0,16.63,475.64Zm.4-9.07a2.94,2.94,0,0,0,2.94,3,2.9,2.9,0,0,0,3-3,3,3,0,0,0-.89-2.29,3.09,3.09,0,0,0-2.06-.74,3,3,0,0,0-2,.74A3,3,0,0,0,17,466.58Z" class="cls-5"/>
            <path d="M33.28,466.28h2.79v2.87H33.28Zm0,6.43h2.79v2.87H33.28Z" class="cls-5"/>
            <path d="M42.24,466.6a5.77,5.77,0,0,1,1.81-4.5,5.65,5.65,0,0,1,4-1.56,5.73,5.73,0,0,1,4.06,1.57,6,6,0,0,1,1.76,4.51v9.32a6,6,0,0,1-1.76,4.49A5.84,5.84,0,0,1,48,482a5.82,5.82,0,0,1-5.81-6.08Zm8.7.19q-.08-3.18-2.9-3.24t-2.88,3.24v9Q45.22,479,48,479t2.9-3.24Z" class="cls-5"/>
            <path d="M57.85,466.6a5.77,5.77,0,0,1,1.81-4.5,5.65,5.65,0,0,1,4-1.56,5.73,5.73,0,0,1,4.06,1.57,6,6,0,0,1,1.76,4.51v9.32a6,6,0,0,1-1.76,4.49,5.84,5.84,0,0,1-4.06,1.6,5.82,5.82,0,0,1-5.81-6.08Zm8.7.19q-.08-3.18-2.9-3.24t-2.88,3.24v9q.06,3.21,2.88,3.24t2.9-3.24Z" class="cls-5"/>
            <path d="M4.68,520.59l-2.91,2.21v-3.23l2.91-2.18H7.6v21.15H4.68Z" class="cls-5"/>
            <path d="M14.17,523.29A5.78,5.78,0,0,1,16,518.78a5.64,5.64,0,0,1,4-1.56A5.72,5.72,0,0,1,24,518.79a6,6,0,0,1,1.76,4.51v9.32a6,6,0,0,1-1.76,4.5,5.89,5.89,0,0,1-7.69.32,5.61,5.61,0,0,1-2.07-3.52h3A2.62,2.62,0,0,0,20,535.69q2.8,0,2.89-3.24v-2a12.09,12.09,0,0,1-3.91.65,4.48,4.48,0,0,1-3.41-1.42,6,6,0,0,1-1.38-4.45Zm2.92,1.92q.06,3.21,2.88,3.24t2.9-3.24v-1.73q-.08-3.18-2.9-3.24t-2.88,3.24Z" class="cls-5"/>
            <path d="M33.28,523h2.79v2.87H33.28Zm0,6.43h2.79v2.87H33.28Z" class="cls-5"/>
            <path d="M42.24,523.29a5.77,5.77,0,0,1,1.81-4.5,5.64,5.64,0,0,1,4-1.56,5.72,5.72,0,0,1,4.06,1.57,6,6,0,0,1,1.76,4.51v9.32a6,6,0,0,1-1.76,4.5A5.84,5.84,0,0,1,48,538.71a5.82,5.82,0,0,1-5.81-6.08Zm8.7.19q-.08-3.18-2.9-3.24t-2.88,3.24v9q.06,3.21,2.88,3.24t2.9-3.24Z" class="cls-5"/>
            <path d="M57.85,523.29a5.77,5.77,0,0,1,1.81-4.5,5.64,5.64,0,0,1,4-1.56,5.72,5.72,0,0,1,4.06,1.57,6,6,0,0,1,1.76,4.51v9.32a6,6,0,0,1-1.76,4.5,5.84,5.84,0,0,1-4.06,1.59,5.82,5.82,0,0,1-5.81-6.08Zm8.7.19q-.08-3.18-2.9-3.24t-2.88,3.24v9q.06,3.21,2.88,3.24t2.9-3.24Z" class="cls-5"/>
            <path d="M0,592.39,8,582a4,4,0,0,0,.63-1.16,4.46,4.46,0,0,0,.11-1A3.2,3.2,0,0,0,8,577.85a2.7,2.7,0,0,0-2.12-.92,2.75,2.75,0,0,0-2,.8,3.52,3.52,0,0,0-1,2.25H0a6.58,6.58,0,0,1,1.72-4.36,5.41,5.41,0,0,1,4-1.71A5.78,5.78,0,0,1,10,575.66a6.25,6.25,0,0,1,.46,8l-6.6,8.53h7.84v3H0Z" class="cls-5"/>
            <path d="M15.25,580a5.77,5.77,0,0,1,1.81-4.5,5.64,5.64,0,0,1,4-1.56,5.73,5.73,0,0,1,4.06,1.57A6,6,0,0,1,26.88,580v9.32a6,6,0,0,1-1.76,4.5,5.84,5.84,0,0,1-4.06,1.59,5.82,5.82,0,0,1-5.81-6.08Zm8.7.19q-.08-3.18-2.9-3.24t-2.88,3.24v9q.06,3.21,2.88,3.24t2.9-3.24Z" class="cls-5"/>
            <path d="M33.28,579.66h2.79v2.87H33.28Zm0,6.43h2.79V589H33.28Z" class="cls-5"/>
            <path d="M42.24,580a5.77,5.77,0,0,1,1.81-4.5,5.64,5.64,0,0,1,4-1.56,5.73,5.73,0,0,1,4.06,1.57A6,6,0,0,1,53.87,580v9.32a6,6,0,0,1-1.76,4.5A5.84,5.84,0,0,1,48,595.4a5.82,5.82,0,0,1-5.81-6.08Zm8.7.19q-.08-3.18-2.9-3.24t-2.88,3.24v9q.06,3.21,2.88,3.24t2.9-3.24Z" class="cls-5"/>
            <path d="M57.85,580a5.77,5.77,0,0,1,1.81-4.5,5.64,5.64,0,0,1,4-1.56,5.73,5.73,0,0,1,4.06,1.57A6,6,0,0,1,69.47,580v9.32a6,6,0,0,1-1.76,4.5,5.84,5.84,0,0,1-4.06,1.59,5.82,5.82,0,0,1-5.81-6.08Zm8.7.19q-.08-3.18-2.9-3.24t-2.88,3.24v9q.06,3.21,2.88,3.24t2.9-3.24Z" class="cls-5"/>
            <path d="M0,649.08l8-10.34a4,4,0,0,0,.63-1.16,4.45,4.45,0,0,0,.11-1A3.2,3.2,0,0,0,8,634.54a2.7,2.7,0,0,0-2.12-.92,2.75,2.75,0,0,0-2,.8,3.52,3.52,0,0,0-1,2.25H0a6.58,6.58,0,0,1,1.72-4.36,5.41,5.41,0,0,1,4-1.71A5.78,5.78,0,0,1,10,632.35a6.26,6.26,0,0,1,.46,8l-6.6,8.53h7.84v3H0Z" class="cls-5"/>
            <path d="M20.29,634l-2.91,2.2V633l2.91-2.18h2.92v21.15H20.29Z" class="cls-5"/>
            <path d="M32.2,636.35H35v2.87H32.2Zm0,6.43H35v2.87H32.2Z" class="cls-5"/>
            <path d="M41.16,636.67a5.77,5.77,0,0,1,1.81-4.5,5.64,5.64,0,0,1,4-1.56A5.73,5.73,0,0,1,51,632.17a6,6,0,0,1,1.76,4.51V646A6,6,0,0,1,51,650.5,5.84,5.84,0,0,1,47,652.1,5.82,5.82,0,0,1,41.16,646Zm8.7.19q-.08-3.18-2.9-3.24t-2.88,3.24v9q.06,3.21,2.88,3.24t2.9-3.24Z" class="cls-5"/>
            <path d="M56.77,636.67a5.77,5.77,0,0,1,1.81-4.5,5.64,5.64,0,0,1,4-1.56,5.73,5.73,0,0,1,4.06,1.57,6,6,0,0,1,1.76,4.51V646a6,6,0,0,1-1.76,4.49,5.84,5.84,0,0,1-4.06,1.6A5.82,5.82,0,0,1,56.77,646Zm8.7.19q-.08-3.18-2.9-3.24t-2.88,3.24v9q.06,3.21,2.88,3.24t2.9-3.24Z" class="cls-5"/>
            <path d="M0,705.77l8-10.34a4,4,0,0,0,.63-1.16,4.46,4.46,0,0,0,.11-1A3.2,3.2,0,0,0,8,691.23a2.7,2.7,0,0,0-2.12-.92,2.75,2.75,0,0,0-2,.8,3.52,3.52,0,0,0-1,2.25H0A6.58,6.58,0,0,1,1.72,689a5.41,5.41,0,0,1,4-1.71A5.78,5.78,0,0,1,10,689a6.25,6.25,0,0,1,.46,8l-6.6,8.53h7.84v3H0Z" class="cls-5"/>
            <path d="M15.07,705.77l8-10.34a4,4,0,0,0,.63-1.16,4.46,4.46,0,0,0,.11-1,3.2,3.2,0,0,0-.72-2.08,2.7,2.7,0,0,0-2.12-.92,2.75,2.75,0,0,0-2,.8,3.52,3.52,0,0,0-1,2.25H15.07A6.58,6.58,0,0,1,16.78,689a5.41,5.41,0,0,1,4-1.71A5.78,5.78,0,0,1,25.05,689a6.25,6.25,0,0,1,.46,8l-6.6,8.53h7.84v3H15.07Z" class="cls-5"/>
            <path d="M33.28,693h2.79v2.87H33.28Zm0,6.43h2.79v2.87H33.28Z" class="cls-5"/>
            <path d="M42.24,693.37a5.77,5.77,0,0,1,1.81-4.5,5.64,5.64,0,0,1,4-1.56,5.73,5.73,0,0,1,4.06,1.57,6,6,0,0,1,1.76,4.51v9.32a6,6,0,0,1-1.76,4.5A5.84,5.84,0,0,1,48,708.79a5.82,5.82,0,0,1-5.81-6.08Zm8.7.19q-.08-3.18-2.9-3.24t-2.88,3.24v9q.06,3.21,2.88,3.24t2.9-3.24Z" class="cls-5"/>
            <path d="M57.85,693.37a5.77,5.77,0,0,1,1.81-4.5,5.64,5.64,0,0,1,4-1.56,5.73,5.73,0,0,1,4.06,1.57,6,6,0,0,1,1.76,4.51v9.32a6,6,0,0,1-1.76,4.5,5.84,5.84,0,0,1-4.06,1.59,5.82,5.82,0,0,1-5.81-6.08Zm8.7.19q-.08-3.18-2.9-3.24t-2.88,3.24v9q.06,3.21,2.88,3.24t2.9-3.24Z" class="cls-5"/>
            <path d="M0,762.47l8-10.34A4,4,0,0,0,8.65,751a4.46,4.46,0,0,0,.11-1A3.2,3.2,0,0,0,8,747.93,2.7,2.7,0,0,0,5.93,747a2.75,2.75,0,0,0-2,.8,3.52,3.52,0,0,0-1,2.25H0a6.58,6.58,0,0,1,1.72-4.36,5.41,5.41,0,0,1,4-1.71A5.78,5.78,0,0,1,10,745.73a6.25,6.25,0,0,1,.46,8l-6.6,8.53h7.84v3H0Z" class="cls-5"/>
            <path d="M19.73,753.09h1a3.1,3.1,0,0,0,2.34-.86,2.92,2.92,0,0,0,.83-2.16,3.14,3.14,0,0,0-.86-2.2,3,3,0,0,0-2.14-.86,2.66,2.66,0,0,0-1.72.63,3.18,3.18,0,0,0-1.1,1.94H15.16a6.25,6.25,0,0,1,1.84-4A5.27,5.27,0,0,1,20.8,744a5.78,5.78,0,0,1,4.44,1.84,6.19,6.19,0,0,1,1.6,4.18,6.49,6.49,0,0,1-.44,2.35,4.92,4.92,0,0,1-1.81,2,5.27,5.27,0,0,1,1.93,2.09,6,6,0,0,1,.57,2.55,6.33,6.33,0,0,1-1.78,4.68,6,6,0,0,1-4.44,1.78,5.51,5.51,0,0,1-3.71-1.39,6.67,6.67,0,0,1-2.09-4H18a4.3,4.3,0,0,0,1.11,1.71,2.73,2.73,0,0,0,1.94.68,2.91,2.91,0,0,0,2.18-.92,3.3,3.3,0,0,0,.93-2.44,3.44,3.44,0,0,0-.93-2.5,3.1,3.1,0,0,0-2.25-.86H19.73Z" class="cls-5"/>
            <path d="M33.82,749.74h2.79v2.87H33.82Zm0,6.43h2.79V759H33.82Z" class="cls-5"/>
            <path d="M42.78,750.06a5.77,5.77,0,0,1,1.81-4.5,5.64,5.64,0,0,1,4-1.56,5.73,5.73,0,0,1,4.06,1.57,6,6,0,0,1,1.76,4.51v9.32a6,6,0,0,1-1.76,4.5,5.84,5.84,0,0,1-4.06,1.59,5.82,5.82,0,0,1-5.81-6.08Zm8.7.19q-.08-3.18-2.9-3.24t-2.88,3.24v9q.06,3.21,2.88,3.24t2.9-3.24Z" class="cls-5"/>
            <path d="M58.39,750.06a5.77,5.77,0,0,1,1.81-4.5,5.64,5.64,0,0,1,4-1.56,5.73,5.73,0,0,1,4.06,1.57A6,6,0,0,1,70,750.07v9.32a6,6,0,0,1-1.76,4.5,5.84,5.84,0,0,1-4.06,1.59,5.82,5.82,0,0,1-5.81-6.08Zm8.7.19q-.08-3.18-2.9-3.24t-2.88,3.24v9q.06,3.21,2.88,3.24t2.9-3.24Z" class="cls-5"/>
            <path d="M0,819.16l8-10.34a4,4,0,0,0,.63-1.16,4.46,4.46,0,0,0,.11-1A3.2,3.2,0,0,0,8,804.62a2.7,2.7,0,0,0-2.12-.92,2.75,2.75,0,0,0-2,.8,3.52,3.52,0,0,0-1,2.25H0a6.58,6.58,0,0,1,1.72-4.36,5.41,5.41,0,0,1,4-1.71A5.78,5.78,0,0,1,10,802.43a6.26,6.26,0,0,1,.46,8L3.86,819h7.84v3H0Z" class="cls-5"/>
            <path d="M15,816l6.84-15.15h3.26L18.23,816h5.35v-6.09h2.92V816h1.64v2.84H26.51V822H23.58v-3.14H15Z" class="cls-5"/>
            <path d="M33.82,806.43h2.79v2.87H33.82Zm0,6.43h2.79v2.87H33.82Z" class="cls-5"/>
            <path d="M42.78,806.75a5.77,5.77,0,0,1,1.81-4.5,5.65,5.65,0,0,1,4-1.56,5.73,5.73,0,0,1,4.06,1.57,6,6,0,0,1,1.76,4.51v9.32a6,6,0,0,1-1.76,4.49,5.84,5.84,0,0,1-4.06,1.6,5.82,5.82,0,0,1-5.81-6.08Zm8.7.19q-.08-3.18-2.9-3.24t-2.88,3.24v9q.06,3.21,2.88,3.24t2.9-3.24Z" class="cls-5"/>
            <path d="M58.39,806.75a5.77,5.77,0,0,1,1.81-4.5,5.65,5.65,0,0,1,4-1.56,5.73,5.73,0,0,1,4.06,1.57A6,6,0,0,1,70,806.76v9.32a6,6,0,0,1-1.76,4.49,5.84,5.84,0,0,1-4.06,1.6,5.82,5.82,0,0,1-5.81-6.08Zm8.7.19q-.08-3.18-2.9-3.24t-2.88,3.24v9q.06,3.21,2.88,3.24t2.9-3.24Z" class="cls-5"/>
            <path d="M208.62,160a11.5,11.5,0,0,0,1-3.4,22.59,22.59,0,0,1,2.85,1.17.39.39,0,0,1,.28.37.68.68,0,0,1-.23.46,4.41,4.41,0,0,0-.8,1.4,25.33,25.33,0,0,1-4.92,7.73.87.87,0,0,1-.64.34.77.77,0,0,1-.53-.23,6.4,6.4,0,0,0-2-1A20.38,20.38,0,0,0,208.62,160Zm8.6-3.13a.55.55,0,0,1,.32-.14.47.47,0,0,1,.35.18,28.9,28.9,0,0,1,5.77,8.44.57.57,0,0,1,.09.32.44.44,0,0,1-.23.37,13.91,13.91,0,0,1-1.91,1.22c-.3.14-.46.09-.55-.21a30.06,30.06,0,0,0-5.68-8.95C216.21,157.55,216.83,157.11,217.22,156.86Zm2.69-2.76c.12-.09.21-.07.34,0a10.59,10.59,0,0,1,2.19,2.46.23.23,0,0,1-.07.37l-1,.71a.24.24,0,0,1-.39-.07,11.45,11.45,0,0,0-2.32-2.67Zm2-1.5c.14-.09.21-.07.35,0a9.62,9.62,0,0,1,2.18,2.37.27.27,0,0,1-.07.41l-.92.71a.24.24,0,0,1-.39-.07,10.91,10.91,0,0,0-2.3-2.64Z" class="cls-3"/>
            <path d="M243.33,154.54a3.37,3.37,0,0,0,1.59-.21.39.39,0,0,1,.25-.09.75.75,0,0,1,.39.18,8.37,8.37,0,0,1,1.5,1.61.61.61,0,0,1,.12.3.63.63,0,0,1-.3.46,4.24,4.24,0,0,0-.85,1,36.35,36.35,0,0,1-2.94,4.3,54,54,0,0,1,6.37,5.57.52.52,0,0,1,.18.32.57.57,0,0,1-.16.35,12.28,12.28,0,0,1-1.54,1.56.4.4,0,0,1-.28.14.47.47,0,0,1-.32-.18,41.88,41.88,0,0,0-6-5.7,33.1,33.1,0,0,1-7.73,6.07,1.46,1.46,0,0,1-.53.18.51.51,0,0,1-.39-.21,6.29,6.29,0,0,0-1.93-1.5,27.92,27.92,0,0,0,8.1-5.86,28.23,28.23,0,0,0,4.32-5.77l-5.93,0c-1.2,0-2.39,0-3.63.14-.18,0-.25-.14-.3-.39a13.39,13.39,0,0,1-.21-2.39c1.24.09,2.39.09,3.89.09Z" class="cls-3"/>
            <path d="M260.71,155c-.48.14-1,.25-1.52.37-.71.14-.71.14-1-.58a6.66,6.66,0,0,0-.78-1.29A22,22,0,0,0,263,152a5,5,0,0,0,1-.55,10,10,0,0,1,1.38,1.43.6.6,0,0,1,.21.41c0,.16-.18.28-.41.28a1.88,1.88,0,0,0-.74.21c-.51.18-1,.37-1.47.53v3.29c1.59,0,2.12,0,2.25,0s.25,0,.25.25v1.61c0,.23,0,.25-.25.25l-2,0a12.06,12.06,0,0,0,2.39,3.59,6.46,6.46,0,0,0-.9,1.47c-.12.25-.18.37-.3.37s-.18-.12-.32-.34a15.49,15.49,0,0,1-1.22-2.62c0,5.66.16,9.59.16,10,0,.23,0,.25-.28.25h-1.82c-.25,0-.28,0-.28-.25,0-.39.14-4.3.18-9.43a17.07,17.07,0,0,1-2.42,4.9c-.16.25-.28.39-.39.39s-.21-.14-.32-.39a7.58,7.58,0,0,0-.94-1.59,16.88,16.88,0,0,0,3.59-6.33h-.48c-1.68,0-2.23,0-2.37,0s-.25,0-.25-.25v-1.61c0-.23,0-.25.25-.25s.69,0,2.37,0h.85Zm10.56,8.72a18.42,18.42,0,0,1-4.25,3.22,1.14,1.14,0,0,1-.53.23c-.16,0-.23-.14-.41-.39a5.08,5.08,0,0,0-1.17-1.24,16,16,0,0,0,6.19-4.67,3.7,3.7,0,0,0,.28-.44,22.73,22.73,0,0,1-4.74,2.21,2,2,0,0,1-.48.11c-.21,0-.28-.16-.48-.6a4.82,4.82,0,0,0-.92-1.29,20.48,20.48,0,0,0,5-1.84,13,13,0,0,0-1.52-1.26c-.18-.12-.18-.18,0-.41l.92-.9c.21-.21.23-.18.46,0a11.21,11.21,0,0,1,1.84,1.45A11.92,11.92,0,0,0,274,155h-4a17.25,17.25,0,0,1-3.27,2.64c-.28.18-.41.28-.53.28s-.25-.16-.46-.48a4,4,0,0,0-1.06-1.1,13.41,13.41,0,0,0,4.85-4,4,4,0,0,0,.58-1.13c.67.14,1.54.3,2.12.48.21.07.32.21.32.35s-.14.25-.25.32-.37.28-.78.87h3.06a1.35,1.35,0,0,0,.58-.07.55.55,0,0,1,.28-.07c.18,0,.37.09.94.69s.64.69.64.9-.09.28-.25.39a2.54,2.54,0,0,0-.71.76,16.49,16.49,0,0,1-3.82,4c.57.09,1.1.21,1.54.32a.38.38,0,0,1,.3.35.38.38,0,0,1-.23.32c-.21.11-.37.28-.74.8l-.18.23h2.76a1.47,1.47,0,0,0,.62-.09.71.71,0,0,1,.3-.07c.16,0,.37.14,1,.76.41.44.62.69.62.87s-.07.28-.25.39a2.33,2.33,0,0,0-.71.85c-2.28,3.84-5.63,6.28-11.2,7.61-.69.16-.71.18-1-.51a5.13,5.13,0,0,0-.87-1.26A19.72,19.72,0,0,0,270.9,168a14.13,14.13,0,0,0-1.72-1.45c-.21-.14-.21-.18,0-.41l1-.9c.23-.18.28-.16.46-.07a11.3,11.3,0,0,1,2,1.59,12.31,12.31,0,0,0,2.55-3.1Z" class="cls-3"/>
            <path d="M291.7,168.66c1.24-.14,2.55-.32,3.91-.55a9.33,9.33,0,0,0-.21,1.06l-.07.41a13,13,0,0,0,2.62-5.15,31.58,31.58,0,0,0,.76-5.87l-2,0c-.25,0-.28,0-.28-.25v-1.68c0-.23,0-.25.28-.25s.64,0,2.07,0c0-.6,0-1.2,0-1.84a22.79,22.79,0,0,0-.16-3.24c.83,0,1.5.07,2.3.16.23,0,.34.11.34.25a1.76,1.76,0,0,1-.14.55,9.93,9.93,0,0,0-.14,2.35c0,.62,0,1.2,0,1.77h1.31c1.77,0,2.37,0,2.51,0s.28,0,.28.28c0,.78,0,1.45,0,2.19a70.28,70.28,0,0,1-.67,10.53,2.62,2.62,0,0,1-2.92,2.53c-.48,0-.87,0-1.26,0s-.53,0-.6-.8a5.28,5.28,0,0,0-.46-1.54,12.3,12.3,0,0,0,1.91.18c.69,0,1.08-.37,1.24-1.45a65.39,65.39,0,0,0,.58-9.73h-1.93a40.43,40.43,0,0,1-.85,6.6,14.64,14.64,0,0,1-3.4,6.56c-.23.23-.37.34-.48.34s-.23-.12-.44-.32a4.27,4.27,0,0,0-1.47-1.1c.25-.23.51-.46.74-.71a1.83,1.83,0,0,1-.44.09c-2.44.48-5.43.92-8,1.2a3.74,3.74,0,0,0-.85.16.89.89,0,0,1-.39.14c-.14,0-.25-.14-.32-.39-.14-.6-.28-1.33-.39-2a21,21,0,0,0,2.42,0c.8,0,1.68-.09,2.6-.18v-1.33h-1.36c-2,0-2.67,0-2.81,0s-.25,0-.25-.23V166c0-.23,0-.25.25-.25s.8,0,2.81,0h1.36v-1h-.92c-2,0-2.62,0-2.76,0s-.28,0-.28-.25,0-.69,0-1.91v-2.46c0-1.24,0-1.77,0-1.89s0-.25.28-.25.8,0,2.76,0h.92v-1h-1.7c-2.07,0-2.78,0-2.92,0s-.25,0-.25-.25v-1.36c0-.23,0-.25.25-.25s.85,0,2.92,0h1.7v-1c-1,.09-2,.18-3,.23-.64,0-.67,0-.85-.51a4.61,4.61,0,0,0-.71-1.24,44,44,0,0,0,8.14-.87,8.3,8.3,0,0,0,1.26-.39,10,10,0,0,1,1.31,1.26.56.56,0,0,1,.18.41c0,.14-.18.23-.48.23a6.69,6.69,0,0,0-1,.16c-.92.18-1.84.34-2.78.46v1.29H293c2,0,2.76,0,2.9,0s.23,0,.23.25v1.36c0,.23,0,.25-.18.25s-.9,0-2.94,0H291.7v1h1c1.93,0,2.6,0,2.76,0s.25,0,.25.25,0,.64,0,1.89v2.46c0,1.22,0,1.77,0,1.91s0,.25-.25.25-.83,0-2.76,0h-1v1h.85c2,0,2.67,0,2.81,0s.25,0,.25.25v1.38c0,.21,0,.23-.25.23s-.83,0-2.81,0h-.85Zm-2.07-7.89v-1.2h-1.91v1.2Zm0,2.55V162.1h-1.91v1.22Zm2.07-3.75v1.2h2v-1.2Zm2,2.53h-2v1.22h2Z" class="cls-3"/>
            <path d="M319.25,161.78a2.3,2.3,0,1,1-2.3-2.3A2.31,2.31,0,0,1,319.25,161.78Z" class="cls-3"/>
            <path d="M347.17,156c0,1.08,0,1.5,0,1.63s0,.25-.25.25l-2.09,0a14.8,14.8,0,0,0,4.74,7.91,6.34,6.34,0,0,0-1.33,1.47c-.21.28-.3.41-.41.41s-.23-.11-.48-.37a17.63,17.63,0,0,1-3.36-5.34v3.79c0,1.45,0,2.07,0,2.21s0,.25-.25.25-.83,0-2.78,0h-4c-2,0-2.64,0-2.81,0s-.25,0-.25-.25,0-.76,0-2.21v-3.89c0-1.43,0-2,0-2.21s0-.25.25-.25.85,0,2.81,0h4c1,0,1.66,0,2.07,0-.16-.51-.3-1-.44-1.56h-9.08a18.2,18.2,0,0,1-3,10.12c-.21.28-.3.41-.41.41s-.23-.14-.46-.39a7.46,7.46,0,0,0-1.54-1.27c2.42-2.76,3.11-6.26,3.11-11.13,0-2.07,0-3,0-3.17s0-.25.25-.25,1,0,3.22,0h9.11c2.28,0,3.08,0,3.2,0s.25,0,.25.25,0,.55,0,1.66Zm-14.77,15.66c-2.12,0-2.85,0-3,0s-.28,0-.28-.25v-1.72c0-.23,0-.25.28-.25s.87,0,3,0h12.9c2.12,0,2.85,0,3,0s.28,0,.28.25v1.72c0,.23,0,.25-.28.25s-.87,0-3,0Zm12.4-17.5H333.6v1.77h11.2Zm-8.6,8.69h5.61v-1.66H336.2Zm5.61,1.7H336.2v1.75h5.61Z" class="cls-3"/>
            <path d="M359.78,160.89c0-1.13,0-1.93,0-2.44a25.05,25.05,0,0,1-2.39,1.06,2,2,0,0,1-.53.16c-.18,0-.25-.16-.44-.6a4.61,4.61,0,0,0-.92-1.5,19.69,19.69,0,0,0,8.79-5.31,5,5,0,0,0,.94-1.33,16.89,16.89,0,0,1,2.42.44c.21,0,.39.14.39.25s-.07.18-.23.28l-.07,0a21.79,21.79,0,0,0,9.75,5.29,5.42,5.42,0,0,0-.87,1.61c-.16.44-.23.6-.41.6a1.72,1.72,0,0,1-.55-.14,21.06,21.06,0,0,1-2.76-1.15c0,.34,0,.94,0,1.91v3c0,.71,0,1.22,0,1.59.67.39,1.22.74,1.75,1.1.16.12.28.23.28.37s-.14.25-.34.3a2.48,2.48,0,0,0-.74.41c-.78.58-1.54,1.15-2.67,1.86a26.94,26.94,0,0,0,5.68,1.43,6.28,6.28,0,0,0-.87,1.61c-.25.64-.28.69-1,.51-3.29-.8-5.8-1.79-7.77-3.52a7.33,7.33,0,0,0-.12,1c0,.76,0,.76-.74.9-2.81.58-5.54,1.08-7.66,1.4a3.19,3.19,0,0,0-.9.28.67.67,0,0,1-.39.14q-.17,0-.28-.34c-.16-.62-.32-1.47-.44-2.23,1,0,1.63-.09,2.46-.18l.64,0Zm5.43-3.31v-.18a11.58,11.58,0,0,0-.16-2.16c.85,0,1.5.07,2.32.16.23,0,.34.14.34.25a.73.73,0,0,1-.14.46,1.91,1.91,0,0,0-.14,1v.46h2c1.08,0,1.84,0,2.37,0a19.94,19.94,0,0,1-5.38-4.25,21.28,21.28,0,0,1-5.08,4.28Zm-3.06,1.77v1.29h8.42v-1.29Zm8.42,3h-8.42v1.4h8.42Zm-8.42,7c1.52-.23,3.08-.51,4.81-.85a12,12,0,0,1-2.3-2.94h-2.51Zm5-3.79a7.69,7.69,0,0,0,2,2.09,21.87,21.87,0,0,0,2.78-2.07c-.53,0-1.36,0-2.58,0Z" class="cls-3"/>
            <path d="M226.19,215.23a19.06,19.06,0,0,1-3.24,3.54A25.91,25.91,0,0,1,218.6,222a1,1,0,0,1-.53.21.48.48,0,0,1-.39-.23,5.19,5.19,0,0,0-1.89-1.36,27.14,27.14,0,0,0,5.36-3.63,22.12,22.12,0,0,0,3.38-3.57l-4,0c-1.2,0-2.48,0-3.68.12-.21,0-.3-.14-.32-.39a20.57,20.57,0,0,1-.18-2.23c1.38.09,2.74.12,4.12.12h5.47l-.09-2a11.53,11.53,0,0,0-.37-2.71,20.2,20.2,0,0,1,2.9.25c.23,0,.3.14.3.28a1.29,1.29,0,0,1-.09.34,6.53,6.53,0,0,0-.09,2.12l.07,1.75h2c1.61,0,2.76,0,4.46-.12.23,0,.34.12.34.28,0,.64,0,1.36,0,2a.29.29,0,0,1-.32.32c-1.68-.07-3-.12-4.42-.12h-1.86l.41,8.65a2.42,2.42,0,0,1-1.1,2.44,7,7,0,0,1-3.17.8c-.44,0-.6-.09-.71-.39a4.66,4.66,0,0,0-1.61-2,16.49,16.49,0,0,0,3.24-.23c.53-.12.71-.34.67-1.36Z" class="cls-3"/>
            <path d="M246.89,217.42a18.35,18.35,0,0,0-3.38.28c-.28,0-.46-.14-.53-.48a24.84,24.84,0,0,1-.34-2.78,29.61,29.61,0,0,0,5,.28H255c1.75,0,3.52,0,5.29-.07.34,0,.41,0,.41.32a17,17,0,0,1,0,2.16c0,.28-.09.37-.41.35-1.73,0-3.43,0-5.13,0Z" class="cls-3"/>
            <path d="M273,211.44c-1.5,0-2.81.07-3.79.12-.3,0-.39-.14-.44-.46s-.16-1.66-.21-2.32a40.18,40.18,0,0,0,4.42.16h8.21a2.19,2.19,0,0,0,1.26-.23.74.74,0,0,1,.39-.14.54.54,0,0,1,.39.16,8.5,8.5,0,0,1,1.56,1.59.79.79,0,0,1,.18.46.63.63,0,0,1-.23.44,2.77,2.77,0,0,0-.53.9,27.08,27.08,0,0,1-4.46,7.47,25.81,25.81,0,0,1-6.53,5.47,1.12,1.12,0,0,1-.62.21.81.81,0,0,1-.58-.25,6.84,6.84,0,0,0-2.14-1.27,22.23,22.23,0,0,0,7.52-5.75,19.36,19.36,0,0,0,3.89-6.55ZM288.91,207a2.48,2.48,0,0,1-5,0,2.43,2.43,0,0,1,2.48-2.46A2.45,2.45,0,0,1,288.91,207Zm-3.84,0a1.36,1.36,0,1,0,1.36-1.36A1.32,1.32,0,0,0,285.07,207Z" class="cls-3"/>
            <path d="M298.48,222.22c-1.49,0-3,0-4.14.12-.23,0-.3-.14-.34-.44-.09-.53-.14-1.31-.21-2.53,1.66.12,3.31.14,4.76.14h8.37c2.55,0,4.12-.07,5.17-.12.3,0,.37.12.37.41a14.56,14.56,0,0,1,0,2c0,.34,0,.48-.34.48-1.1,0-3.47-.07-5-.07Zm2.12-9.78c-1.45,0-2.46,0-3.52.09-.23,0-.3-.14-.32-.48a15.48,15.48,0,0,1-.14-2.44c1.45.12,2.53.14,3.91.14h4.55c1.77,0,3.15-.07,4.14-.12.18,0,.25.12.25.39a15.23,15.23,0,0,1,0,2c0,.32-.07.44-.3.44-1.08,0-2.55-.07-4-.07Z" class="cls-3"/>
            <path d="M321.57,208.4a.43.43,0,0,1,.32-.18.62.62,0,0,1,.3.11,24,24,0,0,1,4.39,3.27c.14.14.21.23.21.32a.5.5,0,0,1-.14.3c-.35.46-1.1,1.38-1.43,1.72-.11.12-.18.18-.28.18s-.18-.07-.3-.18a24.37,24.37,0,0,0-4.69-3.75C320.47,209.57,321.14,208.86,321.57,208.4Zm2,12.12a34.11,34.11,0,0,0,6.62-4.28,34.55,34.55,0,0,0,6.3-6.26,10.26,10.26,0,0,0,.64,2.69,1.12,1.12,0,0,1,.12.44c0,.21-.12.39-.37.69a37.57,37.57,0,0,1-5.29,4.88,49.44,49.44,0,0,1-6.95,4.51,8,8,0,0,0-1.54,1.06.64.64,0,0,1-.41.23.6.6,0,0,1-.39-.25,15.94,15.94,0,0,1-1.84-2.55A13.89,13.89,0,0,0,323.58,220.52Z" class="cls-3"/>
            <path d="M357.25,209.94a2.14,2.14,0,0,0,1.15-.28.47.47,0,0,1,.3-.09.66.66,0,0,1,.37.14,10.58,10.58,0,0,1,1.56,1.24.75.75,0,0,1,.3.53.67.67,0,0,1-.28.48,2.76,2.76,0,0,0-.76,1,31.71,31.71,0,0,1-4.55,7.11,29.2,29.2,0,0,1-7,5.73.62.62,0,0,1-.37.12.81.81,0,0,1-.53-.25,6.05,6.05,0,0,0-2.19-1.06,26.52,26.52,0,0,0,7.66-5.87,23.42,23.42,0,0,0,4.25-6.53l-5.57.16a32,32,0,0,1-4.35,4.71.71.71,0,0,1-.48.25.55.55,0,0,1-.35-.14,6.23,6.23,0,0,0-2.21-1,27.27,27.27,0,0,0,6.19-6.83,9.83,9.83,0,0,0,1.36-3.1,11.3,11.3,0,0,1,2.69,1.22.48.48,0,0,1,.23.39.46.46,0,0,1-.25.39,2.47,2.47,0,0,0-.58.62l-.76,1.15Zm2.85-3.1c.12-.09.21-.07.35,0a10.57,10.57,0,0,1,2.18,2.46.23.23,0,0,1-.07.37l-1,.71a.24.24,0,0,1-.39-.07,11.43,11.43,0,0,0-2.32-2.67Zm2-1.5c.14-.09.21-.07.35,0a9.59,9.59,0,0,1,2.18,2.37.27.27,0,0,1-.07.41l-.92.71a.24.24,0,0,1-.39-.07,10.87,10.87,0,0,0-2.3-2.64Z" class="cls-3"/>
            <path d="M274.88,436a25.06,25.06,0,0,1-5.68,5.82,1.14,1.14,0,0,1-.53.28c-.16,0-.25-.16-.46-.46a5.26,5.26,0,0,0-1.36-1.4,20.78,20.78,0,0,0,7.38-8,6.6,6.6,0,0,0,.6-1.7,20.64,20.64,0,0,1,2.48.48c.25.07.37.21.37.37a.56.56,0,0,1-.25.39,2.13,2.13,0,0,0-.55.85l-.62,1.2h6.28a1.49,1.49,0,0,0,.6-.07,1.58,1.58,0,0,1,.48-.14c.21,0,.39.14,1,.71s.71.76.71.92a.64.64,0,0,1-.23.41,3,3,0,0,0-.6,1.08,24.6,24.6,0,0,1-4.62,8,26.43,26.43,0,0,1-9.31,6.44,2,2,0,0,1-.51.16c-.18,0-.28-.14-.53-.53a6.62,6.62,0,0,0-1.45-1.54,24.76,24.76,0,0,0,8.95-5.24,26.8,26.8,0,0,0-3.89-3.17c-.12-.07-.16-.12-.16-.18a.44.44,0,0,1,.16-.28l1.22-1.24c.18-.21.23-.23.44-.09a26.26,26.26,0,0,1,3.93,3.08,23.89,23.89,0,0,0,3.33-6Z" class="cls-3"/>
            <path d="M297.35,439.89c0-1.13,0-1.93,0-2.44a25.05,25.05,0,0,1-2.39,1.06,2,2,0,0,1-.53.16c-.18,0-.25-.16-.44-.6a4.61,4.61,0,0,0-.92-1.5,19.69,19.69,0,0,0,8.79-5.31,5,5,0,0,0,.94-1.33,16.89,16.89,0,0,1,2.42.44c.21,0,.39.14.39.25s-.07.18-.23.28l-.07,0a21.79,21.79,0,0,0,9.75,5.29,5.42,5.42,0,0,0-.87,1.61c-.16.44-.23.6-.41.6a1.72,1.72,0,0,1-.55-.14,21.06,21.06,0,0,1-2.76-1.15c0,.34,0,.94,0,1.91v3c0,.71,0,1.22,0,1.59.67.39,1.22.74,1.75,1.1.16.12.28.23.28.37s-.14.25-.34.3a2.48,2.48,0,0,0-.74.41c-.78.58-1.54,1.15-2.67,1.86a26.94,26.94,0,0,0,5.68,1.43,6.28,6.28,0,0,0-.87,1.61c-.25.64-.28.69-1,.51-3.29-.8-5.8-1.79-7.77-3.52a7.33,7.33,0,0,0-.12,1c0,.76,0,.76-.74.9-2.81.58-5.54,1.08-7.66,1.4a3.19,3.19,0,0,0-.9.28.67.67,0,0,1-.39.14q-.17,0-.28-.34c-.16-.62-.32-1.47-.44-2.23,1,0,1.63-.09,2.46-.18l.64,0Zm5.43-3.31v-.18a11.58,11.58,0,0,0-.16-2.16c.85,0,1.5.07,2.32.16.23,0,.34.14.34.25a.73.73,0,0,1-.14.46,1.91,1.91,0,0,0-.14,1v.46h2c1.08,0,1.84,0,2.37,0A19.94,19.94,0,0,1,304,432.3a21.28,21.28,0,0,1-5.08,4.28Zm-3.06,1.77v1.29h8.42v-1.29Zm8.42,3h-8.42v1.4h8.42Zm-8.42,7c1.52-.23,3.08-.51,4.81-.85a12,12,0,0,1-2.3-2.94h-2.51Zm5-3.79a7.69,7.69,0,0,0,2,2.09,21.87,21.87,0,0,0,2.78-2.07c-.53,0-1.36,0-2.58,0Z" class="cls-3"/>
            <path d="M275.3,494.58c1.66,0,2.16,0,2.3,0s.3,0,.3.28a12.87,12.87,0,0,0,.14,2.55A18,18,0,0,0,287,511.58a6.8,6.8,0,0,0-1.36,1.75c-.18.37-.28.53-.41.53s-.28-.12-.53-.3a19.77,19.77,0,0,1-7.89-11.41,19.35,19.35,0,0,1-8.46,11.45c-.28.16-.41.28-.53.28s-.25-.18-.48-.55a5.5,5.5,0,0,0-1.36-1.52c5.7-2.81,8.95-8.3,9.25-14.88h-2.85c-1.66,0-2.16,0-2.3,0s-.28,0-.28-.25v-1.93c0-.23,0-.25.28-.25s.64,0,2.3,0Z" class="cls-3"/>
            <path d="M294.64,499.6c.21-.25.28-.28.48-.16a19.18,19.18,0,0,1,3.33,2.39c.09.09.16.16.16.23s0,.14-.14.25l-1.06,1.4c-.18.25-.25.3-.44.11a16.12,16.12,0,0,0-3.31-2.58c-.12-.07-.16-.14-.16-.18s0-.12.12-.21ZM294.8,511a37.1,37.1,0,0,0,2-5.5,11.56,11.56,0,0,0,1.33,1.17c.58.41.58.41.39,1.1a34.19,34.19,0,0,1-2,5.15,3.71,3.71,0,0,0-.32.92.29.29,0,0,1-.28.32.93.93,0,0,1-.44-.16,19,19,0,0,1-1.84-1.26A10.7,10.7,0,0,0,294.8,511Zm.71-17.2c.18-.23.28-.21.48-.12a19.92,19.92,0,0,1,3.2,2.51c.09.09.14.14.14.18s0,.14-.14.28l-1,1.4c-.21.28-.25.28-.44.12a16,16,0,0,0-3.24-2.71c-.21-.14-.21-.16,0-.41Zm4.65,13.06a1.59,1.59,0,0,1-.51.28c-.16,0-.23-.18-.41-.55a4,4,0,0,0-1-1.36,18.3,18.3,0,0,0,6.35-6,6.24,6.24,0,0,0,.8-1.7c.74.12,1.61.32,2.23.48q.28.1.28.28a.26.26,0,0,1-.18.28l-.09.07a18.15,18.15,0,0,0,7.34,6.14,5.57,5.57,0,0,0-.9,1.77c-.12.37-.18.53-.37.53a1.27,1.27,0,0,1-.53-.25c-.46-.3-.9-.58-1.31-.87v3.91c0,3.36,0,4,0,4.12s0,.23-.28.23h-1.89c-.23,0-.25,0-.25-.23v-.87h-5.93v1c0,.21,0,.23-.25.23h-1.91c-.23,0-.25,0-.25-.23s0-.78,0-4.14v-2c0-.74,0-1.29,0-1.7Zm4.92-12.05c.18.12.23.21.23.32s-.09.28-.28.34a1.86,1.86,0,0,0-.62.64,17,17,0,0,1-3.61,3.75c-.25.21-.41.3-.53.3s-.25-.14-.46-.48a4.62,4.62,0,0,0-1.1-1.26,14.44,14.44,0,0,0,3.68-3.45,6.87,6.87,0,0,0,.69-1.29A15.22,15.22,0,0,1,305.08,494.79Zm5.36,10.05a18.16,18.16,0,0,1-4-4.32,20.39,20.39,0,0,1-3.63,4.32Zm-6.9,6.07h5.93V507h-5.93Zm5.63-17.07a.67.67,0,0,1,.23-.12c.07,0,.11,0,.21.14a13.86,13.86,0,0,0,4.65,4,7.29,7.29,0,0,0-.92,1.61c-.16.39-.23.55-.39.55a1.37,1.37,0,0,1-.58-.25,16.4,16.4,0,0,1-4.67-4.67c-.12-.21-.07-.23.16-.39Z" class="cls-3"/>
            <line x1="245.49" x2="495" y1="27.62" y2="27.62" class="cls-6"/>
            <line x1="245.49" x2="495" y1="40.93" y2="40.93" class="cls-7"/>
            <rect width="311.81" height="170.08" x="136.59" y="244.5" class="cls-1"/>
            <path d="M220.44,325.57v-.8h-.6c-1.77,0-2.37,0-2.53,0s-.25,0-.25-.25,0-.51,0-1.47v-1.56c0-1,0-1.33,0-1.5s0-.25.25-.25.76,0,2.53,0h.6V319h-1.2c-2,0-2.64,0-2.78,0s-.23,0-.23-.25v-1c0-.25,0-.28.23-.28s.81,0,2.78,0h1.2a8.23,8.23,0,0,0-.12-1.27c.69,0,1.38.07,2,.14.21,0,.3.09.3.21a.78.78,0,0,1-.09.28,1.2,1.2,0,0,0-.12.64h1.08c2,0,2.62,0,2.76,0s.25,0,.25.28v1c0,.23,0,.25-.25.25s-.78,0-2.76,0h-1.08v.83h.67c1.77,0,2.37,0,2.51,0s.25,0,.25.25,0,.51,0,1.5v1.56c0,1,0,1.33,0,1.47s0,.25-.25.25-.74,0-2.51,0h-.67v.8h1c2,0,2.64,0,2.81,0s.25,0,.25.25v1c0,.23,0,.25-.25.25s-.8,0-2.81,0h-1c0,.46,0,.76,0,.83,0,.23,0,.25-.28.25h-1.52c-.25,0-.28,0-.28-.25,0-.07,0-.35,0-.83h-1.33c-2,0-2.67,0-2.78,0s-.25,0-.25-.25v-1c0-.23,0-.25.25-.25s.78,0,2.78,0Zm2.85,8.88c.21.14.25.23.25.34s-.16.18-.34.28a5.47,5.47,0,0,0-.8.46,17.72,17.72,0,0,1-3.84,1.7,3.06,3.06,0,0,1-.55.14c-.21,0-.32-.14-.53-.53a5,5,0,0,0-.9-1.15,17,17,0,0,0,4.07-1.38,4.14,4.14,0,0,0,1-.83A10.18,10.18,0,0,1,223.29,334.45Zm9.2-4.74c.25-.14.3-.11.48,0a22.68,22.68,0,0,1,3.22,3.08c.16.21.16.25-.12.41l-1.26.74a.68.68,0,0,1-.23.11c-.07,0-.12,0-.18-.16-.28-.37-.58-.74-.87-1.1-2,.18-4,.3-6.07.41v1.93c0,1.52,0,2,0,2.09s0,.25-.25.25h-2c-.23,0-.25,0-.25-.25s0-.58,0-2.09v-1.82c-2.16.09-4.32.16-6.53.21a2.57,2.57,0,0,0-.92.11,1,1,0,0,1-.41.12c-.12,0-.18-.12-.23-.28-.11-.51-.25-1.33-.32-1.91.94.07,1.68.07,2.37.07,1.38,0,2.83,0,4.26,0a20.15,20.15,0,0,0-3.11-1.91c-.14-.07-.21-.12-.21-.18s.07-.14.18-.23l1-.83c.25-.18.3-.18.51,0,.46.28.9.53,1.31.8a11,11,0,0,0,1.52-1.31,6,6,0,0,0,.62-.83,11.89,11.89,0,0,1,1.61.94c.21.14.34.23.34.37s-.09.23-.28.28a3.07,3.07,0,0,0-.69.41,15.6,15.6,0,0,1-1.54,1.22c.39.3.8.58,1.2.9,1.08-.83,2-1.54,2.9-2.39a6.35,6.35,0,0,0,.81-.9,13.69,13.69,0,0,1,1.75.87c.21.14.25.21.25.34s-.12.23-.3.28a2.33,2.33,0,0,0-.74.39,26.23,26.23,0,0,1-2.14,1.66c1.31,0,2.58-.12,3.75-.18l-.71-.64c-.21-.18-.16-.23.12-.37Zm-12-7.93v-.85H218.9v.85Zm0,1.89v-.85H218.9v.85Zm1.79-2.74v.85H224v-.85Zm1.68,1.89h-1.68v.85H224Zm6.21-4.19a3,3,0,0,1-2.16,2.9,1.58,1.58,0,0,1-.53.18c-.18,0-.28-.14-.51-.53a2.58,2.58,0,0,0-.83-.83c1.54-.41,2.12-.94,2.14-2.3,0-.44,0-.71,0-.85s0-.25.25-.25.48,0,1.72,0h1.61c1.26,0,1.63,0,1.77,0s.28,0,.28.25,0,.44,0,1.13v1a.36.36,0,0,0,.14.34c.09.07.18.09.51.09s.44,0,.57-.23a3.63,3.63,0,0,0,.16-1.47,7,7,0,0,0,1.15.48c.55.18.58.18.51.74-.12,1.08-.37,1.4-.67,1.61a3.49,3.49,0,0,1-1.89.39,6.28,6.28,0,0,1-1.84-.18c-.39-.16-.6-.48-.6-1.1v-1.38Zm3.45,3.38a1,1,0,0,0,.44-.07.94.94,0,0,1,.3-.07c.16,0,.23,0,.74.51s.64.62.64.76-.07.23-.23.32a2.4,2.4,0,0,0-.74.67,12.52,12.52,0,0,1-2,1.89,16.39,16.39,0,0,0,4.33,1,3.72,3.72,0,0,0-.6,1.17c-.21.62-.21.64-.83.51a15.52,15.52,0,0,1-4.69-1.63,14.45,14.45,0,0,1-3.06,1c-.62.16-.62.12-.87-.44a5,5,0,0,0-.53-.92,16.19,16.19,0,0,0,3-.78,8.67,8.67,0,0,1-1.89-2.37l-.69,0c-.25,0-.28,0-.28-.23v-1.2c0-.23,0-.25.28-.25s.74,0,2.53,0Zm-3.52,11.43c.21-.18.28-.16.48,0a18.5,18.5,0,0,0,5.38,2,4.76,4.76,0,0,0-.94,1.26c-.21.41-.32.55-.51.55a1.72,1.72,0,0,1-.55-.14,20.7,20.7,0,0,1-4.85-2.37c-.21-.14-.21-.18,0-.37Zm-.48-9.84a7.33,7.33,0,0,0,1.61,1.54,7.31,7.31,0,0,0,1.7-1.54Z" class="cls-3"/>
            <path d="M250.39,319.94a15.65,15.65,0,0,0,.23-2.55,16.9,16.9,0,0,1,2.76.76.48.48,0,0,1,.37.46.48.48,0,0,1-.16.34,2.94,2.94,0,0,0-.46.87c-.3.94-.53,1.79-.83,2.76a17.74,17.74,0,0,1,1.84-.09c2.14,0,3.29,1.5,3.29,4.44a19.57,19.57,0,0,1-1.24,7.2,3.29,3.29,0,0,1-3.11,2.16,6.08,6.08,0,0,1-2.39-.34.61.61,0,0,1-.41-.64,6.6,6.6,0,0,0-.44-2.14,6.12,6.12,0,0,0,2.64.6c.76,0,1.1-.28,1.47-1.22a17.78,17.78,0,0,0,.9-5.73c0-1.61-.3-2.12-1.31-2.12a15.24,15.24,0,0,0-1.93.16A63.51,63.51,0,0,1,247,335.67a.38.38,0,0,1-.6.21,10.43,10.43,0,0,1-1.59-1,.47.47,0,0,1-.18-.34.43.43,0,0,1,.09-.25,48.49,48.49,0,0,0,4.21-9c-.9.14-1.63.28-2.25.39a6.76,6.76,0,0,0-1.26.37.51.51,0,0,1-.74-.3,21,21,0,0,1-.71-2.37c1,0,2-.07,3-.16s1.82-.21,2.71-.35C250.07,321.53,250.23,320.72,250.39,319.94Zm9.11,1.54c.16-.09.28,0,.44.12a15.39,15.39,0,0,1,3.82,5.59.33.33,0,0,1-.09.46,9.3,9.3,0,0,1-1.72,1.15c-.23.12-.46.09-.53-.18a15.57,15.57,0,0,0-3.77-6A19.52,19.52,0,0,1,259.5,321.48Zm.62-3.22c.12-.09.21-.07.35,0a10.54,10.54,0,0,1,2.18,2.46.23.23,0,0,1-.07.37l-1,.71a.24.24,0,0,1-.39-.07,11.42,11.42,0,0,0-2.32-2.67Zm2-1.5c.14-.09.21-.07.35,0a9.6,9.6,0,0,1,2.18,2.37.27.27,0,0,1-.07.41l-.92.71a.24.24,0,0,1-.39-.07,10.86,10.86,0,0,0-2.3-2.64Z" class="cls-3"/>
            <path d="M278.65,326.06a6.92,6.92,0,0,1,3.66-1,5.34,5.34,0,0,1,5.7,5.52c0,3.84-3.11,6.3-8,6.3-2.9,0-4.65-1.24-4.65-3.38a3.05,3.05,0,0,1,3.24-2.81,4.19,4.19,0,0,1,4.32,3.36,3.47,3.47,0,0,0,2.35-3.5,3.36,3.36,0,0,0-3.61-3.47,9.37,9.37,0,0,0-5.89,2.44c-.67.6-1.31,1.26-2,2-.16.16-.28.25-.39.25a.57.57,0,0,1-.35-.21,10.44,10.44,0,0,1-1.36-1.5c-.14-.18-.07-.34.12-.53a55.19,55.19,0,0,0,5.45-5.08c1.43-1.47,2.51-2.62,3.56-3.93-1.38.25-3,.58-4.44.87a6.94,6.94,0,0,0-1,.28,1.7,1.7,0,0,1-.46.11.52.52,0,0,1-.51-.39,11.06,11.06,0,0,1-.8-2.48,11,11,0,0,0,2.14,0c1.4-.14,3.43-.44,5.22-.78a6.1,6.1,0,0,0,1.26-.35,1.2,1.2,0,0,1,.44-.18.83.83,0,0,1,.53.18,8.71,8.71,0,0,1,1.54,1.47.8.8,0,0,1,.25.55.61.61,0,0,1-.39.55,3.75,3.75,0,0,0-1,.74c-1.68,1.63-3.22,3.24-5,4.92Zm0,6.55c-.67,0-1.1.39-1.1.87,0,.71.62,1.2,2,1.2a5.09,5.09,0,0,0,1.06-.09C280.33,333.32,279.64,332.61,278.68,332.61Z" class="cls-3"/>
            <path d="M300,324.38c0,.81,0,1.93,0,2.76,0,.37,0,.39-.41.41-.64,0-1.38,0-2,0-.3,0-.44,0-.44-.25.07-.92.11-2,.11-2.92v-2.16c0-1.33,0-2.14-.09-3,0-.14.12-.23.3-.23,1,0,2.46.09,3.84.09H309a2.39,2.39,0,0,0,1.4-.25.5.5,0,0,1,.3-.14.74.74,0,0,1,.44.21,10.52,10.52,0,0,1,1.7,1.52.63.63,0,0,1,.16.41.65.65,0,0,1-.21.44,3.74,3.74,0,0,0-.58,1.36,31.54,31.54,0,0,1-2.8,7.11,22.76,22.76,0,0,1-5.15,6.3.76.76,0,0,1-.55.25.74.74,0,0,1-.46-.16,6.84,6.84,0,0,0-2.21-.87,19.67,19.67,0,0,0,5.82-6.65,24.65,24.65,0,0,0,2.65-7.11H300Z" class="cls-3"/>
            <path d="M325.74,328.59a18.34,18.34,0,0,0-3.38.28c-.28,0-.46-.14-.53-.48a24.78,24.78,0,0,1-.35-2.78,29.62,29.62,0,0,0,5,.28h7.41c1.75,0,3.52,0,5.29-.07.35,0,.41,0,.41.32a16.64,16.64,0,0,1,0,2.16c0,.28-.09.37-.41.35-1.72,0-3.43,0-5.13,0Z" class="cls-3"/>
            <path d="M359.71,320.9a2.13,2.13,0,0,0,1.15-.28.46.46,0,0,1,.3-.09.66.66,0,0,1,.37.14,10.48,10.48,0,0,1,1.56,1.24.75.75,0,0,1,.3.53.67.67,0,0,1-.28.48,2.76,2.76,0,0,0-.76,1A31.71,31.71,0,0,1,357.8,331a29.26,29.26,0,0,1-7,5.73.62.62,0,0,1-.37.12.81.81,0,0,1-.53-.25,6,6,0,0,0-2.18-1.06,26.51,26.51,0,0,0,7.66-5.87,23.47,23.47,0,0,0,4.26-6.53l-5.57.16a32.08,32.08,0,0,1-4.35,4.71.71.71,0,0,1-.48.25.55.55,0,0,1-.35-.14,6.24,6.24,0,0,0-2.21-1,27.31,27.31,0,0,0,6.19-6.83,9.82,9.82,0,0,0,1.36-3.1,11.28,11.28,0,0,1,2.69,1.22.48.48,0,0,1,.23.39.46.46,0,0,1-.25.39,2.5,2.5,0,0,0-.57.62l-.76,1.15Z" class="cls-3"/>
            <rect width="311.81" height="113.39" x="136.59" y="698.04" class="cls-1"/>
            <path d="M226,747.5c-1.5,0-2.81.07-3.79.11-.3,0-.39-.14-.44-.46s-.16-1.66-.21-2.32A40.42,40.42,0,0,0,226,745h8.21a2.2,2.2,0,0,0,1.26-.23.65.65,0,0,1,.34-.09,1.12,1.12,0,0,1,.44.12,7.06,7.06,0,0,1,1.68,1.52.58.58,0,0,1,.16.39.78.78,0,0,1-.32.58,2.76,2.76,0,0,0-.53.9,27.09,27.09,0,0,1-4.46,7.47,25.81,25.81,0,0,1-6.53,5.47,1.11,1.11,0,0,1-.62.21.8.8,0,0,1-.58-.25,6.84,6.84,0,0,0-2.14-1.26,22.24,22.24,0,0,0,7.52-5.75,19.36,19.36,0,0,0,3.89-6.55Z" class="cls-3"/>
            <path d="M248.32,746.49a15.77,15.77,0,0,0-.25-3.36,17.1,17.1,0,0,1,2.85.48c.28.07.39.21.39.37a1,1,0,0,1-.09.35,5.29,5.29,0,0,0-.25,2.18v4.65c0,1.2,0,2.09.07,2.9,0,.34-.14.46-.51.46h-1.84c-.32,0-.46-.12-.44-.39,0-.81.07-2.14.07-3.13Zm10.83,4.3c0,3.4-.51,5.68-1.86,7.5a11.86,11.86,0,0,1-5.06,3.61,1.45,1.45,0,0,1-.48.12.75.75,0,0,1-.55-.28,7.5,7.5,0,0,0-2-1.4,11.23,11.23,0,0,0,5.61-3.36c1.06-1.31,1.54-3.22,1.54-6.14v-4.35a16.89,16.89,0,0,0-.25-3.75,14.44,14.44,0,0,1,3,.51.39.39,0,0,1,.32.39.74.74,0,0,1-.09.37,6.93,6.93,0,0,0-.21,2.51Z" class="cls-3"/>
            <path d="M273.25,753.78a18.35,18.35,0,0,0-3.38.28c-.28,0-.46-.14-.53-.48a24.84,24.84,0,0,1-.34-2.78,29.61,29.61,0,0,0,5,.28h7.41c1.75,0,3.52,0,5.29-.07.34,0,.41,0,.41.32a17,17,0,0,1,0,2.16c0,.28-.09.37-.41.35-1.73,0-3.43,0-5.13,0Z" class="cls-3"/>
            <path d="M307.47,745.59a2.26,2.26,0,0,0,1.26-.34.67.67,0,0,1,.39-.16.79.79,0,0,1,.41.18,7.42,7.42,0,0,1,1.56,1.4.56.56,0,0,1,.18.41.59.59,0,0,1-.25.44,2.89,2.89,0,0,0-.69.87A36,36,0,0,1,307,754a20.41,20.41,0,0,1,2.48,2.32.46.46,0,0,1,.14.32.45.45,0,0,1-.14.3,14.06,14.06,0,0,1-1.43,1.45.47.47,0,0,1-.28.12.4.4,0,0,1-.25-.14,25.4,25.4,0,0,0-2.23-2.23,28,28,0,0,1-7.34,5.75,1.25,1.25,0,0,1-.58.21.69.69,0,0,1-.44-.21,6.54,6.54,0,0,0-2.18-1.17,27.88,27.88,0,0,0,8.46-6.23,19.22,19.22,0,0,0-3.31-2.16c.51-.55,1-1.15,1.52-1.63a.43.43,0,0,1,.3-.16.6.6,0,0,1,.23.09,23,23,0,0,1,3,1.84,22.21,22.21,0,0,0,2.69-4.55l-5.7.11a27.86,27.86,0,0,1-4.92,5.18.83.83,0,0,1-.46.21.53.53,0,0,1-.37-.16,9.61,9.61,0,0,0-1.93-1.06,25.64,25.64,0,0,0,6.51-7.22A8.48,8.48,0,0,0,302,742.1a14.51,14.51,0,0,1,2.69,1.13.4.4,0,0,1,.25.37.62.62,0,0,1-.28.46,1.9,1.9,0,0,0-.48.48c-.18.32-.32.55-.71,1.15Z" class="cls-3"/>
            <path d="M329.85,756.59c0,1.59,0,2.94.07,4.78,0,.3-.09.39-.35.39a19.22,19.22,0,0,1-2.3,0c-.25,0-.34-.09-.32-.37,0-1.66.09-3.15.09-4.71v-5.36a39.8,39.8,0,0,1-6.33,4.42.65.65,0,0,1-.34.09.64.64,0,0,1-.48-.23,8.61,8.61,0,0,0-2-1.36,36.86,36.86,0,0,0,7.25-4.71,37.28,37.28,0,0,0,4.9-4.81,6.66,6.66,0,0,0,1.45-2.37,20.44,20.44,0,0,1,2.55,1.61.41.41,0,0,1,.18.34.66.66,0,0,1-.32.51,7.54,7.54,0,0,0-1.38,1.27,36.57,36.57,0,0,1-2.69,2.9Z" class="cls-3"/>
            <path d="M351.18,744c.16.12.28.23.28.37a.78.78,0,0,1-.23.46,7.38,7.38,0,0,0-.94,1.91c-1.29,3.52-2.51,6.9-4,10.35,3.54-.3,5.47-.48,8.05-.87a22.9,22.9,0,0,0-2.55-3.68c.69-.37,1.36-.76,2-1.1.25-.14.39,0,.55.14a32.37,32.37,0,0,1,4.65,7.52.55.55,0,0,1,.09.3c0,.14-.09.28-.3.39a11.58,11.58,0,0,1-1.75.94.61.61,0,0,1-.28.07c-.14,0-.25-.12-.32-.32-.28-.64-.53-1.24-.8-1.84-3.68.55-7.18.94-10.93,1.33a7.76,7.76,0,0,0-2.69.55c-.3.14-.55.09-.67-.23a21.37,21.37,0,0,1-.81-3c.92.07,1.89,0,2.81,0,1.63-4.12,2.83-7.52,4-11.38a12.23,12.23,0,0,0,.67-3.15A12.49,12.49,0,0,1,351.18,744Z" class="cls-3"/>
            <line x1="90" x2="495" y1="811.43" y2="811.43" class="cls-4"/>
            <line x1="90" x2="495" y1="698.04" y2="698.04" class="cls-4"/>
            <line x1="90" x2="495" y1="244.5" y2="244.5" class="cls-4"/>
            <line x1="90" x2="495" y1="414.58" y2="414.58" class="cls-4"/>
            <rect width="311.81" height="170.08" x="136.59" y="527.96" class="cls-2"/>
            <path d="M217.12,607.57c.16-.21.25-.23.46-.12a19.4,19.4,0,0,1,3.2,2.28c.14.16.14.23,0,.46l-1.06,1.38c-.12.16-.18.23-.25.23s-.11,0-.21-.12a16.53,16.53,0,0,0-3.13-2.46c-.11-.07-.16-.12-.16-.18s0-.14.14-.25Zm.14,11.13a34.93,34.93,0,0,0,2.19-5.17,9,9,0,0,0,1.29,1.17c.34.28.48.37.48.58a1.77,1.77,0,0,1-.14.53,38.26,38.26,0,0,1-2.14,4.88,3.74,3.74,0,0,0-.35.87.34.34,0,0,1-.32.3.87.87,0,0,1-.41-.14,14.57,14.57,0,0,1-1.75-1.27A9.91,9.91,0,0,0,217.25,618.71Zm.76-16.9c.18-.21.25-.21.46-.12a20,20,0,0,1,3.08,2.44c.16.14.18.21,0,.48l-1,1.36c-.12.14-.16.21-.23.21s-.11,0-.21-.12a19.11,19.11,0,0,0-3.1-2.67c-.21-.14-.21-.16,0-.41Zm7.13,12.65c-2.25,0-3,0-3.17,0s-.25,0-.25-.28v-1.56c0-.25,0-.28.25-.28s.92,0,3.17,0h2.64a14.75,14.75,0,0,0-.14-2.28c.85,0,1.47.07,2.28.16.21,0,.34.14.34.25a.93.93,0,0,1-.16.46,2.88,2.88,0,0,0-.09,1.06v.35h3.29c2.28,0,3.06,0,3.2,0s.25,0,.25.28v1.56c0,.25,0,.28-.25.28s-.92,0-3.2,0h-2.42a14.43,14.43,0,0,0,6.35,4.28,6.37,6.37,0,0,0-.92,1.59c-.16.41-.23.58-.39.58a1.66,1.66,0,0,1-.53-.23A15,15,0,0,1,230,615.9c0,2.65.12,5.45.12,6.14,0,.21,0,.23-.25.23H228c-.23,0-.25,0-.25-.23,0-.69.09-3.36.12-6a14.85,14.85,0,0,1-5.2,4.78,1.24,1.24,0,0,1-.53.23c-.16,0-.25-.16-.46-.53a6.31,6.31,0,0,0-1-1.38,15.11,15.11,0,0,0,6.14-4.65Zm3.22-8.81c.23.07.34.16.34.3a.47.47,0,0,1-.18.32,3.11,3.11,0,0,0-.34.87,6.57,6.57,0,0,1-4.16,4.09,2.35,2.35,0,0,1-.53.16c-.16,0-.25-.14-.48-.53a4.91,4.91,0,0,0-1.1-1.22c2.58-.67,3.68-1.84,4.09-3.11a5.59,5.59,0,0,0,.28-1.43A16,16,0,0,1,228.36,605.64Zm4.6-3.36c2.23,0,3,0,3.17,0s.25,0,.25.25,0,.46,0,.9v.69c0,1.66,0,1.93,0,2.07s0,.23-.25.23h-1.73c-.25,0-.28,0-.28-.23v-1.84h-9.66v2.16c0,.25,0,.28-.25.28H222.5c-.23,0-.25,0-.25-.28s0-.41,0-2.19v-.64c0-.67,0-1,0-1.15s0-.25.25-.25.92,0,3.15,0Zm-3.17,5.31a13.2,13.2,0,0,0-.14-2.48c.83,0,1.47,0,2.18.12.23,0,.37.14.37.25a.8.8,0,0,1-.14.41,2.53,2.53,0,0,0-.09,1v.9c0,.32,0,.58.14.67s.37.14,1.13.14,1-.07,1.2-.23.28-.53.3-1.36a6.65,6.65,0,0,0,1.43.6c.6.18.6.18.53.78a2.53,2.53,0,0,1-.8,1.7c-.48.39-1.33.51-2.85.51a5.42,5.42,0,0,1-2.55-.3c-.44-.23-.69-.55-.69-1.45Z" class="cls-3"/>
            <path d="M248.86,603.55c.28.11.39.23.39.44a.55.55,0,0,1-.14.32,5.56,5.56,0,0,0-.48,1.59,50.7,50.7,0,0,0-1.13,9c0,.51,0,1.68,0,2.48.51-1.1.94-2,1.56-3.43a7,7,0,0,0,.69,1.54c.14.21.18.3.18.41a.89.89,0,0,1-.14.39c-.25.64-.8,1.93-1.22,3.08a3.88,3.88,0,0,0-.16,1,4.63,4.63,0,0,0,0,.48c0,.18,0,.28-.28.35a10.55,10.55,0,0,1-1.61.41c-.32,0-.44-.12-.48-.28a20.55,20.55,0,0,1-.9-6.9A63.8,63.8,0,0,1,246,606a18,18,0,0,0,.3-3.15A12.76,12.76,0,0,1,248.86,603.55Zm7.91,2.69c-2,.14-3,.25-4.71.46-.07-.83-.12-1.45-.14-2.14,0-.21.14-.25.39-.28,1.93-.21,4.35-.37,5.8-.44.94,0,2-.09,2.48-.09s.44.14.46.39a11.8,11.8,0,0,1,0,1.56c0,.23-.09.32-.25.32-.48,0-1,0-1.61.07,0,1,0,2.09-.07,3.13a26,26,0,0,0,3.06-.48c.21,0,.25,0,.28.21a14.61,14.61,0,0,1,.21,1.93c0,.16-.09.21-.25.25-1,.23-2.21.37-3.24.51,0,1.56.07,2.88.16,4.21a15.28,15.28,0,0,1,3.91,2.18c.18.14.18.25.09.46a12.38,12.38,0,0,1-.94,1.79c-.07.12-.14.18-.21.18s-.14-.07-.25-.16a13.92,13.92,0,0,0-2.65-1.91c-.3,2-1.52,2.94-4,2.94s-4.12-1.26-4.12-3.11,1.61-3.2,3.84-3.2a9.92,9.92,0,0,1,1.86.16c0-1.17-.07-2-.09-3.29a24.11,24.11,0,0,1-4.39-.09c-.21,0-.28-.09-.3-.28-.07-.6-.14-1.47-.14-2.09a16.29,16.29,0,0,0,2.62.18c.71,0,1.43,0,2.16-.09ZM255,617c-1,0-1.59.44-1.59,1.06s.62,1,1.63,1a2.11,2.11,0,0,0,1.66-.58,2,2,0,0,0,.28-1.2A6,6,0,0,0,255,617Zm6.49-15.32a.24.24,0,0,1,.32.09,10.71,10.71,0,0,1,1.77,2.78c.07.16,0,.25-.14.34l-.9.44c-.18.09-.32.07-.39-.14a10.11,10.11,0,0,0-1.86-3Zm2.07-1c.14-.07.21,0,.32.09a9.73,9.73,0,0,1,1.77,2.69.26.26,0,0,1-.14.39l-.92.46c-.21.09-.3,0-.37-.12a11,11,0,0,0-1.86-3Z" class="cls-3"/>
            <path d="M278.41,610.89a6.92,6.92,0,0,1,3.66-1,5.34,5.34,0,0,1,5.7,5.52c0,3.84-3.1,6.3-8,6.3-2.9,0-4.65-1.24-4.65-3.38a3.05,3.05,0,0,1,3.24-2.81,4.19,4.19,0,0,1,4.32,3.36,3.46,3.46,0,0,0,2.35-3.5,3.36,3.36,0,0,0-3.61-3.47,9.37,9.37,0,0,0-5.89,2.44c-.67.6-1.31,1.26-2,2-.16.16-.28.25-.39.25a.57.57,0,0,1-.34-.21,10.33,10.33,0,0,1-1.36-1.5c-.14-.18-.07-.34.12-.53a55.3,55.3,0,0,0,5.45-5.08c1.43-1.47,2.51-2.62,3.56-3.93-1.38.25-3,.58-4.44.87a7,7,0,0,0-1,.28,1.68,1.68,0,0,1-.46.11.52.52,0,0,1-.51-.39,11.06,11.06,0,0,1-.8-2.48,11,11,0,0,0,2.14,0c1.4-.14,3.43-.44,5.22-.78a6.11,6.11,0,0,0,1.26-.35,1.2,1.2,0,0,1,.44-.18.82.82,0,0,1,.53.18,8.67,8.67,0,0,1,1.54,1.47.8.8,0,0,1,.25.55.61.61,0,0,1-.39.55,3.73,3.73,0,0,0-1,.74c-1.68,1.63-3.22,3.24-5,4.92Zm0,6.55c-.67,0-1.1.39-1.1.87,0,.71.62,1.2,2,1.2a5.07,5.07,0,0,0,1.06-.09C280.09,618.15,279.4,617.44,278.44,617.44Z" class="cls-3"/>
            <path d="M299.73,609.21c0,.81,0,1.93,0,2.76,0,.37,0,.39-.41.41-.64,0-1.38,0-2,0-.3,0-.44,0-.44-.25.07-.92.11-2,.11-2.92V607c0-1.33,0-2.14-.09-3,0-.14.12-.23.3-.23,1,0,2.46.09,3.84.09h7.75a2.39,2.39,0,0,0,1.4-.25.5.5,0,0,1,.3-.14.75.75,0,0,1,.44.21,10.54,10.54,0,0,1,1.7,1.52.63.63,0,0,1,.16.41.64.64,0,0,1-.21.44,3.73,3.73,0,0,0-.58,1.36,31.59,31.59,0,0,1-2.81,7.11,22.75,22.75,0,0,1-5.15,6.3.76.76,0,0,1-.55.25A.75.75,0,0,1,303,621a6.83,6.83,0,0,0-2.21-.87,19.67,19.67,0,0,0,5.82-6.65,24.68,24.68,0,0,0,2.65-7.11h-9.57Z" class="cls-3"/>
            <path d="M325.49,613.42a18.35,18.35,0,0,0-3.38.28c-.28,0-.46-.14-.53-.48a24.84,24.84,0,0,1-.34-2.78,29.61,29.61,0,0,0,5,.28h7.41c1.75,0,3.52,0,5.29-.07.34,0,.41,0,.41.32a17,17,0,0,1,0,2.16c0,.28-.09.37-.41.35-1.73,0-3.43,0-5.13,0Z" class="cls-3"/>
            <path d="M359.46,605.73a2.13,2.13,0,0,0,1.15-.28.46.46,0,0,1,.3-.09.66.66,0,0,1,.37.14,10.58,10.58,0,0,1,1.56,1.24.75.75,0,0,1,.3.53.67.67,0,0,1-.28.48,2.76,2.76,0,0,0-.76,1,31.71,31.71,0,0,1-4.55,7.11,29.24,29.24,0,0,1-7,5.73.62.62,0,0,1-.37.12.81.81,0,0,1-.53-.25,6,6,0,0,0-2.18-1.06,26.52,26.52,0,0,0,7.66-5.87A23.44,23.44,0,0,0,359.4,608l-5.57.16a32,32,0,0,1-4.35,4.71.71.71,0,0,1-.48.25.55.55,0,0,1-.34-.14,6.24,6.24,0,0,0-2.21-1,27.29,27.29,0,0,0,6.19-6.83,9.83,9.83,0,0,0,1.36-3.1,11.3,11.3,0,0,1,2.69,1.22.48.48,0,0,1,.23.39.46.46,0,0,1-.25.39,2.5,2.5,0,0,0-.58.62l-.76,1.15Z" class="cls-3"/>
        </g>
    </g>
</svg>
