<svg xmlns="http://www.w3.org/2000/svg" viewBox="0 0 491.03 763.76">
    <defs>
        <style>
            .cls-1{fill:#fcf5e6;}.cls-2{fill:#422610;}.cls-3{fill:#e6c338;}.cls-4,.cls-6,.cls-7{fill:none;stroke-miterlimit:10;}.cls-4{stroke:#41250f;stroke-width:0.85px;stroke-dasharray:3.4 3.4;}.cls-5{fill:#56504c;}.cls-6,.cls-7{stroke:#422610;}.cls-6{stroke-width:5.55px;}.cls-7{stroke-width:2.78px;}
        </style>
    </defs>
    <title>
        スケジュール2
    </title>
    <g id="レイヤー_2" data-name="レイヤー 2">
        <g id="レイヤー_1-2" data-name="レイヤー 1">
            <rect width="311.81" height="56.69" x="132.62" y="639.18" class="cls-1"/>
            <path d="M225.77,658.89a2.13,2.13,0,0,0,1.15-.28.46.46,0,0,1,.3-.09.66.66,0,0,1,.37.14,10.58,10.58,0,0,1,1.56,1.24.75.75,0,0,1,.3.53.67.67,0,0,1-.28.48,2.76,2.76,0,0,0-.76,1,31.71,31.71,0,0,1-4.55,7.11,29.24,29.24,0,0,1-7,5.73.62.62,0,0,1-.37.12.81.81,0,0,1-.53-.25,6,6,0,0,0-2.18-1.06,26.52,26.52,0,0,0,7.66-5.87,23.44,23.44,0,0,0,4.25-6.53l-5.57.16a32,32,0,0,1-4.35,4.71.71.71,0,0,1-.48.25.55.55,0,0,1-.34-.14,6.24,6.24,0,0,0-2.21-1,27.29,27.29,0,0,0,6.19-6.83,9.83,9.83,0,0,0,1.36-3.1,11.3,11.3,0,0,1,2.69,1.22.48.48,0,0,1,.23.39.46.46,0,0,1-.25.39,2.5,2.5,0,0,0-.58.62l-.76,1.15Z" class="cls-2"/>
            <path d="M242.13,671v1.36c0,.39-.09.44-.51.46-.58,0-1.24,0-1.82,0-.39,0-.51-.07-.48-.34,0-1.2.07-2.83.07-4.58v-5.63c0-1.24,0-2.48,0-3.82,0-.23.09-.32.25-.32,1.22.07,2.58.07,4.12.07h5.47c1.5,0,3.24,0,4.32,0,.25,0,.32.12.3.46,0,1.13,0,2.37,0,3.73v5.5c0,2,.07,3.13.12,4.37,0,.32-.12.39-.44.39-.69,0-1.43,0-2.12,0-.28,0-.3,0-.3-.37V671ZM251,660.62H242.1v7.94H251Z" class="cls-2"/>
            <path d="M267.38,666.57a18.35,18.35,0,0,0-3.38.28c-.28,0-.46-.14-.53-.48a24.84,24.84,0,0,1-.34-2.78,29.61,29.61,0,0,0,5,.28h7.41c1.75,0,3.52,0,5.29-.07.34,0,.41,0,.41.32a17,17,0,0,1,0,2.16c0,.28-.09.37-.41.35-1.73,0-3.43,0-5.13,0Z" class="cls-2"/>
            <path d="M290.1,661.95c.12-.16.23-.28.44-.23A15.94,15.94,0,0,1,295,664c.16.12.25.21.25.34a.68.68,0,0,1-.09.25,9.33,9.33,0,0,1-1,1.75c-.12.14-.21.23-.3.23a.45.45,0,0,1-.28-.14,20.16,20.16,0,0,0-4.65-2.51C289.46,663,289.83,662.32,290.1,661.95Zm3.73,8.53a38.48,38.48,0,0,0,6.3-4,41.9,41.9,0,0,0,6.62-6.42,11.44,11.44,0,0,0,.67,2.58,1.13,1.13,0,0,1,.11.44.72.72,0,0,1-.25.53,42.85,42.85,0,0,1-5.84,5.31,53.33,53.33,0,0,1-6.88,4.32,7.51,7.51,0,0,0-1.33.78.51.51,0,0,1-.37.18.59.59,0,0,1-.46-.28,14.59,14.59,0,0,1-1.7-2.35A10.61,10.61,0,0,0,293.83,670.48Zm-.94-13.82c.16-.28.3-.32.57-.18a15.63,15.63,0,0,1,4.32,2.55.36.36,0,0,1,.18.3.56.56,0,0,1-.09.3,9.76,9.76,0,0,1-1.17,1.72.25.25,0,0,1-.23.14.59.59,0,0,1-.34-.16,22.23,22.23,0,0,0-4.46-2.83Zm10.53-.71c.11-.09.21-.07.34,0a10.57,10.57,0,0,1,2.18,2.46.23.23,0,0,1-.07.37l-1,.71a.24.24,0,0,1-.39-.07,11.39,11.39,0,0,0-2.32-2.67Zm2-1.49c.14-.09.21-.07.34,0a9.6,9.6,0,0,1,2.18,2.37.27.27,0,0,1-.07.41L307,658a.24.24,0,0,1-.39-.07,10.88,10.88,0,0,0-2.3-2.65Z" class="cls-2"/>
            <path d="M316.67,657.56a.43.43,0,0,1,.32-.18.62.62,0,0,1,.3.11,24,24,0,0,1,4.39,3.27c.14.14.21.23.21.32a.5.5,0,0,1-.14.3c-.35.46-1.1,1.38-1.43,1.72-.11.12-.18.18-.28.18s-.18-.07-.3-.18a24.37,24.37,0,0,0-4.69-3.75C315.56,658.73,316.23,658,316.67,657.56Zm2,12.12a34.11,34.11,0,0,0,6.62-4.28,34.55,34.55,0,0,0,6.3-6.26,10.26,10.26,0,0,0,.64,2.69,1.12,1.12,0,0,1,.12.44c0,.21-.12.39-.37.69a37.57,37.57,0,0,1-5.29,4.88,49.44,49.44,0,0,1-6.95,4.51,8,8,0,0,0-1.54,1.06.64.64,0,0,1-.41.23.6.6,0,0,1-.39-.25,15.94,15.94,0,0,1-1.84-2.55A13.89,13.89,0,0,0,318.67,669.68Z" class="cls-2"/>
            <path d="M352.34,659.1a2.14,2.14,0,0,0,1.15-.28.47.47,0,0,1,.3-.09.66.66,0,0,1,.37.14,10.58,10.58,0,0,1,1.56,1.24.75.75,0,0,1,.3.53.67.67,0,0,1-.28.48,2.76,2.76,0,0,0-.76,1,31.71,31.71,0,0,1-4.55,7.11,29.2,29.2,0,0,1-7,5.73.62.62,0,0,1-.37.12.81.81,0,0,1-.53-.25,6.05,6.05,0,0,0-2.19-1.06,26.52,26.52,0,0,0,7.66-5.87,23.42,23.42,0,0,0,4.25-6.53l-5.57.16a32,32,0,0,1-4.35,4.71.71.71,0,0,1-.48.25.55.55,0,0,1-.35-.14,6.23,6.23,0,0,0-2.21-1,27.27,27.27,0,0,0,6.19-6.83,9.83,9.83,0,0,0,1.36-3.1,11.3,11.3,0,0,1,2.69,1.22.48.48,0,0,1,.23.39.46.46,0,0,1-.25.39,2.47,2.47,0,0,0-.58.62l-.76,1.15Zm2.85-3.1c.12-.09.21-.07.35,0a10.57,10.57,0,0,1,2.18,2.46.23.23,0,0,1-.07.37l-1,.71a.24.24,0,0,1-.39-.07,11.43,11.43,0,0,0-2.32-2.67Zm2-1.5c.14-.09.21-.07.35,0a9.59,9.59,0,0,1,2.18,2.37.27.27,0,0,1-.07.41l-.92.71a.24.24,0,0,1-.39-.07,10.87,10.87,0,0,0-2.3-2.64Z" class="cls-2"/>
            <path d="M44.83,37a16.15,16.15,0,0,1-1.9,8.38,18,18,0,0,1-4.47,5.12q-3.65,2.86-10.21,2.87H9.92V19.45H24a38.38,38.38,0,0,1,5.45.33,23.91,23.91,0,0,1,4.08.93,16.15,16.15,0,0,1,3.09,1.35,15.84,15.84,0,0,1,2.28,1.6A15.65,15.65,0,0,1,42,27a16.48,16.48,0,0,1,2.08,4.48A19,19,0,0,1,44.83,37m-10.41-.44a11.34,11.34,0,0,0-1.58-6.45A7.75,7.75,0,0,0,29,27a13.45,13.45,0,0,0-4.52-.78H20.16V46.37h4.36a12.47,12.47,0,0,0,7-1.91q2.94-1.91,2.94-7.86" class="cls-2"/>
            <path d="M98.46,53.39H88l-2.77-6.88H70.46l-2.82,6.88H57.16l15-33.95H83.49ZM82.86,40.61l-5-12.4-5,12.4Z" class="cls-2"/>
            <polygon points="146.12 19.45 132.81 37.84 132.81 53.39 122.58 53.39 122.58 38.04 109.03 19.45 119.66 19.45 127.45 30.13 135.26 19.45 146.12 19.45" class="cls-2"/>
            <path d="M174.34,54.81c-5.8,0-7.29.06-9.67.26A32.2,32.2,0,0,1,166,47.46,33.18,33.18,0,0,1,175.31,33c2.45-2.26,4.9-4.13,11.48-8.58,5.55-3.74,6.9-5.42,6.9-8.38s-2.77-5.16-6.9-5.16c-3.1,0-5.29,1-6.71,3.23a11.47,11.47,0,0,0-1.61,5.42l-13.54-1.42c1-5.61,2.13-8.45,4.71-11.48C173.31,2.32,179.17,0,186.72,0c8.71,0,15.35,2.9,18.57,8.13a13.89,13.89,0,0,1,2.13,7.55,14.94,14.94,0,0,1-5.93,12c-2.13,1.87-2.77,2.32-9.35,6.9-5.61,3.87-8,6.13-9.48,9h15A81.9,81.9,0,0,0,208,43.08V55.27c-3.74-.32-6.45-.45-11-.45Z" class="cls-2"/>
            <rect width="311.81" height="56.69" x="132.62" y="129.5" class="cls-1"/>
            <rect width="311.81" height="56.69" x="132.62" y="185.64" class="cls-3"/>
            <rect width="311.81" height="56.69" x="132.62" y="355.72" class="cls-3"/>
            <line x1="86.03" x2="491.03" y1="128.94" y2="128.94" class="cls-4"/>
            <line x1="86.03" x2="491.03" y1="185.64" y2="185.64" class="cls-4"/>
            <line x1="86.03" x2="491.03" y1="299.02" y2="299.02" class="cls-4"/>
            <line x1="86.03" x2="491.03" y1="582.49" y2="582.49" class="cls-4"/>
            <path d="M265.14,158.51c-2,0-2.67,0-2.81,0s-.23,0-.23-.23v-1.7c0-.23,0-.25.23-.25s.83,0,2.81,0h1.54v-2.23h-.94c-1.84,0-2.46,0-2.6,0s-.25,0-.25-.25v-1.66c0-.23,0-.25.25-.25s.76,0,2.6,0h.94a17.56,17.56,0,0,0-.16-3c.83,0,1.59.07,2.3.16.23,0,.35.12.35.25a1,1,0,0,1-.12.39,7.14,7.14,0,0,0-.12,1.75v.46h.34c1.86,0,2.44,0,2.58,0s.28,0,.28.25V154c0,.23,0,.25-.28.25s-.71,0-2.58,0h-.34v2.23h.64c2,0,2.67,0,2.81,0s.25,0,.25.25v1.7c0,.21,0,.23-.25.23s-.83,0-2.81,0h-.51v2.55h1.38c1,0,1.45,0,1.59,0s.25,0,.25.25v1.68c0,.21,0,.23-.25.23s-.55,0-1.59,0h-1.38v3.5a14.6,14.6,0,0,0,5.5.8,68.9,68.9,0,0,0,8.81-.53,5.5,5.5,0,0,0-.67,1.79c-.14.74-.14.74-.85.78-2.39.18-4.48.23-7.11.23-3.13,0-5.36-.39-7-1.36a7.45,7.45,0,0,1-2.94-2.85,20.1,20.1,0,0,1-1.27,3.77c-.18.39-.3.58-.44.58s-.23-.16-.41-.44a4.6,4.6,0,0,0-1.15-1.24,15.2,15.2,0,0,0,1.89-7.11,10.58,10.58,0,0,0,0-1.47,17.06,17.06,0,0,1,1.93.32c.28.07.39.14.39.28a1,1,0,0,1-.12.34,3.32,3.32,0,0,0-.16.9c0,.6-.12,1.22-.21,1.84a7.7,7.7,0,0,0,1.68,2v-6.81Zm10.74-5.89c-1.75,0-2.28,0-2.42,0s-.25,0-.25-.25v-1.66c0-.23,0-.25.25-.25s.67,0,2.42,0h3.33c1.4,0,2,0,2.12,0s.28,0,.28.25,0,.8,0,2.25v3.08c0,1.45,0,2.12,0,2.25s0,.23-.28.23-.71,0-2.12,0h-3.36v4.19c0,.48,0,.74.16.9s.8.3,2,.3,1.66-.07,2-.41.44-.92.48-2.42a7,7,0,0,0,1.54.64c.71.18.71.18.69.92a3.83,3.83,0,0,1-1.06,2.69c-.6.53-1.52.8-3.82.8s-3.27-.21-3.7-.6-.58-.85-.58-1.82V158.9c0-1.38,0-2.07,0-2.21s0-.28.25-.28.74,0,2,0h3.47v-3.84Z" class="cls-2"/>
            <path d="M298,160.12c-2.25,0-3,0-3.17,0s-.25,0-.25-.25v-1.75c0-.23,0-.25.25-.25s.92,0,3.17,0h2.35v-.74a15.33,15.33,0,0,0-.16-2.74c.83,0,1.56.07,2.35.16.23,0,.37.14.37.25a2.54,2.54,0,0,1-.16.6,8,8,0,0,0-.12,1.7V158h3.31c2.25,0,3,0,3.17,0s.25,0,.25.25v1.75c0,.23,0,.25-.25.25s-.92,0-3.17,0h-2.3a19.67,19.67,0,0,0,7,6.07,6.81,6.81,0,0,0-1.06,1.59c-.18.37-.25.53-.39.53s-.25-.09-.51-.28a21.56,21.56,0,0,1-6.07-6.21c0,5.15.12,7.34.12,8.14,0,.23,0,.25-.25.25h-1.91c-.23,0-.25,0-.25-.25,0-.78.09-3,.12-7.91a19.71,19.71,0,0,1-5.89,6.23,1.06,1.06,0,0,1-.48.28c-.16,0-.25-.16-.44-.53a6.38,6.38,0,0,0-1-1.33,14.79,14.79,0,0,1-1.15,2.69c-.16.28-.25.41-.37.41s-.23-.12-.44-.35a5.61,5.61,0,0,0-1.52-1.33A13.46,13.46,0,0,0,291,163a42,42,0,0,0,.41-6.69c0-2.94,0-4.28,0-4.42s0-.28.25-.28.9,0,3.08,0h4.78v-.81a9.35,9.35,0,0,0-.16-1.86c.87,0,1.68.07,2.44.14.23,0,.39.14.39.23a1.07,1.07,0,0,1-.14.44,2.26,2.26,0,0,0-.18,1v.87h4.6c2.18,0,2.94,0,3.08,0s.25,0,.25.28v1.7c0,.23,0,.25-.25.25s-.9,0-3.08,0H293.79v3a39.16,39.16,0,0,1-.51,7.34,17.79,17.79,0,0,1-.6,2.37,17.39,17.39,0,0,0,6.58-6.37Z" class="cls-2"/>
            <path d="M266.33,218.83v-1.68h-.64c-1.7,0-2.25,0-2.42,0s-.25,0-.25-.23,0-.76,0-2.14V211.5c0-1.36,0-2,0-2.12s0-.25.25-.25.69,0,2.39,0h.67v-1.66h-1.2c-1.93,0-2.58,0-2.71,0s-.28,0-.28-.25v-1.47c0-.23,0-.25.28-.25s.78,0,2.71,0h1.2a18.78,18.78,0,0,0-.14-2.53,21.38,21.38,0,0,1,2.3.16c.21,0,.32.12.32.25a1,1,0,0,1-.11.39,3.2,3.2,0,0,0-.14,1.31v.41h1.13c1.93,0,2.58,0,2.71,0s.28,0,.28.25v1.47c0,.23,0,.25-.28.25s-.78,0-2.71,0h-1.13v1.66h.58c1.68,0,2.25,0,2.42,0s.25,0,.25.25,0,.76,0,2.12v3.33c0,1.38,0,2,0,2.14s0,.23-.25.23-.74,0-2.42,0h-.58v1.68h.55c1.93,0,2.6,0,2.74,0s.25,0,.25.25v1.47c0,.25,0,.28-.25.28s-.8,0-2.74,0h-.55v0c0,2.07,0,3.08,0,3.2s0,.25-.23.25h-1.82c-.25,0-.28,0-.28-.25s0-1.15,0-3.24h-1.4c-1.93,0-2.6,0-2.74,0s-.25,0-.25-.28V219c0-.23,0-.25.25-.25s.81,0,2.74,0Zm-1.2-6.51h4.58v-1.4h-4.58Zm4.58,1.68h-4.58v1.4h4.58Zm12.1,4.37c0,1,0,2.23,0,3.17a2.27,2.27,0,0,1-.64,1.86c-.48.41-1.08.6-2.85.6-.71,0-.71,0-.85-.69a5.78,5.78,0,0,0-.64-1.66c.71,0,1.17.07,1.89.07s.8-.18.8-.74v-4.14h-3.79a11.48,11.48,0,0,1-2.87,6.92c-.25.28-.37.41-.51.41s-.25-.12-.51-.37a5,5,0,0,0-1.4-1c2.71-2.71,3.29-4.72,3.29-11.62v-3.33c0-2.23,0-3.38,0-3.54s0-.25.25-.25.71,0,2.39,0h2.85c1.68,0,2.23,0,2.39,0s.25,0,.25.25,0,1.31,0,3.54Zm-2.25-3.59v-3.27H276c0,1.22,0,2.3-.09,3.27ZM276,206.28v3.17h3.54v-3.17Z" class="cls-2"/>
            <path d="M293.38,212.72c0-1.13,0-1.93,0-2.44a25.05,25.05,0,0,1-2.39,1.06,2,2,0,0,1-.53.16c-.18,0-.25-.16-.44-.6a4.61,4.61,0,0,0-.92-1.5,19.69,19.69,0,0,0,8.79-5.31,5,5,0,0,0,.94-1.33,16.89,16.89,0,0,1,2.42.44c.21,0,.39.14.39.25s-.07.18-.23.28l-.07,0a21.79,21.79,0,0,0,9.75,5.29,5.42,5.42,0,0,0-.87,1.61c-.16.44-.23.6-.41.6a1.72,1.72,0,0,1-.55-.14,21.06,21.06,0,0,1-2.76-1.15c0,.34,0,.94,0,1.91v3c0,.71,0,1.22,0,1.59.67.39,1.22.74,1.75,1.1.16.12.28.23.28.37s-.14.25-.34.3a2.48,2.48,0,0,0-.74.41c-.78.58-1.54,1.15-2.67,1.86a26.94,26.94,0,0,0,5.68,1.43,6.28,6.28,0,0,0-.87,1.61c-.25.64-.28.69-1,.51-3.29-.8-5.8-1.79-7.77-3.52a7.33,7.33,0,0,0-.12,1c0,.76,0,.76-.74.9-2.81.58-5.54,1.08-7.66,1.4a3.19,3.19,0,0,0-.9.28.67.67,0,0,1-.39.14q-.17,0-.28-.34c-.16-.62-.32-1.47-.44-2.23,1,0,1.63-.09,2.46-.18l.64,0Zm5.43-3.31v-.18a11.58,11.58,0,0,0-.16-2.16c.85,0,1.5.07,2.32.16.23,0,.34.14.34.25a.73.73,0,0,1-.14.46,1.91,1.91,0,0,0-.14,1v.46h2c1.08,0,1.84,0,2.37,0a19.94,19.94,0,0,1-5.38-4.25,21.28,21.28,0,0,1-5.08,4.28Zm-3.06,1.77v1.29h8.42v-1.29Zm8.42,3h-8.42v1.4h8.42Zm-8.42,7c1.52-.23,3.08-.51,4.81-.85a12,12,0,0,1-2.3-2.94h-2.51Zm5-3.79a7.69,7.69,0,0,0,2,2.09,21.87,21.87,0,0,0,2.78-2.07c-.53,0-1.36,0-2.58,0Z" class="cls-2"/>
            <path d="M222,376.83c-1.5,0-2.81.07-3.79.11-.3,0-.39-.14-.44-.46s-.16-1.66-.21-2.32a40.74,40.74,0,0,0,4.42.16h8.21a2.2,2.2,0,0,0,1.26-.23.66.66,0,0,1,.34-.09,1.14,1.14,0,0,1,.44.12,7.08,7.08,0,0,1,1.68,1.52.58.58,0,0,1,.16.39.79.79,0,0,1-.32.58,2.76,2.76,0,0,0-.53.9A27.07,27.07,0,0,1,228.8,385a25.79,25.79,0,0,1-6.53,5.47,1.11,1.11,0,0,1-.62.21.8.8,0,0,1-.58-.25,6.82,6.82,0,0,0-2.14-1.26,22.25,22.25,0,0,0,7.52-5.75,19.36,19.36,0,0,0,3.89-6.55Z" class="cls-2"/>
            <path d="M244.35,375.82a15.77,15.77,0,0,0-.25-3.36,17.2,17.2,0,0,1,2.85.48c.28.07.39.21.39.37a1,1,0,0,1-.09.35,5.28,5.28,0,0,0-.25,2.18v4.65c0,1.2,0,2.09.07,2.9,0,.34-.14.46-.51.46h-1.84c-.32,0-.46-.12-.44-.39,0-.8.07-2.14.07-3.13Zm10.83,4.3c0,3.4-.51,5.68-1.86,7.5a11.87,11.87,0,0,1-5.06,3.61,1.43,1.43,0,0,1-.48.12.75.75,0,0,1-.55-.28,7.47,7.47,0,0,0-2-1.4,11.23,11.23,0,0,0,5.61-3.36c1.06-1.31,1.54-3.22,1.54-6.14v-4.35a16.88,16.88,0,0,0-.25-3.75,14.45,14.45,0,0,1,3,.51.39.39,0,0,1,.32.39.74.74,0,0,1-.09.37,6.92,6.92,0,0,0-.21,2.51Z" class="cls-2"/>
            <path d="M269.28,383.11a18.29,18.29,0,0,0-3.38.28c-.28,0-.46-.14-.53-.48a24.81,24.81,0,0,1-.34-2.78,29.71,29.71,0,0,0,5,.28h7.41c1.75,0,3.52,0,5.29-.07.34,0,.41,0,.41.32a17,17,0,0,1,0,2.16c0,.28-.09.37-.41.35-1.73,0-3.43,0-5.13,0Z" class="cls-2"/>
            <path d="M303.5,374.92a2.26,2.26,0,0,0,1.26-.34.68.68,0,0,1,.39-.16.79.79,0,0,1,.41.18,7.4,7.4,0,0,1,1.56,1.4.56.56,0,0,1,.18.41.59.59,0,0,1-.25.44,2.88,2.88,0,0,0-.69.88,36,36,0,0,1-3.38,5.57,20.33,20.33,0,0,1,2.48,2.32.46.46,0,0,1,.14.32.45.45,0,0,1-.14.3,14.17,14.17,0,0,1-1.43,1.45.48.48,0,0,1-.28.12.41.41,0,0,1-.25-.14,25.27,25.27,0,0,0-2.23-2.23,28,28,0,0,1-7.34,5.75,1.25,1.25,0,0,1-.58.21.7.7,0,0,1-.44-.21,6.56,6.56,0,0,0-2.18-1.17,27.87,27.87,0,0,0,8.46-6.23,19.27,19.27,0,0,0-3.31-2.16c.51-.55,1-1.15,1.52-1.63a.44.44,0,0,1,.3-.16.59.59,0,0,1,.23.09,22.87,22.87,0,0,1,3,1.84,22.22,22.22,0,0,0,2.69-4.55l-5.7.12a27.89,27.89,0,0,1-4.92,5.18.84.84,0,0,1-.46.21.52.52,0,0,1-.37-.16,9.61,9.61,0,0,0-1.93-1.06,25.64,25.64,0,0,0,6.51-7.22,8.48,8.48,0,0,0,1.24-2.83,14.64,14.64,0,0,1,2.69,1.13.4.4,0,0,1,.25.37.62.62,0,0,1-.28.46,1.9,1.9,0,0,0-.48.48c-.18.32-.32.55-.71,1.15Z" class="cls-2"/>
            <path d="M325.88,385.91c0,1.59,0,2.94.07,4.79,0,.3-.09.39-.35.39a19.64,19.64,0,0,1-2.3,0c-.25,0-.34-.09-.32-.37,0-1.66.09-3.15.09-4.71v-5.36a39.67,39.67,0,0,1-6.33,4.42.64.64,0,0,1-.83-.14,8.58,8.58,0,0,0-2-1.36,36.86,36.86,0,0,0,7.25-4.71,37.4,37.4,0,0,0,4.9-4.81,6.67,6.67,0,0,0,1.45-2.37,20.34,20.34,0,0,1,2.55,1.61.41.41,0,0,1,.18.35.66.66,0,0,1-.32.51,7.46,7.46,0,0,0-1.38,1.27,36.55,36.55,0,0,1-2.69,2.9Z" class="cls-2"/>
            <path d="M347.2,373.33c.16.12.28.23.28.37a.78.78,0,0,1-.23.46,7.37,7.37,0,0,0-.94,1.91c-1.29,3.52-2.51,6.9-4,10.35,3.54-.3,5.47-.48,8.05-.87a22.81,22.81,0,0,0-2.55-3.68c.69-.37,1.36-.76,2-1.11.25-.14.39,0,.55.14a32.37,32.37,0,0,1,4.65,7.52.55.55,0,0,1,.09.3c0,.14-.09.28-.3.39a11.59,11.59,0,0,1-1.75.94.62.62,0,0,1-.28.07c-.14,0-.25-.12-.32-.32-.28-.64-.53-1.24-.8-1.84-3.68.55-7.18.94-10.93,1.33a7.78,7.78,0,0,0-2.69.55c-.3.14-.55.09-.67-.23a21.34,21.34,0,0,1-.81-3c.92.07,1.89,0,2.81,0,1.63-4.12,2.83-7.52,4-11.38a12.25,12.25,0,0,0,.67-3.15A12.45,12.45,0,0,1,347.2,373.33Z" class="cls-2"/>
            <rect width="311.81" height="56.69" x="132.62" y="695.87" class="cls-3"/>
            <path d="M271.62,726.51c0,1,0,2.16,0,3.08a2.39,2.39,0,0,1-.58,1.91c-.44.34-1,.46-2.48.48-.71,0-.71,0-.87-.69a4.92,4.92,0,0,0-.57-1.47c.8.07,1.43.09,2,.09s.6-.18.6-.74V726h-4.6a14.31,14.31,0,0,1-1.36,5.54c-.16.3-.25.44-.37.44s-.18-.09-.32-.25a5.65,5.65,0,0,0-1.31-1.22c1.2-2.21,1.59-4.3,1.59-8.81v-3.1l-.18.21c-.18.21-.3.32-.39.32s-.21-.16-.37-.46a4.71,4.71,0,0,0-.9-1.17,14.53,14.53,0,0,0,3.11-4.83,5.91,5.91,0,0,0,.44-1.56,14.15,14.15,0,0,1,1.93.46c.25.07.37.18.37.32a.48.48,0,0,1-.18.37,2.41,2.41,0,0,0-.48.78H269a1.08,1.08,0,0,0,.44-.07.57.57,0,0,1,.3-.09c.12,0,.25.07.76.48s.57.53.57.67,0,.25-.25.41a2,2,0,0,0-.46.64c-.3.62-.6,1.2-.9,1.7,1.36,0,1.84,0,2,0s.28,0,.28.25,0,1,0,2.67Zm-4.37-9.75a17.79,17.79,0,0,0,1-2h-2.28a20,20,0,0,1-1.2,2Zm-.64,7.45v-2H265.3c0,.71,0,1.4,0,2Zm0-3.77v-1.93H265.3v1.93Zm1.82-1.93v1.93h1.31v-1.93Zm1.31,5.7v-2h-1.31v2Zm7-3a9.18,9.18,0,0,0-.14-1.77c.76,0,1.56.07,2.21.14.21,0,.3.09.3.23a1.1,1.1,0,0,1-.12.39,2.94,2.94,0,0,0-.12,1v.6c2.28,0,3.08,0,3.22,0s.25,0,.25.25v1.54c0,.25,0,.28-.25.28s-.94,0-3.22,0v2.14h1c2,0,2.67,0,2.81,0s.25,0,.25.25v1.59c0,.25,0,.28-.25.28s-.8,0-2.81,0h-1v.92c0,1.91,0,2.85,0,3s0,.25-.25.25h-1.7c-.25,0-.28,0-.28-.25s0-1.06,0-3v-.92h-1.33c-2,0-2.69,0-2.83,0s-.25,0-.25-.28v-1.59c0-.23,0-.25.25-.25s.83,0,2.83,0h1.33v-2.14h-2.14c-.16.41-.34.78-.51,1.15s-.28.51-.41.51a1.13,1.13,0,0,1-.53-.28,7.31,7.31,0,0,0-1.29-.55,14.7,14.7,0,0,0,1.54-3.4,6,6,0,0,0,.23-1.24,16.23,16.23,0,0,1,1.73.48c.25.09.37.16.37.28a.37.37,0,0,1-.07.25,1.74,1.74,0,0,0-.3.71l0,.12h1.43Zm-4.25-8.72c0-.23,0-.25.25-.25s.76,0,2.67,0h3.89c1.89,0,2.53,0,2.67,0s.3.07.28.28l0,1.15a12.18,12.18,0,0,1-.57,4.21,2.22,2.22,0,0,1-2.16,1.15,11.88,11.88,0,0,1-1.22,0c-.62-.07-.69-.07-.74-.6a4.44,4.44,0,0,0-.44-1.61,9.07,9.07,0,0,0,1.63.18c.67,0,.85-.12,1-.58a9.57,9.57,0,0,0,.25-2.16h-2.53a7,7,0,0,1-3.45,5.27c-.25.16-.39.25-.51.25s-.23-.14-.44-.46a4.45,4.45,0,0,0-1.13-1.15c2-1,2.92-2,3.27-3.91-1.7,0-2.3,0-2.42,0s-.25,0-.25-.25Z" class="cls-2"/>
            <path d="M292.67,719.56c-2,0-2.71,0-2.85,0s-.25,0-.25-.25v-1.5c0-.23,0-.25.25-.25s.69,0,2.21,0v-2l-1.7,0c-.25,0-.28,0-.28-.28V714c0-.23,0-.25.28-.25s.53,0,1.7,0a15.49,15.49,0,0,0-.16-2.6c.83,0,1.4.07,2.18.16.25,0,.37.14.37.25a1.67,1.67,0,0,1-.16.55,6.13,6.13,0,0,0-.11,1.63h2.18a15.39,15.39,0,0,0-.16-2.6c.83,0,1.4.07,2.19.16.28,0,.39.14.39.25a1.92,1.92,0,0,1-.16.6,5.38,5.38,0,0,0-.14,1.59c1.13,0,1.54,0,1.66,0s.25,0,.25.25v1.5c0,.25,0,.28-.25.28l-1.66,0v2c1.26,0,1.77,0,1.89,0s.25,0,.25.25v1.54a21.79,21.79,0,0,0,2.32-6.3,13.87,13.87,0,0,0,.32-2c.78.14,1.4.28,2.09.46.3.07.46.18.46.35a.52.52,0,0,1-.16.37,3.9,3.9,0,0,0-.46,1.2l-.51,1.77h2.78c2.07,0,2.78,0,2.92,0s.25,0,.25.25V717c0,.25,0,.28-.25.28s-.46,0-1.24,0a20.32,20.32,0,0,1-2.28,8.85,16.46,16.46,0,0,0,4.21,3.63,5.6,5.6,0,0,0-1.08,1.63c-.16.37-.25.51-.39.51s-.28-.09-.55-.28a20.31,20.31,0,0,1-3.54-3.47,15.9,15.9,0,0,1-4,3.57,1.15,1.15,0,0,1-.53.23c-.16,0-.25-.14-.46-.48a6.42,6.42,0,0,0-1.06-1.26,1.75,1.75,0,0,1-.51,1.22c-.39.32-.71.48-2.28.51-.71,0-.74,0-.85-.53a6.71,6.71,0,0,0-.55-1.47c.53,0,.83.07,1.26.07.64,0,.78-.23.78-.69v-1.17h-4.09v.67c0,2,0,2.94,0,3.06s0,.25-.28.25h-1.68c-.23,0-.25,0-.25-.25s0-1,0-3v-5.36c0-1.7,0-2.46,0-2.6s0-.28.25-.28.74,0,2.44,0h3.06c1.7,0,2.28,0,2.42,0s.25,0,.25.46c0,.14,0,.83,0,2.6v2.76c0,1.15,0,2.42,0,3.13a3.83,3.83,0,0,1,0,.53,13.86,13.86,0,0,0,4.74-3.91,21.15,21.15,0,0,1-2-5.15c-.23.41-.51.83-.78,1.27-.18.25-.3.37-.41.37s-.23-.12-.41-.39A4.8,4.8,0,0,0,299.5,721a11.29,11.29,0,0,0,.94-1.38h-.12c-.14,0-.83,0-2.87,0Zm.51,3v1.13h4.09v-1.13Zm4.09,3.93v-1.15h-4.09v1.15Zm-.94-8.81v-2h-2.18v2Zm7.61-.39c-.09.28-.21.53-.3.78a20.07,20.07,0,0,0,1.82,5.93,19.87,19.87,0,0,0,1.43-6.72Z" class="cls-2"/>
            <path d="M12.4,124.71a5.79,5.79,0,0,1,1.81-4.51,5.64,5.64,0,0,1,4-1.57,6,6,0,0,1,3.7,1.22,5.71,5.71,0,0,1,2,3.58h-3a2.68,2.68,0,0,0-2.69-1.78q-2.82.06-2.87,3.25v2a12.09,12.09,0,0,1,3.91-.65,4.71,4.71,0,0,1,3.44,1.39A6.14,6.14,0,0,1,24,132.1V134a6,6,0,0,1-1.76,4.49,5.84,5.84,0,0,1-4.06,1.59A5.82,5.82,0,0,1,12.4,134Zm2.92,9.16q.06,3.21,2.88,3.24t2.9-3.24v-1.73Q21,129,18.21,128.9t-2.88,3.24Z" class="cls-5"/>
            <path d="M29.89,124.38h2.79v2.87H29.89Zm0,6.43h2.79v2.87H29.89Z" class="cls-5"/>
            <path d="M38.31,124.7a5.77,5.77,0,0,1,1.81-4.5,5.64,5.64,0,0,1,4-1.56,5.73,5.73,0,0,1,4.06,1.57,6,6,0,0,1,1.76,4.51V134a6,6,0,0,1-1.76,4.5,5.84,5.84,0,0,1-4.06,1.59A5.82,5.82,0,0,1,38.31,134Zm8.7.19q-.08-3.18-2.9-3.24t-2.88,3.24v9q.06,3.21,2.88,3.24t2.9-3.24Z" class="cls-5"/>
            <path d="M53.92,124.7a5.77,5.77,0,0,1,1.81-4.5,5.64,5.64,0,0,1,4-1.56,5.73,5.73,0,0,1,4.06,1.57,6,6,0,0,1,1.76,4.51V134a6,6,0,0,1-1.76,4.5,5.84,5.84,0,0,1-4.06,1.59A5.82,5.82,0,0,1,53.92,134Zm8.7.19q-.08-3.18-2.9-3.24t-2.88,3.24v9q.06,3.21,2.88,3.24t2.9-3.24Z" class="cls-5"/>
            <path d="M12.77,175.35H24.41v3L17.48,196.5H14.21l6.91-18.13H15.7v3.07H12.77Z" class="cls-5"/>
            <path d="M29.35,180.93h2.79v2.87H29.35Zm0,6.43h2.79v2.87H29.35Z" class="cls-5"/>
            <path d="M38.31,181.25a5.77,5.77,0,0,1,1.81-4.5,5.65,5.65,0,0,1,4-1.56,5.73,5.73,0,0,1,4.06,1.57,6,6,0,0,1,1.76,4.51v9.32a6,6,0,0,1-1.76,4.49,5.84,5.84,0,0,1-4.06,1.6,5.82,5.82,0,0,1-5.81-6.08Zm8.7.19q-.08-3.18-2.9-3.24t-2.88,3.24v9q.06,3.21,2.88,3.24t2.9-3.24Z" class="cls-5"/>
            <path d="M53.92,181.25a5.77,5.77,0,0,1,1.81-4.5,5.65,5.65,0,0,1,4-1.56,5.73,5.73,0,0,1,4.06,1.57,6,6,0,0,1,1.76,4.51v9.32a6,6,0,0,1-1.76,4.49,5.84,5.84,0,0,1-4.06,1.6,5.82,5.82,0,0,1-5.81-6.08Zm8.7.19q-.08-3.18-2.9-3.24t-2.88,3.24v9q.06,3.21,2.88,3.24t2.9-3.24Z" class="cls-5"/>
            <path d="M12.48,246.88a5.52,5.52,0,0,1,2.5-4.76,6.21,6.21,0,0,1-1.48-1.9,4.41,4.41,0,0,1-.62-2.38,6.06,6.06,0,0,1,1.73-4.37,5.51,5.51,0,0,1,4.14-1.74,5.65,5.65,0,0,1,4.21,1.74,6.17,6.17,0,0,1,1.67,4.36,4.75,4.75,0,0,1-.57,2.38,7.06,7.06,0,0,1-1.54,1.9,5.52,5.52,0,0,1,2.5,4.76,6.11,6.11,0,0,1-1.82,4.57,6.29,6.29,0,0,1-4.46,1.78,6.08,6.08,0,0,1-4.39-1.78A6,6,0,0,1,12.48,246.88Zm2.93,0a3.21,3.21,0,0,0,1,2.38,3.11,3.11,0,0,0,2.31,1,3.16,3.16,0,0,0,2.36-1,3.26,3.26,0,0,0,1-2.38,3.29,3.29,0,0,0-1-2.41,3.37,3.37,0,0,0-2.36-.95,3.32,3.32,0,0,0-2.31.95A3.24,3.24,0,0,0,15.41,246.85Zm.4-9.06a2.94,2.94,0,0,0,2.94,3,2.9,2.9,0,0,0,3-3,3,3,0,0,0-.89-2.29,3.09,3.09,0,0,0-2.06-.74,3,3,0,0,0-2,.74A2.94,2.94,0,0,0,15.8,237.79Z" class="cls-5"/>
            <path d="M29.89,237.48h2.79v2.87H29.89Zm0,6.43h2.79v2.87H29.89Z" class="cls-5"/>
            <path d="M38.31,237.8a5.77,5.77,0,0,1,1.81-4.5,5.64,5.64,0,0,1,4-1.56,5.72,5.72,0,0,1,4.06,1.57,6,6,0,0,1,1.76,4.51v9.32a6,6,0,0,1-1.76,4.5,5.84,5.84,0,0,1-4.06,1.59,5.82,5.82,0,0,1-5.81-6.08ZM47,238q-.08-3.18-2.9-3.24T41.24,238v9q.06,3.21,2.88,3.24T47,247Z" class="cls-5"/>
            <path d="M53.92,237.8a5.77,5.77,0,0,1,1.81-4.5,5.64,5.64,0,0,1,4-1.56,5.72,5.72,0,0,1,4.06,1.57,6,6,0,0,1,1.76,4.51v9.32a6,6,0,0,1-1.76,4.5,5.84,5.84,0,0,1-4.06,1.59,5.82,5.82,0,0,1-5.81-6.08Zm8.7.19q-.08-3.18-2.9-3.24T56.84,238v9q.06,3.21,2.88,3.24t2.9-3.24Z" class="cls-5"/>
            <path d="M12.4,294.36a5.78,5.78,0,0,1,1.81-4.51,5.64,5.64,0,0,1,4-1.57,5.73,5.73,0,0,1,4.06,1.57A6,6,0,0,1,24,294.36v9.32a6,6,0,0,1-1.76,4.5,5.89,5.89,0,0,1-7.69.32A5.61,5.61,0,0,1,12.52,305h3a2.62,2.62,0,0,0,2.68,1.77q2.8,0,2.89-3.24v-2a12.09,12.09,0,0,1-3.91.65,4.48,4.48,0,0,1-3.41-1.42,6,6,0,0,1-1.38-4.45Zm2.92,1.92q.06,3.21,2.88,3.24t2.9-3.24v-1.73q-.08-3.18-2.9-3.24t-2.88,3.24Z" class="cls-5"/>
            <path d="M29.89,294h2.79v2.87H29.89Zm0,6.43h2.79v2.87H29.89Z" class="cls-5"/>
            <path d="M38.31,294.36a5.77,5.77,0,0,1,1.81-4.5,5.64,5.64,0,0,1,4-1.56,5.73,5.73,0,0,1,4.06,1.57,6,6,0,0,1,1.76,4.51v9.32a6,6,0,0,1-1.76,4.5,5.84,5.84,0,0,1-4.06,1.59,5.82,5.82,0,0,1-5.81-6.08Zm8.7.19q-.08-3.18-2.9-3.24t-2.88,3.24v9q.06,3.21,2.88,3.24t2.9-3.24Z" class="cls-5"/>
            <path d="M53.92,294.36a5.77,5.77,0,0,1,1.81-4.5,5.64,5.64,0,0,1,4-1.56,5.73,5.73,0,0,1,4.06,1.57,6,6,0,0,1,1.76,4.51v9.32a6,6,0,0,1-1.76,4.5,5.84,5.84,0,0,1-4.06,1.59,5.82,5.82,0,0,1-5.81-6.08Zm8.7.19q-.08-3.18-2.9-3.24t-2.88,3.24v9q.06,3.21,2.88,3.24t2.9-3.24Z" class="cls-5"/>
            <path d="M3.45,348.21l-2.91,2.2v-3.23L3.45,345H6.38v21.15H3.45Z" class="cls-5"/>
            <path d="M12.4,350.91a5.77,5.77,0,0,1,1.81-4.5,5.65,5.65,0,0,1,4-1.56,5.73,5.73,0,0,1,4.06,1.57A6,6,0,0,1,24,350.92v9.32a6,6,0,0,1-1.76,4.49,5.84,5.84,0,0,1-4.06,1.6,5.82,5.82,0,0,1-5.81-6.08Zm8.7.19q-.08-3.18-2.9-3.24t-2.88,3.24v9q.06,3.21,2.88,3.24t2.9-3.24Z" class="cls-5"/>
            <path d="M29.89,350.59h2.79v2.87H29.89Zm0,6.43h2.79v2.87H29.89Z" class="cls-5"/>
            <path d="M38.31,350.91a5.77,5.77,0,0,1,1.81-4.5,5.65,5.65,0,0,1,4-1.56,5.73,5.73,0,0,1,4.06,1.57,6,6,0,0,1,1.76,4.51v9.32a6,6,0,0,1-1.76,4.49,5.84,5.84,0,0,1-4.06,1.6,5.82,5.82,0,0,1-5.81-6.08Zm8.7.19q-.08-3.18-2.9-3.24t-2.88,3.24v9q.06,3.21,2.88,3.24t2.9-3.24Z" class="cls-5"/>
            <path d="M53.92,350.91a5.77,5.77,0,0,1,1.81-4.5,5.65,5.65,0,0,1,4-1.56,5.73,5.73,0,0,1,4.06,1.57,6,6,0,0,1,1.76,4.51v9.32a6,6,0,0,1-1.76,4.49,5.84,5.84,0,0,1-4.06,1.6,5.82,5.82,0,0,1-5.81-6.08Zm8.7.19q-.08-3.18-2.9-3.24t-2.88,3.24v9q.06,3.21,2.88,3.24t2.9-3.24Z" class="cls-5"/>
            <path d="M4,404.76,1.08,407v-3.22L4,401.56H6.92v21.15H4Z" class="cls-5"/>
            <path d="M18.52,404.76,15.61,407v-3.22l2.91-2.18h2.92v21.15H18.52Z" class="cls-5"/>
            <path d="M29.89,407.14h2.79V410H29.89Zm0,6.43h2.79v2.87H29.89Z" class="cls-5"/>
            <path d="M38.31,407.46a5.78,5.78,0,0,1,1.81-4.5,5.65,5.65,0,0,1,4-1.56A5.73,5.73,0,0,1,48.18,403a6,6,0,0,1,1.76,4.51v9.32a6,6,0,0,1-1.76,4.49,5.84,5.84,0,0,1-4.06,1.6,5.82,5.82,0,0,1-5.81-6.08Zm8.7.19q-.08-3.18-2.9-3.24t-2.88,3.24v9q.06,3.21,2.88,3.24t2.9-3.24Z" class="cls-5"/>
            <path d="M53.92,407.46a5.78,5.78,0,0,1,1.81-4.5,5.65,5.65,0,0,1,4-1.56A5.73,5.73,0,0,1,63.79,403a6,6,0,0,1,1.76,4.51v9.32a6,6,0,0,1-1.76,4.49,5.84,5.84,0,0,1-4.06,1.6,5.82,5.82,0,0,1-5.81-6.08Zm8.7.19q-.08-3.18-2.9-3.24t-2.88,3.24v9q.06,3.21,2.88,3.24t2.9-3.24Z" class="cls-5"/>
            <path d="M3.45,461.32l-2.91,2.2V460.3l2.91-2.18H6.38v21.15H3.45Z" class="cls-5"/>
            <path d="M13.3,476.42l8-10.34a4,4,0,0,0,.63-1.16,4.46,4.46,0,0,0,.11-1,3.2,3.2,0,0,0-.72-2.08,2.7,2.7,0,0,0-2.12-.92,2.75,2.75,0,0,0-2,.8,3.52,3.52,0,0,0-1,2.25H13.3A6.58,6.58,0,0,1,15,459.66a5.41,5.41,0,0,1,4-1.71,5.78,5.78,0,0,1,4.29,1.74,6.26,6.26,0,0,1,.46,8l-6.6,8.53H25v3H13.3Z" class="cls-5"/>
            <path d="M30.43,463.7h2.79v2.87H30.43Zm0,6.43h2.79V473H30.43Z" class="cls-5"/>
            <path d="M38.31,464a5.77,5.77,0,0,1,1.81-4.5,5.65,5.65,0,0,1,4-1.56,5.73,5.73,0,0,1,4.06,1.57A6,6,0,0,1,49.94,464v9.32a6,6,0,0,1-1.76,4.49,5.84,5.84,0,0,1-4.06,1.6,5.82,5.82,0,0,1-5.81-6.08Zm8.7.19q-.08-3.18-2.9-3.24t-2.88,3.24v9q.06,3.21,2.88,3.24t2.9-3.24Z" class="cls-5"/>
            <path d="M53.92,464a5.77,5.77,0,0,1,1.81-4.5,5.65,5.65,0,0,1,4-1.56,5.73,5.73,0,0,1,4.06,1.57A6,6,0,0,1,65.55,464v9.32a6,6,0,0,1-1.76,4.49,5.84,5.84,0,0,1-4.06,1.6,5.82,5.82,0,0,1-5.81-6.08Zm8.7.19q-.08-3.18-2.9-3.24t-2.88,3.24v9q.06,3.21,2.88,3.24t2.9-3.24Z" class="cls-5"/>
            <path d="M2.91,517.87,0,520.07v-3.23l2.91-2.18H5.84v21.15H2.91Z" class="cls-5"/>
            <path d="M16.88,523.6h1a3.1,3.1,0,0,0,2.34-.86,2.92,2.92,0,0,0,.83-2.16,3.14,3.14,0,0,0-.86-2.2,3,3,0,0,0-2.14-.86,2.66,2.66,0,0,0-1.72.63,3.18,3.18,0,0,0-1.1,1.94H12.32a6.25,6.25,0,0,1,1.84-4,5.26,5.26,0,0,1,3.79-1.62,5.78,5.78,0,0,1,4.44,1.84,6.19,6.19,0,0,1,1.6,4.18,6.49,6.49,0,0,1-.44,2.35,4.92,4.92,0,0,1-1.81,2A5.27,5.27,0,0,1,23.67,527a6,6,0,0,1,.57,2.55,6.33,6.33,0,0,1-1.78,4.68A6,6,0,0,1,18,536a5.52,5.52,0,0,1-3.71-1.39,6.67,6.67,0,0,1-2.09-4h2.94a4.3,4.3,0,0,0,1.11,1.71,2.73,2.73,0,0,0,1.94.68,2.91,2.91,0,0,0,2.18-.92,3.3,3.3,0,0,0,.93-2.44,3.45,3.45,0,0,0-.93-2.5,3.1,3.1,0,0,0-2.25-.86H16.88Z" class="cls-5"/>
            <path d="M29.89,520.25h2.79v2.87H29.89Zm0,6.43h2.79v2.87H29.89Z" class="cls-5"/>
            <path d="M38.31,520.57a5.77,5.77,0,0,1,1.81-4.5,5.64,5.64,0,0,1,4-1.56,5.72,5.72,0,0,1,4.06,1.57,6,6,0,0,1,1.76,4.51v9.32a6,6,0,0,1-1.76,4.5A5.84,5.84,0,0,1,44.12,536a5.82,5.82,0,0,1-5.81-6.08Zm8.7.19q-.08-3.18-2.9-3.24t-2.88,3.24v9q.06,3.21,2.88,3.24t2.9-3.24Z" class="cls-5"/>
            <path d="M53.92,520.57a5.77,5.77,0,0,1,1.81-4.5,5.64,5.64,0,0,1,4-1.56,5.72,5.72,0,0,1,4.06,1.57,6,6,0,0,1,1.76,4.51v9.32a6,6,0,0,1-1.76,4.5A5.84,5.84,0,0,1,59.73,536a5.82,5.82,0,0,1-5.81-6.08Zm8.7.19q-.08-3.18-2.9-3.24t-2.88,3.24v9q.06,3.21,2.88,3.24t2.9-3.24Z" class="cls-5"/>
            <path d="M3.45,574.42.54,576.63V573.4l2.91-2.18H6.38v21.15H3.45Z" class="cls-5"/>
            <path d="M11.66,586.37l6.84-15.15h3.26l-6.92,15.15h5.35v-6.09h2.92v6.09h1.64v2.85H23.12v3.15H20.19v-3.14H11.66Z" class="cls-5"/>
            <path d="M29.89,576.8h2.79v2.87H29.89Zm0,6.43h2.79v2.87H29.89Z" class="cls-5"/>
            <path d="M38.31,577.12a5.77,5.77,0,0,1,1.81-4.5,5.64,5.64,0,0,1,4-1.56,5.72,5.72,0,0,1,4.06,1.57,6,6,0,0,1,1.76,4.51v9.32a6,6,0,0,1-1.76,4.5,5.84,5.84,0,0,1-4.06,1.59,5.82,5.82,0,0,1-5.81-6.08Zm8.7.19q-.08-3.18-2.9-3.24t-2.88,3.24v9q.06,3.21,2.88,3.24t2.9-3.24Z" class="cls-5"/>
            <path d="M53.92,577.12a5.77,5.77,0,0,1,1.81-4.5,5.64,5.64,0,0,1,4-1.56,5.72,5.72,0,0,1,4.06,1.57,6,6,0,0,1,1.76,4.51v9.32a6,6,0,0,1-1.76,4.5,5.84,5.84,0,0,1-4.06,1.59,5.82,5.82,0,0,1-5.81-6.08Zm8.7.19q-.08-3.18-2.9-3.24t-2.88,3.24v9q.06,3.21,2.88,3.24t2.9-3.24Z" class="cls-5"/>
            <path d="M3.45,631l-2.91,2.2V630l2.91-2.18H6.38v21.15H3.45Z" class="cls-5"/>
            <path d="M13.29,627.78H24.2v3H16v4.81a5.08,5.08,0,0,1,3.28-1.16,6,6,0,0,1,2.17.43A4.74,4.74,0,0,1,23,636a5.14,5.14,0,0,1,1.23,2,7.45,7.45,0,0,1,.28,1.52q.08.91.08,2.25a13.54,13.54,0,0,1-.28,3.16,5.11,5.11,0,0,1-1,1.93,5.77,5.77,0,0,1-1.76,1.5,5.09,5.09,0,0,1-2.67.74,6.27,6.27,0,0,1-3.81-1.27,6,6,0,0,1-2.18-4.21h2.94a2.75,2.75,0,0,0,2.94,2.47,2.93,2.93,0,0,0,1.69-.44,2.2,2.2,0,0,0,.84-1.1,5.31,5.31,0,0,0,.31-1.48q0-.78,0-1.52a6.26,6.26,0,0,0-.55-2.95,2.22,2.22,0,0,0-.92-.86,3.82,3.82,0,0,0-1.51-.26,2.91,2.91,0,0,0-1.47.38A3.38,3.38,0,0,0,16,639.21H13.29Z" class="cls-5"/>
            <path d="M29.35,633.35h2.79v2.87H29.35Zm0,6.43h2.79v2.87H29.35Z" class="cls-5"/>
            <path d="M38.31,633.67a5.77,5.77,0,0,1,1.81-4.5,5.64,5.64,0,0,1,4-1.56,5.73,5.73,0,0,1,4.06,1.57,6,6,0,0,1,1.76,4.51V643a6,6,0,0,1-1.76,4.5,5.84,5.84,0,0,1-4.06,1.59A5.82,5.82,0,0,1,38.31,643Zm8.7.19q-.08-3.18-2.9-3.24t-2.88,3.24v9q.06,3.21,2.88,3.24t2.9-3.24Z" class="cls-5"/>
            <path d="M53.92,633.67a5.77,5.77,0,0,1,1.81-4.5,5.64,5.64,0,0,1,4-1.56,5.73,5.73,0,0,1,4.06,1.57,6,6,0,0,1,1.76,4.51V643a6,6,0,0,1-1.76,4.5,5.84,5.84,0,0,1-4.06,1.59A5.82,5.82,0,0,1,53.92,643Zm8.7.19q-.08-3.18-2.9-3.24t-2.88,3.24v9q.06,3.21,2.88,3.24t2.9-3.24Z" class="cls-5"/>
            <path d="M2.91,687.53,0,689.73v-3.23l2.91-2.18H5.84v21.15H2.91Z" class="cls-5"/>
            <path d="M12.4,690.24a5.79,5.79,0,0,1,1.81-4.51,5.64,5.64,0,0,1,4-1.57,6,6,0,0,1,3.7,1.22,5.71,5.71,0,0,1,2,3.58h-3a2.68,2.68,0,0,0-2.69-1.78q-2.82.06-2.87,3.25v2a12.06,12.06,0,0,1,3.91-.65,4.7,4.7,0,0,1,3.44,1.39A6.14,6.14,0,0,1,24,697.64v1.93a6,6,0,0,1-1.76,4.49,5.84,5.84,0,0,1-4.06,1.59,5.82,5.82,0,0,1-5.81-6.08Zm2.92,9.16q.06,3.21,2.88,3.24t2.9-3.24v-1.73q-.08-3.18-2.9-3.24t-2.88,3.24Z" class="cls-5"/>
            <path d="M29.35,689.91h2.79v2.87H29.35Zm0,6.43h2.79v2.87H29.35Z" class="cls-5"/>
            <path d="M38.31,690.23a5.77,5.77,0,0,1,1.81-4.5,5.64,5.64,0,0,1,4-1.56,5.73,5.73,0,0,1,4.06,1.57,6,6,0,0,1,1.76,4.51v9.32a6,6,0,0,1-1.76,4.49,5.84,5.84,0,0,1-4.06,1.6,5.82,5.82,0,0,1-5.81-6.08Zm8.7.19q-.08-3.18-2.9-3.24t-2.88,3.24v9q.06,3.21,2.88,3.24t2.9-3.24Z" class="cls-5"/>
            <path d="M53.92,690.23a5.77,5.77,0,0,1,1.81-4.5,5.64,5.64,0,0,1,4-1.56,5.73,5.73,0,0,1,4.06,1.57,6,6,0,0,1,1.76,4.51v9.32a6,6,0,0,1-1.76,4.49,5.84,5.84,0,0,1-4.06,1.6,5.82,5.82,0,0,1-5.81-6.08Zm8.7.19q-.08-3.18-2.9-3.24t-2.88,3.24v9q.06,3.21,2.88,3.24t2.9-3.24Z" class="cls-5"/>
            <path d="M3.45,745.65l-2.91,2.2v-3.23l2.91-2.18H6.38v21.15H3.45Z" class="cls-5"/>
            <path d="M13.31,742.45H25v3L18,763.59H14.75l6.91-18.13H16.24v3.07H13.31Z" class="cls-5"/>
            <path d="M29.35,748h2.79v2.87H29.35Zm0,6.43h2.79v2.87H29.35Z" class="cls-5"/>
            <path d="M38.31,748.34a5.77,5.77,0,0,1,1.81-4.5,5.64,5.64,0,0,1,4-1.56,5.73,5.73,0,0,1,4.06,1.57,6,6,0,0,1,1.76,4.51v9.32a6,6,0,0,1-1.76,4.5,5.84,5.84,0,0,1-4.06,1.59,5.82,5.82,0,0,1-5.81-6.08Zm8.7.19q-.08-3.18-2.9-3.24t-2.88,3.24v9q.06,3.21,2.88,3.24t2.9-3.24Z" class="cls-5"/>
            <path d="M53.92,748.34a5.77,5.77,0,0,1,1.81-4.5,5.64,5.64,0,0,1,4-1.56,5.73,5.73,0,0,1,4.06,1.57,6,6,0,0,1,1.76,4.51v9.32a6,6,0,0,1-1.76,4.5,5.84,5.84,0,0,1-4.06,1.59,5.82,5.82,0,0,1-5.81-6.08Zm8.7.19q-.08-3.18-2.9-3.24t-2.88,3.24v9q.06,3.21,2.88,3.24t2.9-3.24Z" class="cls-5"/>
            <line x1="256.65" x2="491.03" y1="29.21" y2="29.21" class="cls-6"/>
            <line x1="256.65" x2="491.03" y1="42.51" y2="42.51" class="cls-7"/>
            <line x1="86.03" x2="491.03" y1="469.1" y2="469.1" class="cls-4"/>
            <rect width="311.81" height="113.39" x="132.62" y="242.33" class="cls-1"/>
            <path d="M213,303.43c0,.53.12.69.41.76a7.82,7.82,0,0,0,1.79.12,4.53,4.53,0,0,0,2-.3c.37-.28.55-.9.57-2.44a8.07,8.07,0,0,0,1.68.81c.57.21.57.21.51.78-.14,1.61-.44,2.21-1.08,2.67s-2.07.69-3.84.69a11.11,11.11,0,0,1-3.47-.32,1.51,1.51,0,0,1-.94-1.63V299.8h-2.07c-.67,3.89-3.08,6.26-7.06,7.08a2.63,2.63,0,0,1-.48.07c-.23,0-.3-.12-.53-.58a5.31,5.31,0,0,0-1.13-1.5c4.07-.51,6.21-2.21,6.67-5.08h0c-2.23,0-3,0-3.1,0s-.28,0-.28-.25,0-1,0-2.81V289.9c0-1.84,0-2.69,0-2.85s0-.25.28-.25.92,0,3.15,0h7.41c2.21,0,3,0,3.15,0s.25,0,.25.25,0,1,0,2.85v6.88c0,1.79,0,2.67,0,2.81s0,.25-.25.25-.94,0-3.15,0H213Zm-8-14.49v1.68h9.38v-1.68Zm9.38,5.24v-1.63H205v1.63Zm0,1.93H205v1.7h9.38Z" class="cls-2"/>
            <path d="M231.18,292a29.82,29.82,0,0,1,8.28-1.91c4.12,0,6.76,2.48,6.76,6.09,0,3-1.31,4.92-4,6.39a19.6,19.6,0,0,1-5.84,1.91c-.46.09-.64.07-.81-.37a4.26,4.26,0,0,0-1.61-1.82,21.61,21.61,0,0,0,6.23-1.7c2-1,3.17-2.46,3.17-4.58s-1.4-3.5-4-3.5c-2.07,0-4.81.83-8.3,2.37a14.66,14.66,0,0,0-1.59.83c-.32.28-.51.34-.62.34s-.41-.14-.67-.48a13.33,13.33,0,0,1-1.47-2.39A20.35,20.35,0,0,0,231.18,292Z" class="cls-2"/>
            <path d="M259.19,304.53c0,.16-.07.23-.3.32a5.71,5.71,0,0,1-1.59.48c-.28,0-.39,0-.53-.3a19.68,19.68,0,0,1-1.36-7.13,52.5,52.5,0,0,1,.69-7.36,24.75,24.75,0,0,0,.25-3.43,11.27,11.27,0,0,1,2.42.8c.37.18.51.34.51.51a.83.83,0,0,1-.14.46,12.9,12.9,0,0,0-.44,1.7,42.8,42.8,0,0,0-.87,6.9,19.61,19.61,0,0,0,.23,3.63c.58-1.22,1-2,1.54-3.29a6.71,6.71,0,0,0,.76,1.54.69.69,0,0,1,.21.44,1.73,1.73,0,0,1-.28.76,17.24,17.24,0,0,0-1,2.81,2.81,2.81,0,0,0-.07.6Zm8-10.42c-1.22.09-2.09.14-2.76.14-.48,0-1.08,0-1.93,0-.32,0-.51-.12-.53-.37-.09-.46-.14-1.08-.25-2.09.85.09,2,.11,2.85.11.64,0,1.73,0,2.55-.09,0-1.15,0-2.18-.14-3.06a7.19,7.19,0,0,0-.39-1.89,14,14,0,0,1,3,.32c.25.07.37.18.37.37a.93.93,0,0,1-.16.46,2.8,2.8,0,0,0-.12,1v2.55c1-.14,2-.3,2.94-.51.28-.07.39,0,.41.21.09.58.14,1.13.18,1.73,0,.3-.09.39-.3.41-1.1.21-2.12.34-3.17.46l0,3.54a12,12,0,0,1-1,5.34,8.09,8.09,0,0,1-3.29,3.56,1,1,0,0,1-.58.21.48.48,0,0,1-.46-.21,7.62,7.62,0,0,0-1.79-1.13,7.47,7.47,0,0,0,3.89-3.82,12.72,12.72,0,0,0,.71-5.13Z" class="cls-2"/>
            <path d="M287.39,295.54a6.92,6.92,0,0,1,3.66-1,5.34,5.34,0,0,1,5.7,5.52c0,3.84-3.1,6.3-8,6.3-2.9,0-4.65-1.24-4.65-3.38a3.05,3.05,0,0,1,3.24-2.81,4.19,4.19,0,0,1,4.32,3.36A3.46,3.46,0,0,0,294,300a3.36,3.36,0,0,0-3.61-3.47,9.37,9.37,0,0,0-5.89,2.44c-.67.6-1.31,1.26-2,2-.16.16-.28.25-.39.25a.57.57,0,0,1-.34-.21,10.33,10.33,0,0,1-1.36-1.5c-.14-.18-.07-.34.12-.53a55.3,55.3,0,0,0,5.45-5.08c1.43-1.47,2.51-2.62,3.56-3.93-1.38.25-3,.58-4.44.87a7,7,0,0,0-1,.28,1.68,1.68,0,0,1-.46.11.52.52,0,0,1-.51-.39,11.06,11.06,0,0,1-.8-2.48,11,11,0,0,0,2.14,0c1.4-.14,3.43-.44,5.22-.78a6.11,6.11,0,0,0,1.26-.35,1.2,1.2,0,0,1,.44-.18.82.82,0,0,1,.53.18,8.67,8.67,0,0,1,1.54,1.47.8.8,0,0,1,.25.55.61.61,0,0,1-.39.55,3.73,3.73,0,0,0-1,.74c-1.68,1.63-3.22,3.24-5,4.92Zm0,6.55c-.67,0-1.1.39-1.1.87,0,.71.62,1.2,2,1.2a5.07,5.07,0,0,0,1.06-.09C289.07,302.81,288.38,302.1,287.41,302.1Z" class="cls-2"/>
            <path d="M308.71,293.86c0,.81,0,1.93,0,2.76,0,.37,0,.39-.41.41-.64,0-1.38,0-2,0-.3,0-.44,0-.44-.25.07-.92.11-2,.11-2.92V291.7c0-1.33,0-2.14-.09-3,0-.14.12-.23.3-.23,1,0,2.46.09,3.84.09h7.75a2.39,2.39,0,0,0,1.4-.25.5.5,0,0,1,.3-.14.75.75,0,0,1,.44.21,10.54,10.54,0,0,1,1.7,1.52.63.63,0,0,1,.16.41.64.64,0,0,1-.21.44,3.73,3.73,0,0,0-.58,1.36,31.59,31.59,0,0,1-2.81,7.11,22.75,22.75,0,0,1-5.15,6.3.76.76,0,0,1-.55.25.75.75,0,0,1-.46-.16,6.83,6.83,0,0,0-2.21-.87,19.67,19.67,0,0,0,5.82-6.65,24.68,24.68,0,0,0,2.65-7.11h-9.57Z" class="cls-2"/>
            <path d="M334.47,298.07a18.35,18.35,0,0,0-3.38.28c-.28,0-.46-.14-.53-.48a24.84,24.84,0,0,1-.34-2.78,29.61,29.61,0,0,0,5,.28h7.41c1.75,0,3.52,0,5.29-.07.34,0,.41,0,.41.32a17,17,0,0,1,0,2.16c0,.28-.09.37-.41.35-1.73,0-3.43,0-5.13,0Z" class="cls-2"/>
            <path d="M368.44,290.39a2.13,2.13,0,0,0,1.15-.28.46.46,0,0,1,.3-.09.66.66,0,0,1,.37.14,10.58,10.58,0,0,1,1.56,1.24.75.75,0,0,1,.3.53.67.67,0,0,1-.28.48,2.76,2.76,0,0,0-.76,1,31.71,31.71,0,0,1-4.55,7.11,29.24,29.24,0,0,1-7,5.73.62.62,0,0,1-.37.12.81.81,0,0,1-.53-.25,6,6,0,0,0-2.18-1.06,26.52,26.52,0,0,0,7.66-5.87,23.44,23.44,0,0,0,4.25-6.53l-5.57.16a32,32,0,0,1-4.35,4.71.71.71,0,0,1-.48.25.55.55,0,0,1-.34-.14,6.24,6.24,0,0,0-2.21-1,27.29,27.29,0,0,0,6.19-6.83,9.83,9.83,0,0,0,1.36-3.1,11.3,11.3,0,0,1,2.69,1.22.48.48,0,0,1,.23.39.46.46,0,0,1-.25.39,2.5,2.5,0,0,0-.58.62l-.76,1.15Z" class="cls-2"/>
            <line x1="86.03" x2="491.03" y1="355.72" y2="355.72" class="cls-4"/>
            <line x1="86.03" x2="491.03" y1="242.33" y2="242.33" class="cls-4"/>
            <rect width="311.81" height="113.39" x="132.62" y="412.41" class="cls-1"/>
            <path d="M217.53,460.72c0,1.08,0,1.5,0,1.63s0,.25-.25.25l-2.09,0a14.8,14.8,0,0,0,4.74,7.91,6.34,6.34,0,0,0-1.33,1.47c-.21.28-.3.41-.41.41s-.23-.11-.48-.37a17.63,17.63,0,0,1-3.36-5.34v3.79c0,1.45,0,2.07,0,2.21s0,.25-.25.25-.83,0-2.78,0h-4c-2,0-2.64,0-2.81,0s-.25,0-.25-.25,0-.76,0-2.21v-3.89c0-1.43,0-2,0-2.21s0-.25.25-.25.85,0,2.81,0h4c1,0,1.66,0,2.07,0-.16-.51-.3-1-.44-1.56h-9.08a18.2,18.2,0,0,1-3,10.12c-.21.28-.3.41-.41.41s-.23-.14-.46-.39a7.46,7.46,0,0,0-1.54-1.27c2.42-2.76,3.11-6.26,3.11-11.13,0-2.07,0-3,0-3.17s0-.25.25-.25,1,0,3.22,0h9.11c2.28,0,3.08,0,3.2,0s.25,0,.25.25,0,.55,0,1.66Zm-14.77,15.66c-2.12,0-2.85,0-3,0s-.28,0-.28-.25v-1.72c0-.23,0-.25.28-.25s.87,0,3,0h12.9c2.12,0,2.85,0,3,0s.28,0,.28.25v1.72c0,.23,0,.25-.28.25s-.87,0-3,0Zm12.4-17.5H204v1.77h11.2Zm-8.6,8.69h5.61v-1.66h-5.61Zm5.61,1.7h-5.61V471h5.61Z" class="cls-2"/>
            <path d="M230.13,465.62c0-1.13,0-1.93,0-2.44a25.05,25.05,0,0,1-2.39,1.06,2,2,0,0,1-.53.16c-.18,0-.25-.16-.44-.6a4.61,4.61,0,0,0-.92-1.5,19.69,19.69,0,0,0,8.79-5.31,5,5,0,0,0,.94-1.33,16.89,16.89,0,0,1,2.42.44c.21,0,.39.14.39.25s-.07.18-.23.28l-.07,0a21.79,21.79,0,0,0,9.75,5.29,5.42,5.42,0,0,0-.87,1.61c-.16.44-.23.6-.41.6A1.72,1.72,0,0,1,246,464a21.06,21.06,0,0,1-2.76-1.15c0,.34,0,.94,0,1.91v3c0,.71,0,1.22,0,1.59.67.39,1.22.74,1.75,1.1.16.12.28.23.28.37s-.14.25-.34.3a2.48,2.48,0,0,0-.74.41c-.78.58-1.54,1.15-2.67,1.86a27,27,0,0,0,5.68,1.43,6.28,6.28,0,0,0-.87,1.61c-.25.64-.28.69-1,.51-3.29-.8-5.8-1.79-7.77-3.52a7.33,7.33,0,0,0-.12,1c0,.76,0,.76-.74.9-2.81.58-5.54,1.08-7.66,1.4a3.19,3.19,0,0,0-.9.28.67.67,0,0,1-.39.14q-.17,0-.28-.34c-.16-.62-.32-1.47-.44-2.23,1,0,1.63-.09,2.46-.18l.64,0Zm5.43-3.31v-.18a11.58,11.58,0,0,0-.16-2.16c.85,0,1.5.07,2.32.16.23,0,.34.14.34.25a.73.73,0,0,1-.14.46,1.91,1.91,0,0,0-.14,1v.46h2c1.08,0,1.84,0,2.37,0a19.94,19.94,0,0,1-5.38-4.25,21.28,21.28,0,0,1-5.08,4.28Zm-3.06,1.77v1.29h8.42v-1.29Zm8.42,3H232.5v1.4h8.42Zm-8.42,7c1.52-.23,3.08-.51,4.81-.85a12,12,0,0,1-2.3-2.94H232.5Zm5-3.79a7.69,7.69,0,0,0,2,2.09,21.87,21.87,0,0,0,2.78-2.07c-.53,0-1.36,0-2.58,0Z" class="cls-2"/>
            <path d="M260.91,466.51a2.3,2.3,0,1,1-2.3-2.3A2.31,2.31,0,0,1,260.91,466.51Z" class="cls-2"/>
            <path d="M284,473.58c0,.44.07.67.25.8s.64.23,1.68.23,1.54-.12,1.82-.37.48-.81.58-2.3a5,5,0,0,0,1.56.64c.62.16.67.18.57.78-.23,1.63-.53,2.32-1.22,2.76a6.32,6.32,0,0,1-3.31.58c-1.89,0-3-.09-3.57-.51s-.71-.78-.71-1.93v-3.79h-2.83c-.64,3.2-2.42,4.92-6.21,6.3a1.92,1.92,0,0,1-.51.16c-.18,0-.28-.16-.51-.58a5.29,5.29,0,0,0-1.17-1.49c3.59-.94,5.24-2,5.91-4.39h-1.73c-2.18,0-2.94,0-3.08,0s-.28,0-.28-.25v-1.66c0-.23,0-.25.28-.25s.9,0,3.08,0h2.07c0-.51,0-1.06,0-1.68v-.78l-1.5,0c-.25,0-.28,0-.28-.25v-.87a30.2,30.2,0,0,1-3.08,1.7,1.58,1.58,0,0,1-.53.18c-.18,0-.28-.18-.48-.6a5,5,0,0,0-.94-1.26,25.3,25.3,0,0,0,4.25-2.12,19.11,19.11,0,0,0-2.32-2.23c-.12-.09-.18-.16-.18-.23s.07-.12.18-.21l1.15-.92c.21-.16.25-.21.46,0a30.32,30.32,0,0,1,2.51,2.32,13.8,13.8,0,0,0,2.58-2.74h-2.58c-1.73,0-2.28,0-2.42,0s-.28,0-.28-.25v-1.59c0-.23,0-.25.28-.25s.69,0,2.42,0h3.17c1.29,0,1.93,0,2.09,0s.28,0,.39.28a7.15,7.15,0,0,0,1.06,2,5.48,5.48,0,0,0,.32.46,11.5,11.5,0,0,0,1.38-1.47,5.86,5.86,0,0,0,.64-1,17,17,0,0,1,1.77,1.06c.21.14.25.25.25.37s-.09.25-.3.34a2.27,2.27,0,0,0-.78.62,20.34,20.34,0,0,1-1.59,1.52c.41.37.83.74,1.26,1.06a19.6,19.6,0,0,0,2-1.91,5.57,5.57,0,0,0,.64-1c.67.37,1.27.71,1.79,1.06.21.14.28.25.28.39s-.12.25-.3.32a2.1,2.1,0,0,0-.8.62c-.51.51-1.1,1.06-1.77,1.63a22.07,22.07,0,0,0,3.75,1.56,6.44,6.44,0,0,0-.83,1.45c-.18.44-.25.6-.44.6a1.42,1.42,0,0,1-.53-.16,24.22,24.22,0,0,1-3.54-1.84v1.08c0,.23,0,.25-.25.25l-1.61,0v2.46h2.32c2.21,0,2.94,0,3.11,0s.25,0,.25.25v1.66c0,.23,0,.25-.25.25s-.9,0-3.11,0H284Zm.78-9.66a15.7,15.7,0,0,1-4.16-4.62,17.14,17.14,0,0,1-4.32,4.62Zm-3.13,4.49v-2.46h-2.53v.78c0,.6,0,1.15,0,1.68Z" class="cls-2"/>
            <path d="M300.88,467.57c-2,0-2.71,0-2.87,0s-.23,0-.23-.25v-1.61c0-.23,0-.25.23-.25s.83,0,2.88,0h5.8v-1.68h-3c-2.23,0-3,0-3.15,0s-.28,0-.28-.25v-1.54c0-.23,0-.25.28-.25s.92,0,3.15,0h3v-1.54h-4c-2.21,0-2.94,0-3.08,0s-.28,0-.28-.25v-1.59c0-.23,0-.25.28-.25s.87,0,3.08,0h4v-.23a9.81,9.81,0,0,0-.18-2.18c.83,0,1.72.07,2.53.16.23,0,.34.14.34.23a1.34,1.34,0,0,1-.12.51,2.53,2.53,0,0,0-.16,1.27v.25h4.42c2.23,0,3,0,3.11,0s.25,0,.25.25v1.59c0,.23,0,.25-.25.25s-.87,0-3.11,0h-4.42v1.54h3.45c2.25,0,3,0,3.17,0s.25,0,.25.25v1.54c0,.23,0,.25-.25.25s-.92,0-3.17,0h-3.45v1.68h6.19c2,0,2.74,0,2.88,0s.23,0,.23.25v1.61c0,.23,0,.25-.23.25s-.83,0-2.87,0h-4.95a11.42,11.42,0,0,0,1.77,2.9,13.34,13.34,0,0,0,2-1.77,3.92,3.92,0,0,0,.71-1,13,13,0,0,1,1.82,1.22.54.54,0,0,1,.23.34c0,.18-.09.28-.3.34a2.07,2.07,0,0,0-.76.46,24.12,24.12,0,0,1-2.3,1.79,13.24,13.24,0,0,0,5.36,2.69,6.23,6.23,0,0,0-1.22,1.61c-.21.39-.3.53-.48.53a2.37,2.37,0,0,1-.55-.16,14.63,14.63,0,0,1-8.58-9h-.28a18.89,18.89,0,0,1-1.84,1.72V474c1.56-.3,3.13-.67,4.85-1.13a6.43,6.43,0,0,0-.12,1.36c0,.71,0,.71-.74.9-2.83.74-5.5,1.26-7.64,1.63a2.31,2.31,0,0,0-.87.23.61.61,0,0,1-.37.14c-.16,0-.3-.07-.37-.32a21.47,21.47,0,0,1-.55-2.09c.9,0,1.77-.12,2.74-.23l.74-.09v-3.5a25,25,0,0,1-4.19,2,1.77,1.77,0,0,1-.53.14c-.21,0-.3-.16-.51-.58a5.28,5.28,0,0,0-1-1.29,19,19,0,0,0,7.38-3.66Z" class="cls-2"/>
            <path d="M326.43,460.6c.16-.21.21-.23.44-.14a15.12,15.12,0,0,1,3,1.68c.16.14.16.18,0,.44l-.9,1.24c-.21.3-.25.3-.48.14a14.4,14.4,0,0,0-2.92-1.77c-.12,0-.18-.11-.18-.18a.5.5,0,0,1,.14-.28Zm7.77,10.63c0-.57-.07-1-.14-1.63.85,0,1.68.07,2.48.16.18,0,.32.12.32.23a1.51,1.51,0,0,1-.16.48,2.9,2.9,0,0,0-.07.76h6c2,0,2.76,0,2.9,0s.25,0,.25.28v1.66c0,.23,0,.25-.25.25s-.85,0-2.9,0h-6v.85c0,1.75,0,2.51,0,2.62s0,.25-.25.25h-2c-.23,0-.25,0-.25-.25s0-.87,0-2.62v-.85h-5.68c-2,0-2.74,0-2.87,0s-.28,0-.28-.25v-1.66c0-.25,0-.28.28-.28s.83,0,2.88,0Zm-3.31-5.43a1.58,1.58,0,0,1,.12.48c0,.23-.14.41-.46.74a27.38,27.38,0,0,1-2.74,2.42,2.36,2.36,0,0,0-.55.58.38.38,0,0,1-.32.23c-.12,0-.21-.09-.32-.28a16.51,16.51,0,0,1-1.1-1.91,10.8,10.8,0,0,0,1.63-.92,21.94,21.94,0,0,0,3.29-2.92A13.87,13.87,0,0,0,330.89,465.8Zm-3.1-9.41a.34.34,0,0,1,.46-.11,17,17,0,0,1,3,1.82c.09.09.16.14.16.21s0,.12-.14.21l-.94,1.27c-.18.23-.3.23-.48.07a17.67,17.67,0,0,0-3-1.89c-.21-.12-.21-.16,0-.41Zm4.88,6.19a3.59,3.59,0,0,0-.3.3c-.23.23-.37.37-.51.37s-.25-.14-.48-.41a4.36,4.36,0,0,0-1.08-1,13.29,13.29,0,0,0,3.45-4.51,7.68,7.68,0,0,0,.48-1.45c.76.14,1.47.3,2.12.46.23.07.34.16.34.32s-.07.25-.25.39a2.66,2.66,0,0,0-.58.85c-.11.28-.28.55-.41.83h2.9a14.35,14.35,0,0,0,.67-1.45,7.25,7.25,0,0,0,.39-1.31,15.27,15.27,0,0,1,2.12.48c.16,0,.3.14.3.25s-.07.25-.23.39a1.22,1.22,0,0,0-.32.39c-.18.32-.46.83-.74,1.24H342c2,0,2.62,0,2.76,0s.28,0,.28.28v1.24c0,.25,0,.28-.28.28s-.8,0-2.76,0h-1.77v1.29h1.1c1.93,0,2.53,0,2.67,0s.28,0,.28.25v1.22c0,.23,0,.25-.28.25s-.74,0-2.67,0h-1.1v1.31h1.06c1.93,0,2.55,0,2.69,0s.25,0,.25.25v1.22c0,.23,0,.25-.25.25s-.76,0-2.69,0h-1.06v1.31H342c2.16,0,2.9,0,3,0s.28,0,.28.23v1.29c0,.23,0,.25-.28.25s-.87,0-3,0h-6c-2.18,0-3,0-3.1,0s-.25,0-.25-.25,0-1,0-2.69Zm5.5-.85v-1.29h-3.33v1.29Zm0,2.94v-1.31h-3.33v1.31Zm0,2.94v-1.31h-3.33v1.31Z" class="cls-2"/>
            <path d="M354.79,468.47c0-.85,0-2,0-3-.37.51-.78,1-1.2,1.52-.16.21-.3.32-.39.32s-.18-.14-.25-.41a6.61,6.61,0,0,0-.76-1.93,21.28,21.28,0,0,0,4.09-7.36,7.53,7.53,0,0,0,.39-1.61,18.26,18.26,0,0,1,2.07.64c.25.09.39.16.39.34s-.07.25-.25.41-.25.34-.46.94a31.46,31.46,0,0,1-1.38,3.38v11.66c0,2.23,0,3.36,0,3.47s0,.25-.25.25H355c-.23,0-.25,0-.25-.25s0-1.24,0-3.47Zm6.42-2.83a35.44,35.44,0,0,1-.44,6.1,16.92,16.92,0,0,1-1.56,4.6c-.14.25-.23.39-.34.39s-.23-.09-.39-.3a6.92,6.92,0,0,0-1.38-1.36,11.6,11.6,0,0,0,1.56-4.12,30,30,0,0,0,.34-5.36c0-2.18,0-3.17,0-3.31s0-.28.25-.28.94,0,3.2,0h7.89c2.25,0,3,0,3.15,0s.25,0,.25.28v1.45c0,.25,0,.28-.25.28s-.9,0-3.15,0h-9.08Zm1.24-7.54a9.82,9.82,0,0,0-.14-2c1,0,1.61.07,2.23.14.21,0,.3.09.3.21a.69.69,0,0,1-.12.34,3.66,3.66,0,0,0-.12,1.27v.09h2.92v-.12a9.47,9.47,0,0,0-.14-1.93c1,0,1.59.07,2.21.14.21,0,.32.09.32.21a.52.52,0,0,1-.12.34,3.06,3.06,0,0,0-.12,1.24v.12h.37c2.23,0,3,0,3.15,0s.25,0,.25.25v1.5c0,.23,0,.25-.25.25s-.92,0-3.15,0h-.37c0,.78,0,1.13,0,1.24s0,.25-.28.25h-1.72c-.23,0-.25,0-.25-.25s0-.46,0-1.24h-2.92c0,.78,0,1.13,0,1.24s0,.25-.25.25h-1.75c-.23,0-.25,0-.25-.25s0-.46,0-1.24h0c-2.21,0-3,0-3.1,0s-.25,0-.25-.25v-1.5c0-.23,0-.25.25-.25s.92,0,3.15,0Zm10.28,11.73c0,2.3.07,4,.07,4.81a2.17,2.17,0,0,1-.6,1.82,3.38,3.38,0,0,1-2.18.48c-.51,0-.55,0-.64-.53a4.81,4.81,0,0,0-.44-1.4c.39,0,.71,0,1.22,0s.55-.14.55-.6V473h-2.46v.67c0,1.66,0,2.46,0,2.6s0,.25-.25.25H366.5c-.23,0-.25,0-.25-.25s0-.94,0-2.6V473h-2.35v1.13c0,1.7,0,2.48,0,2.62s0,.25-.25.25h-1.61c-.23,0-.25,0-.25-.25s0-.87,0-2.62V468c0-1.72,0-2.53,0-2.64s0-.28.25-.28.87,0,2.88,0h4.65c2,0,2.71,0,2.88,0s.25,0,.25.28,0,.85,0,2.39Zm-6.44-1.56v-1.4h-2.35v1.4Zm0,3.13v-1.5h-2.35v1.5Zm2-4.53v1.4h2.46v-1.4Zm2.46,4.53v-1.5h-2.46v1.5Z" class="cls-2"/>
            <rect width="311.81" height="113.39" x="132.62" y="525.8" class="cls-3"/>
            <path d="M217.4,577a43.75,43.75,0,0,1-.55,6.69,15.42,15.42,0,0,1-2.12,5.87c-.16.28-.25.41-.34.41s-.23-.12-.44-.35a6.49,6.49,0,0,0-1.54-1.33,12.29,12.29,0,0,0,2.12-5.43,46.1,46.1,0,0,0,.48-7.54c0-3.27,0-4.74,0-4.88s0-.25.28-.25.94,0,3.15,0h10.72c2.21,0,3,0,3.15,0s.25,0,.25.25,0,.6,0,1.79v2.28c0,1.15,0,1.61,0,1.75s0,.25-.25.25-.94,0-3.15,0H217.4Zm12.72-4.69H217.4v2.14h12.72Zm-11.34,18.08c-.23,0-.25,0-.25-.25s0-.78,0-4.74V583c0-2.64,0-3.43,0-3.56s0-.25.25-.25.92,0,3.13,0h2a12.07,12.07,0,0,0-.14-2.32c.87,0,1.61,0,2.32.12.23,0,.37.11.37.25a1.11,1.11,0,0,1-.14.41,5.9,5.9,0,0,0-.12,1.54h2.25c2.21,0,3,0,3.15,0s.25,0,.25.25,0,.92,0,3.17v2.76c0,3.91,0,4.55,0,4.69s0,.28-.25.28h-1.84c-.23,0-.25,0-.25-.28v-.85h-8.74v1c0,.23,0,.25-.25.25Zm2-7.2H224V581.1h-3.13Zm3.13,4.12V585h-3.13v2.32Zm2.3-6.23v2.12h3.31V581.1Zm3.31,6.23V585h-3.31v2.32Z" class="cls-2"/>
            <path d="M245.62,588c0,.16-.07.23-.3.32a5.71,5.71,0,0,1-1.59.48c-.28,0-.39,0-.53-.3a19.68,19.68,0,0,1-1.36-7.13,52.5,52.5,0,0,1,.69-7.36,24.75,24.75,0,0,0,.25-3.43,11.27,11.27,0,0,1,2.42.8c.37.18.51.34.51.51a.83.83,0,0,1-.14.46,12.9,12.9,0,0,0-.44,1.7,42.8,42.8,0,0,0-.87,6.9,19.61,19.61,0,0,0,.23,3.63c.58-1.22,1-2,1.54-3.29a6.71,6.71,0,0,0,.76,1.54.69.69,0,0,1,.21.44,1.73,1.73,0,0,1-.28.76,17.24,17.24,0,0,0-1,2.81,2.81,2.81,0,0,0-.07.6Zm8-10.42c-1.22.09-2.09.14-2.76.14-.48,0-1.08,0-1.93,0-.32,0-.51-.12-.53-.37-.09-.46-.14-1.08-.25-2.09.85.09,2,.11,2.85.11.64,0,1.73,0,2.55-.09,0-1.15,0-2.18-.14-3.06a7.19,7.19,0,0,0-.39-1.89,14,14,0,0,1,3,.32c.25.07.37.18.37.37a.93.93,0,0,1-.16.46,2.8,2.8,0,0,0-.12,1V575c1-.14,2-.3,2.94-.51.28-.07.39,0,.41.21.09.58.14,1.13.18,1.73,0,.3-.09.39-.3.41-1.1.21-2.12.34-3.17.46l0,3.54a12,12,0,0,1-1,5.34,8.09,8.09,0,0,1-3.29,3.56,1,1,0,0,1-.58.21.48.48,0,0,1-.46-.21,7.62,7.62,0,0,0-1.79-1.13,7.47,7.47,0,0,0,3.89-3.82,12.72,12.72,0,0,0,.71-5.13Z" class="cls-2"/>
            <path d="M273.82,579a6.92,6.92,0,0,1,3.66-1,5.34,5.34,0,0,1,5.7,5.52c0,3.84-3.1,6.3-8,6.3-2.9,0-4.65-1.24-4.65-3.38a3.05,3.05,0,0,1,3.24-2.81,4.19,4.19,0,0,1,4.32,3.36,3.46,3.46,0,0,0,2.35-3.5,3.36,3.36,0,0,0-3.61-3.47,9.37,9.37,0,0,0-5.89,2.44c-.67.6-1.31,1.26-2,2-.16.16-.28.25-.39.25a.57.57,0,0,1-.34-.21,10.33,10.33,0,0,1-1.36-1.5c-.14-.18-.07-.34.12-.53a55.3,55.3,0,0,0,5.45-5.08c1.43-1.47,2.51-2.62,3.56-3.93-1.38.25-3,.58-4.44.87a7,7,0,0,0-1,.28,1.68,1.68,0,0,1-.46.11.52.52,0,0,1-.51-.39,11.06,11.06,0,0,1-.8-2.48,11,11,0,0,0,2.14,0c1.4-.14,3.43-.44,5.22-.78a6.11,6.11,0,0,0,1.26-.35,1.2,1.2,0,0,1,.44-.18.82.82,0,0,1,.53.18,8.67,8.67,0,0,1,1.54,1.47.8.8,0,0,1,.25.55.61.61,0,0,1-.39.55,3.73,3.73,0,0,0-1,.74c-1.68,1.63-3.22,3.24-5,4.92Zm0,6.55c-.67,0-1.1.39-1.1.87,0,.71.62,1.2,2,1.2a5.07,5.07,0,0,0,1.06-.09C275.5,586.27,274.81,585.56,273.84,585.56Z" class="cls-2"/>
            <path d="M295.14,577.32c0,.81,0,1.93,0,2.76,0,.37,0,.39-.41.41-.64,0-1.38,0-2,0-.3,0-.44,0-.44-.25.07-.92.11-2,.11-2.92v-2.16c0-1.33,0-2.14-.09-3,0-.14.12-.23.3-.23,1,0,2.46.09,3.84.09h7.75a2.39,2.39,0,0,0,1.4-.25.5.5,0,0,1,.3-.14.75.75,0,0,1,.44.21,10.54,10.54,0,0,1,1.7,1.52.63.63,0,0,1,.16.41.64.64,0,0,1-.21.44,3.73,3.73,0,0,0-.58,1.36,31.59,31.59,0,0,1-2.81,7.11,22.75,22.75,0,0,1-5.15,6.3.76.76,0,0,1-.55.25.75.75,0,0,1-.46-.16,6.83,6.83,0,0,0-2.21-.87,19.67,19.67,0,0,0,5.82-6.65,24.68,24.68,0,0,0,2.65-7.11h-9.57Z" class="cls-2"/>
            <path d="M320.9,581.53a18.35,18.35,0,0,0-3.38.28c-.28,0-.46-.14-.53-.48a24.84,24.84,0,0,1-.34-2.78,29.61,29.61,0,0,0,5,.28H329c1.75,0,3.52,0,5.29-.07.34,0,.41,0,.41.32a17,17,0,0,1,0,2.16c0,.28-.09.37-.41.35-1.73,0-3.43,0-5.13,0Z" class="cls-2"/>
            <path d="M354.87,573.85a2.13,2.13,0,0,0,1.15-.28.46.46,0,0,1,.3-.09.66.66,0,0,1,.37.14,10.58,10.58,0,0,1,1.56,1.24.75.75,0,0,1,.3.53.67.67,0,0,1-.28.48,2.76,2.76,0,0,0-.76,1A31.71,31.71,0,0,1,353,584a29.24,29.24,0,0,1-7,5.73.62.62,0,0,1-.37.12.81.81,0,0,1-.53-.25,6,6,0,0,0-2.18-1.06,26.52,26.52,0,0,0,7.66-5.87,23.44,23.44,0,0,0,4.25-6.53l-5.57.16a32,32,0,0,1-4.35,4.71.71.71,0,0,1-.48.25.55.55,0,0,1-.34-.14,6.24,6.24,0,0,0-2.21-1,27.29,27.29,0,0,0,6.19-6.83,9.83,9.83,0,0,0,1.36-3.1,11.3,11.3,0,0,1,2.69,1.22.48.48,0,0,1,.23.39.46.46,0,0,1-.25.39,2.5,2.5,0,0,0-.58.62l-.76,1.15Z" class="cls-2"/>
            <line x1="86.03" x2="491.03" y1="525.79" y2="525.79" class="cls-4"/>
            <line x1="86.03" x2="491.03" y1="412.41" y2="412.41" class="cls-4"/>
            <line x1="86.03" x2="491.03" y1="639.18" y2="639.18" class="cls-4"/>
            <line x1="86.03" x2="491.03" y1="695.87" y2="695.87" class="cls-4"/>
            <line x1="86.03" x2="491.03" y1="752.57" y2="752.57" class="cls-4"/>
        </g>
    </g>
</svg>
