<svg xmlns="http://www.w3.org/2000/svg" viewBox="0 0 180 180">
    <defs>
        <style>
            .cls-1{fill:#ad3123;}.cls-2{fill:#fff;}.cls-3{fill:none;stroke:#fff;stroke-miterlimit:10;stroke-width:2.35px;}
        </style>
    </defs>
    <title>
        応募ボタン_1
    </title>
    <g id="レイヤー_2" data-name="レイヤー 2">
        <circle cx="90" cy="90" r="89.99" class="cls-1" transform="translate(-7.89 8.66) rotate(-5.28)"/>
        <path d="M58.43,70.13a69.76,69.76,0,0,1-.67,11.15,26.15,26.15,0,0,1-2.68,8.33c-.25.46-.39.67-.56.67s-.39-.18-.71-.56a10.22,10.22,0,0,0-2.29-2,21.21,21.21,0,0,0,2.68-7.83,64,64,0,0,0,.56-10.44c0-4.3-.07-6.24-.07-6.46s0-.39.42-.39c.21,0,1.38.07,4.73.07h7.09V61.21a14.25,14.25,0,0,0-.21-2.86c1.31,0,2.54.11,3.74.21.35,0,.56.18.56.35a1.65,1.65,0,0,1-.21.67,3.45,3.45,0,0,0-.25,1.52v1.59h7.55c3.32,0,4.48-.07,4.69-.07s.39,0,.39.39v2.65c0,.32,0,.35-.39.35s-1.38-.07-4.69-.07H58.43Zm5.5,6c.46.11.53.14.46.56a36.35,36.35,0,0,1-2.61,9.74c-.18.32-.32.25-.74.07l-2.4-1.13c-.42-.21-.42-.39-.25-.71A28.08,28.08,0,0,0,61,75.74c0-.39.11-.39.63-.25ZM69.54,85c0,1.16,0,1.52.49,1.83a4.24,4.24,0,0,0,2.26.35,4,4,0,0,0,2.5-.53c.67-.56.85-1.8.92-4.52a9.11,9.11,0,0,0,2.54,1c1,.21,1,.21.85,1.17-.28,3.14-.92,4.41-2,5.15s-2.58.92-5,.92c-2.65,0-4.16-.21-5.12-.88-.71-.53-1-1.23-1-3.17V77.79a37.15,37.15,0,0,0-.25-4.23c1.13,0,2.54.14,3.6.28.42,0,.71.21.71.46a1.49,1.49,0,0,1-.28.78,9.11,9.11,0,0,0-.21,2.82ZM67.88,66.92c.32-.35.35-.39.71-.21a38.12,38.12,0,0,1,6.7,4.38c.18.11.25.21.25.28s-.07.21-.25.42l-1.66,1.94c-.35.42-.42.42-.67.18a37.82,37.82,0,0,0-6.56-4.69c-.25-.14-.32-.21,0-.56ZM81.29,85.55c-.49.25-.56.25-.67-.14A42.39,42.39,0,0,0,76.91,76c-.18-.32-.14-.42.32-.63l2.12-1c.42-.21.49-.21.67.11a43.65,43.65,0,0,1,4,9.31c.11.39.07.42-.42.67Z" class="cls-2"/>
        <path d="M101.52,83.12A35.44,35.44,0,0,1,97,85.27a2.41,2.41,0,0,1-.81.28c-.32,0-.46-.25-.81-.88a6.49,6.49,0,0,0-1.48-1.8,28.7,28.7,0,0,0,8.25-3.53H99.44c-3.14,0-4.2.07-4.41.07s-.35,0-.35-.39V76.94c0-.35,0-.39.35-.39s1.27.07,4.41.07h5.75a9.11,9.11,0,0,0,1.27-1.83h-1.8c-3.42,0-4.62.07-4.87.07s-.39,0-.39-.42c0-.21.07-.92.07-2.68v-3c0-1.8-.07-2.5-.07-2.72s0-.39.39-.39,1.45.07,4.87.07h11.4c3.39,0,4.59-.07,4.83-.07s.39,0,.39.39-.07.92-.07,2.72v3c0,1.76.07,2.47.07,2.68,0,.39,0,.42-.39.42s-1.45-.07-4.83-.07h-7.62l1.23.28c.39.11.56.21.56.46s-.14.39-.42.53a2.35,2.35,0,0,0-.71.56h12.14c3.17,0,4.2-.07,4.45-.07s.39,0,.39.39V79c0,.35,0,.39-.39.39s-1.27-.07-4.45-.07h-2.47A26,26,0,0,0,127,82.2a9.42,9.42,0,0,0-1.3,2.12c-.32.67-.42.92-.71.92a4.57,4.57,0,0,1-.81-.21A25.68,25.68,0,0,1,120,83.36c-.07.74-.14,1.45-.25,2.15a9.94,9.94,0,0,1-1,3.46c-.67,1.13-1.83,1.69-3.88,1.69a18.24,18.24,0,0,1-2-.07c-.81-.07-.81-.07-1.09-1a7.76,7.76,0,0,0-1-2.19,23.66,23.66,0,0,0,3.6.28c.88,0,1.3-.18,1.52-.71a10.33,10.33,0,0,0,.53-2.36h-5.86a9,9,0,0,1-3.07,3.53,18.2,18.2,0,0,1-7.66,2.72,5,5,0,0,1-.81.11c-.35,0-.49-.21-.74-.88a7.63,7.63,0,0,0-1.13-2c3.88-.32,6.63-1,8.4-2.22a6.49,6.49,0,0,0,1.34-1.27h-.42c-3.28,0-4.37.07-4.59.07s-.39,0-.39-.42Zm2-22.4a18.79,18.79,0,0,0-.18-2.19c1.13,0,2.4.11,3.35.21.32,0,.49.14.49.32a1.35,1.35,0,0,1-.18.53,3,3,0,0,0-.18,1.13h6.91a19,19,0,0,0-.18-2.19c1.13,0,2.4.11,3.35.21.32,0,.49.14.49.32a1.35,1.35,0,0,1-.18.53,3,3,0,0,0-.18,1.13h4.13c3.14,0,4.23-.07,4.45-.07s.39,0,.39.39v2.12c0,.39,0,.42-.39.42s-1.31-.07-4.45-.07H117c0,.6.07,1,.07,1.13,0,.35,0,.39-.42.39h-2.61c-.39,0-.42,0-.42-.39,0-.14,0-.53,0-1.13h-6.88c0,.6.07,1,.07,1.13,0,.35,0,.39-.42.39h-2.61c-.39,0-.42,0-.42-.39,0-.14,0-.53,0-1.13H99.58c-3.14,0-4.23.07-4.44.07s-.39,0-.39-.42V61c0-.35,0-.39.39-.39s1.3.07,4.44.07Zm-.49,7.2v1.38h14.68V67.91Zm14.68,3.35H103v1.41h14.68Zm.14,10.8a20.84,20.84,0,0,1-3.21-2.72h-7.83a23.13,23.13,0,0,1-3.46,2.72h4.83a8.61,8.61,0,0,0,.25-2.29c1.17.07,2.19.18,3.14.25.39.07.63.18.63.39a1.21,1.21,0,0,1-.25.53,2.81,2.81,0,0,0-.42,1.13Z" class="cls-2"/>
        <path d="M59.08,117.46H49.85V99.06h9.23v3.4H53.92v3.76h4.77v3.4H53.92V114h5.16Z" class="cls-2"/>
        <path d="M79,117.46H74l-5.8-12.58h-.1q.1,1.21.16,2.44t.05,2.18v8H64.61V99.06h4.9l5.77,12.32h.1q-.05-1.14-.12-2.31t-.06-2.13V99.06H79Z" class="cls-2"/>
        <path d="M91.51,117.46h-4V102.54H83.68V99.06H95.3v3.48H91.51Z" class="cls-2"/>
        <path d="M105,99.06q6.57,0,6.57,5.41a5.65,5.65,0,0,1-.72,2.93,5.74,5.74,0,0,1-2.06,2l4.28,8h-4.51l-3.33-7h-1.08v7H100V99.06Zm-.1,3.35h-.75v4.85h.77q2.5,0,2.5-2.6Q107.39,102.41,104.86,102.41Z" class="cls-2"/>
        <path d="M122.11,106.2l2.71-7.14h4.25l-4.95,11.29v7.11h-4v-7l-4.95-11.42h4.28Z" class="cls-2"/>
        <circle cx="90" cy="90" r="79.99" class="cls-3" transform="translate(-7.89 8.66) rotate(-5.28)"/>
    </g>
</svg>
