<svg xmlns="http://www.w3.org/2000/svg" viewBox="0 0 67.27 36.36"><defs><style>.cls-1{fill:#422610;}</style></defs><title>メニュー アイコン</title><g id="レイヤー_2" data-name="レイヤー 2"><g id="レイヤー_1-2" data-name="レイヤー 1"><path class="cls-1" d="M67.15,4.55a.69.69,0,0,0,0-.17l.09-1.85A1.46,1.46,0,0,0,65.92.93L24.51,0a.63.63,0,0,0-.61.63l-.13,2.79a.59.59,0,0,0,.55.65L59,4.85a.39.39,0,0,1,.18.69l-8.74,7a.31.31,0,0,1-.21.08L2.72,11.51A1.68,1.68,0,0,0,1.1,13.19a.64.64,0,0,0,0,.17L0,30.39a.6.6,0,0,0,.53.67l2.51.1a.62.62,0,0,0,.61-.62L4.57,16a.37.37,0,0,1,.36-.37l43.35,1a.61.61,0,0,1,.56.68L48,31.61a.64.64,0,0,1-.61.63L12.22,32a.63.63,0,0,0-.61.63l-.13,2.79A.6.6,0,0,0,12,36l37.62.34a2.34,2.34,0,0,0,1.52-.53l8-6.39a.79.79,0,0,0,.29-.59l.16-3.25A.67.67,0,0,0,58.54,25l-6.16,4.93a.58.58,0,0,1-.92-.55l.78-13.08a.7.7,0,0,1,.25-.5L62.72,7.62a.34.34,0,0,1,.54.32l-.48,7.72a.59.59,0,0,0,.54.67l2.51.11a.63.63,0,0,0,.62-.62Z"/></g></g></svg>