<svg xmlns="http://www.w3.org/2000/svg" viewBox="0 0 173.29 210.31"><defs><style>.cls-1{fill:#efe3df;}</style></defs><title>アセット 85</title><g id="レイヤー_2" data-name="レイヤー 2"><path class="cls-1" d="M49.42.18a4.86,4.86,0,0,0-6,4.07L39.71,23.72a6,6,0,0,0,4,6.85L63.32,36c3.08.85,3.26,5.63.25,6.47L3.65,59.19C.94,59.94-.59,63,.21,66l5.21,19.5a5.33,5.33,0,0,0,6.36,4.1L117.19,60.26a3.17,3.17,0,0,1,3.8,2.59L139.7,148a3.21,3.21,0,0,1-2.07,3.88l-100,27.85c-2.7.75-4.24,3.81-3.43,6.83L39.39,206a5.33,5.33,0,0,0,6.36,4.1l123.7-34.45.15,0,.14,0,.07,0h0c2.47-1,4-4.22,3.34-7.12L143,31.5a13.24,13.24,0,0,0-9.35-10.18Z"/></g></svg>