<svg xmlns="http://www.w3.org/2000/svg" viewBox="0 0 523.82 284.33"><defs><style>.cls-1{fill:#efe3df;}</style></defs><title>アセット 88</title><g id="レイヤー_2" data-name="レイヤー 2"><path class="cls-1" d="M510.12,42.27,290.72,217.47c-2.53,2-6.29.59-7.37-2.8L263,151a10.38,10.38,0,0,1,3-11.29L405.31,28.46a5.19,5.19,0,0,0,1.51-5.63L400.76,3.74c-1.08-3.4-4.84-4.84-7.38-2.81L240.71,122.86a2.52,2.52,0,0,1-1.39.55L62.84,136.81c-2.85.22-4.38-3.84-2.12-5.62L166.36,47.73a5.18,5.18,0,0,0,1.53-5.65l-6-19.05c-1.08-3.39-4.82-4.83-7.36-2.83L3.6,139.43A10.37,10.37,0,0,0,.54,150.72L39.21,272.56c2.34,7.36,9,12.25,15.91,11.73L208,272.85c3-.22,4.83-3.4,3.83-6.55L206,247.87a5.1,5.1,0,0,0-5.06-3.73L65,254.47a5.1,5.1,0,0,1-5.06-3.73L34.52,170.81a2.89,2.89,0,0,1,2.31-3.93L233.68,153a3.06,3.06,0,0,1,3,2.24l31.61,99.84c2.17,6.84,9.75,9.7,14.81,5.59l7.4-6L522,69.8a5.19,5.19,0,0,0,1.51-5.63l-6.06-19.09C516.41,41.68,512.65,40.24,510.12,42.27ZM242.85,135.42l0-.3.18.26Z"/></g></svg>