<svg xmlns="http://www.w3.org/2000/svg" viewBox="0 0 534.44 112.37"><defs><style>.cls-1{fill:none;stroke:#422610;stroke-miterlimit:10;stroke-width:4px;}.cls-2{fill:#422610;}</style></defs><title>アセット 96</title><g id="レイヤー_2" data-name="レイヤー 2"><g id="日時"><path class="cls-1" d="M145.09,61.4v9.18H129.27l-.88,7.59c.76-.06,1.46-.13,2.21-.13,7.47,0,16.14,4.11,16.14,15.12,0,9.11-7,17-19,17a27.69,27.69,0,0,1-11.58-2.34l2-8.42a21.78,21.78,0,0,0,8.86,2c4.49,0,8.61-2.66,8.61-7.47,0-5.38-4.3-8-12-8a29.67,29.67,0,0,0-5,.32l2.78-24.87Z"/><path class="cls-1" d="M160.21,103.29a6.55,6.55,0,0,1,6.45-6.9c3.73,0,6.46,2.72,6.46,6.9s-2.59,6.9-6.45,6.9S160.21,107.27,160.21,103.29Z"/><path class="cls-1" d="M211.85,109.48H201.66V98.28h-18.8V91l16.45-29.62h12.53V89.87H217v8.42h-5.13ZM192.48,89.87h9.18V80.06c0-2.72.25-5.95.38-8.8h-.19c-1.33,2.85-2.53,5.7-4,8.61l-5.31,9.87Z"/><path class="cls-2" d="M19.49,106.16H1.07V102l3.34-3.61c5-5.2,8-8.58,8-12.08a3.78,3.78,0,0,0-4.1-4,9.4,9.4,0,0,0-5.16,1.94L1.37,79.36a14.93,14.93,0,0,1,8.24-2.47c6.49,0,9.42,4,9.42,8.81,0,5.05-3.34,9-6.87,12.49l-2.43,2.32v.08h9.76Z"/><path class="cls-2" d="M26.66,91.81c0-8.13,3-14.92,9.91-14.92,7.44,0,9.68,7.56,9.68,14.73,0,9.42-3.64,15-9.8,15C29.09,106.58,26.66,99.06,26.66,91.81Zm12.91-.08c0-6.19-1-9.53-3-9.53s-3.19,3-3.19,9.53,1.1,9.53,3.19,9.53C38.13,101.26,39.57,99.59,39.57,91.73Z"/><path class="cls-2" d="M60.45,106.16V83.22h-.08l-5,2.54-1.48-4.82,7.4-3.65H67v28.86Z"/><path class="cls-2" d="M83,91.08a7.35,7.35,0,0,1-3.91-6.23c0-4.9,4.1-8,9.3-8,5.77,0,8.73,3.53,8.73,7.33a7.42,7.42,0,0,1-4,6.34v.08a8,8,0,0,1,4.94,7.25c0,5.39-4.18,8.7-10.06,8.7-6.34,0-9.72-3.68-9.72-8A8.24,8.24,0,0,1,83,91.16Zm8.39,7.29a5.25,5.25,0,0,0-3.72-4.94A4.81,4.81,0,0,0,84.94,98c0,2.13,1.22,4.14,3.27,4.14S91.44,100.27,91.44,98.37Zm-6-13.82a4.61,4.61,0,0,0,3.27,4.1A4.32,4.32,0,0,0,91,84.82c0-1.75-.72-3.57-2.77-3.57C85.93,81.25,85.4,83.18,85.4,84.55Z"/><path class="cls-2" d="M237.69,84c0-6,3.76-8.85,8.2-8.85a12.56,12.56,0,0,1,3.57.46L249,80.74a7,7,0,0,0-1.94-.27c-2.77,0-2.77,2.7-2.77,4.29h3.95v4.82h-3.91v16.56h-6.68V89.58h-2.85V84.76h2.85Z"/><path class="cls-2" d="M271.07,90.87a6.64,6.64,0,0,0-1.63-.15,3.77,3.77,0,0,0-3.87,2.7,6.13,6.13,0,0,0-.27,2v10.71h-6.68V91.67c0-2.81-.08-5-.15-6.91h5.73l.27,3.57h.15a5.66,5.66,0,0,1,5-4,7,7,0,0,1,1.41.11Z"/><path class="cls-2" d="M284.85,82.36A3.4,3.4,0,1,1,288.26,79,3.28,3.28,0,0,1,284.85,82.36Zm3.34,23.77h-6.68V84.76h6.68Z"/><path class="cls-2" d="M474,91.51a8.85,8.85,0,0,0-3.95-1.06c-1.48,0-2.24.65-2.24,1.59s.65,1.41,3,2.39c3.72,1.56,5.13,3.76,5.17,6.49,0,4.4-3.34,6.95-8.73,6.95a12.81,12.81,0,0,1-6.15-1.4l1.14-4.79a11.27,11.27,0,0,0,5,1.4c1.67,0,2.47-.57,2.47-1.6s-.61-1.56-2.77-2.43c-4.1-1.71-5.35-4.1-5.36-6.3,0-4,3.19-7.06,8.2-7.06a13,13,0,0,1,5.39,1.14Z"/><path class="cls-2" d="M500,102.44a27.74,27.74,0,0,0,.34,5.05h-6l-.38-2.05h-.11a6.64,6.64,0,0,1-5.51,2.47,6.3,6.3,0,0,1-6.42-6.57c0-5.66,5-8.09,11.35-8.13,0-1.63-.72-2.81-3.42-2.81a10.38,10.38,0,0,0-5.28,1.44l-1.22-4.33a16.61,16.61,0,0,1,7.82-1.82c7.06,0,8.81,4.48,8.81,9.23Zm-6.49-5c-2.77,0-5.13.8-5.13,3.27a2.21,2.21,0,0,0,2.24,2.51,2.86,2.86,0,0,0,2.89-3Z"/><path class="cls-2" d="M509.37,82.2,516,80.34v5.77h4.44v4.82H516V99c0,2.51.8,3.42,2.39,3.42a6,6,0,0,0,1.75-.19l0,5.16a14.73,14.73,0,0,1-4.1.49c-6.57,0-6.68-5.62-6.68-8V90.93h-2.62V86.11h2.62Z"/><path class="cls-1" d="M374.88,61.58v9.18H359.06l-.89,7.59c.76-.06,1.46-.13,2.21-.13,7.47,0,16.14,4.11,16.14,15.12,0,9.11-7,17-19,17A27.69,27.69,0,0,1,345.9,108l2-8.42a21.78,21.78,0,0,0,8.86,2c4.49,0,8.61-2.66,8.61-7.47,0-5.38-4.3-8-12-8a29.67,29.67,0,0,0-5,.32l2.78-24.87Z"/><path class="cls-1" d="M390,103.47a6.55,6.55,0,0,1,6.45-6.9c3.73,0,6.46,2.72,6.46,6.9s-2.59,6.9-6.45,6.9S390,107.46,390,103.47Z"/><path class="cls-1" d="M442.84,61.57v9.18H427l-.89,7.59c.76-.06,1.46-.13,2.21-.13,7.47,0,16.14,4.11,16.14,15.12,0,9.11-7,17-19,17A27.69,27.69,0,0,1,413.86,108l2-8.42a21.78,21.78,0,0,0,8.86,2c4.49,0,8.61-2.66,8.61-7.47,0-5.38-4.3-8-12-8a29.67,29.67,0,0,0-5,.32l2.78-24.87Z"/><path class="cls-2" d="M324.91,89.44l-13.06-8a1.55,1.55,0,0,0-2.36,1.33v16a1.55,1.55,0,0,0,2.36,1.33l13.06-8A1.55,1.55,0,0,0,324.91,89.44Z"/></g><path class="cls-2" d="M151.66,7c0,.88-.11,1.61-.2,2.24a9.67,9.67,0,0,1-1,3.33c-.08.17-.14.25-.21.25s-.13-.08-.27-.22a4.85,4.85,0,0,0-.88-.8,7.2,7.2,0,0,0,1.08-3.08,31.74,31.74,0,0,0,.22-4.4c0-1.93,0-2.79,0-2.87s0-.15.17-.15.55,0,1.86,0h2.83V1a4,4,0,0,0-.1-.94c.52,0,1,0,1.48.07.15,0,.24.07.24.13a.75.75,0,0,1-.1.28,1.21,1.21,0,0,0-.07.52v.28h3.12c1.33,0,1.78,0,1.86,0s.14,0,.14.15v.92c0,.14,0,.15-.14.15s-.53,0-1.86,0H158v1h.64c1.48,0,2.2,0,2.28,0s.17,0,.17.15,0,.42,0,1.12v1c0,.7,0,1,0,1.12s0,.15-.17.15-.8,0-2.28,0Zm2.26,4a24.43,24.43,0,0,0,2.54-.69,6.61,6.61,0,0,0-.08.83c0,.45-.07.46-.43.57-1.11.34-2.44.69-3.39.88a2.39,2.39,0,0,0-.57.18.38.38,0,0,1-.2.08c-.08,0-.14-.06-.18-.21a12.81,12.81,0,0,1-.27-1.26,9.08,9.08,0,0,0,1-.1l.25,0V8.6a6.52,6.52,0,0,0-.08-1.2c.43,0,1,0,1.37.08.13,0,.18.07.18.14a.47.47,0,0,1-.07.24,2.06,2.06,0,0,0-.07.71h1.23c.73,0,.92,0,1,0s.14,0,.14.14v.92c0,.14,0,.15-.14.15s-.28,0-1,0h-1.23Zm-.28-5.2V4.7h-1.92c0,.42,0,.83,0,1.19Zm-1.92-2.33h1.92v-1h-1.92Zm5,0v-1h-1.79v1Zm0,2.33V4.7h-1.79V5.89ZM158.31,9a8.73,8.73,0,0,0,1.85-.8,2.15,2.15,0,0,0,.43-.35,9.49,9.49,0,0,1,.83.88.32.32,0,0,1,.08.21c0,.08,0,.14-.18.15a1.56,1.56,0,0,0-.39.11,15.84,15.84,0,0,1-2.62,1V11c0,.31,0,.36.2.43a3.2,3.2,0,0,0,.9.06c.64,0,.91-.07,1.05-.2s.22-.42.25-1.12a3.05,3.05,0,0,0,.94.36c.36.08.36.1.31.46-.13.85-.31,1.13-.6,1.37s-.81.38-2,.38a4.21,4.21,0,0,1-1.85-.18c-.31-.15-.53-.42-.53-1.15V8.77a8.76,8.76,0,0,0-.07-1.37c.46,0,.87,0,1.32.08.18,0,.27.07.27.17a.54.54,0,0,1-.08.25,2,2,0,0,0-.08.83Zm1.44-4.26H158V5.89h1.74Z"/><path class="cls-2" d="M168.66,9.08a6.55,6.55,0,0,0,0-1.29A10.55,10.55,0,0,1,170,8c.2,0,.28.1.28.2a.43.43,0,0,1-.08.24,1.6,1.6,0,0,0-.13.63c-.29,2.4-1.67,3.22-3.85,3.89a1.21,1.21,0,0,1-.31.06c-.14,0-.21-.1-.35-.36a3.08,3.08,0,0,0-.71-.81C167.08,11.38,168.41,10.87,168.66,9.08Zm-2.54-6.5A14.79,14.79,0,0,0,166,.47q.78,0,1.51.08c.14,0,.21.08.21.15a1,1,0,0,1-.07.28,5.91,5.91,0,0,0-.08,1.55V5.79c0,1.11,0,1.65,0,1.72s0,.15-.17.15h-1.19c-.14,0-.15,0-.15-.15s0-.62,0-1.72Zm8-1.81c1.25,0,1.68,0,1.77,0s.15,0,.15.15,0,.55,0,1.54V5.63c0,1,0,1.46,0,1.54s0,.15-.15.15-.52,0-1.77,0h-2.93c-1.25,0-1.68,0-1.77,0s-.15,0-.15-.15,0-.55,0-1.54V2.44c0-1,0-1.46,0-1.54s0-.15.15-.15.52,0,1.77,0Zm-3.39,2.62h3.84V2h-3.84Zm3.84,1.22h-3.84V6.05h3.84Zm-1.43,6.21c0,.32.08.42.25.49a3.23,3.23,0,0,0,1,.08,2.09,2.09,0,0,0,1.36-.28,3,3,0,0,0,.31-1.64,4.53,4.53,0,0,0,1,.38c.36.1.36.1.34.46a2.86,2.86,0,0,1-.71,2,4.15,4.15,0,0,1-2.37.45,4.84,4.84,0,0,1-2.12-.27c-.27-.14-.45-.43-.45-1V9.26a10.65,10.65,0,0,0-.08-1.44c.5,0,1,0,1.47.1.11,0,.21.08.21.15a.59.59,0,0,1-.08.27,1.93,1.93,0,0,0-.07.7Z"/><path class="cls-2" d="M185.42,9.12v1.75h1.83v-.63a3.7,3.7,0,0,0-.07-.78c.5,0,1,.06,1.4.11.13,0,.2.07.2.15a.61.61,0,0,1-.08.24,1.22,1.22,0,0,0-.07.5v.84c0,.24,0,.42,0,.5s0,.17-.15.17c-.38,0-1,0-2,0h-4.36v.52c0,.14,0,.15-.15.15h-1.08c-.15,0-.17,0-.17-.15s0-.27,0-.73V10.59a5.6,5.6,0,0,0-.07-1.11c.5,0,1,0,1.4.1.14,0,.2.08.2.15a.42.42,0,0,1-.07.21.92.92,0,0,0-.07.35v.57H184V9.12c-1.13,0-1.76,0-1.83,0S182,9.13,182,9s0-.6,0-1.74v-4c0-1.12,0-1.62,0-1.69s0-.15.15-.15.57,0,1.91,0h.64A5.55,5.55,0,0,0,185,.77a3.6,3.6,0,0,0,.2-.77c.48,0,.94.1,1.48.2a.18.18,0,0,1,.18.17c0,.08-.06.14-.13.21a.86.86,0,0,0-.22.28c-.08.18-.15.36-.22.55h2.07c1.34,0,1.82,0,1.89,0s.17,0,.17.15,0,.38,0,1.18V4.4c0,.8,0,1.05,0,1.13s0,.2-.17.2-.55,0-1.89,0h-4.89v.66h7.17c1.37,0,1.85,0,1.93,0s.17,0,.17.15v.77c0,.15,0,.17-.17.17s-.56,0-1.93,0h-7.17v.67h6.78c1.39,0,1.86,0,1.95,0s.18,0,.17.17c0,.31-.06.67-.08,1a6.82,6.82,0,0,1-.74,3.15,1.63,1.63,0,0,1-1.36.55h-.78c-.31,0-.32,0-.36-.34a3.6,3.6,0,0,0-.32-1.05,7.67,7.67,0,0,0,1.13.1.61.61,0,0,0,.6-.28,7.57,7.57,0,0,0,.36-2.19Zm-2-6.69v.69h5.49V2.42ZM188.95,4h-5.49v.7h5.49Z"/><path class="cls-2" d="M199,1.74c.24.13.32.21.32.34s0,.14-.21.42a3.31,3.31,0,0,0-.34,1A22.7,22.7,0,0,0,198.16,8a13.58,13.58,0,0,0,.08,1.64c.29-.64.55-1.11,1-2.09a3.63,3.63,0,0,0,.49.88.56.56,0,0,1,.1.21.39.39,0,0,1-.07.22,13.68,13.68,0,0,0-.8,2.12,1.6,1.6,0,0,0,0,.43c0,.17,0,.28,0,.39s-.06.15-.18.18a7,7,0,0,1-1.15.22c-.1,0-.15-.06-.18-.15a13.13,13.13,0,0,1-.64-4.17,26.73,26.73,0,0,1,.48-4.59,11.25,11.25,0,0,0,.25-2.09A6.21,6.21,0,0,1,199,1.74Zm3,6.6c.11,0,.14.06.14.21.08,1,.76,1.32,2.28,1.32a20.2,20.2,0,0,0,2.68-.18c.14,0,.17,0,.2.18a10.38,10.38,0,0,1,.08,1.21c0,.17,0,.18-.24.21a18.75,18.75,0,0,1-2.28.15c-2.07,0-3-.34-3.64-1.16a3.08,3.08,0,0,1-.49-1.82Zm-.78-5.24c0-.17.06-.21.2-.24a22.19,22.19,0,0,1,3-.25c.84,0,1.48,0,2.07.08.29,0,.32,0,.32.18,0,.42,0,.8,0,1.19,0,.13-.06.18-.18.17-.84-.06-1.57-.08-2.28-.08a17,17,0,0,0-3.18.32C201.15,3.68,201.15,3.33,201.18,3.09Z"/><path class="cls-2" d="M218.84,10.41a6.9,6.9,0,0,1-2,2.27.58.58,0,0,1-.34.14.45.45,0,0,1-.28-.13,3.41,3.41,0,0,0-1.09-.57,5.6,5.6,0,0,0,2.1-2A3.57,3.57,0,0,1,216,9.47a3,3,0,0,1-.71-1,.53.53,0,0,1-.06-.18.4.4,0,0,1,.1-.22A4.51,4.51,0,0,0,215.84,7a3.34,3.34,0,0,0,.88,1.29,2.79,2.79,0,0,0,1.11.57,12.92,12.92,0,0,0,.25-2.59c0-.7,0-1.19-.08-1.89a4.93,4.93,0,0,0-2.49,1.44,7.57,7.57,0,0,0-1.61,2.41,3.85,3.85,0,0,0-.24,1.71c0,.15-.08.21-.27.25a8.13,8.13,0,0,1-1,.18.24.24,0,0,1-.25-.22,12.8,12.8,0,0,1-.32-2.79c0-.76.07-2,.24-3.56,0-.49.08-1,.08-1.34a2.23,2.23,0,0,0,0-.57,7.67,7.67,0,0,1,1.61.46.26.26,0,0,1,.2.27.81.81,0,0,1-.06.25,1.85,1.85,0,0,0-.21.55c-.21,1-.28,1.61-.34,2.1s-.07.83-.1,1.61A7.56,7.56,0,0,1,215,4.51a6.38,6.38,0,0,1,2.91-1.46c-.06-.49-.13-.91-.2-1.27a2.72,2.72,0,0,0-.36-1,5.78,5.78,0,0,1,1.63,0c.25,0,.32.13.32.27a3.39,3.39,0,0,0,0,.38c.07.46.14,1,.18,1.46h.22a3.46,3.46,0,0,1,3.43,3.53,3.75,3.75,0,0,1-1.44,3.08,4.46,4.46,0,0,1-2.56.84Zm1.77-1.88a2.4,2.4,0,0,0,1-2.12,2,2,0,0,0-2-2.12c0,1,.06,1.54.06,2A14.82,14.82,0,0,1,219.35,9,2.23,2.23,0,0,0,220.6,8.53Z"/><path class="cls-2" d="M230.79,2.29a9.51,9.51,0,0,0,.14-1.56,10.31,10.31,0,0,1,1.68.46.3.3,0,0,1,.22.28.29.29,0,0,1-.1.21,1.76,1.76,0,0,0-.28.53c-.18.57-.32,1.09-.5,1.68A10.55,10.55,0,0,1,233,3.85c1.32,0,2,.9,2,2.59a12,12,0,0,1-.76,4.5,2,2,0,0,1-1.89,1.32A4.56,4.56,0,0,1,231,12.1a.36.36,0,0,1-.25-.39,4,4,0,0,0-.27-1.3,4.21,4.21,0,0,0,1.54.31c.46,0,.67-.17.9-.74a10.77,10.77,0,0,0,.55-3.47c0-1-.18-1.3-.8-1.3a9.35,9.35,0,0,0-1.18.1,38.62,38.62,0,0,1-2.82,6.58.23.23,0,0,1-.36.13,6.34,6.34,0,0,1-1-.62.29.29,0,0,1-.11-.21.26.26,0,0,1,.06-.15,29.53,29.53,0,0,0,2.56-5.49c-.55.08-1,.17-1.37.24a4.24,4.24,0,0,0-.77.22.31.31,0,0,1-.45-.18,12.61,12.61,0,0,1-.43-1.44c.62,0,1.23,0,1.85-.1s1.11-.13,1.65-.21C230.59,3.26,230.69,2.77,230.79,2.29Zm5.7.94c.1-.06.17,0,.27.07a9.36,9.36,0,0,1,2.33,3.4A.2.2,0,0,1,239,7a5.77,5.77,0,0,1-1.05.7c-.14.07-.28.06-.32-.11a9.48,9.48,0,0,0-2.3-3.63A11.64,11.64,0,0,1,236.49,3.23Z"/><path class="cls-2" d="M246.48,1.11c.18.07.27.15.27.28a.32.32,0,0,1-.1.22,1.63,1.63,0,0,0-.25.66c-.2,1-.31,1.95-.39,2.68a14,14,0,0,0,0,1.54c.31-.55.6-1.08,1-1.79a2.91,2.91,0,0,0,.43.91.32.32,0,0,1,.08.22.66.66,0,0,1-.14.35A11.47,11.47,0,0,0,246.5,8a1.73,1.73,0,0,0-.07.42.2.2,0,0,1-.18.22c-.17,0-.77.13-1.12.17-.1,0-.17-.08-.2-.18a9,9,0,0,1-.42-2.84,29.69,29.69,0,0,1,.33-3.49A12.84,12.84,0,0,0,245,.68,7.35,7.35,0,0,1,246.48,1.11ZM251,.88c.28.07.31.14.28.38a4.91,4.91,0,0,0,0,.64c.1,1.33.2,2.61.2,3.61a9.2,9.2,0,0,1-1.06,4.86,7.72,7.72,0,0,1-2.31,2.25.48.48,0,0,1-.28.1.41.41,0,0,1-.29-.15,3.24,3.24,0,0,0-1.19-.64,6.92,6.92,0,0,0,2.38-1.88,6.74,6.74,0,0,0,1.18-4.47c0-1-.07-2.45-.17-3.35a6.71,6.71,0,0,0-.29-1.53A8,8,0,0,1,251,.88Z"/><path class="cls-2" d="M264.39,3.3a17.51,17.51,0,0,1-1.75,6,2.66,2.66,0,0,1-2.38,1.61c-1.23,0-2.48-1.32-2.48-3.6a5.17,5.17,0,0,1,1.58-3.64,6.14,6.14,0,0,1,4.55-1.79c3.36,0,5.34,2.07,5.34,4.86,0,2.6-1.47,4.24-4.31,5.1-.29.08-.42,0-.6-.25a3,3,0,0,0-1-.88c2.37-.56,4.23-1.54,4.23-4.19a3.18,3.18,0,0,0-3.14-3.25Zm-4,1.36a4,4,0,0,0-1.09,2.59c0,1.29.52,2,1,2s.67-.18,1.05-.85a16,16,0,0,0,1.48-5A4.22,4.22,0,0,0,260.37,4.66Z"/><path class="cls-2" d="M278.49.82c.17.06.25.14.25.25a.31.31,0,0,1-.07.22,1.08,1.08,0,0,0-.2.5c0,.25-.07.46-.11.7A26.71,26.71,0,0,0,282,1.91c.17,0,.21,0,.24.14a4.32,4.32,0,0,1,.14,1c0,.18-.14.25-.29.28a29.49,29.49,0,0,1-4,.59c-.06.59-.08.92-.1,1.42A8.42,8.42,0,0,1,280.16,5a3.47,3.47,0,0,0,.24-1,5.68,5.68,0,0,1,1.25.52c.17.11.25.22.25.31a.24.24,0,0,1-.08.17,1.25,1.25,0,0,0-.18.28,3.42,3.42,0,0,1,2.87,3.42c0,2-1.67,3.35-3.89,4-.31.08-.46,0-.62-.27a3.57,3.57,0,0,0-.83-.87,8,8,0,0,0,2.61-1,2.41,2.41,0,0,0,1.12-2.1,2.09,2.09,0,0,0-1.74-2A14.81,14.81,0,0,1,278.5,10a4.33,4.33,0,0,0,.25.63c.08.18,0,.25-.11.35a4.44,4.44,0,0,1-.84.49c-.14.07-.2.07-.28-.07a2.84,2.84,0,0,1-.24-.55,4.4,4.4,0,0,1-2.44,1,1.53,1.53,0,0,1-1.56-1.74c0-1.79,1.56-3.5,3.28-4.36,0-.6,0-1.22.07-1.75-.83,0-1.21,0-1.44,0a5.5,5.5,0,0,1-.8,0c-.15,0-.24-.08-.25-.32s0-.67-.07-1.06a21.31,21.31,0,0,0,2.72.06c.06-.5.11-1.13.11-1.53a3.29,3.29,0,0,0-.06-.63A7.67,7.67,0,0,1,278.49.82Zm-3.73,9a.48.48,0,0,0,.46.53,3,3,0,0,0,1.63-.81,18,18,0,0,1-.28-2.41A3.74,3.74,0,0,0,274.76,9.81Zm5-3.64a6.52,6.52,0,0,0-1.79.32,14.9,14.9,0,0,0,.17,2.1A12.88,12.88,0,0,0,279.74,6.17Z"/><path class="cls-2" d="M293.43,6a4.21,4.21,0,0,1,2.23-.63,3.25,3.25,0,0,1,3.47,3.36c0,2.34-1.89,3.84-4.89,3.84-1.76,0-2.83-.76-2.83-2.06a1.86,1.86,0,0,1,2-1.71,2.55,2.55,0,0,1,2.63,2,2.11,2.11,0,0,0,1.43-2.13,2,2,0,0,0-2.2-2.12,5.7,5.7,0,0,0-3.59,1.48c-.41.36-.8.77-1.22,1.19-.1.1-.17.16-.24.16a.34.34,0,0,1-.21-.13,6.34,6.34,0,0,1-.83-.91c-.08-.11,0-.21.07-.32A33.92,33.92,0,0,0,292.56,5c.87-.9,1.53-1.6,2.17-2.4-.84.15-1.83.35-2.7.53a4.31,4.31,0,0,0-.59.17,1,1,0,0,1-.28.07.32.32,0,0,1-.31-.24,6.72,6.72,0,0,1-.49-1.51,6.84,6.84,0,0,0,1.3,0c.85-.08,2.09-.27,3.18-.48a3.7,3.7,0,0,0,.77-.21.73.73,0,0,1,.27-.11.5.5,0,0,1,.32.11,5.33,5.33,0,0,1,.94.9.49.49,0,0,1,.15.34.37.37,0,0,1-.24.34,2.29,2.29,0,0,0-.62.45c-1,1-2,2-3,3Zm0,4c-.41,0-.67.24-.67.53s.38.73,1.22.73a3.07,3.07,0,0,0,.64-.06C294.45,10.44,294,10,293.44,10Z"/><path class="cls-2" d="M305.37,9.27c-1.25,0-1.67,0-1.75,0s-.15,0-.15-.15V8.07c0-.14,0-.15.15-.15s.5,0,1.75,0h3.68A10.13,10.13,0,0,0,309,6.75l.81.08a8.73,8.73,0,0,0,1.27-1h-3c-1.29,0-1.74,0-1.81,0s-.15,0-.15-.14v-1c0-.14,0-.15.15-.15s.52,0,1.81,0h3.8a.87.87,0,0,0,.34,0,.45.45,0,0,1,.18-.06c.11,0,.25.11.6.45s.39.48.39.6a.22.22,0,0,1-.17.22,3.36,3.36,0,0,0-.67.46,16.6,16.6,0,0,1-2,1.46v.22H314c1.25,0,1.67,0,1.75,0s.15,0,.15.15V9.15c0,.14,0,.15-.15.15s-.5,0-1.75,0h-3.5v.91c0,.34,0,.85,0,1.22,0,.6-.11.91-.45,1.15a3.94,3.94,0,0,1-2.14.31c-.43,0-.43,0-.55-.41a4.21,4.21,0,0,0-.42-1,13.47,13.47,0,0,0,1.5.08c.39,0,.55-.1.55-.49V9.27Zm.87-9c.18-.07.22,0,.31.07a10.66,10.66,0,0,1,.94,1.46c.07.14.07.15-.13.22l-.92.34h2.91a10.86,10.86,0,0,0-.8-1.75c-.08-.14,0-.15.13-.21l.92-.28c.17-.06.21,0,.28.08a10.91,10.91,0,0,1,.77,1.63c0,.13,0,.14-.15.21l-.91.32h2.16A11.07,11.07,0,0,0,312.43,1a4.65,4.65,0,0,0,.21-.74A7.1,7.1,0,0,1,314,.66c.13.06.2.13.2.21a.26.26,0,0,1-.14.21,1.06,1.06,0,0,0-.27.32c-.2.36-.36.66-.57,1h.36c1.3,0,1.76,0,1.85,0s.17,0,.17.15,0,.35,0,.76v.64c0,1.26,0,1.48,0,1.57s0,.17-.17.17h-1.11c-.14,0-.15,0-.15-.17V3.64h-9V5.49c0,.14,0,.15-.15.15H304c-.15,0-.17,0-.17-.15s0-.32,0-1.58V3.39c0-.52,0-.77,0-.87s0-.15.17-.15.55,0,1.85,0h.38a8.12,8.12,0,0,0-.9-1.57c-.08-.13-.07-.15.1-.21Z"/><path class="cls-2" d="M320.88,12.3c-1.27,0-1.69,0-1.78,0s-.15,0-.15-.15V11c0-.14,0-.15.15-.15s.5,0,1.78,0h3.52V8.32h-1.54c-1.37,0-1.85,0-1.93,0s-.15,0-.15-.15V7.06c0-.13,0-.14.15-.14s.56,0,1.93,0h1.54V4.55h-2.94a10.67,10.67,0,0,1-1.23,2c-.13.17-.18.25-.27.25s-.15-.08-.31-.22a3.42,3.42,0,0,0-.88-.63A11.92,11.92,0,0,0,321,1.82a4.8,4.8,0,0,0,.2-.92c.46.08,1,.22,1.36.34.15,0,.25.11.25.21s0,.14-.14.25a1.39,1.39,0,0,0-.27.53l-.34.92h2.31V2.42a13.29,13.29,0,0,0-.11-2.13c.55,0,1.12,0,1.58.1.14,0,.22.08.22.15a.69.69,0,0,1-.07.28,5.53,5.53,0,0,0-.1,1.55v.77h2.41c1.37,0,1.83,0,1.92,0s.17,0,.17.15V4.42c0,.14,0,.15-.17.15s-.55,0-1.92,0h-2.41v2.4h1.75c1.37,0,1.85,0,1.93,0s.15,0,.15.14V8.19c0,.14,0,.15-.15.15s-.56,0-1.93,0h-1.75v2.55h3.32c1.26,0,1.69,0,1.78,0s.15,0,.15.15v1.18c0,.14,0,.15-.15.15s-.52,0-1.78,0Z"/><path class="cls-2" d="M336.29,5.26c-1.26,0-1.7,0-1.78,0s-.15,0-.15-.17V4c0-.14,0-.15.15-.15s.52,0,1.78,0h3.21c0-.57.06-1.21.07-1.89A10.8,10.8,0,0,0,339.5.33a15.93,15.93,0,0,1,1.61.11c.14,0,.25.1.25.2a.58.58,0,0,1-.08.29,2.41,2.41,0,0,0-.13,1c0,.69,0,1.33-.08,1.93h3.61c1.26,0,1.69,0,1.78,0s.15,0,.16.15V5.12c0,.15,0,.17-.15.17s-.52,0-1.78,0h-3.35a9.35,9.35,0,0,0,5.6,6.11,4.66,4.66,0,0,0-.81,1c-.13.24-.18.35-.29.35a.9.9,0,0,1-.32-.14,10.73,10.73,0,0,1-5-5.66A8.17,8.17,0,0,1,340,8.32a9.19,9.19,0,0,1-4.48,4.37,1.11,1.11,0,0,1-.33.11c-.11,0-.17-.08-.32-.32a4.38,4.38,0,0,0-.8-.88,8.11,8.11,0,0,0,4.54-3.85,8.48,8.48,0,0,0,.76-2.48Z"/><path class="cls-2" d="M352.38,9.9a14.24,14.24,0,0,1-1.79.85,1,1,0,0,1-.32.11c-.13,0-.18-.1-.32-.35a2.58,2.58,0,0,0-.59-.71,11.37,11.37,0,0,0,3.28-1.4h-1.08c-1.25,0-1.67,0-1.75,0s-.14,0-.14-.15V7.45c0-.14,0-.15.14-.15s.5,0,1.75,0h2.28a3.58,3.58,0,0,0,.5-.73h-.71c-1.36,0-1.83,0-1.93,0s-.15,0-.15-.17,0-.36,0-1.06V4.2c0-.71,0-1,0-1.08s0-.15.15-.15.57,0,1.93,0h4.52c1.34,0,1.82,0,1.92,0s.15,0,.15.15,0,.36,0,1.08V5.39c0,.7,0,1,0,1.06s0,.17-.15.17-.57,0-1.92,0h-3l.49.11c.15,0,.22.08.22.18s-.06.15-.17.21a1,1,0,0,0-.28.22h4.82c1.26,0,1.67,0,1.76,0s.15,0,.15.15v.83c0,.14,0,.15-.15.15s-.5,0-1.76,0h-1a10.33,10.33,0,0,0,3.26,1.13,3.72,3.72,0,0,0-.52.84c-.13.27-.17.36-.28.36a1.82,1.82,0,0,1-.32-.08,10.11,10.11,0,0,1-1.64-.66c0,.29-.06.57-.1.85a4,4,0,0,1-.41,1.37,1.59,1.59,0,0,1-1.54.67,7.14,7.14,0,0,1-.8,0c-.32,0-.32,0-.43-.39a3.12,3.12,0,0,0-.39-.87,9.24,9.24,0,0,0,1.43.11c.35,0,.52-.07.6-.28a4.08,4.08,0,0,0,.21-.94H356a3.59,3.59,0,0,1-1.22,1.4,7.25,7.25,0,0,1-3,1.08,2,2,0,0,1-.32,0c-.14,0-.2-.08-.3-.35a3,3,0,0,0-.45-.79A6.78,6.78,0,0,0,354,11a2.6,2.6,0,0,0,.53-.5h-.17c-1.3,0-1.74,0-1.82,0s-.15,0-.15-.17Zm.78-8.9a7.44,7.44,0,0,0-.07-.87c.45,0,1,0,1.33.08.13,0,.2.06.2.13a.52.52,0,0,1-.07.21,1.19,1.19,0,0,0-.07.45h2.75a7.66,7.66,0,0,0-.07-.87c.45,0,1,0,1.33.08.13,0,.2.06.2.13a.54.54,0,0,1-.07.21,1.19,1.19,0,0,0-.07.45h1.64c1.25,0,1.68,0,1.76,0s.15,0,.15.15V2c0,.15,0,.17-.15.17s-.52,0-1.76,0h-1.64c0,.24,0,.39,0,.45s0,.15-.17.15h-1c-.15,0-.17,0-.17-.15s0-.21,0-.45h-2.73c0,.24,0,.39,0,.45s0,.15-.17.15h-1c-.15,0-.17,0-.17-.15s0-.21,0-.45h-1.54c-1.25,0-1.68,0-1.77,0s-.15,0-.15-.17V1.13c0-.14,0-.15.15-.15s.52,0,1.77,0ZM353,3.86v.55h5.83V3.86Zm5.83,1.33H353v.56h5.83Zm.06,4.29a8.25,8.25,0,0,1-1.27-1.08h-3.11a9.18,9.18,0,0,1-1.37,1.08H355a3.42,3.42,0,0,0,.1-.91l1.25.1c.15,0,.25.07.25.15a.48.48,0,0,1-.1.21,1.13,1.13,0,0,0-.17.45Z"/><path class="cls-2" d="M367.13,9.65c-1.26,0-1.7,0-1.78,0s-.15,0-.15-.15v-.9c0-.13,0-.14.15-.14s.52,0,1.78,0h3.4V8.44c0-.22,0-.48,0-.71h-1.74c-1.37,0-1.88,0-2,0s-.15,0-.15-.17,0-.55,0-1.58V3.78c-.26.27-.54.53-.83.79s-.22.18-.29.18-.14-.1-.24-.29a3.09,3.09,0,0,0-.58-.81A8.52,8.52,0,0,0,367.33.91a3.89,3.89,0,0,0,.38-.87A11.33,11.33,0,0,1,369,.36c.13,0,.18.11.18.2a.23.23,0,0,1-.13.21,2.28,2.28,0,0,0-.38.45l-.24.35H371a6.29,6.29,0,0,0,.38-.74,4,4,0,0,0,.22-.73A13.52,13.52,0,0,1,373,.39a.21.21,0,0,1,.17.2.3.3,0,0,1-.14.21,1.38,1.38,0,0,0-.27.35c-.08.15-.15.29-.24.42h2.13c1.36,0,1.81,0,1.9,0s.15,0,.15.14V2.5c0,.15,0,.17-.15.17s-.55,0-1.9,0H372.2v.7H374c1.34,0,1.81,0,1.89,0s.17,0,.17.15v.7c0,.14,0,.15-.17.15s-.55,0-1.89,0H372.2V5H374c1.34,0,1.81,0,1.89,0s.17,0,.17.15v.69c0,.14,0,.15-.17.15s-.55,0-1.89,0H372.2v.74h2.55c1.37,0,1.85,0,1.93,0s.15,0,.15.15v.78c0,.15,0,.17-.15.17s-.56,0-1.93,0h-2.7l0,.08a1.86,1.86,0,0,0,0,.62v.08h3.54c1.26,0,1.7,0,1.78,0s.15,0,.15.14v.9c0,.14,0,.15-.15.15s-.52,0-1.78,0h-2.63a12.44,12.44,0,0,0,4.85,1.77,2.87,2.87,0,0,0-.55.94c-.11.28-.15.38-.28.38a1.35,1.35,0,0,1-.32-.07,11.6,11.6,0,0,1-4.64-2.48c0,1.56.06,2.37.06,2.66,0,.14,0,.15-.14.15h-1.21c-.13,0-.14,0-.14-.15,0-.29,0-1.08.05-2.62A10.83,10.83,0,0,1,366,12.63a1.65,1.65,0,0,1-.34.08c-.13,0-.18-.1-.28-.36a2.64,2.64,0,0,0-.5-.85,12.55,12.55,0,0,0,4.65-1.85Zm3.77-6.3v-.7h-2.83v.7Zm0,1.65v-.7h-2.83V5Zm0,1.68V5.93h-2.83v.74Z"/><path class="cls-2" d="M386.37,8.86H385L384.62,1h2.19Zm.29,3h-2V10h2Z"/><path class="cls-2" d="M7.42,25.3a12,12,0,0,0,6,4.17,3.29,3.29,0,0,0-.57,1.18c-.07.27-.11.36-.24.36a.84.84,0,0,1-.34-.13,15,15,0,0,1-2.94-1.74v1.08c0,.14,0,.15-.15.15s-.42,0-1.51,0H5.7c-1.08,0-1.41,0-1.5,0s-.17,0-.17-.15V29.12a18.24,18.24,0,0,1-2.82,1.82.8.8,0,0,1-.32.13c-.1,0-.15-.1-.25-.34a2.49,2.49,0,0,0-.64-1A12.14,12.14,0,0,0,5.41,25.5a3.56,3.56,0,0,0,.52-1,11.56,11.56,0,0,1,1.5.31c.17,0,.25.08.25.2a.23.23,0,0,1-.14.21ZM4.29,32.86c-1.36,0-1.82,0-1.91,0s-.15,0-.15-.17V31.62c0-.14,0-.15.15-.15s.55,0,1.91,0h5a1.36,1.36,0,0,0,.49-.06.78.78,0,0,1,.21-.06c.14,0,.27,0,.63.39s.49.56.49.64,0,.2-.18.31a2.15,2.15,0,0,0-.46.67,31.3,31.3,0,0,1-2.73,4.08c-.06.07-.1.11-.17.11a2.81,2.81,0,0,1-.7-.25c-.53-.21-.71-.28-.71-.38s0-.07.08-.13a17,17,0,0,0,2.72-4ZM4.2,29H9.1a13,13,0,0,1-2.49-2.55A13.57,13.57,0,0,1,4.17,29Z"/><path class="cls-2" d="M23,27.82a17.54,17.54,0,0,1-1.75,6,2.66,2.66,0,0,1-2.38,1.61c-1.23,0-2.48-1.32-2.48-3.6a5.16,5.16,0,0,1,1.58-3.64,6.13,6.13,0,0,1,4.55-1.79c3.36,0,5.34,2.07,5.34,4.86,0,2.6-1.47,4.24-4.31,5.1-.29.08-.42,0-.6-.25a3,3,0,0,0-1-.88c2.37-.56,4.23-1.54,4.23-4.19A3.18,3.18,0,0,0,23,27.82Zm-4,1.36a4,4,0,0,0-1.09,2.59c0,1.29.52,2,1,2s.67-.18,1.05-.85a16,16,0,0,0,1.48-5A4.22,4.22,0,0,0,18.94,29.18Z"/><path class="cls-2" d="M32.93,37.42c-.14,0-.15,0-.15-.15s0-.83,0-4.57V30.11c0-2.61,0-3.38,0-3.47s0-.15.15-.16.59,0,1.95,0h.91a9.25,9.25,0,0,0,.52-1.32,3.29,3.29,0,0,0,.15-.66c.48,0,1.09.14,1.5.21.13,0,.2.11.2.18a.28.28,0,0,1-.11.2,1,1,0,0,0-.21.34,11,11,0,0,1-.49,1.05h2.73c1.36,0,1.85,0,1.95,0s.15,0,.15.15,0,.87,0,3.1v3c0,3.74,0,4.48,0,4.55s0,.15-.15.15H40.77c-.14,0-.15,0-.15-.15v-.63H34.3v.66c0,.14,0,.15-.15.15Zm1.37-8h6.32V27.85H34.3Zm6.32,2.89V30.69H34.3v1.57Zm0,3V33.58H34.3v1.68Z"/><path class="cls-2" d="M54.72,24.95c.18-.08.21-.07.27.07a11.21,11.21,0,0,0,4.54,5.17,4.85,4.85,0,0,0-.81,1.05c-.13.21-.18.31-.27.31s-.15-.07-.29-.18a11.55,11.55,0,0,1-1.33-1.13c0,.41,0,.9,0,1.39a27.84,27.84,0,0,1-.35,3.92,1.81,1.81,0,0,1-2.09,1.72c-.35,0-.62,0-1,0s-.42,0-.52-.49a2.88,2.88,0,0,0-.43-1.12,10.49,10.49,0,0,0,1.6.13c.59,0,.83-.22.94-.87a23,23,0,0,0,.27-3.47H52.74a6.78,6.78,0,0,1-4.26,5.94.92.92,0,0,1-.34.11c-.11,0-.15-.1-.29-.34a2.64,2.64,0,0,0-.71-.84c2.55-.92,3.78-2.41,4-4.88H51c-1.32,0-1.77,0-1.85,0s-.15,0-.15-.15v-1a15.41,15.41,0,0,1-1.36,1.16c-.15.11-.24.18-.31.18s-.15-.1-.29-.31a3.12,3.12,0,0,0-.78-.85,10.94,10.94,0,0,0,4-4.62,4,4,0,0,0,.28-.9,9.73,9.73,0,0,1,1.46.49c.15.07.2.14.2.24a.29.29,0,0,1-.11.21,1.13,1.13,0,0,0-.32.45A12.64,12.64,0,0,1,49.25,30c.2,0,.69,0,1.77,0h3.77c1.22,0,1.68,0,1.82,0a14.75,14.75,0,0,1-3-4.44c-.06-.15,0-.17.13-.24Z"/><path class="cls-2" d="M67.41,25.47c.17,0,.25.11.25.22s-.1.39-.1.59,0,.62.07.94a19.65,19.65,0,0,0,.45,2.41l2-1.07a3.47,3.47,0,0,0,1-.76,7.18,7.18,0,0,1,1,1.32.57.57,0,0,1,.1.29c0,.14-.08.25-.28.28a6.72,6.72,0,0,0-1.34.42,19.44,19.44,0,0,0-3.29,1.64c-1.22.8-1.65,1.46-1.65,2.12,0,.83.62,1.18,2.23,1.18a24.52,24.52,0,0,0,4.27-.32c.15,0,.22,0,.25.17a12.51,12.51,0,0,1,.14,1.3c0,.15-.08.22-.25.24a30.08,30.08,0,0,1-4.17.21c-2.65,0-4-.87-4-2.69,0-1.55,1-2.58,2.66-3.61a21.27,21.27,0,0,1-.73-3.42,6.28,6.28,0,0,0-.36-1.62A8.05,8.05,0,0,1,67.41,25.47Z"/><path class="cls-2" d="M89.33,33.36c0,1.22,0,2,0,2.45A1.46,1.46,0,0,1,88.95,37c-.28.24-.81.32-2,.35-.45,0-.43,0-.53-.42a3.3,3.3,0,0,0-.39-1c.43,0,.8.05,1.18.05s.59-.1.59-.45v-7H79.54v6.71c0,1.32,0,2,0,2.06s0,.14-.15.14H78.15c-.14,0-.15,0-.15-.14s0-.77,0-2.24V29.5c0-1.47,0-2.16,0-2.26s0-.15.15-.15.57,0,1.9,0h1.64a14.51,14.51,0,0,0,.74-1.61,3.53,3.53,0,0,0,.21-.79c.57.07,1.16.15,1.57.24.13,0,.17.1.17.18a.32.32,0,0,1-.11.24.82.82,0,0,0-.24.34c-.21.45-.46,1-.71,1.4h4c1.33,0,1.81,0,1.89,0s.17,0,.17.15,0,.85,0,2.33Zm-8.18,1.81c-.14,0-.15,0-.15-.15s0-.45,0-2.34V31.47c0-1.08,0-1.44,0-1.54s0-.15.15-.15.43,0,1.48,0h2c1.06,0,1.4,0,1.5,0s.15,0,.15.15,0,.45,0,1.3v1.32c0,1.85,0,2.19,0,2.27s0,.15-.15.15H85.08c-.15,0-.17,0-.17-.15V34.4H82.35V35c0,.14,0,.15-.15.15Zm1.2-2h2.56V31.05H82.35Z"/><path class="cls-2" d="M97.62,26.19a3.56,3.56,0,0,0-.49-.9,9.94,9.94,0,0,1,1.69-.15c.2,0,.31.11.31.25s0,.18,0,.27a2.47,2.47,0,0,0,.06.42c.1.36.14.49.22.73a22,22,0,0,0,2.86-.74c.13-.06.2,0,.24.07.08.27.18.66.24.94a.21.21,0,0,1-.17.25c-.94.29-1.79.5-2.75.71.13.35.31.78.49,1.18a16.48,16.48,0,0,0,2.55-.73c.14-.07.21,0,.25.08a5.29,5.29,0,0,1,.25.92c0,.13,0,.2-.11.25a17.44,17.44,0,0,1-2.37.69,10.44,10.44,0,0,0,1.84,2.42c.14.13.14.18.07.34a4.08,4.08,0,0,1-.57.87c-.08.1-.14.14-.22.14a.38.38,0,0,1-.2-.08,3.53,3.53,0,0,0-.83-.45,6.81,6.81,0,0,0-2.63-.45c-1.32,0-2.09.41-2.09,1.06,0,.91,1.19,1.21,3.33,1.21.52,0,1-.06,1.54-.08.14,0,.18.07.17.18a9,9,0,0,1-.28,1.27c0,.14-.1.2-.29.21s-.66,0-1,0c-3.22,0-4.93-.91-4.93-2.63,0-1.5,1.29-2.44,3.47-2.44a6.48,6.48,0,0,1,2.41.35,16.45,16.45,0,0,1-1.16-1.65,32.82,32.82,0,0,1-3.84.42c-.15,0-.21-.06-.25-.2a7,7,0,0,1-.25-1.15,24.36,24.36,0,0,0,3.77-.35c-.14-.29-.35-.77-.53-1.16a24.48,24.48,0,0,1-3.4.34c-.17,0-.25-.06-.28-.2s-.14-.67-.22-1.12A24.75,24.75,0,0,0,98,27.1C97.85,26.78,97.76,26.54,97.62,26.19Z"/><path class="cls-2" d="M111.67,29.29a17.26,17.26,0,0,1-2.59,1.65,1,1,0,0,1-.32.14c-.1,0-.15-.1-.27-.35a3.4,3.4,0,0,0-.66-.94,12.48,12.48,0,0,0,5.39-4.29,4.39,4.39,0,0,0,.55-1c.55.08,1.06.17,1.47.27.17.06.25.1.25.22a.24.24,0,0,1-.14.21.38.38,0,0,0-.11.1,12.64,12.64,0,0,0,6,4.27,3.71,3.71,0,0,0-.59,1.06c-.08.27-.14.36-.25.36a.84.84,0,0,1-.34-.13,15.26,15.26,0,0,1-2.73-1.57v1c0,.14,0,.15-.15.15s-.46,0-1.58,0H113.4c-1.12,0-1.48,0-1.58,0s-.15,0-.15-.15Zm-1.33,8.17c-.14,0-.15,0-.15-.15s0-.46,0-2.49V33.6c0-1.2,0-1.61,0-1.69s0-.15.15-.15.57,0,1.92,0h4.48c1.34,0,1.83,0,1.92,0s.17,0,.17.15,0,.49,0,1.48v1.37c0,2,0,2.4,0,2.46s0,.15-.17.15h-1.19c-.14,0-.15,0-.15-.15v-.46h-5.62v.53c0,.14,0,.15-.17.15Zm1.36-2h5.62V33.05h-5.62Zm3.88-6.38H117a12.52,12.52,0,0,1-2.58-2.66,13.9,13.9,0,0,1-2.55,2.65c.17,0,.56,0,1.51,0Z"/><path class="cls-2" d="M126.28,27.13c.13.06.22.15.22.25a1.21,1.21,0,0,1-.11.39,6.3,6.3,0,0,0-.13,1.37,17.63,17.63,0,0,0,.25,3.19c.2,1.11.56,2.06,1.15,2.06s.8-.49,1.34-1.95a5.38,5.38,0,0,0,.9,1.08.43.43,0,0,1,.1.52c-.53,1.43-1.4,2.19-2.38,2.19s-2.24-1.29-2.62-3.66a25.38,25.38,0,0,1-.34-4.08,7.53,7.53,0,0,0-.17-1.83A6.07,6.07,0,0,1,126.28,27.13Zm6.5.88a.41.41,0,0,1,.15-.06.21.21,0,0,1,.15.08,9.27,9.27,0,0,1,2.75,4.79c0,.18,0,.24-.15.31a4.74,4.74,0,0,1-1.09.56c-.17.06-.27,0-.29-.15a9.44,9.44,0,0,0-2.62-4.89C132.21,28.32,132.56,28.12,132.78,28Z"/><path class="cls-2" d="M139.67,34a.3.3,0,0,1,.21-.11.28.28,0,0,1,.18.08,10.42,10.42,0,0,1,2.79,2.56c.08.11.1.15.1.21s0,.13-.14.22l-.85.73c-.1.08-.15.13-.2.13s-.13,0-.2-.14A10.45,10.45,0,0,0,138.91,35c-.08-.06-.13-.1-.13-.14s0-.08.1-.17Z"/><path class="cls-2" d="M156.58,31.49c-1.26,0-1.71,0-1.79,0s-.15,0-.15-.15V30.29c0-.14,0-.15.15-.15s.53,0,1.79,0h3.24v-2h-2c-1.36,0-1.85,0-1.93,0s-.14,0-.14-.15V26.94c0-.14,0-.15.14-.15s.57,0,1.93,0h2v-.49a8.16,8.16,0,0,0-.1-1.67c.52,0,1.06,0,1.54.1.14,0,.22.08.22.15a2.25,2.25,0,0,1-.1.36,4.88,4.88,0,0,0-.07,1v.52h2.24c1.36,0,1.85,0,1.93,0s.14,0,.14.15V28c0,.14,0,.15-.14.15s-.57,0-1.93,0h-2.24v2h3.45c1.27,0,1.71,0,1.79,0s.17,0,.17.15v1.08c0,.14,0,.15-.17.15s-.52,0-1.79,0H162a13,13,0,0,0,5.28,3.87,3.94,3.94,0,0,0-.73,1c-.1.24-.15.32-.24.32a1.06,1.06,0,0,1-.34-.14,12.71,12.71,0,0,1-4.67-4.15c0,2.07.07,4.23.07,4.92,0,.14,0,.15-.15.15h-1.26c-.14,0-.15,0-.15-.15,0-.64.07-2.83.08-4.89a13.27,13.27,0,0,1-4.44,4.09.77.77,0,0,1-.32.15c-.08,0-.14-.1-.25-.34a3.42,3.42,0,0,0-.67-1A11.85,11.85,0,0,0,159,31.49Z"/><path class="cls-2" d="M171.88,32.19c-1.26,0-1.69,0-1.78,0s-.15,0-.15-.17V31c0-.14,0-.15.15-.15s.52,0,1.78,0h3.36v-3h-2.58c-1.34,0-1.79,0-1.88,0s-.15,0-.15-.15v-1c0-.14,0-.15.15-.15s.53,0,1.88,0h2.58v-.29a9.12,9.12,0,0,0-.1-1.65c.5,0,1,0,1.51.1.14,0,.2.08.2.14a1.78,1.78,0,0,1-.08.39,4.63,4.63,0,0,0-.07,1v.31h2.79c1.34,0,1.79,0,1.88,0s.17,0,.17.15v1c0,.14,0,.15-.17.15s-.53,0-1.88,0H176.7v3h.88A11.7,11.7,0,0,0,178.5,29a3.7,3.7,0,0,0,.22-.74,13.07,13.07,0,0,1,1.42.35c.17.06.22.13.22.22a.19.19,0,0,1-.13.18,1.54,1.54,0,0,0-.35.5c-.27.46-.52.9-.84,1.39h1.2c1.26,0,1.7,0,1.78,0s.15,0,.15.15v1c0,.15,0,.17-.15.17s-.52,0-1.78,0h-2.68a13,13,0,0,0,5,3.38,4,4,0,0,0-.73,1c-.11.25-.15.35-.25.35a1,1,0,0,1-.32-.14,12.36,12.36,0,0,1-4.65-4c0,2,.07,4,.07,4.51,0,.14,0,.15-.15.15h-1.22c-.14,0-.15,0-.15-.15,0-.55.06-2.45.07-4.43a12.14,12.14,0,0,1-4.37,3.83,1,1,0,0,1-.34.14c-.1,0-.14-.1-.27-.34a3.63,3.63,0,0,0-.66-.92,11.46,11.46,0,0,0,4.66-3.45Zm.94-3.88c.15-.06.2-.06.28.07a10.32,10.32,0,0,1,.88,1.72c.06.14,0,.17-.14.22l-1,.38c-.18.07-.21.06-.27-.08a8.6,8.6,0,0,0-.84-1.72c-.08-.14-.06-.18.11-.24Z"/><path class="cls-2" d="M192.36,27.81a17.54,17.54,0,0,1-1.75,6,2.66,2.66,0,0,1-2.38,1.61c-1.23,0-2.48-1.32-2.48-3.6a5.16,5.16,0,0,1,1.58-3.64,6.13,6.13,0,0,1,4.55-1.79c3.36,0,5.34,2.07,5.34,4.86,0,2.6-1.47,4.24-4.31,5.1-.29.08-.42,0-.6-.25a3,3,0,0,0-1-.88c2.37-.56,4.23-1.54,4.23-4.19a3.18,3.18,0,0,0-3.14-3.25Zm-4,1.36a4,4,0,0,0-1.09,2.59c0,1.29.52,2,1,2s.67-.18,1.05-.85a16,16,0,0,0,1.48-5A4.22,4.22,0,0,0,188.34,29.17Z"/><path class="cls-2" d="M202.33,37.4c-.14,0-.15,0-.15-.15s0-.83,0-4.57V30.09c0-2.61,0-3.38,0-3.47s0-.15.15-.15.59,0,1.95,0h.91a9.25,9.25,0,0,0,.52-1.32,3.29,3.29,0,0,0,.15-.66c.48,0,1.09.14,1.5.21.13,0,.2.11.2.18a.28.28,0,0,1-.11.2,1,1,0,0,0-.21.34,11,11,0,0,1-.49,1.05h2.73c1.36,0,1.85,0,1.95,0s.15,0,.15.15,0,.87,0,3.1v3c0,3.74,0,4.48,0,4.55s0,.15-.15.15h-1.25c-.14,0-.15,0-.15-.15v-.63H203.7v.66c0,.14,0,.15-.15.15Zm1.37-8H210V27.83H203.7ZM210,32.24V30.68H203.7v1.57Zm0,3V33.56H203.7v1.68Z"/><path class="cls-2" d="M224.12,24.93c.18-.08.21-.07.27.07a11.21,11.21,0,0,0,4.54,5.17,4.77,4.77,0,0,0-.81,1.05c-.13.21-.18.31-.27.31s-.15-.07-.29-.18a11.6,11.6,0,0,1-1.33-1.13c0,.41,0,.9,0,1.39a28,28,0,0,1-.35,3.92,1.81,1.81,0,0,1-2.09,1.72c-.35,0-.62,0-1,0s-.42,0-.52-.49a2.87,2.87,0,0,0-.43-1.12,10.48,10.48,0,0,0,1.6.13c.59,0,.83-.22.94-.87a23.11,23.11,0,0,0,.27-3.47h-2.49a6.78,6.78,0,0,1-4.26,5.94.92.92,0,0,1-.34.11c-.11,0-.15-.1-.29-.34a2.64,2.64,0,0,0-.71-.84c2.55-.92,3.78-2.41,4-4.88h-.17c-1.32,0-1.77,0-1.85,0s-.15,0-.15-.15v-1a15.41,15.41,0,0,1-1.36,1.16c-.15.11-.24.18-.31.18s-.15-.1-.29-.31a3.12,3.12,0,0,0-.78-.85,10.94,10.94,0,0,0,4-4.62,4,4,0,0,0,.28-.9,9.81,9.81,0,0,1,1.46.49c.15.07.2.14.2.24a.29.29,0,0,1-.11.21,1.12,1.12,0,0,0-.32.45A12.66,12.66,0,0,1,218.65,30c.2,0,.69,0,1.77,0h3.77c1.22,0,1.68,0,1.82,0a14.75,14.75,0,0,1-3-4.44c-.06-.15,0-.17.13-.24Z"/><path class="cls-2" d="M239.18,34.37c0,.15-.08.22-.27.25a7.7,7.7,0,0,1-1,.07c-.13,0-.18-.08-.18-.22,0-.5,0-1.21,0-1.71-1.25.65-1.7,1.19-1.7,1.86s.48,1,1.95,1a24.06,24.06,0,0,0,3.49-.28c.13,0,.18,0,.2.15a6.33,6.33,0,0,1,.13,1.15c0,.17,0,.27-.15.27a24.89,24.89,0,0,1-3.47.18c-2.3,0-3.52-.68-3.52-2.31,0-1.34.84-2.33,3-3.42,0-.71-.21-1-.84-1a3.38,3.38,0,0,0-1.93,1,18.79,18.79,0,0,0-1.4,1.53c-.07.08-.11.13-.17.13a.29.29,0,0,1-.15-.1,6.65,6.65,0,0,1-.8-.92.22.22,0,0,1-.06-.13c0-.06,0-.1.1-.15a14.32,14.32,0,0,0,2.93-3.47c-.66,0-1.42,0-2.24,0-.13,0-.17-.07-.2-.22s-.1-.74-.14-1.16a30.83,30.83,0,0,0,3.22,0,11.06,11.06,0,0,0,.42-1.21,3.42,3.42,0,0,0,.1-.85,8.87,8.87,0,0,1,1.6.39.25.25,0,0,1,.17.24.27.27,0,0,1-.1.21,1.1,1.1,0,0,0-.24.34c-.08.2-.15.38-.32.76a22.64,22.64,0,0,0,2.55-.43c.15,0,.2,0,.22.14a4.74,4.74,0,0,1,.14,1c0,.14,0,.2-.24.22-1.05.15-2.25.31-3.28.42a14.42,14.42,0,0,1-1.05,1.55v0a2.8,2.8,0,0,1,1.4-.44A1.55,1.55,0,0,1,239,30.78c.54-.25,1.34-.62,2.06-1a4.18,4.18,0,0,0,1.06-.76,8.61,8.61,0,0,1,1,1.23.57.57,0,0,1,.11.31c0,.11-.07.17-.21.2a4.52,4.52,0,0,0-.85.21c-.91.32-1.82.63-3,1.12Z"/><path class="cls-2" d="M249.38,25.94a6,6,0,0,0-.08-1.25c.49,0,.9,0,1.36.07.13,0,.18.06.18.14a.9.9,0,0,1-.06.22,2.64,2.64,0,0,0-.07.8v.62h.18c1.12,0,1.47,0,1.55,0s.17,0,.17.15v1c0,.14,0,.15-.17.15s-.43,0-1.55,0h0a7.48,7.48,0,0,0,1.93,2,3.47,3.47,0,0,0-.49.83c-.08.2-.14.29-.22.29s-.15-.07-.28-.21a6.85,6.85,0,0,1-1.15-1.55c0,1.76.07,3,.07,3.31s0,.17-.15.17h-1.06c-.14,0-.15,0-.15-.17s0-1.39.05-3a7.63,7.63,0,0,1-1.68,2.14c-.13.11-.21.17-.28.17s-.17-.1-.28-.31a3.21,3.21,0,0,0-.6-.83,8,8,0,0,0,2.59-2.84h-.46c-1.13,0-1.5,0-1.58,0s-.15,0-.15-.15v-1c0-.14,0-.15.15-.15s.45,0,1.58,0h.69ZM247,36.09c-.18-.13-.17-.18-.08-.28a7.67,7.67,0,0,0,1.18-2.48c0-.15.07-.14.25-.07l.88.34c.18.07.2.1.15.25a10.17,10.17,0,0,1-1.26,2.79c0,.07-.07.1-.11.1a.27.27,0,0,1-.17-.07Zm4.75-.83c0,.28.06.46.2.55a3.07,3.07,0,0,0,1.3.15,3.44,3.44,0,0,0,1.67-.21,1.75,1.75,0,0,0,.35-1.26,3.57,3.57,0,0,0,1.05.41c.36.07.35.11.29.49-.13.91-.35,1.26-.77,1.5a5.75,5.75,0,0,1-2.72.35,5,5,0,0,1-2.34-.31c-.31-.21-.48-.48-.48-1.19V34.17A7.75,7.75,0,0,0,250.2,33c.46,0,1,0,1.43.07.18,0,.25.08.25.15a.48.48,0,0,1-.06.22,1.59,1.59,0,0,0-.1.63Zm5.13-10c1.09,0,1.46,0,1.55,0s.15,0,.15.15,0,.58,0,1.64v3.7c0,1.07,0,1.56,0,1.64s0,.17-.15.17-.46,0-1.55,0h-3.28a9.26,9.26,0,0,1,1.36,1.58c.07.11.07.15-.08.25l-.81.51a.39.39,0,0,1-.18.08s-.07,0-.11-.1a7.79,7.79,0,0,0-1.4-1.82c-.08-.1-.07-.15.07-.24l.74-.43c0-.11,0-.6,0-1.62V27c0-1.06,0-1.54,0-1.64s0-.15.17-.15.43,0,1.54,0Zm-2.35,2.1h2.7v-1h-2.7Zm2.7,2v-.94h-2.7v.94Zm0,1h-2.7v1h2.7Zm.37,2.7c.17-.07.21-.06.29.06a10.85,10.85,0,0,1,1.53,2.52c0,.11,0,.15-.13.25l-.94.55a.39.39,0,0,1-.18.08s-.07,0-.1-.13a8.78,8.78,0,0,0-1.44-2.63c-.1-.13-.08-.15.1-.25Z"/><path class="cls-2" d="M263.43,32.15c0-.57,0-1.32,0-2-.27.38-.56.76-.85,1.12-.1.13-.17.18-.24.18s-.11-.1-.17-.29a5.58,5.58,0,0,0-.45-1.09,12.62,12.62,0,0,0,2.51-4.46,4.71,4.71,0,0,0,.22-1,10.41,10.41,0,0,1,1.3.41c.15.06.24.1.24.21s-.06.15-.14.24a1.7,1.7,0,0,0-.34.67,17.11,17.11,0,0,1-.76,1.79v7.26c0,1.37,0,2.06,0,2.13s0,.15-.15.15h-1.11c-.14,0-.15,0-.15-.15s0-.76,0-2.13Zm6.19-1.05a5.7,5.7,0,0,1,1.6,4c0,1.72-.76,2.33-1.67,2.33h-.71c-.42,0-.42,0-.49-.41A3.56,3.56,0,0,0,268,36a7.09,7.09,0,0,0,1.12.1c.55,0,.79-.18.79-1.3a1.71,1.71,0,0,0,0-.27A13.13,13.13,0,0,1,266,36.71a1.07,1.07,0,0,1-.27.07c-.1,0-.14-.06-.21-.24a2.61,2.61,0,0,0-.55-.83,14.18,14.18,0,0,0,4.72-2.33c-.06-.15-.11-.31-.18-.46A14.21,14.21,0,0,1,266,34.73a.9.9,0,0,1-.28.08c-.1,0-.14-.07-.21-.24a2.23,2.23,0,0,0-.5-.76A13.31,13.31,0,0,0,269,32.06a2.35,2.35,0,0,0-.29-.35,13,13,0,0,1-2.49,1.16.93.93,0,0,1-.31.08c-.1,0-.14-.07-.21-.24a3.1,3.1,0,0,0-.5-.8,11.77,11.77,0,0,0,3.32-1.3h-.28c-1.32,0-1.82,0-1.91,0s-.15,0-.16-.15,0-.35,0-1V29l-.18.13c-.17.13-.27.2-.34.2s-.13-.08-.21-.24a3.68,3.68,0,0,0-.55-.76,8.25,8.25,0,0,0,2.77-2.77,3.91,3.91,0,0,0,.39-.9c.52.08.88.15,1.23.24.15,0,.25.1.25.2a.28.28,0,0,1-.17.25,1.18,1.18,0,0,0-.34.41h2a1,1,0,0,0,.35,0,.53.53,0,0,1,.18-.06c.11,0,.21.06.55.38s.35.35.35.46-.07.17-.2.24A1.28,1.28,0,0,0,272,27a6.35,6.35,0,0,1-.56.66H272c1.33,0,1.83,0,1.93,0s.15,0,.15.15,0,.32,0,.92v.84c0,.6,0,.83,0,.91s0,.15-.15.15-.6,0-1.93,0h-.22a9.1,9.1,0,0,0,.56,1.68c.25-.24.49-.49.7-.73a4.35,4.35,0,0,0,.41-.62c.41.24.76.45,1,.63s.18.15.18.24-.08.17-.18.21a1.78,1.78,0,0,0-.48.36c-.32.32-.66.64-1.05,1a7.46,7.46,0,0,0,2.23,2.1,3.85,3.85,0,0,0-.62.9c-.11.21-.18.31-.28.31s-.18-.07-.34-.21a10.5,10.5,0,0,1-3.35-5.84h-.28Zm-.21-1.43v-1h-2v1Zm.48-2a5.55,5.55,0,0,0,.74-.9h-2.28c-.24.29-.49.6-.77.9Zm2.88,1h-2.09v1h2.09Z"/><path class="cls-2" d="M282.35,25.58c.24.06.34.13.34.27a1.37,1.37,0,0,1-.14.46,8.31,8.31,0,0,0-.2,1.71c-.14,2.16-.21,3.59-.21,5.42,0,1.42.17,1.74,1.29,1.74a7.39,7.39,0,0,0,4.9-2.58,4.88,4.88,0,0,0,.32,1.33.92.92,0,0,1,.11.34c0,.13-.06.24-.28.43a8,8,0,0,1-5.31,2.1c-1.79,0-2.63-.71-2.63-2.86,0-2.35.13-4.37.2-6.05a9.3,9.3,0,0,0-.14-2.56A14.33,14.33,0,0,1,282.35,25.58Z"/><path class="cls-2" d="M293.66,33.94a.3.3,0,0,1,.21-.11.28.28,0,0,1,.18.08,10.42,10.42,0,0,1,2.79,2.56c.08.11.1.15.1.21s0,.13-.14.22l-.85.73c-.1.08-.15.13-.2.13s-.13,0-.2-.14A10.46,10.46,0,0,0,292.91,35c-.08-.06-.13-.1-.13-.14s0-.08.1-.17Z"/><path class="cls-2" d="M310.68,32.95a14,14,0,0,1-.31,1.53,9.26,9.26,0,0,1-1,2.21c-.1.17-.17.25-.24.25s-.14-.08-.28-.25a3.41,3.41,0,0,0-.81-.77,6.93,6.93,0,0,0,1.13-2.42,11.27,11.27,0,0,0,.31-2.87c0-1,0-1.42,0-1.57s0-.15.14-.15.48,0,1.61,0h2.27c1.13,0,1.53,0,1.6,0s.15,0,.15.15,0,.36,0,1.13V31.7c0,.74,0,1,0,1.12s0,.15-.15.15-.46,0-1.6,0Zm.26-5.27A10.55,10.55,0,0,1,309.16,29a.91.91,0,0,1-.32.14c-.1,0-.14-.11-.24-.32a3.32,3.32,0,0,0-.52-.88,8.25,8.25,0,0,0,3.28-2.61,2.93,2.93,0,0,0,.41-.73c.46.07.84.14,1.29.24.11,0,.18.07.18.18s0,.13-.14.18a7.6,7.6,0,0,0,3,2.07,3.36,3.36,0,0,0-.46.9c-.08.24-.13.34-.21.34a.77.77,0,0,1-.31-.13A8.41,8.41,0,0,1,314,27.6v.67c0,.14,0,.15-.15.15s-.25,0-1,0h-.81c-.69,0-.87,0-1,0s-.17,0-.17-.15Zm4.58,7.89c0,1.22,0,1.55,0,1.64s0,.14-.15.14h-1.05c-.14,0-.15,0-.15-.14v-.32h-2.27v.42c0,.14,0,.15-.15.15h-1c-.14,0-.15,0-.15-.15s0-.41,0-1.65v-.8c0-.64,0-.94,0-1s0-.15.15-.15.42,0,1.47,0h1.7c1,0,1.37,0,1.47,0s.15,0,.15.15,0,.38,0,.87Zm-1.58-4.17h-3.11l0,.56h3.15Zm-3.1-1.49v.55h3.1v-.55Zm2-2.55c.43,0,.66,0,.78,0a8.26,8.26,0,0,1-1.25-1.27,10.63,10.63,0,0,1-1.11,1.27c.14,0,.36,0,.76,0Zm-1,7.35v1.15h2.27V34.71Zm4.52-6.78a12.82,12.82,0,0,0-.1-2.07c.5,0,.94,0,1.43.1.13,0,.18.07.18.15a1.31,1.31,0,0,1-.08.31,9.55,9.55,0,0,0,0,1.5v3.87c0,1.19,0,1.77,0,1.85s0,.17-.14.17h-1.15c-.13,0-.14,0-.14-.17s0-.66,0-1.85Zm4,4.8c0,1,0,2.09,0,2.79s-.1,1.09-.5,1.37-.8.35-2.12.35c-.42,0-.42,0-.52-.45a3.11,3.11,0,0,0-.45-1.06,13.75,13.75,0,0,0,1.51.07c.45,0,.62-.11.62-.56v-8.4a11.94,11.94,0,0,0-.11-2c.52,0,1,0,1.49.1.14,0,.21.08.21.15a1,1,0,0,1-.07.31,4.31,4.31,0,0,0-.08,1.42Z"/><path class="cls-2" d="M327,34.36a2.12,2.12,0,0,0,1.15,1.16,8,8,0,0,0,2.59.28c1.81,0,4-.08,6.05-.29a2.67,2.67,0,0,0-.38,1.08c-.07.45-.07.45-.52.48-1.78.1-3.47.13-4.93.13a9.62,9.62,0,0,1-3.28-.39,2.71,2.71,0,0,1-1.37-1.25,17.59,17.59,0,0,1-1.42,1.23,1.33,1.33,0,0,0-.28.28.23.23,0,0,1-.21.13.27.27,0,0,1-.2-.17,12.26,12.26,0,0,1-.58-1.32,6.51,6.51,0,0,0,.83-.43,8.84,8.84,0,0,0,1.16-.9V31.27h-.67c-.74,0-.94,0-1,0s-.17,0-.17-.17V30.06c0-.14,0-.15.17-.15s.27,0,1,0h.87c.76,0,1,0,1.05,0s.15,0,.15.15,0,.48,0,1.33Zm-2-9.23a.31.31,0,0,1,.17-.08s.08,0,.14.08A12.13,12.13,0,0,1,327,27.2c.1.13.07.15-.08.28l-.79.62c-.08.07-.13.1-.17.1s-.08,0-.13-.11a11.06,11.06,0,0,0-1.72-2.17c-.1-.11-.08-.14.07-.25Zm4.64,5.15c-1.36,0-1.82,0-1.91,0s-.17,0-.17-.14v-1c0-.14,0-.15.17-.15s.55,0,1.91,0h1.55v-1.4h-1.79c-.17.29-.36.59-.56.87s-.21.28-.29.28-.17-.07-.31-.2a3.31,3.31,0,0,0-.84-.52,7.74,7.74,0,0,0,1.4-2.21A4.13,4.13,0,0,0,329,25a8.69,8.69,0,0,1,1.23.36c.14.06.21.1.21.18s0,.13-.11.2a1.55,1.55,0,0,0-.28.49l-.08.21h1.19v-.25a8.08,8.08,0,0,0-.1-1.48c.53,0,1,0,1.43.07.13,0,.21.07.21.15a.42.42,0,0,1-.07.24,2.68,2.68,0,0,0-.08,1v.32h1.12c1.23,0,1.64,0,1.72,0s.15,0,.15.17v1c0,.14,0,.15-.15.15s-.49,0-1.72,0h-1.12v1.4h1.65c1.36,0,1.83,0,1.92,0s.17,0,.17.15v1c0,.13,0,.14-.17.14s-.56,0-1.92,0Zm3.68.87c1.23,0,1.67,0,1.75,0s.15,0,.15.15,0,.36,0,1.08V33.7c0,.71,0,1,0,1.08s0,.15-.15.15-.52,0-1.75,0h-2.77c-1.23,0-1.67,0-1.76,0s-.15,0-.15-.15,0-.36,0-1.08V32.36c0-.71,0-1,0-1.08s0-.15.15-.15.53,0,1.76,0Zm.46,1.19H330V33.7h3.74Z"/><path class="cls-2" d="M344,25.58c.24.06.34.13.34.27a1.37,1.37,0,0,1-.14.46A8.31,8.31,0,0,0,344,28c-.14,2.16-.21,3.59-.21,5.42,0,1.42.17,1.74,1.29,1.74a7.39,7.39,0,0,0,4.9-2.58,4.88,4.88,0,0,0,.32,1.33.92.92,0,0,1,.11.34c0,.13-.06.24-.28.43a8,8,0,0,1-5.31,2.1c-1.79,0-2.63-.71-2.63-2.86,0-2.35.13-4.37.2-6.05a9.3,9.3,0,0,0-.14-2.56A14.52,14.52,0,0,1,344,25.58Z"/><path class="cls-2" d="M361.86,27.9c-1.71.32-3.21.62-4.71.93-.53.13-.67.15-.88.22a.82.82,0,0,1-.31.11.33.33,0,0,1-.27-.21,9.88,9.88,0,0,1-.52-1.51,19.35,19.35,0,0,0,2.23-.24c1.72-.25,4.8-.72,8.42-1.19.21,0,.28.06.29.15a8.05,8.05,0,0,1,.15,1.23c0,.17-.08.21-.27.21a6.28,6.28,0,0,0-1.71.31c-2.38.81-3.57,2.45-3.57,4.13S362,34.83,364.45,35c.22,0,.31.06.31.21a5,5,0,0,1-.15,1.21c0,.21-.1.29-.27.29-2.46,0-5.17-1.41-5.17-4.33a5.07,5.07,0,0,1,2.69-4.44Z"/><path class="cls-2" d="M372.68,27.1c.13.06.22.15.22.25a1.23,1.23,0,0,1-.11.39,6.26,6.26,0,0,0-.13,1.37,17.6,17.6,0,0,0,.25,3.19c.2,1.11.56,2.06,1.15,2.06s.8-.49,1.34-1.95a5.35,5.35,0,0,0,.9,1.08.43.43,0,0,1,.1.52c-.53,1.43-1.4,2.19-2.38,2.19s-2.24-1.29-2.62-3.66a25.33,25.33,0,0,1-.34-4.08,7.48,7.48,0,0,0-.17-1.83A6.06,6.06,0,0,1,372.68,27.1Zm6.5.88a.41.41,0,0,1,.15-.06.21.21,0,0,1,.15.08,9.26,9.26,0,0,1,2.75,4.79c0,.18,0,.24-.15.31a4.75,4.75,0,0,1-1.09.56c-.17.06-.27,0-.29-.15a9.43,9.43,0,0,0-2.62-4.89C378.61,28.29,379,28.09,379.18,28Z"/><path class="cls-2" d="M394.31,26.06a.34.34,0,0,1,.11.22.28.28,0,0,1-.2.27,2.66,2.66,0,0,0-.67.49c-1.2,1.08-2.75,2.52-3.82,3.64-.13.15-.18.24-.18.31s.06.15.18.25a38.81,38.81,0,0,1,5.21,4.41.34.34,0,0,1,.1.18c0,.06,0,.1-.1.17-.32.35-.73.76-1,1-.08.07-.14.11-.2.11s-.1,0-.17-.13a35.45,35.45,0,0,0-5.1-4.73c-.53-.41-.74-.71-.74-1.18s.25-.77.69-1.23c1.19-1.29,2.35-2.45,3.56-3.77a4,4,0,0,0,.76-1.05A11.21,11.21,0,0,1,394.31,26.06Z"/><path class="cls-2" d="M404.27,29.25a17.32,17.32,0,0,1-2.59,1.65,1,1,0,0,1-.32.14c-.1,0-.15-.1-.27-.35a3.41,3.41,0,0,0-.66-.94,12.47,12.47,0,0,0,5.39-4.29,4.42,4.42,0,0,0,.55-1c.55.08,1.06.17,1.47.27.17.06.25.1.25.22a.24.24,0,0,1-.14.21.37.37,0,0,0-.11.1,12.64,12.64,0,0,0,6,4.27,3.7,3.7,0,0,0-.59,1.06c-.08.27-.14.36-.25.36a.83.83,0,0,1-.34-.13,15.19,15.19,0,0,1-2.73-1.57v1c0,.14,0,.15-.15.15s-.46,0-1.58,0H406c-1.12,0-1.49,0-1.58,0s-.15,0-.15-.15Zm-1.33,8.17c-.14,0-.15,0-.15-.15s0-.46,0-2.49V33.57c0-1.2,0-1.61,0-1.69s0-.15.15-.15.58,0,1.92,0h4.48c1.34,0,1.83,0,1.92,0s.17,0,.17.15,0,.49,0,1.48v1.37c0,2,0,2.4,0,2.46s0,.15-.17.15h-1.19c-.14,0-.15,0-.15-.15v-.46H404.3v.53c0,.14,0,.15-.17.15Zm1.36-2h5.62V33H404.3Zm3.88-6.37h1.44A12.57,12.57,0,0,1,407,26.41a13.89,13.89,0,0,1-2.55,2.65c.17,0,.56,0,1.51,0Z"/><path class="cls-2" d="M418,34c0-.56,0-1.27,0-1.95-.28.34-.58.66-.87,1-.14.13-.21.2-.28.2s-.14-.1-.24-.29a3.36,3.36,0,0,0-.62-.91,12.23,12.23,0,0,0,2.75-3.47,6.2,6.2,0,0,0,.36-1,9.07,9.07,0,0,1,1.26.58c.17.08.24.17.24.27s-.07.18-.18.25a1.51,1.51,0,0,0-.45.59c-.17.31-.36.63-.57,1v5.31c0,1.16,0,1.72,0,1.79s0,.15-.17.15H418.1c-.15,0-.17,0-.17-.15s0-.63,0-1.79Zm4.64-4.52c-1.29,0-1.72,0-1.81,0s-.15,0-.15-.15v-1c0-.14,0-.15.15-.15s.52,0,1.81,0h3.11c.67,0,1.09,0,1.37,0V27.07H418v1.69c0,.14,0,.15-.15.15H416.7c-.14,0-.15,0-.15-.15s0-.29,0-1.51v-.5c0-.49,0-.7,0-.8s0-.15.15-.15.55,0,1.83,0h3.11v-.2a4.27,4.27,0,0,0-.1-1c.5,0,1,0,1.5.08.14,0,.22.07.22.13a.72.72,0,0,1-.08.28,1.31,1.31,0,0,0-.07.57v.17h3.42c1.27,0,1.74,0,1.83,0s.14,0,.14.15,0,.31,0,.7v.6c0,1.16,0,1.37,0,1.46s0,.15-.14.15h-.71v.53c0,.14,0,.15-.15.15s-.5,0-1.79,0h-.81a10.92,10.92,0,0,1-.5,1.3h1.36c1.25,0,1.67,0,1.77,0s.15,0,.15.17,0,.53,0,1.82v1.89c0,2.06,0,2.55,0,2.62s0,.15-.15.15h-1.12c-.15,0-.17,0-.17-.15v-.41h-3.87v.45c0,.14,0,.15-.15.15H421.1c-.14,0-.15,0-.15-.15s0-.57,0-2.63V33c0-1.53,0-2,0-2.06s0-.17.15-.17.52,0,1.76,0h.07a11.26,11.26,0,0,0,.48-1.3Zm-.24,3.71h3.87V32h-3.87Zm3.87,2.44V34.42h-3.87v1.25Z"/><path class="cls-2" d="M433.5,37c-1.23,0-1.67,0-1.75,0s-.14,0-.14-.15v-1c0-.13,0-.14.14-.14s.52,0,1.75,0h3.59V34.38h-1.85c-1.36,0-1.83,0-1.92,0s-.17,0-.17-.15v-1c0-.15,0-.17.17-.17s.56,0,1.92,0h1.85c0-.35,0-.66,0-1h-.88c-.14,0-.15,0-.15-.17s0-.55,0-1.57V29.28h-1.32a6,6,0,0,1-.31,1.26A4.16,4.16,0,0,1,433,32.4c-.15.14-.24.21-.31.21s-.15-.08-.32-.27a3.37,3.37,0,0,0-.8-.64A3.7,3.7,0,0,0,433.16,30a4.77,4.77,0,0,0,.2-.76l-1.53,0c-.14,0-.15,0-.15-.17V28.2c0-.14,0-.15.15-.15s.5,0,1.65,0c0-.29,0-.6,0-1v-.71l-1.29,0c-.14,0-.15,0-.15-.15v-.92c0-.14,0-.15.15-.15s.49,0,1.71,0h2.72c1.22,0,1.63,0,1.71,0s.15,0,.15.15v.92c0,.14,0,.15-.15.15l-1,0v1.67c.88,0,1.22,0,1.29,0s.15,0,.15.15v.94c0,.15,0,.17-.15.17l-1.29,0v1.11c0,.67,0,1.09,0,1.33.38,0,.73,0,1.11.08.11,0,.2.08.2.17a.7.7,0,0,1-.07.29,2.44,2.44,0,0,0-.08.85h2.06c1.37,0,1.85,0,1.93,0s.15,0,.15.17v1c0,.14,0,.15-.15.15s-.56,0-1.93,0h-2.06v1.33h3.71c1.23,0,1.65,0,1.74,0s.14,0,.14.14v1c0,.14,0,.15-.14.15s-.5,0-1.74,0Zm2.53-8.9V26.41h-1.19v.9c0,.27,0,.53,0,.77Zm3.31-1.3a8,8,0,0,0-.1-1.4c.53,0,.84,0,1.32.08.14,0,.21.08.21.15a.46.46,0,0,1-.06.24,2.44,2.44,0,0,0-.08.92v1.74c0,.85,0,1.25,0,1.33s0,.17-.17.17h-1c-.14,0-.15,0-.15-.17s0-.48,0-1.33Zm4.08,2.41c0,.73,0,1.36,0,1.85A.94.94,0,0,1,443,32a3.63,3.63,0,0,1-1.82.28c-.42,0-.43,0-.5-.43a3.33,3.33,0,0,0-.31-.94,10.27,10.27,0,0,0,1.18.08c.41,0,.52-.13.52-.46v-4a9.27,9.27,0,0,0-.11-1.78c.53,0,.91,0,1.4.1.14,0,.22.08.22.15a.79.79,0,0,1-.08.32,3.5,3.5,0,0,0-.1,1.18Z"/><path class="cls-2" d="M450.54,28.39c-.91,0-1.71,0-2.31.07-.18,0-.24-.08-.27-.28s-.1-1-.13-1.41a24.54,24.54,0,0,0,2.69.1h5a1.35,1.35,0,0,0,.77-.14.44.44,0,0,1,.24-.08.33.33,0,0,1,.24.1,5.14,5.14,0,0,1,1,1,.47.47,0,0,1,.11.28.38.38,0,0,1-.14.27,1.69,1.69,0,0,0-.32.55,16.48,16.48,0,0,1-2.72,4.55,15.71,15.71,0,0,1-4,3.33.68.68,0,0,1-.38.13.49.49,0,0,1-.35-.15,4.17,4.17,0,0,0-1.3-.77,13.54,13.54,0,0,0,4.58-3.5,11.78,11.78,0,0,0,2.37-4Zm9.68-2.69a1.51,1.51,0,0,1-3,0,1.48,1.48,0,0,1,1.51-1.5A1.49,1.49,0,0,1,460.21,25.7Zm-2.34,0a.83.83,0,1,0,.83-.83A.8.8,0,0,0,457.88,25.7Z"/><path class="cls-2" d="M466,34.72v.83c0,.24-.06.27-.31.28s-.76,0-1.11,0-.31,0-.29-.21c0-.73,0-1.72,0-2.79V29.4c0-.76,0-1.51,0-2.33,0-.14.06-.2.15-.2.74,0,1.57,0,2.51,0h3.33c.91,0,2,0,2.63,0,.15,0,.2.07.18.28,0,.69,0,1.44,0,2.27v3.35c0,1.22,0,1.91.07,2.66,0,.2-.07.24-.27.24-.42,0-.87,0-1.29,0-.17,0-.18,0-.18-.22v-.74Zm5.43-6.32h-5.45v4.83h5.45Z"/><path class="cls-2" d="M479.19,29.22c.07-.1.14-.17.27-.14a9.74,9.74,0,0,1,2.69,1.37c.1.07.16.13.16.21a.42.42,0,0,1-.06.15,5.7,5.7,0,0,1-.62,1.06c-.07.08-.13.14-.18.14a.27.27,0,0,1-.17-.08,12.27,12.27,0,0,0-2.83-1.53C478.8,29.85,479,29.44,479.19,29.22Zm2.27,5.2A23.43,23.43,0,0,0,485.3,32a25.54,25.54,0,0,0,4-3.91,7,7,0,0,0,.41,1.57.69.69,0,0,1,.07.27.44.44,0,0,1-.15.32,26.09,26.09,0,0,1-3.56,3.24,32.45,32.45,0,0,1-4.19,2.63,4.53,4.53,0,0,0-.81.48.31.31,0,0,1-.22.11.36.36,0,0,1-.28-.17,8.77,8.77,0,0,1-1-1.43A6.46,6.46,0,0,0,481.46,34.41ZM480.89,26c.1-.17.18-.2.35-.11a9.54,9.54,0,0,1,2.63,1.55.22.22,0,0,1,.11.18.34.34,0,0,1-.06.18,5.92,5.92,0,0,1-.71,1.05.16.16,0,0,1-.14.08.36.36,0,0,1-.21-.1,13.58,13.58,0,0,0-2.72-1.72Zm6.42-.44c.07-.06.13,0,.21,0a6.45,6.45,0,0,1,1.33,1.5.14.14,0,0,1,0,.22l-.59.43a.15.15,0,0,1-.24,0,7,7,0,0,0-1.42-1.62Zm1.25-.91c.08-.06.13,0,.21,0a5.86,5.86,0,0,1,1.33,1.44.16.16,0,0,1,0,.25l-.56.43a.14.14,0,0,1-.24,0,6.62,6.62,0,0,0-1.4-1.61Z"/><path class="cls-2" d="M500.17,34.65h1.48c.71,0,1.5,0,2.26-.06.13,0,.18.08.2.27s0,.6,0,.9-.07.27-.24.25l-2.2,0h-4.4c-.84,0-1.47,0-2.06.06-.17,0-.24-.08-.27-.29a6.44,6.44,0,0,1-.07-1.13c.81.06,1.5.06,2.4.06h1.4V31.12h-2.49c-.13,0-.2-.07-.22-.28s-.06-.62-.08-1.12c.6.06,1.34.06,1.95.06h3.11l1.89,0c.17,0,.21.07.22.24s0,.59,0,.87-.07.28-.28.27l-1.82,0h-.77Z"/><path class="cls-2" d="M517.42,27.35a1.3,1.3,0,0,0,.7-.17.28.28,0,0,1,.18-.06.4.4,0,0,1,.22.08,6.49,6.49,0,0,1,1,.76.45.45,0,0,1,.18.32.4.4,0,0,1-.17.29,1.7,1.7,0,0,0-.46.6,19.26,19.26,0,0,1-2.77,4.33A17.82,17.82,0,0,1,512,37a.38.38,0,0,1-.22.07.5.5,0,0,1-.32-.15,3.69,3.69,0,0,0-1.33-.64,16.16,16.16,0,0,0,4.67-3.57,14.25,14.25,0,0,0,2.59-4l-3.39.1a19.54,19.54,0,0,1-2.65,2.87.44.44,0,0,1-.29.15.33.33,0,0,1-.21-.08,3.81,3.81,0,0,0-1.34-.6A16.6,16.6,0,0,0,513.26,27a6,6,0,0,0,.83-1.89,6.93,6.93,0,0,1,1.64.74.29.29,0,0,1,.14.24.28.28,0,0,1-.15.24,1.52,1.52,0,0,0-.35.38l-.46.7Z"/><path class="cls-2" d="M529.81,29.16a19.76,19.76,0,0,1,4.46,1.9c.15.08.22.18.15.36a8.29,8.29,0,0,1-.6,1.22c-.06.1-.11.15-.18.15a.21.21,0,0,1-.15-.07,15.5,15.5,0,0,0-3.68-1.79V34c0,.91,0,1.74.06,2.75,0,.17-.06.21-.25.21a9.15,9.15,0,0,1-1.25,0c-.2,0-.27,0-.27-.21,0-1,.06-1.86.06-2.76V27.12a10.62,10.62,0,0,0-.14-2.07,10.32,10.32,0,0,1,1.75.22c.2,0,.27.13.27.24a.73.73,0,0,1-.11.32,3.66,3.66,0,0,0-.1,1.32Z"/></g></svg>