<svg xmlns="http://www.w3.org/2000/svg" viewBox="0 0 673.45 70.13"><defs><style>.cls-1{fill:none;stroke:#422610;stroke-miterlimit:10;stroke-width:4px;}.cls-2{fill:#422610;}</style></defs><title>アセット 9</title><g id="レイヤー_2" data-name="レイヤー 2"><g id="日時"><path class="cls-1" d="M186.75,2V13.9H166.24l-1.15,9.85c1-.08,1.89-.17,2.87-.17,9.68,0,20.93,5.33,20.93,19.61,0,11.82-9.11,22.07-24.7,22.07-6.24,0-12-1.48-15-3l2.54-10.91a28.25,28.25,0,0,0,11.49,2.63c5.83,0,11.16-3.45,11.16-9.68,0-7-5.58-10.42-15.51-10.42a38.47,38.47,0,0,0-6.48.41L156,2Z"/><path class="cls-1" d="M206.36,56.33c0-5.17,3.69-8.94,8.37-8.94,4.84,0,8.37,3.53,8.37,8.94s-3.36,8.94-8.37,8.94S206.36,61.5,206.36,56.33Z"/><path class="cls-1" d="M273.32,64.37H260.11V49.84H235.74V40.41L257.07,2h16.25V38.93H280V49.84h-6.65ZM248.21,38.93h11.9V26.21c0-3.53.33-7.71.49-11.41h-.25c-1.72,3.69-3.28,7.39-5.25,11.16l-6.89,12.8Z"/><path class="cls-2" d="M23.88,60H0V54.62l4.33-4.68c6.45-6.75,10.34-11.13,10.34-15.66a4.91,4.91,0,0,0-5.32-5.22,12.19,12.19,0,0,0-6.7,2.51L.39,25.27a19.36,19.36,0,0,1,10.69-3.2c8.42,0,12.21,5.17,12.21,11.42,0,6.55-4.33,11.67-8.91,16.2l-3.15,3v.1H23.88Z"/><path class="cls-2" d="M33.18,41.42c0-10.54,3.89-19.35,12.85-19.35,9.65,0,12.56,9.8,12.56,19.1,0,12.21-4.73,19.4-12.7,19.4C36.33,60.58,33.18,50.83,33.18,41.42Zm16.74-.1C49.92,33.3,48.69,29,46,29s-4.14,3.84-4.14,12.36S43.28,53.68,46,53.68C48.05,53.68,49.92,51.52,49.92,41.32Z"/><path class="cls-2" d="M77,60V30.29h-.1l-6.45,3.3-1.92-6.25,9.6-4.73h7.34V60Z"/><path class="cls-2" d="M106.29,40.49a9.53,9.53,0,0,1-5.07-8.08c0-6.35,5.32-10.34,12.06-10.34,7.48,0,11.33,4.58,11.33,9.5a9.62,9.62,0,0,1-5.22,8.22v.1c3.4,1.58,6.4,4.73,6.4,9.41,0,7-5.42,11.28-13,11.28-8.22,0-12.61-4.78-12.61-10.39,0-4.48,2.61-7.73,6.16-9.6Zm10.88,9.45a6.81,6.81,0,0,0-4.83-6.4,6.23,6.23,0,0,0-3.59,5.91c0,2.76,1.58,5.37,4.23,5.37S117.18,52.4,117.18,49.94ZM109.35,32c0,2.36,1.72,4.33,4.23,5.32,1.62-.59,3.05-2.86,3.05-5s-.94-4.63-3.59-4.63C110,27.73,109.35,30.25,109.35,32Z"/><path class="cls-2" d="M306.83,31.33c0-7.78,4.88-11.47,10.64-11.47a16.28,16.28,0,0,1,4.63.59l-.54,6.65a9.09,9.09,0,0,0-2.51-.34c-3.59,0-3.59,3.5-3.59,5.56h5.12v6.25H315.5V60h-8.67V38.57h-3.69V32.31h3.69Z"/><path class="cls-2" d="M350.11,40.24A8.61,8.61,0,0,0,348,40a4.89,4.89,0,0,0-5,3.5,8,8,0,0,0-.34,2.61V60H334V41.27c0-3.64-.1-6.45-.2-9h7.43l.34,4.63h.2c1.38-3.64,4.28-5.17,6.55-5.17a9,9,0,0,1,1.82.15Z"/><path class="cls-2" d="M368,29.21a4.26,4.26,0,0,1-4.43-4.38,4.43,4.43,0,1,1,8.86,0A4.25,4.25,0,0,1,368,29.21ZM372.31,60h-8.67V32.31h8.67Z"/><path class="cls-2" d="M613.29,41.09a11.47,11.47,0,0,0-5.12-1.38c-1.92,0-2.91.84-2.91,2.07s.84,1.82,3.89,3.1c4.83,2,6.65,4.88,6.7,8.42,0,5.71-4.33,9-11.33,9a16.61,16.61,0,0,1-8-1.82L598,54.29a14.62,14.62,0,0,0,6.45,1.82c2.17,0,3.2-.74,3.2-2.07s-.79-2-3.59-3.15c-5.32-2.22-6.94-5.32-6.94-8.17,0-5.22,4.14-9.16,10.64-9.16a16.79,16.79,0,0,1,7,1.48Z"/><path class="cls-2" d="M647,55.28a36,36,0,0,0,.44,6.55h-7.78l-.49-2.66H639a8.61,8.61,0,0,1-7.14,3.2,8.18,8.18,0,0,1-8.32-8.52c0-7.34,6.55-10.49,14.72-10.54,0-2.12-.94-3.64-4.43-3.64A13.47,13.47,0,0,0,627,41.54l-1.58-5.61a21.54,21.54,0,0,1,10.14-2.36c9.16,0,11.42,5.81,11.42,12Zm-8.42-6.55c-3.59,0-6.65,1-6.65,4.23,0,2.26,1.38,3.25,2.9,3.25a3.71,3.71,0,0,0,3.74-3.89Z"/><path class="cls-2" d="M659.12,29l8.57-2.41V34.1h5.76v6.25h-5.76V50.79c0,3.25,1,4.43,3.1,4.43a7.77,7.77,0,0,0,2.27-.25l0,6.7a19.11,19.11,0,0,1-5.32.64c-8.52,0-8.67-7.29-8.67-10.44V40.36h-3.4V34.1h3.4Z"/><path class="cls-1" d="M484.73,4.86v11.9H464.21l-1.15,9.85c1-.08,1.89-.17,2.87-.17,9.68,0,20.93,5.33,20.93,19.61,0,11.82-9.11,22.07-24.7,22.07-6.24,0-12-1.48-15-3l2.54-10.91a28.25,28.25,0,0,0,11.49,2.63c5.83,0,11.16-3.45,11.16-9.68,0-7-5.58-10.42-15.51-10.42a38.48,38.48,0,0,0-6.48.41L454,4.86Z"/><path class="cls-1" d="M504.34,59.19c0-5.17,3.69-8.94,8.37-8.94,4.84,0,8.37,3.53,8.37,8.94s-3.36,8.94-8.37,8.94S504.34,64.36,504.34,59.19Z"/><path class="cls-1" d="M572.86,4.86v11.9H552.34l-1.15,9.85c1-.08,1.89-.17,2.87-.17,9.68,0,20.93,5.33,20.93,19.61,0,11.82-9.11,22.07-24.7,22.07-6.24,0-12-1.48-15-3l2.54-10.91a28.25,28.25,0,0,0,11.49,2.63c5.83,0,11.16-3.45,11.16-9.68,0-7-5.58-10.42-15.51-10.42a38.48,38.48,0,0,0-6.48.41l3.61-32.25Z"/><path class="cls-2" d="M420.57,38.79,402.29,27.62a1.55,1.55,0,0,0-2.36,1.33V51.29a1.55,1.55,0,0,0,2.36,1.33l18.28-11.17A1.55,1.55,0,0,0,420.57,38.79Z"/></g></g></svg>