<svg xmlns="http://www.w3.org/2000/svg" viewBox="0 0 318.17 41.04"><defs><style>.cls-1{fill:#422610;}</style></defs><title>アセット 95</title><g id="レイヤー_2" data-name="レイヤー 2"><path class="cls-1" d="M164.92,21.75A11.16,11.16,0,0,1,164,26.1a11.65,11.65,0,0,1-2.54,3.76,11.84,11.84,0,0,1-4,2.6,13.58,13.58,0,0,1-5.13.94,13.11,13.11,0,0,1-7-1.79A11.48,11.48,0,0,1,141,26.87a14,14,0,0,1-1.47-6.32,17.6,17.6,0,0,1,.91-5.52,23.93,23.93,0,0,1,2.66-5.49,31.59,31.59,0,0,1,4.07-5.06A39.87,39.87,0,0,1,152.5,0l8,2.65q-1.92,1.64-3.33,3t-2.67,2.8a28.36,28.36,0,0,0-2.27,3,8.58,8.58,0,0,1,2.16-.23,10.81,10.81,0,0,1,5.26,1.31,9.92,9.92,0,0,1,3.83,3.73A10.64,10.64,0,0,1,164.92,21.75Zm-8.44-.14a4.12,4.12,0,0,0-1.25-3.32,4.4,4.4,0,0,0-2.94-1.07A3.79,3.79,0,0,0,149,18.65a4.93,4.93,0,0,0-1,3,4.54,4.54,0,0,0,1.21,3.19,3.87,3.87,0,0,0,3,1.31,4,4,0,0,0,2.46-.73A4.42,4.42,0,0,0,156,23.61,5,5,0,0,0,156.49,21.61Z"/><path class="cls-1" d="M184,30.72a9.13,9.13,0,0,1-.62,3.22,9.82,9.82,0,0,1-1.92,3.11A11.24,11.24,0,0,1,178,39.57,16.47,16.47,0,0,1,173,41V39.56q3.68-1.41,3.68-6.23v-.49Q173,31.78,173,28.22a4.73,4.73,0,0,1,.64-2.39,5,5,0,0,1,1.8-1.82,4.88,4.88,0,0,1,2.54-.69,5.15,5.15,0,0,1,3.35,1.1,6.67,6.67,0,0,1,2,2.81A9.53,9.53,0,0,1,184,30.72Z"/><path class="cls-1" d="M217.48,16.75a24.61,24.61,0,0,1-1,7.41,14.44,14.44,0,0,1-2.78,5.21,11.43,11.43,0,0,1-4,3,12.26,12.26,0,0,1-9.68,0,11.28,11.28,0,0,1-4-3,14.83,14.83,0,0,1-2.78-5.2,24.2,24.2,0,0,1-1-7.41,24.29,24.29,0,0,1,1-7.43,15.21,15.21,0,0,1,2.77-5.23A11,11,0,0,1,200,1a12.32,12.32,0,0,1,9.68,0,11.23,11.23,0,0,1,4,3.06,14.83,14.83,0,0,1,2.79,5.26A24.61,24.61,0,0,1,217.48,16.75Zm-9.26,0a35.14,35.14,0,0,0-.59-7.08q-.59-2.77-2.84-2.77a2.44,2.44,0,0,0-2.29,1.55,10,10,0,0,0-.94,3.56q-.17,2-.17,4.73a34.7,34.7,0,0,0,.58,7.18q.57,2.57,2.82,2.57t2.85-2.57A34.72,34.72,0,0,0,208.23,16.75Z"/><path class="cls-1" d="M250.81,16.75a24.61,24.61,0,0,1-1,7.41A14.45,14.45,0,0,1,247,29.37a11.43,11.43,0,0,1-4,3,12.25,12.25,0,0,1-9.68,0,11.29,11.29,0,0,1-4-3,14.83,14.83,0,0,1-2.78-5.2,24.2,24.2,0,0,1-1-7.41,24.29,24.29,0,0,1,1-7.43,15.21,15.21,0,0,1,2.77-5.23,11,11,0,0,1,4-3.06A12.33,12.33,0,0,1,243,1a11.24,11.24,0,0,1,4,3.06,14.82,14.82,0,0,1,2.79,5.26A24.61,24.61,0,0,1,250.81,16.75Zm-9.26,0A35.14,35.14,0,0,0,241,9.67q-.59-2.77-2.84-2.76a2.44,2.44,0,0,0-2.29,1.55A10,10,0,0,0,234.9,12q-.17,2-.17,4.73a34.7,34.7,0,0,0,.58,7.18q.57,2.57,2.82,2.57T241,23.93A34.72,34.72,0,0,0,241.55,16.75Z"/><path class="cls-1" d="M284.13,16.74a24.59,24.59,0,0,1-1,7.41,14.43,14.43,0,0,1-2.78,5.21,11.44,11.44,0,0,1-4,3,12.25,12.25,0,0,1-9.68,0,11.26,11.26,0,0,1-4-3,14.85,14.85,0,0,1-2.78-5.2,24.23,24.23,0,0,1-1-7.41,24.29,24.29,0,0,1,1-7.43,15.19,15.19,0,0,1,2.76-5.23,11,11,0,0,1,4-3.06,12.33,12.33,0,0,1,9.68,0,11.22,11.22,0,0,1,4,3.06,14.85,14.85,0,0,1,2.79,5.26A24.6,24.6,0,0,1,284.13,16.74Zm-9.26,0a35.13,35.13,0,0,0-.59-7.08q-.59-2.77-2.84-2.77a2.44,2.44,0,0,0-2.28,1.55,10,10,0,0,0-.94,3.56q-.18,2-.18,4.73a34.76,34.76,0,0,0,.58,7.18q.57,2.57,2.83,2.57t2.85-2.57A34.67,34.67,0,0,0,274.87,16.74Z"/><path class="cls-1" d="M318.13,25.37c0,2.09,0,3.34,0,4.15a2.26,2.26,0,0,1-.77,2c-.58.46-1.37.62-3.91.62-.77,0-.79,0-.94-.77a6.93,6.93,0,0,0-.62-1.85c1,.1,2.14.12,2.71.12s.94-.22.94-.82v-6h-14v5.11c0,2.62,0,4,0,4.1s0,.26-.29.26h-2.09c-.24,0-.26,0-.26-.26s0-1.63,0-4.71V17.06c0-3.07,0-4.58,0-4.73s0-.29.26-.29,1,0,3.26,0h12.17c2.28,0,3.1,0,3.24,0s.26,0,.26.29,0,1.75,0,4.82ZM307.21,20.5v-6h-5.64v6Zm2.5-6v6h5.88v-6Z"/><path class="cls-1" d="M2,28C2,27.41,2,26.7,2,26c-.28.34-.57.66-.87,1-.14.13-.21.2-.28.2s-.14-.1-.24-.29A3.36,3.36,0,0,0,0,26a12.21,12.21,0,0,0,2.75-3.47,6.11,6.11,0,0,0,.36-1,9,9,0,0,1,1.26.58c.17.08.24.17.24.27s-.07.18-.18.25A1.51,1.51,0,0,0,4,23.2c-.17.31-.36.63-.57,1v5.31c0,1.16,0,1.72,0,1.79s0,.15-.17.15H2.13c-.15,0-.17,0-.17-.15s0-.63,0-1.79Zm4.64-4.52c-1.29,0-1.72,0-1.81,0s-.15,0-.15-.15v-1c0-.14,0-.15.15-.15s.52,0,1.81,0H9.74c.67,0,1.09,0,1.37,0V21H2v1.69c0,.14,0,.15-.15.15H.73c-.14,0-.15,0-.15-.15s0-.29,0-1.51v-.5c0-.49,0-.7,0-.8s0-.15.15-.15.55,0,1.83,0H5.67v-.2a4.26,4.26,0,0,0-.1-1c.5,0,1,0,1.5.08.14,0,.22.07.22.13a.72.72,0,0,1-.08.28,1.3,1.3,0,0,0-.07.57v.17h3.42c1.28,0,1.74,0,1.83,0s.14,0,.14.15,0,.31,0,.7v.6c0,1.16,0,1.37,0,1.46s0,.15-.14.15h-.71v.53c0,.14,0,.15-.15.15s-.5,0-1.79,0H8.92a10.92,10.92,0,0,1-.5,1.3H9.78c1.25,0,1.67,0,1.76,0s.15,0,.15.17,0,.53,0,1.82V28.6c0,2.06,0,2.55,0,2.62s0,.15-.15.15H10.42c-.15,0-.17,0-.17-.15v-.41H6.39v.45c0,.14,0,.15-.15.15H5.13c-.14,0-.15,0-.15-.15s0-.57,0-2.63V27c0-1.53,0-2,0-2.06s0-.17.15-.17.52,0,1.76,0H7a11.27,11.27,0,0,0,.48-1.3Zm-.24,3.71h3.87V26H6.39Zm3.87,2.44V28.35H6.39V29.6Z"/><path class="cls-1" d="M17.33,26c0-.46,0-1,0-1.57-.34.45-.7.88-1.06,1.29-.11.13-.2.2-.27.2s-.14-.07-.18-.24a4.57,4.57,0,0,0-.53-1.25,13.13,13.13,0,0,0,3-4.83,5.67,5.67,0,0,0,.24-1,11.71,11.71,0,0,1,1.34.45c.15.07.22.11.22.21s0,.15-.15.25a1.11,1.11,0,0,0-.28.56,17.65,17.65,0,0,1-.91,2v7c0,1.36,0,2,0,2.12s0,.15-.17.15H17.47c-.15,0-.17,0-.17-.15s0-.76,0-2.12ZM26,22.41c1.28-.14,1.77-.22,1.91-.24s.15,0,.17.14l.08,1.08c0,.14,0,.15-.14.17l-1.92.21L24,24a12.49,12.49,0,0,0,.9,3.24c.64,1.51,1.32,2.21,1.67,2.21s.46-.55.6-2a3,3,0,0,0,.91.56c.42.18.41.21.34.63-.27,1.79-.81,2.59-1.67,2.59-1.3,0-2.44-1.57-3.19-3.39a15.41,15.41,0,0,1-1-3.7l-1,.1c-1.28.13-1.75.22-1.88.24s-.17,0-.18-.15l-.11-1.11c0-.15,0-.15.15-.17s.62,0,1.89-.17l.91-.1c-.06-.67-.11-1.34-.14-2a16.57,16.57,0,0,0-.15-2,13.33,13.33,0,0,1,1.5.08c.15,0,.24.08.24.17a.66.66,0,0,1-.08.29,5.11,5.11,0,0,0,0,1.4c0,.64.06,1.29.13,1.92Zm-.62-3.22c.07-.06.11-.08.15-.08s.07,0,.13.08a9.74,9.74,0,0,1,1.54,1.65c.1.13.1.17-.07.31l-.8.57a.43.43,0,0,1-.15.1s-.07,0-.11-.1A10.09,10.09,0,0,0,24.58,20a.17.17,0,0,1-.08-.13s.06-.08.14-.14Z"/><path class="cls-1" d="M38.69,25a1.4,1.4,0,1,1-1.4-1.4A1.41,1.41,0,0,1,38.69,25Z"/><path class="cls-1" d="M48.65,24.43c0-.69,0-1.18,0-1.48a15.17,15.17,0,0,1-1.46.64,1.23,1.23,0,0,1-.32.1c-.11,0-.15-.1-.27-.36a2.82,2.82,0,0,0-.56-.91,12,12,0,0,0,5.35-3.24,3,3,0,0,0,.57-.81,10.28,10.28,0,0,1,1.47.27c.13,0,.24.08.24.15s0,.11-.14.17l0,0a13.26,13.26,0,0,0,5.94,3.22,3.3,3.3,0,0,0-.53,1c-.1.27-.14.36-.25.36a1,1,0,0,1-.34-.08,12.82,12.82,0,0,1-1.68-.7c0,.21,0,.57,0,1.16v1.82c0,.43,0,.74,0,1,.41.24.74.45,1.06.67.1.07.17.14.17.22s-.08.15-.21.18a1.49,1.49,0,0,0-.45.25c-.48.35-.94.7-1.62,1.13A16.44,16.44,0,0,0,59,30a3.83,3.83,0,0,0-.53,1c-.15.39-.17.42-.6.31a10.82,10.82,0,0,1-4.73-2.14,4.47,4.47,0,0,0-.07.62c0,.46,0,.46-.45.55-1.71.35-3.38.66-4.66.85a2,2,0,0,0-.55.17.4.4,0,0,1-.24.08c-.07,0-.13-.07-.17-.21-.1-.38-.2-.9-.27-1.36.6,0,1-.06,1.5-.11l.39,0Zm3.31-2V22.3a7.05,7.05,0,0,0-.1-1.32c.52,0,.91,0,1.42.1.14,0,.21.08.21.15a.44.44,0,0,1-.08.28,1.17,1.17,0,0,0-.08.62v.28h1.19c.66,0,1.12,0,1.44,0a12.16,12.16,0,0,1-3.28-2.59,13,13,0,0,1-3.1,2.6Zm-1.86,1.08v.78h5.13v-.78Zm5.13,1.83H50.09v.85h5.13Zm-5.13,4.24c.92-.14,1.88-.31,2.93-.52a7.28,7.28,0,0,1-1.4-1.79H50.09Zm3-2.31a4.71,4.71,0,0,0,1.25,1.28,13.4,13.4,0,0,0,1.69-1.26H53.13Z"/><path class="cls-1" d="M63.65,27.41c-1.22,0-1.64,0-1.72,0s-.14,0-.14-.15v-.84c0-.14,0-.15.14-.15s.5,0,1.72,0H67.4v-.66H65.09c-1.36,0-1.82,0-1.91,0s-.15,0-.15-.14v-.77c0-.14,0-.15.15-.15s.55,0,1.91,0H67.4V24H65.59c-1.37,0-1.86,0-1.95,0s-.17,0-.17-.17,0-.27,0-.73v-.76c0-.46,0-.64,0-.73s0-.17.17-.17.57,0,1.95,0H67.4v-.62H63.87c-1.26,0-1.69,0-1.78,0s-.15,0-.15-.15v-.88c0-.14,0-.15.15-.15s.52,0,1.78,0H67.4a6.75,6.75,0,0,0-.1-1.29c.52,0,1,0,1.46.08.13,0,.22.07.22.15a.54.54,0,0,1-.08.27,2.16,2.16,0,0,0-.08.78h3.56c1.26,0,1.7,0,1.78,0s.15,0,.15.15v.88c0,.14,0,.15-.15.15s-.52,0-1.78,0H68.81v.62h1.86c1.37,0,1.86,0,2,0s.15,0,.15.17,0,.27,0,.73v.76c0,.46,0,.64,0,.73s0,.17-.15.17-.59,0-2,0H68.81v.62h2.27c1.37,0,1.86,0,1.93,0s.15,0,.15.15,0,.42,0,1.22v.32c.83,0,1.15,0,1.22,0s.14,0,.14.15v.84c0,.14,0,.15-.14.15l-1.22,0v.71c0,.84,0,1.2,0,1.29s0,.15-.15.15H71.94c-.14,0-.15,0-.15-.15v-.31h-3c0,.25,0,.49,0,.7,0,.64-.13,1-.5,1.25a4.55,4.55,0,0,1-2,.31c-.42,0-.42,0-.56-.41a4.51,4.51,0,0,0-.55-1.06,9.53,9.53,0,0,0,1.42.06c.6,0,.73-.11.73-.52v-.32H65.1c-1.37,0-1.83,0-1.92,0S63,29.12,63,29v-.76c0-.15,0-.17.15-.17s.55,0,1.92,0h2.3v-.66Zm3.75-4.27v-.7H64.86v.7Zm4-.7H68.81v.7h2.59Zm-2.59,3.22v.66h3v-.66Zm3,2.41v-.66h-3v.66Z"/><path class="cls-1" d="M78.93,26c0-.46,0-1,0-1.57-.34.45-.7.88-1.06,1.29-.11.13-.2.2-.27.2s-.14-.07-.18-.24a4.54,4.54,0,0,0-.53-1.25,13.12,13.12,0,0,0,3-4.83,5.76,5.76,0,0,0,.24-1,11.77,11.77,0,0,1,1.34.45c.15.07.22.11.22.21s0,.15-.15.25a1.1,1.1,0,0,0-.28.56,17.66,17.66,0,0,1-.91,2v7c0,1.36,0,2,0,2.12s0,.15-.17.15H79.07c-.15,0-.17,0-.17-.15s0-.76,0-2.12Zm8.66-3.6c1.27-.14,1.76-.22,1.91-.24s.15,0,.17.14l.08,1.08c0,.14,0,.15-.14.17l-1.92.21-2.1.24a12.41,12.41,0,0,0,.9,3.24c.64,1.51,1.32,2.21,1.67,2.21s.46-.55.6-2a3,3,0,0,0,.91.56c.42.18.41.21.34.63-.27,1.79-.81,2.59-1.67,2.59-1.3,0-2.44-1.57-3.19-3.39a15.41,15.41,0,0,1-1-3.7l-1,.1c-1.27.13-1.75.22-1.88.24s-.17,0-.18-.15L81,23.25c0-.15,0-.15.15-.17s.62,0,1.89-.17l.91-.1c-.06-.67-.11-1.34-.14-2a16.54,16.54,0,0,0-.15-2,13.35,13.35,0,0,1,1.5.08c.15,0,.24.08.24.17a.66.66,0,0,1-.08.29,5.06,5.06,0,0,0,0,1.4c0,.64.06,1.29.13,1.92ZM87,19.19c.07-.06.11-.08.15-.08s.07,0,.13.08a9.78,9.78,0,0,1,1.54,1.65c.1.13.1.17-.07.31l-.8.57a.42.42,0,0,1-.15.1s-.07,0-.11-.1A10.05,10.05,0,0,0,86.17,20a.17.17,0,0,1-.08-.13s.06-.08.14-.14Z"/><path class="cls-1" d="M95.83,28.28A2.12,2.12,0,0,0,97,29.44a8,8,0,0,0,2.59.28c1.81,0,3.94-.1,6-.31a2.62,2.62,0,0,0-.38,1.09c-.07.45-.07.45-.52.48-1.78.1-3.45.14-4.9.14a9.55,9.55,0,0,1-3.28-.41,2.71,2.71,0,0,1-1.37-1.25A16.07,16.07,0,0,1,93.7,30.7a1.29,1.29,0,0,0-.28.28c-.07.1-.13.14-.21.14s-.14-.07-.2-.18a12,12,0,0,1-.57-1.32,6.37,6.37,0,0,0,.83-.43,9,9,0,0,0,1.18-.9V25.2h-.69c-.76,0-1,0-1,0s-.17,0-.17-.17V24c0-.14,0-.15.17-.15s.27,0,1,0h.9c.74,0,1,0,1.05,0s.15,0,.15.15,0,.48,0,1.33ZM95,22c-.1.07-.14.1-.18.1s-.07,0-.11-.1a10.58,10.58,0,0,0-1.72-2.19c-.11-.1-.08-.14.07-.24l.78-.52c.15-.1.18-.11.29,0a10.65,10.65,0,0,1,1.75,2.09c.08.13.08.15-.07.27Zm5-2.69c.64,0,1.09,0,1.27,0a.14.14,0,0,1,.14.15,10.39,10.39,0,0,0,.17,2.06,8.84,8.84,0,0,0,3.94,5.91,5.15,5.15,0,0,0-.74,1.09c-.11.21-.17.31-.25.31s-.17-.06-.31-.18a10,10,0,0,1-3.4-5.32,9.78,9.78,0,0,1-3.19,5.21c-.15.13-.24.2-.31.2s-.14-.08-.29-.27a3.36,3.36,0,0,0-.87-.83,9,9,0,0,0,3.82-6.95H98.68c-.87,0-1.12,0-1.21,0s-.17,0-.17-.17V19.44c0-.14,0-.15.17-.15s.34,0,1.21,0Z"/><path class="cls-1" d="M117.09,23.27a4.36,4.36,0,0,0,0-1,6.07,6.07,0,0,1,1.63.6.26.26,0,0,1,.1.38,2.36,2.36,0,0,0-.22.55c-.11.59-.25,1.2-.39,1.81A16.16,16.16,0,0,1,120.36,27c.14.08.13.15.08.29a12.26,12.26,0,0,1-.6,1.21c0,.07-.08.1-.13.1a.27.27,0,0,1-.17-.1,11.44,11.44,0,0,0-1.84-1.32,8.6,8.6,0,0,1-2.83,3.68c-.13.1-.2.15-.28.15a.38.38,0,0,1-.21-.1,2.89,2.89,0,0,0-1.22-.57,7.73,7.73,0,0,0,3.14-3.8,9.46,9.46,0,0,0-2.77-.85,9.71,9.71,0,0,1-1.71,2.8,2.3,2.3,0,0,1-1.79.77,1.69,1.69,0,0,1-1.67-1.92c0-1.74,1.79-3.1,4.13-3.1.46-1.16.81-2.14,1.16-3.32l-1.93.22a2.91,2.91,0,0,0-.63.15.73.73,0,0,1-.25.06.23.23,0,0,1-.22-.15,8.37,8.37,0,0,1-.41-1.53,5.19,5.19,0,0,0,1.23.08,15.58,15.58,0,0,0,2.17-.18,1.61,1.61,0,0,0,.69-.24.31.31,0,0,1,.18-.06.32.32,0,0,1,.2.06,4.68,4.68,0,0,1,1,.77.34.34,0,0,1,.13.24.36.36,0,0,1-.14.24,1.91,1.91,0,0,0-.38.73c-.36,1-.76,2-1.18,3.05a11.59,11.59,0,0,1,2.72.7A13.87,13.87,0,0,0,117.09,23.27Zm-7.4,3.91c0,.45.15.64.49.64a1.13,1.13,0,0,0,.81-.53,9.58,9.58,0,0,0,1-1.71C110.59,25.63,109.69,26.38,109.69,27.17Z"/></g></svg>