<svg xmlns="http://www.w3.org/2000/svg" viewBox="0 0 198.53 42.57"><defs><style>.cls-1{fill:#422610;}</style></defs><title>アセット 1</title><g id="レイヤー_2" data-name="レイヤー 2"><g id="レイヤー_1-2" data-name="レイヤー 1"><g id="ロゴ"><path class="cls-1" d="M71.62,27.81l-1.77-1.9a1.23,1.23,0,0,1,0-1.66c3.54-4,4-9.56,3.88-13A1.22,1.22,0,0,0,72.51,10L56.86,10a1.22,1.22,0,0,1-1.22-1.23V6.17a1.22,1.22,0,0,1,1.23-1.22L77,5a1.22,1.22,0,0,1,1.19,1l.2,1c.1.54,2.39,12.79-5,20.75A1.22,1.22,0,0,1,71.62,27.81Z"/><path class="cls-1" d="M56.91,27.35l-1.75-1.91a1.22,1.22,0,0,1,0-1.68C62.43,16.34,61.63,6.2,61.35,4a1.41,1.41,0,0,1,.12-.9.91.91,0,0,1,.46-.36l2.73-.93a1.22,1.22,0,0,1,1.6,1c.46,4.14.87,16.05-7.58,24.6A1.22,1.22,0,0,1,56.91,27.35Z"/><path class="cls-1" d="M129.55,27.81l-1.77-1.9a1.23,1.23,0,0,1,0-1.66c3.54-4,4-9.56,3.88-13A1.22,1.22,0,0,0,130.44,10L114.8,10a1.22,1.22,0,0,1-1.22-1.23V6.17a1.22,1.22,0,0,1,1.23-1.22L134.89,5a1.22,1.22,0,0,1,1.19,1l.2,1c.1.54,2.39,12.79-5,20.75A1.22,1.22,0,0,1,129.55,27.81Z"/><path class="cls-1" d="M114.85,27.35l-1.75-1.91a1.22,1.22,0,0,1,0-1.68c7.24-7.42,6.44-17.56,6.16-19.8a1.41,1.41,0,0,1,.12-.9.91.91,0,0,1,.46-.36l2.73-.93a1.22,1.22,0,0,1,1.6,1c.46,4.14.87,16.05-7.58,24.6A1.22,1.22,0,0,1,114.85,27.35Z"/><path class="cls-1" d="M142.23,14.75V12.09a1.32,1.32,0,0,1,1.3-1.25c8.43-.56,11.33-6.49,12.18-9A1.39,1.39,0,0,1,157.26,1l2.91.47a1.25,1.25,0,0,1,1.09,1.55C159.76,8,154.69,15.39,143.67,16A1.32,1.32,0,0,1,142.23,14.75Z"/><path class="cls-1" d="M154.92,27.78H152.2a1.23,1.23,0,0,1-1.28-1.17V11.4a1.23,1.23,0,0,1,1.28-1.17h2.72a1.23,1.23,0,0,1,1.28,1.17V26.61A1.23,1.23,0,0,1,154.92,27.78Z"/><rect class="cls-1" x="165.95" y="5.27" width="15.58" height="5.09" rx="1.24" ry="1.24"/><rect class="cls-1" x="170.51" y="15.27" width="17.8" height="5.09" rx="1.24" ry="1.24"/><path class="cls-1" d="M174.11,27.51l-.45-26.25A1.22,1.22,0,0,1,174.88,0l2.62,0a1.22,1.22,0,0,1,1.26,1.18l.45,26.25A1.22,1.22,0,0,1,178,28.65l-2.62,0A1.22,1.22,0,0,1,174.11,27.51Z"/><rect class="cls-1" x="186.47" y="4.56" width="5.09" height="4.55" rx="1.24" ry="1.24"/><rect class="cls-1" x="193.44" y="4.56" width="5.09" height="4.55" rx="1.24" ry="1.24"/><path class="cls-1" d="M190.18,16.62l-3-1.72a1.55,1.55,0,0,0-2.33,1.35v3.44A1.55,1.55,0,0,0,187.2,21l3-1.72A1.55,1.55,0,0,0,190.18,16.62Z"/><path class="cls-1" d="M46.52,28.38h-18a1.4,1.4,0,0,1-1.4-1.4v-2a1.4,1.4,0,0,1,1.4-1.4H41.7a1.4,1.4,0,0,0,1.4-1.4V9.26a1.4,1.4,0,0,0-1.4-1.4h-13a1.4,1.4,0,0,1-1.4-1.4v-2A1.4,1.4,0,0,1,28.66,3H46.52a1.4,1.4,0,0,1,1.4,1.4V27A1.4,1.4,0,0,1,46.52,28.38Z"/><path class="cls-1" d="M19.38,31.07H1.4A1.48,1.48,0,0,1,0,29.52V27.28a1.48,1.48,0,0,1,1.4-1.55H14.56A1.48,1.48,0,0,0,16,24.19V9.92a1.48,1.48,0,0,0-1.4-1.55h-13A1.48,1.48,0,0,1,.12,6.83V4.58A1.48,1.48,0,0,1,1.52,3H19.38a1.48,1.48,0,0,1,1.4,1.55V29.52A1.48,1.48,0,0,1,19.38,31.07Z"/><path class="cls-1" d="M62.87,42.49H61.34a.24.24,0,0,1-.19-.09l-1.73-2.12a.24.24,0,0,0-.43.15v1.81a.24.24,0,0,1-.24.24H57.48a.24.24,0,0,1-.24-.24V36.9a.24.24,0,0,1,.24-.24h1.28a.24.24,0,0,1,.24.24v1.69a.24.24,0,0,0,.43.15l1.61-2a.24.24,0,0,1,.19-.09h1.3a.24.24,0,0,1,.19.39L61,39.24a.24.24,0,0,0,0,.3l2.08,2.56A.24.24,0,0,1,62.87,42.49Z"/><path class="cls-1" d="M78.11,42.49H76.84a.24.24,0,0,1-.22-.15l-.35-.88a.24.24,0,0,0-.22-.15H73.84a.24.24,0,0,0-.22.15l-.36.88a.24.24,0,0,1-.22.15H71.76a.24.24,0,0,1-.22-.34l2.36-5.35a.24.24,0,0,1,.22-.14h1.63a.24.24,0,0,1,.22.14l2.36,5.35A.24.24,0,0,1,78.11,42.49ZM75.67,40l-.5-1.24a.24.24,0,0,0-.45,0L74.22,40a.24.24,0,0,0,.22.33h1A.24.24,0,0,0,75.67,40Z"/><path class="cls-1" d="M92.7,42.08l-.32.12-.26.08-.36.1a7.72,7.72,0,0,1-.8.14,7,7,0,0,1-.84,0,4.1,4.1,0,0,1-1.64-.32,2.7,2.7,0,0,1-1.2-1,3,3,0,0,1-.45-1.67,3.53,3.53,0,0,1,.23-1.26,2.2,2.2,0,0,1,.71-1,3.31,3.31,0,0,1,.8-.47,3.44,3.44,0,0,1,.79-.22,6.15,6.15,0,0,1,.85-.05,5.78,5.78,0,0,1,1.27.12q.43.1.92.25a.25.25,0,0,1,.18.23v1.2a4.82,4.82,0,0,0-.84-.39,3.35,3.35,0,0,0-1.1-.16,2.26,2.26,0,0,0-1.22.29,1.59,1.59,0,0,0-.63.69,1.89,1.89,0,0,0-.18.77,1.66,1.66,0,0,0,.21.81,1.51,1.51,0,0,0,.62.6,2.09,2.09,0,0,0,1,.23,3.15,3.15,0,0,0,.71-.09v-.69h-.79v-.93a.24.24,0,0,1,.24-.24h1.84a.24.24,0,0,1,.24.24Z"/><path class="cls-1" d="M108.26,39.57a3.07,3.07,0,0,1-.38,1.5,2.72,2.72,0,0,1-1.12,1.09,3.76,3.76,0,0,1-1.81.4,3.69,3.69,0,0,1-1.83-.42A2.74,2.74,0,0,1,102,41a3.15,3.15,0,0,1,0-2.94,2.7,2.7,0,0,1,1.11-1.1,3.71,3.71,0,0,1,1.83-.42,4,4,0,0,1,1.44.24,2.88,2.88,0,0,1,1,.65,2.72,2.72,0,0,1,.62,1A3.14,3.14,0,0,1,108.26,39.57Zm-1.79,0a1.78,1.78,0,0,0-.1-.6,1.28,1.28,0,0,0-.29-.47,1.37,1.37,0,0,0-.48-.31,1.77,1.77,0,0,0-.65-.11,1.5,1.5,0,1,0,0,3,1.66,1.66,0,0,0,.82-.19,1.27,1.27,0,0,0,.52-.53A1.65,1.65,0,0,0,106.47,39.57Z"/><path class="cls-1" d="M121.38,40.8a1.61,1.61,0,0,1-.28.95,1.76,1.76,0,0,1-.78.61,2.91,2.91,0,0,1-1.15.21l-.44,0a5.07,5.07,0,0,1-.7-.13,5.48,5.48,0,0,1-.91-.31V40.68a6.42,6.42,0,0,0,.87.45,2.32,2.32,0,0,0,.91.18.8.8,0,0,0,.58-.15.44.44,0,0,0,.13-.28.48.48,0,0,0-.23-.4,3.21,3.21,0,0,0-.66-.33,5.22,5.22,0,0,1-.84-.44,2,2,0,0,1-.59-.6,1.53,1.53,0,0,1-.23-.85,1.55,1.55,0,0,1,.94-1.46,2.68,2.68,0,0,1,1.16-.23,4.09,4.09,0,0,1,.9.09,3.93,3.93,0,0,1,.68.21,2.71,2.71,0,0,1,.37.19v1.37a4.79,4.79,0,0,0-.8-.46,2.23,2.23,0,0,0-.94-.2.72.72,0,0,0-.47.13.39.39,0,0,0-.15.31.38.38,0,0,0,.15.3,2.57,2.57,0,0,0,.53.31,10.41,10.41,0,0,1,1.08.57,2.13,2.13,0,0,1,.63.58A1.41,1.41,0,0,1,121.38,40.8Z"/><path class="cls-1" d="M136.43,42.49h-1.27a.24.24,0,0,1-.24-.24V40.46a.24.24,0,0,0-.24-.24h-2.16a.24.24,0,0,0-.24.24v1.79a.24.24,0,0,1-.24.24h-1.28a.24.24,0,0,1-.24-.24V36.9a.24.24,0,0,1,.24-.24H132a.24.24,0,0,1,.24.24v1.66a.24.24,0,0,0,.24.24h2.16a.24.24,0,0,0,.24-.24V36.9a.24.24,0,0,1,.24-.24h1.27a.24.24,0,0,1,.24.24v5.35A.24.24,0,0,1,136.43,42.49Z"/><path class="cls-1" d="M147.61,42.49h-1.28a.24.24,0,0,1-.24-.24V36.9a.24.24,0,0,1,.24-.24h1.28a.24.24,0,0,1,.24.24v5.35A.24.24,0,0,1,147.61,42.49Z"/><path class="cls-1" d="M163.8,42.49h-1.28a.24.24,0,0,1-.24-.24V39.79a.24.24,0,0,0-.43-.15l-1.16,1.43h-.14l-1.16-1.43a.24.24,0,0,0-.43.15v2.46a.24.24,0,0,1-.24.24h-1.23a.24.24,0,0,1-.24-.24V36.9a.24.24,0,0,1,.24-.24h1.24a.24.24,0,0,1,.19.09l1.53,1.87a.24.24,0,0,0,.37,0l1.54-1.87a.24.24,0,0,1,.19-.09h1.24a.24.24,0,0,1,.24.24v5.35A.24.24,0,0,1,163.8,42.49Z"/><path class="cls-1" d="M179.49,42.49h-1.27a.24.24,0,0,1-.22-.15l-.35-.88a.24.24,0,0,0-.22-.15h-2.21a.24.24,0,0,0-.22.15l-.36.88a.24.24,0,0,1-.22.15h-1.27a.24.24,0,0,1-.22-.34l2.36-5.35a.24.24,0,0,1,.22-.14h1.63a.24.24,0,0,1,.22.14l2.36,5.35A.24.24,0,0,1,179.49,42.49ZM177.05,40l-.5-1.24a.24.24,0,0,0-.45,0L175.6,40a.24.24,0,0,0,.22.33h1A.24.24,0,0,0,177.05,40Z"/><path class="cls-1" d="M102.33,6.4h-13A1.22,1.22,0,0,1,88,5.29V3a1.22,1.22,0,0,1,1.32-1.1h13A1.22,1.22,0,0,1,103.64,3V5.29A1.22,1.22,0,0,1,102.33,6.4Z"/><rect class="cls-1" x="86.04" y="9.2" width="21.09" height="4.32" rx="0.86" ry="0.86"/><path class="cls-1" d="M89.63,27.17a30.87,30.87,0,0,1-3.73-.22.86.86,0,0,1-.74-1l.61-3.37-.38,2.13.23-1.31a.86.86,0,0,1,.94-.71c2.3.27,9,.69,13-2.67,2-1.68,3-4.06,3.2-7.28a.86.86,0,0,1,.86-.81h2.6a.87.87,0,0,1,.86.91c-.19,4.49-1.78,8-4.75,10.51C98.57,26.5,93.35,27.17,89.63,27.17Z"/><path class="cls-1" d="M101.54,13.52c.72,0,1.26.51.78,2.27l2.81-1.61-2-2.27S100.82,13.54,101.54,13.52Z"/></g></g></g></svg>