<svg xmlns="http://www.w3.org/2000/svg" viewBox="0 0 280.88 340.76"><defs><style>.cls-1{fill:#422610;}.cls-2{fill:none;stroke:#41250f;stroke-miterlimit:10;stroke-dasharray:4;}.cls-3{font-size:16px;fill:#56504c;font-family:YuGo-Bold-83pv-RKSJ-H, YuGothic;font-weight:700;letter-spacing:0.2em;}.cls-4{fill:#e6c338;}</style></defs><title>アセット 12</title><g id="レイヤー_2" data-name="レイヤー 2"><g id="レイヤー_1-2" data-name="レイヤー 1"><g id="DAY1"><path class="cls-1" d="M109.54,20.7a9,9,0,0,1-1.06,4.68,10,10,0,0,1-2.5,2.86,9,9,0,0,1-5.71,1.6H90v-19h7.89a21.52,21.52,0,0,1,3,.18,13.45,13.45,0,0,1,2.28.52,9.05,9.05,0,0,1,1.72.75,8.91,8.91,0,0,1,1.27.9,8.73,8.73,0,0,1,1.7,1.88,9.18,9.18,0,0,1,1.16,2.51A10.61,10.61,0,0,1,109.54,20.7Zm-5.82-.25a6.34,6.34,0,0,0-.88-3.61,4.33,4.33,0,0,0-2.12-1.73,7.53,7.53,0,0,0-2.53-.44H95.76V25.91h2.44a7,7,0,0,0,3.89-1.07Q103.73,23.78,103.72,20.45Z"/><path class="cls-1" d="M139.52,29.84h-5.86L132.11,26h-8.24l-1.57,3.85h-5.86l8.39-19h6.33ZM130.8,22.7,128,15.77l-2.81,6.93Z"/><path class="cls-1" d="M166.15,10.87l-7.43,10.28v8.69H153V21.26l-7.57-10.39h5.94l4.35,6,4.37-6Z"/><path class="cls-1" d="M181.93,30.64c-3.24,0-4.07,0-5.41.14a18,18,0,0,1,.76-4.25,18.53,18.53,0,0,1,5.19-8.07,50.55,50.55,0,0,1,6.42-4.79c3.1-2.09,3.86-3,3.86-4.69s-1.55-2.88-3.86-2.88a4.09,4.09,0,0,0-3.75,1.8,6.41,6.41,0,0,0-.9,3l-7.57-.79c.54-3.14,1.19-4.72,2.63-6.42C181.35,1.3,184.63,0,188.85,0c4.87,0,8.58,1.62,10.38,4.54a7.77,7.77,0,0,1,1.19,4.22,8.35,8.35,0,0,1-3.32,6.7,48.31,48.31,0,0,1-5.23,3.86c-3.14,2.16-4.47,3.42-5.3,5H195a45.75,45.75,0,0,0,5.77-.25v6.81c-2.09-.18-3.6-.25-6.16-.25Z"/></g><g id="罫線"><line class="cls-2" y1="89.1" x2="280.88" y2="89.1"/><line class="cls-2" y1="117.01" x2="280.88" y2="117.01"/><line class="cls-2" y1="144.91" x2="280.88" y2="144.91"/><line class="cls-2" y1="172.82" x2="280.88" y2="172.82"/><line class="cls-2" y1="200.73" x2="280.88" y2="200.73"/><line class="cls-2" y1="228.63" x2="280.88" y2="228.63"/><line class="cls-2" y1="256.54" x2="280.88" y2="256.54"/><line class="cls-2" y1="284.45" x2="280.88" y2="284.45"/><line class="cls-2" y1="312.35" x2="280.88" y2="312.35"/><line class="cls-2" y1="340.26" x2="280.88" y2="340.26"/></g><g id="時間"><text class="cls-3" transform="translate(8.36 81.25)">06:00</text><text class="cls-3" transform="translate(8.36 110.02)">07:00</text><text class="cls-3" transform="translate(8.36 137.69)">08:00</text><text class="cls-3" transform="translate(8.36 166.46)">09:00</text><text class="cls-3" transform="translate(8.36 192.69)">10:00</text><text class="cls-3" transform="translate(8.36 220.46)">11:00</text><text class="cls-3" transform="translate(8.36 248.13)">12:00</text><text class="cls-3" transform="translate(8.36 276.9)">13:00</text><text class="cls-3" transform="translate(8.36 304.62)">14:00</text><text class="cls-3" transform="translate(8.36 333.39)">15:00</text></g><path class="cls-1" d="M168.15,75.52c-.95,0-1.28,0-1.34,0s-.11,0-.11-.11v-.81c0-.11,0-.12.11-.12s.4,0,1.34,0h.74V73.45h-.45c-.88,0-1.18,0-1.24,0s-.12,0-.12-.12v-.79c0-.11,0-.12.12-.12s.36,0,1.24,0h.45a8.43,8.43,0,0,0-.08-1.44,10.67,10.67,0,0,1,1.1.08c.11,0,.17.05.17.12a.49.49,0,0,1-.05.19,3.42,3.42,0,0,0-.05.84v.22h.17c.89,0,1.17,0,1.23,0s.13,0,.13.12v.79c0,.11,0,.12-.13.12s-.34,0-1.23,0H170v1.07h.31c.95,0,1.28,0,1.34,0s.12,0,.12.12v.81c0,.1,0,.11-.12.11s-.4,0-1.34,0H170v1.22h.66c.5,0,.69,0,.76,0s.12,0,.12.12v.8c0,.1,0,.11-.12.11s-.26,0-.76,0H170V79.4a7,7,0,0,0,2.63.38,32.84,32.84,0,0,0,4.21-.25,2.61,2.61,0,0,0-.32.86c-.07.35-.07.35-.41.37-1.14.09-2.15.11-3.4.11a6.63,6.63,0,0,1-3.36-.65A3.57,3.57,0,0,1,168,78.86a9.61,9.61,0,0,1-.61,1.8c-.09.19-.14.27-.21.27s-.11-.08-.2-.21a2.2,2.2,0,0,0-.55-.59,7.27,7.27,0,0,0,.9-3.4,5.13,5.13,0,0,0,0-.7,7.82,7.82,0,0,1,.92.15c.13,0,.19.07.19.13a.49.49,0,0,1-.06.17,1.6,1.6,0,0,0-.08.43c0,.29-.05.58-.1.88a3.68,3.68,0,0,0,.8,1V75.52Zm5.14-2.82c-.84,0-1.09,0-1.16,0s-.12,0-.12-.12v-.79c0-.11,0-.12.12-.12s.32,0,1.16,0h1.59c.67,0,.95,0,1,0s.13,0,.13.12,0,.38,0,1.08v1.47c0,.69,0,1,0,1.08s0,.11-.13.11-.34,0-1,0h-1.61v2c0,.23,0,.35.08.43s.38.14.93.14.79,0,1-.2.21-.44.23-1.16a3.33,3.33,0,0,0,.74.31c.34.09.34.09.33.44a1.83,1.83,0,0,1-.51,1.29c-.29.25-.73.39-1.83.39s-1.56-.1-1.77-.29-.28-.41-.28-.87V75.7c0-.66,0-1,0-1.06s0-.13.12-.13.35,0,1,0h1.66V72.7Z"/><path class="cls-1" d="M183.87,76.29c-1.08,0-1.45,0-1.52,0s-.12,0-.12-.12v-.84c0-.11,0-.12.12-.12s.44,0,1.52,0H185V74.9a7.27,7.27,0,0,0-.08-1.31c.4,0,.75,0,1.12.08.11,0,.18.07.18.12a1.21,1.21,0,0,1-.08.29,3.87,3.87,0,0,0-.05.81v.36h1.58c1.08,0,1.45,0,1.52,0s.12,0,.12.12v.84c0,.11,0,.12-.12.12s-.44,0-1.52,0h-1.1a9.4,9.4,0,0,0,3.33,2.9,3.25,3.25,0,0,0-.51.76c-.09.18-.12.25-.19.25s-.12,0-.24-.13a10.29,10.29,0,0,1-2.9-3c0,2.46.05,3.51.05,3.89,0,.11,0,.12-.12.12h-.91c-.11,0-.12,0-.12-.12,0-.37,0-1.43.05-3.79a9.42,9.42,0,0,1-2.82,3,.5.5,0,0,1-.23.13c-.08,0-.12-.08-.21-.25a3.07,3.07,0,0,0-.46-.64,7.08,7.08,0,0,1-.55,1.29c-.08.13-.12.2-.18.2s-.11-.06-.21-.17a2.67,2.67,0,0,0-.73-.64,6.44,6.44,0,0,0,.89-2.44,20,20,0,0,0,.2-3.2c0-1.41,0-2,0-2.11s0-.13.12-.13.43,0,1.47,0h2.29v-.38a4.5,4.5,0,0,0-.08-.89c.42,0,.8,0,1.17.07.11,0,.19.07.19.11a.51.51,0,0,1-.07.21,1.08,1.08,0,0,0-.09.47v.42h2.2c1,0,1.41,0,1.47,0s.12,0,.12.13v.81c0,.11,0,.12-.12.12s-.43,0-1.47,0h-6.05v1.42a18.71,18.71,0,0,1-.24,3.51,8.44,8.44,0,0,1-.29,1.13,8.3,8.3,0,0,0,3.15-3Z"/><path class="cls-1" d="M148.92,103.05v-.8h-.31c-.81,0-1.08,0-1.16,0s-.12,0-.12-.11,0-.36,0-1V99.54c0-.65,0-.94,0-1s0-.12.12-.12.33,0,1.14,0h.32v-.79h-.57c-.92,0-1.23,0-1.3,0s-.13,0-.13-.12v-.7c0-.11,0-.12.13-.12s.37,0,1.3,0h.57a9.06,9.06,0,0,0-.07-1.21,9.84,9.84,0,0,1,1.1.08c.1,0,.15.05.15.12a.51.51,0,0,1-.05.19,1.52,1.52,0,0,0-.07.63v.2h.54c.92,0,1.23,0,1.3,0s.13,0,.13.12v.7c0,.11,0,.12-.13.12s-.37,0-1.3,0H150v.79h.28c.8,0,1.08,0,1.15,0s.12,0,.12.12,0,.36,0,1v1.59c0,.66,0,.95,0,1s0,.11-.12.11-.35,0-1.15,0H150v.8h.26c.92,0,1.24,0,1.31,0s.12,0,.12.12v.7c0,.12,0,.13-.12.13s-.38,0-1.31,0H150v0c0,1,0,1.47,0,1.53s0,.12-.11.12H149c-.12,0-.13,0-.13-.12s0-.55,0-1.55h-.67c-.92,0-1.24,0-1.31,0s-.12,0-.12-.13v-.7c0-.11,0-.12.12-.12s.39,0,1.31,0Zm-.57-3.11h2.19v-.67h-2.19Zm2.19.8h-2.19v.67h2.19Zm5.79,2.09c0,.5,0,1.07,0,1.52a1.09,1.09,0,0,1-.31.89c-.23.2-.52.29-1.36.29-.34,0-.34,0-.41-.33a2.75,2.75,0,0,0-.31-.79c.34,0,.56,0,.9,0s.38-.09.38-.35v-2h-1.82a5.48,5.48,0,0,1-1.37,3.31c-.12.13-.18.2-.24.2s-.12-.05-.24-.18a2.39,2.39,0,0,0-.67-.47c1.3-1.3,1.57-2.26,1.57-5.56V97.82c0-1.07,0-1.62,0-1.69s0-.12.12-.12.34,0,1.14,0h1.36c.8,0,1.07,0,1.14,0s.12,0,.12.12,0,.63,0,1.69Zm-1.08-1.72V99.55h-1.69c0,.58,0,1.1,0,1.56ZM153.55,97v1.52h1.69V97Z"/><path class="cls-1" d="M161.86,100.13c0-.54,0-.92,0-1.17a12.29,12.29,0,0,1-1.14.51,1,1,0,0,1-.25.08c-.09,0-.12-.08-.21-.29a2.22,2.22,0,0,0-.44-.72A9.42,9.42,0,0,0,164,96a2.37,2.37,0,0,0,.45-.64,8.06,8.06,0,0,1,1.16.21c.1,0,.19.07.19.12s0,.09-.11.13l0,0a10.41,10.41,0,0,0,4.67,2.53,2.6,2.6,0,0,0-.42.77c-.08.21-.11.29-.2.29a.83.83,0,0,1-.26-.07,10,10,0,0,1-1.32-.55c0,.17,0,.45,0,.91v1.43c0,.34,0,.58,0,.76.32.19.58.35.84.53.08.05.13.11.13.18s-.07.12-.17.14a1.2,1.2,0,0,0-.35.2c-.37.28-.74.55-1.28.89a12.87,12.87,0,0,0,2.72.68,3,3,0,0,0-.42.77c-.12.31-.13.33-.47.24a8.51,8.51,0,0,1-3.72-1.68,3.52,3.52,0,0,0-.05.48c0,.36,0,.36-.35.43-1.34.28-2.65.52-3.66.67a1.54,1.54,0,0,0-.43.13.32.32,0,0,1-.19.07c-.05,0-.1-.05-.13-.17-.08-.3-.15-.7-.21-1.07.47,0,.78,0,1.18-.09l.31,0Zm2.6-1.58v-.09a5.58,5.58,0,0,0-.08-1c.41,0,.71,0,1.11.08.11,0,.17.07.17.12a.35.35,0,0,1-.07.22.92.92,0,0,0-.07.48v.22h2.07a9.54,9.54,0,0,1-2.57-2,10.17,10.17,0,0,1-2.43,2Zm-1.46.85V100h4v-.62Zm4,1.44h-4v.67h4Zm-4,3.33c.73-.11,1.47-.24,2.3-.41a5.74,5.74,0,0,1-1.1-1.41H163Zm2.39-1.82a3.69,3.69,0,0,0,1,1,10.55,10.55,0,0,0,1.33-1h-2.31Z"/><path class="cls-1" d="M179.33,100.55a1.1,1.1,0,1,1-1.1-1.1A1.1,1.1,0,0,1,179.33,100.55Z"/><path class="cls-1" d="M188.11,98.22c-1,0-1.33,0-1.4,0s-.12,0-.12-.12v-.87c0-.12,0-.13.12-.13s.41,0,1.4,0h2.64V97a7.84,7.84,0,0,0-.09-1.41c.4,0,.87,0,1.25.08.1,0,.18.07.18.12A.58.58,0,0,1,192,96a3.14,3.14,0,0,0-.07.87v.29h2.81c1,0,1.33,0,1.4,0s.12,0,.12.13v.87c0,.11,0,.12-.12.12s-.41,0-1.4,0h-2.81v1.36h1.61a.91.91,0,0,0,.32,0,.35.35,0,0,1,.14,0c.08,0,.17.07.44.34s.34.37.34.47-.05.12-.15.2a.9.9,0,0,0-.26.3,10,10,0,0,1-2,2.34,12.05,12.05,0,0,0,4.09,1.24,3.94,3.94,0,0,0-.47.88c-.08.22-.11.29-.23.29l-.24,0a12.39,12.39,0,0,1-4.17-1.63,14,14,0,0,1-4,1.62.86.86,0,0,1-.24,0c-.11,0-.14-.08-.22-.29a3.06,3.06,0,0,0-.45-.78,14,14,0,0,0,4-1.32,7.75,7.75,0,0,1-1.78-2.54l-1.09,0c-.11,0-.12,0-.12-.12v-.85c0-.11,0-.12.12-.12s.43,0,1.5,0h1.71V98.22Zm1.79,2.41a6.28,6.28,0,0,0,1.52,1.87,6.89,6.89,0,0,0,1.63-1.87Z"/><path class="cls-1" d="M201.65,99a23.91,23.91,0,0,1-.19,3.45,8.74,8.74,0,0,1-.89,2.79c-.08.14-.12.21-.18.21s-.11-.07-.22-.18a4.34,4.34,0,0,0-.72-.64,6.68,6.68,0,0,0,.89-2.63,23.07,23.07,0,0,0,.17-3.21c0-1.52,0-2.19,0-2.26s0-.12.12-.12.43,0,1.47,0h2.3v-.11a3.71,3.71,0,0,0-.08-.89c.44,0,.79,0,1.17.07.12,0,.19.06.19.11a.41.41,0,0,1-.08.21,1.1,1.1,0,0,0-.07.47v.14h2.34c1,0,1.41,0,1.47,0s.11,0,.11.12v.75c0,.12,0,.13-.11.13s-.43,0-1.47,0h-6.22Zm5.47,2.56a.59.59,0,0,0,.25,0,.34.34,0,0,1,.13,0c.09,0,.17,0,.44.29s.39.37.39.45,0,.13-.15.21a1.85,1.85,0,0,0-.43.4,7,7,0,0,1-1.25,1.18,12.76,12.76,0,0,0,3.15.49,1.93,1.93,0,0,0-.34.7c-.07.25-.1.32-.26.32h-.19a9.83,9.83,0,0,1-3.41-.87,10.33,10.33,0,0,1-3.46.91h-.2c-.14,0-.18-.05-.25-.3a1.7,1.7,0,0,0-.35-.63,11.24,11.24,0,0,0,3.2-.65,6.71,6.71,0,0,1-1.53-1.57h-.68c-.11,0-.12,0-.12-.12v-.65c0-.11,0-.12.12-.12s.42,0,1.47,0Zm.53-3.09c1.08,0,1.46,0,1.53,0s.12,0,.12.12v.68c0,.11,0,.12-.12.12s-.45,0-1.53,0h-.29v.41c0,.68,0,1,0,1.1s0,.12-.12.12-.33,0-1.13,0h-1.41c-.8,0-1.07,0-1.13,0s-.13,0-.13-.12,0-.42,0-1.1V99.4h-.14c-.78,0-1.21,0-1.28,0s-.12,0-.12-.12v-.68c0-.11,0-.12.12-.12s.5,0,1.28,0h.14a4.67,4.67,0,0,0-.05-.86c.35,0,.73,0,1,.07.1,0,.14,0,.14.1a.45.45,0,0,1-.06.19,1.71,1.71,0,0,0,0,.51h1.82a6.11,6.11,0,0,0-.05-.86c.34,0,.73,0,1,.07.1,0,.15,0,.15.1a.69.69,0,0,1-.06.19,1.63,1.63,0,0,0,0,.51Zm-3.6,3.94a5,5,0,0,0,1.34,1.11,5.06,5.06,0,0,0,1.33-1.11Zm2.28-3.06h-1.82v.78h1.82Z"/><path class="cls-1" d="M147.24,296.12a1,1,0,0,0,.55-.13.22.22,0,0,1,.14,0,.31.31,0,0,1,.18.07,5,5,0,0,1,.75.59.36.36,0,0,1,.14.25.32.32,0,0,1-.13.23,1.33,1.33,0,0,0-.36.47,15.13,15.13,0,0,1-2.18,3.4A14,14,0,0,1,143,303.7a.3.3,0,0,1-.18.06.39.39,0,0,1-.25-.12,2.89,2.89,0,0,0-1-.51,12.66,12.66,0,0,0,3.66-2.8,11.22,11.22,0,0,0,2-3.12l-2.66.08a15.37,15.37,0,0,1-2.08,2.26.34.34,0,0,1-.23.12.26.26,0,0,1-.17-.07,3,3,0,0,0-1.06-.47,13,13,0,0,0,3-3.27,4.71,4.71,0,0,0,.65-1.49,5.41,5.41,0,0,1,1.29.58.23.23,0,0,1,.11.19.22.22,0,0,1-.12.19,1.17,1.17,0,0,0-.28.3l-.36.55Z"/><path class="cls-1" d="M156.3,301.91v.65c0,.19,0,.21-.24.22s-.59,0-.87,0-.24,0-.23-.17c0-.57,0-1.35,0-2.19v-2.7c0-.59,0-1.19,0-1.83,0-.11,0-.15.12-.15.58,0,1.23,0,2,0h2.62c.71,0,1.55,0,2.07,0,.12,0,.15.06.14.22,0,.54,0,1.13,0,1.78v2.63c0,1,0,1.5.05,2.09,0,.15-.05.19-.21.19-.33,0-.68,0-1,0-.13,0-.14,0-.14-.18v-.58Zm4.27-5h-4.28v3.8h4.28Z"/><path class="cls-1" d="M169.33,299.8a8.82,8.82,0,0,0-1.62.13c-.13,0-.22-.07-.25-.23a12,12,0,0,1-.17-1.33,14.09,14.09,0,0,0,2.38.13h3.54c.84,0,1.68,0,2.53,0,.17,0,.2,0,.2.15a8.31,8.31,0,0,1,0,1c0,.13,0,.18-.2.17l-2.45,0Z"/><path class="cls-1" d="M181,297.59c.05-.08.11-.13.21-.11a7.64,7.64,0,0,1,2.11,1.08c.08.05.12.1.12.17a.33.33,0,0,1,0,.12,4.5,4.5,0,0,1-.48.84c-.05.07-.1.11-.14.11s-.08,0-.13-.07a9.68,9.68,0,0,0-2.22-1.2C180.7,298.08,180.88,297.76,181,297.59Zm1.78,4.08a18.4,18.4,0,0,0,3-1.9A20,20,0,0,0,189,296.7a5.52,5.52,0,0,0,.32,1.23.55.55,0,0,1,.05.21.34.34,0,0,1-.12.25,20.53,20.53,0,0,1-2.79,2.54,25.51,25.51,0,0,1-3.29,2.07,3.67,3.67,0,0,0-.64.37.24.24,0,0,1-.18.09.28.28,0,0,1-.22-.13,6.91,6.91,0,0,1-.81-1.12A5.09,5.09,0,0,0,182.79,301.67Zm-.45-6.61c.08-.13.14-.15.27-.09a7.47,7.47,0,0,1,2.07,1.22.17.17,0,0,1,.09.14.27.27,0,0,1,0,.14,4.73,4.73,0,0,1-.56.83.12.12,0,0,1-.11.07.29.29,0,0,1-.17-.08,10.63,10.63,0,0,0-2.13-1.35Zm5-.34c.06,0,.1,0,.17,0a5.06,5.06,0,0,1,1,1.18.11.11,0,0,1,0,.18l-.46.34a.12.12,0,0,1-.19,0,5.46,5.46,0,0,0-1.11-1.28Zm1-.71c.07,0,.1,0,.17,0a4.61,4.61,0,0,1,1,1.13.13.13,0,0,1,0,.2l-.44.34a.11.11,0,0,1-.19,0,5.22,5.22,0,0,0-1.1-1.27Z"/><path class="cls-1" d="M194.78,295.49a.2.2,0,0,1,.15-.09.29.29,0,0,1,.14.05,11.42,11.42,0,0,1,2.1,1.56c.07.07.1.11.1.15a.24.24,0,0,1-.07.14c-.17.22-.53.66-.68.83s-.09.09-.13.09-.09,0-.14-.09a11.61,11.61,0,0,0-2.25-1.79C194.25,296,194.57,295.71,194.78,295.49Zm1,5.8a16.32,16.32,0,0,0,3.17-2,16.51,16.51,0,0,0,3-3,4.91,4.91,0,0,0,.31,1.29.54.54,0,0,1,.05.21c0,.1-.05.19-.18.33a18,18,0,0,1-2.53,2.33,23.73,23.73,0,0,1-3.32,2.16,3.75,3.75,0,0,0-.74.51.31.31,0,0,1-.2.11.29.29,0,0,1-.19-.12,7.74,7.74,0,0,1-.88-1.22A6.64,6.64,0,0,0,195.74,301.28Z"/><path class="cls-1" d="M213,296.22a1,1,0,0,0,.55-.13.22.22,0,0,1,.14,0,.32.32,0,0,1,.18.07,5,5,0,0,1,.75.59.36.36,0,0,1,.14.25.32.32,0,0,1-.13.23,1.32,1.32,0,0,0-.36.47,15.14,15.14,0,0,1-2.18,3.4,14,14,0,0,1-3.34,2.74.3.3,0,0,1-.18.05.39.39,0,0,1-.25-.12,2.9,2.9,0,0,0-1-.51,12.68,12.68,0,0,0,3.66-2.81,11.2,11.2,0,0,0,2-3.12l-2.66.08a15.37,15.37,0,0,1-2.08,2.26.34.34,0,0,1-.23.12.27.27,0,0,1-.17-.07,3,3,0,0,0-1.06-.47,13,13,0,0,0,3-3.27,4.7,4.7,0,0,0,.65-1.49,5.41,5.41,0,0,1,1.29.58.23.23,0,0,1,.11.19.22.22,0,0,1-.12.19,1.2,1.2,0,0,0-.28.3l-.36.55Zm1.36-1.49c.06,0,.1,0,.17,0a5.06,5.06,0,0,1,1,1.18.11.11,0,0,1,0,.18l-.46.34a.11.11,0,0,1-.19,0,5.44,5.44,0,0,0-1.11-1.28Zm1-.72c.07,0,.1,0,.17,0a4.59,4.59,0,0,1,1,1.13.13.13,0,0,1,0,.2l-.44.34a.11.11,0,0,1-.19,0,5.19,5.19,0,0,0-1.1-1.27Z"/><path class="cls-1" d="M175.63,212.2c0,.52,0,.71,0,.78s0,.12-.12.12l-1,0a7.07,7.07,0,0,0,2.27,3.79,3,3,0,0,0-.64.7c-.1.13-.14.2-.2.2s-.11-.06-.23-.18a8.43,8.43,0,0,1-1.61-2.55v1.81c0,.69,0,1,0,1.06s0,.12-.12.12-.4,0-1.33,0h-1.93c-.94,0-1.26,0-1.34,0s-.12,0-.12-.12,0-.36,0-1.06V215c0-.68,0-1,0-1.06s0-.12.12-.12.41,0,1.34,0h2.92c-.08-.24-.14-.5-.21-.75h-4.35a8.69,8.69,0,0,1-1.45,4.84c-.1.13-.14.2-.2.2s-.11-.07-.22-.19a3.56,3.56,0,0,0-.74-.61c1.15-1.32,1.48-3,1.48-5.33,0-1,0-1.45,0-1.52s0-.12.12-.12.46,0,1.54,0H174c1.09,0,1.47,0,1.53,0s.12,0,.12.12,0,.26,0,.79Zm-7.06,7.49c-1,0-1.36,0-1.43,0s-.13,0-.13-.12v-.83c0-.11,0-.12.13-.12s.42,0,1.43,0h6.17c1,0,1.36,0,1.43,0s.13,0,.13.12v.83c0,.11,0,.12-.13.12s-.42,0-1.43,0Zm5.93-8.37h-5.36v.85h5.36Zm-4.11,4.16h2.68v-.79h-2.68Zm2.68.81h-2.68v.84h2.68Z"/><path class="cls-1" d="M181.66,214.54c0-.54,0-.92,0-1.17a12.17,12.17,0,0,1-1.14.51,1,1,0,0,1-.25.08c-.09,0-.12-.08-.21-.29a2.22,2.22,0,0,0-.44-.72,9.41,9.41,0,0,0,4.2-2.54,2.37,2.37,0,0,0,.45-.64,8.06,8.06,0,0,1,1.16.21c.1,0,.19.07.19.12s0,.09-.11.13l0,0a10.41,10.41,0,0,0,4.67,2.53,2.61,2.61,0,0,0-.42.77c-.08.21-.11.29-.2.29a.83.83,0,0,1-.26-.07,10.05,10.05,0,0,1-1.32-.55c0,.17,0,.45,0,.91v1.43c0,.34,0,.58,0,.76.32.19.58.35.84.53.08.05.13.11.13.18s-.07.12-.17.14a1.2,1.2,0,0,0-.35.2c-.37.28-.74.55-1.28.89a12.87,12.87,0,0,0,2.72.68,3,3,0,0,0-.42.77c-.12.31-.13.33-.47.24a8.51,8.51,0,0,1-3.72-1.68,3.51,3.51,0,0,0-.06.48c0,.36,0,.36-.35.43-1.34.28-2.65.52-3.66.67a1.54,1.54,0,0,0-.43.13.31.31,0,0,1-.19.07c-.06,0-.1-.05-.13-.17-.08-.3-.15-.7-.21-1.07.47,0,.78,0,1.18-.09l.31,0Zm2.6-1.58v-.09a5.5,5.5,0,0,0-.08-1c.41,0,.71,0,1.11.08.11,0,.17.07.17.12a.35.35,0,0,1-.07.22.92.92,0,0,0-.07.48V213h2.07a9.53,9.53,0,0,1-2.57-2,10.19,10.19,0,0,1-2.43,2Zm-1.46.85v.62h4v-.62Zm4,1.44h-4v.67h4Zm-4,3.33c.73-.11,1.47-.24,2.3-.41a5.71,5.71,0,0,1-1.1-1.41h-1.2Zm2.39-1.82a3.71,3.71,0,0,0,1,1,10.53,10.53,0,0,0,1.33-1h-2.31Z"/><rect class="cls-4" x="110.14" y="230.63" width="138.39" height="52.43"/><path class="cls-1" d="M171.25,328.94c0,.5,0,1,0,1.47a1.14,1.14,0,0,1-.28.91c-.21.17-.47.22-1.19.23-.34,0-.34,0-.42-.33a2.33,2.33,0,0,0-.27-.7c.38,0,.68,0,.95,0s.29-.09.29-.35v-1.53h-2.2a6.85,6.85,0,0,1-.65,2.65c-.08.14-.12.21-.18.21s-.09,0-.15-.12a2.77,2.77,0,0,0-.63-.58,8,8,0,0,0,.76-4.21v-1.49l-.09.1c-.09.1-.14.15-.19.15s-.1-.08-.18-.22a2.24,2.24,0,0,0-.43-.56,7,7,0,0,0,1.49-2.31,2.86,2.86,0,0,0,.21-.75,6.85,6.85,0,0,1,.92.22c.12,0,.18.09.18.15a.23.23,0,0,1-.09.18,1.18,1.18,0,0,0-.23.37H170a.53.53,0,0,0,.21,0,.27.27,0,0,1,.14,0c.05,0,.12,0,.36.23s.27.25.27.32,0,.12-.12.2a1,1,0,0,0-.22.31c-.14.3-.29.57-.43.81.65,0,.88,0,.95,0s.13,0,.13.12,0,.47,0,1.28Zm-2.09-4.66a8.58,8.58,0,0,0,.46-1h-1.09a9.71,9.71,0,0,1-.57,1Zm-.31,3.56v-1h-.63c0,.34,0,.67,0,1Zm0-1.8v-.92h-.63V326Zm.87-.92V326h.63v-.92Zm.63,2.73v-1h-.63v1Zm3.33-1.44a4.34,4.34,0,0,0-.07-.85c.36,0,.75,0,1.06.07.1,0,.14,0,.14.11a.52.52,0,0,1-.05.19,1.41,1.41,0,0,0-.05.48v.29c1.09,0,1.47,0,1.54,0s.12,0,.12.12v.74c0,.12,0,.13-.12.13s-.45,0-1.54,0v1h.5c1,0,1.28,0,1.34,0s.12,0,.12.12v.76c0,.12,0,.13-.12.13s-.38,0-1.34,0h-.5v.44c0,.91,0,1.36,0,1.42s0,.12-.12.12h-.81c-.12,0-.13,0-.13-.12s0-.51,0-1.42v-.44H173c-1,0-1.29,0-1.35,0s-.12,0-.12-.13v-.76c0-.11,0-.12.12-.12s.4,0,1.35,0h.64v-1h-1c-.08.2-.17.37-.24.55s-.13.24-.2.24a.54.54,0,0,1-.25-.13,3.48,3.48,0,0,0-.62-.26,7,7,0,0,0,.74-1.63,2.84,2.84,0,0,0,.11-.59,7.84,7.84,0,0,1,.83.23c.12,0,.18.08.18.13a.17.17,0,0,1,0,.12.85.85,0,0,0-.14.34l0,.05h.68Zm-2-4.17c0-.11,0-.12.12-.12s.36,0,1.28,0h1.86c.9,0,1.21,0,1.28,0s.14,0,.13.13l0,.55a5.8,5.8,0,0,1-.28,2,1.06,1.06,0,0,1-1,.55,5.56,5.56,0,0,1-.58,0c-.3,0-.33,0-.35-.29a2.14,2.14,0,0,0-.21-.77,4.37,4.37,0,0,0,.78.09c.32,0,.41-.05.47-.28a4.6,4.6,0,0,0,.12-1H174a3.36,3.36,0,0,1-1.65,2.52c-.12.08-.19.12-.24.12s-.11-.07-.21-.22a2.16,2.16,0,0,0-.54-.55,2.4,2.4,0,0,0,1.56-1.87c-.81,0-1.1,0-1.16,0s-.12,0-.12-.12Z"/><path class="cls-1" d="M181.32,325.62c-1,0-1.3,0-1.36,0s-.12,0-.12-.12v-.72c0-.11,0-.12.12-.12s.33,0,1.06,0v-.93l-.81,0c-.12,0-.13,0-.13-.13v-.71c0-.11,0-.12.13-.12s.25,0,.81,0a7.36,7.36,0,0,0-.08-1.24c.4,0,.67,0,1,.08.12,0,.18.07.18.12a.79.79,0,0,1-.08.26,2.93,2.93,0,0,0-.05.78h1a7.36,7.36,0,0,0-.08-1.24c.4,0,.67,0,1,.08.13,0,.19.07.19.12a.93.93,0,0,1-.08.29,2.56,2.56,0,0,0-.07.76c.54,0,.74,0,.79,0s.12,0,.12.12v.71c0,.12,0,.13-.12.13l-.79,0v.93c.61,0,.85,0,.9,0s.12,0,.12.12v.74a10.43,10.43,0,0,0,1.11-3,6.57,6.57,0,0,0,.15-1c.38.07.67.13,1,.22.14,0,.22.09.22.17a.25.25,0,0,1-.08.18,1.86,1.86,0,0,0-.22.57l-.24.85h1.33c1,0,1.33,0,1.4,0s.12,0,.12.12v.78c0,.12,0,.13-.12.13h-.59a9.71,9.71,0,0,1-1.09,4.24,7.87,7.87,0,0,0,2,1.74,2.7,2.7,0,0,0-.52.78c-.08.18-.12.24-.19.24s-.13,0-.26-.13a9.75,9.75,0,0,1-1.69-1.66,7.63,7.63,0,0,1-1.93,1.71.54.54,0,0,1-.25.11c-.08,0-.12-.07-.22-.23a3.06,3.06,0,0,0-.51-.61.84.84,0,0,1-.24.58c-.19.15-.34.23-1.09.24-.34,0-.35,0-.41-.25a3.15,3.15,0,0,0-.26-.7c.25,0,.4,0,.61,0s.37-.11.37-.33v-.56h-2V330c0,1,0,1.41,0,1.46s0,.12-.13.12h-.8c-.11,0-.12,0-.12-.12s0-.46,0-1.45v-2.56c0-.81,0-1.18,0-1.24s0-.13.12-.13.35,0,1.17,0h1.46c.81,0,1.09,0,1.16,0s.12,0,.12.22,0,.4,0,1.24v1.32c0,.55,0,1.16,0,1.5a1.76,1.76,0,0,1,0,.25,6.61,6.61,0,0,0,2.27-1.87,10.1,10.1,0,0,1-.93-2.46c-.11.2-.24.4-.37.61s-.14.18-.2.18-.11-.06-.2-.19a2.32,2.32,0,0,0-.52-.6,5.4,5.4,0,0,0,.45-.66H185c-.07,0-.4,0-1.37,0Zm.24,1.42v.54h2V327Zm2,1.88v-.55h-2v.55Zm-.45-4.21v-.93h-1v.93Zm3.64-.19c0,.13-.1.25-.14.37a9.63,9.63,0,0,0,.87,2.84,9.53,9.53,0,0,0,.68-3.21Z"/><rect class="cls-4" x="110.14" y="119.56" width="138.39" height="78.57"/><path class="cls-1" d="M127.75,152.34v.6H125v9h-.66v-9.6Z"/><path class="cls-1" d="M135.38,158.06a19.73,19.73,0,0,1-2.27,0c-.12,0-.17,0-.18-.19a6.56,6.56,0,0,1-.07-.93,15.5,15.5,0,0,0,2.48.09c0-.42,0-.85,0-1.27a18.1,18.1,0,0,1-2.63-.05c-.12,0-.18,0-.19-.15,0-.27-.06-.54-.08-1a25.07,25.07,0,0,0,2.88.11c0-.41,0-.69,0-1.07a3.18,3.18,0,0,0-.13-.74,6.35,6.35,0,0,1,1.39.2.22.22,0,0,1,.12.33,1.41,1.41,0,0,0-.17.53c0,.22,0,.37,0,.7a18.58,18.58,0,0,0,2.41-.33c.13,0,.18,0,.19.13a5.89,5.89,0,0,1,.05.8c0,.14,0,.17-.12.18a22.6,22.6,0,0,1-2.54.29c0,.44,0,.85,0,1.24.84-.06,1.36-.17,2.16-.29.13,0,.17,0,.18.09s0,.57,0,.9c0,.11,0,.14-.17.15a20.28,20.28,0,0,1-2.16.26c0,.51,0,1,.08,1.55a9.84,9.84,0,0,1,2.92,1.33c.11.1.11.13.08.26a3.33,3.33,0,0,1-.48.81.16.16,0,0,1-.14.09.17.17,0,0,1-.12-.06,8.76,8.76,0,0,0-2.19-1.25c0,1.19-.73,1.67-2.23,1.67s-2.24-.63-2.24-1.54.87-1.56,2.2-1.56c.27,0,.54,0,1.06,0C135.42,158.88,135.39,158.43,135.38,158.06Zm-.95,2.22c-.8,0-1.19.23-1.19.58s.33.5,1.09.5a1.36,1.36,0,0,0,1-.33,1.06,1.06,0,0,0,.12-.62A4.74,4.74,0,0,0,134.44,160.28Z"/><path class="cls-1" d="M148.42,153.2c.13,0,.2.09.2.18s-.08.31-.08.46,0,.48.06.74a15.47,15.47,0,0,0,.35,1.89l1.56-.84a2.71,2.71,0,0,0,.76-.59,5.64,5.64,0,0,1,.8,1,.44.44,0,0,1,.08.23c0,.11-.07.2-.22.22a5.21,5.21,0,0,0-1.06.33,15.27,15.27,0,0,0-2.59,1.29c-1,.63-1.3,1.14-1.3,1.66s.48.92,1.75.92a19.18,19.18,0,0,0,3.36-.25c.12,0,.18,0,.2.13a9.92,9.92,0,0,1,.11,1c0,.12-.07.18-.2.19a23.54,23.54,0,0,1-3.28.17c-2.08,0-3.18-.68-3.18-2.11,0-1.22.8-2,2.09-2.84a16.75,16.75,0,0,1-.57-2.68,4.91,4.91,0,0,0-.29-1.28A6.32,6.32,0,0,1,148.42,153.2Z"/><path class="cls-1" d="M162.93,153.9a2.83,2.83,0,0,0,0-.75,4.57,4.57,0,0,1,1.3.44c.12.05.18.12.18.2a.38.38,0,0,1-.08.19,1.86,1.86,0,0,0-.22.41c-.07.18-.17.44-.31.88a3.18,3.18,0,0,1,2.94,3.19c0,2-1.19,3.13-3.38,3.67-.24.06-.32,0-.45-.19a2.24,2.24,0,0,0-.71-.73c1.5-.31,3.29-1,3.29-2.9a2.05,2.05,0,0,0-2-2.08,19.83,19.83,0,0,1-1.61,3.21,3.83,3.83,0,0,0,.47.56,3.13,3.13,0,0,1-.68.67.26.26,0,0,1-.15.06.24.24,0,0,1-.15-.07c-.09-.09-.18-.18-.3-.32a2.53,2.53,0,0,1-1.84,1c-.84,0-1.44-.68-1.44-1.78a4.2,4.2,0,0,1,1.56-3.16c-.12-.42-.23-1-.34-1.45a4.94,4.94,0,0,0-.33-1,4.81,4.81,0,0,1,1.24.18c.18,0,.21.12.21.32a3.59,3.59,0,0,0,0,.63c.06.32.09.52.15.78a6.31,6.31,0,0,1,2.24-.63A8.33,8.33,0,0,0,162.93,153.9Zm-4,5.6c0,.37.15.67.38.67s.68-.24,1.14-.8a11.34,11.34,0,0,1-.76-1.78A3.07,3.07,0,0,0,159,159.5Zm2.29-1a13.31,13.31,0,0,0,1-2.22,4.32,4.32,0,0,0-1.66.62A8.26,8.26,0,0,0,161.24,158.47Z"/><path class="cls-1" d="M174.81,157.18a3.3,3.3,0,0,1,1.75-.5,2.55,2.55,0,0,1,2.73,2.64c0,1.84-1.49,3-3.84,3-1.39,0-2.22-.59-2.22-1.62a1.46,1.46,0,0,1,1.55-1.34,2,2,0,0,1,2.07,1.61,1.66,1.66,0,0,0,1.12-1.67,1.61,1.61,0,0,0-1.73-1.66,4.48,4.48,0,0,0-2.82,1.17c-.32.29-.63.61-1,.94-.08.08-.13.12-.19.12a.27.27,0,0,1-.16-.1,4.86,4.86,0,0,1-.65-.71c-.07-.09,0-.17.05-.25a26.5,26.5,0,0,0,2.61-2.43c.68-.7,1.2-1.25,1.71-1.88l-2.12.42a3.51,3.51,0,0,0-.46.13.79.79,0,0,1-.22.06.25.25,0,0,1-.24-.19,5.29,5.29,0,0,1-.39-1.19,5.35,5.35,0,0,0,1,0c.67-.07,1.64-.21,2.5-.37a3,3,0,0,0,.61-.17.56.56,0,0,1,.21-.09.39.39,0,0,1,.25.09,4.16,4.16,0,0,1,.74.7.38.38,0,0,1,.12.26.29.29,0,0,1-.19.26,1.79,1.79,0,0,0-.48.35c-.8.78-1.54,1.55-2.38,2.35Zm0,3.13c-.32,0-.53.19-.53.42s.3.57,1,.57a2.39,2.39,0,0,0,.51,0C175.61,160.66,175.28,160.31,174.82,160.31Z"/><path class="cls-1" d="M183.63,162.88v-.6h2.79v-9h.66v9.6Z"/><path class="cls-1" d="M199.6,156.38c0,.39,0,.92,0,1.32,0,.18,0,.19-.2.2s-.66,0-1,0c-.14,0-.21,0-.21-.12,0-.44.05-.94.05-1.4v-1c0-.64,0-1,0-1.43,0-.07.05-.11.14-.11.48,0,1.18,0,1.84,0h3.71a1.15,1.15,0,0,0,.67-.12.23.23,0,0,1,.14-.07.36.36,0,0,1,.21.1,5,5,0,0,1,.81.73.3.3,0,0,1,.08.2.31.31,0,0,1-.1.21,1.78,1.78,0,0,0-.27.65,15.1,15.1,0,0,1-1.34,3.4,10.87,10.87,0,0,1-2.46,3,.37.37,0,0,1-.26.12.36.36,0,0,1-.22-.08,3.25,3.25,0,0,0-1.06-.42,9.42,9.42,0,0,0,2.78-3.18,11.79,11.79,0,0,0,1.26-3.4H199.6Z"/><path class="cls-1" d="M212.78,158.39a8.79,8.79,0,0,0-1.62.13c-.13,0-.22-.07-.25-.23a11.8,11.8,0,0,1-.17-1.33,14.08,14.08,0,0,0,2.38.13h3.54c.84,0,1.68,0,2.53,0,.17,0,.2,0,.2.15a7.94,7.94,0,0,1,0,1c0,.13,0,.18-.2.17l-2.45,0Z"/><path class="cls-1" d="M230.29,154.71a1,1,0,0,0,.55-.13.22.22,0,0,1,.14,0,.31.31,0,0,1,.18.07,5,5,0,0,1,.75.59.36.36,0,0,1,.14.25.32.32,0,0,1-.13.23,1.32,1.32,0,0,0-.36.47,15.13,15.13,0,0,1-2.18,3.4,14,14,0,0,1-3.34,2.74.3.3,0,0,1-.18.06.39.39,0,0,1-.25-.12,2.89,2.89,0,0,0-1-.51,12.66,12.66,0,0,0,3.66-2.8,11.22,11.22,0,0,0,2-3.12l-2.66.08a15.37,15.37,0,0,1-2.08,2.26.34.34,0,0,1-.23.12.26.26,0,0,1-.17-.07,3,3,0,0,0-1.06-.47,13,13,0,0,0,3-3.27,4.71,4.71,0,0,0,.65-1.49,5.41,5.41,0,0,1,1.29.58.23.23,0,0,1,.11.19.22.22,0,0,1-.12.19,1.18,1.18,0,0,0-.27.3l-.36.55Z"/><path class="cls-1" d="M134.35,251.39v.6h-2.79v9h-.66v-9.6Z"/><path class="cls-1" d="M138.64,257.37c0-.35,0-.77,0-1.18-.19.25-.4.52-.62.78a.31.31,0,0,1-.21.14c-.05,0-.11-.05-.14-.19a2.93,2.93,0,0,0-.41-.91,10.19,10.19,0,0,0,2.12-3.61,2.87,2.87,0,0,0,.19-.79,6.72,6.72,0,0,1,1,.35c.12.05.18.1.18.19s0,.12-.12.2a1,1,0,0,0-.24.44,17.13,17.13,0,0,1-.67,1.58v5.52c0,1.08,0,1.62,0,1.67s0,.12-.12.12h-.91c-.12,0-.13,0-.13-.12s0-.59,0-1.67Zm3.38-.83c-1.08,0-1.44,0-1.51,0s-.12,0-.12-.13v-.85c0-.11,0-.12.12-.12s.43,0,1.51,0h3.86c1.08,0,1.44,0,1.51,0s.12,0,.12.12v.85c0,.12,0,.13-.12.13s-.43,0-1.51,0h-2.07a34.23,34.23,0,0,1-1.17,3.36c.91-.1,1.8-.21,2.81-.37-.26-.47-.54-.9-.81-1.32-.07-.1,0-.14.09-.21l.67-.32c.13-.07.17-.07.24,0a21.41,21.41,0,0,1,1.79,3.12c.06.11,0,.15-.12.23l-.75.37c-.15.08-.18.07-.22,0-.14-.33-.28-.65-.43-1-1.62.3-2.83.47-4.59.68a1.38,1.38,0,0,0-.41.09.47.47,0,0,1-.21.09c-.09,0-.13-.08-.17-.18-.09-.32-.17-.67-.24-1.1.42,0,.76,0,1.09,0a27.77,27.77,0,0,0,1.16-3.48Zm.66-2.9c-1,0-1.35,0-1.42,0s-.13,0-.13-.12v-.86c0-.11,0-.12.13-.12s.41,0,1.42,0h2.57c1,0,1.35,0,1.42,0s.13,0,.13.12v.86c0,.11,0,.12-.13.12s-.41,0-1.42,0Z"/><path class="cls-1" d="M154.32,255c.85-.13,1.46-.25,1.91-.35a1.59,1.59,0,0,0,.44-.18.42.42,0,0,1,.24-.08c.07,0,.1,0,.19.08a2.57,2.57,0,0,1,.65.58.41.41,0,0,1,.12.25.3.3,0,0,1-.2.25,1.64,1.64,0,0,0-.35.25c-.81.77-1.26,1.23-2,2a1.36,1.36,0,0,1,.4-.05,1.25,1.25,0,0,1,1.2,1.11c.22.9.4,1.08,1.21,1.08a7.4,7.4,0,0,0,1.71-.2c.12,0,.18,0,.2.17a5.65,5.65,0,0,1,.08,1c0,.11-.05.15-.2.18a9.63,9.63,0,0,1-1.62.14c-1.62,0-2.15-.43-2.38-1.52-.18-.75-.31-1.06-.69-1.06a1.57,1.57,0,0,0-1,.55c-.5.51-1.3,1.47-1.67,1.94a.19.19,0,0,1-.15.08.21.21,0,0,1-.12,0,6.08,6.08,0,0,1-.77-.67.18.18,0,0,1-.06-.11.27.27,0,0,1,.09-.18l2.08-2.11c.43-.44,1-1.08,2.18-2.34-.83.22-1.56.4-2.29.58a4.33,4.33,0,0,0-.59.2.5.5,0,0,1-.23.07c-.08,0-.13-.06-.19-.19a7.68,7.68,0,0,1-.44-1.23A12.28,12.28,0,0,0,154.32,255Zm3.07-2.35c.11,0,.15.09.12.24a6.69,6.69,0,0,1-.3.9.16.16,0,0,1-.19.12A17,17,0,0,1,154,253a.15.15,0,0,1-.1-.2,10,10,0,0,1,.37-1A20,20,0,0,0,157.39,252.64Z"/><path class="cls-1" d="M168.21,256.23a3.31,3.31,0,0,1,1.75-.5,2.55,2.55,0,0,1,2.73,2.64c0,1.84-1.49,3-3.84,3-1.39,0-2.22-.59-2.22-1.62a1.46,1.46,0,0,1,1.55-1.34,2,2,0,0,1,2.07,1.61,1.66,1.66,0,0,0,1.12-1.67,1.61,1.61,0,0,0-1.73-1.66,4.48,4.48,0,0,0-2.82,1.17c-.32.29-.63.61-1,.94-.08.08-.13.12-.19.12a.27.27,0,0,1-.17-.1,4.91,4.91,0,0,1-.65-.71c-.07-.09,0-.17.06-.25a26.61,26.61,0,0,0,2.61-2.43c.68-.7,1.2-1.25,1.71-1.88l-2.12.42a3.52,3.52,0,0,0-.46.13.79.79,0,0,1-.22.06.25.25,0,0,1-.24-.19,5.3,5.3,0,0,1-.38-1.19,5.35,5.35,0,0,0,1,0c.67-.07,1.64-.21,2.5-.37a3,3,0,0,0,.61-.17.56.56,0,0,1,.21-.09.39.39,0,0,1,.25.09,4.12,4.12,0,0,1,.74.7.38.38,0,0,1,.12.26.29.29,0,0,1-.19.26,1.77,1.77,0,0,0-.48.35c-.8.78-1.54,1.55-2.38,2.35Zm0,3.13c-.32,0-.53.19-.53.42s.3.57,1,.57a2.4,2.4,0,0,0,.51,0C169,259.7,168.68,259.36,168.22,259.36Z"/><path class="cls-1" d="M177,261.92v-.6h2.79v-9h.66v9.6Z"/><path class="cls-1" d="M193,255.42c0,.39,0,.92,0,1.32,0,.18,0,.19-.2.2s-.66,0-1,0c-.14,0-.21,0-.21-.12,0-.44.05-.94.05-1.4v-1c0-.64,0-1,0-1.43,0-.07.05-.11.14-.11.48,0,1.18,0,1.84,0h3.71a1.15,1.15,0,0,0,.67-.12.23.23,0,0,1,.14-.07.36.36,0,0,1,.21.1,5,5,0,0,1,.81.73.3.3,0,0,1,.08.2.31.31,0,0,1-.1.21,1.78,1.78,0,0,0-.27.65,15.1,15.1,0,0,1-1.34,3.4,10.87,10.87,0,0,1-2.46,3,.37.37,0,0,1-.26.12.36.36,0,0,1-.22-.08,3.25,3.25,0,0,0-1.06-.42,9.42,9.42,0,0,0,2.78-3.18,11.79,11.79,0,0,0,1.26-3.4H193Z"/><path class="cls-1" d="M206.18,257.44a8.82,8.82,0,0,0-1.62.13c-.13,0-.22-.07-.25-.23a12,12,0,0,1-.17-1.33,14.09,14.09,0,0,0,2.38.13h3.54c.84,0,1.68,0,2.53,0,.17,0,.2,0,.2.15a8.3,8.3,0,0,1,0,1c0,.13,0,.18-.2.17l-2.45,0Z"/><path class="cls-1" d="M223.69,253.76a1,1,0,0,0,.55-.13.22.22,0,0,1,.14,0,.31.31,0,0,1,.18.07,5,5,0,0,1,.75.59.36.36,0,0,1,.14.25.32.32,0,0,1-.13.23,1.32,1.32,0,0,0-.36.47,15.13,15.13,0,0,1-2.18,3.4,14,14,0,0,1-3.34,2.74.3.3,0,0,1-.18.06.39.39,0,0,1-.25-.12,2.89,2.89,0,0,0-1-.51,12.66,12.66,0,0,0,3.66-2.8,11.22,11.22,0,0,0,2-3.12l-2.66.08a15.37,15.37,0,0,1-2.08,2.26.34.34,0,0,1-.23.12.26.26,0,0,1-.17-.07,3,3,0,0,0-1.06-.47,13,13,0,0,0,3-3.27,4.71,4.71,0,0,0,.65-1.49,5.41,5.41,0,0,1,1.29.58.23.23,0,0,1,.11.19.22.22,0,0,1-.12.19,1.18,1.18,0,0,0-.27.3l-.36.55Z"/></g></g></svg>