<svg xmlns="http://www.w3.org/2000/svg" viewBox="0 0 216.6 23.09"><defs><style>.cls-1{fill:#ffc832;}</style></defs><title>アセット 132</title><g id="レイヤー_2" data-name="レイヤー 2"><g id="オブジェクト"><path class="cls-1" d="M13.73.29,23.67,22.8H19.08l-2.34-5.48h-10L4.56,22.8H0L9.28.29ZM8.06,14h7.26l-3.8-8.91Z"/><path class="cls-1" d="M41.16.29A7.68,7.68,0,0,1,46.21,1.9a5,5,0,0,1,1.95,4,4.67,4.67,0,0,1-.82,2.72A5.46,5.46,0,0,1,45,10.52v.19a6.51,6.51,0,0,1,3.67,2.11A5.58,5.58,0,0,1,50,16.5a6,6,0,0,1-1,3.34,5.87,5.87,0,0,1-2.66,2.22,10,10,0,0,1-4,.74H32.91V.29ZM40,9.64a4.18,4.18,0,0,0,2.73-.83,2.8,2.8,0,0,0,1-2.28,2.55,2.55,0,0,0-.92-2.07,3.68,3.68,0,0,0-2.42-.77H37.26v6Zm1,9.76a5.6,5.6,0,0,0,3.33-.83,2.82,2.82,0,0,0,1.13-2.44,2.64,2.64,0,0,0-1.12-2.26,4.9,4.9,0,0,0-3-.83h-4.1V19.4Z"/><path class="cls-1" d="M71.77,0a13.52,13.52,0,0,1,6.29,1.44A11.09,11.09,0,0,1,82.52,5.6a11.15,11.15,0,0,1,1.66,6,11.18,11.18,0,0,1-1.62,5.86,11.09,11.09,0,0,1-4.45,4.19,14.25,14.25,0,0,1-12.73,0,11.18,11.18,0,0,1-6-10,11.23,11.23,0,0,1,1.6-5.81,11,11,0,0,1,4.4-4.23A13.32,13.32,0,0,1,71.77,0ZM63.83,11.55a8.06,8.06,0,0,0,1,4,7.05,7.05,0,0,0,2.83,2.77,8.43,8.43,0,0,0,4.1,1,7.84,7.84,0,0,0,5.7-2.18,7.48,7.48,0,0,0,2.23-5.61,8.09,8.09,0,0,0-1-4,6.89,6.89,0,0,0-2.83-2.78,8.51,8.51,0,0,0-4.12-1,8.4,8.4,0,0,0-4.12,1,6.88,6.88,0,0,0-2.81,2.77A8.23,8.23,0,0,0,63.83,11.55Z"/><path class="cls-1" d="M99,.29v13.1a7.22,7.22,0,0,0,.61,3.21,4.71,4.71,0,0,0,2,2,6.36,6.36,0,0,0,3.19.78,7.21,7.21,0,0,0,3.4-.74,4.65,4.65,0,0,0,2-2,7.87,7.87,0,0,0,.65-3.51V.29h4.35V13.66a8.92,8.92,0,0,1-2.72,7q-2.73,2.45-7.71,2.44A12.34,12.34,0,0,1,99.39,22a7.82,7.82,0,0,1-3.5-3.22,9.66,9.66,0,0,1-1.21-4.93V.29Z"/><path class="cls-1" d="M145.32.29v3.4h-8V22.8H133V3.69h-8V.29Z"/><path class="cls-1" d="M175.18.29v13.1a7.23,7.23,0,0,0,.6,3.21,4.71,4.71,0,0,0,2,2,6.37,6.37,0,0,0,3.2.78,7.19,7.19,0,0,0,3.39-.74,4.62,4.62,0,0,0,2-2A8,8,0,0,0,187,13.1V.29h4.35V13.66a8.92,8.92,0,0,1-2.72,7q-2.73,2.45-7.7,2.44A12.35,12.35,0,0,1,175.52,22a7.82,7.82,0,0,1-3.5-3.22,9.66,9.66,0,0,1-1.21-4.93V.29Z"/><path class="cls-1" d="M209.3,0a13.22,13.22,0,0,1,6.33,1.64V5.51a12.36,12.36,0,0,0-6.2-2.11,4.42,4.42,0,0,0-2.57.64,2,2,0,0,0-.93,1.7c0,.85.57,1.63,1.72,2.35.33.21,1.57.82,3.73,1.8a10.7,10.7,0,0,1,4,2.9,6.13,6.13,0,0,1,1.23,3.84,5.87,5.87,0,0,1-2.09,4.68,8,8,0,0,1-5.4,1.78,13.1,13.1,0,0,1-3.72-.47A16.42,16.42,0,0,1,201.9,21V16.69q3.61,3,6.8,3a4.4,4.4,0,0,0,2.58-.69,2.14,2.14,0,0,0,1-1.84,2.89,2.89,0,0,0-1.71-2.54c-.94-.52-2.16-1.14-3.65-1.86a10.53,10.53,0,0,1-4-2.82,5.72,5.72,0,0,1-1.32-3.74,5.51,5.51,0,0,1,2.11-4.52A8.71,8.71,0,0,1,209.3,0Z"/></g></g></svg>