<svg xmlns="http://www.w3.org/2000/svg" viewBox="0 0 163.26 23.09"><defs><style>.cls-1{fill:#ffc832;}</style></defs><title>アセット 149</title><g id="レイヤー_2" data-name="レイヤー 2"><g id="オブジェクト"><path class="cls-1" d="M13.73.29,23.67,22.8H19.08l-2.34-5.48h-10L4.56,22.8H0L9.28.29ZM8.06,14h7.26l-3.8-8.91Z"/><path class="cls-1" d="M44.72,0a16.31,16.31,0,0,1,3.76.44,19,19,0,0,1,4,1.48V6A18.44,18.44,0,0,0,48.6,4.29a12.51,12.51,0,0,0-3.68-.54,9.28,9.28,0,0,0-4.34,1,7.23,7.23,0,0,0-3,2.79,7.67,7.67,0,0,0-1.07,4,7.75,7.75,0,0,0,1.06,4,7.16,7.16,0,0,0,3,2.76,9.53,9.53,0,0,0,4.35,1,11.48,11.48,0,0,0,3.53-.54,25.32,25.32,0,0,0,4.25-1.91V21a19.56,19.56,0,0,1-4,1.63,17,17,0,0,1-4.28.48A13.86,13.86,0,0,1,38,21.67a10.59,10.59,0,0,1-4.41-4.08A11.13,11.13,0,0,1,32,11.75a11.51,11.51,0,0,1,1.65-6.11,11,11,0,0,1,4.55-4.17A14.14,14.14,0,0,1,44.72,0Z"/><path class="cls-1" d="M75.25,0A16.31,16.31,0,0,1,79,.44a19,19,0,0,1,4,1.48V6a18.91,18.91,0,0,0-3.84-1.72,12.56,12.56,0,0,0-3.68-.54,9.25,9.25,0,0,0-4.34,1,7.23,7.23,0,0,0-3,2.79,7.68,7.68,0,0,0-1.08,4,7.75,7.75,0,0,0,1.07,4,7.19,7.19,0,0,0,3,2.76,9.55,9.55,0,0,0,4.36,1A11.48,11.48,0,0,0,79,18.8a25.32,25.32,0,0,0,4.25-1.91V21a19.79,19.79,0,0,1-4,1.63,17,17,0,0,1-4.29.48,13.84,13.84,0,0,1-6.36-1.42,10.59,10.59,0,0,1-4.41-4.08,11.13,11.13,0,0,1-1.6-5.84,11.51,11.51,0,0,1,1.65-6.11,11.08,11.08,0,0,1,4.54-4.17A14.19,14.19,0,0,1,75.25,0Z"/><path class="cls-1" d="M110.07.29v3.4H99.87V9.6h9.77V13H99.87v6.4H110.3v3.4H95.52V.29Z"/><path class="cls-1" d="M130.32,0a13.22,13.22,0,0,1,6.33,1.64V5.51a12.36,12.36,0,0,0-6.2-2.11,4.42,4.42,0,0,0-2.57.64,2,2,0,0,0-.93,1.7c0,.85.57,1.63,1.72,2.35.33.21,1.57.82,3.73,1.8a10.7,10.7,0,0,1,4,2.9,6.13,6.13,0,0,1,1.23,3.84,5.87,5.87,0,0,1-2.09,4.68,8,8,0,0,1-5.41,1.78,13,13,0,0,1-3.71-.47A16.42,16.42,0,0,1,122.92,21V16.69c2.41,2,4.67,3,6.8,3A4.42,4.42,0,0,0,132.3,19a2.16,2.16,0,0,0,1-1.84,2.89,2.89,0,0,0-1.71-2.54c-.94-.52-2.16-1.14-3.65-1.86a10.65,10.65,0,0,1-4-2.82,5.76,5.76,0,0,1-1.31-3.74,5.49,5.49,0,0,1,2.11-4.52A8.71,8.71,0,0,1,130.32,0Z"/><path class="cls-1" d="M156,0a13.22,13.22,0,0,1,6.33,1.64V5.51a12.33,12.33,0,0,0-6.2-2.11,4.46,4.46,0,0,0-2.57.64,2,2,0,0,0-.93,1.7c0,.85.58,1.63,1.73,2.35.32.21,1.56.82,3.72,1.8a10.75,10.75,0,0,1,4,2.9,6.18,6.18,0,0,1,1.22,3.84,5.84,5.84,0,0,1-2.09,4.68,8,8,0,0,1-5.4,1.78,13.1,13.1,0,0,1-3.72-.47A16.59,16.59,0,0,1,148.57,21V16.69q3.6,3,6.8,3a4.37,4.37,0,0,0,2.57-.69,2.15,2.15,0,0,0,1-1.84,2.89,2.89,0,0,0-1.71-2.54q-1.42-.78-3.66-1.86a10.61,10.61,0,0,1-4-2.82,5.71,5.71,0,0,1-1.31-3.74,5.49,5.49,0,0,1,2.11-4.52A8.66,8.66,0,0,1,156,0Z"/></g></g></svg>