<svg xmlns="http://www.w3.org/2000/svg" viewBox="0 0 271.66 188.28"><defs><style>.cls-1{fill:#fff3f0;}</style></defs><title>アセット 135</title><g id="レイヤー_2" data-name="レイヤー 2"><g id="背景"><path class="cls-1" d="M269.66,173.19l-153-26a2.63,2.63,0,0,1-1.56-4.07l18.77-31.83a5.76,5.76,0,0,1,5.77-2.91l97.13,16.5a2.86,2.86,0,0,0,2.88-1.45l5.64-9.52a2.63,2.63,0,0,0-1.55-4.08L137.28,91.75a1.31,1.31,0,0,1-.74-.37L66.06,23.54a1.79,1.79,0,0,1,1.54-2.95l73.29,12.85a2.86,2.86,0,0,0,2.9-1.45l5.63-9.5a2.64,2.64,0,0,0-1.55-4.08L43.17.07A5.74,5.74,0,0,0,37.39,3l-36,60.79C-.79,67.43-.37,72,2.4,74.64l61,58.82a2.66,2.66,0,0,0,4.11-.83l5.45-9.2a2.82,2.82,0,0,0-.32-3.46L18.32,67.71A2.81,2.81,0,0,1,18,64.26L41.61,24.38a1.6,1.6,0,0,1,2.47-.5L122.25,100a1.7,1.7,0,0,1,.19,2.07L92.9,151.81c-2,3.41-.41,7.59,3.15,8.17l5.2.84L262.7,188.24a2.84,2.84,0,0,0,2.87-1.45l5.65-9.52A2.64,2.64,0,0,0,269.66,173.19ZM132.89,97.26l.11-.12,0,.16Z"/></g></g></svg>