<svg xmlns="http://www.w3.org/2000/svg" viewBox="0 0 258.6 178.11"><defs><style>.cls-1{fill:#fff3f0;}</style></defs><title>アセット 135</title><g id="レイヤー_2" data-name="レイヤー 2"><g id="背景"><path class="cls-1" d="M255.23,14.49a3.42,3.42,0,0,0,0-.72L254.58,6c-.31-3.65-3.07-6.31-6.16-5.92L85,20.25a2.64,2.64,0,0,0-2,3L84,35a2.42,2.42,0,0,0,2.51,2.42L223.2,20.46c1.31-.16,2,1.73,1.08,2.8L193.7,57.44a1.29,1.29,0,0,1-.8.44L5.5,81.06C2.14,81.47-.3,85,0,89a3.35,3.35,0,0,0,0,.71l5.08,71.83A2.43,2.43,0,0,0,7.56,164l9.92-1a2.62,2.62,0,0,0,2.09-2.93L15.24,98.76A1.57,1.57,0,0,1,16.46,97L187.58,75.84a2.47,2.47,0,0,1,2.56,2.5l4.44,60.38a2.69,2.69,0,0,1-2.06,3L54,161a2.64,2.64,0,0,0-2,3l1,11.72a2.42,2.42,0,0,0,2.51,2.42l148.23-20.48a9.19,9.19,0,0,0,5.69-3.1l27.91-31.34a3.53,3.53,0,0,0,.83-2.63L237,106.9c-.22-2.64-2.92-3.82-4.55-2l-21.56,24.17c-1.42,1.6-3.76.55-3.93-1.76l-4-55.11a3,3,0,0,1,.72-2.26L239.49,29.9c.84-.94,2.22-.32,2.31,1l2.3,32.54A2.44,2.44,0,0,0,246.58,66l9.92-1A2.62,2.62,0,0,0,258.59,62Z"/></g></g></svg>