<svg xmlns="http://www.w3.org/2000/svg" viewBox="0 0 592.93 299.31"><defs><style>.cls-1{fill:#efe3df;}</style></defs><title>アセット 91</title><g id="レイヤー_2" data-name="レイヤー 2"><path class="cls-1" d="M572.85,193.15,408.57,264c-2.72,1.17-5.64-1.06-5.64-4.31V181a4.64,4.64,0,0,1,2.65-4.31l183-79a7.61,7.61,0,0,0,4.35-7l0-18a4.55,4.55,0,0,0-3.18-4.49L335.36.13c-2.61-.7-5.11,1.51-5.11,4.49V21.95a4.55,4.55,0,0,0,3.18,4.49l212.46,56.8a2.65,2.65,0,0,1,.29,4.86l-153.59,66.2a3.75,3.75,0,0,1-2.46.18L82.94,72.36c-2.61-.7-5.11,1.51-5.11,4.49V94.18A4.55,4.55,0,0,0,81,98.67l295.33,78.95a4.55,4.55,0,0,1,3.18,4.49v106.1c0,7.76,7,13.11,13.47,10.36l9.94-4.2v0l172.91-74.53a4.64,4.64,0,0,0,2.65-4.31V197.46C578.49,194.22,575.56,192,572.85,193.15Z"/><path class="cls-1" d="M297.92,269.21l-271.33-72a4.55,4.55,0,0,1-3.18-4.49V123.37a4.55,4.55,0,0,0-3.18-4.49L5.12,114.82c-2.61-.7-5.12,1.5-5.12,4.49V208.2c0,5.14,3.16,9.61,7.65,10.81L295.17,295.3c3.71,1,7.27-2.14,7.27-6.39V275.6A6.47,6.47,0,0,0,297.92,269.21Z"/></g></svg>