<svg xmlns="http://www.w3.org/2000/svg" viewBox="0 0 400 201.92"><defs><style>.cls-1{fill:#fff3f0;}</style></defs><title>アセット 151</title><g id="レイヤー_2" data-name="レイヤー 2"><g id="背景"><path class="cls-1" d="M386.45,130.3,275.62,178.07c-1.83.79-3.8-.72-3.8-2.91V122.08a3.12,3.12,0,0,1,1.79-2.9L397,65.89A5.15,5.15,0,0,0,400,61.13L400,49a3.09,3.09,0,0,0-2.14-3L226.24.09a2.88,2.88,0,0,0-3.45,3V14.81a3.07,3.07,0,0,0,2.14,3L368.26,56.15a1.79,1.79,0,0,1,.2,3.28L264.84,104.09a2.5,2.5,0,0,1-1.66.12L56,48.82a2.89,2.89,0,0,0-3.45,3V63.53a3.08,3.08,0,0,0,2.15,3l199.23,53.26a3.07,3.07,0,0,1,2.15,3v71.57c0,5.23,4.7,8.85,9.08,7l6.71-2.84h0L388.47,148.3a3.12,3.12,0,0,0,1.79-2.91V133.21a2.85,2.85,0,0,0-3.81-2.91"/><path class="cls-1" d="M201,181.61,17.94,133a3.07,3.07,0,0,1-2.15-3V83.23a3.08,3.08,0,0,0-2.14-3L3.45,77.46a2.88,2.88,0,0,0-3.45,3v60a7.39,7.39,0,0,0,5.16,7.3l194,51.47c2.51.66,4.91-1.45,4.91-4.32v-9a4.37,4.37,0,0,0-3.05-4.32"/></g></g></svg>