<svg xmlns="http://www.w3.org/2000/svg" viewBox="0 0 100.5 121.97"><defs><style>.cls-1{fill:#fff3f0;}</style></defs><title>アセット 140</title><g id="レイヤー_2" data-name="レイヤー 2"><g id="背景"><path class="cls-1" d="M28.66.1a2.82,2.82,0,0,0-3.5,2.36L23,13.76a3.45,3.45,0,0,0,2.3,4L36.72,20.9c1.79.49,1.9,3.26.15,3.75L2.12,34.33a3.17,3.17,0,0,0-2,4l3,11.3A3.08,3.08,0,0,0,6.83,52L68,35a1.84,1.84,0,0,1,2.2,1.5L81,85.82a1.87,1.87,0,0,1-1.2,2.25l-58,16.15a3.16,3.16,0,0,0-2,4l3,11.31a3.09,3.09,0,0,0,3.69,2.38l71.74-20,.09,0,.08,0h0a3.68,3.68,0,0,0,1.93-4.12L83,18.27a7.67,7.67,0,0,0-5.42-5.91Z"/></g></g></svg>