<svg xmlns="http://www.w3.org/2000/svg" viewBox="0 0 450.58 312.71"><defs><style>.cls-1{fill:#efe3df;}</style></defs><title>アセット 84</title><g id="レイヤー_2" data-name="レイヤー 2"><path class="cls-1" d="M444.17,25.2a5.53,5.53,0,0,0,0-1.26L443,10.33C442.36,4,437.53-.63,432.15.07L147.41,37.13c-2.19.29-3.77,2.62-3.53,5.21l1.9,20.43c.24,2.59,2.21,4.47,4.4,4.18L388.4,36c2.28-.3,3.57,3,1.92,4.87l-52.94,60a2.26,2.26,0,0,1-1.39.77L9.49,144C3.65,144.8-.57,151,.07,158A5.53,5.53,0,0,0,0,159.2L9.67,284.38c.2,2.6,2.14,4.51,4.34,4.28l17.29-1.87c2.2-.24,3.81-2.54,3.61-5.14L26.67,174.8a2.75,2.75,0,0,1,2.12-3.08L326.9,132.92c2.26-.29,4.29,1.66,4.5,4.34l8.42,105.22c.21,2.6-1.37,4.92-3.56,5.24L95,282.85c-2.19.29-3.77,2.62-3.53,5.21l1.9,20.43c.24,2.59,2.21,4.47,4.4,4.18L356,275.32a16,16,0,0,0,9.89-5.47l48.32-54.94a6.19,6.19,0,0,0,1.41-4.6l-2.15-23.79c-.42-4.61-5.13-6.63-7.95-3.41l-37.32,42.39c-2.46,2.79-6.55,1-6.87-3l-7.68-96.05a5.35,5.35,0,0,1,1.24-3.94l62-70.25c1.45-1.64,3.86-.57,4,1.79l4.38,56.71c.2,2.6,2.14,4.51,4.34,4.28L447,113.15c2.2-.24,3.81-2.54,3.61-5.14Z"/></g></svg>