<svg xmlns="http://www.w3.org/2000/svg" xmlns:xlink="http://www.w3.org/1999/xlink" viewBox="0 0 372.59 202.24"><defs><style>.cls-1{fill:none;}.cls-2{clip-path:url(#clip-path);}.cls-3{fill:#fff3f0;}</style><clipPath id="clip-path" transform="translate(-26.57 -77.47)"><rect class="cls-1" width="340" height="340"/></clipPath></defs><title>アセット 132</title><g id="レイヤー_2" data-name="レイヤー 2"><g id="背景"><g class="cls-2"><path class="cls-3" d="M389.41,107.53l-156,124.63c-1.8,1.43-4.48.42-5.25-2l-14.47-45.29a7.38,7.38,0,0,1,2.15-8l99.07-79.12a3.71,3.71,0,0,0,1.08-4l-4.31-13.58c-.77-2.42-3.45-3.44-5.25-2l-108.6,86.73a1.87,1.87,0,0,1-1,.39L71.26,174.78a2.29,2.29,0,0,1-1.5-4l75.14-59.36a3.69,3.69,0,0,0,1.08-4l-4.3-13.55c-.76-2.41-3.43-3.44-5.23-2L29.12,176.64a7.4,7.4,0,0,0-2.17,8l27.51,86.66c1.66,5.23,6.38,8.71,11.32,8.34l108.72-8.13a3.43,3.43,0,0,0,2.72-4.66l-4.16-13.11a3.62,3.62,0,0,0-3.6-2.65l-96.69,7.34a3.63,3.63,0,0,1-3.6-2.65L51.12,199a2.06,2.06,0,0,1,1.64-2.8l140-9.85a2.18,2.18,0,0,1,2.15,1.59l22.48,71c1.54,4.86,6.93,6.9,10.54,4l5.26-4.28,164.67-131.5a3.71,3.71,0,0,0,1.08-4l-4.31-13.58C393.89,107.12,391.21,106.09,389.41,107.53Zm-190.1,66.26,0-.21.13.18Z" transform="translate(-26.57 -77.47)"/></g></g></g></svg>