<svg xmlns="http://www.w3.org/2000/svg" viewBox="0 0 275.15 482.43"><defs><style>.cls-1{fill:#422610;}.cls-2{fill:none;stroke:#41250f;stroke-miterlimit:10;stroke-dasharray:4;}.cls-3{font-size:16px;fill:#56504c;font-family:YuGo-Bold-83pv-RKSJ-H, YuGothic;font-weight:700;letter-spacing:0.2em;}.cls-4{fill:#fcf5e6;}.cls-5{fill:#e6c338;}</style></defs><title>アセット 11</title><g id="レイヤー_2" data-name="レイヤー 2"><g id="レイヤー_1-2" data-name="レイヤー 1"><text></text><path class="cls-1" d="M105.3,20.3A9,9,0,0,1,104.24,25a10,10,0,0,1-2.5,2.86A9,9,0,0,1,96,29.45H85.79v-19h7.89a21.52,21.52,0,0,1,3,.18,13.45,13.45,0,0,1,2.28.52,9.05,9.05,0,0,1,1.72.75,8.91,8.91,0,0,1,1.27.9,8.73,8.73,0,0,1,1.7,1.88,9.18,9.18,0,0,1,1.16,2.51A10.61,10.61,0,0,1,105.3,20.3Zm-5.82-.25a6.34,6.34,0,0,0-.88-3.61,4.33,4.33,0,0,0-2.12-1.73,7.53,7.53,0,0,0-2.53-.44H91.51V25.52h2.44a7,7,0,0,0,3.89-1.07Q99.48,23.38,99.48,20.05Z"/><path class="cls-1" d="M135.27,29.45h-5.86l-1.55-3.85h-8.24l-1.57,3.85h-5.86l8.39-19h6.33Zm-8.72-7.15-2.78-6.93L121,22.3Z"/><path class="cls-1" d="M161.91,10.47l-7.43,10.28v8.69h-5.72V20.86l-7.57-10.39h5.94l4.35,6,4.37-6Z"/><path class="cls-1" d="M176,0a23.42,23.42,0,0,0,4.32.25h4.58a35.66,35.66,0,0,0,4.47-.14,55.83,55.83,0,0,0-.25,5.8V24.8a41.63,41.63,0,0,0,.29,5.44H181.5a41.28,41.28,0,0,0,.29-5.44V6.42h-1.44a38,38,0,0,0-4.4.25Z"/><g id="罫線"><line class="cls-2" y1="91.24" x2="275.15" y2="91.24"/><line class="cls-2" y1="119.14" x2="275.15" y2="119.14"/><line class="cls-2" y1="147.05" x2="275.15" y2="147.05"/><line class="cls-2" y1="174.96" x2="275.15" y2="174.96"/><line class="cls-2" y1="202.86" x2="275.15" y2="202.86"/><line class="cls-2" y1="230.77" x2="275.15" y2="230.77"/><line class="cls-2" y1="258.68" x2="275.15" y2="258.68"/><line class="cls-2" y1="286.58" x2="275.15" y2="286.58"/><line class="cls-2" y1="314.49" x2="275.15" y2="314.49"/><line class="cls-2" y1="342.4" x2="275.15" y2="342.4"/><line class="cls-2" y1="370.3" x2="275.15" y2="370.3"/><line class="cls-2" y1="398.21" x2="275.15" y2="398.21"/><line class="cls-2" y1="426.12" x2="275.15" y2="426.12"/><line class="cls-2" y1="454.02" x2="275.15" y2="454.02"/><line class="cls-2" y1="481.93" x2="275.15" y2="481.93"/></g><g id="時間"><text class="cls-3" transform="translate(4.61 84.25)">09:00</text><text class="cls-3" transform="translate(4.61 111.92)">11:00</text><text class="cls-3" transform="translate(4.61 140.69)">12:00</text><text class="cls-3" transform="translate(4.61 166.92)">13:00</text><text class="cls-3" transform="translate(4.61 194.69)">14:00</text><text class="cls-3" transform="translate(4.61 222.36)">15:00</text><text class="cls-3" transform="translate(4.61 251.13)">16:00</text><text class="cls-3" transform="translate(4.61 278.85)">17:00</text><text class="cls-3" transform="translate(4.61 307.62)">18:00</text><text class="cls-3" transform="translate(4.61 335.28)">19:00</text><text class="cls-3" transform="translate(4.61 364.05)">20:00</text><text class="cls-3" transform="translate(4.61 390.29)">21:00</text><text class="cls-3" transform="translate(4.61 418.06)">22:00</text><text class="cls-3" transform="translate(4.61 445.72)">23:00</text><text class="cls-3" transform="translate(4.61 474.49)">24:00</text></g><path class="cls-1" d="M138.06,78.87c-1,0-1.31,0-1.37,0s-.11,0-.11-.13v-.64c0-.11,0-.12.11-.12s.41,0,1.38,0h1.4a4,4,0,0,0-.4-.64l-.83,0c-.11,0-.12,0-.12-.12s0-.21,0-.62v-.58c0-.37,0-.51,0-.58s0-.12.12-.12.45,0,1.52,0h3.5c1.06,0,1.43,0,1.51,0s.12,0,.12.12,0,.21,0,.58v.58c0,.41,0,.55,0,.62s0,.12-.12.12l-1.06,0a6.86,6.86,0,0,1-.35.64h1.57c1,0,1.3,0,1.36,0s.11,0,.11.12v.64c0,.12,0,.13-.11.13s-.4,0-1.36,0Zm1-3.88c-1.07,0-1.43,0-1.5,0s-.12,0-.12-.12v-.62c0-.1,0-.11.12-.11h3.25v-.48h-2.48c-1,0-1.35,0-1.42,0s-.12,0-.12-.13V73c0-.11,0-.12.12-.12s.42,0,1.42,0h2.48a3.91,3.91,0,0,0-.09-1c.41,0,.84,0,1.21.08.1,0,.18.07.18.11a.53.53,0,0,1-.08.23,1.72,1.72,0,0,0-.06.59h2.72c1,0,1.35,0,1.42,0s.12,0,.12.12v.63c0,.12,0,.13-.12.13s-.41,0-1.42,0H142v.48h3.47c.11,0,.12,0,.12.11v.62c0,.11,0,.12-.12.12S145,75,144,75ZM138,82c-.11,0-.12,0-.12-.12s0-.24,0-1.28V80.1c0-.41,0-.61,0-.68s0-.12.12-.12.45,0,1.53,0h3.92c1.08,0,1.46,0,1.54,0s.12,0,.12.12,0,.26,0,.6v.51c0,1,0,1.19,0,1.26s0,.12-.12.12h-.89c-.12,0-.13,0-.13-.12v-.25H139v.31c0,.11,0,.12-.12.12Zm1-1.23H144v-.62H139Zm4.74-4.6h-4.57v.53h4.57Zm-3.54,1.25a5.31,5.31,0,0,1,.38.64h1.63c.11-.21.21-.43.3-.64Z"/><path class="cls-1" d="M154.16,72.51c.79,0,1,0,1.1,0s.14,0,.14.13a6.17,6.17,0,0,0,.07,1.22,8.62,8.62,0,0,0,4.28,6.8,3.22,3.22,0,0,0-.65.84c-.09.18-.13.25-.2.25s-.13-.05-.25-.14a9.46,9.46,0,0,1-3.77-5.46,9.25,9.25,0,0,1-4,5.48c-.13.08-.2.13-.25.13s-.12-.09-.23-.26a2.65,2.65,0,0,0-.65-.73,8,8,0,0,0,4.42-7.12h-1.36c-.79,0-1,0-1.1,0s-.13,0-.13-.12v-.92c0-.11,0-.12.13-.12s.31,0,1.1,0Z"/><path class="cls-1" d="M163.82,78.46c.15.05.15.06.15.19a9.11,9.11,0,0,1-.38,2.48c0,.12-.11.12-.2.06l-.38-.25c-.13-.07-.13-.1-.09-.21a9,9,0,0,0,.4-2.3c0-.13,0-.12.18-.08Zm.86-.55c-.75,0-1,0-1.15,0s-.12,0-.12-.13,0-.47,0-1.34V73.72c0-.87,0-1.28,0-1.35s0-.12.12-.12.41,0,1.15,0h1.77c.72,0,1,0,1.09,0s.12,0,.12.12v.7c0,.11,0,.12-.12.12s-.37,0-1.09,0h-.21v.76c.69,0,.95,0,1,0s.12,0,.12.12v.61c0,.11,0,.12-.12.12l-1,0v.74h1c.11,0,.12,0,.12.11v.62c0,.11,0,.12-.12.12l-1,0v.78h.2c.69,0,.9,0,1,0s.13,0,.12.14l0,.73a12.45,12.45,0,0,1-.29,2.9,6.24,6.24,0,0,0,.88-2.63,31.06,31.06,0,0,0,.14-3.91c0-1.13,0-1.65,0-1.72s0-.12.13-.12.35,0,1.23,0h1.61c.87,0,1.17,0,1.23,0s.13,0,.13.12,0,.38,0,1.1v2.07c0,.72,0,1,0,1.09s0,.12-.13.12h-.84c-.11,0-.12,0-.12-.13v-.21h-.39a6.27,6.27,0,0,0,2,4.4,4,4,0,0,0-.65.65c-.1.14-.15.21-.21.21s-.11-.05-.22-.18a8,8,0,0,1-2-5.08h-.79c0,.77-.08,1.38-.15,2a8.14,8.14,0,0,1-1,3.08c-.09.13-.13.2-.19.2s-.12-.06-.23-.18a3.11,3.11,0,0,0-.59-.52,1.15,1.15,0,0,1-1.07.61h-.47c-.18,0-.18,0-.24-.36a2.43,2.43,0,0,0-.22-.74,6,6,0,0,0,.81.07.44.44,0,0,0,.45-.29,8.25,8.25,0,0,0,.24-2.55Zm-.13.53c.13,0,.15,0,.17.09.08.62.15,1.27.18,1.95,0,.11,0,.12-.13.17l-.34.12c-.13,0-.15,0-.15-.08a16.24,16.24,0,0,0-.12-2c0-.12,0-.13.13-.17Zm.75-4.51v-.76h-.9v.76Zm0,1.54v-.74h-.9v.74Zm0,1.6v-.78h-.9v.78Zm0,1.29c.11,0,.13,0,.15.08a14.26,14.26,0,0,1,.25,1.57c0,.1,0,.13-.13.19l-.23.1c-.12.05-.14.05-.15-.07a11.29,11.29,0,0,0-.23-1.64c0-.11,0-.11.11-.15Zm.65-.12c.1,0,.11,0,.14.07a6.5,6.5,0,0,1,.3,1.15c0,.09,0,.11-.09.17l-.23.12c-.11.05-.13,0-.14-.05a7.27,7.27,0,0,0-.27-1.24c0-.1,0-.11.09-.14Zm3.4-4.73v1c0,.42,0,.78,0,1.12h2.16V73.5Z"/><path class="cls-1" d="M191,79.34c-1,0-1.33,0-1.4,0s-.12,0-.12-.12v-.7c0-.1,0-.11.12-.11s.41,0,1.4,0h2.67V78.4c0-.18,0-.37,0-.56h-1.36c-1.08,0-1.47,0-1.54,0s-.12,0-.12-.13,0-.43,0-1.24V74.73c-.21.21-.43.42-.65.62s-.18.14-.23.14-.11-.08-.19-.23a2.42,2.42,0,0,0-.45-.64,6.68,6.68,0,0,0,2-2.15,3,3,0,0,0,.3-.68,8.67,8.67,0,0,1,1,.25c.1,0,.14.09.14.15a.18.18,0,0,1-.1.17,1.84,1.84,0,0,0-.3.35l-.19.28h2a4.78,4.78,0,0,0,.3-.58,3.08,3.08,0,0,0,.18-.57,10.28,10.28,0,0,1,1,.23.17.17,0,0,1,.13.15.24.24,0,0,1-.11.16,1.07,1.07,0,0,0-.21.28c-.07.12-.12.23-.19.33h1.67c1.07,0,1.42,0,1.5,0s.12,0,.12.11v.65c0,.12,0,.13-.12.13s-.43,0-1.5,0H195v.55h1.39c1.06,0,1.42,0,1.49,0s.13,0,.13.12V75c0,.11,0,.12-.13.12s-.43,0-1.49,0H195v.55h1.39c1.06,0,1.42,0,1.49,0s.13,0,.13.12v.54c0,.11,0,.12-.13.12s-.43,0-1.49,0H195V77h2c1.08,0,1.45,0,1.52,0s.12,0,.12.12v.62c0,.12,0,.13-.12.13s-.44,0-1.52,0h-2.12l0,.07a1.46,1.46,0,0,0,0,.48v.07h2.78c1,0,1.33,0,1.4,0s.12,0,.12.11v.7c0,.11,0,.12-.12.12s-.41,0-1.4,0h-2.07a9.79,9.79,0,0,0,3.81,1.39,2.28,2.28,0,0,0-.43.74c-.09.22-.12.3-.22.3a1,1,0,0,1-.25-.05,9.11,9.11,0,0,1-3.64-1.95c0,1.22,0,1.86,0,2.09s0,.12-.11.12h-.95c-.1,0-.11,0-.11-.12s0-.85,0-2.06a8.51,8.51,0,0,1-3.56,1.89,1.28,1.28,0,0,1-.26.07c-.1,0-.14-.08-.22-.29a2.07,2.07,0,0,0-.4-.67,9.83,9.83,0,0,0,3.65-1.45Zm3-5v-.55h-2.22v.55Zm0,1.3v-.55h-2.22v.55ZM194,77v-.58h-2.22V77Z"/><path class="cls-1" d="M205.29,75.5a13.53,13.53,0,0,1-2,1.3.78.78,0,0,1-.25.11c-.08,0-.12-.08-.21-.28a2.66,2.66,0,0,0-.52-.74,9.78,9.78,0,0,0,4.24-3.37,3.39,3.39,0,0,0,.43-.78c.43.07.84.13,1.16.21.13,0,.2.08.2.18a.19.19,0,0,1-.11.16.29.29,0,0,0-.09.08,9.93,9.93,0,0,0,4.7,3.36,2.92,2.92,0,0,0-.46.84c-.07.21-.11.29-.2.29a.66.66,0,0,1-.26-.1,12,12,0,0,1-2.15-1.23v.77c0,.11,0,.12-.12.12s-.36,0-1.24,0h-1.71c-.88,0-1.17,0-1.24,0s-.12,0-.12-.12Zm-1,6.41c-.11,0-.12,0-.12-.12s0-.36,0-2v-.95c0-.95,0-1.27,0-1.33s0-.12.12-.12.45,0,1.51,0h3.52c1.06,0,1.44,0,1.51,0s.13,0,.13.12,0,.38,0,1.17v1.08c0,1.58,0,1.88,0,1.94s0,.12-.13.12h-.94c-.11,0-.12,0-.12-.12v-.36h-4.41v.42c0,.11,0,.12-.13.12Zm1.07-1.54h4.41V78.46h-4.41Zm3-5h1.13a9.84,9.84,0,0,1-2-2.09,10.86,10.86,0,0,1-2,2.08c.13,0,.44,0,1.19,0Z"/><path class="cls-1" d="M141.74,132.63a9.16,9.16,0,0,1-1.55,1.69,12.41,12.41,0,0,1-2.08,1.54.47.47,0,0,1-.25.1.23.23,0,0,1-.19-.11,2.48,2.48,0,0,0-.9-.65,13,13,0,0,0,2.56-1.74,10.65,10.65,0,0,0,1.62-1.71H139c-.57,0-1.19,0-1.76.05-.1,0-.14-.07-.15-.19a9.71,9.71,0,0,1-.09-1.07c.66,0,1.31.05,2,.05h2.62l0-1a5.46,5.46,0,0,0-.18-1.3,9.8,9.8,0,0,1,1.39.12c.11,0,.14.07.14.13a.59.59,0,0,1,0,.17,3.12,3.12,0,0,0,0,1l0,.84h1c.77,0,1.32,0,2.13-.05.11,0,.17.05.17.13,0,.31,0,.65,0,1a.14.14,0,0,1-.15.15c-.8,0-1.43-.06-2.11-.06H143l.2,4.14a1.16,1.16,0,0,1-.53,1.17,3.36,3.36,0,0,1-1.52.39c-.21,0-.29,0-.34-.19a2.22,2.22,0,0,0-.77-1,7.92,7.92,0,0,0,1.55-.11c.25-.05.34-.17.32-.65Z"/><path class="cls-1" d="M152.38,133.67a8.79,8.79,0,0,0-1.62.13c-.13,0-.22-.07-.25-.23a11.8,11.8,0,0,1-.17-1.33,14.08,14.08,0,0,0,2.38.13h3.54c.84,0,1.68,0,2.53,0,.17,0,.2,0,.2.15a7.94,7.94,0,0,1,0,1c0,.13,0,.18-.2.17l-2.45,0Z"/><path class="cls-1" d="M165.74,130.81c-.71,0-1.34,0-1.82.05-.14,0-.19-.07-.21-.22s-.08-.79-.1-1.11a19.33,19.33,0,0,0,2.11.08h3.93a1,1,0,0,0,.6-.11.35.35,0,0,1,.19-.07.25.25,0,0,1,.19.08,4,4,0,0,1,.75.76.38.38,0,0,1,.09.22.3.3,0,0,1-.11.21,1.33,1.33,0,0,0-.25.43,13,13,0,0,1-2.13,3.58,12.31,12.31,0,0,1-3.12,2.62.53.53,0,0,1-.3.1.39.39,0,0,1-.28-.12,3.27,3.27,0,0,0-1-.61,10.64,10.64,0,0,0,3.6-2.75,9.26,9.26,0,0,0,1.86-3.14Zm7.6-2.11a1.19,1.19,0,0,1-2.38,0,1.16,1.16,0,0,1,1.19-1.18A1.17,1.17,0,0,1,173.34,128.7Zm-1.84,0a.65.65,0,1,0,.65-.65A.63.63,0,0,0,171.51,128.7Z"/><path class="cls-1" d="M178.84,136c-.71,0-1.44,0-2,.06-.11,0-.14-.07-.17-.21s-.07-.63-.1-1.21c.79.05,1.58.07,2.28.07h4c1.22,0,2,0,2.48-.05.14,0,.18.05.18.2a6.8,6.8,0,0,1,0,1c0,.17,0,.23-.17.23-.53,0-1.66,0-2.41,0Zm1-4.67c-.69,0-1.18,0-1.68,0-.11,0-.14-.07-.15-.23a7.45,7.45,0,0,1-.07-1.17c.69.05,1.21.07,1.87.07H182c.85,0,1.51,0,2-.05.09,0,.12.05.12.19a7.44,7.44,0,0,1,0,1c0,.15,0,.21-.14.21-.52,0-1.22,0-1.92,0Z"/><path class="cls-1" d="M191,129.36a.2.2,0,0,1,.15-.09.29.29,0,0,1,.14.05,11.42,11.42,0,0,1,2.1,1.56c.07.07.1.11.1.15a.24.24,0,0,1-.07.14c-.17.22-.53.66-.68.83s-.09.09-.13.09-.09,0-.14-.09a11.61,11.61,0,0,0-2.25-1.79C190.5,129.92,190.82,129.58,191,129.36Zm1,5.8a16.32,16.32,0,0,0,3.17-2,16.51,16.51,0,0,0,3-3,4.91,4.91,0,0,0,.31,1.29.54.54,0,0,1,.05.21c0,.1-.05.19-.18.33a18,18,0,0,1-2.53,2.33,23.73,23.73,0,0,1-3.32,2.16,3.75,3.75,0,0,0-.74.51.31.31,0,0,1-.2.11.29.29,0,0,1-.19-.12,7.74,7.74,0,0,1-.88-1.22A6.64,6.64,0,0,0,192,135.16Z"/><path class="cls-1" d="M209.26,130.1a1,1,0,0,0,.55-.13.22.22,0,0,1,.14,0,.32.32,0,0,1,.18.07,5,5,0,0,1,.75.59.36.36,0,0,1,.14.25.32.32,0,0,1-.13.23,1.32,1.32,0,0,0-.36.47,15.14,15.14,0,0,1-2.18,3.4,14,14,0,0,1-3.34,2.74.3.3,0,0,1-.18.05.39.39,0,0,1-.25-.12,2.9,2.9,0,0,0-1-.51,12.68,12.68,0,0,0,3.66-2.81,11.2,11.2,0,0,0,2-3.12l-2.66.08a15.37,15.37,0,0,1-2.08,2.26.34.34,0,0,1-.23.12.27.27,0,0,1-.17-.07,3,3,0,0,0-1.06-.47,13,13,0,0,0,3-3.27,4.7,4.7,0,0,0,.65-1.49,5.41,5.41,0,0,1,1.29.58.23.23,0,0,1,.11.19.22.22,0,0,1-.12.19,1.2,1.2,0,0,0-.28.3l-.36.55Zm1.36-1.49c.06,0,.1,0,.17,0a5.06,5.06,0,0,1,1,1.18.11.11,0,0,1,0,.18l-.46.34a.11.11,0,0,1-.19,0A5.44,5.44,0,0,0,210,129Zm1-.72c.07,0,.1,0,.17,0a4.59,4.59,0,0,1,1,1.13.13.13,0,0,1,0,.2l-.44.34a.11.11,0,0,1-.19,0,5.19,5.19,0,0,0-1.1-1.27Z"/><rect class="cls-4" x="106.39" y="94.34" width="138.39" height="22.91"/><rect class="cls-4" x="106.39" y="261.1" width="138.39" height="51.5"/><rect class="cls-4" x="106.39" y="317.02" width="138.39" height="23.13"/><rect class="cls-5" x="106.39" y="148.86" width="138.39" height="51.5"/><rect class="cls-5" x="106.39" y="204.86" width="138.39" height="52.43"/><path class="cls-1" d="M132.26,104.16a5.52,5.52,0,0,0,.5-1.63,10.86,10.86,0,0,1,1.36.56.19.19,0,0,1,.13.18.32.32,0,0,1-.11.22,2.11,2.11,0,0,0-.38.67,12.15,12.15,0,0,1-2.35,3.7.42.42,0,0,1-.31.16.37.37,0,0,1-.25-.11,3.06,3.06,0,0,0-1-.47A9.72,9.72,0,0,0,132.26,104.16Zm4.11-1.5a.26.26,0,0,1,.15-.07.22.22,0,0,1,.17.09,13.81,13.81,0,0,1,2.76,4,.28.28,0,0,1,0,.15.21.21,0,0,1-.11.18,6.62,6.62,0,0,1-.91.58c-.14.07-.22,0-.26-.1a14.38,14.38,0,0,0-2.72-4.28Zm1.29-1.32c.05,0,.1,0,.17,0a5.06,5.06,0,0,1,1,1.18.11.11,0,0,1,0,.18l-.46.34a.12.12,0,0,1-.19,0,5.51,5.51,0,0,0-1.11-1.28Zm1-.71c.07,0,.1,0,.17,0a4.63,4.63,0,0,1,1,1.13.13.13,0,0,1,0,.2l-.44.34a.11.11,0,0,1-.19,0,5.18,5.18,0,0,0-1.1-1.26Z"/><path class="cls-1" d="M149.42,101.56a1.62,1.62,0,0,0,.76-.1.18.18,0,0,1,.12,0,.36.36,0,0,1,.19.09,4,4,0,0,1,.71.77.29.29,0,0,1,.06.14.3.3,0,0,1-.14.22,2,2,0,0,0-.41.48,17.29,17.29,0,0,1-1.41,2.06,25.86,25.86,0,0,1,3,2.66.25.25,0,0,1,.09.15.28.28,0,0,1-.08.17,6,6,0,0,1-.74.75.19.19,0,0,1-.13.06.22.22,0,0,1-.15-.09,20,20,0,0,0-2.86-2.73,15.84,15.84,0,0,1-3.7,2.91.71.71,0,0,1-.25.09.25.25,0,0,1-.19-.1,3,3,0,0,0-.92-.71,13.35,13.35,0,0,0,3.87-2.81,13.51,13.51,0,0,0,2.07-2.76h-2.84c-.57,0-1.14,0-1.74.07-.09,0-.12-.07-.14-.19a6.33,6.33,0,0,1-.1-1.14c.59,0,1.14,0,1.86,0Z"/><path class="cls-1" d="M158,101.75c-.23.07-.47.12-.73.18s-.34.07-.5-.27a3.13,3.13,0,0,0-.37-.62,10.49,10.49,0,0,0,2.67-.68,2.41,2.41,0,0,0,.47-.26,4.68,4.68,0,0,1,.66.68.28.28,0,0,1,.1.2c0,.08-.09.13-.2.13a.91.91,0,0,0-.35.1l-.7.25V103c.76,0,1,0,1.08,0s.12,0,.12.12v.77c0,.11,0,.12-.12.12l-.95,0a5.75,5.75,0,0,0,1.14,1.72,3.08,3.08,0,0,0-.43.71c-.05.12-.09.18-.14.18s-.09-.05-.15-.17a7.27,7.27,0,0,1-.58-1.25c0,2.71.08,4.59.08,4.78s0,.12-.13.12h-.87c-.12,0-.13,0-.13-.12s.07-2.06.09-4.51a8.15,8.15,0,0,1-1.16,2.34c-.08.12-.13.19-.19.19s-.1-.07-.15-.19a3.66,3.66,0,0,0-.45-.76,8.06,8.06,0,0,0,1.72-3h-.23c-.8,0-1.07,0-1.13,0s-.12,0-.12-.12v-.77c0-.11,0-.12.12-.12s.33,0,1.13,0H158Zm5,4.17a8.78,8.78,0,0,1-2,1.54.55.55,0,0,1-.25.11c-.08,0-.11-.07-.2-.19a2.46,2.46,0,0,0-.56-.59,7.66,7.66,0,0,0,3-2.23,1.77,1.77,0,0,0,.13-.21,10.83,10.83,0,0,1-2.27,1.05,1,1,0,0,1-.23.06c-.1,0-.13-.08-.23-.29a2.31,2.31,0,0,0-.44-.62,9.83,9.83,0,0,0,2.4-.88,6.29,6.29,0,0,0-.73-.61c-.09-.05-.09-.09,0-.2l.44-.43c.1-.1.11-.09.22,0a5.36,5.36,0,0,1,.88.69,5.7,5.7,0,0,0,1.19-1.32h-1.91a8.37,8.37,0,0,1-1.56,1.27c-.13.09-.2.13-.25.13s-.12-.08-.22-.23a1.93,1.93,0,0,0-.51-.53,6.43,6.43,0,0,0,2.32-1.93,1.92,1.92,0,0,0,.27-.54c.32.07.74.14,1,.23.1,0,.15.1.15.17s-.07.12-.12.15-.18.13-.37.42h1.46a.65.65,0,0,0,.27,0,.25.25,0,0,1,.13,0c.09,0,.18,0,.45.33s.31.33.31.43,0,.13-.12.19a1.22,1.22,0,0,0-.34.36,7.9,7.9,0,0,1-1.83,1.89c.27,0,.53.1.74.15a.18.18,0,0,1,.14.16.18.18,0,0,1-.11.15,1.11,1.11,0,0,0-.35.38l-.09.11h1.32a.71.71,0,0,0,.3,0,.35.35,0,0,1,.14,0c.08,0,.18.07.47.36s.3.33.3.42a.2.2,0,0,1-.12.19,1.11,1.11,0,0,0-.34.41,7.77,7.77,0,0,1-5.36,3.64c-.33.08-.34.09-.48-.24a2.44,2.44,0,0,0-.42-.61A9.44,9.44,0,0,0,162.9,108a6.71,6.71,0,0,0-.83-.69c-.1-.07-.1-.09,0-.2l.46-.43c.11-.09.13-.08.22,0a5.44,5.44,0,0,1,.95.76,5.92,5.92,0,0,0,1.22-1.49Z"/><path class="cls-1" d="M172.85,108.31c.59-.06,1.22-.15,1.87-.26a4.47,4.47,0,0,0-.1.51l0,.2a6.21,6.21,0,0,0,1.25-2.46,15.14,15.14,0,0,0,.36-2.8l-.95,0c-.12,0-.13,0-.13-.12v-.8c0-.11,0-.12.13-.12s.31,0,1,0c0-.29,0-.57,0-.88a10.83,10.83,0,0,0-.08-1.55c.4,0,.72,0,1.1.08.11,0,.17.05.17.12a.84.84,0,0,1-.07.26,4.75,4.75,0,0,0-.07,1.12c0,.3,0,.57,0,.85h.63c.85,0,1.13,0,1.2,0s.13,0,.13.13c0,.38,0,.69,0,1a33.64,33.64,0,0,1-.32,5,1.25,1.25,0,0,1-1.4,1.21l-.61,0c-.25,0-.25,0-.29-.38a2.51,2.51,0,0,0-.22-.74,5.94,5.94,0,0,0,.91.09c.33,0,.52-.18.59-.69a31.09,31.09,0,0,0,.28-4.65h-.92a19.42,19.42,0,0,1-.41,3.16,7,7,0,0,1-1.63,3.14c-.11.11-.18.16-.23.16s-.11-.05-.21-.15a2,2,0,0,0-.7-.53,4.84,4.84,0,0,0,.35-.34.81.81,0,0,1-.21,0c-1.17.23-2.6.44-3.84.57a1.74,1.74,0,0,0-.41.08.43.43,0,0,1-.19.07c-.07,0-.12-.07-.15-.19-.07-.29-.13-.64-.19-1a10.28,10.28,0,0,0,1.16,0c.38,0,.8,0,1.24-.09v-.64h-.65c-1,0-1.28,0-1.34,0s-.12,0-.12-.11V107c0-.11,0-.12.12-.12s.38,0,1.34,0h.65v-.47h-.44c-.93,0-1.25,0-1.32,0s-.13,0-.13-.12,0-.33,0-.91v-1.18c0-.59,0-.85,0-.9s0-.12.13-.12.38,0,1.32,0h.44v-.48H171c-1,0-1.33,0-1.4,0s-.12,0-.12-.12V102c0-.11,0-.12.12-.12s.41,0,1.4,0h.81v-.49c-.47,0-.95.09-1.42.11-.31,0-.32,0-.41-.24a2.21,2.21,0,0,0-.34-.59,21.18,21.18,0,0,0,3.89-.42,3.9,3.9,0,0,0,.6-.19,4.77,4.77,0,0,1,.63.61.27.27,0,0,1,.09.2c0,.07-.09.11-.23.11a3.19,3.19,0,0,0-.5.08c-.44.09-.88.16-1.33.22v.62h.64c1,0,1.32,0,1.39,0s.11,0,.11.12v.65c0,.11,0,.12-.09.12s-.43,0-1.41,0h-.64v.48h.47c.92,0,1.24,0,1.32,0s.12,0,.12.12,0,.31,0,.9v1.18c0,.58,0,.85,0,.91s0,.12-.12.12-.4,0-1.32,0h-.47v.47h.41c.95,0,1.28,0,1.34,0s.12,0,.12.12v.66c0,.1,0,.11-.12.11s-.4,0-1.34,0h-.41Zm-1-3.77V104h-.91v.57Zm0,1.22v-.58h-.91v.58Zm1-1.79v.57h1V104Zm1,1.21h-1v.58h1Z"/><path class="cls-1" d="M188.78,105a1.1,1.1,0,1,1-1.1-1.1A1.1,1.1,0,0,1,188.78,105Z"/><path class="cls-1" d="M204.88,102.25c0,.52,0,.71,0,.78s0,.12-.12.12l-1,0a7.07,7.07,0,0,0,2.27,3.79,3,3,0,0,0-.64.71c-.1.13-.14.2-.2.2s-.11-.05-.23-.18a8.43,8.43,0,0,1-1.61-2.55v1.81c0,.69,0,1,0,1.06s0,.12-.12.12-.4,0-1.33,0H200c-.94,0-1.26,0-1.34,0s-.12,0-.12-.12,0-.36,0-1.06V105c0-.68,0-1,0-1.06s0-.12.12-.12.41,0,1.34,0h2.92c-.08-.24-.14-.49-.21-.75h-4.35a8.7,8.7,0,0,1-1.45,4.84c-.1.13-.14.2-.2.2s-.11-.07-.22-.19a3.53,3.53,0,0,0-.74-.61c1.15-1.32,1.48-3,1.48-5.33,0-1,0-1.45,0-1.52s0-.12.12-.12.46,0,1.54,0h4.36c1.09,0,1.47,0,1.53,0s.12,0,.12.12,0,.26,0,.79Zm-7.06,7.49c-1,0-1.36,0-1.43,0s-.13,0-.13-.12v-.82c0-.11,0-.12.13-.12s.42,0,1.43,0H204c1,0,1.36,0,1.43,0s.13,0,.13.12v.82c0,.11,0,.12-.13.12s-.42,0-1.43,0Zm5.93-8.37h-5.36v.85h5.36Zm-4.11,4.16h2.68v-.79h-2.68Zm2.68.81h-2.68v.84h2.68Z"/><path class="cls-1" d="M210.91,104.59c0-.54,0-.93,0-1.17a12.43,12.43,0,0,1-1.14.51,1,1,0,0,1-.25.08c-.09,0-.12-.08-.21-.29a2.23,2.23,0,0,0-.44-.72,9.39,9.39,0,0,0,4.2-2.54,2.35,2.35,0,0,0,.45-.64,7.93,7.93,0,0,1,1.16.21c.1,0,.19.06.19.12s0,.09-.11.13l0,0a10.4,10.4,0,0,0,4.67,2.53,2.61,2.61,0,0,0-.42.77c-.08.21-.11.29-.2.29a.85.85,0,0,1-.26-.07,10.19,10.19,0,0,1-1.32-.55c0,.17,0,.45,0,.91v1.43c0,.34,0,.58,0,.76.32.19.58.35.84.53.08.05.13.11.13.18s-.07.12-.17.14a1.21,1.21,0,0,0-.35.2c-.37.28-.74.55-1.28.89a12.81,12.81,0,0,0,2.72.68,3,3,0,0,0-.42.77c-.12.31-.13.33-.47.24a8.53,8.53,0,0,1-3.72-1.68,3.5,3.5,0,0,0-.06.48c0,.36,0,.36-.35.43-1.34.28-2.65.52-3.66.67a1.58,1.58,0,0,0-.43.13.31.31,0,0,1-.19.07c-.06,0-.1-.05-.13-.16-.08-.3-.15-.71-.21-1.07.47,0,.78,0,1.18-.09l.31,0Zm2.6-1.59v-.09a5.49,5.49,0,0,0-.08-1c.41,0,.71,0,1.11.08.11,0,.17.07.17.12a.35.35,0,0,1-.07.22.92.92,0,0,0-.07.48V103h2.07a9.55,9.55,0,0,1-2.57-2,10.16,10.16,0,0,1-2.43,2Zm-1.46.85v.62h4v-.62Zm4,1.44h-4V106h4Zm-4,3.33c.73-.11,1.47-.24,2.3-.41a5.69,5.69,0,0,1-1.1-1.41H212Zm2.39-1.82a3.69,3.69,0,0,0,1,1,10.43,10.43,0,0,0,1.33-1h-2.31Z"/><path class="cls-1" d="M134.16,284.08a12,12,0,0,1-2.72,2.78.54.54,0,0,1-.25.13c-.08,0-.12-.08-.22-.22a2.5,2.5,0,0,0-.65-.67,9.94,9.94,0,0,0,3.53-3.85,3.16,3.16,0,0,0,.29-.81,9.88,9.88,0,0,1,1.19.23c.12,0,.18.1.18.18a.27.27,0,0,1-.12.19,1,1,0,0,0-.26.41l-.3.57h3a.7.7,0,0,0,.29,0,.74.74,0,0,1,.23-.07c.1,0,.19.07.47.34s.34.36.34.44a.3.3,0,0,1-.11.2,1.45,1.45,0,0,0-.29.52,11.79,11.79,0,0,1-2.21,3.81,12.64,12.64,0,0,1-4.46,3.08,1,1,0,0,1-.24.08c-.09,0-.13-.07-.25-.25a3.18,3.18,0,0,0-.69-.74,11.82,11.82,0,0,0,4.28-2.51,12.79,12.79,0,0,0-1.86-1.52c-.05,0-.08-.06-.08-.09a.21.21,0,0,1,.08-.13l.58-.59c.09-.1.11-.11.21,0A12.55,12.55,0,0,1,136,287a11.4,11.4,0,0,0,1.59-2.89Z"/><path class="cls-1" d="M146.16,281.75a7.4,7.4,0,0,0,1.84,1.49,1.81,1.81,0,0,0-.4.62c-.07.18-.11.25-.18.25a.54.54,0,0,1-.25-.13,9.16,9.16,0,0,1-1.53-1.46,8.23,8.23,0,0,1-2,2,.5.5,0,0,1-.23.11c-.07,0-.09-.06-.12-.2a2.15,2.15,0,0,0-.32-.76,6.5,6.5,0,0,0,2-1.91,1.57,1.57,0,0,0,.23-.47c.32,0,.71.11,1,.17s.19.07.19.13,0,.12-.12.15Zm5.48,2.74a.59.59,0,0,0,.31,0,.27.27,0,0,1,.17-.06c.08,0,.14,0,.43.34s.35.4.35.48a.25.25,0,0,1-.09.18.73.73,0,0,0-.2.4,11.13,11.13,0,0,1-1.14,3,5.77,5.77,0,0,0,1.94,1.66,2.66,2.66,0,0,0-.5.76c-.08.18-.12.25-.19.25s-.12,0-.23-.12a7.9,7.9,0,0,1-1.65-1.61,10.07,10.07,0,0,1-1.61,1.61c-.12.1-.2.15-.25.15s-.12-.08-.21-.24a1.78,1.78,0,0,0-.5-.58,7.63,7.63,0,0,0,2-1.87,9.45,9.45,0,0,1-1-3.25,18.87,18.87,0,0,1-.25,2.72,7.21,7.21,0,0,1-1.14,2.9c-.1.14-.15.22-.2.22s-.11-.07-.2-.19a2.09,2.09,0,0,0-.59-.55,5.14,5.14,0,0,0,.45-.67l-.49.3a.24.24,0,0,1-.13.05s-.07,0-.09-.1l-.08-.22c-.85.31-1.61.57-2.46.84a2.21,2.21,0,0,0-.42.17.31.31,0,0,1-.18.08c-.07,0-.11,0-.15-.13a8.69,8.69,0,0,1-.28-1.07c.28,0,.53-.05.78-.1v-3.88c0-.89,0-1.32,0-1.4s0-.12.12-.12.43,0,1.16,0h.07v-.31a3.58,3.58,0,0,0-.07-.73c.35,0,.68,0,1,.05.1,0,.15.07.15.12a.32.32,0,0,1-.07.15,1.19,1.19,0,0,0,0,.38v.32h.23c.61,0,.87,0,.94,0s.12,0,.12.12,0,.37,0,1.07v1.36c0,.64,0,1,0,1s0,.11-.12.11-.33,0-.94,0h-1.49v1.52c.44-.12.9-.26,1.34-.41-.09-.2-.18-.37-.26-.55s0-.12.11-.19l.53-.22c.13-.06.17,0,.22.05a10.38,10.38,0,0,1,.66,1.43,7.25,7.25,0,0,0,.54-1.83,23.4,23.4,0,0,0,.21-3.74c0-1.45,0-2.09,0-2.16s0-.13.13-.13.4,0,1.34,0h2c.95,0,1.25,0,1.32,0s.12,0,.12.13v.84c0,.11,0,.12-.12.12s-.37,0-1.32,0h-2.42v1.62Zm-6.78.68v.63h1.51v-.63Zm1.51,1.41h-1.51v.64h1.51Zm3.79-1.11a10.14,10.14,0,0,0,.69,2.24,10.07,10.07,0,0,0,.75-2.24Z"/><path class="cls-1" d="M157.72,287.09c0-.41,0-.9,0-1.39a10.51,10.51,0,0,1-.83,1c-.08.09-.14.13-.19.13s-.11-.05-.14-.19a2.68,2.68,0,0,0-.41-1,10.14,10.14,0,0,0,2.23-3.62,3.92,3.92,0,0,0,.2-.79c.4.11.76.2,1.07.32.13.05.18.1.18.17s0,.12-.11.2-.13.15-.24.46a15.43,15.43,0,0,1-.65,1.45v5.73c0,1.08,0,1.62,0,1.67s0,.12-.12.12h-.93c-.11,0-.12,0-.12-.12s0-.59,0-1.67Zm3.7-2.77a12.78,12.78,0,0,1-1.32,2c-.1.12-.15.18-.21.18s-.12-.07-.21-.22a2.55,2.55,0,0,0-.53-.67,10.2,10.2,0,0,0,2-3.43,4.09,4.09,0,0,0,.18-.84c.41.08.75.14,1.09.24.13,0,.21.09.21.17a.25.25,0,0,1-.1.21,1.4,1.4,0,0,0-.29.54c-.1.26-.21.54-.34.81h2.87c1,0,1.31,0,1.36,0s.13,0,.13.13v.8c0,.12,0,.13-.13.13s-.38,0-1.36,0H163v1.31h1.41c.87,0,1.16,0,1.22,0s.12,0,.12.12v.8c0,.11,0,.12-.12.12s-.35,0-1.22,0H163V288h1.41c.88,0,1.18,0,1.24,0s.12,0,.12.11v.81c0,.12,0,.13-.12.13s-.36,0-1.24,0H163v.61c0,1.1,0,1.66,0,1.72s0,.12-.12.12H162c-.11,0-.12,0-.12-.12s0-.62,0-1.72v-5.27Z"/><path class="cls-1" d="M173.22,282.09c.14.05.21.12.21.22a.25.25,0,0,1-.08.18,1.27,1.27,0,0,0-.2.52c-.15.75-.24,1.53-.31,2.1a11.12,11.12,0,0,0,0,1.21c.24-.43.47-.85.77-1.41a2.28,2.28,0,0,0,.34.71.26.26,0,0,1,.07.18.52.52,0,0,1-.11.28,9,9,0,0,0-.65,1.41,1.35,1.35,0,0,0-.05.33.15.15,0,0,1-.14.18c-.13,0-.6.1-.88.13-.08,0-.13-.07-.15-.14a7,7,0,0,1-.33-2.23,23.11,23.11,0,0,1,.26-2.74,10.22,10.22,0,0,0,.09-1.25A5.81,5.81,0,0,1,173.22,282.09Zm3.58-.19c.22.06.24.11.22.3a3.83,3.83,0,0,0,0,.51c.08,1,.15,2,.15,2.84a7.22,7.22,0,0,1-.84,3.82,6.07,6.07,0,0,1-1.82,1.77.38.38,0,0,1-.22.08.32.32,0,0,1-.23-.12,2.55,2.55,0,0,0-.94-.51,5.45,5.45,0,0,0,1.87-1.47,5.3,5.3,0,0,0,.92-3.51c0-.78-.06-1.92-.13-2.63a5.3,5.3,0,0,0-.23-1.2A6.39,6.39,0,0,1,176.8,281.9Z"/><path class="cls-1" d="M188.78,286.37a1.1,1.1,0,1,1-1.1-1.1A1.1,1.1,0,0,1,188.78,286.37Z"/><path class="cls-1" d="M200.16,284.08a12,12,0,0,1-2.72,2.78.54.54,0,0,1-.25.13c-.08,0-.12-.08-.22-.22a2.5,2.5,0,0,0-.65-.67,9.94,9.94,0,0,0,3.53-3.85,3.16,3.16,0,0,0,.29-.81,9.88,9.88,0,0,1,1.19.23c.12,0,.18.1.18.18a.27.27,0,0,1-.12.19,1,1,0,0,0-.26.41l-.3.57h3a.7.7,0,0,0,.29,0,.74.74,0,0,1,.23-.07c.1,0,.19.07.47.34s.34.36.34.44a.3.3,0,0,1-.11.2,1.45,1.45,0,0,0-.29.52,11.79,11.79,0,0,1-2.21,3.81,12.64,12.64,0,0,1-4.46,3.08,1,1,0,0,1-.24.08c-.09,0-.13-.07-.25-.25a3.18,3.18,0,0,0-.69-.74,11.82,11.82,0,0,0,4.28-2.51,12.79,12.79,0,0,0-1.86-1.52c-.05,0-.08-.06-.08-.09a.21.21,0,0,1,.08-.13l.58-.59c.09-.1.11-.11.21,0A12.55,12.55,0,0,1,202,287a11.4,11.4,0,0,0,1.59-2.89Z"/><path class="cls-1" d="M212.16,281.75a7.4,7.4,0,0,0,1.84,1.49,1.81,1.81,0,0,0-.4.62c-.07.18-.11.25-.18.25a.54.54,0,0,1-.25-.13,9.16,9.16,0,0,1-1.53-1.46,8.23,8.23,0,0,1-2,2,.5.5,0,0,1-.23.11c-.07,0-.09-.06-.12-.2a2.15,2.15,0,0,0-.32-.76,6.5,6.5,0,0,0,2-1.91,1.57,1.57,0,0,0,.23-.47c.32,0,.71.11,1,.17s.19.07.19.13,0,.12-.12.15Zm5.48,2.74a.59.59,0,0,0,.31,0,.27.27,0,0,1,.17-.06c.08,0,.14,0,.43.34s.35.4.35.48a.25.25,0,0,1-.09.18.73.73,0,0,0-.2.4,11.13,11.13,0,0,1-1.14,3,5.77,5.77,0,0,0,1.94,1.66,2.66,2.66,0,0,0-.5.76c-.08.18-.12.25-.19.25s-.12,0-.23-.12a7.9,7.9,0,0,1-1.65-1.61,10.07,10.07,0,0,1-1.61,1.61c-.12.1-.2.15-.25.15s-.12-.08-.21-.24a1.78,1.78,0,0,0-.5-.58,7.63,7.63,0,0,0,2-1.87,9.45,9.45,0,0,1-1-3.25,18.87,18.87,0,0,1-.25,2.72,7.21,7.21,0,0,1-1.14,2.9c-.1.14-.15.22-.2.22s-.11-.07-.2-.19a2.09,2.09,0,0,0-.59-.55,5.14,5.14,0,0,0,.45-.67l-.49.3a.24.24,0,0,1-.13.05s-.07,0-.09-.1l-.08-.22c-.85.31-1.61.57-2.46.84a2.21,2.21,0,0,0-.42.17.31.31,0,0,1-.18.08c-.07,0-.11,0-.15-.13a8.69,8.69,0,0,1-.28-1.07c.28,0,.53-.05.78-.1v-3.88c0-.89,0-1.32,0-1.4s0-.12.12-.12.43,0,1.16,0h.07v-.31a3.58,3.58,0,0,0-.07-.73c.35,0,.68,0,1,.05.1,0,.15.07.15.12a.32.32,0,0,1-.07.15,1.19,1.19,0,0,0,0,.38v.32h.23c.61,0,.87,0,.94,0s.12,0,.12.12,0,.37,0,1.07v1.36c0,.64,0,1,0,1s0,.11-.12.11-.33,0-.94,0h-1.49v1.52c.44-.12.9-.26,1.34-.41-.09-.2-.18-.37-.26-.55s0-.12.11-.19l.53-.22c.13-.06.17,0,.22.05a10.38,10.38,0,0,1,.66,1.43,7.25,7.25,0,0,0,.54-1.83,23.4,23.4,0,0,0,.21-3.74c0-1.45,0-2.09,0-2.16s0-.13.13-.13.4,0,1.34,0h2c.95,0,1.25,0,1.32,0s.12,0,.12.13v.84c0,.11,0,.12-.12.12s-.37,0-1.32,0h-2.42v1.62Zm-6.78.68v.63h1.51v-.63Zm1.51,1.41h-1.51v.64h1.51Zm3.79-1.11a10.14,10.14,0,0,0,.69,2.24,10.07,10.07,0,0,0,.75-2.24Z"/><path class="cls-1" d="M167.36,324.18c.79,0,1,0,1.1,0s.14,0,.14.13a6.16,6.16,0,0,0,.07,1.22,8.62,8.62,0,0,0,4.28,6.8,3.24,3.24,0,0,0-.65.84c-.09.18-.13.25-.2.25s-.13-.05-.25-.14a9.46,9.46,0,0,1-3.77-5.46,9.25,9.25,0,0,1-4,5.48c-.13.08-.2.13-.25.13s-.12-.09-.23-.26a2.63,2.63,0,0,0-.65-.73,8,8,0,0,0,4.42-7.12H166c-.79,0-1,0-1.1,0s-.13,0-.13-.12v-.92c0-.11,0-.12.13-.12s.31,0,1.1,0Z"/><path class="cls-1" d="M176.61,326.58c.1-.12.13-.13.23-.08a9.21,9.21,0,0,1,1.6,1.14s.08.08.08.11,0,.07-.07.12l-.51.67c-.09.12-.12.14-.21.06a7.69,7.69,0,0,0-1.58-1.23c-.06,0-.08-.07-.08-.09s0-.06.06-.1Zm.08,5.45a17.76,17.76,0,0,0,1-2.63,5.57,5.57,0,0,0,.64.56c.27.2.27.2.19.53a16.34,16.34,0,0,1-.94,2.46,1.74,1.74,0,0,0-.15.44.14.14,0,0,1-.13.15.45.45,0,0,1-.21-.08,9.21,9.21,0,0,1-.88-.61A5.08,5.08,0,0,0,176.69,332Zm.34-8.23c.09-.11.13-.1.23-.06a9.59,9.59,0,0,1,1.53,1.2s.07.07.07.09,0,.07-.07.13l-.5.67c-.1.13-.12.13-.21.05a7.65,7.65,0,0,0-1.55-1.3c-.1-.07-.1-.08,0-.2Zm2.22,6.25a.77.77,0,0,1-.24.13c-.08,0-.11-.09-.2-.26a1.89,1.89,0,0,0-.48-.65,8.76,8.76,0,0,0,3-2.88,3,3,0,0,0,.39-.81c.35.06.77.15,1.07.23q.13,0,.13.13a.12.12,0,0,1-.09.13l0,0a8.69,8.69,0,0,0,3.51,2.94,2.67,2.67,0,0,0-.43.85c-.06.18-.09.25-.18.25a.62.62,0,0,1-.25-.12c-.22-.14-.43-.28-.63-.42v1.87c0,1.61,0,1.9,0,2s0,.11-.13.11h-.9c-.11,0-.12,0-.12-.11V333h-2.84v.47c0,.1,0,.11-.12.11h-.91c-.11,0-.12,0-.12-.11s0-.37,0-2v-1c0-.35,0-.62,0-.81Zm2.35-5.76c.09.06.11.1.11.15s0,.13-.13.17a.89.89,0,0,0-.3.31,8.12,8.12,0,0,1-1.73,1.79c-.12.1-.2.14-.25.14s-.12-.07-.22-.23a2.2,2.2,0,0,0-.53-.61,6.92,6.92,0,0,0,1.76-1.65,3.28,3.28,0,0,0,.33-.62A7.34,7.34,0,0,1,181.6,324.28Zm2.56,4.81a8.69,8.69,0,0,1-1.91-2.07,9.72,9.72,0,0,1-1.74,2.07Zm-3.3,2.9h2.84v-1.87h-2.84Zm2.7-8.16a.33.33,0,0,1,.11-.05s.06,0,.1.07a6.64,6.64,0,0,0,2.22,1.92,3.5,3.5,0,0,0-.44.77c-.08.19-.11.26-.19.26a.66.66,0,0,1-.27-.12,7.84,7.84,0,0,1-2.23-2.23c-.06-.1,0-.11.08-.19Z"/><path class="cls-1" d="M124,168.51v.6H121.2v9h-.66v-9.6Z"/><path class="cls-1" d="M129.33,172.5A18.36,18.36,0,0,1,129,176a7.46,7.46,0,0,1-.88,2.43c-.08.14-.12.21-.18.21s-.11-.05-.22-.18a3.84,3.84,0,0,0-.74-.62,6.1,6.1,0,0,0,.9-2.3,16.81,16.81,0,0,0,.25-3.29c0-1.37,0-2,0-2.07s0-.12.12-.12.45,0,1.5,0H132v-.47a4.37,4.37,0,0,0-.07-.89c.42,0,.78,0,1.17.07.11,0,.18,0,.18.11a.39.39,0,0,1-.07.21,1,1,0,0,0-.08.47v.51h2.23c1,0,1.41,0,1.47,0s.11,0,.11.12v.84c0,.12,0,.13-.11.13s-.43,0-1.47,0h-6Zm5.1,1.78c.14-.07.17-.08.23,0a26,26,0,0,1,2.11,3.67c0,.11,0,.15-.1.22l-.81.43c-.13.07-.19,0-.23-.08-.14-.33-.29-.66-.44-1-1.42.25-3.32.54-5.13.74a1.06,1.06,0,0,0-.41.12.35.35,0,0,1-.18.07c-.08,0-.12,0-.17-.17-.09-.31-.18-.7-.26-1.14.4,0,.76,0,1.25,0a30.89,30.89,0,0,0,1.38-4.36,5.31,5.31,0,0,0,.14-1,11.23,11.23,0,0,1,1.22.33c.15,0,.19.1.19.19a.33.33,0,0,1-.1.22,1.46,1.46,0,0,0-.27.62,34.51,34.51,0,0,1-1.31,3.91c1.08-.12,2.18-.26,3.16-.44a18.49,18.49,0,0,0-1.08-1.77c-.06-.09,0-.13.09-.2Z"/><path class="cls-1" d="M143,177.87c0,.08,0,.11-.14.15a2.74,2.74,0,0,1-.76.23c-.13,0-.19,0-.25-.14a9.38,9.38,0,0,1-.65-3.39,25.07,25.07,0,0,1,.33-3.54,11.9,11.9,0,0,0,.12-1.64,5.42,5.42,0,0,1,1.15.38c.18.09.24.17.24.24a.4.4,0,0,1-.07.22,6.28,6.28,0,0,0-.21.81,20.5,20.5,0,0,0-.42,3.3,9.37,9.37,0,0,0,.11,1.74c.27-.58.47-1,.74-1.57a3.2,3.2,0,0,0,.36.74.33.33,0,0,1,.1.21.82.82,0,0,1-.13.36,8.24,8.24,0,0,0-.49,1.34,1.31,1.31,0,0,0,0,.29Zm3.81-5c-.58,0-1,.07-1.32.07s-.52,0-.92,0c-.15,0-.24-.05-.25-.18s-.07-.52-.12-1c.41,0,1,.05,1.36.05s.83,0,1.22,0c0-.55,0-1-.07-1.46a3.43,3.43,0,0,0-.19-.9,6.65,6.65,0,0,1,1.42.15c.12,0,.18.09.18.18a.44.44,0,0,1-.08.22,1.36,1.36,0,0,0-.05.46v1.22c.47-.07.95-.14,1.41-.24.13,0,.19,0,.2.1,0,.28.07.54.09.83s0,.19-.14.2c-.53.1-1,.17-1.52.22v1.69a5.74,5.74,0,0,1-.48,2.55,3.87,3.87,0,0,1-1.57,1.71.49.49,0,0,1-.27.1.23.23,0,0,1-.22-.1,3.62,3.62,0,0,0-.86-.54,3.57,3.57,0,0,0,1.86-1.83,6.08,6.08,0,0,0,.34-2.45Zm1.94-3.91a.12.12,0,0,1,.15,0,5.16,5.16,0,0,1,.85,1.33c0,.08,0,.12-.07.17l-.45.23c-.09,0-.14,0-.19-.07a5.24,5.24,0,0,0-.89-1.43Zm1-.46c.07,0,.1,0,.15,0a4.64,4.64,0,0,1,.85,1.29.12.12,0,0,1-.07.19l-.44.22c-.1,0-.14,0-.18-.05a5.28,5.28,0,0,0-.89-1.43Z"/><path class="cls-1" d="M157.86,173.35a3.3,3.3,0,0,1,1.75-.5,2.55,2.55,0,0,1,2.73,2.64c0,1.84-1.49,3-3.84,3-1.39,0-2.22-.59-2.22-1.62a1.46,1.46,0,0,1,1.55-1.34,2,2,0,0,1,2.07,1.61,1.66,1.66,0,0,0,1.12-1.67,1.61,1.61,0,0,0-1.73-1.66,4.48,4.48,0,0,0-2.82,1.17c-.32.29-.63.61-1,.94-.08.08-.13.12-.19.12a.27.27,0,0,1-.17-.1,4.88,4.88,0,0,1-.65-.71c-.07-.09,0-.17.06-.25a26.55,26.55,0,0,0,2.61-2.43c.68-.7,1.2-1.25,1.71-1.88l-2.12.42a3.51,3.51,0,0,0-.46.13.79.79,0,0,1-.22.06.25.25,0,0,1-.24-.19,5.29,5.29,0,0,1-.39-1.19,5.35,5.35,0,0,0,1,0c.67-.07,1.64-.21,2.5-.37a3,3,0,0,0,.61-.17.56.56,0,0,1,.21-.09.39.39,0,0,1,.25.09,4.14,4.14,0,0,1,.74.7.38.38,0,0,1,.12.26.29.29,0,0,1-.19.26,1.78,1.78,0,0,0-.48.35c-.8.78-1.54,1.55-2.38,2.35Zm0,3.13c-.32,0-.53.19-.53.42s.3.57,1,.57a2.4,2.4,0,0,0,.51,0C158.66,176.83,158.33,176.48,157.87,176.48Z"/><path class="cls-1" d="M166.68,179v-.6h2.79v-9h.66V179Z"/><path class="cls-1" d="M182.65,172.55c0,.39,0,.92,0,1.32,0,.18,0,.19-.2.2s-.66,0-1,0c-.14,0-.21,0-.21-.12,0-.44.06-.94.06-1.4v-1c0-.64,0-1,0-1.43,0-.07.05-.11.14-.11.48,0,1.18,0,1.84,0H187a1.15,1.15,0,0,0,.67-.12.24.24,0,0,1,.14-.07.36.36,0,0,1,.21.1,5,5,0,0,1,.81.73.3.3,0,0,1,.08.2.31.31,0,0,1-.1.21,1.77,1.77,0,0,0-.27.65,15.1,15.1,0,0,1-1.34,3.4,10.87,10.87,0,0,1-2.46,3,.36.36,0,0,1-.26.12.36.36,0,0,1-.22-.08,3.25,3.25,0,0,0-1.06-.42,9.41,9.41,0,0,0,2.78-3.18,11.8,11.8,0,0,0,1.27-3.4h-4.58Z"/><path class="cls-1" d="M195.83,174.56a8.8,8.8,0,0,0-1.62.13c-.13,0-.22-.07-.25-.23a11.92,11.92,0,0,1-.17-1.33,14.08,14.08,0,0,0,2.38.13h3.54c.84,0,1.68,0,2.53,0,.17,0,.2,0,.2.15a8.12,8.12,0,0,1,0,1c0,.13,0,.18-.2.17l-2.45,0Z"/><path class="cls-1" d="M213.34,170.88a1,1,0,0,0,.55-.13.22.22,0,0,1,.14,0,.31.31,0,0,1,.18.07,5,5,0,0,1,.75.59.36.36,0,0,1,.14.25.32.32,0,0,1-.13.23,1.31,1.31,0,0,0-.36.47,15.14,15.14,0,0,1-2.18,3.4,14,14,0,0,1-3.34,2.74.3.3,0,0,1-.18.06.39.39,0,0,1-.25-.12,2.89,2.89,0,0,0-1-.51,12.66,12.66,0,0,0,3.66-2.8,11.22,11.22,0,0,0,2-3.12l-2.66.08a15.34,15.34,0,0,1-2.08,2.26.34.34,0,0,1-.23.12.26.26,0,0,1-.17-.07,3,3,0,0,0-1.06-.47,13,13,0,0,0,3-3.27,4.71,4.71,0,0,0,.65-1.49,5.41,5.41,0,0,1,1.29.58.23.23,0,0,1,.11.19.22.22,0,0,1-.12.19,1.18,1.18,0,0,0-.27.3l-.36.55Z"/><path class="cls-1" d="M229.79,173.78a5.25,5.25,0,1,1-5.25-5.25A5.25,5.25,0,0,1,229.79,173.78Zm-5.51-3.5a6.58,6.58,0,0,1-1.77.85l.21,1a5.3,5.3,0,0,0,1.38-.6v4.7h-1.46v1h4.08v-1h-1.37v-5.94Z"/><path class="cls-1" d="M124,225.62v.6H121.2v9h-.66v-9.6Z"/><path class="cls-1" d="M129.33,229.61a18.36,18.36,0,0,1-.31,3.53,7.46,7.46,0,0,1-.88,2.43c-.08.14-.12.21-.18.21s-.11-.05-.22-.18A3.84,3.84,0,0,0,127,235a6.1,6.1,0,0,0,.9-2.3,16.81,16.81,0,0,0,.25-3.29c0-1.37,0-2,0-2.07s0-.12.12-.12.45,0,1.5,0H132v-.47a4.37,4.37,0,0,0-.07-.89c.42,0,.78,0,1.17.07.11,0,.18,0,.18.11a.39.39,0,0,1-.07.21,1,1,0,0,0-.08.47v.51h2.23c1,0,1.41,0,1.47,0s.11,0,.11.12v.84c0,.12,0,.13-.11.13s-.43,0-1.47,0h-6Zm5.1,1.78c.14-.07.17-.08.23,0a26,26,0,0,1,2.11,3.67c0,.11,0,.15-.1.22l-.81.43c-.13.07-.19,0-.23-.08-.14-.33-.29-.66-.44-1-1.42.25-3.32.54-5.13.74a1.06,1.06,0,0,0-.41.12.35.35,0,0,1-.18.07c-.08,0-.12,0-.17-.17-.09-.31-.18-.7-.26-1.14.4,0,.76,0,1.25,0a30.89,30.89,0,0,0,1.38-4.36,5.31,5.31,0,0,0,.14-1,11.23,11.23,0,0,1,1.22.33c.15,0,.19.1.19.19a.33.33,0,0,1-.1.22,1.46,1.46,0,0,0-.27.62,34.51,34.51,0,0,1-1.31,3.91c1.08-.12,2.18-.26,3.16-.44a18.49,18.49,0,0,0-1.08-1.77c-.06-.09,0-.13.09-.2Z"/><path class="cls-1" d="M143,235c0,.08,0,.11-.14.15a2.74,2.74,0,0,1-.76.23c-.13,0-.19,0-.25-.14a9.38,9.38,0,0,1-.65-3.39,25.07,25.07,0,0,1,.33-3.54,11.9,11.9,0,0,0,.12-1.64,5.42,5.42,0,0,1,1.15.38c.18.09.24.17.24.24a.4.4,0,0,1-.07.22,6.28,6.28,0,0,0-.21.81,20.5,20.5,0,0,0-.42,3.3,9.37,9.37,0,0,0,.11,1.74c.27-.58.47-1,.74-1.57a3.2,3.2,0,0,0,.36.74.33.33,0,0,1,.1.21.82.82,0,0,1-.13.36,8.24,8.24,0,0,0-.49,1.34,1.31,1.31,0,0,0,0,.29Zm3.81-5c-.58,0-1,.07-1.32.07s-.52,0-.92,0c-.15,0-.24-.05-.25-.18s-.07-.52-.12-1c.41,0,1,.05,1.36.05s.83,0,1.22,0c0-.55,0-1-.07-1.46a3.43,3.43,0,0,0-.19-.9,6.65,6.65,0,0,1,1.42.15c.12,0,.18.09.18.18a.44.44,0,0,1-.08.22,1.36,1.36,0,0,0-.05.46v1.22c.47-.07.95-.14,1.41-.24.13,0,.19,0,.2.1,0,.28.07.54.09.83s0,.19-.14.2c-.53.1-1,.17-1.52.22v1.69a5.74,5.74,0,0,1-.48,2.55,3.87,3.87,0,0,1-1.57,1.71.49.49,0,0,1-.27.1.23.23,0,0,1-.22-.1,3.62,3.62,0,0,0-.86-.54,3.57,3.57,0,0,0,1.86-1.83,6.08,6.08,0,0,0,.34-2.45Zm1.94-3.91a.12.12,0,0,1,.15,0,5.16,5.16,0,0,1,.85,1.33c0,.08,0,.12-.07.17l-.45.23c-.09,0-.14,0-.19-.07a5.24,5.24,0,0,0-.89-1.43Zm1-.46c.07,0,.1,0,.15,0a4.64,4.64,0,0,1,.85,1.29.12.12,0,0,1-.07.19l-.44.22c-.1,0-.14,0-.18-.05a5.28,5.28,0,0,0-.89-1.43Z"/><path class="cls-1" d="M157.86,230.46a3.3,3.3,0,0,1,1.75-.5,2.55,2.55,0,0,1,2.73,2.64c0,1.84-1.49,3-3.84,3-1.39,0-2.22-.59-2.22-1.62a1.46,1.46,0,0,1,1.55-1.34,2,2,0,0,1,2.07,1.61,1.66,1.66,0,0,0,1.12-1.67,1.61,1.61,0,0,0-1.73-1.66,4.48,4.48,0,0,0-2.82,1.17c-.32.29-.63.61-1,.94-.08.08-.13.12-.19.12a.27.27,0,0,1-.17-.1,4.88,4.88,0,0,1-.65-.71c-.07-.09,0-.17.06-.25a26.55,26.55,0,0,0,2.61-2.43c.68-.7,1.2-1.25,1.71-1.88l-2.12.42a3.51,3.51,0,0,0-.46.13.79.79,0,0,1-.22.06.25.25,0,0,1-.24-.19,5.29,5.29,0,0,1-.39-1.19,5.35,5.35,0,0,0,1,0c.67-.07,1.64-.21,2.5-.37a3,3,0,0,0,.61-.17.56.56,0,0,1,.21-.09.39.39,0,0,1,.25.09,4.14,4.14,0,0,1,.74.7.38.38,0,0,1,.12.26.29.29,0,0,1-.19.26,1.78,1.78,0,0,0-.48.35c-.8.78-1.54,1.55-2.38,2.35Zm0,3.13c-.32,0-.53.19-.53.42s.3.57,1,.57a2.4,2.4,0,0,0,.51,0C158.66,233.93,158.33,233.59,157.87,233.59Z"/><path class="cls-1" d="M166.68,236.15v-.6h2.79v-9h.66v9.6Z"/><path class="cls-1" d="M182.65,229.65c0,.39,0,.92,0,1.32,0,.18,0,.19-.2.2s-.66,0-1,0c-.14,0-.21,0-.21-.12,0-.44.06-.94.06-1.4v-1c0-.64,0-1,0-1.43,0-.07.05-.11.14-.11.48,0,1.18,0,1.84,0H187a1.15,1.15,0,0,0,.67-.12.24.24,0,0,1,.14-.07.36.36,0,0,1,.21.1,5,5,0,0,1,.81.73.3.3,0,0,1,.08.2.31.31,0,0,1-.1.21,1.77,1.77,0,0,0-.27.65,15.1,15.1,0,0,1-1.34,3.4,10.87,10.87,0,0,1-2.46,3,.36.36,0,0,1-.26.12.36.36,0,0,1-.22-.08,3.25,3.25,0,0,0-1.06-.42,9.41,9.41,0,0,0,2.78-3.18,11.8,11.8,0,0,0,1.27-3.4h-4.58Z"/><path class="cls-1" d="M195.83,231.67a8.8,8.8,0,0,0-1.62.13c-.13,0-.22-.07-.25-.23a11.92,11.92,0,0,1-.17-1.33,14.08,14.08,0,0,0,2.38.13h3.54c.84,0,1.68,0,2.53,0,.17,0,.2,0,.2.15a8.12,8.12,0,0,1,0,1c0,.13,0,.18-.2.17l-2.45,0Z"/><path class="cls-1" d="M213.34,228a1,1,0,0,0,.55-.13.22.22,0,0,1,.14,0,.31.31,0,0,1,.18.07,5,5,0,0,1,.75.59.36.36,0,0,1,.14.25.32.32,0,0,1-.13.23,1.31,1.31,0,0,0-.36.47,15.14,15.14,0,0,1-2.18,3.4,14,14,0,0,1-3.34,2.74.3.3,0,0,1-.18.06.39.39,0,0,1-.25-.12,2.89,2.89,0,0,0-1-.51,12.66,12.66,0,0,0,3.66-2.8,11.22,11.22,0,0,0,2-3.12l-2.66.08a15.34,15.34,0,0,1-2.08,2.26.34.34,0,0,1-.23.12.26.26,0,0,1-.17-.07,3,3,0,0,0-1.06-.47,13,13,0,0,0,3-3.27,4.71,4.71,0,0,0,.65-1.49,5.41,5.41,0,0,1,1.29.58.23.23,0,0,1,.11.19.22.22,0,0,1-.12.19,1.18,1.18,0,0,0-.27.3l-.36.55Z"/><path class="cls-1" d="M229.79,230.88a5.25,5.25,0,1,1-5.25-5.25A5.25,5.25,0,0,1,229.79,230.88Zm-6.34-1.44c.08-.79.47-1.21,1.09-1.21a.84.84,0,0,1,.92.91c0,.52-.23.9-1.18,1.77a8.53,8.53,0,0,0-2.16,2.46v.9h4.73v-1H223.5a8.12,8.12,0,0,1,1.8-1.8c1.14-.95,1.53-1.46,1.53-2.32,0-1.19-.95-1.88-2.31-1.88a2.19,2.19,0,0,0-2.33,1.94Z"/><rect class="cls-5" x="106.39" y="344.24" width="138.39" height="52.43"/><rect class="cls-4" x="106.39" y="399.57" width="138.39" height="79.59"/><path class="cls-1" d="M130.6,365v.6H127.8v9h-.66V365Z"/><path class="cls-1" d="M134.22,368.25c.08-.1.12-.11.22-.05a9.38,9.38,0,0,1,1.53,1.09c.07.08.07.11,0,.22l-.51.66c-.05.08-.09.11-.12.11s-.05,0-.1-.05a7.89,7.89,0,0,0-1.5-1.18c-.05,0-.08-.06-.08-.09s0-.07.07-.12Zm.07,5.33a16.74,16.74,0,0,0,1-2.48,4.38,4.38,0,0,0,.62.56c.17.13.23.18.23.27a.84.84,0,0,1-.07.25,18.38,18.38,0,0,1-1,2.33,1.79,1.79,0,0,0-.17.42.16.16,0,0,1-.15.14.42.42,0,0,1-.2-.07,7.07,7.07,0,0,1-.84-.61A4.75,4.75,0,0,0,134.28,373.58Zm.36-8.09c.09-.1.12-.1.22-.06a9.55,9.55,0,0,1,1.47,1.17c.08.07.09.1,0,.23l-.48.65c-.06.07-.08.1-.11.1s-.06,0-.1-.05a9.18,9.18,0,0,0-1.49-1.28c-.1-.07-.1-.08,0-.2Zm3.41,6.05c-1.08,0-1.45,0-1.52,0s-.12,0-.12-.13v-.75c0-.12,0-.13.12-.13s.44,0,1.52,0h1.27a7.11,7.11,0,0,0-.07-1.09c.41,0,.7,0,1.09.08.1,0,.17.07.17.12a.44.44,0,0,1-.08.22,1.38,1.38,0,0,0,0,.51v.17H142c1.09,0,1.46,0,1.53,0s.12,0,.12.13v.75c0,.12,0,.13-.12.13s-.44,0-1.53,0h-1.15a6.9,6.9,0,0,0,3,2,3,3,0,0,0-.44.76c-.08.2-.11.27-.19.27a.8.8,0,0,1-.25-.11,7.18,7.18,0,0,1-2.61-2.28c0,1.26.05,2.61.05,2.94,0,.1,0,.11-.12.11h-.87c-.11,0-.12,0-.12-.11,0-.33,0-1.61.05-2.89a7.1,7.1,0,0,1-2.49,2.29.59.59,0,0,1-.25.11c-.08,0-.12-.08-.22-.25a3,3,0,0,0-.49-.66,7.23,7.23,0,0,0,2.94-2.22Zm1.54-4.21c.11,0,.17.08.17.14a.23.23,0,0,1-.09.15,1.5,1.5,0,0,0-.17.42,3.14,3.14,0,0,1-2,2,1.13,1.13,0,0,1-.25.08c-.08,0-.12-.07-.23-.25a2.38,2.38,0,0,0-.53-.58c1.23-.32,1.76-.88,2-1.48a2.67,2.67,0,0,0,.13-.68A7.77,7.77,0,0,1,139.6,367.33Zm2.2-1.61c1.07,0,1.44,0,1.52,0s.12,0,.12.12,0,.22,0,.43v.33c0,.79,0,.92,0,1s0,.11-.12.11h-.83c-.12,0-.13,0-.13-.11v-.88h-4.62v1c0,.12,0,.13-.12.13h-.82c-.11,0-.12,0-.12-.13s0-.2,0-1v-.31c0-.32,0-.48,0-.55s0-.12.12-.12.44,0,1.51,0Zm-1.52,2.54a6.31,6.31,0,0,0-.07-1.19c.4,0,.7,0,1,.05.11,0,.18.07.18.12a.39.39,0,0,1-.07.2,1.2,1.2,0,0,0,0,.5v.43c0,.15,0,.28.07.32s.18.07.54.07.48,0,.57-.11.13-.25.14-.65a3.14,3.14,0,0,0,.68.29c.29.09.29.09.25.37a1.21,1.21,0,0,1-.38.81,2.28,2.28,0,0,1-1.36.24,2.6,2.6,0,0,1-1.22-.14c-.21-.11-.33-.26-.33-.69Z"/><path class="cls-1" d="M149.26,366.33c.13.05.19.11.19.21a.26.26,0,0,1-.07.15,2.66,2.66,0,0,0-.23.76,24.27,24.27,0,0,0-.54,4.32c0,.24,0,.8,0,1.19.24-.53.45-1,.75-1.64a3.32,3.32,0,0,0,.33.74c.07.1.09.14.09.2a.43.43,0,0,1-.07.19c-.12.31-.39.92-.58,1.47a1.86,1.86,0,0,0-.08.48,2.23,2.23,0,0,0,0,.23c0,.09,0,.13-.13.17a4.92,4.92,0,0,1-.77.2c-.15,0-.21-.05-.23-.13a9.83,9.83,0,0,1-.43-3.3,30.49,30.49,0,0,1,.4-4.08,8.57,8.57,0,0,0,.14-1.51A6.13,6.13,0,0,1,149.26,366.33Zm3.78,1.29c-.95.07-1.45.12-2.26.22,0-.4-.05-.69-.07-1,0-.1.07-.12.19-.13.92-.1,2.08-.18,2.77-.21l1.19,0c.19,0,.21.07.22.19a5.63,5.63,0,0,1,0,.75c0,.11,0,.15-.12.15l-.77,0c0,.47,0,1,0,1.5a12.61,12.61,0,0,0,1.46-.23c.1,0,.12,0,.13.1a7.07,7.07,0,0,1,.1.92c0,.08,0,.1-.12.12-.46.11-1.06.18-1.55.24,0,.75,0,1.38.08,2a7.31,7.31,0,0,1,1.87,1c.09.07.09.12,0,.22a6,6,0,0,1-.45.86c0,.06-.07.09-.1.09s-.07,0-.12-.08a6.6,6.6,0,0,0-1.27-.91c-.14,1-.73,1.41-1.91,1.41s-2-.61-2-1.49a1.63,1.63,0,0,1,1.84-1.53,4.66,4.66,0,0,1,.89.08c0-.56,0-.94,0-1.57a11.61,11.61,0,0,1-2.1,0c-.1,0-.13,0-.14-.13a9.92,9.92,0,0,1-.07-1,7.78,7.78,0,0,0,1.25.09c.34,0,.68,0,1,0Zm-.85,5.17c-.46,0-.76.21-.76.51s.3.5.78.5a1,1,0,0,0,.79-.28,1,1,0,0,0,.13-.57A2.83,2.83,0,0,0,152.2,372.79Zm3.1-7.33a.12.12,0,0,1,.15,0,5.16,5.16,0,0,1,.85,1.33c0,.08,0,.12-.07.17l-.43.21c-.09,0-.15,0-.19-.07a4.83,4.83,0,0,0-.89-1.43Zm1-.46c.07,0,.1,0,.15,0a4.65,4.65,0,0,1,.85,1.29.12.12,0,0,1-.07.19l-.44.22c-.1,0-.14,0-.18-.06a5.27,5.27,0,0,0-.89-1.43Z"/><path class="cls-1" d="M164.46,369.84a3.3,3.3,0,0,1,1.75-.5,2.55,2.55,0,0,1,2.73,2.64c0,1.84-1.49,3-3.84,3-1.39,0-2.22-.59-2.22-1.62a1.46,1.46,0,0,1,1.55-1.34,2,2,0,0,1,2.07,1.61,1.66,1.66,0,0,0,1.12-1.67,1.61,1.61,0,0,0-1.73-1.66,4.48,4.48,0,0,0-2.82,1.17c-.32.29-.63.61-1,.94-.08.08-.13.12-.19.12a.27.27,0,0,1-.17-.1,4.88,4.88,0,0,1-.65-.71c-.07-.09,0-.17.06-.25a26.55,26.55,0,0,0,2.61-2.43c.68-.7,1.2-1.25,1.71-1.88l-2.12.42a3.51,3.51,0,0,0-.46.13.79.79,0,0,1-.22.06.25.25,0,0,1-.24-.19,5.29,5.29,0,0,1-.39-1.19,5.35,5.35,0,0,0,1,0c.67-.07,1.64-.21,2.5-.37a3,3,0,0,0,.61-.17.56.56,0,0,1,.21-.09.39.39,0,0,1,.25.09,4.14,4.14,0,0,1,.74.7.38.38,0,0,1,.12.26.29.29,0,0,1-.19.26,1.78,1.78,0,0,0-.48.35c-.8.78-1.54,1.55-2.38,2.35Zm0,3.13c-.32,0-.53.19-.53.42s.3.57,1,.57a2.4,2.4,0,0,0,.51,0C165.26,373.31,164.93,373,164.47,373Z"/><path class="cls-1" d="M173.28,375.54v-.6h2.79v-9h.66v9.6Z"/><path class="cls-1" d="M189.25,369c0,.39,0,.92,0,1.32,0,.18,0,.19-.2.2s-.66,0-1,0c-.14,0-.21,0-.21-.12,0-.44.06-.94.06-1.4v-1c0-.64,0-1,0-1.43,0-.07.05-.11.14-.11.48,0,1.18,0,1.84,0h3.71a1.15,1.15,0,0,0,.67-.12.24.24,0,0,1,.14-.07.36.36,0,0,1,.21.1,5,5,0,0,1,.81.73.3.3,0,0,1,.08.2.31.31,0,0,1-.1.21,1.77,1.77,0,0,0-.27.65,15.1,15.1,0,0,1-1.34,3.4,10.87,10.87,0,0,1-2.46,3,.36.36,0,0,1-.26.12.36.36,0,0,1-.22-.08,3.25,3.25,0,0,0-1.06-.42,9.41,9.41,0,0,0,2.78-3.18,11.8,11.8,0,0,0,1.27-3.4h-4.58Z"/><path class="cls-1" d="M202.43,371a8.8,8.8,0,0,0-1.62.13c-.13,0-.22-.07-.25-.23a11.92,11.92,0,0,1-.17-1.33,14.08,14.08,0,0,0,2.38.13h3.54c.84,0,1.68,0,2.53,0,.17,0,.2,0,.2.15a8.12,8.12,0,0,1,0,1c0,.13,0,.18-.2.17l-2.45,0Z"/><path class="cls-1" d="M219.94,367.37a1,1,0,0,0,.55-.13.22.22,0,0,1,.14,0,.31.31,0,0,1,.18.07,5,5,0,0,1,.75.59.36.36,0,0,1,.14.25.32.32,0,0,1-.13.23,1.31,1.31,0,0,0-.36.47,15.14,15.14,0,0,1-2.18,3.4,14,14,0,0,1-3.34,2.74.3.3,0,0,1-.18.06.39.39,0,0,1-.25-.12,2.89,2.89,0,0,0-1-.51,12.66,12.66,0,0,0,3.66-2.8,11.22,11.22,0,0,0,2-3.12l-2.66.08a15.34,15.34,0,0,1-2.08,2.26.34.34,0,0,1-.23.12.26.26,0,0,1-.17-.07,3,3,0,0,0-1.06-.47,13,13,0,0,0,3-3.27,4.71,4.71,0,0,0,.65-1.49,5.41,5.41,0,0,1,1.29.58.23.23,0,0,1,.11.19.22.22,0,0,1-.12.19,1.18,1.18,0,0,0-.27.3l-.36.55Z"/><path class="cls-1" d="M139.19,435.91c-.71,0-1.34,0-1.82.06-.14,0-.19-.07-.21-.22s-.08-.79-.1-1.11a19.38,19.38,0,0,0,2.11.08h3.93a1.06,1.06,0,0,0,.61-.11.31.31,0,0,1,.17,0,.53.53,0,0,1,.21.05,3.38,3.38,0,0,1,.8.73.27.27,0,0,1,.08.19.38.38,0,0,1-.15.28,1.32,1.32,0,0,0-.25.43,13,13,0,0,1-2.13,3.58,12.34,12.34,0,0,1-3.12,2.62.53.53,0,0,1-.3.1.39.39,0,0,1-.27-.12,3.25,3.25,0,0,0-1-.6,10.63,10.63,0,0,0,3.6-2.75,9.26,9.26,0,0,0,1.86-3.14Z"/><path class="cls-1" d="M151.57,435.42a7.54,7.54,0,0,0-.12-1.61,8.08,8.08,0,0,1,1.36.23c.13,0,.19.1.19.18a.46.46,0,0,1,0,.17,2.54,2.54,0,0,0-.12,1v2.22c0,.57,0,1,0,1.39,0,.17-.07.22-.24.22h-.88c-.15,0-.22-.05-.21-.19,0-.38,0-1,0-1.5Zm5.18,2.06a4.82,4.82,0,0,1-3.31,5.31.71.71,0,0,1-.23.05.36.36,0,0,1-.26-.13A3.54,3.54,0,0,0,152,442a5.38,5.38,0,0,0,2.68-1.61,4.53,4.53,0,0,0,.74-2.94v-2.08a8,8,0,0,0-.12-1.79,6.88,6.88,0,0,1,1.43.24.19.19,0,0,1,.15.19.35.35,0,0,1,0,.18,3.33,3.33,0,0,0-.1,1.2Z"/><path class="cls-1" d="M165.06,438.91a8.82,8.82,0,0,0-1.62.13c-.13,0-.22-.07-.25-.23a12,12,0,0,1-.17-1.33,14.09,14.09,0,0,0,2.38.13h3.54c.84,0,1.68,0,2.53,0,.17,0,.2,0,.2.15a8.31,8.31,0,0,1,0,1c0,.13,0,.18-.2.17l-2.45,0Z"/><path class="cls-1" d="M182.63,435a1.08,1.08,0,0,0,.61-.17.32.32,0,0,1,.19-.08.37.37,0,0,1,.2.09,3.54,3.54,0,0,1,.75.67.27.27,0,0,1,.09.2.28.28,0,0,1-.12.21,1.39,1.39,0,0,0-.33.42,17.18,17.18,0,0,1-1.62,2.66,9.8,9.8,0,0,1,1.19,1.11.22.22,0,0,1,.07.15.21.21,0,0,1-.07.14,6.73,6.73,0,0,1-.68.69.23.23,0,0,1-.13.05.19.19,0,0,1-.12-.07,12.06,12.06,0,0,0-1.07-1.07,13.42,13.42,0,0,1-3.51,2.75.61.61,0,0,1-.28.1.33.33,0,0,1-.21-.1,3.12,3.12,0,0,0-1-.56,13.36,13.36,0,0,0,4-3,9.1,9.1,0,0,0-1.58-1c.24-.26.47-.55.73-.78a.21.21,0,0,1,.14-.08.28.28,0,0,1,.11,0,11.05,11.05,0,0,1,1.42.88,10.55,10.55,0,0,0,1.29-2.18l-2.73.05a13.3,13.3,0,0,1-2.35,2.48.4.4,0,0,1-.22.1.25.25,0,0,1-.18-.08,4.64,4.64,0,0,0-.92-.51,12.27,12.27,0,0,0,3.11-3.45,4.07,4.07,0,0,0,.59-1.35,6.93,6.93,0,0,1,1.29.54.19.19,0,0,1,.12.18.3.3,0,0,1-.13.22.93.93,0,0,0-.23.23c-.09.15-.15.26-.34.55Z"/><path class="cls-1" d="M195,440.25c0,.76,0,1.41,0,2.29,0,.14,0,.19-.17.19a9,9,0,0,1-1.1,0c-.12,0-.17,0-.15-.18,0-.79,0-1.51,0-2.26v-2.56a19,19,0,0,1-3,2.11.32.32,0,0,1-.17,0,.31.31,0,0,1-.23-.11,4.11,4.11,0,0,0-.95-.65,18.64,18.64,0,0,0,5.81-4.55,3.18,3.18,0,0,0,.69-1.13,9.72,9.72,0,0,1,1.22.77.19.19,0,0,1,.09.16.31.31,0,0,1-.15.24,3.6,3.6,0,0,0-.66.61,17.3,17.3,0,0,1-1.29,1.39Z"/><path class="cls-1" d="M207.58,434.23c.08.05.13.11.13.18a.37.37,0,0,1-.11.22,3.52,3.52,0,0,0-.45.91c-.62,1.68-1.2,3.3-1.89,5,1.69-.14,2.62-.23,3.85-.42a10.94,10.94,0,0,0-1.22-1.76l1-.53c.12-.07.19,0,.26.07a15.49,15.49,0,0,1,2.22,3.6.27.27,0,0,1,0,.14c0,.07,0,.13-.14.19a5.55,5.55,0,0,1-.84.45.29.29,0,0,1-.13,0c-.07,0-.12-.05-.15-.15-.13-.31-.25-.59-.39-.88-1.76.26-3.43.45-5.23.64a3.71,3.71,0,0,0-1.29.26c-.14.07-.26,0-.32-.11a10.31,10.31,0,0,1-.38-1.42c.44,0,.9,0,1.34,0,.78-2,1.35-3.6,1.93-5.45a5.89,5.89,0,0,0,.32-1.51A6,6,0,0,1,207.58,434.23Z"/></g></g></svg>