<svg xmlns="http://www.w3.org/2000/svg" viewBox="0 0 399.5 647.69"><defs><style>.cls-1{fill:snow;}.cls-2{fill:#42260f;}.cls-3{fill:#fff3f0;}.cls-4{fill:none;stroke:#42260f;stroke-miterlimit:10;stroke-width:0.6px;stroke-dasharray:3 3.5;}</style></defs><title>アセット 137</title><g id="レイヤー_2" data-name="レイヤー 2"><g id="オブジェクト"><rect class="cls-1" x="104.4" y="545.48" width="295.1" height="93.6"/><path class="cls-2" d="M205.31,586.62c-1.16,0-2.19.06-3,.09-.23,0-.3-.11-.34-.36s-.12-1.29-.16-1.82a28.89,28.89,0,0,0,3.46.13h6.42a1.67,1.67,0,0,0,1-.18.54.54,0,0,1,.27-.07.75.75,0,0,1,.34.09,5.59,5.59,0,0,1,1.32,1.19.45.45,0,0,1,.12.3.61.61,0,0,1-.25.45,2.13,2.13,0,0,0-.41.7,21.21,21.21,0,0,1-3.49,5.86,20.5,20.5,0,0,1-5.11,4.28.89.89,0,0,1-.49.16.6.6,0,0,1-.45-.2,5.41,5.41,0,0,0-1.68-1,17.36,17.36,0,0,0,5.89-4.5,15.17,15.17,0,0,0,3-5.13Z"/><path class="cls-2" d="M221,585.83a12.59,12.59,0,0,0-.2-2.63,13.35,13.35,0,0,1,2.23.38c.22.06.3.16.3.29a.68.68,0,0,1-.07.27,4.16,4.16,0,0,0-.2,1.71v3.63c0,.94,0,1.64.06,2.27,0,.27-.11.36-.4.36h-1.44c-.25,0-.36-.09-.34-.3,0-.63.06-1.68.06-2.45Zm8.47,3.37c0,2.66-.39,4.44-1.45,5.86a9.37,9.37,0,0,1-4,2.83,1.28,1.28,0,0,1-.38.09.55.55,0,0,1-.43-.22,5.92,5.92,0,0,0-1.53-1.09,8.87,8.87,0,0,0,4.39-2.63c.83-1,1.2-2.52,1.2-4.81v-3.4a13.41,13.41,0,0,0-.19-2.93,11.86,11.86,0,0,1,2.34.39.31.31,0,0,1,.25.31.62.62,0,0,1-.07.29,5.13,5.13,0,0,0-.17,2Z"/><path class="cls-2" d="M238.69,591.54a14.9,14.9,0,0,0-2.65.21.39.39,0,0,1-.41-.37,19.55,19.55,0,0,1-.27-2.18,23.24,23.24,0,0,0,3.89.21H245c1.37,0,2.76,0,4.14,0,.27,0,.33,0,.33.25a15.88,15.88,0,0,1,0,1.69c0,.22-.08.29-.33.27l-4,0Z"/><path class="cls-2" d="M263.67,585.13a1.81,1.81,0,0,0,1-.27.56.56,0,0,1,.31-.13.61.61,0,0,1,.32.15,6,6,0,0,1,1.23,1.09.48.48,0,0,1,.14.33.45.45,0,0,1-.2.34,2.23,2.23,0,0,0-.54.68,28.26,28.26,0,0,1-2.64,4.36,15.62,15.62,0,0,1,1.94,1.82.36.36,0,0,1,.11.25.35.35,0,0,1-.11.23,10,10,0,0,1-1.12,1.14.39.39,0,0,1-.21.09.31.31,0,0,1-.2-.11,20.6,20.6,0,0,0-1.75-1.75,21.53,21.53,0,0,1-5.74,4.5,1,1,0,0,1-.45.17.55.55,0,0,1-.34-.17,5.16,5.16,0,0,0-1.71-.91,21.9,21.9,0,0,0,6.62-4.88,14.35,14.35,0,0,0-2.59-1.69c.4-.44.78-.9,1.19-1.28a.34.34,0,0,1,.23-.13.51.51,0,0,1,.18.07,19.22,19.22,0,0,1,2.33,1.44,17,17,0,0,0,2.1-3.56l-4.46.09a22.13,22.13,0,0,1-3.85,4,.67.67,0,0,1-.36.16.41.41,0,0,1-.29-.12,7.21,7.21,0,0,0-1.51-.83,20.13,20.13,0,0,0,5.09-5.65,6.48,6.48,0,0,0,1-2.22,12.54,12.54,0,0,1,2.11.88.35.35,0,0,1,.2.29.47.47,0,0,1-.22.36,1.71,1.71,0,0,0-.38.38c-.14.25-.25.43-.56.9Z"/><path class="cls-2" d="M279.39,593.73c0,1.24,0,2.31.05,3.75,0,.23-.07.3-.27.3a13.52,13.52,0,0,1-1.8,0c-.2,0-.27-.07-.25-.28,0-1.3.07-2.47.07-3.69v-4.2a31.4,31.4,0,0,1-4.95,3.46.54.54,0,0,1-.27.07.5.5,0,0,1-.38-.18A6.54,6.54,0,0,0,270,591.9a29,29,0,0,0,5.67-3.69,28.58,28.58,0,0,0,3.84-3.77,5.28,5.28,0,0,0,1.13-1.85,16.88,16.88,0,0,1,2,1.26.31.31,0,0,1,.14.27.51.51,0,0,1-.25.4,6,6,0,0,0-1.08,1,28.73,28.73,0,0,1-2.1,2.26Z"/><path class="cls-2" d="M294.27,583.89c.13.09.22.18.22.29a.64.64,0,0,1-.18.35,5.83,5.83,0,0,0-.74,1.5c-1,2.75-2,5.4-3.1,8.1,2.78-.24,4.29-.38,6.3-.69a18.54,18.54,0,0,0-2-2.88c.54-.28,1.06-.59,1.56-.86.2-.11.31,0,.43.11a25.23,25.23,0,0,1,3.64,5.88.49.49,0,0,1,.07.24c0,.11-.07.21-.23.3a8.19,8.19,0,0,1-1.37.74.43.43,0,0,1-.22.06c-.1,0-.19-.09-.25-.26-.21-.5-.41-1-.63-1.43-2.88.43-5.61.73-8.55,1a6.25,6.25,0,0,0-2.1.43c-.24.11-.44.07-.53-.18a18.71,18.71,0,0,1-.63-2.32c.72.05,1.48,0,2.2,0,1.28-3.23,2.21-5.89,3.15-8.91a9.41,9.41,0,0,0,.52-2.47A9.6,9.6,0,0,1,294.27,583.89Z"/><rect class="cls-1" x="104.4" y="358.77" width="295.1" height="46.8"/><path class="cls-2" d="M240.29,374.29c1.3,0,1.69,0,1.8,0s.23,0,.23.21a10.38,10.38,0,0,0,.11,2,14.08,14.08,0,0,0,7,11.12,5.66,5.66,0,0,0-1.06,1.37c-.14.29-.21.42-.32.42s-.22-.09-.42-.24a15.47,15.47,0,0,1-6.17-8.93,15.19,15.19,0,0,1-6.62,9c-.22.12-.33.21-.42.21s-.2-.14-.38-.43a4.27,4.27,0,0,0-1.06-1.19c4.47-2.19,7-6.49,7.24-11.64H238c-1.3,0-1.7,0-1.8,0s-.22,0-.22-.19v-1.52c0-.18,0-.19.22-.19s.5,0,1.8,0Z"/><path class="cls-2" d="M253.63,378.22c.16-.2.21-.22.37-.13a15,15,0,0,1,2.62,1.87c.07.07.12.13.12.18s0,.11-.11.2l-.82,1.1c-.15.2-.2.23-.35.09a12.47,12.47,0,0,0-2.59-2c-.09-.05-.12-.11-.12-.14s0-.09.08-.16Zm.12,8.91a28.38,28.38,0,0,0,1.6-4.31,9.85,9.85,0,0,0,1,.92c.45.33.45.33.31.87a27.13,27.13,0,0,1-1.53,4,2.91,2.91,0,0,0-.26.72.23.23,0,0,1-.21.25.73.73,0,0,1-.34-.13,13,13,0,0,1-1.44-1A7.78,7.78,0,0,0,253.75,387.13Zm.56-13.47c.15-.18.22-.16.38-.09a15.44,15.44,0,0,1,2.5,2c.07.08.11.11.11.15s0,.11-.11.21l-.81,1.1c-.16.22-.2.22-.34.09A12.39,12.39,0,0,0,253.5,375c-.16-.11-.16-.13,0-.33ZM258,383.89a1.38,1.38,0,0,1-.4.21c-.12,0-.18-.14-.32-.43a3.19,3.19,0,0,0-.79-1.06,14.28,14.28,0,0,0,5-4.72,4.52,4.52,0,0,0,.63-1.33c.58.09,1.26.25,1.75.38.14.05.22.12.22.21a.2.2,0,0,1-.15.22l-.07.05a14.18,14.18,0,0,0,5.74,4.81,4.32,4.32,0,0,0-.7,1.39c-.09.28-.14.41-.29.41a.91.91,0,0,1-.41-.2c-.36-.23-.7-.45-1-.68v3.06c0,2.63,0,3.11,0,3.22s0,.18-.22.18h-1.47c-.19,0-.2,0-.2-.18v-.68h-4.65v.77c0,.16,0,.18-.19.18h-1.5c-.18,0-.2,0-.2-.18s0-.61,0-3.24V384.7c0-.58,0-1,0-1.34Zm3.85-9.44c.14.09.18.17.18.26s-.07.21-.22.27a1.36,1.36,0,0,0-.48.5,13.17,13.17,0,0,1-2.83,2.93c-.2.17-.32.24-.41.24s-.2-.11-.36-.38a3.54,3.54,0,0,0-.87-1,11.09,11.09,0,0,0,2.88-2.7,5.18,5.18,0,0,0,.54-1A11.68,11.68,0,0,1,261.8,374.45Zm4.19,7.87a14.64,14.64,0,0,1-3.13-3.38,16,16,0,0,1-2.84,3.38Zm-5.4,4.75h4.65V384h-4.65ZM265,373.72a.46.46,0,0,1,.18-.09c.06,0,.09,0,.17.1a10.69,10.69,0,0,0,3.63,3.15,6.19,6.19,0,0,0-.72,1.26c-.12.31-.18.44-.3.44a1.22,1.22,0,0,1-.46-.2,13,13,0,0,1-3.65-3.66c-.09-.16-.05-.18.13-.3Z"/><rect class="cls-3" x="104.4" y="312.08" width="295.1" height="46.68"/><path class="cls-2" d="M240,331.34a19.66,19.66,0,0,1-4.45,4.55c-.2.15-.32.22-.41.22s-.2-.13-.36-.36a4,4,0,0,0-1.07-1.1,16.17,16.17,0,0,0,5.78-6.3,5.1,5.1,0,0,0,.47-1.33,14.83,14.83,0,0,1,1.94.38c.2.05.29.16.29.28a.44.44,0,0,1-.2.31,1.73,1.73,0,0,0-.43.67l-.48.93H246a1.33,1.33,0,0,0,.47,0,1.06,1.06,0,0,1,.38-.11c.16,0,.3.11.77.56s.56.59.56.72a.48.48,0,0,1-.18.32,2.35,2.35,0,0,0-.47.85,19.28,19.28,0,0,1-3.62,6.23,20.8,20.8,0,0,1-7.29,5,1.53,1.53,0,0,1-.39.12c-.15,0-.22-.11-.42-.41a5.45,5.45,0,0,0-1.13-1.21,19.29,19.29,0,0,0,7-4.1,21.3,21.3,0,0,0-3-2.49c-.09-.05-.13-.09-.13-.14a.37.37,0,0,1,.13-.22l1-1c.15-.16.18-.18.34-.07a20.17,20.17,0,0,1,3.08,2.41,18.38,18.38,0,0,0,2.61-4.73Z"/><path class="cls-2" d="M255.75,334.38c0-.88,0-1.51,0-1.91a17.63,17.63,0,0,1-1.87.83,1.76,1.76,0,0,1-.41.13c-.15,0-.2-.13-.35-.47a3.43,3.43,0,0,0-.71-1.17,15.42,15.42,0,0,0,6.87-4.16,4,4,0,0,0,.74-1,12.08,12.08,0,0,1,1.89.34c.16,0,.31.11.31.2s-.06.14-.18.21l-.06,0a17,17,0,0,0,7.63,4.14,4.36,4.36,0,0,0-.68,1.26c-.13.34-.18.47-.33.47a1.48,1.48,0,0,1-.43-.11,17.21,17.21,0,0,1-2.16-.9c0,.27,0,.74,0,1.49v2.34c0,.56,0,1,0,1.24.53.31,1,.58,1.37.87.13.09.22.18.22.29s-.11.19-.27.23a1.92,1.92,0,0,0-.58.32c-.61.45-1.21.9-2.09,1.46a20.89,20.89,0,0,0,4.45,1.12,4.59,4.59,0,0,0-.68,1.26c-.2.5-.22.54-.78.39a13.92,13.92,0,0,1-6.08-2.75,5,5,0,0,0-.09.79c0,.6,0,.6-.58.7-2.19.45-4.34.85-6,1.1a2.62,2.62,0,0,0-.7.22.57.57,0,0,1-.31.11c-.09,0-.16-.09-.22-.27-.12-.49-.25-1.16-.34-1.75.78,0,1.28-.07,1.93-.14l.5,0Zm4.25-2.59v-.15a8.87,8.87,0,0,0-.13-1.69c.67,0,1.17.06,1.82.13.18,0,.27.11.27.2a.53.53,0,0,1-.11.36c-.09.14-.1.32-.1.79v.36h1.52c.85,0,1.45,0,1.86,0a15.74,15.74,0,0,1-4.21-3.33,17,17,0,0,1-4,3.35Zm-2.4,1.38v1h6.59v-1Zm6.59,2.36H257.6v1.1h6.59ZM257.6,341c1.19-.18,2.42-.4,3.77-.67a9.33,9.33,0,0,1-1.8-2.3h-2Zm3.91-3a6.05,6.05,0,0,0,1.6,1.63,16.22,16.22,0,0,0,2.18-1.62h-3.78Z"/><rect class="cls-3" x="104.4" y="125.43" width="295.1" height="46.62"/><path class="cls-2" d="M205.46,147.72a14.66,14.66,0,0,1-2.54,2.77,20,20,0,0,1-3.4,2.52.74.74,0,0,1-.42.16.37.37,0,0,1-.3-.18,4.08,4.08,0,0,0-1.48-1.06,21.41,21.41,0,0,0,4.2-2.84,17.51,17.51,0,0,0,2.64-2.79l-3.15,0c-.93,0-1.94,0-2.88.09-.16,0-.23-.11-.25-.31a15.23,15.23,0,0,1-.14-1.75c1.08.08,2.14.09,3.22.09h4.28l-.07-1.6a9.25,9.25,0,0,0-.29-2.12,14.73,14.73,0,0,1,2.27.2c.18,0,.23.1.23.21a.89.89,0,0,1-.07.27,5.5,5.5,0,0,0-.07,1.66l0,1.37h1.57c1.26,0,2.16,0,3.49-.09.18,0,.27.09.27.21,0,.51,0,1.06,0,1.57a.23.23,0,0,1-.25.25c-1.31-.05-2.34-.09-3.45-.09h-1.46l.32,6.77a1.91,1.91,0,0,1-.86,1.91,5.56,5.56,0,0,1-2.49.63c-.34,0-.47-.08-.55-.31a3.63,3.63,0,0,0-1.27-1.6,13.59,13.59,0,0,0,2.54-.18c.42-.09.56-.27.52-1.06Z"/><path class="cls-2" d="M219.86,149.43a14.24,14.24,0,0,0-2.65.22c-.21,0-.36-.11-.41-.38a19.24,19.24,0,0,1-.27-2.18,23.07,23.07,0,0,0,3.89.22h5.79c1.37,0,2.76,0,4.14-.06.27,0,.33,0,.33.25a16.07,16.07,0,0,1,0,1.7c0,.21-.08.28-.33.27-1.35,0-2.68,0-4,0Z"/><path class="cls-2" d="M238.51,144.75c-1.17,0-2.2.05-3,.09-.24,0-.31-.11-.34-.36s-.13-1.3-.17-1.82a31.35,31.35,0,0,0,3.46.13h6.43a1.77,1.77,0,0,0,1-.18.55.55,0,0,1,.3-.11.43.43,0,0,1,.31.13,6.2,6.2,0,0,1,1.22,1.24.6.6,0,0,1,.15.36.52.52,0,0,1-.18.34,2,2,0,0,0-.42.7,21,21,0,0,1-3.49,5.85,20.16,20.16,0,0,1-5.11,4.29,1,1,0,0,1-.49.16.67.67,0,0,1-.45-.2,5.28,5.28,0,0,0-1.67-1,17.22,17.22,0,0,0,5.88-4.5,15,15,0,0,0,3-5.13ZM251,141.29a1.95,1.95,0,0,1-3.89,0,1.89,1.89,0,0,1,1.94-1.92A1.92,1.92,0,0,1,251,141.29Zm-3,0a1.06,1.06,0,1,0,1.06-1.06A1,1,0,0,0,247.94,141.29Z"/><path class="cls-2" d="M256.63,153.19c-1.17,0-2.35,0-3.24.09-.18,0-.23-.11-.27-.34-.07-.41-.1-1-.16-2,1.3.09,2.59.11,3.73.11h6.55c2,0,3.22-.06,4.05-.09.23,0,.29.09.29.32a13.71,13.71,0,0,1,0,1.57c0,.27,0,.38-.27.38-.87,0-2.72-.06-3.94-.06Zm1.66-7.65c-1.13,0-1.93,0-2.75.07-.18,0-.24-.1-.26-.37a12.24,12.24,0,0,1-.1-1.91c1.13.09,2,.11,3.06.11h3.56c1.39,0,2.47-.06,3.24-.09.14,0,.2.09.2.3a14.23,14.23,0,0,1,0,1.6c0,.26-.06.35-.24.35-.84,0-2-.06-3.15-.06Z"/><path class="cls-2" d="M272.91,142.37a.33.33,0,0,1,.25-.14.52.52,0,0,1,.23.09,18.7,18.7,0,0,1,3.44,2.56c.11.1.16.18.16.25a.35.35,0,0,1-.11.23c-.27.36-.86,1.08-1.11,1.35-.09.09-.15.15-.22.15s-.14-.06-.23-.15a19.36,19.36,0,0,0-3.67-2.93C272,143.29,272.56,142.73,272.91,142.37Zm1.56,9.49a26.4,26.4,0,0,0,5.19-3.35,27.2,27.2,0,0,0,4.93-4.89,8.2,8.2,0,0,0,.5,2.1.82.82,0,0,1,.09.34c0,.17-.09.31-.29.54a28.86,28.86,0,0,1-4.14,3.82,38.35,38.35,0,0,1-5.43,3.53,5.59,5.59,0,0,0-1.21.83.53.53,0,0,1-.32.18.51.51,0,0,1-.31-.2,12.46,12.46,0,0,1-1.44-2A10.46,10.46,0,0,0,274.47,151.86Z"/><path class="cls-2" d="M299,143.58a1.62,1.62,0,0,0,.9-.22.42.42,0,0,1,.24-.07.55.55,0,0,1,.29.11,8.53,8.53,0,0,1,1.22,1,.6.6,0,0,1,.23.42.51.51,0,0,1-.21.37,2.29,2.29,0,0,0-.6.78,24.45,24.45,0,0,1-3.56,5.56,22.83,22.83,0,0,1-5.47,4.48.51.51,0,0,1-.29.09.61.61,0,0,1-.41-.2,4.62,4.62,0,0,0-1.71-.82,21,21,0,0,0,6-4.59,18.43,18.43,0,0,0,3.33-5.12l-4.36.13a24.64,24.64,0,0,1-3.4,3.69.53.53,0,0,1-.38.2.45.45,0,0,1-.27-.11,4.82,4.82,0,0,0-1.72-.77,21.53,21.53,0,0,0,4.84-5.35,7.88,7.88,0,0,0,1.06-2.43,9.28,9.28,0,0,1,2.11,1,.39.39,0,0,1,.18.31.37.37,0,0,1-.2.31,1.73,1.73,0,0,0-.45.48c-.2.31-.38.58-.6.9Zm2.24-2.43c.09-.07.16-.05.27,0a8.62,8.62,0,0,1,1.71,1.92.18.18,0,0,1-.06.29l-.75.56a.19.19,0,0,1-.31-.06,9,9,0,0,0-1.82-2.08Zm1.6-1.17c.11-.07.16,0,.27,0a7.63,7.63,0,0,1,1.71,1.85.2.2,0,0,1-.06.32l-.72.56a.18.18,0,0,1-.3-.05,8.41,8.41,0,0,0-1.8-2.07Z"/><rect class="cls-3" x="104.4" y="405.57" width="295.1" height="139.92"/><path class="cls-2" d="M199.26,470.45c.12-.16.2-.18.36-.09a15.11,15.11,0,0,1,2.5,1.78c.11.12.11.18,0,.36l-.83,1.08c-.09.13-.14.18-.2.18s-.09,0-.16-.09a12.39,12.39,0,0,0-2.45-1.93c-.09-.05-.12-.09-.12-.14a.33.33,0,0,1,.11-.2Zm.11,8.71a28.2,28.2,0,0,0,1.71-4.05,6.82,6.82,0,0,0,1,.92c.27.21.38.29.38.45a1.18,1.18,0,0,1-.11.41,29.43,29.43,0,0,1-1.67,3.82,3.35,3.35,0,0,0-.27.68c0,.15-.13.24-.25.24a.75.75,0,0,1-.33-.11,12.9,12.9,0,0,1-1.36-1A8.72,8.72,0,0,0,199.37,479.16Zm.59-13.23c.14-.16.2-.16.36-.09a15.06,15.06,0,0,1,2.41,1.91c.13.11.15.16,0,.38l-.79,1.06c-.09.11-.12.16-.18.16s-.09,0-.16-.09a15.83,15.83,0,0,0-2.43-2.09c-.16-.11-.16-.12,0-.32Zm5.58,9.9c-1.76,0-2.38,0-2.48,0s-.2,0-.2-.22v-1.22c0-.2,0-.22.2-.22s.72,0,2.48,0h2.07a11.63,11.63,0,0,0-.11-1.79c.67,0,1.15.06,1.78.13.17,0,.27.11.27.2a.77.77,0,0,1-.12.36,2.28,2.28,0,0,0-.07.82v.28h2.57c1.78,0,2.39,0,2.5,0s.2,0,.2.22v1.22c0,.2,0,.22-.2.22s-.72,0-2.5,0H210a11.34,11.34,0,0,0,5,3.35,4.74,4.74,0,0,0-.72,1.24c-.13.32-.18.45-.31.45a1.2,1.2,0,0,1-.41-.18A11.77,11.77,0,0,1,209.3,477c0,2.07.09,4.27.09,4.81,0,.16,0,.18-.2.18h-1.42c-.18,0-.2,0-.2-.18,0-.54.08-2.63.09-4.73a11.68,11.68,0,0,1-4.06,3.74,1,1,0,0,1-.42.18c-.12,0-.2-.13-.36-.41a4.9,4.9,0,0,0-.81-1.08,11.9,11.9,0,0,0,4.81-3.64Zm2.52-6.9c.18.06.27.13.27.24a.36.36,0,0,1-.14.25,2.36,2.36,0,0,0-.27.69,5.18,5.18,0,0,1-3.26,3.2,1.9,1.9,0,0,1-.42.12c-.12,0-.19-.1-.37-.41a4,4,0,0,0-.87-.95c2-.52,2.88-1.44,3.21-2.43a4.94,4.94,0,0,0,.21-1.12A13.89,13.89,0,0,1,208.06,468.93Zm3.6-2.62c1.75,0,2.36,0,2.48,0s.2,0,.2.2,0,.36,0,.7v.54c0,1.3,0,1.51,0,1.62s0,.18-.2.18h-1.35c-.19,0-.21,0-.21-.18v-1.44H205v1.69c0,.2,0,.22-.2.22h-1.35c-.18,0-.2,0-.2-.22s0-.32,0-1.71v-.5c0-.52,0-.79,0-.9s0-.2.2-.2.72,0,2.47,0Zm-2.48,4.16a10.2,10.2,0,0,0-.11-2c.65,0,1.15,0,1.71.09.18,0,.29.11.29.2a.64.64,0,0,1-.11.32,2.07,2.07,0,0,0-.07.81v.71c0,.25,0,.45.1.52s.29.11.89.11.79-.06.93-.18.22-.42.24-1.07a5.08,5.08,0,0,0,1.11.47c.47.15.47.15.42.61a2,2,0,0,1-.63,1.34,3.82,3.82,0,0,1-2.24.39,4.29,4.29,0,0,1-2-.23c-.35-.18-.54-.43-.54-1.14Z"/><path class="cls-2" d="M222.3,467.3c.21.09.3.18.3.34a.42.42,0,0,1-.1.25,4.24,4.24,0,0,0-.38,1.24,39.17,39.17,0,0,0-.88,7.08c0,.39,0,1.31,0,1.94.4-.86.74-1.58,1.23-2.68a5.31,5.31,0,0,0,.54,1.21.54.54,0,0,1,.14.32.64.64,0,0,1-.11.31c-.19.5-.63,1.51-1,2.41a3.11,3.11,0,0,0-.13.79,3.24,3.24,0,0,0,0,.38c0,.14,0,.21-.21.27a8,8,0,0,1-1.26.32c-.26,0-.35-.09-.38-.22a15.87,15.87,0,0,1-.7-5.39,50.8,50.8,0,0,1,.64-6.68,14,14,0,0,0,.24-2.47A10.14,10.14,0,0,1,222.3,467.3Zm6.19,2.1c-1.55.11-2.38.2-3.69.36-.05-.64-.09-1.13-.11-1.67,0-.16.11-.2.31-.22,1.51-.16,3.4-.28,4.53-.34.74,0,1.55-.07,1.95-.07s.34.11.36.3a10.15,10.15,0,0,1,0,1.23c0,.18-.07.25-.19.25-.38,0-.8,0-1.26.06,0,.77,0,1.63-.06,2.44a21,21,0,0,0,2.4-.37c.16,0,.19,0,.21.16a10.45,10.45,0,0,1,.16,1.51c0,.13-.07.16-.19.2a25.41,25.41,0,0,1-2.54.39c0,1.23,0,2.25.12,3.3a11.85,11.85,0,0,1,3.06,1.71c.15.11.15.2.08.36a10.7,10.7,0,0,1-.74,1.4c-.06.09-.11.15-.16.15s-.11-.06-.2-.13a10.83,10.83,0,0,0-2.07-1.49c-.24,1.56-1.19,2.3-3.13,2.3s-3.23-1-3.23-2.43,1.26-2.5,3-2.5a7.71,7.71,0,0,1,1.46.12c0-.91-.06-1.53-.07-2.57a18.73,18.73,0,0,1-3.44-.07c-.16,0-.22-.07-.24-.22,0-.47-.1-1.15-.1-1.64a12.52,12.52,0,0,0,2.05.15c.56,0,1.11,0,1.69-.07Zm-1.39,8.46c-.75,0-1.24.35-1.24.83s.49.81,1.28.81a1.67,1.67,0,0,0,1.3-.45,1.57,1.57,0,0,0,.21-.93A4.43,4.43,0,0,0,227.1,477.86Zm5.08-12a.18.18,0,0,1,.25.07,8.27,8.27,0,0,1,1.39,2.18c.05.12,0,.19-.11.27l-.7.34c-.15.07-.25.05-.31-.11a7.8,7.8,0,0,0-1.46-2.34Zm1.62-.76c.11-.05.16,0,.25.07a7.48,7.48,0,0,1,1.39,2.11.2.2,0,0,1-.11.3l-.72.36c-.16.08-.23,0-.29-.09a8.72,8.72,0,0,0-1.46-2.34Z"/><path class="cls-2" d="M243.63,473a5.37,5.37,0,0,1,2.86-.81,4.17,4.17,0,0,1,4.46,4.32c0,3-2.43,4.93-6.28,4.93-2.27,0-3.63-1-3.63-2.64a2.38,2.38,0,0,1,2.53-2.2,3.28,3.28,0,0,1,3.39,2.63,2.71,2.71,0,0,0,1.83-2.74,2.63,2.63,0,0,0-2.82-2.72,7.34,7.34,0,0,0-4.61,1.91c-.52.47-1,1-1.57,1.53-.12.13-.21.2-.3.2a.44.44,0,0,1-.27-.16,7.73,7.73,0,0,1-1.06-1.17c-.11-.15-.06-.27.09-.42a42.38,42.38,0,0,0,4.26-4c1.12-1.15,2-2.05,2.79-3.07-1.08.2-2.36.45-3.47.68a6.1,6.1,0,0,0-.76.22,1.58,1.58,0,0,1-.36.09c-.18,0-.3-.09-.39-.31a8.3,8.3,0,0,1-.63-1.94,8.48,8.48,0,0,0,1.67,0c1.1-.1,2.68-.34,4.09-.61a4.78,4.78,0,0,0,1-.27,1,1,0,0,1,.34-.14.62.62,0,0,1,.41.14,7.56,7.56,0,0,1,1.21,1.15.67.67,0,0,1,.2.44.47.47,0,0,1-.31.43,2.82,2.82,0,0,0-.79.57c-1.32,1.28-2.52,2.54-3.89,3.86Zm0,5.13c-.53,0-.87.3-.87.68,0,.56.49.94,1.57.94a4.28,4.28,0,0,0,.83-.07C244.94,478.73,244.4,478.17,243.65,478.17Z"/><path class="cls-2" d="M258.51,471.72c0,.64,0,1.52,0,2.17,0,.28,0,.3-.32.32-.51,0-1.08,0-1.59,0-.23,0-.34,0-.34-.2.06-.72.09-1.53.09-2.29V470c0-1,0-1.67-.07-2.34,0-.1.09-.18.23-.18.8,0,1.93.08,3,.08h6.07a1.91,1.91,0,0,0,1.09-.2.42.42,0,0,1,.24-.11.55.55,0,0,1,.34.16,7.68,7.68,0,0,1,1.33,1.19.51.51,0,0,1,.13.32.56.56,0,0,1-.16.35,2.77,2.77,0,0,0-.45,1.06,24.89,24.89,0,0,1-2.2,5.56,17.83,17.83,0,0,1-4,4.93.59.59,0,0,1-.43.2.57.57,0,0,1-.36-.13,5.39,5.39,0,0,0-1.73-.68,15.37,15.37,0,0,0,4.55-5.2,19.09,19.09,0,0,0,2.07-5.57h-7.49Z"/><path class="cls-2" d="M276.88,475a14.11,14.11,0,0,0-2.65.22c-.22,0-.36-.11-.42-.38a21.9,21.9,0,0,1-.27-2.18,23.07,23.07,0,0,0,3.89.22h5.8c1.37,0,2.75,0,4.14-.06.27,0,.32,0,.32.25a12.06,12.06,0,0,1,0,1.7c0,.21-.07.28-.32.27-1.35,0-2.68,0-4,0Z"/><path class="cls-2" d="M301.66,469a1.65,1.65,0,0,0,.9-.22.37.37,0,0,1,.23-.07.55.55,0,0,1,.29.11,8.63,8.63,0,0,1,1.23,1,.58.58,0,0,1,.23.41.51.51,0,0,1-.22.38,2.15,2.15,0,0,0-.59.78,25.39,25.39,0,0,1-3.56,5.56,22.91,22.91,0,0,1-5.48,4.48.46.46,0,0,1-.28.09.63.63,0,0,1-.42-.2,4.79,4.79,0,0,0-1.71-.83,20.65,20.65,0,0,0,6-4.59,18.22,18.22,0,0,0,3.33-5.11l-4.36.13a25.18,25.18,0,0,1-3.4,3.69.59.59,0,0,1-.38.2.45.45,0,0,1-.27-.11,4.88,4.88,0,0,0-1.73-.78,21.14,21.14,0,0,0,4.84-5.34,7.69,7.69,0,0,0,1.07-2.43,8.73,8.73,0,0,1,2.1.95.37.37,0,0,1,.18.31.34.34,0,0,1-.2.3,2.13,2.13,0,0,0-.45.49c-.19.31-.37.58-.59.9Z"/><rect class="cls-1" x="104.4" y="172.05" width="295.1" height="140.04"/><path class="cls-2" d="M201,239v-.63h-.47c-1.39,0-1.85,0-2,0s-.2,0-.2-.2,0-.4,0-1.15v-1.22c0-.77,0-1,0-1.17s0-.19.2-.19.59,0,2,0H201v-.64H200c-1.55,0-2.07,0-2.18,0s-.17,0-.17-.2v-.75c0-.2,0-.22.17-.22s.63,0,2.18,0H201a7.33,7.33,0,0,0-.09-1c.54,0,1.08.06,1.56.11.17,0,.24.07.24.16a.79.79,0,0,1-.07.22.86.86,0,0,0-.09.5h.84c1.55,0,2.05,0,2.16,0s.2,0,.2.22v.75c0,.18,0,.2-.2.2s-.61,0-2.16,0h-.84v.64H203c1.39,0,1.85,0,2,0s.2,0,.2.19,0,.4,0,1.17V237c0,.75,0,1,0,1.15s0,.2-.2.2-.57,0-2,0h-.52V239h.81c1.56,0,2.07,0,2.19,0s.2,0,.2.2v.81c0,.18,0,.2-.2.2s-.63,0-2.19,0h-.81c0,.36,0,.59,0,.65s0,.19-.21.19h-1.19c-.2,0-.22,0-.22-.19s0-.27,0-.65h-1c-1.57,0-2.09,0-2.18,0s-.2,0-.2-.2v-.81c0-.18,0-.2.2-.2s.61,0,2.18,0Zm2.23,6.93c.16.11.2.18.2.27s-.13.14-.27.22a3.57,3.57,0,0,0-.63.35,13.68,13.68,0,0,1-3,1.33,2,2,0,0,1-.43.11c-.16,0-.25-.11-.41-.41a3.92,3.92,0,0,0-.71-.9,13.22,13.22,0,0,0,3.19-1.08,3.27,3.27,0,0,0,.79-.64A8,8,0,0,1,203.19,245.9Zm7.2-3.7c.2-.11.23-.09.38,0a18,18,0,0,1,2.52,2.41c.13.16.13.19-.09.32l-1,.57a.46.46,0,0,1-.18.09c-.06,0-.09,0-.15-.12-.21-.29-.45-.58-.68-.86-1.55.14-3.13.23-4.75.32v1.51c0,1.18,0,1.54,0,1.63s0,.2-.19.2h-1.55c-.18,0-.2,0-.2-.2s0-.45,0-1.63V245c-1.7.07-3.39.12-5.12.16a2,2,0,0,0-.71.09.8.8,0,0,1-.33.09c-.09,0-.14-.09-.18-.22-.09-.39-.2-1-.25-1.49.74.06,1.31.06,1.85.06,1.08,0,2.22,0,3.33,0a15,15,0,0,0-2.43-1.49c-.11-.05-.16-.09-.16-.14s0-.11.14-.18l.81-.65c.2-.14.24-.14.4,0l1,.63a8.25,8.25,0,0,0,1.18-1,3.69,3.69,0,0,0,.49-.65,9.57,9.57,0,0,1,1.26.74c.16.11.27.18.27.29s-.07.18-.22.21a3.33,3.33,0,0,0-.54.32,12,12,0,0,1-1.2,1c.3.23.63.45.93.7.85-.65,1.54-1.21,2.27-1.87a4.37,4.37,0,0,0,.63-.7,11.66,11.66,0,0,1,1.37.68c.16.11.2.16.2.27s-.09.18-.24.22a1.66,1.66,0,0,0-.57.3,18.6,18.6,0,0,1-1.68,1.29c1,0,2-.09,2.94-.14l-.56-.5c-.16-.15-.13-.18.09-.29ZM201,236v-.67h-1.28V236Zm0,1.47v-.66h-1.28v.66Zm1.4-2.14V236h1.32v-.67Zm1.32,1.48h-1.32v.66h1.32Zm4.86-3.27a2.33,2.33,0,0,1-1.69,2.26,1.24,1.24,0,0,1-.42.14c-.14,0-.21-.1-.39-.41a2.12,2.12,0,0,0-.65-.65c1.21-.32,1.65-.73,1.67-1.79,0-.34,0-.56,0-.67s0-.19.19-.19.38,0,1.35,0h1.26c1,0,1.28,0,1.39,0s.22,0,.22.19,0,.35,0,.88v.79a.28.28,0,0,0,.11.27c.07.06.14.08.39.08s.35,0,.45-.18a2.86,2.86,0,0,0,.13-1.15,5.57,5.57,0,0,0,.9.37c.43.15.45.15.4.58-.09.84-.29,1.09-.53,1.26a2.78,2.78,0,0,1-1.47.3,5.19,5.19,0,0,1-1.44-.14c-.31-.13-.47-.38-.47-.86v-1.08Zm2.7,2.64a.66.66,0,0,0,.34-.06,1.14,1.14,0,0,1,.23,0c.13,0,.18,0,.58.39s.5.49.5.6a.28.28,0,0,1-.18.25,1.79,1.79,0,0,0-.57.52,10,10,0,0,1-1.53,1.47,12.6,12.6,0,0,0,3.38.81,3,3,0,0,0-.47.91c-.16.49-.16.51-.64.4a12.23,12.23,0,0,1-3.68-1.28,10.46,10.46,0,0,1-2.39.81c-.49.13-.49.09-.68-.34a4,4,0,0,0-.42-.72,12.49,12.49,0,0,0,2.32-.61,6.68,6.68,0,0,1-1.47-1.85l-.54,0c-.2,0-.22,0-.22-.18v-.93c0-.18,0-.2.22-.2s.58,0,2,0Zm-2.76,8.92c.17-.14.22-.13.38,0a14.66,14.66,0,0,0,4.21,1.57,3.57,3.57,0,0,0-.73,1c-.16.33-.26.43-.4.43a1.33,1.33,0,0,1-.43-.1,16.39,16.39,0,0,1-3.8-1.85c-.16-.11-.16-.15,0-.29Zm-.37-7.68a5.75,5.75,0,0,0,1.26,1.2,5.88,5.88,0,0,0,1.33-1.2Z"/><path class="cls-2" d="M222.59,234.57a12.21,12.21,0,0,0,.18-2,13.28,13.28,0,0,1,2.16.59.38.38,0,0,1,.29.36.37.37,0,0,1-.12.27,2.24,2.24,0,0,0-.36.68c-.24.74-.42,1.4-.65,2.16a12.25,12.25,0,0,1,1.44-.08c1.67,0,2.57,1.17,2.57,3.47a15.29,15.29,0,0,1-1,5.62,2.58,2.58,0,0,1-2.43,1.69,4.75,4.75,0,0,1-1.87-.27.49.49,0,0,1-.33-.51,4.88,4.88,0,0,0-.34-1.67,4.76,4.76,0,0,0,2.07.47c.6,0,.87-.21,1.15-1a13.77,13.77,0,0,0,.71-4.47c0-1.26-.24-1.65-1-1.65a12.19,12.19,0,0,0-1.51.12,49.79,49.79,0,0,1-3.62,8.44c-.11.24-.25.27-.47.16a8.25,8.25,0,0,1-1.24-.79.36.36,0,0,1-.14-.27.28.28,0,0,1,.07-.19,38,38,0,0,0,3.29-7l-1.76.3a5.12,5.12,0,0,0-1,.29.4.4,0,0,1-.58-.23,17.72,17.72,0,0,1-.56-1.85c.8,0,1.59-.06,2.38-.13s1.42-.16,2.12-.27C222.34,235.81,222.47,235.18,222.59,234.57Zm7.13,1.2c.13-.07.22,0,.34.09a11.86,11.86,0,0,1,3,4.37.26.26,0,0,1-.07.36,7.87,7.87,0,0,1-1.35.89c-.18.09-.36.08-.41-.14a12.07,12.07,0,0,0-3-4.65A17,17,0,0,1,229.72,235.77Zm.49-2.51c.09-.07.16,0,.27,0a8.38,8.38,0,0,1,1.71,1.92.18.18,0,0,1-.06.29l-.75.55a.19.19,0,0,1-.31-.05,8.56,8.56,0,0,0-1.82-2.08Zm1.6-1.17c.11-.07.16-.05.27,0a7.43,7.43,0,0,1,1.71,1.85.21.21,0,0,1,0,.32l-.72.56a.19.19,0,0,1-.31-.05,8.41,8.41,0,0,0-1.8-2.07Z"/><path class="cls-2" d="M242.92,239.35a5.35,5.35,0,0,1,2.86-.81,4.17,4.17,0,0,1,4.46,4.31c0,3-2.43,4.92-6.28,4.92-2.27,0-3.64-1-3.64-2.64a2.39,2.39,0,0,1,2.54-2.19,3.28,3.28,0,0,1,3.39,2.62,2.71,2.71,0,0,0,1.83-2.73,2.62,2.62,0,0,0-2.82-2.71,7.32,7.32,0,0,0-4.61,1.9c-.52.47-1,1-1.57,1.53-.12.12-.21.2-.3.2a.42.42,0,0,1-.27-.17,8.31,8.31,0,0,1-1.07-1.16c-.1-.15-.05-.27.09-.42a43.25,43.25,0,0,0,4.27-4c1.12-1.15,2-2,2.79-3.07-1.08.19-2.36.45-3.47.68a5.93,5.93,0,0,0-.76.21,1.19,1.19,0,0,1-.36.09.42.42,0,0,1-.4-.3,9.4,9.4,0,0,1-.63-1.94,9.43,9.43,0,0,0,1.68,0c1.1-.11,2.68-.35,4.08-.61a4.78,4.78,0,0,0,1-.27.88.88,0,0,1,.35-.15.64.64,0,0,1,.41.15,7.13,7.13,0,0,1,1.21,1.14.65.65,0,0,1,.19.44.46.46,0,0,1-.3.43,2.82,2.82,0,0,0-.79.57c-1.32,1.28-2.52,2.53-3.89,3.84Zm0,5.11c-.52,0-.86.31-.86.69,0,.55.49.93,1.57.93a4.18,4.18,0,0,0,.82-.07C244.23,245,243.69,244.46,242.93,244.46Z"/><path class="cls-2" d="M257.8,238c0,.62,0,1.5,0,2.15,0,.29,0,.31-.32.32-.51,0-1.08,0-1.59,0-.23,0-.34,0-.34-.19.05-.72.09-1.53.09-2.28v-1.69c0-1,0-1.67-.07-2.34,0-.1.09-.17.23-.17.8,0,1.93.07,3,.07h6.07a1.82,1.82,0,0,0,1.09-.2.42.42,0,0,1,.24-.11.67.67,0,0,1,.34.16A8.12,8.12,0,0,1,267.9,235a.49.49,0,0,1,.13.32.51.51,0,0,1-.16.34,2.68,2.68,0,0,0-.45,1.06,24.8,24.8,0,0,1-2.2,5.55,17.93,17.93,0,0,1-4,4.92.63.63,0,0,1-.44.2.56.56,0,0,1-.35-.13,5.39,5.39,0,0,0-1.73-.68,15.25,15.25,0,0,0,4.55-5.19,19.24,19.24,0,0,0,2.07-5.55H257.8Z"/><path class="cls-2" d="M276.16,241.32a14.06,14.06,0,0,0-2.64.22c-.22,0-.36-.11-.42-.38a21.62,21.62,0,0,1-.27-2.17,23.24,23.24,0,0,0,3.89.21h5.8c1.36,0,2.75,0,4.14,0,.27,0,.32,0,.32.25a11.92,11.92,0,0,1,0,1.69c0,.21-.07.29-.32.27-1.35,0-2.68,0-4,0Z"/><path class="cls-2" d="M301,235.33a1.65,1.65,0,0,0,.9-.22.37.37,0,0,1,.23-.07.48.48,0,0,1,.29.11,6.94,6.94,0,0,1,1.22,1,.55.55,0,0,1,.24.41.53.53,0,0,1-.22.38,2,2,0,0,0-.59.77,25,25,0,0,1-3.56,5.54A22.87,22.87,0,0,1,294,247.7a.46.46,0,0,1-.28.09.66.66,0,0,1-.42-.2,4.79,4.79,0,0,0-1.71-.83,20.63,20.63,0,0,0,6-4.58,18.31,18.31,0,0,0,3.33-5.1l-4.36.13a25.57,25.57,0,0,1-3.4,3.68.57.57,0,0,1-.38.2.45.45,0,0,1-.27-.11,4.87,4.87,0,0,0-1.73-.77,21.12,21.12,0,0,0,4.84-5.33,7.69,7.69,0,0,0,1.07-2.43,9.15,9.15,0,0,1,2.1,1,.37.37,0,0,1,.18.31.33.33,0,0,1-.2.3,2.13,2.13,0,0,0-.45.49c-.19.31-.38.57-.59.9Z"/><rect class="cls-1" x="104.4" y="78.63" width="295.1" height="46.8"/><rect class="cls-2" x="104.4" y="11.54" width="295.1" height="2"/><rect class="cls-2" x="104.4" y="5.91" width="295.1" height="3"/><path class="cls-2" d="M6.2,4.06a8.71,8.71,0,0,1,4.11,1,6.7,6.7,0,0,1,2.8,2.65,7.37,7.37,0,0,1,1,3.83,7.38,7.38,0,0,1-1,3.86A6.78,6.78,0,0,1,10.26,18,9.4,9.4,0,0,1,6,18.87H0V4.06ZM5.9,16.63a5.19,5.19,0,0,0,3.82-1.42,5.07,5.07,0,0,0,1.43-3.74A5,5,0,0,0,9.71,7.69,5.4,5.4,0,0,0,5.81,6.3H2.86V16.63Z"/><path class="cls-2" d="M28.63,4.06l6.54,14.81h-3l-1.54-3.6H24l-1.43,3.6h-3L25.7,4.06Zm-3.73,9h4.78l-2.5-5.86Z"/><path class="cls-2" d="M43.18,4.06l3.58,5,3.63-4.95h3.4l-5.6,7.48v7.33H45.33V11.51L39.7,4.06Z"/><path class="cls-2" d="M68.82,19.44V3.62l-4.55,4V3.91L68.82,0h3.33V19.44Z"/><path class="cls-2" d="M18.35,72.61,16,74.43V71.77L18.35,70h2.41V87.39H18.35Z"/><path class="cls-2" d="M26,85.05l6.6-8.52a3.36,3.36,0,0,0,.52-1,3.75,3.75,0,0,0,.09-.79,2.6,2.6,0,0,0-.59-1.71,2.22,2.22,0,0,0-1.74-.76,2.25,2.25,0,0,0-1.66.66,2.93,2.93,0,0,0-.82,1.86H26a5.39,5.39,0,0,1,1.41-3.59,4.48,4.48,0,0,1,3.28-1.41,4.76,4.76,0,0,1,3.53,1.43,5.15,5.15,0,0,1,.38,6.61l-5.43,7h6.45v2.48H26Z"/><path class="cls-2" d="M41.46,74.57h2.3v2.37h-2.3Zm0,5.3h2.3v2.37h-2.3Z"/><path class="cls-2" d="M48.84,74.84a4.72,4.72,0,0,1,1.49-3.71,4.64,4.64,0,0,1,3.29-1.29A4.71,4.71,0,0,1,57,71.13a4.92,4.92,0,0,1,1.45,3.71v7.68A4.92,4.92,0,0,1,57,86.22a4.77,4.77,0,0,1-3.34,1.31,4.78,4.78,0,0,1-4.78-5ZM56,75c0-1.74-.84-2.63-2.38-2.67s-2.35.93-2.38,2.67v7.39c0,1.76.83,2.65,2.38,2.67S56,84.14,56,82.38Z"/><path class="cls-2" d="M61.69,74.84a4.72,4.72,0,0,1,1.49-3.71,4.64,4.64,0,0,1,3.29-1.29,4.71,4.71,0,0,1,3.34,1.29,5,5,0,0,1,1.45,3.71v7.68a5,5,0,0,1-1.45,3.7,4.77,4.77,0,0,1-3.34,1.31,4.78,4.78,0,0,1-4.78-5Zm7.16.15c0-1.74-.84-2.63-2.38-2.67s-2.35.93-2.38,2.67v7.39c0,1.76.82,2.65,2.38,2.67s2.33-.91,2.38-2.67Z"/><path class="cls-2" d="M18.13,119.29l-2.4,1.82v-2.66l2.4-1.79h2.41v17.41H18.13Z"/><path class="cls-2" d="M29.19,124H30A2.57,2.57,0,0,0,32,123.3a2.41,2.41,0,0,0,.68-1.77,2.61,2.61,0,0,0-.71-1.82,2.49,2.49,0,0,0-1.76-.71,2.24,2.24,0,0,0-1.41.52,2.61,2.61,0,0,0-.9,1.6H25.43a5.15,5.15,0,0,1,1.51-3.26,4.35,4.35,0,0,1,3.13-1.34A4.75,4.75,0,0,1,33.72,118,5.12,5.12,0,0,1,35,121.47a5.34,5.34,0,0,1-.36,1.94,4.06,4.06,0,0,1-1.49,1.66,4.4,4.4,0,0,1,1.59,1.72,5,5,0,0,1,.47,2.1,5.26,5.26,0,0,1-1.47,3.86,5,5,0,0,1-3.65,1.46,4.58,4.58,0,0,1-3.06-1.14,5.56,5.56,0,0,1-1.72-3.31h2.42a3.62,3.62,0,0,0,.91,1.41,2.29,2.29,0,0,0,1.6.56,2.39,2.39,0,0,0,1.79-.75,2.74,2.74,0,0,0,.77-2,2.82,2.82,0,0,0-.77-2.06,2.54,2.54,0,0,0-1.85-.71h-1Z"/><path class="cls-2" d="M41.68,121.25H44v2.37h-2.3Zm0,5.3H44v2.37h-2.3Z"/><path class="cls-2" d="M49.06,121.52a4.72,4.72,0,0,1,1.49-3.71,4.9,4.9,0,0,1,6.63,0,4.92,4.92,0,0,1,1.45,3.71v7.68a4.92,4.92,0,0,1-1.45,3.7,4.81,4.81,0,0,1-8.12-3.69Zm7.16.15c0-1.74-.84-2.63-2.38-2.67s-2.34.93-2.37,2.67v7.39q0,2.64,2.37,2.67c1.54,0,2.34-.91,2.38-2.67Z"/><path class="cls-2" d="M61.91,121.52a4.72,4.72,0,0,1,1.49-3.71,4.9,4.9,0,0,1,6.63,0,4.92,4.92,0,0,1,1.45,3.71v7.68A4.92,4.92,0,0,1,70,132.9a4.81,4.81,0,0,1-8.12-3.69Zm7.16.15c0-1.74-.84-2.63-2.38-2.67s-2.34.93-2.37,2.67v7.39q0,2.64,2.37,2.67c1.54,0,2.34-.91,2.38-2.67Z"/><path class="cls-2" d="M18.35,166,16,167.79v-2.66l2.4-1.79h2.41v17.41H18.35Z"/><path class="cls-2" d="M25.55,175.81l5.64-12.47h2.68l-5.69,12.47h4.4v-5H35v5h1.35v2.35H35v2.59H32.58v-2.59h-7Z"/><path class="cls-2" d="M41.9,167.93h2.3v2.37H41.9Zm0,5.3h2.3v2.37H41.9Z"/><path class="cls-2" d="M49.28,168.2a4.76,4.76,0,0,1,1.49-3.71,4.66,4.66,0,0,1,3.29-1.29,4.73,4.73,0,0,1,3.35,1.29,5,5,0,0,1,1.44,3.71v7.68a5,5,0,0,1-1.44,3.7,4.79,4.79,0,0,1-3.35,1.31,4.78,4.78,0,0,1-4.78-5Zm7.17.15c-.05-1.74-.85-2.63-2.39-2.67s-2.34.93-2.37,2.67v7.39q0,2.64,2.37,2.67c1.54,0,2.34-.91,2.39-2.67Z"/><path class="cls-2" d="M62.13,168.2a4.76,4.76,0,0,1,1.49-3.71,4.66,4.66,0,0,1,3.29-1.29,4.73,4.73,0,0,1,3.35,1.29,5,5,0,0,1,1.44,3.71v7.68a5,5,0,0,1-1.44,3.7,4.79,4.79,0,0,1-3.35,1.31,4.78,4.78,0,0,1-4.78-5Zm7.16.15c0-1.74-.84-2.63-2.38-2.67s-2.34.93-2.37,2.67v7.39q0,2.64,2.37,2.67c1.54,0,2.34-.91,2.38-2.67Z"/><path class="cls-2" d="M18.35,212.65,16,214.47v-2.66l2.4-1.79h2.41v17.41H18.35Z"/><path class="cls-2" d="M26.45,210h9v2.48H28.72v4a4.17,4.17,0,0,1,2.7-1,5.14,5.14,0,0,1,1.79.36,4,4,0,0,1,1.24.91,4.25,4.25,0,0,1,1,1.66,5.59,5.59,0,0,1,.23,1.25c.05.5.07,1.12.07,1.85a11.36,11.36,0,0,1-.23,2.6,4.14,4.14,0,0,1-.81,1.59A4.79,4.79,0,0,1,33.27,227a4.1,4.1,0,0,1-2.19.6,5.16,5.16,0,0,1-3.14-1,5,5,0,0,1-1.79-3.46h2.42a2.27,2.27,0,0,0,2.42,2,2.41,2.41,0,0,0,1.39-.36,1.86,1.86,0,0,0,.7-.91,4.63,4.63,0,0,0,.25-1.22c0-.43,0-.85,0-1.25a5.08,5.08,0,0,0-.45-2.43,1.81,1.81,0,0,0-.76-.71A3.18,3.18,0,0,0,30.9,218a2.4,2.4,0,0,0-1.21.31,2.74,2.74,0,0,0-1,1.12H26.45Z"/><path class="cls-2" d="M41.9,214.61h2.3V217H41.9Zm0,5.3h2.3v2.36H41.9Z"/><path class="cls-2" d="M49.28,214.88a4.76,4.76,0,0,1,1.49-3.71,4.66,4.66,0,0,1,3.29-1.29,4.73,4.73,0,0,1,3.35,1.29,5,5,0,0,1,1.44,3.71v7.68a5,5,0,0,1-1.44,3.7,4.79,4.79,0,0,1-3.35,1.31,4.78,4.78,0,0,1-4.78-5Zm7.17.15c-.05-1.75-.85-2.63-2.39-2.67s-2.34.92-2.37,2.67v7.39q0,2.64,2.37,2.67c1.54,0,2.34-.91,2.39-2.67Z"/><path class="cls-2" d="M62.13,214.88a4.76,4.76,0,0,1,1.49-3.71,4.66,4.66,0,0,1,3.29-1.29,4.73,4.73,0,0,1,3.35,1.29,5,5,0,0,1,1.44,3.71v7.68a5,5,0,0,1-1.44,3.7,4.79,4.79,0,0,1-3.35,1.31,4.78,4.78,0,0,1-4.78-5Zm7.16.15c0-1.75-.84-2.63-2.38-2.67s-2.34.92-2.37,2.67v7.39q0,2.64,2.37,2.67c1.54,0,2.34-.91,2.38-2.67Z"/><path class="cls-2" d="M18.35,259.33,16,261.15v-2.66l2.4-1.79h2.41v17.41H18.35Z"/><path class="cls-2" d="M26.17,261.56a4.75,4.75,0,0,1,1.49-3.71A4.64,4.64,0,0,1,31,256.56a4.91,4.91,0,0,1,3,1,4.7,4.7,0,0,1,1.66,2.95h-2.5A2.2,2.2,0,0,0,30.94,259c-1.55,0-2.33.93-2.37,2.68v1.64a10.3,10.3,0,0,1,3.23-.54A3.91,3.91,0,0,1,34.63,264a5.08,5.08,0,0,1,1.11,3.69v1.58a4.92,4.92,0,0,1-1.45,3.7A4.77,4.77,0,0,1,31,274.25a4.78,4.78,0,0,1-4.78-5Zm2.4,7.54c0,1.76.83,2.65,2.38,2.67s2.34-.91,2.38-2.67v-1.42c0-1.75-.84-2.63-2.38-2.67s-2.34.92-2.38,2.67Z"/><path class="cls-2" d="M41.9,261.29h2.3v2.37H41.9Zm0,5.3h2.3V269H41.9Z"/><path class="cls-2" d="M49.28,261.56a4.76,4.76,0,0,1,1.49-3.71,4.66,4.66,0,0,1,3.29-1.29,4.73,4.73,0,0,1,3.35,1.29,5,5,0,0,1,1.44,3.71v7.68a5,5,0,0,1-1.44,3.7,4.79,4.79,0,0,1-3.35,1.31,4.78,4.78,0,0,1-4.78-5Zm7.17.15c-.05-1.74-.85-2.63-2.39-2.67s-2.34.93-2.37,2.67v7.39q0,2.64,2.37,2.67c1.54,0,2.34-.91,2.39-2.67Z"/><path class="cls-2" d="M62.13,261.56a4.76,4.76,0,0,1,1.49-3.71,4.66,4.66,0,0,1,3.29-1.29,4.73,4.73,0,0,1,3.35,1.29,5,5,0,0,1,1.44,3.71v7.68a5,5,0,0,1-1.44,3.7,4.79,4.79,0,0,1-3.35,1.31,4.78,4.78,0,0,1-4.78-5Zm7.16.15c0-1.74-.84-2.63-2.38-2.67s-2.34.93-2.37,2.67v7.39q0,2.64,2.37,2.67c1.54,0,2.34-.91,2.38-2.67Z"/><path class="cls-2" d="M18.35,306,16,307.83v-2.66l2.4-1.79h2.41v17.41H18.35Z"/><path class="cls-2" d="M26.47,303.38h9.59v2.48l-5.71,14.93H27.66l5.69-14.93H28.88v2.53H26.47Z"/><path class="cls-2" d="M41.9,308h2.3v2.37H41.9Zm0,5.3h2.3v2.36H41.9Z"/><path class="cls-2" d="M49.28,308.24a4.76,4.76,0,0,1,1.49-3.71,4.66,4.66,0,0,1,3.29-1.29,4.73,4.73,0,0,1,3.35,1.29,5,5,0,0,1,1.44,3.71v7.68a5,5,0,0,1-1.44,3.7,4.79,4.79,0,0,1-3.35,1.31,4.78,4.78,0,0,1-4.78-5Zm7.17.15c-.05-1.75-.85-2.63-2.39-2.67s-2.34.92-2.37,2.67v7.39q0,2.64,2.37,2.67c1.54,0,2.34-.91,2.39-2.67Z"/><path class="cls-2" d="M62.13,308.24a4.76,4.76,0,0,1,1.49-3.71,4.66,4.66,0,0,1,3.29-1.29,4.73,4.73,0,0,1,3.35,1.29,5,5,0,0,1,1.44,3.71v7.68a5,5,0,0,1-1.44,3.7,4.79,4.79,0,0,1-3.35,1.31,4.78,4.78,0,0,1-4.78-5Zm7.16.15c0-1.75-.84-2.63-2.38-2.67s-2.34.92-2.37,2.67v7.39q0,2.64,2.37,2.67c1.54,0,2.34-.91,2.38-2.67Z"/><path class="cls-2" d="M18.35,352.69,16,354.51v-2.66l2.4-1.79h2.41v17.41H18.35Z"/><path class="cls-2" d="M25.79,362.39a4.54,4.54,0,0,1,2.05-3.92,5.05,5.05,0,0,1-1.21-1.56,3.59,3.59,0,0,1-.52-2,5,5,0,0,1,1.43-3.6,4.53,4.53,0,0,1,3.4-1.43,4.65,4.65,0,0,1,3.46,1.43,5,5,0,0,1,1.38,3.6,3.91,3.91,0,0,1-.46,1.95,6,6,0,0,1-1.27,1.57,4.53,4.53,0,0,1,2.06,3.91,5,5,0,0,1-1.5,3.76,5.12,5.12,0,0,1-3.67,1.47,5.12,5.12,0,0,1-5.15-5.22Zm2.4,0a2.66,2.66,0,0,0,.85,2,2.56,2.56,0,0,0,1.9.8,2.62,2.62,0,0,0,1.94-.8,2.79,2.79,0,0,0,0-3.95,2.81,2.81,0,0,0-1.94-.78,2.75,2.75,0,0,0-1.9.78A2.67,2.67,0,0,0,28.19,362.37Zm.33-7.47a2.42,2.42,0,0,0,2.42,2.51,2.44,2.44,0,0,0,1.7-.66,2.41,2.41,0,0,0,.74-1.85,2.45,2.45,0,0,0-.74-1.88,2.54,2.54,0,0,0-1.7-.62,2.48,2.48,0,0,0-1.66.62A2.42,2.42,0,0,0,28.52,354.9Z"/><path class="cls-2" d="M41.9,354.65h2.3V357H41.9Zm0,5.3h2.3v2.36H41.9Z"/><path class="cls-2" d="M49.28,354.92a4.76,4.76,0,0,1,1.49-3.71,4.66,4.66,0,0,1,3.29-1.29,4.73,4.73,0,0,1,3.35,1.29,5,5,0,0,1,1.44,3.71v7.68a5,5,0,0,1-1.44,3.7,4.79,4.79,0,0,1-3.35,1.31,4.78,4.78,0,0,1-4.78-5Zm7.17.15c-.05-1.75-.85-2.63-2.39-2.67s-2.34.92-2.37,2.67v7.39q0,2.64,2.37,2.67c1.54,0,2.34-.91,2.39-2.67Z"/><path class="cls-2" d="M62.13,354.92a4.76,4.76,0,0,1,1.49-3.71,4.66,4.66,0,0,1,3.29-1.29,4.73,4.73,0,0,1,3.35,1.29,5,5,0,0,1,1.44,3.71v7.68a5,5,0,0,1-1.44,3.7,4.79,4.79,0,0,1-3.35,1.31,4.78,4.78,0,0,1-4.78-5Zm7.16.15c0-1.75-.84-2.63-2.38-2.67s-2.34.92-2.37,2.67v7.39q0,2.64,2.37,2.67c1.54,0,2.34-.91,2.38-2.67Z"/><path class="cls-2" d="M18.35,399.37,16,401.19v-2.66l2.4-1.79h2.41v17.41H18.35Z"/><path class="cls-2" d="M26.17,401.6a4.72,4.72,0,0,1,1.49-3.71A4.64,4.64,0,0,1,31,396.6a4.71,4.71,0,0,1,3.34,1.29,4.92,4.92,0,0,1,1.45,3.71v7.68a4.92,4.92,0,0,1-1.45,3.7,4.85,4.85,0,0,1-6.33.26,4.57,4.57,0,0,1-1.7-2.89h2.49a2.17,2.17,0,0,0,2.2,1.46c1.54,0,2.34-.91,2.38-2.67V407.5a9.66,9.66,0,0,1-3.22.54,3.71,3.71,0,0,1-2.81-1.17,4.94,4.94,0,0,1-1.13-3.67Zm2.4,1.58c0,1.76.83,2.65,2.38,2.67s2.34-.91,2.38-2.67v-1.43c0-1.74-.84-2.63-2.38-2.67s-2.34.93-2.38,2.67Z"/><path class="cls-2" d="M41.9,401.33h2.3v2.37H41.9Zm0,5.3h2.3V409H41.9Z"/><path class="cls-2" d="M49.28,401.6a4.76,4.76,0,0,1,1.49-3.71,4.66,4.66,0,0,1,3.29-1.29,4.73,4.73,0,0,1,3.35,1.29,5,5,0,0,1,1.44,3.71v7.68a5,5,0,0,1-1.44,3.7,4.79,4.79,0,0,1-3.35,1.31,4.78,4.78,0,0,1-4.78-5Zm7.17.15c-.05-1.75-.85-2.63-2.39-2.67s-2.34.92-2.37,2.67v7.39q0,2.64,2.37,2.67c1.54,0,2.34-.91,2.39-2.67Z"/><path class="cls-2" d="M62.13,401.6a4.76,4.76,0,0,1,1.49-3.71,4.66,4.66,0,0,1,3.29-1.29,4.73,4.73,0,0,1,3.35,1.29,5,5,0,0,1,1.44,3.71v7.68a5,5,0,0,1-1.44,3.7,4.79,4.79,0,0,1-3.35,1.31,4.78,4.78,0,0,1-4.78-5Zm7.16.15c0-1.75-.84-2.63-2.38-2.67s-2.34.92-2.37,2.67v7.39q0,2.64,2.37,2.67c1.54,0,2.34-.91,2.38-2.67Z"/><path class="cls-2" d="M14.5,458.49,21.1,450a3.42,3.42,0,0,0,.53-1,3.83,3.83,0,0,0,.09-.79,2.63,2.63,0,0,0-.59-1.71,2.41,2.41,0,0,0-3.41-.1,2.87,2.87,0,0,0-.81,1.86H14.5a5.39,5.39,0,0,1,1.41-3.59,4.41,4.41,0,0,1,3.28-1.41,4.72,4.72,0,0,1,3.53,1.43,5,5,0,0,1,1.41,3.55,4.9,4.9,0,0,1-1,3.06l-5.44,7h6.46v2.48H14.5Z"/><path class="cls-2" d="M27.06,448.28a4.72,4.72,0,0,1,1.49-3.71,4.64,4.64,0,0,1,3.29-1.29,4.71,4.71,0,0,1,3.34,1.29,4.92,4.92,0,0,1,1.45,3.71V456a4.92,4.92,0,0,1-1.45,3.7A4.77,4.77,0,0,1,31.84,461a4.78,4.78,0,0,1-4.78-5Zm7.16.15c0-1.75-.84-2.63-2.38-2.67s-2.34.92-2.38,2.67v7.39c0,1.76.83,2.65,2.38,2.67s2.33-.91,2.38-2.67Z"/><path class="cls-2" d="M41.9,448h2.3v2.37H41.9Zm0,5.3h2.3v2.36H41.9Z"/><path class="cls-2" d="M49.28,448.28a4.76,4.76,0,0,1,1.49-3.71,4.66,4.66,0,0,1,3.29-1.29,4.73,4.73,0,0,1,3.35,1.29,5,5,0,0,1,1.44,3.71V456a5,5,0,0,1-1.44,3.7A4.79,4.79,0,0,1,54.06,461a4.78,4.78,0,0,1-4.78-5Zm7.17.15c-.05-1.75-.85-2.63-2.39-2.67s-2.34.92-2.37,2.67v7.39q0,2.64,2.37,2.67c1.54,0,2.34-.91,2.39-2.67Z"/><path class="cls-2" d="M62.13,448.28a4.76,4.76,0,0,1,1.49-3.71,4.66,4.66,0,0,1,3.29-1.29,4.73,4.73,0,0,1,3.35,1.29,5,5,0,0,1,1.44,3.71V456a5,5,0,0,1-1.44,3.7A4.79,4.79,0,0,1,66.91,461a4.78,4.78,0,0,1-4.78-5Zm7.16.15c0-1.75-.84-2.63-2.38-2.67s-2.34.92-2.37,2.67v7.39q0,2.64,2.37,2.67c1.54,0,2.34-.91,2.38-2.67Z"/><path class="cls-2" d="M14.5,505.17l6.6-8.52a3.42,3.42,0,0,0,.53-.95,3.83,3.83,0,0,0,.09-.79,2.63,2.63,0,0,0-.59-1.71,2.41,2.41,0,0,0-3.41-.1,2.86,2.86,0,0,0-.81,1.85H14.5a5.39,5.39,0,0,1,1.41-3.58A4.41,4.41,0,0,1,19.19,490a4.72,4.72,0,0,1,3.53,1.43,5.14,5.14,0,0,1,.39,6.61l-5.44,7h6.46v2.48H14.5Z"/><path class="cls-2" d="M31.2,492.73l-2.4,1.82v-2.66l2.4-1.79h2.41v17.41H31.2Z"/><path class="cls-2" d="M41,494.69h2.3v2.37H41Zm0,5.3h2.3v2.36H41Z"/><path class="cls-2" d="M48.39,495a4.75,4.75,0,0,1,1.49-3.7A4.66,4.66,0,0,1,53.17,490a4.73,4.73,0,0,1,3.35,1.29A5,5,0,0,1,58,495v7.68a5,5,0,0,1-1.44,3.7,4.79,4.79,0,0,1-3.35,1.31,4.78,4.78,0,0,1-4.78-5Zm7.17.16c-.05-1.75-.85-2.63-2.39-2.67s-2.34.92-2.37,2.67v7.39q0,2.64,2.37,2.67c1.54,0,2.34-.91,2.39-2.67Z"/><path class="cls-2" d="M61.24,495a4.75,4.75,0,0,1,1.49-3.7A4.66,4.66,0,0,1,66,490a4.73,4.73,0,0,1,3.35,1.29A5,5,0,0,1,70.81,495v7.68a5,5,0,0,1-1.44,3.7A4.79,4.79,0,0,1,66,507.65a4.78,4.78,0,0,1-4.78-5Zm7.17.16c0-1.75-.85-2.63-2.39-2.67s-2.34.92-2.37,2.67v7.39q0,2.64,2.37,2.67c1.54,0,2.34-.91,2.39-2.67Z"/><path class="cls-2" d="M14.5,551.85l6.6-8.52a3.42,3.42,0,0,0,.53-1,3.83,3.83,0,0,0,.09-.79,2.63,2.63,0,0,0-.59-1.71,2.41,2.41,0,0,0-3.41-.1,2.86,2.86,0,0,0-.81,1.85H14.5a5.39,5.39,0,0,1,1.41-3.58,4.41,4.41,0,0,1,3.28-1.41,4.72,4.72,0,0,1,3.53,1.43,5.14,5.14,0,0,1,.39,6.61l-5.44,7h6.46v2.48H14.5Z"/><path class="cls-2" d="M26.9,551.85l6.61-8.52a3.36,3.36,0,0,0,.52-1,3.83,3.83,0,0,0,.09-.79,2.58,2.58,0,0,0-.59-1.71,2.22,2.22,0,0,0-1.74-.76,2.25,2.25,0,0,0-1.66.66,2.92,2.92,0,0,0-.82,1.85H26.9a5.45,5.45,0,0,1,1.42-3.58,4.41,4.41,0,0,1,3.28-1.41,4.72,4.72,0,0,1,3.53,1.43,5.15,5.15,0,0,1,.38,6.61l-5.43,7h6.45v2.48H26.9Z"/><path class="cls-2" d="M41.9,541.37h2.3v2.36H41.9Zm0,5.3h2.3V549H41.9Z"/><path class="cls-2" d="M49.28,541.63a4.75,4.75,0,0,1,1.49-3.7,4.66,4.66,0,0,1,3.29-1.29,4.73,4.73,0,0,1,3.35,1.29,5,5,0,0,1,1.44,3.71v7.68a5,5,0,0,1-1.44,3.7,4.79,4.79,0,0,1-3.35,1.31,4.78,4.78,0,0,1-4.78-5Zm7.17.16c-.05-1.75-.85-2.64-2.39-2.67s-2.34.92-2.37,2.67v7.39q0,2.64,2.37,2.67c1.54,0,2.34-.91,2.39-2.67Z"/><path class="cls-2" d="M62.13,541.63a4.75,4.75,0,0,1,1.49-3.7,4.66,4.66,0,0,1,3.29-1.29,4.73,4.73,0,0,1,3.35,1.29,5,5,0,0,1,1.44,3.71v7.68a5,5,0,0,1-1.44,3.7,4.79,4.79,0,0,1-3.35,1.31,4.78,4.78,0,0,1-4.78-5Zm7.16.16c0-1.75-.84-2.64-2.38-2.67s-2.34.92-2.37,2.67v7.39q0,2.64,2.37,2.67c1.54,0,2.34-.91,2.38-2.67Z"/><path class="cls-2" d="M14.5,598.53,21.1,590a3.42,3.42,0,0,0,.53-1,3.83,3.83,0,0,0,.09-.79,2.63,2.63,0,0,0-.59-1.71,2.41,2.41,0,0,0-3.41-.1,2.86,2.86,0,0,0-.81,1.85H14.5a5.39,5.39,0,0,1,1.41-3.58,4.41,4.41,0,0,1,3.28-1.41,4.72,4.72,0,0,1,3.53,1.43,5.14,5.14,0,0,1,.39,6.61l-5.44,7h6.46v2.48H14.5Z"/><path class="cls-2" d="M30.75,590.81h.83a2.55,2.55,0,0,0,1.92-.71,2.4,2.4,0,0,0,.69-1.78,2.63,2.63,0,0,0-.71-1.81,2.51,2.51,0,0,0-1.76-.71,2.2,2.2,0,0,0-1.41.52,2.64,2.64,0,0,0-.91,1.6H27a5.16,5.16,0,0,1,1.52-3.26,4.29,4.29,0,0,1,3.12-1.34,4.75,4.75,0,0,1,3.66,1.51,5.16,5.16,0,0,1,1.32,3.44,5.34,5.34,0,0,1-.36,1.94,4.14,4.14,0,0,1-1.49,1.66,4.23,4.23,0,0,1,1.58,1.72,4.74,4.74,0,0,1,.47,2.1,5.15,5.15,0,0,1-1.47,3.85A4.91,4.91,0,0,1,31.68,601a4.55,4.55,0,0,1-3.05-1.14,5.54,5.54,0,0,1-1.72-3.32h2.42a3.49,3.49,0,0,0,.91,1.42,2.26,2.26,0,0,0,1.6.56,2.37,2.37,0,0,0,1.79-.76,2.71,2.71,0,0,0,.76-2,2.8,2.8,0,0,0-.76-2,2.54,2.54,0,0,0-1.85-.71h-1Z"/><path class="cls-2" d="M42.35,588.05h2.3v2.36h-2.3Zm0,5.3h2.3v2.36h-2.3Z"/><path class="cls-2" d="M49.73,588.31a4.71,4.71,0,0,1,1.49-3.7,4.64,4.64,0,0,1,3.29-1.29,4.71,4.71,0,0,1,3.34,1.29,5,5,0,0,1,1.45,3.71V596a5,5,0,0,1-1.45,3.7A4.77,4.77,0,0,1,54.51,601a4.78,4.78,0,0,1-4.78-5Zm7.16.16c0-1.75-.84-2.64-2.38-2.67s-2.35.92-2.38,2.67v7.39c0,1.76.82,2.65,2.38,2.67s2.33-.91,2.38-2.67Z"/><path class="cls-2" d="M62.57,588.31a4.75,4.75,0,0,1,1.5-3.7,4.63,4.63,0,0,1,3.28-1.29,4.72,4.72,0,0,1,3.35,1.29,5,5,0,0,1,1.45,3.71V596a5,5,0,0,1-1.45,3.7A4.78,4.78,0,0,1,67.35,601a4.7,4.7,0,0,1-3.28-1.31,4.77,4.77,0,0,1-1.5-3.7Zm7.17.16c0-1.75-.84-2.64-2.39-2.67s-2.34.92-2.37,2.67v7.39q0,2.64,2.37,2.67c1.55,0,2.34-.91,2.39-2.67Z"/><path class="cls-2" d="M14.5,645.21l6.6-8.52a3.42,3.42,0,0,0,.53-1,3.83,3.83,0,0,0,.09-.79,2.63,2.63,0,0,0-.59-1.71,2.41,2.41,0,0,0-3.41-.1,2.86,2.86,0,0,0-.81,1.85H14.5a5.39,5.39,0,0,1,1.41-3.58A4.41,4.41,0,0,1,19.19,630a4.72,4.72,0,0,1,3.53,1.43,5.14,5.14,0,0,1,.39,6.61l-5.44,7h6.46v2.48H14.5Z"/><path class="cls-2" d="M26.89,642.61l5.63-12.47h2.69l-5.7,12.47h4.41v-5h2.4v5h1.36V645H36.32v2.6h-2.4V645h-7Z"/><path class="cls-2" d="M42.35,634.73h2.3v2.36h-2.3Zm0,5.3h2.3v2.36h-2.3Z"/><path class="cls-2" d="M49.73,635a4.71,4.71,0,0,1,1.49-3.7A4.64,4.64,0,0,1,54.51,630a4.71,4.71,0,0,1,3.34,1.29A5,5,0,0,1,59.3,635v7.68a5,5,0,0,1-1.45,3.7,4.77,4.77,0,0,1-3.34,1.31,4.78,4.78,0,0,1-4.78-5Zm7.16.16c0-1.75-.84-2.64-2.38-2.67s-2.35.92-2.38,2.67v7.39c0,1.76.82,2.65,2.38,2.67s2.33-.91,2.38-2.67Z"/><path class="cls-2" d="M62.57,635a4.75,4.75,0,0,1,1.5-3.7A4.63,4.63,0,0,1,67.35,630a4.72,4.72,0,0,1,3.35,1.29A5,5,0,0,1,72.15,635v7.68a5,5,0,0,1-1.45,3.7,4.78,4.78,0,0,1-3.35,1.31,4.7,4.7,0,0,1-3.28-1.31,4.77,4.77,0,0,1-1.5-3.7Zm7.17.16c0-1.75-.84-2.64-2.39-2.67S65,633.4,65,635.15v7.39q0,2.64,2.37,2.67c1.55,0,2.34-.91,2.39-2.67Z"/><line class="cls-4" x1="104.4" y1="78.69" x2="399.5" y2="78.69"/><line class="cls-4" x1="104.4" y1="125.37" x2="399.5" y2="125.37"/><line class="cls-4" x1="104.4" y1="358.77" x2="399.5" y2="358.77"/><line class="cls-4" x1="104.4" y1="405.45" x2="399.5" y2="405.45"/><line class="cls-4" x1="104.4" y1="638.84" x2="399.5" y2="638.84"/><line class="cls-4" x1="104.4" y1="545.48" x2="399.5" y2="545.48"/><line class="cls-4" x1="104.4" y1="172.05" x2="399.5" y2="172.05"/><line class="cls-4" x1="104.4" y1="312.09" x2="399.5" y2="312.09"/><path class="cls-2" d="M210.62,96c-.37.1-.77.19-1.18.28-.56.11-.56.11-.81-.44a4.85,4.85,0,0,0-.61-1,17.5,17.5,0,0,0,4.37-1.12,3.76,3.76,0,0,0,.77-.43,7.46,7.46,0,0,1,1.08,1.11c.11.13.17.2.17.33s-.15.21-.33.21a1.52,1.52,0,0,0-.58.17l-1.15.41V98.1c1.25,0,1.66,0,1.77,0s.19,0,.19.2v1.26c0,.18,0,.2-.19.2l-1.55,0a9.43,9.43,0,0,0,1.87,2.81,4.85,4.85,0,0,0-.7,1.15c-.09.2-.14.29-.24.29s-.14-.09-.25-.27a12.35,12.35,0,0,1-.95-2.06c0,4.43.13,7.51.13,7.82s0,.19-.22.19h-1.42c-.2,0-.22,0-.22-.19s.11-3.37.15-7.38a13.56,13.56,0,0,1-1.89,3.83c-.13.2-.22.31-.31.31s-.16-.11-.25-.31a6.54,6.54,0,0,0-.74-1.24,13.23,13.23,0,0,0,2.81-4.95H210c-1.31,0-1.75,0-1.86,0s-.19,0-.19-.2V98.26c0-.18,0-.2.19-.2s.55,0,1.86,0h.66Zm8.27,6.82a14.88,14.88,0,0,1-3.33,2.52,1,1,0,0,1-.42.18c-.12,0-.18-.11-.32-.31a4.07,4.07,0,0,0-.92-1,12.43,12.43,0,0,0,4.84-3.65,2.67,2.67,0,0,0,.22-.35,17.3,17.3,0,0,1-3.71,1.73,1.31,1.31,0,0,1-.38.09c-.16,0-.21-.12-.37-.47a4.16,4.16,0,0,0-.73-1,16.27,16.27,0,0,0,3.93-1.44,9.19,9.19,0,0,0-1.19-1c-.14-.09-.14-.15,0-.33l.72-.7c.16-.16.18-.14.36,0a9,9,0,0,1,1.44,1.14A9.37,9.37,0,0,0,221,96.08h-3.13a13.77,13.77,0,0,1-2.56,2.07c-.21.14-.32.21-.41.21s-.2-.12-.36-.37a3.13,3.13,0,0,0-.83-.87,10.33,10.33,0,0,0,3.8-3.15,3.18,3.18,0,0,0,.45-.88,16.78,16.78,0,0,1,1.65.38c.17,0,.26.16.26.27s-.11.2-.2.25-.29.22-.61.69h2.39a1,1,0,0,0,.45-.06.4.4,0,0,1,.22-.05c.14,0,.29.07.74.54s.5.54.5.7-.07.21-.2.3a2.21,2.21,0,0,0-.56.6,12.81,12.81,0,0,1-3,3.1,11.55,11.55,0,0,1,1.21.25.29.29,0,0,1,.23.27.29.29,0,0,1-.17.25c-.17.09-.29.21-.58.63l-.14.18h2.16a1.23,1.23,0,0,0,.48-.07.53.53,0,0,1,.23-.06c.13,0,.29.11.78.6.32.34.49.54.49.68a.34.34,0,0,1-.2.31,1.76,1.76,0,0,0-.56.66c-1.78,3-4.41,4.92-8.77,6-.54.13-.55.14-.79-.4a4.22,4.22,0,0,0-.68-1,15.25,15.25,0,0,0,5.29-1.85,10.64,10.64,0,0,0-1.35-1.13c-.16-.11-.16-.15,0-.33l.75-.7c.18-.14.22-.13.36,0a8.69,8.69,0,0,1,1.55,1.24,9.55,9.55,0,0,0,2-2.43Z"/><path class="cls-2" d="M233.07,106.73c1-.1,2-.25,3.06-.43a6.71,6.71,0,0,0-.16.83l-.05.32a10.23,10.23,0,0,0,2.05-4,24.87,24.87,0,0,0,.59-4.59l-1.55,0c-.2,0-.21,0-.21-.2V97.36c0-.18,0-.2.21-.2s.51,0,1.62,0c0-.46,0-.93,0-1.44a17.37,17.37,0,0,0-.13-2.53,17.74,17.74,0,0,1,1.8.12c.18,0,.27.09.27.2a1.48,1.48,0,0,1-.1.43,7.85,7.85,0,0,0-.11,1.84c0,.48,0,.93,0,1.38h1c1.38,0,1.85,0,2,0s.21,0,.21.21c0,.62,0,1.14,0,1.71a55.8,55.8,0,0,1-.52,8.25,2.06,2.06,0,0,1-2.29,2c-.38,0-.68,0-1,0s-.41,0-.47-.63a4,4,0,0,0-.36-1.2,9.73,9.73,0,0,0,1.5.14c.54,0,.84-.29,1-1.13a51.27,51.27,0,0,0,.45-7.62h-1.51a31.71,31.71,0,0,1-.67,5.17,11.43,11.43,0,0,1-2.66,5.13c-.18.18-.29.27-.38.27s-.18-.09-.34-.25a3.27,3.27,0,0,0-1.16-.87,7.67,7.67,0,0,0,.58-.56,1.31,1.31,0,0,1-.34.08c-1.91.38-4.25.72-6.28.93a3.4,3.4,0,0,0-.67.13.77.77,0,0,1-.31.11c-.1,0-.19-.11-.25-.31-.1-.47-.21-1-.3-1.58a16.89,16.89,0,0,0,1.89,0c.63,0,1.31-.07,2-.15v-1h-1.06c-1.57,0-2.09,0-2.2,0s-.19,0-.19-.18v-1.08c0-.18,0-.2.19-.2s.63,0,2.2,0h1.06v-.77h-.72c-1.53,0-2,0-2.16,0s-.22,0-.22-.2,0-.54,0-1.49v-1.93c0-1,0-1.39,0-1.48s0-.2.22-.2.63,0,2.16,0h.72V97.7h-1.33c-1.62,0-2.18,0-2.29,0s-.2,0-.2-.19V96.47c0-.18,0-.19.2-.19s.67,0,2.29,0h1.33V95.5c-.77.07-1.55.15-2.32.18-.51,0-.52,0-.67-.39a3.44,3.44,0,0,0-.56-1,34.17,34.17,0,0,0,6.38-.68,6.5,6.5,0,0,0,1-.31,8.87,8.87,0,0,1,1,1,.45.45,0,0,1,.15.33c0,.11-.15.18-.38.18a5.68,5.68,0,0,0-.81.12c-.72.15-1.44.28-2.18.37v1h1c1.61,0,2.16,0,2.27,0s.18,0,.18.19v1.07c0,.18,0,.19-.14.19s-.7,0-2.31,0h-1v.79h.77c1.52,0,2,0,2.16,0s.2,0,.2.2,0,.51,0,1.48v1.93c0,1,0,1.38,0,1.49s0,.2-.2.2-.64,0-2.16,0h-.77v.77h.67c1.55,0,2.08,0,2.19,0s.2,0,.2.2v1.08c0,.16,0,.18-.2.18s-.64,0-2.19,0h-.67Zm-1.62-6.17v-.94H230v.94Zm0,2v-1H230v1Zm1.62-2.94v.94h1.57v-.94Zm1.57,2h-1.57v1h1.57Z"/><path class="cls-2" d="M252.84,101.35a1.8,1.8,0,1,1-1.8-1.8A1.81,1.81,0,0,1,252.84,101.35Z"/><path class="cls-2" d="M272.89,96.82c0,.84,0,1.17,0,1.28s0,.19-.19.19-.53,0-1.64,0a11.67,11.67,0,0,0,3.7,6.19,5,5,0,0,0-1,1.15c-.16.22-.23.33-.32.33s-.18-.1-.38-.29a14,14,0,0,1-2.63-4.18v3c0,1.13,0,1.62,0,1.73s0,.2-.2.2-.65,0-2.18,0h-3.15c-1.53,0-2.07,0-2.2,0s-.19,0-.19-.2,0-.6,0-1.73v-3c0-1.12,0-1.6,0-1.73s0-.2.19-.2.67,0,2.2,0h3.15c.77,0,1.3,0,1.62,0-.12-.4-.23-.81-.34-1.22h-7.11a14.28,14.28,0,0,1-2.38,7.92c-.16.21-.23.32-.32.32s-.18-.11-.36-.31a6.2,6.2,0,0,0-1.21-1c1.89-2.16,2.43-4.89,2.43-8.71,0-1.62,0-2.37,0-2.48s0-.2.2-.2.75,0,2.52,0h7.12c1.78,0,2.42,0,2.51,0s.19,0,.19.2,0,.43,0,1.3Zm-11.56,12.25c-1.66,0-2.23,0-2.34,0s-.22,0-.22-.2v-1.35c0-.18,0-.2.22-.2s.68,0,2.34,0h10.1c1.65,0,2.23,0,2.34,0s.21,0,.21.2v1.35c0,.18,0,.2-.21.2s-.69,0-2.34,0ZM271,95.38h-8.76v1.38H271Zm-6.73,6.8h4.39v-1.29H264.3Zm4.39,1.33H264.3v1.37h4.39Z"/><path class="cls-2" d="M281,100.65c0-.88,0-1.51,0-1.91a17.63,17.63,0,0,1-1.87.83,1.76,1.76,0,0,1-.41.13c-.15,0-.2-.13-.34-.47a3.61,3.61,0,0,0-.72-1.17,15.42,15.42,0,0,0,6.87-4.16,3.86,3.86,0,0,0,.74-1,13.36,13.36,0,0,1,1.89.34c.16,0,.31.11.31.2s-.06.14-.18.21l-.06,0a17.09,17.09,0,0,0,7.63,4.14,4.36,4.36,0,0,0-.68,1.26c-.13.34-.18.47-.32.47a1.45,1.45,0,0,1-.44-.11,17.21,17.21,0,0,1-2.16-.9c0,.27,0,.74,0,1.49v2.34c0,.56,0,1,0,1.24.53.31,1,.58,1.37.87.13.09.22.18.22.29s-.11.19-.27.23a1.92,1.92,0,0,0-.58.32c-.61.45-1.2.9-2.09,1.46a20.89,20.89,0,0,0,4.45,1.12,4.87,4.87,0,0,0-.68,1.26c-.2.5-.22.54-.78.39a13.92,13.92,0,0,1-6.08-2.75,5,5,0,0,0-.09.79c0,.6,0,.6-.58.7-2.19.46-4.34.85-6,1.1a2.62,2.62,0,0,0-.7.22.57.57,0,0,1-.31.11c-.09,0-.16-.09-.22-.27-.12-.49-.25-1.16-.34-1.75.78,0,1.28-.07,1.93-.14l.5,0Zm4.25-2.59v-.15a8.87,8.87,0,0,0-.13-1.69c.67,0,1.17.06,1.82.13.18,0,.27.11.27.2a.53.53,0,0,1-.11.36c-.09.14-.1.32-.1.79v.36h1.53c.84,0,1.44,0,1.85,0a15.74,15.74,0,0,1-4.21-3.33,17,17,0,0,1-4,3.35Zm-2.39,1.38v1h6.58v-1Zm6.58,2.36h-6.58v1.1h6.58Zm-6.58,5.46c1.18-.18,2.41-.4,3.76-.67a9.33,9.33,0,0,1-1.8-2.3h-2Zm3.9-3a6.24,6.24,0,0,0,1.6,1.64,18.14,18.14,0,0,0,2.18-1.62l-2,0Z"/></g></g></svg>