<svg xmlns="http://www.w3.org/2000/svg" viewBox="0 0 407.81 601.43"><defs><style>.cls-1{fill:snow;}.cls-2{fill:#42260f;}.cls-3{fill:#fff3f0;}.cls-4{fill:none;stroke:#42260f;stroke-miterlimit:10;stroke-width:0.6px;stroke-dasharray:3 3.5;}</style></defs><title>アセット 138</title><g id="レイヤー_2" data-name="レイヤー 2"><g id="オブジェクト"><rect class="cls-1" x="112.71" y="79.05" width="295.1" height="46.8"/><rect class="cls-1" x="112.71" y="312.75" width="295.1" height="93.6"/><path class="cls-2" d="M211,353c0,.85,0,1.17,0,1.28s0,.2-.2.2l-1.64,0a11.55,11.55,0,0,0,3.71,6.19,4.85,4.85,0,0,0-1,1.16c-.17.21-.24.32-.33.32s-.18-.09-.38-.29a13.68,13.68,0,0,1-2.62-4.17v3c0,1.13,0,1.62,0,1.72s0,.2-.2.2-.64,0-2.17,0H203c-1.53,0-2.07,0-2.2,0s-.2,0-.2-.2,0-.59,0-1.72v-3c0-1.12,0-1.61,0-1.73s0-.2.2-.2.67,0,2.2,0h4.77c-.13-.4-.24-.81-.35-1.23h-7.11a14.22,14.22,0,0,1-2.37,7.92c-.16.22-.23.33-.33.33s-.18-.11-.36-.31a5.88,5.88,0,0,0-1.2-1c1.89-2.16,2.43-4.89,2.43-8.71,0-1.62,0-2.38,0-2.48s0-.2.2-.2.76,0,2.52,0h7.13c1.78,0,2.41,0,2.5,0s.2,0,.2.2,0,.43,0,1.29Zm-11.55,12.26c-1.66,0-2.23,0-2.34,0s-.22,0-.22-.2v-1.35c0-.18,0-.2.22-.2s.68,0,2.34,0h10.1c1.65,0,2.23,0,2.34,0s.21,0,.21.2v1.35c0,.18,0,.2-.21.2s-.69,0-2.34,0Zm9.7-13.7h-8.77v1.39h8.77Zm-6.73,6.81h4.39v-1.3h-4.39Zm4.39,1.33h-4.39v1.37h4.39Z"/><path class="cls-2" d="M219.06,356.83c0-.88,0-1.51,0-1.91-.6.31-1.23.57-1.87.83a1.64,1.64,0,0,1-.42.12c-.14,0-.2-.12-.34-.46a3.5,3.5,0,0,0-.72-1.17,15.54,15.54,0,0,0,6.88-4.16,3.87,3.87,0,0,0,.73-1.05,15,15,0,0,1,1.89.34c.17,0,.31.11.31.2s-.05.15-.18.22l0,0A16.94,16.94,0,0,0,232.9,354a4.57,4.57,0,0,0-.69,1.27c-.12.34-.18.46-.32.46a1.16,1.16,0,0,1-.43-.11,16,16,0,0,1-2.16-.89c0,.26,0,.73,0,1.49v2.34c0,.56,0,1,0,1.24.52.31.95.58,1.37.86.12.09.21.18.21.29s-.11.2-.27.24a1.78,1.78,0,0,0-.57.32c-.62.45-1.21.9-2.09,1.46a20.82,20.82,0,0,0,4.44,1.11,5.22,5.22,0,0,0-.68,1.26c-.2.51-.22.54-.77.4a13.91,13.91,0,0,1-6.09-2.75,6.58,6.58,0,0,0-.09.79c0,.59,0,.59-.57.7-2.2.45-4.34.85-6,1.1a2.56,2.56,0,0,0-.7.21.48.48,0,0,1-.31.11q-.13,0-.21-.27a17.34,17.34,0,0,1-.34-1.74c.77,0,1.27-.07,1.92-.15l.51,0Zm4.24-2.59v-.15a8.85,8.85,0,0,0-.12-1.69c.66,0,1.17.05,1.82.13.18,0,.27.1.27.19a.57.57,0,0,1-.11.36,1.51,1.51,0,0,0-.11.79v.37h1.53c.85,0,1.44,0,1.85,0a15.74,15.74,0,0,1-4.21-3.33,16.79,16.79,0,0,1-4,3.35Zm-2.39,1.38v1h6.59v-1ZM227.5,358h-6.59v1.1h6.59Zm-6.59,5.45c1.19-.18,2.41-.39,3.76-.66a9.44,9.44,0,0,1-1.8-2.31h-2Zm3.91-3a6,6,0,0,0,1.6,1.64,16.22,16.22,0,0,0,2.18-1.62l-2,0Z"/><path class="cls-2" d="M241.34,357.53a1.8,1.8,0,1,1-1.8-1.8A1.81,1.81,0,0,1,241.34,357.53Z"/><path class="cls-2" d="M257.58,363.05c0,.35.05.53.19.64a2.58,2.58,0,0,0,1.32.18,2.16,2.16,0,0,0,1.42-.29c.24-.22.38-.63.45-1.8a4,4,0,0,0,1.22.5c.49.13.53.14.45.61-.17,1.28-.41,1.82-.95,2.16a4.89,4.89,0,0,1-2.59.45,5.51,5.51,0,0,1-2.79-.39c-.45-.31-.56-.62-.56-1.52v-3h-2.21c-.51,2.51-1.89,3.86-4.86,4.94a1.56,1.56,0,0,1-.4.12c-.14,0-.22-.12-.39-.45a4.5,4.5,0,0,0-.92-1.17c2.8-.73,4.1-1.58,4.62-3.44h-1.35c-1.71,0-2.3,0-2.41,0s-.22,0-.22-.2v-1.29c0-.18,0-.2.22-.2s.7,0,2.41,0h1.62c0-.39,0-.82,0-1.31v-.61l-1.17,0c-.2,0-.22,0-.22-.2v-.69a23.1,23.1,0,0,1-2.41,1.34,1.2,1.2,0,0,1-.41.14c-.15,0-.22-.14-.38-.47a3.94,3.94,0,0,0-.74-1,18.8,18.8,0,0,0,3.33-1.66,14.77,14.77,0,0,0-1.82-1.74c-.09-.07-.14-.13-.14-.18s0-.09.14-.16l.9-.72c.16-.13.2-.17.36,0a21.31,21.31,0,0,1,2,1.82,10.71,10.71,0,0,0,2-2.14h-2c-1.35,0-1.78,0-1.89,0s-.21,0-.21-.19V350c0-.18,0-.19.21-.19s.54,0,1.89,0h2.49c1,0,1.51,0,1.64,0s.21,0,.3.21a5.65,5.65,0,0,0,.83,1.55c.07.12.16.23.25.36a10.16,10.16,0,0,0,1.08-1.15,4.54,4.54,0,0,0,.51-.76,12.15,12.15,0,0,1,1.38.83c.16.11.2.2.2.29s-.07.2-.23.27a1.74,1.74,0,0,0-.62.48,13,13,0,0,1-1.24,1.19c.33.29.65.58,1,.83a15.76,15.76,0,0,0,1.53-1.49,4.39,4.39,0,0,0,.51-.78c.52.29,1,.56,1.4.83.16.11.22.2.22.3s-.09.2-.24.26a1.67,1.67,0,0,0-.63.48c-.39.4-.86.83-1.38,1.28a17.65,17.65,0,0,0,2.93,1.23,5,5,0,0,0-.65,1.13c-.14.34-.2.47-.34.47a1.07,1.07,0,0,1-.41-.13,18.93,18.93,0,0,1-2.78-1.44v.85c0,.18,0,.2-.19.2l-1.26,0V359h1.81c1.73,0,2.31,0,2.43,0s.2,0,.2.2v1.29c0,.18,0,.2-.2.2s-.7,0-2.43,0h-1.81Zm.61-7.56a12.1,12.1,0,0,1-3.26-3.61,13.43,13.43,0,0,1-3.38,3.61ZM255.74,359v-1.92h-2v.61c0,.47,0,.9,0,1.31Z"/><path class="cls-2" d="M269,358.36c-1.61,0-2.13,0-2.25,0s-.19,0-.19-.19v-1.26c0-.19,0-.2.19-.2s.64,0,2.25,0h4.53v-1.31h-2.34c-1.75,0-2.36,0-2.47,0s-.21,0-.21-.19v-1.21c0-.18,0-.2.21-.2s.72,0,2.47,0h2.34v-1.21h-3.15c-1.73,0-2.3,0-2.41,0s-.22,0-.22-.2v-1.24c0-.18,0-.2.22-.2s.68,0,2.41,0h3.15V351a7.54,7.54,0,0,0-.14-1.71c.64,0,1.35.05,2,.12.18,0,.27.11.27.18a1.11,1.11,0,0,1-.09.4,1.93,1.93,0,0,0-.13,1v.2h3.46c1.74,0,2.32,0,2.43,0s.2,0,.2.2v1.24c0,.18,0,.2-.2.2s-.69,0-2.43,0h-3.46v1.21h2.7c1.77,0,2.38,0,2.48,0s.2,0,.2.2v1.21c0,.18,0,.19-.2.19s-.71,0-2.48,0h-2.7v1.31h4.84c1.6,0,2.14,0,2.25,0s.18,0,.18.2v1.26c0,.17,0,.19-.18.19s-.65,0-2.25,0h-3.87a8.66,8.66,0,0,0,1.39,2.26,10.78,10.78,0,0,0,1.57-1.38,3.16,3.16,0,0,0,.55-.76,9.73,9.73,0,0,1,1.42,1,.4.4,0,0,1,.19.27c0,.14-.08.21-.24.27a1.49,1.49,0,0,0-.59.36,21.25,21.25,0,0,1-1.8,1.4,10.37,10.37,0,0,0,4.19,2.11,4.71,4.71,0,0,0-1,1.26c-.16.3-.24.41-.38.41a1.8,1.8,0,0,1-.43-.12,11.46,11.46,0,0,1-6.72-7h-.21a15.49,15.49,0,0,1-1.44,1.35v3.7c1.22-.23,2.45-.52,3.79-.88a5.23,5.23,0,0,0-.09,1.06c0,.56,0,.56-.57.71-2.22.57-4.3,1-6,1.28a1.8,1.8,0,0,0-.68.17.44.44,0,0,1-.29.11c-.12,0-.23-.05-.29-.25-.16-.52-.32-1.1-.43-1.64.7,0,1.39-.09,2.14-.18l.58-.07V361a19.37,19.37,0,0,1-3.28,1.58,1.47,1.47,0,0,1-.41.11c-.16,0-.24-.13-.4-.45a3.85,3.85,0,0,0-.75-1,14.89,14.89,0,0,0,5.77-2.86Z"/><path class="cls-2" d="M287.22,352.9c.13-.16.16-.18.34-.11a11.77,11.77,0,0,1,2.36,1.32c.13.11.13.14,0,.34l-.7,1c-.16.24-.2.24-.38.11a10.67,10.67,0,0,0-2.28-1.38c-.09,0-.15-.1-.15-.15a.39.39,0,0,1,.11-.21Zm6.09,8.32c0-.45-.06-.77-.11-1.28.66,0,1.31.05,1.94.13.15,0,.25.09.25.18a1.22,1.22,0,0,1-.12.37,2.11,2.11,0,0,0-.06.6h4.72c1.6,0,2.16,0,2.27,0s.2,0,.2.22v1.3c0,.17,0,.19-.2.19s-.67,0-2.27,0h-4.72v.66c0,1.37,0,2,0,2.06s0,.19-.2.19h-1.56c-.18,0-.2,0-.2-.19s0-.69,0-2.06v-.66h-4.45c-1.6,0-2.14,0-2.25,0s-.22,0-.22-.19v-1.3c0-.2,0-.22.22-.22s.65,0,2.25,0Zm-2.6-4.25a1.08,1.08,0,0,1,.09.38c0,.18-.1.32-.36.57a20.76,20.76,0,0,1-2.14,1.9,1.53,1.53,0,0,0-.43.45.31.31,0,0,1-.25.18c-.09,0-.16-.08-.25-.22a15,15,0,0,1-.87-1.49,9,9,0,0,0,1.28-.72,17.51,17.51,0,0,0,2.57-2.29A11.58,11.58,0,0,0,290.71,357Zm-2.42-7.36c.12-.15.19-.15.35-.09a13.06,13.06,0,0,1,2.34,1.42c.08.07.13.11.13.16s0,.09-.11.17l-.74,1c-.14.19-.23.19-.37.06a14.43,14.43,0,0,0-2.33-1.48c-.16-.09-.16-.12,0-.32Zm3.81,4.84a1.73,1.73,0,0,0-.23.24c-.18.18-.29.28-.4.28s-.2-.1-.38-.32a3.61,3.61,0,0,0-.84-.78,10.52,10.52,0,0,0,2.7-3.52,7.25,7.25,0,0,0,.38-1.14c.59.11,1.15.24,1.65.36.18.06.27.13.27.26s-.05.19-.2.3a2.09,2.09,0,0,0-.45.67c-.09.21-.21.43-.32.65h2.27c.21-.42.41-.85.52-1.14a7.18,7.18,0,0,0,.31-1,11.23,11.23,0,0,1,1.65.37c.13,0,.23.11.23.2s-.05.2-.18.31a1.28,1.28,0,0,0-.25.3c-.14.26-.36.65-.57,1h1.18c1.53,0,2.06,0,2.16,0s.22,0,.22.21v1c0,.19,0,.21-.22.21s-.63,0-2.16,0h-1.38v1h.86c1.51,0,2,0,2.09,0s.22,0,.22.2v.95c0,.18,0,.2-.22.2s-.58,0-2.09,0h-.86v1h.83c1.51,0,2,0,2.1,0s.2,0,.2.2v.95c0,.18,0,.2-.2.2s-.59,0-2.1,0h-.83v1h1.37c1.69,0,2.26,0,2.37,0s.22,0,.22.18v1c0,.18,0,.2-.22.2s-.68,0-2.37,0h-4.74c-1.71,0-2.32,0-2.43,0s-.2,0-.2-.2,0-.75,0-2.1Zm4.3-.66v-1h-2.61v1Zm0,2.3v-1h-2.61v1Zm0,2.3v-1h-2.61v1Z"/><path class="cls-2" d="M307.62,359.06c0-.67,0-1.53,0-2.36-.28.4-.61.79-.93,1.19-.13.16-.24.25-.31.25s-.14-.11-.2-.32a5,5,0,0,0-.59-1.52,16.43,16.43,0,0,0,3.2-5.76,5.2,5.2,0,0,0,.31-1.25,12.78,12.78,0,0,1,1.62.5c.2.07.31.12.31.27s-.06.2-.2.32-.2.27-.36.74a27.18,27.18,0,0,1-1.08,2.65v9.12c0,1.75,0,2.63,0,2.72s0,.2-.19.2h-1.46c-.18,0-.2,0-.2-.2s0-1,0-2.72Zm5-2.22a28.39,28.39,0,0,1-.34,4.78,13.55,13.55,0,0,1-1.23,3.59c-.11.2-.18.31-.27.31s-.18-.07-.3-.23a5.62,5.62,0,0,0-1.08-1.06,9,9,0,0,0,1.22-3.23,23,23,0,0,0,.27-4.19c0-1.71,0-2.48,0-2.59s0-.22.19-.22.74,0,2.5,0h6.18c1.76,0,2.36,0,2.46,0s.2,0,.2.22v1.13c0,.2,0,.22-.2.22s-.7,0-2.46,0h-7.11Zm1-5.9a7.76,7.76,0,0,0-.11-1.55c.78,0,1.26.06,1.75.11.16,0,.23.07.23.16a.46.46,0,0,1-.09.27,3,3,0,0,0-.09,1V351h2.29v-.08a7.5,7.5,0,0,0-.11-1.52c.77,0,1.24.06,1.73.11.16,0,.25.07.25.16a.4.4,0,0,1-.09.27,2.47,2.47,0,0,0-.09,1V351h.29c1.74,0,2.36,0,2.46,0s.2,0,.2.2v1.17c0,.18,0,.2-.2.2s-.72,0-2.46,0h-.29c0,.61,0,.88,0,1s0,.2-.22.2h-1.35c-.18,0-.2,0-.2-.2s0-.36,0-1H315.3c0,.61,0,.88,0,1s0,.2-.2.2h-1.37c-.18,0-.2,0-.2-.2s0-.36,0-1h0c-1.72,0-2.32,0-2.43,0s-.19,0-.19-.2v-1.17c0-.18,0-.2.19-.2s.72,0,2.47,0Zm8.05,9.18c0,1.8,0,3.17,0,3.76a1.68,1.68,0,0,1-.47,1.42,2.6,2.6,0,0,1-1.71.38c-.39,0-.43,0-.5-.41a3.86,3.86,0,0,0-.34-1.1c.3,0,.55,0,.95,0s.43-.11.43-.47v-1.12h-1.92v.53c0,1.29,0,1.92,0,2s0,.2-.2.2h-1.2c-.18,0-.2,0-.2-.2s0-.74,0-2v-.53h-1.84v.88c0,1.34,0,1.95,0,2.06s0,.19-.2.19h-1.26c-.18,0-.2,0-.2-.19s0-.69,0-2.06v-4.8c0-1.35,0-2,0-2.07s0-.22.2-.22.68,0,2.25,0h3.63c1.57,0,2.13,0,2.25,0s.2,0,.2.22,0,.66,0,1.87Zm-5-1.22v-1.1h-1.84v1.1Zm0,2.44v-1.17h-1.84v1.17Zm1.53-3.54v1.1h1.92v-1.1Zm1.92,3.54v-1.17h-1.92v1.17Z"/><rect class="cls-3" x="112.71" y="266.07" width="295.1" height="46.68"/><path class="cls-2" d="M213.62,285.43c-1.17,0-2.2.06-3,.09-.23,0-.31-.1-.34-.36s-.13-1.29-.16-1.81a31.79,31.79,0,0,0,3.45.12H220a1.67,1.67,0,0,0,1-.18.54.54,0,0,1,.27-.07,1,1,0,0,1,.34.09,5.54,5.54,0,0,1,1.31,1.19.46.46,0,0,1,.13.3.6.6,0,0,1-.25.45,2.53,2.53,0,0,0-.42.71,21.31,21.31,0,0,1-3.49,5.85,20.33,20.33,0,0,1-5.11,4.28.84.84,0,0,1-.49.16.63.63,0,0,1-.45-.2,5.35,5.35,0,0,0-1.67-1,17.36,17.36,0,0,0,5.89-4.5,15.17,15.17,0,0,0,3-5.13Z"/><path class="cls-2" d="M229.28,284.64a12,12,0,0,0-.2-2.63,13.17,13.17,0,0,1,2.23.38c.22.06.31.16.31.29a.9.9,0,0,1-.07.27,4.16,4.16,0,0,0-.2,1.71v3.64c0,.93,0,1.63.05,2.26,0,.27-.1.36-.39.36h-1.44c-.25,0-.36-.09-.34-.3,0-.63.05-1.68.05-2.45Zm8.48,3.37c0,2.66-.4,4.44-1.46,5.87a9.29,9.29,0,0,1-4,2.82,1,1,0,0,1-.38.09.58.58,0,0,1-.43-.21,5.56,5.56,0,0,0-1.53-1.1,8.78,8.78,0,0,0,4.39-2.63c.83-1,1.21-2.52,1.21-4.81v-3.4a13.26,13.26,0,0,0-.2-2.93,11.73,11.73,0,0,1,2.34.39.31.31,0,0,1,.25.31.62.62,0,0,1-.07.29,5.47,5.47,0,0,0-.16,2Z"/><path class="cls-2" d="M247,290.35a14.7,14.7,0,0,0-2.64.21c-.22,0-.36-.1-.42-.37a19.24,19.24,0,0,1-.27-2.18,23.24,23.24,0,0,0,3.89.21h5.8c1.36,0,2.75,0,4.14-.05.27,0,.32,0,.32.25a11.92,11.92,0,0,1,0,1.69c0,.22-.07.29-.32.27l-4,0Z"/><path class="cls-2" d="M272,283.94a1.83,1.83,0,0,0,1-.27.51.51,0,0,1,.3-.13.67.67,0,0,1,.33.15,5.71,5.71,0,0,1,1.22,1.1.41.41,0,0,1,.14.32.44.44,0,0,1-.19.34,2.17,2.17,0,0,0-.54.69,28.21,28.21,0,0,1-2.65,4.35,17.43,17.43,0,0,1,1.95,1.82.35.35,0,0,1,.1.25.38.38,0,0,1-.1.24,13.28,13.28,0,0,1-1.12,1.13.41.41,0,0,1-.22.09.32.32,0,0,1-.19-.11,22.15,22.15,0,0,0-1.75-1.74,22.11,22.11,0,0,1-5.74,4.5,1,1,0,0,1-.45.16.61.61,0,0,1-.35-.16,4.93,4.93,0,0,0-1.71-.92,21.9,21.9,0,0,0,6.63-4.88,14.72,14.72,0,0,0-2.59-1.69c.39-.43.77-.9,1.18-1.28a.39.39,0,0,1,.24-.13.45.45,0,0,1,.18.08,16.37,16.37,0,0,1,2.32,1.44,17.38,17.38,0,0,0,2.11-3.57l-4.47.09a21.48,21.48,0,0,1-3.85,4.05.64.64,0,0,1-.36.16.41.41,0,0,1-.29-.12,7.21,7.21,0,0,0-1.51-.83,20,20,0,0,0,5.09-5.65,6.53,6.53,0,0,0,1-2.22,11.41,11.41,0,0,1,2.1.89.3.3,0,0,1,.2.28.49.49,0,0,1-.21.36,1.52,1.52,0,0,0-.38.38c-.15.25-.25.43-.56.9Z"/><path class="cls-2" d="M287.69,292.54c0,1.25,0,2.31.06,3.75,0,.23-.08.3-.27.3a13.51,13.51,0,0,1-1.8,0c-.2,0-.27-.07-.26-.28,0-1.3.08-2.47.08-3.69v-4.2a31.45,31.45,0,0,1-5,3.46.48.48,0,0,1-.26.07.48.48,0,0,1-.38-.18,7.08,7.08,0,0,0-1.55-1.06,30.5,30.5,0,0,0,9.5-7.45A5.12,5.12,0,0,0,289,281.4a16.88,16.88,0,0,1,2,1.26.33.33,0,0,1,.14.27.52.52,0,0,1-.25.4,5.76,5.76,0,0,0-1.08,1,28.86,28.86,0,0,1-2.11,2.27Z"/><path class="cls-2" d="M302.58,282.7c.12.09.21.18.21.29a.6.6,0,0,1-.18.36,5.59,5.59,0,0,0-.73,1.49c-1,2.75-2,5.4-3.1,8.1,2.77-.23,4.28-.38,6.3-.68a17.7,17.7,0,0,0-2-2.88c.54-.29,1.06-.6,1.57-.87.2-.11.3,0,.43.11a25.76,25.76,0,0,1,3.64,5.89.46.46,0,0,1,.07.23c0,.11-.07.22-.24.31a9.32,9.32,0,0,1-1.36.73.49.49,0,0,1-.22.06c-.11,0-.2-.09-.25-.25-.22-.51-.42-1-.63-1.44-2.88.43-5.62.73-8.55,1a6.33,6.33,0,0,0-2.11.43c-.23.11-.43.07-.52-.18a16.58,16.58,0,0,1-.63-2.32c.72.05,1.48,0,2.2,0,1.27-3.22,2.21-5.89,3.15-8.91a10.29,10.29,0,0,0,.52-2.47A10,10,0,0,1,302.58,282.7Z"/><rect class="cls-3" x="112.71" y="125.85" width="295.1" height="46.62"/><path class="cls-2" d="M244.69,152.66v-1.31h-.51c-1.33,0-1.76,0-1.89,0s-.19,0-.19-.18,0-.59,0-1.67v-2.61c0-1.06,0-1.53,0-1.66s0-.19.19-.19.54,0,1.88,0h.52v-1.29h-.94c-1.51,0-2,0-2.12,0s-.22,0-.22-.2v-1.15c0-.18,0-.2.22-.2s.61,0,2.12,0h.94a15.08,15.08,0,0,0-.11-2,15.16,15.16,0,0,1,1.8.13c.16,0,.25.09.25.19a.74.74,0,0,1-.09.31,2.54,2.54,0,0,0-.11,1v.32h.89c1.51,0,2,0,2.12,0s.22,0,.22.2v1.15c0,.18,0,.2-.22.2s-.61,0-2.12,0h-.89v1.29h.45c1.32,0,1.77,0,1.89,0s.2,0,.2.19,0,.6,0,1.66v2.61c0,1.08,0,1.55,0,1.67s0,.18-.2.18-.57,0-1.89,0h-.45v1.31h.44c1.51,0,2,0,2.14,0s.2,0,.2.19V154c0,.19,0,.21-.2.21s-.63,0-2.14,0h-.44v0c0,1.62,0,2.41,0,2.5s0,.2-.18.2h-1.42c-.2,0-.22,0-.22-.2s0-.9,0-2.53h-1.1c-1.51,0-2,0-2.14,0s-.2,0-.2-.21v-1.16c0-.18,0-.19.2-.19s.63,0,2.14,0Zm-.94-5.09h3.58v-1.1h-3.58Zm3.58,1.31h-3.58V150h3.58Zm9.47,3.42c0,.81,0,1.75,0,2.49a1.76,1.76,0,0,1-.51,1.45c-.37.33-.84.47-2.23.47-.56,0-.56,0-.66-.54a4.51,4.51,0,0,0-.51-1.29c.56,0,.92.05,1.48.05s.63-.14.63-.58v-3.24h-3a9,9,0,0,1-2.25,5.42c-.2.22-.29.33-.4.33s-.2-.09-.39-.29a4.12,4.12,0,0,0-1.1-.78c2.12-2.12,2.57-3.69,2.57-9.09v-2.61c0-1.74,0-2.64,0-2.77s0-.2.2-.2.55,0,1.87,0h2.23c1.31,0,1.74,0,1.87,0s.2,0,.2.2,0,1,0,2.77ZM255,149.49v-2.55h-2.77c0,.95,0,1.8-.08,2.55Zm-2.77-6.66v2.49H255v-2.49Z"/><path class="cls-2" d="M264.06,147.87c0-.88,0-1.51,0-1.9-.6.3-1.23.57-1.87.82a1.41,1.41,0,0,1-.42.13c-.14,0-.2-.13-.34-.47a3.72,3.72,0,0,0-.72-1.17,15.37,15.37,0,0,0,6.88-4.16,3.68,3.68,0,0,0,.73-1,13.36,13.36,0,0,1,1.89.34c.17,0,.31.11.31.2s-.05.14-.18.22l-.05,0A17,17,0,0,0,277.9,145a4.38,4.38,0,0,0-.69,1.26c-.12.34-.18.47-.32.47a1.41,1.41,0,0,1-.43-.11,16.05,16.05,0,0,1-2.16-.9c0,.27,0,.74,0,1.5v2.34c0,.55,0,1,0,1.24.52.3.95.57,1.37.86.12.09.21.18.21.29s-.11.2-.27.23a2.08,2.08,0,0,0-.57.33c-.62.45-1.21.9-2.09,1.46a21.44,21.44,0,0,0,4.44,1.11,4.87,4.87,0,0,0-.68,1.26c-.2.51-.22.54-.77.4a13.92,13.92,0,0,1-6.09-2.76,7,7,0,0,0-.09.8c0,.59,0,.59-.57.7-2.2.45-4.34.84-6,1.1a2.56,2.56,0,0,0-.7.21.48.48,0,0,1-.31.11q-.14,0-.21-.27a17.56,17.56,0,0,1-.34-1.75c.77,0,1.27-.07,1.92-.14l.51,0Zm4.24-2.59v-.14a8.8,8.8,0,0,0-.12-1.69c.66,0,1.17.05,1.82.12.18,0,.27.11.27.2a.59.59,0,0,1-.11.36,1.47,1.47,0,0,0-.11.79v.36h1.53c.85,0,1.44,0,1.85,0a15.35,15.35,0,0,1-4.21-3.33,16.33,16.33,0,0,1-4,3.35Zm-2.39,1.39v1h6.59v-1ZM272.5,149h-6.59v1.09h6.59Zm-6.59,5.45c1.19-.18,2.41-.4,3.76-.67a9.38,9.38,0,0,1-1.8-2.3h-2Zm3.91-3a6,6,0,0,0,1.6,1.64,18.14,18.14,0,0,0,2.18-1.62l-2,0Z"/><rect class="cls-3" x="112.71" y="405.99" width="295.1" height="93.24"/><path class="cls-2" d="M218,451.41c-1.6,0-2.13,0-2.25,0s-.18,0-.18-.2V450c0-.18,0-.2.18-.2s.65,0,2.25,0h4.53v-1.32h-2.34c-1.74,0-2.35,0-2.46,0s-.22,0-.22-.2v-1.2c0-.18,0-.2.22-.2s.72,0,2.46,0h2.34v-1.2h-3.15c-1.73,0-2.3,0-2.41,0s-.21,0-.21-.19v-1.25c0-.18,0-.19.21-.19s.68,0,2.41,0h3.15V444a7.6,7.6,0,0,0-.14-1.71c.65,0,1.35.06,2,.13.18,0,.27.11.27.18a1.1,1.1,0,0,1-.09.39,2,2,0,0,0-.13,1v.2h3.46c1.75,0,2.32,0,2.43,0s.2,0,.2.19v1.25c0,.18,0,.19-.2.19s-.68,0-2.43,0h-3.46V447h2.7c1.77,0,2.38,0,2.49,0s.2,0,.2.2v1.2c0,.18,0,.2-.2.2s-.72,0-2.49,0h-2.7v1.32h4.85c1.6,0,2.14,0,2.25,0s.18,0,.18.2v1.26c0,.18,0,.2-.18.2s-.65,0-2.25,0h-3.87a9,9,0,0,0,1.38,2.27,10.35,10.35,0,0,0,1.57-1.39,3.41,3.41,0,0,0,.56-.75,10.94,10.94,0,0,1,1.42.95.42.42,0,0,1,.18.27c0,.15-.07.22-.24.27a1.8,1.8,0,0,0-.59.36,19.42,19.42,0,0,1-1.8,1.41,10.35,10.35,0,0,0,4.19,2.1,5.11,5.11,0,0,0-.95,1.26c-.16.31-.23.42-.38.42a2.16,2.16,0,0,1-.43-.13,11.45,11.45,0,0,1-6.71-7h-.22a14.33,14.33,0,0,1-1.44,1.35v3.71c1.22-.23,2.45-.52,3.8-.88a5.17,5.17,0,0,0-.09,1.06c0,.56,0,.56-.58.7-2.21.58-4.3,1-6,1.28a1.82,1.82,0,0,0-.69.18.5.5,0,0,1-.29.11c-.12,0-.23-.06-.28-.25a15.89,15.89,0,0,1-.44-1.64c.71,0,1.39-.09,2.15-.18l.57-.07V454a19.28,19.28,0,0,1-3.27,1.58,1.22,1.22,0,0,1-.42.11c-.16,0-.23-.12-.4-.45a4,4,0,0,0-.75-1,14.94,14.94,0,0,0,5.78-2.86Z"/><path class="cls-2" d="M243.19,444.14a6.19,6.19,0,0,0-.22-1.31,17.79,17.79,0,0,1,2.11.25c.3.05.5.18.5.34a.74.74,0,0,1-.16.41,1.81,1.81,0,0,0-.15.53c0,.23,0,.46,0,1.15,1.94-.07,3.8-.09,5.52-.09.22,0,.26,0,.27.27,0,.45,0,.92,0,1.37,0,.19-.09.25-.3.23-1.87-.05-3.62-.05-5.49,0,0,1.1,0,2.25,0,3.35a5.63,5.63,0,0,1,.27,1.78,6.73,6.73,0,0,1-3.21,5.82,1.65,1.65,0,0,1-.7.34,1.06,1.06,0,0,1-.54-.27,3.93,3.93,0,0,0-1.37-.72,6,6,0,0,0,3.69-4,2.09,2.09,0,0,1-1.69.72,2.49,2.49,0,0,1-2.5-2.75,2.62,2.62,0,0,1,2.72-2.7,2.12,2.12,0,0,1,1.36.36c0-.63,0-1.25,0-1.84-2.27.13-4.81.34-6.23.54-.4.05-.69.22-.85.22s-.25-.08-.3-.26a11.49,11.49,0,0,1-.45-1.81,11.4,11.4,0,0,0,2.19-.08c1.1-.09,3.42-.23,5.58-.36C243.2,445.08,243.2,444.63,243.19,444.14Zm-2.31,7.29a1.12,1.12,0,0,0,1.15,1.22,1.16,1.16,0,0,0,1.23-1.24,1.08,1.08,0,0,0-1.19-1.15A1.15,1.15,0,0,0,240.88,451.43Z"/><path class="cls-2" d="M258.18,448.57c0,.63,0,1.51,0,2.16,0,.29,0,.3-.33.32-.5,0-1.08,0-1.58,0-.23,0-.34,0-.34-.2.05-.72.09-1.53.09-2.28v-1.69c0-1.05,0-1.68-.07-2.34,0-.11.09-.18.23-.18.79,0,1.93.07,3,.07h6.06a1.84,1.84,0,0,0,1.1-.2.4.4,0,0,1,.23-.11.66.66,0,0,1,.35.16,9,9,0,0,1,1.33,1.19.5.5,0,0,1,.12.33.51.51,0,0,1-.16.34,3,3,0,0,0-.45,1.06,24.86,24.86,0,0,1-2.19,5.56,17.69,17.69,0,0,1-4,4.93.56.56,0,0,1-.43.2.6.6,0,0,1-.36-.12,5.18,5.18,0,0,0-1.73-.69,15.42,15.42,0,0,0,4.56-5.2,19.6,19.6,0,0,0,2.07-5.56h-7.49Z"/><path class="cls-2" d="M276.54,451.86a14.24,14.24,0,0,0-2.65.22c-.21,0-.36-.11-.41-.38a18.93,18.93,0,0,1-.27-2.18,23.07,23.07,0,0,0,3.89.22h5.79c1.37,0,2.76,0,4.14-.06.27,0,.33,0,.33.26a15.88,15.88,0,0,1,0,1.69c0,.21-.07.29-.33.27-1.35,0-2.68,0-4,0Z"/><path class="cls-2" d="M301.33,445.85a1.67,1.67,0,0,0,.9-.22.37.37,0,0,1,.23-.07.55.55,0,0,1,.29.11,8.53,8.53,0,0,1,1.22,1,.62.62,0,0,1,.24.42.49.49,0,0,1-.22.37,2.15,2.15,0,0,0-.59.78,24.79,24.79,0,0,1-3.57,5.56,22.83,22.83,0,0,1-5.47,4.48.51.51,0,0,1-.29.09.61.61,0,0,1-.41-.2,4.62,4.62,0,0,0-1.71-.82,20.81,20.81,0,0,0,6-4.59,18.43,18.43,0,0,0,3.33-5.12l-4.35.13a25.14,25.14,0,0,1-3.41,3.69.53.53,0,0,1-.37.2.45.45,0,0,1-.27-.11,4.87,4.87,0,0,0-1.73-.77A21.53,21.53,0,0,0,296,445.4,7.88,7.88,0,0,0,297,443a9.28,9.28,0,0,1,2.11.95.39.39,0,0,1,.18.31.37.37,0,0,1-.2.31,1.73,1.73,0,0,0-.45.48l-.59.9Z"/><rect class="cls-1" x="112.71" y="172.47" width="295.1" height="93.6"/><path class="cls-2" d="M207.44,222.71c0,.41.09.54.32.59a6.28,6.28,0,0,0,1.41.09,3.55,3.55,0,0,0,1.54-.23c.29-.22.43-.7.45-1.91a6,6,0,0,0,1.32.63c.45.16.45.16.39.61-.11,1.26-.34,1.73-.84,2.09a5.69,5.69,0,0,1-3,.53,8.69,8.69,0,0,1-2.72-.25,1.17,1.17,0,0,1-.74-1.27v-3.72H204a6.45,6.45,0,0,1-5.53,5.53,1.88,1.88,0,0,1-.38.06c-.18,0-.23-.09-.41-.45a4.38,4.38,0,0,0-.88-1.17c3.18-.39,4.85-1.72,5.21-4h0c-1.75,0-2.32,0-2.43,0s-.22,0-.22-.2,0-.79,0-2.19v-5.37c0-1.43,0-2.1,0-2.22s0-.2.22-.2.72,0,2.46,0h5.8c1.73,0,2.34,0,2.47,0s.19,0,.19.2,0,.79,0,2.22v5.37c0,1.4,0,2.08,0,2.19s0,.2-.19.2-.74,0-2.47,0h-.32Zm-6.27-11.31v1.31h7.35V211.4Zm7.35,4.09v-1.27h-7.35v1.27Zm0,1.51h-7.35v1.33h7.35Z"/><path class="cls-2" d="M219.88,213.75a23.52,23.52,0,0,1,6.47-1.49c3.23,0,5.3,1.94,5.3,4.76a5.21,5.21,0,0,1-3.17,5,15.5,15.5,0,0,1-4.57,1.49c-.36.07-.51.05-.63-.29a3.43,3.43,0,0,0-1.26-1.42,16.49,16.49,0,0,0,4.87-1.33,3.92,3.92,0,0,0,2.49-3.57c0-1.69-1.1-2.73-3.1-2.73a17.6,17.6,0,0,0-6.49,1.85,12.52,12.52,0,0,0-1.25.65c-.25.21-.39.27-.48.27s-.33-.11-.52-.38a10.11,10.11,0,0,1-1.16-1.87A16.21,16.21,0,0,0,219.88,213.75Z"/><path class="cls-2" d="M240,223.57c0,.13-.05.18-.24.25a4.13,4.13,0,0,1-1.24.38c-.21,0-.3,0-.41-.23a15.25,15.25,0,0,1-1.06-5.57,40.64,40.64,0,0,1,.54-5.75,18.9,18.9,0,0,0,.2-2.67,8.5,8.5,0,0,1,1.88.63c.29.14.4.27.4.39a.63.63,0,0,1-.11.36,11.41,11.41,0,0,0-.34,1.33,33.61,33.61,0,0,0-.68,5.39,14.62,14.62,0,0,0,.18,2.83c.45-.95.77-1.56,1.2-2.56a5.58,5.58,0,0,0,.6,1.2.51.51,0,0,1,.16.34c0,.13,0,.23-.22.59a14.12,14.12,0,0,0-.81,2.19,2.69,2.69,0,0,0-.05.47Zm6.23-8.13c-1,.07-1.64.1-2.16.1s-.85,0-1.52,0c-.25,0-.39-.09-.41-.28-.07-.36-.11-.85-.2-1.64a20.89,20.89,0,0,0,2.23.09c.51,0,1.36,0,2-.07,0-.9,0-1.7-.1-2.39a6,6,0,0,0-.31-1.47,11.69,11.69,0,0,1,2.32.25c.2.06.29.15.29.29a.66.66,0,0,1-.13.36,2.32,2.32,0,0,0-.09.75v2c.78-.11,1.55-.24,2.31-.4.21-.05.3,0,.32.16.07.45.11.88.14,1.35,0,.23-.07.3-.23.32-.86.16-1.65.27-2.48.36V218a9.19,9.19,0,0,1-.79,4.16,6.24,6.24,0,0,1-2.57,2.78.79.79,0,0,1-.45.17.36.36,0,0,1-.36-.17,6.08,6.08,0,0,0-1.4-.87,5.87,5.87,0,0,0,3-3,10.18,10.18,0,0,0,.56-4Z"/><path class="cls-2" d="M260.27,216.55a5.47,5.47,0,0,1,2.86-.81,4.17,4.17,0,0,1,4.46,4.31c0,3-2.43,4.92-6.28,4.92-2.27,0-3.63-1-3.63-2.64a2.38,2.38,0,0,1,2.53-2.19,3.28,3.28,0,0,1,3.39,2.62,2.69,2.69,0,0,0,1.83-2.73,2.62,2.62,0,0,0-2.82-2.71,7.34,7.34,0,0,0-4.61,1.91c-.52.46-1,1-1.57,1.52-.12.13-.21.2-.3.2a.44.44,0,0,1-.27-.16,7.73,7.73,0,0,1-1.06-1.17c-.11-.14-.06-.27.09-.41a43.36,43.36,0,0,0,4.26-4c1.12-1.15,2-2.05,2.79-3.07-1.08.2-2.36.45-3.47.68a6.1,6.1,0,0,0-.76.22,1.58,1.58,0,0,1-.36.09c-.18,0-.3-.09-.39-.31a8.13,8.13,0,0,1-.63-1.94,7.78,7.78,0,0,0,1.67,0c1.1-.11,2.68-.34,4.09-.61a4.78,4.78,0,0,0,1-.27,1,1,0,0,1,.34-.14.62.62,0,0,1,.41.14,6.77,6.77,0,0,1,1.21,1.15.65.65,0,0,1,.2.43.47.47,0,0,1-.31.43,2.82,2.82,0,0,0-.79.57c-1.32,1.28-2.52,2.54-3.89,3.85Zm0,5.12c-.53,0-.87.3-.87.68,0,.56.49.93,1.57.93a3.62,3.62,0,0,0,.83-.07C261.58,222.22,261,221.67,260.29,221.67Z"/><path class="cls-2" d="M275.15,215.24c0,.63,0,1.51,0,2.15,0,.29,0,.31-.32.33-.51,0-1.08,0-1.59,0-.23,0-.34,0-.34-.2.06-.72.09-1.53.09-2.28v-1.69c0-1,0-1.67-.07-2.33,0-.11.09-.18.23-.18.8,0,1.93.07,3,.07h6.07a1.82,1.82,0,0,0,1.09-.2.4.4,0,0,1,.24-.1.55.55,0,0,1,.34.16,7.67,7.67,0,0,1,1.33,1.18.51.51,0,0,1,.13.33.56.56,0,0,1-.16.34,2.77,2.77,0,0,0-.45,1.06,24.72,24.72,0,0,1-2.2,5.54,17.79,17.79,0,0,1-4,4.92.59.59,0,0,1-.43.2.57.57,0,0,1-.36-.13,5.39,5.39,0,0,0-1.73-.68,15.25,15.25,0,0,0,4.55-5.19,18.89,18.89,0,0,0,2.07-5.54h-7.49Z"/><path class="cls-2" d="M293.51,218.53a14.7,14.7,0,0,0-2.64.21c-.22,0-.36-.11-.42-.38a21.23,21.23,0,0,1-.27-2.17,23.07,23.07,0,0,0,3.89.22h5.8c1.37,0,2.75,0,4.14-.06.27,0,.32,0,.32.25a11.92,11.92,0,0,1,0,1.69c0,.22-.07.29-.32.27l-4,0Z"/><path class="cls-2" d="M318.3,212.53a1.65,1.65,0,0,0,.9-.22.37.37,0,0,1,.23-.07.55.55,0,0,1,.29.11,8.63,8.63,0,0,1,1.23,1,.58.58,0,0,1,.23.41.51.51,0,0,1-.22.38,2.2,2.2,0,0,0-.59.77,25.29,25.29,0,0,1-3.56,5.55,22.86,22.86,0,0,1-5.48,4.47.46.46,0,0,1-.28.09.63.63,0,0,1-.42-.2,4.62,4.62,0,0,0-1.71-.82,21,21,0,0,0,6-4.58,18.31,18.31,0,0,0,3.33-5.1l-4.36.12a25,25,0,0,1-3.4,3.68.55.55,0,0,1-.38.2.39.39,0,0,1-.27-.11,5,5,0,0,0-1.73-.77,21.12,21.12,0,0,0,4.84-5.33,7.56,7.56,0,0,0,1.07-2.42,8.73,8.73,0,0,1,2.1,1,.37.37,0,0,1,.18.3.35.35,0,0,1-.2.31,2.08,2.08,0,0,0-.45.48c-.19.31-.37.58-.59.9Z"/><line class="cls-4" x1="112.71" y1="79.11" x2="407.81" y2="79.11"/><line class="cls-4" x1="112.71" y1="125.79" x2="407.81" y2="125.79"/><line class="cls-4" x1="112.71" y1="312.75" x2="407.81" y2="312.75"/><line class="cls-4" x1="112.71" y1="405.87" x2="407.81" y2="405.87"/><rect class="cls-3" x="112.71" y="546.03" width="295.1" height="46.8"/><path class="cls-2" d="M248.83,571.22c0,.81,0,1.69,0,2.41a1.9,1.9,0,0,1-.44,1.49c-.35.27-.78.36-1.95.38-.56,0-.56,0-.68-.54a4.06,4.06,0,0,0-.45-1.15c.63.05,1.11.07,1.54.07s.47-.14.47-.57V570.8h-3.6a11.12,11.12,0,0,1-1.06,4.34c-.13.23-.2.34-.29.34s-.14-.07-.25-.19a4.25,4.25,0,0,0-1-1c.94-1.73,1.25-3.37,1.25-6.89V565l-.15.16c-.14.16-.23.25-.3.25s-.17-.13-.29-.36a4.14,4.14,0,0,0-.7-.92,11.5,11.5,0,0,0,2.43-3.78,4.87,4.87,0,0,0,.34-1.22,10.53,10.53,0,0,1,1.51.36c.2,0,.29.14.29.25a.38.38,0,0,1-.15.29,1.9,1.9,0,0,0-.37.61h1.76a1,1,0,0,0,.34,0,.43.43,0,0,1,.24-.07c.09,0,.19.05.59.37s.45.42.45.52,0,.2-.2.33a1.6,1.6,0,0,0-.36.5c-.23.49-.47.94-.7,1.33,1.06,0,1.44,0,1.55,0s.21,0,.21.2,0,.77,0,2.08Zm-3.42-7.64a15,15,0,0,0,.76-1.56h-1.79a15.64,15.64,0,0,1-.93,1.56Zm-.51,5.84v-1.57h-1c0,.56,0,1.1,0,1.57Zm0-3V565h-1v1.51Zm1.43-1.51v1.51h1V565Zm1,4.47v-1.57h-1v1.57Zm5.46-2.36a7.3,7.3,0,0,0-.11-1.39c.59,0,1.22.06,1.73.11.16,0,.23.07.23.18a.8.8,0,0,1-.09.31,2.39,2.39,0,0,0-.09.79v.47c1.78,0,2.41,0,2.52,0s.2,0,.2.2v1.21c0,.19,0,.21-.2.21s-.74,0-2.52,0v1.67h.81c1.57,0,2.09,0,2.2,0s.19,0,.19.2v1.24c0,.2,0,.22-.19.22s-.63,0-2.2,0h-.81v.72c0,1.5,0,2.24,0,2.32s0,.2-.2.2H253c-.2,0-.22,0-.22-.2s0-.82,0-2.32v-.72h-1.05c-1.56,0-2.1,0-2.21,0s-.2,0-.2-.22v-1.24c0-.18,0-.2.2-.2s.65,0,2.21,0h1.05v-1.67h-1.68c-.12.32-.27.61-.39.9s-.22.39-.33.39a.9.9,0,0,1-.41-.21,5.41,5.41,0,0,0-1-.44,11.66,11.66,0,0,0,1.21-2.66,5.5,5.5,0,0,0,.18-1,13.47,13.47,0,0,1,1.35.37c.19.08.28.13.28.22a.27.27,0,0,1,0,.2,1.31,1.31,0,0,0-.23.56l0,.09h1.12Zm-3.33-6.82c0-.18,0-.2.19-.2s.6,0,2.09,0h3c1.48,0,2,0,2.09,0s.24.05.22.21l0,.91a9.38,9.38,0,0,1-.45,3.29,1.73,1.73,0,0,1-1.69.9,8.21,8.21,0,0,1-1,0c-.49,0-.54,0-.58-.47a3.47,3.47,0,0,0-.34-1.26,7.11,7.11,0,0,0,1.28.15c.52,0,.66-.09.77-.45a7.41,7.41,0,0,0,.2-1.69h-2a5.49,5.49,0,0,1-2.7,4.12c-.2.12-.31.2-.4.2s-.18-.11-.34-.36a3.44,3.44,0,0,0-.88-.9,3.94,3.94,0,0,0,2.55-3.06c-1.33,0-1.8,0-1.89,0s-.19,0-.19-.2Z"/><path class="cls-2" d="M263.5,565.78c-1.6,0-2.12,0-2.23,0s-.2,0-.2-.2v-1.17c0-.18,0-.2.2-.2s.54,0,1.72,0v-1.53l-1.33,0c-.2,0-.21,0-.21-.21v-1.17c0-.18,0-.2.21-.2s.42,0,1.33,0a11.92,11.92,0,0,0-.12-2c.65,0,1.1.06,1.71.13.2,0,.29.11.29.2a1.41,1.41,0,0,1-.13.43,4.78,4.78,0,0,0-.09,1.27h1.71a11.88,11.88,0,0,0-.13-2c.65,0,1.1.06,1.71.13.22,0,.31.11.31.2a1.33,1.33,0,0,1-.13.46,4.4,4.4,0,0,0-.1,1.24c.88,0,1.2,0,1.29,0s.2,0,.2.2v1.17c0,.2,0,.21-.2.21l-1.29,0v1.53c1,0,1.38,0,1.47,0s.2,0,.2.2v1.21a17.31,17.31,0,0,0,1.82-4.94,12.26,12.26,0,0,0,.25-1.6c.61.11,1.1.22,1.64.36.23.06.36.14.36.27a.42.42,0,0,1-.13.29,3.22,3.22,0,0,0-.36.94l-.39,1.38h2.17c1.62,0,2.18,0,2.29,0s.2,0,.2.19v1.28c0,.2,0,.22-.2.22s-.36,0-1,0a16,16,0,0,1-1.78,6.93,12.67,12.67,0,0,0,3.29,2.84,4.61,4.61,0,0,0-.85,1.28c-.12.29-.19.4-.3.4s-.22-.08-.43-.22a15.65,15.65,0,0,1-2.78-2.72,12.41,12.41,0,0,1-3.14,2.79.87.87,0,0,1-.42.18c-.13,0-.2-.11-.36-.37a4.54,4.54,0,0,0-.83-1,1.36,1.36,0,0,1-.39,1c-.31.25-.56.38-1.79.39-.55,0-.57,0-.66-.41a5.32,5.32,0,0,0-.43-1.15,8.86,8.86,0,0,0,1,.05c.5,0,.61-.18.61-.54v-.92h-3.21V573c0,1.58,0,2.3,0,2.39s0,.2-.22.2H262.4c-.18,0-.2,0-.2-.2s0-.75,0-2.37v-4.2c0-1.33,0-1.93,0-2s0-.22.2-.22.58,0,1.91,0h2.39c1.33,0,1.78,0,1.89,0s.2,0,.2.36c0,.11,0,.65,0,2v2.16c0,.89,0,1.89,0,2.44a2.82,2.82,0,0,1,0,.42,10.88,10.88,0,0,0,3.71-3.06,16.35,16.35,0,0,1-1.53-4c-.18.33-.4.65-.61,1-.15.19-.24.28-.33.28s-.18-.09-.32-.3a3.86,3.86,0,0,0-.85-1,7.94,7.94,0,0,0,.74-1.08h-.09c-.11,0-.65,0-2.25,0Zm.39,2.32V569h3.21v-.89Zm3.21,3.08v-.9h-3.21v.9Zm-.74-6.89v-1.53h-1.71v1.53Zm6-.31c-.07.22-.16.42-.24.61a15.75,15.75,0,0,0,1.43,4.65,15.81,15.81,0,0,0,1.11-5.26Z"/><line class="cls-4" x1="112.71" y1="592.59" x2="407.81" y2="592.59"/><rect class="cls-1" x="112.71" y="499.23" width="295.1" height="46.8"/><path class="cls-2" d="M216.54,517.29a1.69,1.69,0,0,0,.91-.22.37.37,0,0,1,.23-.07.48.48,0,0,1,.29.11,7.88,7.88,0,0,1,1.22,1,.58.58,0,0,1,.23.41.53.53,0,0,1-.21.38,2.2,2.2,0,0,0-.59.77,24.56,24.56,0,0,1-3.57,5.56,22.88,22.88,0,0,1-5.47,4.49.51.51,0,0,1-.29.09.66.66,0,0,1-.41-.2,4.79,4.79,0,0,0-1.71-.83,20.63,20.63,0,0,0,6-4.59,18.37,18.37,0,0,0,3.33-5.11l-4.35.13a25.68,25.68,0,0,1-3.41,3.69.56.56,0,0,1-.37.19.42.42,0,0,1-.28-.11,4.91,4.91,0,0,0-1.72-.77,21.36,21.36,0,0,0,4.84-5.35,7.73,7.73,0,0,0,1.06-2.42,8.85,8.85,0,0,1,2.11,1,.39.39,0,0,1,.18.3.37.37,0,0,1-.2.31,1.93,1.93,0,0,0-.45.49l-.59.9Z"/><path class="cls-2" d="M227.54,526.75v1.07c0,.3-.07.34-.39.36s-1,0-1.42,0-.4-.06-.38-.27c0-.94.05-2.22.05-3.59v-4.41c0-1,0-1.94,0-3,0-.19.07-.26.19-.26,1,.06,2,.06,3.23.06h4.28c1.17,0,2.54,0,3.38,0,.2,0,.26.09.24.36,0,.88,0,1.86,0,2.92v4.3c0,1.56.05,2.45.09,3.42,0,.25-.09.3-.34.3-.54,0-1.12,0-1.66,0-.21,0-.23,0-.23-.28v-1Zm7-8.11h-7v6.21h7Z"/><path class="cls-2" d="M245.51,523.3a14.9,14.9,0,0,0-2.65.21.39.39,0,0,1-.41-.37,19.55,19.55,0,0,1-.27-2.18,23.24,23.24,0,0,0,3.89.21h5.79c1.37,0,2.76,0,4.14,0,.27,0,.33,0,.33.25a15.88,15.88,0,0,1,0,1.69c0,.22-.08.29-.33.27l-4,0Z"/><path class="cls-2" d="M261.49,519.68c.09-.13.18-.22.34-.18a12.79,12.79,0,0,1,3.46,1.76c.13.09.2.17.2.27a.6.6,0,0,1-.07.2,7.13,7.13,0,0,1-.8,1.37c-.09.11-.16.18-.23.18a.38.38,0,0,1-.22-.11,15.93,15.93,0,0,0-3.63-2C261,520.49,261.28,520,261.49,519.68Zm2.92,6.68a30.23,30.23,0,0,0,4.93-3.12,31.87,31.87,0,0,0,5.18-5,9.27,9.27,0,0,0,.53,2,.91.91,0,0,1,.09.34.57.57,0,0,1-.2.41,34.28,34.28,0,0,1-4.57,4.16,41.42,41.42,0,0,1-5.39,3.39,5.7,5.7,0,0,0-1,.61.39.39,0,0,1-.29.14.48.48,0,0,1-.36-.21,11.81,11.81,0,0,1-1.33-1.84A8.15,8.15,0,0,0,264.41,526.36Zm-.74-10.82c.13-.22.23-.25.45-.14a12.12,12.12,0,0,1,3.38,2,.31.31,0,0,1,.15.24.46.46,0,0,1-.07.23,8.38,8.38,0,0,1-.92,1.35.21.21,0,0,1-.18.11.43.43,0,0,1-.27-.13,17.64,17.64,0,0,0-3.49-2.21C263,516.51,263.36,516,263.67,515.54Zm8.24-.56c.09-.07.17-.05.27,0a8.15,8.15,0,0,1,1.71,1.92.18.18,0,0,1-.05.29l-.76.56a.19.19,0,0,1-.3,0,8.83,8.83,0,0,0-1.82-2.09Zm1.61-1.17c.1-.07.16,0,.27,0a7.63,7.63,0,0,1,1.71,1.85.21.21,0,0,1-.06.33l-.72.55a.18.18,0,0,1-.3-.05,8.82,8.82,0,0,0-1.8-2.07Z"/><path class="cls-2" d="M280.48,516.24a.33.33,0,0,1,.25-.14.42.42,0,0,1,.24.09,18.61,18.61,0,0,1,3.44,2.55c.1.11.16.18.16.25a.4.4,0,0,1-.11.24c-.27.36-.86,1.08-1.12,1.35-.09.09-.14.14-.21.14a.38.38,0,0,1-.24-.14,18.68,18.68,0,0,0-3.67-2.93C279.62,517.16,280.14,516.6,280.48,516.24Zm1.57,9.49a27.09,27.09,0,0,0,5.18-3.35,26.61,26.61,0,0,0,4.93-4.9,8,8,0,0,0,.51,2.11,1,1,0,0,1,.09.34.87.87,0,0,1-.29.54,28.86,28.86,0,0,1-4.14,3.82,38.53,38.53,0,0,1-5.44,3.53,6,6,0,0,0-1.2.82.5.5,0,0,1-.33.18c-.09,0-.19-.07-.3-.2a12.35,12.35,0,0,1-1.44-2A11.66,11.66,0,0,0,282.05,525.73Z"/><path class="cls-2" d="M306.6,517.45a1.65,1.65,0,0,0,.9-.22.37.37,0,0,1,.23-.07.55.55,0,0,1,.29.11,8.63,8.63,0,0,1,1.23,1,.58.58,0,0,1,.23.41.51.51,0,0,1-.22.38,2.15,2.15,0,0,0-.59.78,25.39,25.39,0,0,1-3.56,5.56,22.91,22.91,0,0,1-5.48,4.48.46.46,0,0,1-.28.09.63.63,0,0,1-.42-.2,4.79,4.79,0,0,0-1.71-.83,20.65,20.65,0,0,0,6-4.59,18.22,18.22,0,0,0,3.33-5.11l-4.36.13a25.75,25.75,0,0,1-3.4,3.69.59.59,0,0,1-.38.2.45.45,0,0,1-.27-.11,4.88,4.88,0,0,0-1.73-.78,21.14,21.14,0,0,0,4.84-5.34,7.69,7.69,0,0,0,1.07-2.43,8.73,8.73,0,0,1,2.1.95.37.37,0,0,1,.18.31.34.34,0,0,1-.2.3,2.13,2.13,0,0,0-.45.49c-.19.31-.37.58-.59.9Zm2.23-2.43c.09-.07.16-.06.27,0a8.22,8.22,0,0,1,1.71,1.93.19.19,0,0,1-.05.29l-.76.56a.19.19,0,0,1-.3-.06,9,9,0,0,0-1.82-2.09Zm1.6-1.17c.11-.07.17-.06.27,0a7.45,7.45,0,0,1,1.71,1.86.2.2,0,0,1-.05.32l-.72.56c-.14.11-.23,0-.31,0a8.43,8.43,0,0,0-1.8-2.08Z"/><line class="cls-4" x1="112.71" y1="545.79" x2="407.81" y2="545.79"/><line class="cls-4" x1="112.71" y1="499.23" x2="407.81" y2="499.23"/><line class="cls-4" x1="112.71" y1="172.47" x2="407.81" y2="172.47"/><line class="cls-4" x1="112.71" y1="266.07" x2="407.81" y2="266.07"/><path class="cls-2" d="M243.75,100.91c-1.54,0-2.08,0-2.19,0s-.18,0-.18-.18V99.44c0-.18,0-.2.18-.2s.65,0,2.19,0H245V97.53h-.74c-1.44,0-1.93,0-2,0s-.2,0-.2-.19v-1.3c0-.18,0-.2.2-.2s.59,0,2,0H245a13.45,13.45,0,0,0-.13-2.36,16.18,16.18,0,0,1,1.8.13c.18,0,.27.09.27.19a.74.74,0,0,1-.09.31,5.84,5.84,0,0,0-.09,1.37v.36H247c1.46,0,1.91,0,2,0s.21,0,.21.2v1.3c0,.18,0,.19-.21.19s-.56,0-2,0h-.27v1.74h.51c1.54,0,2.08,0,2.19,0s.2,0,.2.2v1.33c0,.16,0,.18-.2.18s-.65,0-2.19,0h-.4v2h1.08c.81,0,1.13,0,1.24,0s.2,0,.2.2v1.32c0,.16,0,.18-.2.18s-.43,0-1.24,0h-1.08v2.74a11.44,11.44,0,0,0,4.3.63,53.73,53.73,0,0,0,6.9-.42,4.27,4.27,0,0,0-.53,1.41c-.1.57-.1.57-.66.61-1.87.14-3.51.18-5.56.18a10.89,10.89,0,0,1-5.49-1.06,5.85,5.85,0,0,1-2.31-2.24,15.54,15.54,0,0,1-1,3c-.14.3-.23.45-.34.45s-.18-.13-.32-.35a3.65,3.65,0,0,0-.9-1,11.91,11.91,0,0,0,1.47-5.56,7.36,7.36,0,0,0,0-1.15,12.36,12.36,0,0,1,1.52.25c.21,0,.3.11.3.22a.72.72,0,0,1-.09.27,2.41,2.41,0,0,0-.12.7c0,.47-.09,1-.16,1.44a5.85,5.85,0,0,0,1.31,1.6v-5.33Zm8.41-4.61c-1.37,0-1.78,0-1.89,0s-.2,0-.2-.2V94.85c0-.18,0-.2.2-.2s.52,0,1.89,0h2.61c1.1,0,1.55,0,1.65,0s.22,0,.22.2,0,.63,0,1.76V99c0,1.14,0,1.66,0,1.77s0,.18-.22.18-.55,0-1.65,0h-2.63v3.28c0,.37,0,.57.13.7s.63.23,1.53.23,1.29,0,1.58-.32.34-.72.38-1.89a5.53,5.53,0,0,0,1.2.5c.56.15.56.15.54.72a3,3,0,0,1-.82,2.11c-.47.41-1.19.63-3,.63s-2.56-.16-2.9-.47-.45-.67-.45-1.42v-3.78c0-1.08,0-1.62,0-1.73s0-.22.2-.22.58,0,1.59,0h2.71v-3Z"/><path class="cls-2" d="M267.67,102.17c-1.76,0-2.37,0-2.48,0s-.2,0-.2-.2v-1.37c0-.18,0-.2.2-.2s.72,0,2.48,0h1.84V99.9a11.74,11.74,0,0,0-.13-2.14c.65,0,1.23.06,1.84.13.18,0,.29.11.29.2a1.74,1.74,0,0,1-.13.46,6.68,6.68,0,0,0-.09,1.34v.59h2.59c1.77,0,2.38,0,2.49,0s.2,0,.2.2V102c0,.18,0,.2-.2.2s-.72,0-2.49,0h-1.8a15.37,15.37,0,0,0,5.46,4.75,5.33,5.33,0,0,0-.83,1.25c-.14.28-.2.41-.31.41s-.19-.07-.39-.22a16.56,16.56,0,0,1-4.75-4.86c0,4,.09,5.75.09,6.38,0,.18,0,.19-.2.19h-1.5c-.18,0-.19,0-.19-.19,0-.62.07-2.34.09-6.2a15.51,15.51,0,0,1-4.61,4.88.8.8,0,0,1-.38.22c-.13,0-.2-.13-.34-.42a5.35,5.35,0,0,0-.76-1,11.35,11.35,0,0,1-.9,2.11c-.12.21-.2.32-.29.32s-.18-.09-.34-.27a4.08,4.08,0,0,0-1.19-1,10.49,10.49,0,0,0,1.46-4,32.42,32.42,0,0,0,.33-5.24c0-2.3,0-3.35,0-3.45s0-.22.2-.22.7,0,2.41,0h3.74v-.63a7.37,7.37,0,0,0-.12-1.46c.68,0,1.31,0,1.91.11.18,0,.3.1.3.18a.8.8,0,0,1-.11.34,1.77,1.77,0,0,0-.14.77v.69h3.6c1.71,0,2.3,0,2.41,0s.2,0,.2.22v1.33c0,.18,0,.2-.2.2s-.7,0-2.41,0h-9.9v2.32a30.27,30.27,0,0,1-.4,5.74,13.65,13.65,0,0,1-.46,1.86,13.57,13.57,0,0,0,5.14-5Z"/><rect class="cls-2" x="112.71" y="11.96" width="295.1" height="2"/><rect class="cls-2" x="112.71" y="6.33" width="295.1" height="3"/><path class="cls-2" d="M6.2,4.91a8.71,8.71,0,0,1,4.11.94,6.82,6.82,0,0,1,2.8,2.65,7.43,7.43,0,0,1,1,3.84,7.34,7.34,0,0,1-1,3.85,6.8,6.8,0,0,1-2.85,2.61A9.4,9.4,0,0,1,6,19.72H0V4.91ZM5.9,17.48a5.19,5.19,0,0,0,3.82-1.42,5.07,5.07,0,0,0,1.43-3.74A5,5,0,0,0,9.71,8.53a5.43,5.43,0,0,0-3.9-1.38H2.86V17.48Z"/><path class="cls-2" d="M28.63,4.91l6.54,14.81h-3l-1.54-3.61H24L22.6,19.72h-3L25.7,4.91Zm-3.73,9h4.78l-2.5-5.86Z"/><path class="cls-2" d="M43.18,4.91l3.58,4.95,3.63-4.95h3.4l-5.6,7.47v7.34H45.33V12.36L39.7,4.91Z"/><path class="cls-2" d="M63.94,20.29v-3l7.88-7.17a9.19,9.19,0,0,0,1.65-1.92,3.79,3.79,0,0,0,.6-2,3.17,3.17,0,0,0-.93-2.33A3.29,3.29,0,0,0,70.71,3a3.78,3.78,0,0,0-1.3.23,3.33,3.33,0,0,0-1.09.65,2.94,2.94,0,0,0-.75,1.08,3.76,3.76,0,0,0-.28,1.46H64a6.45,6.45,0,0,1,.52-2.6,6.11,6.11,0,0,1,1.44-2A6.17,6.17,0,0,1,68.06.46,7.38,7.38,0,0,1,70.71,0,7.48,7.48,0,0,1,73.4.46a6.4,6.4,0,0,1,2.12,1.28,5.86,5.86,0,0,1,1.38,2,6.11,6.11,0,0,1,.49,2.49,4.87,4.87,0,0,1-.28,1.69,7,7,0,0,1-.76,1.52,13.21,13.21,0,0,1-1.14,1.43c-.44.47-.9.94-1.4,1.42l-5.38,5.08h9.48v3Z"/><path class="cls-2" d="M34.47,117.08h9.58v2.49l-5.7,14.92H35.66l5.69-14.92H36.88v2.52H34.47Z"/><path class="cls-2" d="M48.12,121.68h2.3V124h-2.3Zm0,5.29h2.3v2.37h-2.3Z"/><path class="cls-2" d="M55.5,121.94A4.74,4.74,0,0,1,57,118.23a4.64,4.64,0,0,1,3.29-1.29,4.71,4.71,0,0,1,3.34,1.29,5,5,0,0,1,1.45,3.71v7.68a5,5,0,0,1-1.45,3.7,4.77,4.77,0,0,1-3.34,1.31,4.78,4.78,0,0,1-4.78-5Zm7.16.15c0-1.74-.84-2.63-2.38-2.66s-2.35.92-2.38,2.66v7.39c0,1.76.82,2.65,2.38,2.67s2.33-.91,2.38-2.67Z"/><path class="cls-2" d="M68.34,121.94a4.77,4.77,0,0,1,1.49-3.71,4.9,4.9,0,0,1,6.63,0,4.94,4.94,0,0,1,1.45,3.71v7.68a4.92,4.92,0,0,1-1.45,3.7,4.81,4.81,0,0,1-8.12-3.69Zm7.16.15c0-1.74-.84-2.63-2.38-2.66s-2.34.92-2.37,2.66v7.39q0,2.64,2.37,2.67c1.54,0,2.34-.91,2.38-2.67Z"/><path class="cls-2" d="M34.23,176.09a4.55,4.55,0,0,1,2.06-3.92,5.09,5.09,0,0,1-1.22-1.56,3.64,3.64,0,0,1-.51-2A5,5,0,0,1,36,165.06a4.56,4.56,0,0,1,3.41-1.44,4.67,4.67,0,0,1,3.46,1.44,5,5,0,0,1,1.37,3.59,3.92,3.92,0,0,1-.46,2,5.77,5.77,0,0,1-1.27,1.56,4.52,4.52,0,0,1,2.06,3.92,5,5,0,0,1-1.5,3.75,5.1,5.1,0,0,1-3.66,1.47,5.12,5.12,0,0,1-5.16-5.22Zm2.41,0a2.61,2.61,0,0,0,.84,2,2.7,2.7,0,0,0,3.84,0,2.79,2.79,0,0,0,0-3.95,2.75,2.75,0,0,0-3.84,0A2.63,2.63,0,0,0,36.64,176.07ZM37,168.6a2.42,2.42,0,0,0,2.43,2.51,2.39,2.39,0,0,0,2.43-2.51,2.45,2.45,0,0,0-.74-1.88,2.62,2.62,0,0,0-3.36,0A2.42,2.42,0,0,0,37,168.6Z"/><path class="cls-2" d="M48.56,168.36h2.3v2.36h-2.3Zm0,5.29h2.3V176h-2.3Z"/><path class="cls-2" d="M55.5,168.62A4.74,4.74,0,0,1,57,164.91a4.64,4.64,0,0,1,3.29-1.29,4.71,4.71,0,0,1,3.34,1.29,5,5,0,0,1,1.45,3.72v7.67a5,5,0,0,1-1.45,3.7,4.77,4.77,0,0,1-3.34,1.31,4.78,4.78,0,0,1-4.78-5Zm7.16.15c0-1.74-.84-2.63-2.38-2.66s-2.35.92-2.38,2.66v7.39c0,1.76.82,2.65,2.38,2.67s2.33-.91,2.38-2.67Z"/><path class="cls-2" d="M68.34,168.62a4.77,4.77,0,0,1,1.49-3.71,4.9,4.9,0,0,1,6.63,0,5,5,0,0,1,1.45,3.72v7.67a4.92,4.92,0,0,1-1.45,3.7,4.81,4.81,0,0,1-8.12-3.69Zm7.16.15c0-1.74-.84-2.63-2.38-2.66s-2.34.92-2.37,2.66v7.39q0,2.64,2.37,2.67c1.54,0,2.34-.91,2.38-2.67Z"/><path class="cls-2" d="M34.17,215.3a4.75,4.75,0,0,1,1.49-3.71A4.64,4.64,0,0,1,39,210.3a4.71,4.71,0,0,1,3.34,1.29,5,5,0,0,1,1.45,3.72V223a5,5,0,0,1-1.45,3.7,4.85,4.85,0,0,1-6.33.26,4.57,4.57,0,0,1-1.7-2.89h2.49a2.16,2.16,0,0,0,2.2,1.46c1.54,0,2.33-.91,2.38-2.67V221.2a9.7,9.7,0,0,1-3.22.54,3.67,3.67,0,0,1-2.81-1.17,4.92,4.92,0,0,1-1.13-3.66Zm2.4,1.58c0,1.77.83,2.66,2.38,2.67s2.33-.9,2.38-2.67v-1.42c0-1.75-.84-2.64-2.38-2.67s-2.35.92-2.38,2.67Z"/><path class="cls-2" d="M48.56,215h2.3v2.36h-2.3Zm0,5.29h2.3v2.37h-2.3Z"/><path class="cls-2" d="M55.5,215.3A4.74,4.74,0,0,1,57,211.59a4.64,4.64,0,0,1,3.29-1.29,4.71,4.71,0,0,1,3.34,1.29,5,5,0,0,1,1.45,3.72V223a5,5,0,0,1-1.45,3.7A4.77,4.77,0,0,1,60.28,228a4.78,4.78,0,0,1-4.78-5Zm7.16.15c0-1.74-.84-2.63-2.38-2.66s-2.35.92-2.38,2.66v7.39c0,1.76.82,2.65,2.38,2.67s2.33-.91,2.38-2.67Z"/><path class="cls-2" d="M68.34,215.3a4.77,4.77,0,0,1,1.49-3.71,4.9,4.9,0,0,1,6.63,0,5,5,0,0,1,1.45,3.72V223a4.92,4.92,0,0,1-1.45,3.7A4.81,4.81,0,0,1,68.34,223Zm7.16.15c0-1.74-.84-2.63-2.38-2.66s-2.34.92-2.37,2.66v7.39q0,2.64,2.37,2.67c1.54,0,2.34-.91,2.38-2.67Z"/><path class="cls-2" d="M26.8,259.76l-2.4,1.81v-2.65l2.4-1.8h2.41v17.41H26.8Z"/><path class="cls-2" d="M34.17,262a4.74,4.74,0,0,1,1.49-3.71A4.64,4.64,0,0,1,39,257a4.71,4.71,0,0,1,3.34,1.29A5,5,0,0,1,43.74,262v7.68a5,5,0,0,1-1.45,3.7A4.77,4.77,0,0,1,39,274.67a4.78,4.78,0,0,1-4.78-5Zm7.16.15c0-1.74-.84-2.63-2.38-2.66s-2.35.92-2.38,2.66v7.39c0,1.76.83,2.65,2.38,2.67s2.33-.91,2.38-2.67Z"/><path class="cls-2" d="M48.56,261.71h2.3v2.37h-2.3Zm0,5.3h2.3v2.36h-2.3Z"/><path class="cls-2" d="M55.5,262A4.74,4.74,0,0,1,57,258.27,4.64,4.64,0,0,1,60.28,257a4.71,4.71,0,0,1,3.34,1.29A5,5,0,0,1,65.07,262v7.68a5,5,0,0,1-1.45,3.7,4.77,4.77,0,0,1-3.34,1.31,4.78,4.78,0,0,1-4.78-5Zm7.16.15c0-1.74-.84-2.63-2.38-2.66s-2.35.92-2.38,2.66v7.39c0,1.76.82,2.65,2.38,2.67s2.33-.91,2.38-2.67Z"/><path class="cls-2" d="M68.34,262a4.77,4.77,0,0,1,1.49-3.71,4.9,4.9,0,0,1,6.63,0A4.94,4.94,0,0,1,77.91,262v7.68a4.92,4.92,0,0,1-1.45,3.7,4.81,4.81,0,0,1-8.12-3.7Zm7.16.15c0-1.74-.84-2.63-2.38-2.66s-2.34.92-2.37,2.66v7.39q0,2.64,2.37,2.67c1.54,0,2.34-.91,2.38-2.67Z"/><path class="cls-2" d="M27.24,306.44l-2.39,1.81V305.6l2.39-1.8h2.41v17.41H27.24Z"/><path class="cls-2" d="M39.2,306.44l-2.4,1.81V305.6l2.4-1.8h2.41v17.41H39.2Z"/><path class="cls-2" d="M48.56,308.39h2.3v2.37h-2.3Zm0,5.3h2.3v2.36h-2.3Z"/><path class="cls-2" d="M55.5,308.66A4.74,4.74,0,0,1,57,305a4.64,4.64,0,0,1,3.29-1.29A4.71,4.71,0,0,1,63.62,305a5,5,0,0,1,1.45,3.71v7.68a5,5,0,0,1-1.45,3.7,4.77,4.77,0,0,1-3.34,1.31,4.78,4.78,0,0,1-4.78-5Zm7.16.15c0-1.74-.84-2.63-2.38-2.66s-2.35.92-2.38,2.66v7.39c0,1.76.82,2.65,2.38,2.67s2.33-.91,2.38-2.67Z"/><path class="cls-2" d="M68.34,308.66A4.77,4.77,0,0,1,69.83,305a4.9,4.9,0,0,1,6.63,0,4.94,4.94,0,0,1,1.45,3.71v7.68a4.92,4.92,0,0,1-1.45,3.7,4.81,4.81,0,0,1-8.12-3.69Zm7.16.15c0-1.74-.84-2.63-2.38-2.66s-2.34.92-2.37,2.66v7.39q0,2.64,2.37,2.67c1.54,0,2.34-.91,2.38-2.67Z"/><path class="cls-2" d="M26.8,353.12l-2.4,1.81v-2.65l2.4-1.8h2.41v17.41H26.8Z"/><path class="cls-2" d="M34.9,365.55,41.51,357a3.54,3.54,0,0,0,.52-1,3.75,3.75,0,0,0,.09-.79,2.67,2.67,0,0,0-.59-1.71,2.18,2.18,0,0,0-1.74-.75,2.32,2.32,0,0,0-1.67.65,3,3,0,0,0-.81,1.86H34.9a5.47,5.47,0,0,1,1.42-3.59,4.48,4.48,0,0,1,3.27-1.41,4.79,4.79,0,0,1,3.54,1.44,5.14,5.14,0,0,1,.38,6.6l-5.43,7h6.45v2.48H34.9Z"/><path class="cls-2" d="M49,355.07h2.3v2.37H49Zm0,5.3h2.3v2.36H49Z"/><path class="cls-2" d="M55.5,355.34A4.74,4.74,0,0,1,57,351.63a4.64,4.64,0,0,1,3.29-1.29,4.71,4.71,0,0,1,3.34,1.29,5,5,0,0,1,1.45,3.71V363a5,5,0,0,1-1.45,3.7A4.77,4.77,0,0,1,60.28,368a4.78,4.78,0,0,1-4.78-5Zm7.16.15c0-1.74-.84-2.63-2.38-2.66s-2.35.92-2.38,2.66v7.39c0,1.76.82,2.65,2.38,2.67s2.33-.91,2.38-2.67Z"/><path class="cls-2" d="M68.34,355.34a4.77,4.77,0,0,1,1.49-3.71,4.9,4.9,0,0,1,6.63,0,4.94,4.94,0,0,1,1.45,3.71V363a4.92,4.92,0,0,1-1.45,3.7,4.81,4.81,0,0,1-8.12-3.7Zm7.16.15c0-1.74-.84-2.63-2.38-2.66s-2.34.92-2.37,2.66v7.39q0,2.64,2.37,2.67c1.54,0,2.34-.91,2.38-2.67Z"/><path class="cls-2" d="M26.36,399.8,24,401.61V399l2.4-1.8h2.4v17.41h-2.4Z"/><path class="cls-2" d="M37.85,404.51h.84a2.53,2.53,0,0,0,1.92-.71,2.36,2.36,0,0,0,.68-1.77,2.56,2.56,0,0,0-.7-1.81,2.43,2.43,0,0,0-1.76-.71,2.18,2.18,0,0,0-1.41.51,2.66,2.66,0,0,0-.91,1.6H34.1a5.1,5.1,0,0,1,1.51-3.26A4.33,4.33,0,0,1,38.73,397a4.77,4.77,0,0,1,3.66,1.52A5.09,5.09,0,0,1,43.7,402a5.5,5.5,0,0,1-.35,1.93,4.09,4.09,0,0,1-1.5,1.66,4.33,4.33,0,0,1,1.59,1.72,5,5,0,0,1,.47,2.1,5.19,5.19,0,0,1-1.47,3.85,4.91,4.91,0,0,1-3.65,1.47,4.55,4.55,0,0,1-3-1.14A5.51,5.51,0,0,1,34,410.25h2.42a3.49,3.49,0,0,0,.91,1.42,2.26,2.26,0,0,0,1.6.56,2.37,2.37,0,0,0,1.79-.76,2.7,2.7,0,0,0,.76-2,2.81,2.81,0,0,0-.76-2.06,2.56,2.56,0,0,0-1.85-.71h-1Z"/><path class="cls-2" d="M48.56,401.75h2.3v2.37h-2.3Zm0,5.3h2.3v2.37h-2.3Z"/><path class="cls-2" d="M55.5,402A4.74,4.74,0,0,1,57,398.31,4.64,4.64,0,0,1,60.28,397a4.71,4.71,0,0,1,3.34,1.29A5,5,0,0,1,65.07,402v7.68a5,5,0,0,1-1.45,3.7,4.77,4.77,0,0,1-3.34,1.31,4.78,4.78,0,0,1-4.78-5Zm7.16.15c0-1.74-.84-2.63-2.38-2.66s-2.35.92-2.38,2.66v7.39c0,1.76.82,2.65,2.38,2.67s2.33-.91,2.38-2.67Z"/><path class="cls-2" d="M68.34,402a4.77,4.77,0,0,1,1.49-3.71,4.9,4.9,0,0,1,6.63,0A4.94,4.94,0,0,1,77.91,402v7.68a4.92,4.92,0,0,1-1.45,3.7,4.81,4.81,0,0,1-8.12-3.7Zm7.16.15c0-1.74-.84-2.63-2.38-2.66s-2.34.92-2.37,2.66v7.39q0,2.64,2.37,2.67c1.54,0,2.34-.91,2.38-2.67Z"/><path class="cls-2" d="M26.8,446.48l-2.4,1.81v-2.66l2.4-1.79h2.41v17.41H26.8Z"/><path class="cls-2" d="M33.55,456.31l5.64-12.47h2.68l-5.69,12.47h4.4v-5H43v5h1.35v2.35H43v2.59H40.58v-2.59h-7Z"/><path class="cls-2" d="M48.56,448.43h2.3v2.37h-2.3Zm0,5.3h2.3v2.36h-2.3Z"/><path class="cls-2" d="M55.5,448.7A4.74,4.74,0,0,1,57,445a4.64,4.64,0,0,1,3.29-1.29A4.71,4.71,0,0,1,63.62,445a5,5,0,0,1,1.45,3.71v7.68a5,5,0,0,1-1.45,3.7,4.77,4.77,0,0,1-3.34,1.31,4.78,4.78,0,0,1-4.78-5Zm7.16.15c0-1.74-.84-2.63-2.38-2.66s-2.35.92-2.38,2.66v7.39c0,1.76.82,2.65,2.38,2.67s2.33-.91,2.38-2.67Z"/><path class="cls-2" d="M68.34,448.7A4.77,4.77,0,0,1,69.83,445a4.9,4.9,0,0,1,6.63,0,4.94,4.94,0,0,1,1.45,3.71v7.68a4.92,4.92,0,0,1-1.45,3.7,4.81,4.81,0,0,1-8.12-3.7Zm7.16.15c0-1.74-.84-2.63-2.38-2.66s-2.34.92-2.37,2.66v7.39q0,2.64,2.37,2.67c1.54,0,2.34-.91,2.38-2.67Z"/><path class="cls-2" d="M26.8,493.16,24.4,495v-2.65l2.4-1.8h2.41v17.41H26.8Z"/><path class="cls-2" d="M34.89,490.52h9V493H37.16v4a4.16,4.16,0,0,1,2.7-1,4.92,4.92,0,0,1,1.79.35,4,4,0,0,1,1.24.91,4.14,4.14,0,0,1,1,1.66,5.59,5.59,0,0,1,.23,1.25c0,.5.07,1.12.07,1.85a10.82,10.82,0,0,1-.23,2.6,4.14,4.14,0,0,1-.81,1.59,4.86,4.86,0,0,1-1.44,1.24,4.22,4.22,0,0,1-2.2.6A5.18,5.18,0,0,1,36.38,507a5,5,0,0,1-1.79-3.46H37a2.27,2.27,0,0,0,2.42,2,2.39,2.39,0,0,0,1.39-.36,1.8,1.8,0,0,0,.7-.91,4.26,4.26,0,0,0,.25-1.22c0-.43,0-.85,0-1.25a5.19,5.19,0,0,0-.46-2.43,1.84,1.84,0,0,0-.75-.71,3.26,3.26,0,0,0-1.25-.21,2.33,2.33,0,0,0-1.2.31,2.75,2.75,0,0,0-1,1.12H34.89Z"/><path class="cls-2" d="M48.12,495.11h2.3v2.37h-2.3Zm0,5.3h2.3v2.36h-2.3Z"/><path class="cls-2" d="M55.5,495.38A4.74,4.74,0,0,1,57,491.67a4.64,4.64,0,0,1,3.29-1.29,4.71,4.71,0,0,1,3.34,1.29,5,5,0,0,1,1.45,3.71v7.68a5,5,0,0,1-1.45,3.7,4.77,4.77,0,0,1-3.34,1.31,4.78,4.78,0,0,1-4.78-5Zm7.16.15c0-1.74-.84-2.63-2.38-2.66s-2.35.92-2.38,2.66v7.39c0,1.76.82,2.65,2.38,2.67s2.33-.91,2.38-2.67Z"/><path class="cls-2" d="M68.34,495.38a4.77,4.77,0,0,1,1.49-3.71,4.9,4.9,0,0,1,6.63,0,4.94,4.94,0,0,1,1.45,3.71v7.68a4.92,4.92,0,0,1-1.45,3.7,4.81,4.81,0,0,1-8.12-3.7Zm7.16.15c0-1.74-.84-2.63-2.38-2.66s-2.34.92-2.37,2.66v7.39q0,2.64,2.37,2.67c1.54,0,2.34-.91,2.38-2.67Z"/><path class="cls-2" d="M26.36,539.84,24,541.65V539l2.4-1.8h2.4v17.41h-2.4Z"/><path class="cls-2" d="M34.17,542.07a4.76,4.76,0,0,1,1.49-3.72A4.64,4.64,0,0,1,39,537.06a5,5,0,0,1,3,1,4.69,4.69,0,0,1,1.65,3H41.15a2.19,2.19,0,0,0-2.21-1.46q-2.32,0-2.37,2.67v1.64a10,10,0,0,1,3.23-.53,3.86,3.86,0,0,1,2.82,1.14,5.08,5.08,0,0,1,1.12,3.69v1.58a5,5,0,0,1-1.45,3.7A4.77,4.77,0,0,1,39,554.75a4.78,4.78,0,0,1-4.78-5Zm2.4,7.53c0,1.76.83,2.65,2.38,2.67s2.33-.91,2.38-2.67v-1.42c0-1.74-.84-2.63-2.38-2.66s-2.35.92-2.38,2.66Z"/><path class="cls-2" d="M48.12,541.79h2.3v2.37h-2.3Zm0,5.3h2.3v2.36h-2.3Z"/><path class="cls-2" d="M55.5,542.06A4.74,4.74,0,0,1,57,538.35a4.64,4.64,0,0,1,3.29-1.29,4.71,4.71,0,0,1,3.34,1.29,5,5,0,0,1,1.45,3.71v7.68a5,5,0,0,1-1.45,3.7,4.77,4.77,0,0,1-3.34,1.31,4.78,4.78,0,0,1-4.78-5Zm7.16.15c0-1.74-.84-2.63-2.38-2.66s-2.35.92-2.38,2.66v7.39c0,1.76.82,2.65,2.38,2.67s2.33-.91,2.38-2.67Z"/><path class="cls-2" d="M68.34,542.06a4.77,4.77,0,0,1,1.49-3.71,4.9,4.9,0,0,1,6.63,0,4.94,4.94,0,0,1,1.45,3.71v7.68a4.92,4.92,0,0,1-1.45,3.7,4.81,4.81,0,0,1-8.12-3.7Zm7.16.15c0-1.74-.84-2.63-2.38-2.66s-2.34.92-2.37,2.66v7.39q0,2.64,2.37,2.67c1.54,0,2.34-.91,2.38-2.67Z"/><path class="cls-2" d="M26.8,586.52l-2.4,1.81v-2.66l2.4-1.79h2.41v17.41H26.8Z"/><path class="cls-2" d="M34.92,583.88H44.5v2.49l-5.71,14.92H36.1l5.69-14.92H37.32v2.52h-2.4Z"/><path class="cls-2" d="M48.12,588.47h2.3v2.37h-2.3Zm0,5.3h2.3v2.36h-2.3Z"/><path class="cls-2" d="M55.5,588.74A4.74,4.74,0,0,1,57,585a4.64,4.64,0,0,1,3.29-1.29A4.71,4.71,0,0,1,63.62,585a5,5,0,0,1,1.45,3.71v7.68a5,5,0,0,1-1.45,3.7,4.81,4.81,0,0,1-3.34,1.31,4.78,4.78,0,0,1-4.78-5Zm7.16.15c0-1.74-.84-2.63-2.38-2.66s-2.35.92-2.38,2.66v7.39c0,1.76.82,2.65,2.38,2.67s2.33-.91,2.38-2.67Z"/><path class="cls-2" d="M68.34,588.74A4.77,4.77,0,0,1,69.83,585a4.9,4.9,0,0,1,6.63,0,4.94,4.94,0,0,1,1.45,3.71v7.68a4.92,4.92,0,0,1-1.45,3.7,4.81,4.81,0,0,1-8.12-3.7Zm7.16.15c0-1.74-.84-2.63-2.38-2.66s-2.34.92-2.37,2.66v7.39q0,2.64,2.37,2.67c1.54,0,2.34-.91,2.38-2.67Z"/><path class="cls-2" d="M34.17,75.27a4.72,4.72,0,0,1,1.49-3.71A4.64,4.64,0,0,1,39,70.27a4.91,4.91,0,0,1,3,1,4.69,4.69,0,0,1,1.65,2.94H41.15a2.2,2.2,0,0,0-2.21-1.46c-1.55,0-2.34.92-2.37,2.68v1.64a9.71,9.71,0,0,1,3.23-.54,3.86,3.86,0,0,1,2.82,1.14,5.08,5.08,0,0,1,1.12,3.69V83a4.93,4.93,0,0,1-1.45,3.69A4.82,4.82,0,0,1,39,88a4.76,4.76,0,0,1-3.29-1.32A4.69,4.69,0,0,1,34.17,83Zm2.4,7.54c0,1.76.82,2.65,2.38,2.66s2.33-.9,2.38-2.66V81.38c0-1.74-.84-2.63-2.38-2.66s-2.35.92-2.38,2.66Z"/><path class="cls-2" d="M48.56,75h2.3v2.36h-2.3Zm0,5.29h2.3v2.37h-2.3Z"/><path class="cls-2" d="M55.5,75.26A4.75,4.75,0,0,1,57,71.55a4.92,4.92,0,0,1,6.63,0,5,5,0,0,1,1.45,3.71v7.67a5,5,0,0,1-1.45,3.7A4.82,4.82,0,0,1,60.28,88,4.76,4.76,0,0,1,57,86.64,4.69,4.69,0,0,1,55.5,83Zm7.16.16c0-1.75-.84-2.64-2.38-2.67s-2.35.92-2.38,2.67V82.8c0,1.77.82,2.66,2.38,2.67s2.33-.9,2.38-2.67Z"/><path class="cls-2" d="M68.34,75.26a4.78,4.78,0,0,1,1.49-3.71,4.92,4.92,0,0,1,6.63,0,4.91,4.91,0,0,1,1.45,3.71v7.67a4.9,4.9,0,0,1-1.45,3.7,4.82,4.82,0,0,1-6.63,0A4.73,4.73,0,0,1,68.34,83Zm7.16.16c0-1.75-.84-2.64-2.38-2.67s-2.34.92-2.37,2.67V82.8q0,2.65,2.37,2.67c1.54,0,2.34-.9,2.38-2.67Z"/></g></g></svg>