<svg xmlns="http://www.w3.org/2000/svg" viewBox="0 0 344.04 419.44"><defs><style>.cls-1{fill:#422610;}.cls-2{fill:none;stroke:#41250f;stroke-miterlimit:10;stroke-dasharray:4;}.cls-3{font-size:19.6px;fill:#56504c;font-family:YuGo-Bold-83pv-RKSJ-H, YuGothic;font-weight:700;letter-spacing:0.2em;}.cls-4{fill:#e6c338;}</style></defs><title>アセット 97</title><g id="レイヤー_2" data-name="レイヤー 2"><g id="バナー"><text></text><g id="DAY1"><path class="cls-1" d="M131.88,25.63a11.18,11.18,0,0,1-1.31,5.8A12.43,12.43,0,0,1,127.47,35a11.19,11.19,0,0,1-7.07,2H107.72V13.46h9.76a26.65,26.65,0,0,1,3.77.23,16.65,16.65,0,0,1,2.82.64,11.21,11.21,0,0,1,2.14.93,11,11,0,0,1,1.58,1.11,10.8,10.8,0,0,1,2.11,2.32,11.37,11.37,0,0,1,1.44,3.1A13.14,13.14,0,0,1,131.88,25.63Zm-7.2-.3a7.85,7.85,0,0,0-1.09-4.47A5.37,5.37,0,0,0,121,18.71a9.32,9.32,0,0,0-3.13-.54h-3V32.09h3a8.63,8.63,0,0,0,4.81-1.32Q124.67,29.44,124.67,25.32Z"/><path class="cls-1" d="M169,37h-7.26l-1.92-4.76h-10.2L147.67,37h-7.26L150.8,13.46h7.83Zm-10.8-8.85-3.44-8.58-3.48,8.58Z"/><path class="cls-1" d="M202,13.46l-9.2,12.73V37h-7.09V26.32l-9.37-12.87h7.36l5.39,7.39,5.41-7.39Z"/><path class="cls-1" d="M221.51,37.94c-4,0-5,0-6.69.18a22.24,22.24,0,0,1,.94-5.27,23,23,0,0,1,6.43-10,62.59,62.59,0,0,1,7.94-5.93c3.84-2.59,4.78-3.75,4.78-5.8S233,7.54,230.12,7.54a5.06,5.06,0,0,0-4.64,2.23,7.94,7.94,0,0,0-1.12,3.75l-9.37-1c.67-3.88,1.47-5.85,3.26-7.94,2.54-3,6.6-4.6,11.83-4.6,6,0,10.62,2,12.85,5.62a9.62,9.62,0,0,1,1.47,5.22,10.34,10.34,0,0,1-4.11,8.3,59.82,59.82,0,0,1-6.47,4.78c-3.88,2.68-5.53,4.24-6.56,6.2h10.4a56.65,56.65,0,0,0,7.14-.31v8.43c-2.59-.22-4.46-.31-7.63-.31Z"/></g><g id="罫線"><line class="cls-2" y1="111.3" x2="344.04" y2="111.3"/><line class="cls-2" y1="145.49" x2="344.04" y2="145.49"/><line class="cls-2" y1="179.67" x2="344.04" y2="179.67"/><line class="cls-2" y1="213.85" x2="344.04" y2="213.85"/><line class="cls-2" y1="248.03" x2="344.04" y2="248.03"/><line class="cls-2" y1="282.21" x2="344.04" y2="282.21"/><line class="cls-2" y1="316.39" x2="344.04" y2="316.39"/><line class="cls-2" y1="350.57" x2="344.04" y2="350.57"/><line class="cls-2" y1="384.75" x2="344.04" y2="384.75"/><line class="cls-2" y1="418.94" x2="344.04" y2="418.94"/></g><g id="時間"><text class="cls-3" transform="translate(10.24 101.69)">06:00</text><text class="cls-3" transform="translate(10.24 136.93)">07:00</text><text class="cls-3" transform="translate(10.24 170.81)">08:00</text><text class="cls-3" transform="translate(10.24 206.05)">09:00</text><text class="cls-3" transform="translate(10.24 238.19)">10:00</text><text class="cls-3" transform="translate(10.24 272.2)">11:00</text><text class="cls-3" transform="translate(10.24 306.09)">12:00</text><text class="cls-3" transform="translate(10.24 341.32)">13:00</text><text class="cls-3" transform="translate(10.24 375.28)">14:00</text><text class="cls-3" transform="translate(10.24 410.52)">15:00</text></g><path class="cls-1" d="M206,94.66c-1.16,0-1.56,0-1.64,0s-.13,0-.13-.14v-1c0-.14,0-.15.13-.15s.49,0,1.64,0h.9V92.13h-.55c-1.08,0-1.44,0-1.52,0s-.15,0-.15-.15V91c0-.14,0-.15.15-.15s.44,0,1.52,0h.55a10.33,10.33,0,0,0-.09-1.76,13.07,13.07,0,0,1,1.35.09c.14,0,.2.07.2.15a.6.6,0,0,1-.07.23,4.2,4.2,0,0,0-.07,1v.27h.2c1.09,0,1.43,0,1.51,0s.16,0,.16.15v1c0,.14,0,.15-.16.15s-.42,0-1.51,0h-.2v1.31h.38c1.16,0,1.56,0,1.64,0s.15,0,.15.15v1c0,.12,0,.14-.15.14s-.49,0-1.64,0h-.3v1.5h.81c.61,0,.85,0,.93,0s.15,0,.15.15v1c0,.12,0,.13-.15.13s-.32,0-.93,0h-.81v2a8.56,8.56,0,0,0,3.22.47,40.22,40.22,0,0,0,5.16-.31,3.2,3.2,0,0,0-.39,1.05c-.08.43-.08.43-.5.46-1.4.11-2.63.14-4.16.14a8.12,8.12,0,0,1-4.11-.8,4.37,4.37,0,0,1-1.72-1.67A11.77,11.77,0,0,1,205,101c-.11.23-.17.34-.26.34s-.13-.09-.24-.26a2.7,2.7,0,0,0-.67-.73,8.9,8.9,0,0,0,1.11-4.16,6.29,6.29,0,0,0,0-.86,9.58,9.58,0,0,1,1.13.19c.16,0,.23.08.23.16a.59.59,0,0,1-.07.2,2,2,0,0,0-.09.53c0,.35-.07.71-.12,1.08a4.51,4.51,0,0,0,1,1.2v-4Zm6.29-3.45c-1,0-1.33,0-1.42,0s-.15,0-.15-.15v-1c0-.14,0-.15.15-.15s.39,0,1.42,0h2c.82,0,1.16,0,1.24,0s.16,0,.16.15,0,.47,0,1.32v1.8c0,.85,0,1.24,0,1.32s0,.14-.16.14-.42,0-1.24,0h-2v2.45c0,.28,0,.43.09.53s.47.18,1.14.18,1,0,1.19-.24.26-.54.28-1.42a4.08,4.08,0,0,0,.9.38c.42.11.42.11.4.54a2.24,2.24,0,0,1-.62,1.58c-.35.31-.89.47-2.24.47s-1.91-.12-2.17-.35-.34-.5-.34-1.06V94.89c0-.81,0-1.21,0-1.29s0-.16.15-.16.43,0,1.19,0h2V91.22Z"/><path class="cls-1" d="M225.22,95.61c-1.32,0-1.78,0-1.86,0s-.15,0-.15-.15v-1c0-.13,0-.15.15-.15s.54,0,1.86,0h1.37v-.43a8.91,8.91,0,0,0-.09-1.6c.48,0,.92,0,1.37.09.14,0,.22.08.22.15a1.49,1.49,0,0,1-.09.35,4.74,4.74,0,0,0-.07,1v.44h1.94c1.32,0,1.78,0,1.86,0s.15,0,.15.15v1c0,.13,0,.15-.15.15s-.54,0-1.86,0h-1.35a11.52,11.52,0,0,0,4.08,3.56,4,4,0,0,0-.62.93c-.11.22-.15.31-.23.31s-.15-.05-.3-.16a12.61,12.61,0,0,1-3.56-3.64c0,3,.07,4.3.07,4.77,0,.13,0,.15-.15.15H226.7c-.14,0-.15,0-.15-.15,0-.46.05-1.75.07-4.64a11.54,11.54,0,0,1-3.45,3.65.62.62,0,0,1-.28.16c-.09,0-.15-.09-.26-.31a3.76,3.76,0,0,0-.57-.78,8.68,8.68,0,0,1-.67,1.58c-.09.16-.15.24-.22.24s-.14-.07-.26-.2a3.27,3.27,0,0,0-.89-.78,7.89,7.89,0,0,0,1.09-3,24.54,24.54,0,0,0,.24-3.92c0-1.72,0-2.51,0-2.59s0-.16.15-.16.53,0,1.81,0h2.8v-.47A5.51,5.51,0,0,0,226,89.1c.51,0,1,0,1.43.08.14,0,.23.08.23.14a.63.63,0,0,1-.08.26,1.32,1.32,0,0,0-.11.58v.51h2.69c1.28,0,1.72,0,1.81,0s.15,0,.15.16v1c0,.13,0,.15-.15.15s-.53,0-1.81,0h-7.41v1.74a22.92,22.92,0,0,1-.3,4.3,10.34,10.34,0,0,1-.35,1.39A10.16,10.16,0,0,0,226,95.61Z"/><path class="cls-1" d="M182.41,128.39v-1H182c-1,0-1.32,0-1.42,0s-.15,0-.15-.14,0-.44,0-1.25v-2c0-.8,0-1.15,0-1.24s0-.15.15-.15.4,0,1.4,0h.39v-1h-.7c-1.13,0-1.51,0-1.59,0s-.16,0-.16-.15v-.86c0-.13,0-.15.16-.15s.46,0,1.59,0h.7a11.1,11.1,0,0,0-.08-1.48,12.06,12.06,0,0,1,1.35.09c.12,0,.19.07.19.15a.62.62,0,0,1-.07.23,1.86,1.86,0,0,0-.08.77v.24h.66c1.13,0,1.51,0,1.59,0s.16,0,.16.15v.86c0,.14,0,.15-.16.15s-.46,0-1.59,0h-.66v1h.34c1,0,1.32,0,1.41,0s.15,0,.15.15,0,.44,0,1.24v2c0,.81,0,1.16,0,1.25s0,.14-.15.14-.43,0-1.41,0h-.34v1H184c1.13,0,1.52,0,1.6,0s.15,0,.15.15v.86c0,.15,0,.16-.15.16s-.47,0-1.6,0h-.32v0c0,1.21,0,1.81,0,1.87s0,.15-.13.15h-1.06c-.15,0-.16,0-.16-.15s0-.67,0-1.9h-.82c-1.13,0-1.52,0-1.6,0s-.15,0-.15-.16v-.86c0-.14,0-.15.15-.15s.47,0,1.6,0Zm-.7-3.81h2.68v-.82h-2.68Zm2.68,1h-2.68v.82h2.68Zm7.09,2.56c0,.61,0,1.31,0,1.86a1.33,1.33,0,0,1-.38,1.09c-.28.24-.63.35-1.67.35-.42,0-.42,0-.5-.4a3.37,3.37,0,0,0-.38-1c.42,0,.69,0,1.11,0s.47-.11.47-.43v-2.42h-2.22a6.72,6.72,0,0,1-1.68,4.05c-.15.16-.22.24-.3.24s-.15-.07-.3-.22a2.93,2.93,0,0,0-.82-.58c1.59-1.59,1.93-2.76,1.93-6.81v-2c0-1.31,0-2,0-2.08s0-.15.15-.15.42,0,1.4,0H190c1,0,1.31,0,1.4,0s.15,0,.15.15,0,.77,0,2.08Zm-1.32-2.1v-1.91h-2.08c0,.71,0,1.35-.05,1.91Zm-2.08-5v1.86h2.08V121Z"/><path class="cls-1" d="M198.25,124.81c0-.66,0-1.13,0-1.43a15,15,0,0,1-1.4.62,1.21,1.21,0,0,1-.31.09c-.11,0-.15-.09-.26-.35a2.72,2.72,0,0,0-.54-.88,11.54,11.54,0,0,0,5.15-3.11,2.9,2.9,0,0,0,.55-.78,9.87,9.87,0,0,1,1.42.26c.12,0,.23.08.23.15s0,.11-.14.16l0,0a12.75,12.75,0,0,0,5.71,3.1,3.19,3.19,0,0,0-.51.94c-.09.26-.14.35-.24.35a1,1,0,0,1-.32-.08,12.25,12.25,0,0,1-1.62-.67c0,.2,0,.55,0,1.12v1.75c0,.42,0,.71,0,.93.39.23.71.43,1,.65.09.07.16.13.16.22s-.08.15-.2.17a1.47,1.47,0,0,0-.43.24c-.46.34-.9.67-1.56,1.09a15.76,15.76,0,0,0,3.33.83,3.68,3.68,0,0,0-.51.94c-.15.38-.16.4-.58.3a10.43,10.43,0,0,1-4.55-2.06,4.31,4.31,0,0,0-.07.59c0,.44,0,.44-.43.53-1.64.34-3.25.63-4.49.82a1.89,1.89,0,0,0-.53.16.39.39,0,0,1-.23.08c-.07,0-.12-.07-.16-.2-.09-.36-.19-.86-.26-1.31.58,0,1-.05,1.44-.11l.38,0Zm3.18-1.94v-.11a6.83,6.83,0,0,0-.09-1.27c.5,0,.88,0,1.36.09.14,0,.2.08.2.15a.42.42,0,0,1-.08.27,1.13,1.13,0,0,0-.08.59v.27h1.15c.63,0,1.08,0,1.39,0a11.69,11.69,0,0,1-3.15-2.49,12.46,12.46,0,0,1-3,2.51Zm-1.79,1v.75h4.93v-.75Zm4.93,1.77h-4.93v.82h4.93Zm-4.93,4.08c.89-.13,1.81-.3,2.82-.5a7,7,0,0,1-1.35-1.72h-1.47Zm2.92-2.22a4.52,4.52,0,0,0,1.2,1.23,12.92,12.92,0,0,0,1.63-1.21h-2.83Z"/><path class="cls-1" d="M219.65,125.33A1.35,1.35,0,1,1,218.3,124,1.35,1.35,0,0,1,219.65,125.33Z"/><path class="cls-1" d="M230.4,122.48c-1.21,0-1.63,0-1.71,0s-.15,0-.15-.15v-1.06c0-.15,0-.16.15-.16s.5,0,1.71,0h3.23v-.22a9.6,9.6,0,0,0-.11-1.72c.49,0,1.06,0,1.54.09.12,0,.22.08.22.15a.7.7,0,0,1-.09.28,3.85,3.85,0,0,0-.08,1.06v.35h3.44c1.21,0,1.63,0,1.71,0s.15,0,.15.16v1.06c0,.14,0,.15-.15.15s-.5,0-1.71,0H235.1v1.67h2a1.11,1.11,0,0,0,.39-.05.43.43,0,0,1,.17-.05c.09,0,.2.08.54.42s.42.46.42.58-.07.15-.19.24a1.1,1.1,0,0,0-.32.36,12.27,12.27,0,0,1-2.47,2.87,14.76,14.76,0,0,0,5,1.52,4.82,4.82,0,0,0-.58,1.08c-.09.27-.14.35-.28.35l-.3,0a15.17,15.17,0,0,1-5.11-2,17.09,17.09,0,0,1-4.88,2,1.06,1.06,0,0,1-.3.05c-.14,0-.18-.09-.27-.35a3.74,3.74,0,0,0-.55-1,17.12,17.12,0,0,0,4.86-1.62,9.49,9.49,0,0,1-2.18-3.11l-1.33,0c-.14,0-.15,0-.15-.15v-1c0-.14,0-.15.15-.15s.53,0,1.83,0h2.09v-1.67Zm2.2,3a7.69,7.69,0,0,0,1.86,2.29,8.44,8.44,0,0,0,2-2.29Z"/><path class="cls-1" d="M247,123.49a29.29,29.29,0,0,1-.23,4.23,10.71,10.71,0,0,1-1.09,3.42c-.09.17-.15.26-.22.26s-.14-.08-.27-.22a5.31,5.31,0,0,0-.88-.78,8.19,8.19,0,0,0,1.09-3.22,28.26,28.26,0,0,0,.2-3.93c0-1.86,0-2.68,0-2.76s0-.15.15-.15.53,0,1.81,0h2.82v-.14a4.55,4.55,0,0,0-.09-1.09c.54,0,1,0,1.43.08.15,0,.23.07.23.14a.5.5,0,0,1-.09.26,1.34,1.34,0,0,0-.08.58v.17h2.87c1.28,0,1.72,0,1.81,0s.14,0,.14.15v.92c0,.15,0,.16-.14.16s-.53,0-1.81,0H247Zm6.7,3.14a.73.73,0,0,0,.31-.06.42.42,0,0,1,.16,0c.11,0,.2.05.54.35s.47.46.47.55-.06.16-.19.26a2.27,2.27,0,0,0-.53.48,8.57,8.57,0,0,1-1.54,1.44,15.62,15.62,0,0,0,3.85.61,2.37,2.37,0,0,0-.42.86c-.08.31-.12.39-.32.39h-.23a12,12,0,0,1-4.18-1.06,12.65,12.65,0,0,1-4.23,1.12h-.24c-.17,0-.22-.07-.31-.36a2.09,2.09,0,0,0-.43-.77,13.77,13.77,0,0,0,3.92-.8,8.22,8.22,0,0,1-1.87-1.93h-.83c-.14,0-.15,0-.15-.15v-.8c0-.14,0-.15.15-.15s.51,0,1.8,0Zm.65-3.79c1.32,0,1.79,0,1.87,0s.15,0,.15.15v.84c0,.13,0,.15-.15.15s-.55,0-1.87,0H254v.5c0,.83,0,1.27,0,1.35s0,.15-.15.15-.4,0-1.39,0h-1.72c-1,0-1.31,0-1.39,0s-.16,0-.16-.15,0-.51,0-1.35v-.5H249c-1,0-1.48,0-1.56,0s-.15,0-.15-.15V123c0-.13,0-.15.15-.15s.61,0,1.56,0h.17a5.72,5.72,0,0,0-.07-1.05c.43,0,.89,0,1.28.08.12,0,.18.05.18.12a.55.55,0,0,1-.07.23,2.09,2.09,0,0,0-.05.62h2.22a7.48,7.48,0,0,0-.07-1.05c.42,0,.89,0,1.27.08.12,0,.19.05.19.12a.85.85,0,0,1-.07.23,2,2,0,0,0-.05.62Zm-4.41,4.82a6.16,6.16,0,0,0,1.64,1.36,6.2,6.2,0,0,0,1.63-1.36Zm2.79-3.75h-2.22v1h2.22Z"/><path class="cls-1" d="M180.35,364.88a1.25,1.25,0,0,0,.67-.16.27.27,0,0,1,.18-.05.39.39,0,0,1,.22.08,6.16,6.16,0,0,1,.92.73.44.44,0,0,1,.17.31.39.39,0,0,1-.16.28,1.63,1.63,0,0,0-.44.58,18.53,18.53,0,0,1-2.67,4.16,17.1,17.1,0,0,1-4.1,3.36.36.36,0,0,1-.22.07.48.48,0,0,1-.31-.15,3.54,3.54,0,0,0-1.28-.62,15.51,15.51,0,0,0,4.49-3.44,13.74,13.74,0,0,0,2.49-3.83l-3.26.09a18.83,18.83,0,0,1-2.55,2.76.42.42,0,0,1-.28.15.32.32,0,0,1-.2-.08,3.66,3.66,0,0,0-1.29-.58,16,16,0,0,0,3.62-4,5.76,5.76,0,0,0,.8-1.82,6.63,6.63,0,0,1,1.58.71.28.28,0,0,1,.13.23.27.27,0,0,1-.15.23,1.43,1.43,0,0,0-.34.36l-.44.67Z"/><path class="cls-1" d="M191.45,372v.8c0,.23-.05.26-.3.27s-.73,0-1.06,0-.3,0-.28-.2c0-.7,0-1.66,0-2.68v-3.3c0-.73,0-1.46,0-2.24,0-.14.05-.19.15-.19.71,0,1.51,0,2.41,0h3.21c.88,0,1.9,0,2.53,0,.15,0,.19.07.17.27,0,.66,0,1.39,0,2.18v3.22c0,1.17,0,1.83.07,2.56,0,.19-.07.23-.26.23-.4,0-.83,0-1.24,0-.16,0-.18,0-.18-.22V372Zm5.23-6.08h-5.24v4.65h5.24Z"/><path class="cls-1" d="M207.4,369.38a10.8,10.8,0,0,0-2,.16c-.16,0-.27-.08-.31-.28a14.74,14.74,0,0,1-.2-1.63,17.26,17.26,0,0,0,2.91.16h4.34c1,0,2.06,0,3.1,0,.2,0,.24,0,.24.19a10.17,10.17,0,0,1,0,1.27c0,.16-.05.22-.24.2l-3,0Z"/><path class="cls-1" d="M221.71,366.67c.07-.09.13-.16.26-.14a9.36,9.36,0,0,1,2.59,1.32c.09.07.15.12.15.2a.41.41,0,0,1-.05.15,5.51,5.51,0,0,1-.59,1c-.07.08-.12.14-.18.14s-.09,0-.16-.08a11.86,11.86,0,0,0-2.72-1.47C221.33,367.27,221.55,366.88,221.71,366.67Zm2.18,5a22.53,22.53,0,0,0,3.69-2.33,24.5,24.5,0,0,0,3.88-3.76,6.76,6.76,0,0,0,.39,1.51.67.67,0,0,1,.07.26.42.42,0,0,1-.15.31,25.15,25.15,0,0,1-3.42,3.11,31.24,31.24,0,0,1-4,2.53,4.5,4.5,0,0,0-.78.46.3.3,0,0,1-.22.11.35.35,0,0,1-.27-.16,8.46,8.46,0,0,1-1-1.37A6.23,6.23,0,0,0,223.89,371.67Zm-.55-8.1c.09-.16.17-.19.34-.11a9.15,9.15,0,0,1,2.53,1.5.21.21,0,0,1,.11.17.33.33,0,0,1-.05.18,5.79,5.79,0,0,1-.69,1,.15.15,0,0,1-.14.08.35.35,0,0,1-.2-.09,13,13,0,0,0-2.61-1.66Zm6.17-.42c.07-.05.12,0,.2,0a6.2,6.2,0,0,1,1.28,1.44.14.14,0,0,1,0,.22l-.57.42a.14.14,0,0,1-.23,0,6.69,6.69,0,0,0-1.36-1.56Zm1.2-.88c.08-.05.12,0,.2,0a5.65,5.65,0,0,1,1.28,1.39.16.16,0,0,1,0,.24l-.54.42a.14.14,0,0,1-.23,0,6.4,6.4,0,0,0-1.35-1.55Z"/><path class="cls-1" d="M238.58,364.09a.25.25,0,0,1,.19-.11.35.35,0,0,1,.17.07,14,14,0,0,1,2.57,1.91c.08.08.12.13.12.19a.29.29,0,0,1-.08.18c-.2.27-.65.81-.84,1s-.11.11-.16.11-.11,0-.17-.11a14.22,14.22,0,0,0-2.75-2.2C237.93,364.78,238.32,364.36,238.58,364.09Zm1.17,7.1a20,20,0,0,0,3.88-2.51,20.22,20.22,0,0,0,3.69-3.66,6,6,0,0,0,.38,1.58.66.66,0,0,1,.07.26c0,.12-.07.23-.22.4a22,22,0,0,1-3.1,2.86,29.06,29.06,0,0,1-4.07,2.64,4.6,4.6,0,0,0-.9.62.37.37,0,0,1-.24.13.35.35,0,0,1-.23-.15,9.48,9.48,0,0,1-1.08-1.5A8.13,8.13,0,0,0,239.75,371.2Z"/><path class="cls-1" d="M260.91,365a1.26,1.26,0,0,0,.67-.16.28.28,0,0,1,.17-.05.39.39,0,0,1,.22.08,6.16,6.16,0,0,1,.92.73.44.44,0,0,1,.18.31.39.39,0,0,1-.16.28,1.62,1.62,0,0,0-.44.58,18.54,18.54,0,0,1-2.67,4.16,17.13,17.13,0,0,1-4.1,3.36.37.37,0,0,1-.22.07.47.47,0,0,1-.31-.15,3.55,3.55,0,0,0-1.28-.62,15.53,15.53,0,0,0,4.49-3.44,13.72,13.72,0,0,0,2.49-3.83l-3.26.09a18.83,18.83,0,0,1-2.55,2.76.42.42,0,0,1-.28.15.33.33,0,0,1-.2-.08,3.64,3.64,0,0,0-1.29-.58,16,16,0,0,0,3.62-4,5.75,5.75,0,0,0,.8-1.82,6.63,6.63,0,0,1,1.58.71.28.28,0,0,1,.14.23.27.27,0,0,1-.15.23,1.47,1.47,0,0,0-.34.36l-.44.67Zm1.67-1.82c.07-.05.12,0,.2,0a6.2,6.2,0,0,1,1.28,1.44.13.13,0,0,1,0,.22l-.57.42a.14.14,0,0,1-.23,0,6.66,6.66,0,0,0-1.36-1.56Zm1.2-.88c.08-.05.12,0,.2,0a5.62,5.62,0,0,1,1.28,1.39.16.16,0,0,1,0,.24l-.54.42a.14.14,0,0,1-.23,0,6.35,6.35,0,0,0-1.35-1.55Z"/><path class="cls-1" d="M215.12,262.08c0,.63,0,.88,0,1s0,.15-.15.15l-1.23,0a8.67,8.67,0,0,0,2.78,4.64,3.68,3.68,0,0,0-.78.86c-.12.16-.17.24-.24.24s-.13-.07-.28-.22a10.32,10.32,0,0,1-2-3.13v2.22c0,.85,0,1.21,0,1.29s0,.15-.15.15-.49,0-1.63,0h-2.36c-1.15,0-1.55,0-1.64,0s-.15,0-.15-.15,0-.44,0-1.29V265.5c0-.84,0-1.2,0-1.29s0-.15.15-.15.5,0,1.64,0h2.36c.58,0,1,0,1.21,0-.09-.3-.17-.61-.26-.92h-5.32a10.64,10.64,0,0,1-1.78,5.93c-.12.16-.17.24-.24.24s-.14-.08-.27-.23a4.36,4.36,0,0,0-.9-.74c1.41-1.62,1.82-3.66,1.82-6.52,0-1.21,0-1.78,0-1.86s0-.15.15-.15.57,0,1.89,0h5.34c1.33,0,1.81,0,1.87,0s.15,0,.15.15,0,.32,0,1Zm-8.65,9.18c-1.24,0-1.67,0-1.75,0s-.16,0-.16-.15v-1c0-.14,0-.15.16-.15s.51,0,1.75,0H214c1.24,0,1.67,0,1.75,0s.16,0,.16.15v1c0,.13,0,.15-.16.15s-.51,0-1.75,0ZM213.74,261h-6.56v1h6.56Zm-5,5.09H212v-1H208.7Zm3.29,1H208.7v1H212Z"/><path class="cls-1" d="M222.51,265c0-.66,0-1.13,0-1.43a14.91,14.91,0,0,1-1.4.62,1.19,1.19,0,0,1-.31.09c-.11,0-.15-.09-.26-.35A2.71,2.71,0,0,0,220,263a11.53,11.53,0,0,0,5.15-3.11,2.9,2.9,0,0,0,.55-.78,9.87,9.87,0,0,1,1.42.26c.12,0,.23.08.23.15s0,.11-.13.16l0,0a12.75,12.75,0,0,0,5.71,3.1,3.19,3.19,0,0,0-.51.94c-.09.26-.13.35-.24.35a1,1,0,0,1-.32-.08,12.31,12.31,0,0,1-1.62-.67c0,.2,0,.55,0,1.12v1.75c0,.42,0,.71,0,.93.39.23.72.43,1,.65.09.07.16.13.16.22s-.08.15-.2.17a1.47,1.47,0,0,0-.43.24c-.46.34-.9.67-1.56,1.09a15.77,15.77,0,0,0,3.33.83,3.71,3.71,0,0,0-.51.94c-.15.38-.16.4-.58.3a10.43,10.43,0,0,1-4.55-2.06,4.3,4.3,0,0,0-.07.59c0,.44,0,.44-.43.53-1.64.34-3.25.63-4.49.82a1.89,1.89,0,0,0-.53.16.38.38,0,0,1-.23.08c-.07,0-.12-.07-.16-.2-.09-.36-.19-.86-.26-1.31.58,0,1-.05,1.44-.11l.38,0Zm3.18-1.94v-.11a6.73,6.73,0,0,0-.09-1.27c.5,0,.88,0,1.36.09.14,0,.2.08.2.15a.42.42,0,0,1-.08.27,1.13,1.13,0,0,0-.08.59V263h1.14c.63,0,1.08,0,1.39,0a11.67,11.67,0,0,1-3.15-2.49,12.48,12.48,0,0,1-3,2.51Zm-1.79,1v.75h4.93V264Zm4.93,1.77h-4.93v.82h4.93Zm-4.93,4.08c.89-.13,1.8-.3,2.82-.5a7,7,0,0,1-1.35-1.72h-1.47Zm2.92-2.22a4.54,4.54,0,0,0,1.2,1.23,12.9,12.9,0,0,0,1.63-1.21h-2.83Z"/><rect class="cls-4" x="134.91" y="284.65" width="169.51" height="64.22"/><path class="cls-1" d="M209.76,405.08c0,.61,0,1.27,0,1.81a1.4,1.4,0,0,1-.34,1.12c-.26.2-.58.27-1.46.28-.42,0-.42,0-.51-.4a2.86,2.86,0,0,0-.34-.86c.47,0,.83.05,1.16.05s.35-.11.35-.43v-1.87H206a8.38,8.38,0,0,1-.79,3.25c-.09.18-.15.26-.22.26s-.11-.05-.19-.15a3.4,3.4,0,0,0-.77-.71c.7-1.29.93-2.52.93-5.16v-1.82l-.11.12c-.11.12-.18.19-.23.19s-.12-.09-.22-.27a2.74,2.74,0,0,0-.53-.69,8.53,8.53,0,0,0,1.82-2.83,3.51,3.51,0,0,0,.26-.92,8.39,8.39,0,0,1,1.13.27c.15,0,.22.11.22.19a.28.28,0,0,1-.11.22,1.45,1.45,0,0,0-.28.46h1.32a.65.65,0,0,0,.26,0,.33.33,0,0,1,.17-.05c.07,0,.15,0,.44.28s.34.31.34.39,0,.15-.15.24a1.18,1.18,0,0,0-.27.38c-.17.36-.35.7-.53,1,.79,0,1.08,0,1.16,0s.16,0,.16.15,0,.58,0,1.56Zm-2.56-5.71a10.51,10.51,0,0,0,.57-1.17h-1.33a11.89,11.89,0,0,1-.7,1.17Zm-.38,4.37v-1.17h-.77c0,.42,0,.82,0,1.17Zm0-2.21v-1.13h-.77v1.13Zm1.06-1.13v1.13h.77v-1.13Zm.77,3.34v-1.17h-.77v1.17Zm4.08-1.77a5.32,5.32,0,0,0-.08-1c.44,0,.92,0,1.29.08.12,0,.17.05.17.14a.63.63,0,0,1-.07.23,1.73,1.73,0,0,0-.07.59v.35c1.33,0,1.8,0,1.89,0s.15,0,.15.15v.9c0,.15,0,.16-.15.16s-.55,0-1.89,0v1.25h.61c1.17,0,1.56,0,1.64,0s.15,0,.15.15v.93c0,.15,0,.16-.15.16s-.47,0-1.64,0H214v.54c0,1.12,0,1.67,0,1.74s0,.15-.15.15h-1c-.15,0-.16,0-.16-.15s0-.62,0-1.74v-.54H212c-1.17,0-1.58,0-1.66,0s-.15,0-.15-.16v-.93c0-.14,0-.15.15-.15s.48,0,1.66,0h.78v-1.25h-1.25c-.09.24-.2.46-.3.67s-.16.3-.24.3a.66.66,0,0,1-.31-.16,4.26,4.26,0,0,0-.75-.32,8.61,8.61,0,0,0,.9-2,3.48,3.48,0,0,0,.14-.73,9.6,9.6,0,0,1,1,.28c.15.05.22.09.22.16a.21.21,0,0,1,0,.15,1,1,0,0,0-.17.42l0,.07h.83Zm-2.49-5.11c0-.13,0-.15.15-.15s.44,0,1.56,0h2.28c1.11,0,1.48,0,1.56,0s.18,0,.16.16l0,.67a7.11,7.11,0,0,1-.34,2.47,1.3,1.3,0,0,1-1.27.67,6.82,6.82,0,0,1-.71,0c-.36,0-.4,0-.43-.35a2.62,2.62,0,0,0-.26-.94,5.35,5.35,0,0,0,1,.11c.39,0,.5-.07.58-.34a5.63,5.63,0,0,0,.15-1.27h-1.48a4.12,4.12,0,0,1-2,3.09c-.15.09-.23.15-.3.15s-.14-.08-.26-.27a2.65,2.65,0,0,0-.66-.67,2.94,2.94,0,0,0,1.91-2.29c-1,0-1.35,0-1.42,0s-.15,0-.15-.15Z"/><path class="cls-1" d="M222.09,401c-1.2,0-1.59,0-1.67,0s-.15,0-.15-.15V400c0-.13,0-.15.15-.15s.4,0,1.29,0v-1.14l-1,0c-.15,0-.16,0-.16-.16v-.88c0-.14,0-.15.16-.15s.31,0,1,0a9,9,0,0,0-.09-1.52c.49,0,.82,0,1.28.09.15,0,.22.08.22.15a1,1,0,0,1-.09.32,3.59,3.59,0,0,0-.07,1h1.28a9,9,0,0,0-.09-1.52c.49,0,.82,0,1.28.09.16,0,.23.08.23.15a1.13,1.13,0,0,1-.09.35,3.14,3.14,0,0,0-.08.93c.66,0,.9,0,1,0s.15,0,.15.15v.88c0,.15,0,.16-.15.16l-1,0v1.14c.74,0,1,0,1.11,0s.15,0,.15.15v.9a12.78,12.78,0,0,0,1.36-3.69,8.05,8.05,0,0,0,.19-1.2c.46.08.82.16,1.23.27.17,0,.27.11.27.2a.31.31,0,0,1-.09.22,2.28,2.28,0,0,0-.27.7l-.3,1h1.63c1.21,0,1.63,0,1.71,0s.15,0,.15.15v1c0,.15,0,.16-.15.16h-.73a11.9,11.9,0,0,1-1.33,5.19,9.63,9.63,0,0,0,2.47,2.13,3.31,3.31,0,0,0-.63,1c-.09.22-.15.3-.23.3s-.16-.05-.32-.16a11.94,11.94,0,0,1-2.07-2,9.34,9.34,0,0,1-2.36,2.09.67.67,0,0,1-.31.13c-.09,0-.15-.08-.27-.28a3.75,3.75,0,0,0-.62-.74,1,1,0,0,1-.3.71c-.23.19-.42.28-1.33.3-.42,0-.43,0-.5-.31a3.86,3.86,0,0,0-.32-.86c.31,0,.49,0,.74,0s.46-.14.46-.4V406h-2.4v.39c0,1.19,0,1.72,0,1.79s0,.15-.16.15h-1c-.13,0-.15,0-.15-.15s0-.57,0-1.78V403.3c0-1,0-1.44,0-1.52s0-.16.15-.16.43,0,1.43,0h1.79c1,0,1.33,0,1.42,0s.15,0,.15.27c0,.08,0,.49,0,1.52V405c0,.67,0,1.42,0,1.83a2.15,2.15,0,0,1,0,.31,8.1,8.1,0,0,0,2.78-2.29,12.37,12.37,0,0,1-1.14-3c-.14.24-.3.48-.46.74s-.18.22-.24.22-.14-.07-.24-.23a2.84,2.84,0,0,0-.63-.74,6.61,6.61,0,0,0,.55-.81h-.07c-.08,0-.49,0-1.68,0Zm.3,1.74v.66h2.4v-.66Zm2.4,2.3v-.67h-2.4v.67Zm-.55-5.16v-1.14H223v1.14Zm4.46-.23c-.05.16-.12.31-.18.46a11.79,11.79,0,0,0,1.06,3.48,11.67,11.67,0,0,0,.84-3.93Z"/><rect class="cls-4" x="134.91" y="148.61" width="169.51" height="96.24"/><path class="cls-1" d="M156.47,188.76v.74h-3.42v11h-.81V188.76Z"/><path class="cls-1" d="M224.92,201.67v-.74h3.42v-11h.81v11.76Z"/><path class="cls-1" d="M244.48,193.71c0,.47,0,1.13,0,1.62,0,.22,0,.23-.24.24-.38,0-.81,0-1.19,0-.18,0-.26,0-.26-.15,0-.54.07-1.15.07-1.71v-1.27c0-.78,0-1.25-.05-1.75,0-.08.07-.14.18-.14.59,0,1.44.05,2.25.05h4.54a1.41,1.41,0,0,0,.82-.15.29.29,0,0,1,.17-.08.44.44,0,0,1,.26.12,6.14,6.14,0,0,1,1,.89.37.37,0,0,1,.09.24.37.37,0,0,1-.12.26,2.18,2.18,0,0,0-.34.8,18.5,18.5,0,0,1-1.64,4.16,13.31,13.31,0,0,1-3,3.69.45.45,0,0,1-.32.15.44.44,0,0,1-.27-.09,4,4,0,0,0-1.29-.51,11.54,11.54,0,0,0,3.41-3.89,14.44,14.44,0,0,0,1.55-4.16h-5.61Z"/><path class="cls-1" d="M260.62,196.17a10.77,10.77,0,0,0-2,.16c-.16,0-.27-.08-.31-.28a14.46,14.46,0,0,1-.2-1.63,17.24,17.24,0,0,0,2.91.16h4.34c1,0,2.06,0,3.1,0,.2,0,.24,0,.24.19a9.73,9.73,0,0,1,0,1.27c0,.16-.05.22-.24.2l-3,0Z"/><path class="cls-1" d="M282.07,191.67a1.25,1.25,0,0,0,.67-.16.27.27,0,0,1,.18-.05.39.39,0,0,1,.22.08,6.16,6.16,0,0,1,.92.73.44.44,0,0,1,.17.31.39.39,0,0,1-.16.28,1.61,1.61,0,0,0-.44.58A18.53,18.53,0,0,1,281,197.6a17.1,17.1,0,0,1-4.1,3.36.36.36,0,0,1-.22.07.48.48,0,0,1-.31-.15,3.54,3.54,0,0,0-1.28-.62,15.51,15.51,0,0,0,4.49-3.44A13.74,13.74,0,0,0,282,193l-3.26.09a18.83,18.83,0,0,1-2.55,2.76.42.42,0,0,1-.28.15.32.32,0,0,1-.2-.08,3.66,3.66,0,0,0-1.29-.58,16,16,0,0,0,3.62-4,5.76,5.76,0,0,0,.8-1.82,6.63,6.63,0,0,1,1.58.71.28.28,0,0,1,.13.23.27.27,0,0,1-.15.23,1.45,1.45,0,0,0-.34.36l-.44.67Z"/><path class="cls-1" d="M170.82,199c0,.32.07.42.25.46a4.71,4.71,0,0,0,1.09.07,2.74,2.74,0,0,0,1.2-.18c.22-.17.34-.55.35-1.48a4.92,4.92,0,0,0,1,.49c.35.13.35.13.31.48-.08,1-.27,1.34-.66,1.63a4.35,4.35,0,0,1-2.34.42,6.75,6.75,0,0,1-2.12-.2.92.92,0,0,1-.57-1v-2.9H168.1a5,5,0,0,1-4.3,4.31,1.56,1.56,0,0,1-.29,0c-.14,0-.18-.07-.32-.35a3.22,3.22,0,0,0-.69-.91c2.48-.31,3.78-1.34,4.06-3.1h0c-1.36,0-1.81,0-1.89,0s-.17,0-.17-.15,0-.62,0-1.71v-4.19c0-1.12,0-1.64,0-1.74s0-.15.17-.15.56,0,1.92,0h4.51c1.34,0,1.82,0,1.92,0s.15,0,.15.15,0,.62,0,1.74V195c0,1.09,0,1.62,0,1.71s0,.15-.15.15-.57,0-1.92,0h-.25Zm-4.87-8.83v1h5.71v-1Zm5.71,3.19v-1h-5.71v1Zm0,1.18h-5.71v1h5.71Z"/><path class="cls-1" d="M180.78,192a18.16,18.16,0,0,1,5-1.16c2.51,0,4.12,1.51,4.12,3.71a4.06,4.06,0,0,1-2.46,3.89,11.9,11.9,0,0,1-3.56,1.16c-.28.06-.39,0-.49-.22a2.6,2.6,0,0,0-1-1.11,13.14,13.14,0,0,0,3.8-1,3.06,3.06,0,0,0,1.93-2.79c0-1.32-.85-2.13-2.41-2.13a13.67,13.67,0,0,0-5.06,1.44,8.86,8.86,0,0,0-1,.5c-.2.17-.31.21-.38.21s-.25-.08-.41-.29a8.1,8.1,0,0,1-.9-1.46A12.39,12.39,0,0,0,180.78,192Z"/><path class="cls-1" d="M200.4,190a3.58,3.58,0,0,0,0-1,5.8,5.8,0,0,1,1.65.56c.15.07.22.15.22.25a.47.47,0,0,1-.1.24,2.29,2.29,0,0,0-.28.52c-.08.22-.21.56-.39,1.12a4,4,0,0,1,3.74,4.06c0,2.49-1.51,4-4.3,4.68-.31.07-.41,0-.57-.24a2.87,2.87,0,0,0-.91-.92c1.91-.39,4.19-1.26,4.19-3.7a2.62,2.62,0,0,0-2.52-2.65,25.19,25.19,0,0,1-2,4.09,4.93,4.93,0,0,0,.6.71,4,4,0,0,1-.87.85.34.34,0,0,1-.2.07.3.3,0,0,1-.2-.08c-.11-.11-.22-.22-.38-.41a3.22,3.22,0,0,1-2.34,1.33c-1.06,0-1.83-.87-1.83-2.27a5.34,5.34,0,0,1,2-4c-.15-.53-.29-1.23-.43-1.85a6.3,6.3,0,0,0-.42-1.32,6.06,6.06,0,0,1,1.58.22c.22.06.27.15.27.41a4.59,4.59,0,0,0,.06.8c.07.41.11.66.2,1a8,8,0,0,1,2.86-.8A10.61,10.61,0,0,0,200.4,190Zm-5.06,7.13c0,.48.2.85.49.85s.87-.31,1.46-1a14.44,14.44,0,0,1-1-2.27A3.92,3.92,0,0,0,195.34,197.17Zm2.91-1.32a16.86,16.86,0,0,0,1.33-2.83,5.49,5.49,0,0,0-2.12.78A10.48,10.48,0,0,0,198.25,195.85Z"/><path class="cls-1" d="M214.12,194.21a4.21,4.21,0,0,1,2.23-.63,3.25,3.25,0,0,1,3.47,3.36c0,2.34-1.89,3.84-4.89,3.84-1.76,0-2.83-.76-2.83-2.06a1.86,1.86,0,0,1,2-1.71,2.55,2.55,0,0,1,2.63,2,2.11,2.11,0,0,0,1.43-2.13,2,2,0,0,0-2.2-2.12,5.7,5.7,0,0,0-3.59,1.48c-.41.36-.8.77-1.22,1.19-.1.1-.17.15-.24.15a.34.34,0,0,1-.21-.13,6.34,6.34,0,0,1-.83-.91c-.08-.11,0-.21.07-.32a33.78,33.78,0,0,0,3.32-3.1c.87-.9,1.53-1.6,2.17-2.4-.84.15-1.83.35-2.7.53a4.31,4.31,0,0,0-.59.17,1,1,0,0,1-.28.07.32.32,0,0,1-.31-.24,6.72,6.72,0,0,1-.49-1.51,6.84,6.84,0,0,0,1.3,0c.85-.08,2.09-.27,3.18-.48a3.7,3.7,0,0,0,.77-.21.73.73,0,0,1,.27-.11.5.5,0,0,1,.32.11,5.33,5.33,0,0,1,.94.9.49.49,0,0,1,.15.34.37.37,0,0,1-.24.34,2.29,2.29,0,0,0-.62.45c-1,1-2,2-3,3Zm0,4c-.41,0-.67.24-.67.53s.38.73,1.22.73a3,3,0,0,0,.64-.06C215.14,198.64,214.72,198.2,214.13,198.2Z"/><path class="cls-1" d="M164.56,310.08v.74h-3.42v11h-.81V310.08Z"/><path class="cls-1" d="M169.81,317.41c0-.43,0-.94,0-1.44-.23.31-.48.63-.75,1a.37.37,0,0,1-.26.17c-.07,0-.13-.07-.17-.23a3.59,3.59,0,0,0-.5-1.12,12.48,12.48,0,0,0,2.6-4.42,3.51,3.51,0,0,0,.23-1,8.24,8.24,0,0,1,1.27.43c.15.07.22.12.22.23s0,.15-.15.24a1.23,1.23,0,0,0-.3.54,21,21,0,0,1-.82,1.94v6.76c0,1.32,0,2,0,2s0,.15-.15.15h-1.12c-.15,0-.16,0-.16-.15s0-.73,0-2Zm4.14-1c-1.32,0-1.77,0-1.85,0s-.15,0-.15-.16v-1c0-.13,0-.15.15-.15s.53,0,1.85,0h4.73c1.32,0,1.77,0,1.85,0s.15,0,.15.15v1c0,.15,0,.16-.15.16s-.53,0-1.85,0h-2.53a41.93,41.93,0,0,1-1.43,4.11c1.12-.12,2.21-.26,3.44-.46-.32-.58-.66-1.1-1-1.62-.08-.12-.05-.18.11-.26l.82-.39c.16-.08.2-.08.3.05a26.22,26.22,0,0,1,2.2,3.83c.07.14.05.19-.15.28l-.92.46c-.19.09-.22.08-.27-.05-.17-.4-.34-.8-.53-1.17-2,.36-3.46.58-5.62.83a1.69,1.69,0,0,0-.5.11.58.58,0,0,1-.26.11c-.11,0-.16-.09-.2-.22-.11-.39-.2-.82-.3-1.35.51,0,.93,0,1.33,0a34,34,0,0,0,1.42-4.26Zm.81-3.56c-1.24,0-1.66,0-1.74,0s-.16,0-.16-.15v-1.05c0-.13,0-.15.16-.15s.5,0,1.74,0h3.15c1.24,0,1.66,0,1.74,0s.16,0,.16.15v1.05c0,.14,0,.15-.16.15s-.5,0-1.74,0Z"/><path class="cls-1" d="M189,314.5c1-.16,1.79-.31,2.34-.43a2,2,0,0,0,.54-.22.52.52,0,0,1,.3-.09c.08,0,.12,0,.23.09a3.15,3.15,0,0,1,.79.71.51.51,0,0,1,.15.31.36.36,0,0,1-.24.31,2,2,0,0,0-.43.31c-1,.94-1.55,1.51-2.45,2.48a1.67,1.67,0,0,1,.48-.07,1.53,1.53,0,0,1,1.47,1.36c.27,1.11.49,1.32,1.48,1.32a9.07,9.07,0,0,0,2.09-.24c.15,0,.22.05.24.2a6.92,6.92,0,0,1,.09,1.19c0,.13-.07.19-.24.22a11.8,11.8,0,0,1-2,.17c-2,0-2.63-.53-2.91-1.86-.22-.92-.38-1.29-.85-1.29a1.92,1.92,0,0,0-1.27.67c-.61.62-1.59,1.81-2,2.37a.24.24,0,0,1-.19.09.25.25,0,0,1-.15-.05,7.45,7.45,0,0,1-.94-.82.22.22,0,0,1-.07-.14.33.33,0,0,1,.11-.22l2.55-2.59c.53-.54,1.23-1.32,2.67-2.87-1,.27-1.91.49-2.8.71a5.31,5.31,0,0,0-.73.24.61.61,0,0,1-.28.08c-.09,0-.16-.07-.23-.23a9.4,9.4,0,0,1-.54-1.51A15,15,0,0,0,189,314.5Zm3.76-2.88c.13,0,.19.11.15.3a8.2,8.2,0,0,1-.36,1.11.19.19,0,0,1-.23.15,20.78,20.78,0,0,1-3.76-1.13.18.18,0,0,1-.12-.24,12.22,12.22,0,0,1,.46-1.25A24.52,24.52,0,0,0,192.78,311.61Z"/><path class="cls-1" d="M206,316a4,4,0,0,1,2.14-.61,3.13,3.13,0,0,1,3.34,3.23c0,2.25-1.82,3.69-4.7,3.69-1.7,0-2.72-.73-2.72-2a1.79,1.79,0,0,1,1.9-1.64,2.45,2.45,0,0,1,2.53,2,2,2,0,0,0,1.37-2,2,2,0,0,0-2.11-2,5.49,5.49,0,0,0-3.45,1.43c-.39.35-.77.74-1.17,1.15-.09.09-.16.15-.23.15a.33.33,0,0,1-.2-.12,6,6,0,0,1-.8-.88c-.08-.11,0-.2.07-.31a32.59,32.59,0,0,0,3.19-3c.83-.86,1.47-1.54,2.09-2.3-.81.15-1.77.34-2.6.51a4.31,4.31,0,0,0-.57.16,1,1,0,0,1-.27.07.31.31,0,0,1-.3-.23,6.49,6.49,0,0,1-.47-1.46,6.56,6.56,0,0,0,1.25,0c.82-.08,2-.26,3.06-.46a3.66,3.66,0,0,0,.74-.2.68.68,0,0,1,.26-.11.48.48,0,0,1,.31.11,5,5,0,0,1,.9.86.46.46,0,0,1,.15.32.36.36,0,0,1-.23.32,2.17,2.17,0,0,0-.59.43c-1,1-1.89,1.9-2.91,2.88Zm0,3.84c-.39,0-.65.23-.65.51s.36.7,1.17.7a2.94,2.94,0,0,0,.62-.05C207,320.27,206.61,319.85,206,319.85Z"/><path class="cls-1" d="M216.83,323v-.74h3.42v-11h.81V323Z"/><path class="cls-1" d="M236.4,315c0,.47,0,1.13,0,1.62,0,.22,0,.23-.24.24-.38,0-.81,0-1.19,0-.18,0-.26,0-.26-.15,0-.54.07-1.15.07-1.71v-1.27c0-.78,0-1.25-.05-1.75,0-.08.07-.14.18-.14.59,0,1.44.05,2.25.05h4.54a1.41,1.41,0,0,0,.82-.15.29.29,0,0,1,.17-.08.44.44,0,0,1,.26.12,6.14,6.14,0,0,1,1,.89.37.37,0,0,1,.09.24.37.37,0,0,1-.12.26,2.18,2.18,0,0,0-.34.8,18.5,18.5,0,0,1-1.64,4.16,13.31,13.31,0,0,1-3,3.69.45.45,0,0,1-.32.15.44.44,0,0,1-.27-.09,4,4,0,0,0-1.29-.51,11.54,11.54,0,0,0,3.41-3.89,14.44,14.44,0,0,0,1.55-4.16H236.4Z"/><path class="cls-1" d="M252.54,317.49a10.8,10.8,0,0,0-2,.16c-.16,0-.27-.08-.31-.28a14.74,14.74,0,0,1-.2-1.63,17.26,17.26,0,0,0,2.91.16h4.34c1,0,2.06,0,3.1,0,.2,0,.24,0,.24.19a10.17,10.17,0,0,1,0,1.27c0,.16-.05.22-.24.2l-3,0Z"/><path class="cls-1" d="M274,313a1.25,1.25,0,0,0,.67-.16.27.27,0,0,1,.18-.05.39.39,0,0,1,.22.08,6.16,6.16,0,0,1,.92.73.44.44,0,0,1,.17.31.39.39,0,0,1-.16.28,1.61,1.61,0,0,0-.44.58,18.53,18.53,0,0,1-2.67,4.16,17.1,17.1,0,0,1-4.1,3.36.36.36,0,0,1-.22.07.48.48,0,0,1-.31-.15,3.54,3.54,0,0,0-1.28-.62,15.51,15.51,0,0,0,4.49-3.44,13.74,13.74,0,0,0,2.49-3.83l-3.26.09a18.83,18.83,0,0,1-2.55,2.76.42.42,0,0,1-.28.15.32.32,0,0,1-.2-.08,3.66,3.66,0,0,0-1.29-.58,16,16,0,0,0,3.62-4,5.76,5.76,0,0,0,.8-1.82,6.63,6.63,0,0,1,1.58.71.28.28,0,0,1,.13.23.27.27,0,0,1-.15.23,1.45,1.45,0,0,0-.34.36l-.44.67Z"/></g></g></svg>