<svg xmlns="http://www.w3.org/2000/svg" viewBox="0 0 117.09 22.51"><defs><style>.cls-1{fill:#ffc832;}</style></defs><title>アセット 138</title><g id="レイヤー_2" data-name="レイヤー 2"><g id="オブジェクト"><path class="cls-1" d="M13.73,0V3.4H4.35V9.22h9.38v3.43H4.35v9.86H0V0Z"/><path class="cls-1" d="M32,0V22.51H27.69V0Z"/><path class="cls-1" d="M59.9,0V3.4H49.7V9.31h9.76v3.4H49.7v6.4H60.13v3.4H45.35V0Z"/><path class="cls-1" d="M75.14,0V19.11H86.06v3.4H70.79V0Z"/><path class="cls-1" d="M105.07,0a13.36,13.36,0,0,1,6.25,1.43,10.39,10.39,0,0,1,4.25,4,11.37,11.37,0,0,1,1.52,5.83,11.25,11.25,0,0,1-1.52,5.86,10.33,10.33,0,0,1-4.33,4,14.24,14.24,0,0,1-6.43,1.4H95.64V0Zm-.45,19.11a7.85,7.85,0,0,0,5.79-2.17,7.63,7.63,0,0,0,2.18-5.68,7.58,7.58,0,0,0-2.2-5.75,8.17,8.17,0,0,0-5.92-2.11H100V19.11Z"/></g></g></svg>