<svg xmlns="http://www.w3.org/2000/svg" viewBox="0 0 301.27 23.09"><defs><style>.cls-1{fill:#fff;}</style></defs><title>アセット 148</title><g id="レイヤー_2" data-name="レイヤー 2"><g id="オブジェクト"><path class="cls-1" d="M4.35.29V22.8H0V.29Z"/><path class="cls-1" d="M19.83.29,33.2,16V.29h4.26V22.8H33.72l-13.46-16v16H16V.29Z"/><path class="cls-1" d="M62.73.29v3.4H53.35V9.51h9.38v3.43H53.35V22.8H49V.29Z"/><path class="cls-1" d="M84.83,0a13.52,13.52,0,0,1,6.29,1.44A11.09,11.09,0,0,1,95.58,5.6a11.15,11.15,0,0,1,1.66,6,11.18,11.18,0,0,1-1.62,5.86,11.09,11.09,0,0,1-4.45,4.19,14.25,14.25,0,0,1-12.73,0,11.18,11.18,0,0,1-6-10A11.33,11.33,0,0,1,74,5.74a11,11,0,0,1,4.4-4.23A13.35,13.35,0,0,1,84.83,0ZM76.89,11.55a8.06,8.06,0,0,0,1,4,7.05,7.05,0,0,0,2.83,2.77,8.43,8.43,0,0,0,4.1,1,7.84,7.84,0,0,0,5.7-2.18,7.48,7.48,0,0,0,2.23-5.61,8.09,8.09,0,0,0-1-4,6.89,6.89,0,0,0-2.83-2.78,9,9,0,0,0-8.24,0,6.88,6.88,0,0,0-2.81,2.77A8.23,8.23,0,0,0,76.89,11.55Z"/><path class="cls-1" d="M116,.29a7.54,7.54,0,0,1,5.17,1.76,5.77,5.77,0,0,1,2,4.57,5.73,5.73,0,0,1-1,3.35,6.49,6.49,0,0,1-2.94,2.24,6.7,6.7,0,0,1,1.92,1.58,20.48,20.48,0,0,1,2.08,3.37q2.05,4.1,3.06,5.64h-4.85a24.77,24.77,0,0,1-1.35-2.37,52.75,52.75,0,0,0-2.74-4.84,6.56,6.56,0,0,0-1.68-1.77,3.34,3.34,0,0,0-1.85-.53h-1.58V22.8h-4.35V.29Zm-1,9.6A3.92,3.92,0,0,0,117.72,9a3,3,0,0,0,1-2.34,2.75,2.75,0,0,0-1-2.31A4.34,4.34,0,0,0,115,3.63h-2.7V9.89Z"/><path class="cls-1" d="M139.69.29l7.39,8.88,7.4-8.88h3.88V22.8H154V7h-.13l-6.51,7.93h-.61L140.25,7h-.13V22.8h-4.35V.29Z"/><path class="cls-1" d="M181.33.29l9.94,22.51h-4.59l-2.33-5.48h-10l-2.18,5.48H167.6L176.89.29ZM175.66,14h7.27l-3.81-8.91Z"/><path class="cls-1" d="M219.19.29v3.4h-8V22.8h-4.35V3.69h-8V.29Z"/><path class="cls-1" d="M233.54.29V22.8h-4.35V.29Z"/><path class="cls-1" d="M256.74,0A13.52,13.52,0,0,1,263,1.44a11.09,11.09,0,0,1,4.46,4.16,11.24,11.24,0,0,1,1.66,6,11.31,11.31,0,0,1-6.07,10.05,13.51,13.51,0,0,1-6.37,1.49,13.39,13.39,0,0,1-6.36-1.51,11.18,11.18,0,0,1-6-10,11.23,11.23,0,0,1,1.6-5.81,11,11,0,0,1,4.39-4.23A13.36,13.36,0,0,1,256.74,0ZM248.8,11.55a8,8,0,0,0,1,4,7.05,7.05,0,0,0,2.83,2.77,8.4,8.4,0,0,0,4.1,1,7.84,7.84,0,0,0,5.7-2.18,7.52,7.52,0,0,0,2.23-5.61,8.09,8.09,0,0,0-1-4,6.91,6.91,0,0,0-2.84-2.78,8.5,8.5,0,0,0-4.11-1,8.4,8.4,0,0,0-4.12,1,6.82,6.82,0,0,0-2.81,2.77A8.13,8.13,0,0,0,248.8,11.55Z"/><path class="cls-1" d="M283.64.29,297,16V.29h4.25V22.8h-3.74l-13.45-16v16h-4.26V.29Z"/></g></g></svg>