<svg xmlns="http://www.w3.org/2000/svg" viewBox="0 0 500 197.51"><defs><style>.cls-1{fill:#fff;}</style></defs><title>アセット 132</title><g id="レイヤー_2" data-name="レイヤー 2"><g id="オブジェクト"><path class="cls-1" d="M72.05,102.41a17.8,17.8,0,0,0-5-12.8,17.13,17.13,0,0,0-12.74-5.17,16,16,0,0,0-11.82,5.08,19.56,19.56,0,0,0-5.09,13h8.72A10.5,10.5,0,0,1,49,95.78a8.09,8.09,0,0,1,6-2.37,7.94,7.94,0,0,1,6.25,2.72,9.5,9.5,0,0,1,2.13,6.17,13.3,13.3,0,0,1-.34,2.84,11.82,11.82,0,0,1-1.88,3.46L37.35,139.31v8.46h34.7v-9H48.82l19.56-25.35A17.8,17.8,0,0,0,72.05,102.41Z"/><path class="cls-1" d="M85.55,89.08q-5.31,4.69-5.39,13.38v27.72q.07,8.65,5.39,13.34a17,17,0,0,0,11.86,4.73,17.33,17.33,0,0,0,12.07-4.73q5.05-4.7,5.22-13.35V102.48q-.17-8.7-5.22-13.39a17,17,0,0,0-12.07-4.65A16.78,16.78,0,0,0,85.55,89.08ZM106,103v26.65q-.24,9.53-8.56,9.61-8.37-.08-8.53-9.61V103q.16-9.43,8.53-9.61Q105.72,93.57,106,103Z"/><path class="cls-1" d="M156.71,102.41a17.76,17.76,0,0,0-5.06-12.8,17.09,17.09,0,0,0-12.73-5.17,16,16,0,0,0-11.82,5.08,19.56,19.56,0,0,0-5.09,13h8.72a10.44,10.44,0,0,1,2.92-6.69,8.09,8.09,0,0,1,6-2.37,8,8,0,0,1,6.25,2.72A9.55,9.55,0,0,1,148,102.3a13.26,13.26,0,0,1-.33,2.84,12.07,12.07,0,0,1-1.88,3.46L122,139.31v8.46h34.7v-9H133.48L153,113.45A17.8,17.8,0,0,0,156.71,102.41Z"/><path class="cls-1" d="M170.2,143.52a17.07,17.07,0,0,0,11.86,4.73,17.29,17.29,0,0,0,12.07-4.73q5.06-4.7,5.22-13.35V102.48q-.16-8.7-5.22-13.39a17,17,0,0,0-12.07-4.65,16.81,16.81,0,0,0-11.86,4.64q-5.3,4.69-5.38,13.38v27.72Q164.9,138.83,170.2,143.52Zm3.34-40.5q.17-9.43,8.52-9.61,8.33.16,8.57,9.61v26.65q-.25,9.53-8.57,9.61-8.35-.08-8.52-9.61Z"/><rect class="cls-1" x="209.55" y="138.4" width="8.32" height="8.57"/><path class="cls-1" d="M261.54,102.41a17.75,17.75,0,0,0-5.05-12.8,17.11,17.11,0,0,0-12.73-5.17,16,16,0,0,0-11.82,5.08,19.57,19.57,0,0,0-5.1,13h8.73a10.39,10.39,0,0,1,2.92-6.69,8.06,8.06,0,0,1,5.95-2.37,7.92,7.92,0,0,1,6.25,2.72,9.5,9.5,0,0,1,2.13,6.17,12.69,12.69,0,0,1-.34,2.84,12,12,0,0,1-1.87,3.46l-23.77,30.71v8.46h34.7v-9H238.32l19.56-25.35A17.79,17.79,0,0,0,261.54,102.41Z"/><rect class="cls-1" x="272.06" y="138.4" width="8.32" height="8.57"/><polygon class="cls-1" points="311.95 147.77 311.95 85 303.23 85 294.57 91.49 294.57 101.06 303.23 94.51 303.23 147.77 311.95 147.77"/><path class="cls-1" d="M349,134.72a6.53,6.53,0,0,1-2.5,3.27,8.72,8.72,0,0,1-5,1.29q-7.29-.08-8.72-7.31H324.1q1.25,8.64,6.46,12.5a18.64,18.64,0,0,0,11.31,3.78,15,15,0,0,0,7.93-2.19A17.09,17.09,0,0,0,355,141.6a15.16,15.16,0,0,0,2.92-5.72,39.82,39.82,0,0,0,.84-9.37q0-3.95-.26-6.66a21.44,21.44,0,0,0-.83-4.51,15.35,15.35,0,0,0-3.67-6,14.14,14.14,0,0,0-4.48-3.26,17.85,17.85,0,0,0-6.44-1.29,15.1,15.1,0,0,0-9.74,3.44V94H357.6V85H325.19v33.94h8.16a10,10,0,0,1,3.51-4,8.72,8.72,0,0,1,4.35-1.12,11.28,11.28,0,0,1,4.48.78,6.55,6.55,0,0,1,2.72,2.53,18.45,18.45,0,0,1,1.63,8.74c0,1.46,0,3-.08,4.51A15.71,15.71,0,0,1,349,134.72Z"/><rect class="cls-1" x="371.61" y="113.39" width="24.52" height="8.56"/><polygon class="cls-1" points="422.83 147.77 422.83 85 414.1 85 405.45 91.49 405.45 101.06 414.1 94.51 414.1 147.77 422.83 147.77"/><path class="cls-1" d="M452.27,93.41q5.93.09,8,5.28h9a17,17,0,0,0-6-10.64,17.79,17.79,0,0,0-11-3.61,16.76,16.76,0,0,0-11.86,4.65q-5.3,4.71-5.39,13.42V130.2q.09,8.64,5.39,13.33a17.09,17.09,0,0,0,11.86,4.72,17.31,17.31,0,0,0,12.07-4.73q5.06-4.68,5.22-13.33v-5.72q.09-9.07-4-13.29a14,14,0,0,0-10.19-4.13A36,36,0,0,0,443.75,109v-5.92Q443.92,93.57,452.27,93.41Zm0,21.57q8.33.17,8.57,9.59v5.12q-.25,9.51-8.57,9.59-8.36-.08-8.52-9.59v-5.12Q443.92,115.15,452.27,115Z"/><polygon class="cls-1" points="198.2 14.88 190.96 37.31 190.84 37.31 183.56 14.88 176.97 14.88 188.33 46.89 193.46 46.89 204.82 14.88 198.2 14.88"/><path class="cls-1" d="M226.54,45.88a6.64,6.64,0,0,0,2-1.33A9.86,9.86,0,0,0,230,43.16a11.05,11.05,0,0,0,2.62-4.59,30.56,30.56,0,0,0,.75-7.71,30.87,30.87,0,0,0-.75-7.78A10.16,10.16,0,0,0,230,18.61a11.09,11.09,0,0,0-3.46-2.87,13.29,13.29,0,0,0-5.94-1.27,13,13,0,0,0-5.82,1.26,11.91,11.91,0,0,0-3.58,2.85,11.27,11.27,0,0,0-2.57,4.48,29.33,29.33,0,0,0-.8,7.8,28.43,28.43,0,0,0,.8,7.71,12.31,12.31,0,0,0,2.57,4.59,12.71,12.71,0,0,0,9.4,4.11A12,12,0,0,0,226.54,45.88Zm-11-7.33a8.53,8.53,0,0,1-1.17-2.79,24.85,24.85,0,0,1-.35-4.9,25.41,25.41,0,0,1,.35-5,7.72,7.72,0,0,1,1.17-2.67,5.65,5.65,0,0,1,2.09-1.71,6.73,6.73,0,0,1,2.94-.65,6.61,6.61,0,0,1,3,.65,4.66,4.66,0,0,1,2,1.71,6,6,0,0,1,1.23,2.67,29.75,29.75,0,0,1,.3,5,28.11,28.11,0,0,1-.3,4.84,6.53,6.53,0,0,1-1.23,2.79,6,6,0,0,1-2,1.64,6.37,6.37,0,0,1-3,.68,6.48,6.48,0,0,1-2.94-.68A7.84,7.84,0,0,1,215.58,38.55Z"/><path class="cls-1" d="M241,1.94v37.2q0,4.22,2.33,6a8.73,8.73,0,0,0,5.61,1.76h2.77v-6h-2.15q-2.34,0-2.34-2.19V1.94Z"/><rect class="cls-1" x="257.41" y="40.49" width="6.22" height="6.4"/><path class="cls-1" d="M292.74,44.3q3.78-3.51,3.91-10V13.53q-.12-6.52-3.91-10A12.75,12.75,0,0,0,283.69,0a12.56,12.56,0,0,0-8.89,3.48q-4,3.53-4,10v20.8q.06,6.48,4,10a12.84,12.84,0,0,0,8.89,3.55A13,13,0,0,0,292.74,44.3ZM277.27,33.92v-20q.14-7.08,6.42-7.21,6.26.13,6.45,7.21v20q-.19,7.15-6.45,7.21T277.27,33.92Z"/><path class="cls-1" d="M323.69,43.88q3.92-3.81,4-10.43a13.19,13.19,0,0,0-1.27-5.68,11.69,11.69,0,0,0-4.29-4.65,11,11,0,0,0,4-4.49,14.56,14.56,0,0,0,1-5.23,13.82,13.82,0,0,0-3.56-9.3A12.88,12.88,0,0,0,313.65,0a11.7,11.7,0,0,0-8.44,3.62,13.91,13.91,0,0,0-4.1,8.81h6.54a7.09,7.09,0,0,1,2.44-4.31,6,6,0,0,1,3.83-1.4,6.64,6.64,0,0,1,4.76,1.92,7,7,0,0,1,1.91,4.9,6.5,6.5,0,0,1-1.85,4.8,6.91,6.91,0,0,1-5.21,1.92h-2.25v5.93h2.8a6.86,6.86,0,0,1,5,1.91,7.62,7.62,0,0,1,2.07,5.56,7.35,7.35,0,0,1-2.07,5.44,6.5,6.5,0,0,1-4.85,2,6,6,0,0,1-4.31-1.52,9.56,9.56,0,0,1-2.48-3.81H300.9a14.84,14.84,0,0,0,4.66,9,12.31,12.31,0,0,0,8.25,3.1A13.49,13.49,0,0,0,323.69,43.88Z"/><path class="cls-1" d="M361.35,27.12a2.48,2.48,0,1,0,0,4.95H497.52a2.48,2.48,0,1,0,0-4.95Z"/><path class="cls-1" d="M2.48,32.07H138.65a2.48,2.48,0,1,0,0-4.95H2.48a2.48,2.48,0,1,0,0,4.95Z"/><path class="cls-1" d="M497.52,192.56H2.48a2.48,2.48,0,1,0,0,4.95h495a2.48,2.48,0,1,0,0-4.95Z"/></g></g></svg>