<svg xmlns="http://www.w3.org/2000/svg" viewBox="0 0 202 357.25"><defs><style>.cls-1{fill:#fff;}</style></defs><title>アセット 134</title><g id="レイヤー_2" data-name="レイヤー 2"><g id="オブジェクト"><path class="cls-1" d="M64,224.62l1.61,2a1.06,1.06,0,0,0,1.64,0c4.9-5.53,6.56-12.43,7-17.84l5.72,0A1.19,1.19,0,0,1,81.09,210c.11,3.57-.32,9.3-3.58,13.39a1.37,1.37,0,0,0,0,1.7l1.64,1.95a1,1,0,0,0,1.64,0c6.77-8.18,4.66-20.77,4.57-21.32l-.19-1.07a1.16,1.16,0,0,0-1.1-1l-9.71,0c0-.89-.09-1.66-.15-2.26a1.13,1.13,0,0,0-1.47-1.05l-2.52,1a.86.86,0,0,0-.42.37,1.52,1.52,0,0,0-.11.92c0,.25.06.61.09,1l-4.21,0a1.19,1.19,0,0,0-1.13,1.25v2.66a1.19,1.19,0,0,0,1.12,1.26l4.14,0A24.86,24.86,0,0,1,64,222.9,1.37,1.37,0,0,0,64,224.62Z"/><path class="cls-1" d="M138.75,205.75l-.19-1.07a1.16,1.16,0,0,0-1.1-1l-9.71,0c0-.89-.09-1.66-.15-2.26a1.13,1.13,0,0,0-1.47-1.05l-2.52,1a.86.86,0,0,0-.42.37,1.52,1.52,0,0,0-.11.92c0,.25.06.61.09,1l-4.21,0a1.2,1.2,0,0,0-1.13,1.25v2.66a1.19,1.19,0,0,0,1.12,1.26l4.14,0a24.86,24.86,0,0,1-5.68,14.13,1.37,1.37,0,0,0,0,1.72l1.61,2a1.06,1.06,0,0,0,1.64,0c4.9-5.53,6.56-12.43,7-17.84l5.72,0a1.19,1.19,0,0,1,1.12,1.21c.11,3.57-.32,9.3-3.58,13.39a1.37,1.37,0,0,0,0,1.7l1.64,1.95a1,1,0,0,0,1.64,0C141,218.89,138.84,206.3,138.75,205.75Z"/><path class="cls-1" d="M152.23,213.27v12.56a1.19,1.19,0,0,0,1.18,1.2h2.51a1.19,1.19,0,0,0,1.18-1.2V210.21a1,1,0,0,0-.07-.36,19.29,19.29,0,0,0,4.72-8.22,1.28,1.28,0,0,0-1-1.59l-2.68-.48a1.26,1.26,0,0,0-1.43.88,12.47,12.47,0,0,1-11.23,9.2,1.28,1.28,0,0,0-1.19,1.28v2.73a1.28,1.28,0,0,0,1.33,1.28A18.07,18.07,0,0,0,152.23,213.27Z"/><path class="cls-1" d="M166.08,205.19v2.69a1.21,1.21,0,0,0,1.14,1.27h6.11l.08,5h-2a1.21,1.21,0,0,0-1.14,1.27v2.69a1.21,1.21,0,0,0,1.14,1.27h2.07l.11,7.34a1.19,1.19,0,0,0,1.16,1.21l2.41,0a1.2,1.2,0,0,0,1.12-1.26l-.11-7.25h5.35a1.17,1.17,0,0,0,1.79.91l3.71-2.39a1.18,1.18,0,0,0,0-2l-3.71-2.38a1.16,1.16,0,0,0-1.73.6H178.1l-.08-5h1.28a1.21,1.21,0,0,0,1.14-1.27v-2.69a1.2,1.2,0,0,0-1.14-1.27h-1.36l-.06-4.21a1.19,1.19,0,0,0-1.16-1.21l-2.41,0a1.19,1.19,0,0,0-1.12,1.26l.06,4.12h-6A1.2,1.2,0,0,0,166.08,205.19Z"/><path class="cls-1" d="M186.13,207.85h2.42a1.21,1.21,0,0,0,1.14-1.27v-2.13a1.21,1.21,0,0,0-1.14-1.27h-2.42a1.21,1.21,0,0,0-1.14,1.27v2.13A1.21,1.21,0,0,0,186.13,207.85Z"/><path class="cls-1" d="M195,207.85a1.21,1.21,0,0,0,1.14-1.27v-2.13a1.21,1.21,0,0,0-1.14-1.27h-2.41a1.21,1.21,0,0,0-1.14,1.27v2.13a1.21,1.21,0,0,0,1.14,1.27Z"/><path class="cls-1" d="M51.57,222.69H39.44a1.37,1.37,0,0,0-1.29,1.43v2.09a1.38,1.38,0,0,0,1.29,1.44H56a1.37,1.37,0,0,0,1.28-1.44V203.05A1.37,1.37,0,0,0,56,201.61H39.56a1.37,1.37,0,0,0-1.29,1.44v2.09a1.36,1.36,0,0,0,1.29,1.43h12A1.37,1.37,0,0,1,52.86,208v13.24A1.37,1.37,0,0,1,51.57,222.69Z"/><path class="cls-1" d="M26.56,224.93H14.43a1.46,1.46,0,0,0-1.29,1.59v2.31a1.46,1.46,0,0,0,1.29,1.58H31a1.45,1.45,0,0,0,1.28-1.58V203.2A1.46,1.46,0,0,0,31,201.61H14.55a1.46,1.46,0,0,0-1.29,1.59v2.31a1.46,1.46,0,0,0,1.29,1.59h12a1.46,1.46,0,0,1,1.29,1.59v14.65A1.46,1.46,0,0,1,26.56,224.93Z"/><path class="cls-1" d="M66.12,242.15H67.3a.24.24,0,0,0,.22-.25V240a.22.22,0,0,1,.39-.16l1.59,2.18a.26.26,0,0,0,.18.09h1.4a.25.25,0,0,0,.17-.41l-1.92-2.62a.29.29,0,0,1,0-.31l1.61-2.25a.25.25,0,0,0-.18-.4H69.57a.2.2,0,0,0-.17.09l-1.49,2.05a.22.22,0,0,1-.39-.16v-1.73a.24.24,0,0,0-.22-.25H66.12a.24.24,0,0,0-.22.25v5.49A.24.24,0,0,0,66.12,242.15Z"/><path class="cls-1" d="M83.43,241.09l.33.9a.21.21,0,0,0,.2.16h1.17a.26.26,0,0,0,.21-.35l-2.18-5.49a.21.21,0,0,0-.2-.15h-1.5a.21.21,0,0,0-.2.15l-2.18,5.49a.25.25,0,0,0,.2.35h1.17a.21.21,0,0,0,.2-.16l.34-.9a.21.21,0,0,1,.2-.16h2A.21.21,0,0,1,83.43,241.09Zm-.75-1.2h-.93a.24.24,0,0,1-.2-.34l.46-1.28a.21.21,0,0,1,.41,0l.46,1.27A.24.24,0,0,1,82.68,239.89Z"/><path class="cls-1" d="M95.56,237.67a1.9,1.9,0,0,1,1.12-.3,2.73,2.73,0,0,1,1,.16,4.32,4.32,0,0,1,.77.4v-1.24a.28.28,0,0,0-.16-.24c-.31-.1-.59-.19-.85-.25a4.78,4.78,0,0,0-1.17-.12,6.3,6.3,0,0,0-.79,0,3.06,3.06,0,0,0-1.47.71,2.24,2.24,0,0,0-.65,1,3.8,3.8,0,0,0-.22,1.29,3.3,3.3,0,0,0,.42,1.72,2.45,2.45,0,0,0,1.11,1,3.44,3.44,0,0,0,1.51.33,6.29,6.29,0,0,0,.77,0c.25,0,.49-.09.74-.15l.33-.1.24-.09.29-.12v-2.63a.23.23,0,0,0-.22-.24h-1.7a.23.23,0,0,0-.22.24v1h.73v.71a2.61,2.61,0,0,1-.66.09,1.83,1.83,0,0,1-.93-.23A1.54,1.54,0,0,1,95,240a1.78,1.78,0,0,1-.19-.83,2.17,2.17,0,0,1,.17-.8A1.55,1.55,0,0,1,95.56,237.67Z"/><path class="cls-1" d="M108.18,241.79a3.1,3.1,0,0,0,1.69.43,3.16,3.16,0,0,0,1.67-.41,2.65,2.65,0,0,0,1-1.12,3.45,3.45,0,0,0,.35-1.54,3.61,3.61,0,0,0-.2-1.18,2.69,2.69,0,0,0-1.52-1.65,3.5,3.5,0,0,0-1.33-.24,3.1,3.1,0,0,0-1.69.43,2.59,2.59,0,0,0-1,1.13,3.52,3.52,0,0,0,0,3A2.64,2.64,0,0,0,108.18,241.79Zm.67-3.75a1.27,1.27,0,0,1,1-.42,1.4,1.4,0,0,1,.6.11,1.28,1.28,0,0,1,.44.32,1.42,1.42,0,0,1,.27.48,2,2,0,0,1,.09.62,1.88,1.88,0,0,1-.17.8,1.18,1.18,0,0,1-.47.54,1.41,1.41,0,0,1-.76.2,1.27,1.27,0,0,1-1-.43,1.81,1.81,0,0,1,0-2.22Z"/><path class="cls-1" d="M122.72,240.93a2,2,0,0,1-.84-.18,6.15,6.15,0,0,1-.8-.47v1.47a4.63,4.63,0,0,0,.84.32,3.6,3.6,0,0,0,.64.13,3.18,3.18,0,0,0,.41,0A2.54,2.54,0,0,0,124,242a1.77,1.77,0,0,0,.72-.63,1.82,1.82,0,0,0,.25-1,1.6,1.6,0,0,0-.21-.85,2.19,2.19,0,0,0-.58-.6c-.25-.17-.58-.36-1-.58a2.34,2.34,0,0,1-.49-.31.42.42,0,0,1-.13-.31.42.42,0,0,1,.13-.32.61.61,0,0,1,.44-.13,1.86,1.86,0,0,1,.87.21,3.65,3.65,0,0,1,.73.47v-1.41a2.57,2.57,0,0,0-.34-.19,2.89,2.89,0,0,0-.63-.21,3.1,3.1,0,0,0-.83-.1,2.32,2.32,0,0,0-1.07.23,1.58,1.58,0,0,0-.65.63,1.81,1.81,0,0,0-.21.87,1.75,1.75,0,0,0,.21.87,2,2,0,0,0,.54.61,4.72,4.72,0,0,0,.78.45,3.11,3.11,0,0,1,.6.34.52.52,0,0,1,.21.41.48.48,0,0,1-.12.29Q123.14,240.93,122.72,240.93Z"/><path class="cls-1" d="M137.71,242.15h1.17a.24.24,0,0,0,.22-.25v-5.49a.24.24,0,0,0-.22-.25h-1.17a.24.24,0,0,0-.23.25v1.7a.23.23,0,0,1-.22.25h-2a.24.24,0,0,1-.22-.25v-1.7a.24.24,0,0,0-.22-.25h-1.18a.24.24,0,0,0-.22.25v5.49a.24.24,0,0,0,.22.25h1.18a.24.24,0,0,0,.22-.25v-1.84a.24.24,0,0,1,.22-.25h2a.23.23,0,0,1,.22.25v1.84A.24.24,0,0,0,137.71,242.15Z"/><path class="cls-1" d="M148,236.16a.24.24,0,0,0-.22.25v5.49a.24.24,0,0,0,.22.25h1.18a.24.24,0,0,0,.22-.25v-5.49a.24.24,0,0,0-.22-.25Z"/><path class="cls-1" d="M162.93,242.15h1.17a.24.24,0,0,0,.23-.25v-5.49a.24.24,0,0,0-.23-.25H163a.2.2,0,0,0-.17.09l-1.42,1.92a.21.21,0,0,1-.34,0l-1.42-1.92a.2.2,0,0,0-.17-.09H158.3a.24.24,0,0,0-.22.25v5.49a.24.24,0,0,0,.22.25h1.13a.24.24,0,0,0,.22-.25v-2.53a.22.22,0,0,1,.4-.15l1.07,1.47h.12l1.07-1.47a.22.22,0,0,1,.4.16v2.52A.23.23,0,0,0,162.93,242.15Z"/><path class="cls-1" d="M176.39,236.16h-1.5a.21.21,0,0,0-.2.15l-2.18,5.49a.25.25,0,0,0,.2.35h1.17a.21.21,0,0,0,.2-.16l.34-.9a.21.21,0,0,1,.2-.16h2a.21.21,0,0,1,.2.16l.33.9a.21.21,0,0,0,.2.16h1.17a.26.26,0,0,0,.21-.35l-2.18-5.49A.21.21,0,0,0,176.39,236.16Zm-.28,3.73h-.93a.24.24,0,0,1-.2-.34l.46-1.28a.21.21,0,0,1,.41,0l.46,1.27A.24.24,0,0,1,176.11,239.89Z"/><path class="cls-1" d="M95.47,200.4a1.18,1.18,0,0,0-1.22,1.14v2.39a1.18,1.18,0,0,0,1.22,1.14h12a1.18,1.18,0,0,0,1.21-1.14v-2.39a1.18,1.18,0,0,0-1.21-1.14Z"/><path class="cls-1" d="M111.87,211.66s0,0,0-.07,0-.06,0-.09v-2.66a.84.84,0,0,0-.79-.89H93.23a.84.84,0,0,0-.79.89v2.66a.84.84,0,0,0,.79.89h13.51c.62,0,1.08.49.75,2.07a8.85,8.85,0,0,1-2.55,4.58c-3.69,3.46-9.9,3-12,2.75a.81.81,0,0,0-.87.71l.13-.82-.13.82h0l-.21,1.33-.21,1.3a.88.88,0,0,0,.68,1,26.19,26.19,0,0,0,3.44.23c3.43,0,8.24-.69,11.74-4C110.22,219.9,111.7,216.28,111.87,211.66Z"/><path class="cls-1" d="M166.46,90.18l18.69-1a.55.55,0,0,1,.54.57l0,14.91a.55.55,0,0,1-.49.58l-17.73.94a.94.94,0,0,0-.83,1l.15,3.45a.91.91,0,0,0,.91.92l21.94-1.17h.06a1.09,1.09,0,0,0,.82-1.06l0-24a2.24,2.24,0,0,0-1.18-2l-13.29-6.65a.83.83,0,0,0-1.16.45l-1.34,3.12A1,1,0,0,0,174,81.5l3.08,1.64a.59.59,0,0,1-.19,1.09l-10.63.57a.93.93,0,0,0-.83,1l.15,3.45A.91.91,0,0,0,166.46,90.18Z"/><path class="cls-1" d="M3.14,137.57l27.41,6.49a.89.89,0,0,0,1-.93v-3.56a.94.94,0,0,0-.68-.93L6.52,132.89a.93.93,0,0,1-.68-.94V116.54a.53.53,0,0,1,.62-.56l35.26,8.52a.56.56,0,0,1,.4.56v19.25a1.74,1.74,0,0,0,2.28,1.8l1.64-.64L96.87,126a1,1,0,0,0,.58-.9v-3.68a.87.87,0,0,0-1.14-.9L48.13,139a.87.87,0,0,1-1.14-.9l0-12.29A1.91,1.91,0,0,1,48.13,124l30.59-11.74a1,1,0,0,0,.57-.9v-3.68a.88.88,0,0,0-1.13-.91L44.63,119.6a.44.44,0,0,1-.28,0l-31.66-7.46a.6.6,0,0,1-.06-1.11l23.15-8.74a1,1,0,0,0,.58-.91V97.73a.87.87,0,0,0-1.13-.91L2.16,109.32A1.91,1.91,0,0,0,1,111.13v23.5A3,3,0,0,0,3.14,137.57Zm41.18-15.7v0h0Z"/><path class="cls-1" d="M146.72,120.75v3.58a.93.93,0,0,0,.66.92L191.28,137a.54.54,0,0,1,.06,1L159.6,151.67a.75.75,0,0,1-.51,0l-63.47-17a.88.88,0,0,0-1.05.93v3.58a.94.94,0,0,0,.65.93l61,16.31a1,1,0,0,1,.65.93v21.92a2.1,2.1,0,0,0,2.79,2.15l2.05-.87h0l35.73-15.4a1,1,0,0,0,.55-.89v-3.73a.88.88,0,0,0-1.17-.89l-33.94,14.63a.87.87,0,0,1-1.17-.89V157.18a1,1,0,0,1,.55-.89L200.09,140a1.56,1.56,0,0,0,.9-1.45V134.8a.94.94,0,0,0-.66-.93l-52.56-14.05A.88.88,0,0,0,146.72,120.75Z"/><path class="cls-1" d="M115,47.06l38.74,3.82a.6.6,0,0,1,.29,1l-20,19.33A2.66,2.66,0,0,1,132,72L50.57,64a.91.91,0,0,0-1,.86v.45a1.13,1.13,0,0,0-.06.32V92.33a.91.91,0,0,0,.86,1H53.5a.91.91,0,0,0,.86-1v-22a.54.54,0,0,1,.56-.57l75.57,7.42a.57.57,0,0,1,.47.57V99.89a.54.54,0,0,1-.56.57L97.57,97.08a.9.9,0,0,0-.94,1v3.49a.91.91,0,0,0,.78,1l35.07,3.65a3.44,3.44,0,0,0,2.9-1.14l11.29-12.19a2.44,2.44,0,0,0,.65-1.69V86.86a.85.85,0,0,0-1.45-.69l-9.21,9.88a.51.51,0,0,1-.87-.41V77.25a.62.62,0,0,1,.18-.43l21.42-20.73a.52.52,0,0,1,.86.43V70.8a.9.9,0,0,0,.85,1h3.13a.9.9,0,0,0,.85-1l0-21.73a2.7,2.7,0,0,0-2.29-2.79l-45.63-4.62a.9.9,0,0,0-.94,1v3.5A.92.92,0,0,0,115,47.06Z"/><path class="cls-1" d="M82.67,144.36l-3.13-.84a.88.88,0,0,0-1.05.93v18.36A2.25,2.25,0,0,0,80.07,165l59.4,15.77a1.26,1.26,0,0,0,1.51-1.32v-2.75a1.33,1.33,0,0,0-.94-1.32L84,160.54a.94.94,0,0,1-.66-.93V145.28A.93.93,0,0,0,82.67,144.36Z"/><path class="cls-1" d="M21.91,48.76a.76.76,0,0,0,.79.74l3.15-.32a.79.79,0,0,0,.66-.88L25,30a.47.47,0,0,1,.39-.52l54.31-6.66a.77.77,0,0,1,.82.75l1.53,18a.82.82,0,0,1-.65.9l-43.95,6a.79.79,0,0,0-.64.9l.34,3.5a.76.76,0,0,0,.8.72L85,47.21a2.94,2.94,0,0,0,1.8-.94l8.8-9.42a1,1,0,0,0,.26-.79L95.47,32A.83.83,0,0,0,94,31.4l-6.8,7.27A.73.73,0,0,1,86,38.15l-1.4-16.47A.93.93,0,0,1,84.8,21L96.1,9a.43.43,0,0,1,.74.3l.8,9.73a.75.75,0,0,0,.79.73l3.15-.32a.78.78,0,0,0,.65-.88l-1.16-14.2a.79.79,0,0,0,0-.22l-.23-2.33a1.85,1.85,0,0,0-2-1.76L47,6.37a.8.8,0,0,0-.65.89l.35,3.51a.74.74,0,0,0,.8.71l43.4-5.31c.41-.06.65.51.35.83L81.61,17.28a.44.44,0,0,1-.25.13L21.88,24.7a2.12,2.12,0,0,0-1.71,2.39.71.71,0,0,0,0,.21Z"/><path class="cls-1" d="M29.11,318.83a7.27,7.27,0,0,0-2-5.18,7,7,0,0,0-5.15-2.09,6.48,6.48,0,0,0-4.77,2.06,7.86,7.86,0,0,0-2.06,5.23h3.52a4.28,4.28,0,0,1,1.18-2.7,3.26,3.26,0,0,1,2.41-1,3.18,3.18,0,0,1,2.52,1.1,3.81,3.81,0,0,1,.86,2.49,5.33,5.33,0,0,1-.13,1.15,5,5,0,0,1-.76,1.39l-9.6,12.41v3.42h14v-3.62H19.73l7.9-10.24A7.23,7.23,0,0,0,29.11,318.83Z"/><path class="cls-1" d="M34.56,313.44a7,7,0,0,0-2.18,5.41v11.2a7,7,0,0,0,7,7.3,7,7,0,0,0,4.88-1.92A7.21,7.21,0,0,0,46.34,330V318.85a7.26,7.26,0,0,0-2.11-5.41,6.9,6.9,0,0,0-4.88-1.88A6.79,6.79,0,0,0,34.56,313.44Zm8.25,5.63v10.77c-.06,2.56-1.22,3.86-3.46,3.88s-3.4-1.32-3.44-3.88V319.07c0-2.54,1.19-3.84,3.44-3.88S42.75,316.53,42.81,319.07Z"/><path class="cls-1" d="M63.31,318.83a7.18,7.18,0,0,0-2-5.18,7,7,0,0,0-5.15-2.09,6.48,6.48,0,0,0-4.77,2.06,7.91,7.91,0,0,0-2.06,5.23h3.52a4.28,4.28,0,0,1,1.18-2.7,3.28,3.28,0,0,1,2.41-1,3.21,3.21,0,0,1,2.53,1.1,3.86,3.86,0,0,1,.85,2.49,5.33,5.33,0,0,1-.13,1.15,5,5,0,0,1-.76,1.39l-9.6,12.41v3.42h14v-3.62H53.93l7.9-10.24A7.23,7.23,0,0,0,63.31,318.83Z"/><path class="cls-1" d="M68.76,335.43a6.92,6.92,0,0,0,4.79,1.92,7,7,0,0,0,4.88-1.92A7.21,7.21,0,0,0,80.54,330V318.85a7.26,7.26,0,0,0-2.11-5.41,6.89,6.89,0,0,0-4.88-1.88,6.79,6.79,0,0,0-4.79,1.88,6.92,6.92,0,0,0-2.17,5.41v11.2A6.87,6.87,0,0,0,68.76,335.43Zm1.35-16.36c0-2.54,1.19-3.84,3.44-3.88s3.4,1.34,3.46,3.88v10.77c-.06,2.56-1.22,3.86-3.46,3.88s-3.4-1.32-3.44-3.88Z"/><rect class="cls-1" x="84.66" y="333.37" width="3.36" height="3.46"/><path class="cls-1" d="M105.66,318.83a7.18,7.18,0,0,0-2-5.18,6.94,6.94,0,0,0-5.14-2.09,6.52,6.52,0,0,0-4.78,2.06,7.85,7.85,0,0,0-2,5.23h3.52a4.23,4.23,0,0,1,1.18-2.7,3.26,3.26,0,0,1,2.41-1,3.19,3.19,0,0,1,2.52,1.1,3.86,3.86,0,0,1,.86,2.49,5.38,5.38,0,0,1-.14,1.15,4.51,4.51,0,0,1-.76,1.39l-9.59,12.41v3.42h14v-3.62H96.28l7.9-10.24A7.17,7.17,0,0,0,105.66,318.83Z"/><rect class="cls-1" x="109.91" y="333.37" width="3.36" height="3.46"/><polygon class="cls-1" points="126.03 337.15 126.03 311.79 122.5 311.79 119.01 314.42 119.01 318.28 122.5 315.63 122.5 337.15 126.03 337.15"/><path class="cls-1" d="M141,331.88a2.68,2.68,0,0,1-1,1.32,3.48,3.48,0,0,1-2,.52,3.29,3.29,0,0,1-3.52-3h-3.52a7.21,7.21,0,0,0,2.61,5.05,7.51,7.51,0,0,0,4.57,1.53,6.15,6.15,0,0,0,3.2-.89,6.79,6.79,0,0,0,2.1-1.8,6,6,0,0,0,1.18-2.31,15.91,15.91,0,0,0,.34-3.79c0-1.06,0-2-.1-2.69a8.83,8.83,0,0,0-.34-1.82,6.19,6.19,0,0,0-1.48-2.42,5.56,5.56,0,0,0-1.81-1.31,7.26,7.26,0,0,0-2.6-.53,6.09,6.09,0,0,0-3.94,1.4v-5.77h9.8v-3.63H131.38V325.5h3.29a4.08,4.08,0,0,1,1.42-1.63,3.52,3.52,0,0,1,1.76-.45,4.59,4.59,0,0,1,1.81.31,2.72,2.72,0,0,1,1.1,1,7.57,7.57,0,0,1,.66,3.53c0,.59,0,1.2,0,1.83A6.33,6.33,0,0,1,141,331.88Z"/><rect class="cls-1" x="150.13" y="323.26" width="9.91" height="3.46"/><polygon class="cls-1" points="170.82 337.15 170.82 311.79 167.3 311.79 163.8 314.42 163.8 318.28 167.3 315.63 167.3 337.15 170.82 337.15"/><path class="cls-1" d="M182.72,315.19a3.2,3.2,0,0,1,3.22,2.13h3.63a6.83,6.83,0,0,0-2.41-4.29,7.18,7.18,0,0,0-4.44-1.47,6.72,6.72,0,0,0-4.79,1.89,6.92,6.92,0,0,0-2.18,5.41v11.19a7,7,0,0,0,7,7.3,7,7,0,0,0,4.87-1.91,7.15,7.15,0,0,0,2.11-5.39v-2.31q0-3.67-1.62-5.37A5.62,5.62,0,0,0,184,320.7a14.71,14.71,0,0,0-4.7.78v-2.39C179.32,316.54,180.47,315.23,182.72,315.19Zm0,8.71q3.36.08,3.46,3.88v2.07q-.1,3.84-3.46,3.87t-3.45-3.87v-2.07Q179.34,324,182.72,323.9Z"/><polygon class="cls-1" points="80.07 283.46 77.15 292.53 77.1 292.53 74.16 283.46 71.5 283.46 76.09 296.39 78.16 296.39 82.75 283.46 80.07 283.46"/><path class="cls-1" d="M91.52,296a2.73,2.73,0,0,0,.81-.54,4,4,0,0,0,.59-.56A4.42,4.42,0,0,0,94,293a12.21,12.21,0,0,0,.3-3.11,12.59,12.59,0,0,0-.3-3.14A4.07,4.07,0,0,0,92.92,285a4.42,4.42,0,0,0-1.39-1.16,5.41,5.41,0,0,0-2.4-.51,5.14,5.14,0,0,0-2.35.51,5.23,5.23,0,0,0-2.49,3,11.59,11.59,0,0,0-.32,3.15,11.22,11.22,0,0,0,.32,3.11,5,5,0,0,0,1,1.86,5.25,5.25,0,0,0,6.19,1.1Zm-4.43-3a3.53,3.53,0,0,1-.47-1.12,10.31,10.31,0,0,1-.14-2,10.67,10.67,0,0,1,.14-2,3.25,3.25,0,0,1,.47-1.07,2.13,2.13,0,0,1,.85-.69,2.63,2.63,0,0,1,1.19-.27,2.56,2.56,0,0,1,1.2.27,1.71,1.71,0,0,1,.82.69,2.4,2.4,0,0,1,.5,1.07,12.29,12.29,0,0,1,.12,2,11.49,11.49,0,0,1-.12,2,2.59,2.59,0,0,1-.5,1.12,2.26,2.26,0,0,1-.82.67,2.56,2.56,0,0,1-1.2.27,2.63,2.63,0,0,1-1.19-.27A3.08,3.08,0,0,1,87.09,293Z"/><path class="cls-1" d="M97.35,278.23v15a2.86,2.86,0,0,0,.94,2.42,3.53,3.53,0,0,0,2.26.7h1.13V294h-.88c-.62,0-.94-.29-.94-.88V278.23Z"/><rect class="cls-1" x="104" y="293.81" width="2.51" height="2.58"/><path class="cls-1" d="M118.27,295.35a5.43,5.43,0,0,0,1.58-4v-8.39a5.45,5.45,0,0,0-1.58-4.06,5.18,5.18,0,0,0-3.66-1.41,5.06,5.06,0,0,0-3.59,1.41,5.18,5.18,0,0,0-1.63,4.05v8.4a5.25,5.25,0,0,0,5.22,5.48A5.29,5.29,0,0,0,118.27,295.35ZM112,291.16v-8.08c0-1.91.9-2.88,2.59-2.91s2.56,1,2.61,2.91v8.08q-.07,2.88-2.61,2.91C112.92,294.05,112.05,293.08,112,291.16Z"/><path class="cls-1" d="M130.77,295.18a5.72,5.72,0,0,0,1.61-4.21,5.41,5.41,0,0,0-.52-2.3,4.68,4.68,0,0,0-1.73-1.88,4.47,4.47,0,0,0,1.63-1.81,5.85,5.85,0,0,0,.39-2.11,5.6,5.6,0,0,0-1.44-3.76,5.21,5.21,0,0,0-4-1.66,4.78,4.78,0,0,0-3.42,1.46,5.62,5.62,0,0,0-1.65,3.57h2.64a2.88,2.88,0,0,1,1-1.75,2.41,2.41,0,0,1,1.54-.56,2.66,2.66,0,0,1,1.93.77,2.89,2.89,0,0,1,.77,2,2.61,2.61,0,0,1-.75,1.94,2.78,2.78,0,0,1-2.1.78h-.91V288h1.13a2.79,2.79,0,0,1,2,.77,3.06,3.06,0,0,1,.83,2.25,3,3,0,0,1-.83,2.2,2.6,2.6,0,0,1-2,.82,2.43,2.43,0,0,1-1.74-.61,3.85,3.85,0,0,1-1-1.55h-2.64a6,6,0,0,0,1.88,3.62,4.94,4.94,0,0,0,3.33,1.26A5.45,5.45,0,0,0,130.77,295.18Z"/><path class="cls-1" d="M146,288.41a1,1,0,0,0,0,2h55a1,1,0,0,0,0-2Z"/><path class="cls-1" d="M1,290.41H56a1,1,0,0,0,0-2H1a1,1,0,0,0,0,2Z"/><path class="cls-1" d="M201,355.25H1a1,1,0,0,0,0,2H201a1,1,0,0,0,0-2Z"/></g></g></svg>