<svg xmlns="http://www.w3.org/2000/svg" viewBox="0 0 177.58 192.95"><defs><style>.cls-1{fill:#fff;}</style></defs><title>アセット 2</title><g id="レイヤー_2" data-name="レイヤー 2"><g id="TOP"><g id="TOP-2" data-name="TOP"><g id="ロゴ"><path class="cls-1" d="M69.39,180.87l-1.45-1.55a1,1,0,0,1,0-1.36c2.89-3.25,3.27-7.82,3.18-10.67a1,1,0,0,0-1-1l-12.8-.05a1,1,0,0,1-1-1v-2.12a1,1,0,0,1,1-1l16.43.06a1,1,0,0,1,1,.81l.17.85c.09.44,2,10.47-4.05,17A1,1,0,0,1,69.39,180.87Z"/><path class="cls-1" d="M57.35,180.5l-1.43-1.57a1,1,0,0,1,0-1.37c5.92-6.07,5.27-14.37,5-16.2a1.16,1.16,0,0,1,.1-.73.74.74,0,0,1,.37-.29l2.24-.76a1,1,0,0,1,1.31.84c.37,3.39.71,13.14-6.2,20.13A1,1,0,0,1,57.35,180.5Z"/><path class="cls-1" d="M116.79,180.87l-1.45-1.55a1,1,0,0,1,0-1.36c2.89-3.25,3.27-7.82,3.18-10.67a1,1,0,0,0-1-1l-12.8-.05a1,1,0,0,1-1-1v-2.12a1,1,0,0,1,1-1l16.43.06a1,1,0,0,1,1,.81l.17.85c.09.44,2,10.47-4.05,17A1,1,0,0,1,116.79,180.87Z"/><path class="cls-1" d="M104.76,180.5l-1.43-1.57a1,1,0,0,1,0-1.37c5.92-6.07,5.27-14.37,5-16.2a1.16,1.16,0,0,1,.1-.73.74.74,0,0,1,.37-.29l2.24-.76a1,1,0,0,1,1.31.84c.37,3.39.71,13.14-6.2,20.13A1,1,0,0,1,104.76,180.5Z"/><path class="cls-1" d="M127.16,170.19V168a1.08,1.08,0,0,1,1.06-1,10.74,10.74,0,0,0,10-7.33,1.14,1.14,0,0,1,1.27-.7l2.38.39a1,1,0,0,1,.89,1.26c-1.23,4-5.37,10.1-14.39,10.59A1.08,1.08,0,0,1,127.16,170.19Z"/><path class="cls-1" d="M137.55,180.85h-2.23a1,1,0,0,1-1.05-1V167.45a1,1,0,0,1,1.05-1h2.23a1,1,0,0,1,1.05,1V179.9A1,1,0,0,1,137.55,180.85Z"/><rect class="cls-1" x="146.58" y="162.44" width="12.74" height="4.17" rx="1.01" ry="1.01"/><rect class="cls-1" x="150.31" y="170.62" width="14.57" height="4.17" rx="1.01" ry="1.01"/><path class="cls-1" d="M153.25,180.63l-.37-21.48a1,1,0,0,1,1-1l2.14,0a1,1,0,0,1,1,1l.37,21.48a1,1,0,0,1-1,1l-2.14,0A1,1,0,0,1,153.25,180.63Z"/><rect class="cls-1" x="163.37" y="161.85" width="4.17" height="3.72" rx="1.01" ry="1.01"/><rect class="cls-1" x="169.07" y="161.85" width="4.17" height="3.72" rx="1.01" ry="1.01"/><path class="cls-1" d="M166,171.48l-1.59-.92a1.55,1.55,0,0,0-2.33,1.35v1.83a1.55,1.55,0,0,0,2.33,1.35l1.59-.92A1.55,1.55,0,0,0,166,171.48Z"/><path class="cls-1" d="M48.85,181.34H34.13A1.14,1.14,0,0,1,33,180.2v-1.66a1.14,1.14,0,0,1,1.14-1.14H44.9A1.14,1.14,0,0,0,46,176.25V165.7a1.14,1.14,0,0,0-1.14-1.14H34.23a1.14,1.14,0,0,1-1.14-1.14v-1.66a1.14,1.14,0,0,1,1.14-1.14H48.85A1.14,1.14,0,0,1,50,161.75V180.2A1.14,1.14,0,0,1,48.85,181.34Z"/><path class="cls-1" d="M26.64,183.54H11.93a1.21,1.21,0,0,1-1.14-1.26v-1.84a1.21,1.21,0,0,1,1.14-1.26H22.69a1.21,1.21,0,0,0,1.14-1.26V166.24A1.21,1.21,0,0,0,22.69,165H12a1.21,1.21,0,0,1-1.14-1.26v-1.84A1.21,1.21,0,0,1,12,160.6H26.64a1.21,1.21,0,0,1,1.14,1.26v20.41A1.21,1.21,0,0,1,26.64,183.54Z"/><path class="cls-1" d="M62.22,192.89H61a.2.2,0,0,1-.15-.07l-1.42-1.73a.2.2,0,0,0-.35.12v1.48a.2.2,0,0,1-.2.2h-1a.2.2,0,0,1-.2-.2v-4.38a.2.2,0,0,1,.2-.2h1a.2.2,0,0,1,.2.2v1.38a.2.2,0,0,0,.35.12l1.32-1.63a.2.2,0,0,1,.15-.07h1.06a.2.2,0,0,1,.15.32l-1.42,1.79a.2.2,0,0,0,0,.25l1.7,2.09A.2.2,0,0,1,62.22,192.89Z"/><path class="cls-1" d="M74.7,192.89h-1a.2.2,0,0,1-.18-.12l-.29-.72a.2.2,0,0,0-.18-.12H71.2A.2.2,0,0,0,71,192l-.3.72a.2.2,0,0,1-.18.12h-1a.2.2,0,0,1-.18-.28l1.93-4.38a.2.2,0,0,1,.18-.12h1.33a.2.2,0,0,1,.18.12l1.93,4.38A.2.2,0,0,1,74.7,192.89Zm-2-2.07-.41-1a.2.2,0,0,0-.36,0l-.41,1a.2.2,0,0,0,.18.27h.82A.2.2,0,0,0,72.7,190.83Z"/><path class="cls-1" d="M86.64,192.55l-.27.1-.21.07-.29.08a6.31,6.31,0,0,1-.65.12,5.7,5.7,0,0,1-.69,0,3.36,3.36,0,0,1-1.34-.26,2.21,2.21,0,0,1-1-.82,2.42,2.42,0,0,1-.37-1.37,2.89,2.89,0,0,1,.19-1,1.8,1.8,0,0,1,.58-.81,2.71,2.71,0,0,1,.65-.38,2.82,2.82,0,0,1,.65-.18,5,5,0,0,1,.7,0,4.73,4.73,0,0,1,1,.09l.75.2a.21.21,0,0,1,.14.19v1a3.94,3.94,0,0,0-.69-.32,2.74,2.74,0,0,0-.9-.13,1.85,1.85,0,0,0-1,.24,1.3,1.3,0,0,0-.52.56,1.54,1.54,0,0,0-.15.63,1.35,1.35,0,0,0,.17.67,1.24,1.24,0,0,0,.51.49,1.71,1.71,0,0,0,.82.18,2.58,2.58,0,0,0,.58-.07v-.56h-.65v-.76a.2.2,0,0,1,.2-.2h1.51a.2.2,0,0,1,.2.2Z"/><path class="cls-1" d="M99.37,190.5a2.51,2.51,0,0,1-.31,1.23,2.23,2.23,0,0,1-.92.89,3.08,3.08,0,0,1-1.48.33,3,3,0,0,1-1.5-.34,2.24,2.24,0,0,1-.91-.9,2.58,2.58,0,0,1,0-2.4,2.21,2.21,0,0,1,.91-.9,3,3,0,0,1,1.5-.34,3.31,3.31,0,0,1,1.18.2,2.36,2.36,0,0,1,.85.53,2.23,2.23,0,0,1,.51.78A2.57,2.57,0,0,1,99.37,190.5Zm-1.47,0a1.46,1.46,0,0,0-.08-.49,1.05,1.05,0,0,0-.24-.39,1.12,1.12,0,0,0-.39-.25,1.45,1.45,0,0,0-.53-.09,1.22,1.22,0,1,0,0,2.45,1.36,1.36,0,0,0,.67-.16,1,1,0,0,0,.42-.43A1.35,1.35,0,0,0,97.9,190.5Z"/><path class="cls-1" d="M110.1,191.5a1.32,1.32,0,0,1-.23.77,1.44,1.44,0,0,1-.64.5,2.38,2.38,0,0,1-.94.17l-.36,0a4.14,4.14,0,0,1-.57-.11,4.48,4.48,0,0,1-.74-.25v-1.17a5.25,5.25,0,0,0,.71.37,1.9,1.9,0,0,0,.75.15.65.65,0,0,0,.48-.12.36.36,0,0,0,.11-.23.39.39,0,0,0-.19-.32,2.63,2.63,0,0,0-.54-.27,4.27,4.27,0,0,1-.69-.36,1.64,1.64,0,0,1-.48-.49,1.25,1.25,0,0,1-.19-.69,1.27,1.27,0,0,1,.77-1.19,2.19,2.19,0,0,1,.95-.19,3.34,3.34,0,0,1,.74.08,3.22,3.22,0,0,1,.56.17l.3.15v1.12a3.92,3.92,0,0,0-.65-.38,1.82,1.82,0,0,0-.77-.17.59.59,0,0,0-.39.1.32.32,0,0,0-.12.25.31.31,0,0,0,.12.24,2.1,2.1,0,0,0,.43.25,8.52,8.52,0,0,1,.88.46,1.74,1.74,0,0,1,.52.48A1.15,1.15,0,0,1,110.1,191.5Z"/><path class="cls-1" d="M122.42,192.89h-1a.2.2,0,0,1-.2-.2v-1.47a.2.2,0,0,0-.2-.2h-1.77a.2.2,0,0,0-.2.2v1.47a.2.2,0,0,1-.2.2h-1a.2.2,0,0,1-.2-.2v-4.38a.2.2,0,0,1,.2-.2h1a.2.2,0,0,1,.2.2v1.36a.2.2,0,0,0,.2.2H121a.2.2,0,0,0,.2-.2v-1.36a.2.2,0,0,1,.2-.2h1a.2.2,0,0,1,.2.2v4.38A.2.2,0,0,1,122.42,192.89Z"/><path class="cls-1" d="M131.57,192.89h-1a.2.2,0,0,1-.2-.2v-4.38a.2.2,0,0,1,.2-.2h1a.2.2,0,0,1,.2.2v4.38A.2.2,0,0,1,131.57,192.89Z"/><path class="cls-1" d="M144.82,192.89h-1a.2.2,0,0,1-.2-.2v-2a.2.2,0,0,0-.35-.12l-.95,1.17h-.11l-1-1.17a.2.2,0,0,0-.35.12v2a.2.2,0,0,1-.2.2h-1a.2.2,0,0,1-.2-.2v-4.38a.2.2,0,0,1,.2-.2h1a.2.2,0,0,1,.15.07l1.25,1.53a.2.2,0,0,0,.3,0l1.26-1.53a.2.2,0,0,1,.15-.07h1a.2.2,0,0,1,.2.2v4.38A.2.2,0,0,1,144.82,192.89Z"/><path class="cls-1" d="M157.66,192.89h-1a.2.2,0,0,1-.18-.12l-.29-.72a.2.2,0,0,0-.18-.12h-1.81a.2.2,0,0,0-.18.12l-.3.72a.2.2,0,0,1-.18.12h-1a.2.2,0,0,1-.18-.28l1.93-4.38a.2.2,0,0,1,.18-.12h1.33a.2.2,0,0,1,.18.12l1.93,4.38A.2.2,0,0,1,157.66,192.89Zm-2-2.07-.41-1a.2.2,0,0,0-.36,0l-.41,1a.2.2,0,0,0,.18.27h.82A.2.2,0,0,0,155.66,190.83Z"/><path class="cls-1" d="M94.52,163.35H83.88a1,1,0,0,1-1.08-.9v-1.91a1,1,0,0,1,1.08-.9H94.52a1,1,0,0,1,1.08.9v1.91A1,1,0,0,1,94.52,163.35Z"/><rect class="cls-1" x="81.18" y="165.65" width="17.26" height="3.53" rx="0.71" ry="0.71"/><path class="cls-1" d="M84.12,180.35a25.26,25.26,0,0,1-3.05-.18.7.7,0,0,1-.6-.82l.5-2.76-.31,1.74.19-1.07a.7.7,0,0,1,.77-.58c1.88.22,7.39.57,10.68-2.19a7.78,7.78,0,0,0,2.62-6,.7.7,0,0,1,.7-.67h2.12a.71.71,0,0,1,.71.74,11.29,11.29,0,0,1-3.89,8.6C91.44,179.81,87.17,180.35,84.12,180.35Z"/><path class="cls-1" d="M93.87,169.18c.59,0,1,.42.64,1.86l2.3-1.32-1.66-1.86S93.28,169.21,93.87,169.18Z"/><path class="cls-1" d="M155.43,61a.77.77,0,0,0-1,.36l-1.19,2.48a.77.77,0,0,0,.36,1l2.73,1.31a.46.46,0,0,1-.17.87l-9.44.45a.77.77,0,0,0-.73.81l.13,2.75a.77.77,0,0,0,.81.73l16.6-.8a.46.46,0,0,1,.48.46l0,11.88a.46.46,0,0,1-.43.45l-15.75.76a.77.77,0,0,0-.73.81l.13,2.75a.77.77,0,0,0,.81.73l19.48-.93h.06a.89.89,0,0,0,.73-.85l0-19.11a1.78,1.78,0,0,0-1.05-1.63Z"/><path class="cls-1" d="M84.63,96,41.85,110.7a.76.76,0,0,1-1-.72l0-9.79a1.52,1.52,0,0,1,1-1.44L69,89.39a.76.76,0,0,0,.51-.72V85.74a.76.76,0,0,0-1-.72L38.74,95.28a.46.46,0,0,1-.24,0L10.38,89.34a.46.46,0,0,1-.05-.88l20.55-7a.76.76,0,0,0,.52-.72V77.85a.76.76,0,0,0-1-.72L1,87.08a1.52,1.52,0,0,0-1,1.44v18.72a2.39,2.39,0,0,0,1.9,2.34l24.34,5.18a.76.76,0,0,0,.92-.74v-2.83a.76.76,0,0,0-.6-.74L4.9,105.86a.76.76,0,0,1-.6-.74V92.83a.46.46,0,0,1,.55-.45l31.31,6.79a.46.46,0,0,1,.36.45V115a1.52,1.52,0,0,0,2,1.44l1.45-.51,45.14-15.55a.76.76,0,0,0,.51-.72V96.68A.76.76,0,0,0,84.63,96ZM38.45,97.12v0l0,0Z"/><path class="cls-1" d="M173.89,127.22l-30.14,11.65a.76.76,0,0,1-1-.71V125.21a.76.76,0,0,1,.49-.71l33.57-13a1.25,1.25,0,0,0,.8-1.16v-3a.76.76,0,0,0-.58-.74L130.32,95.45a.76.76,0,0,0-.94.74V99a.76.76,0,0,0,.58.74l39,9.35a.42.42,0,0,1,.05.8l-28.18,10.9a.76.76,0,0,1-.45,0L84,107.34a.76.76,0,0,0-.94.74v2.85a.76.76,0,0,0,.58.74l54.18,13a.76.76,0,0,1,.58.74v17.46a1.82,1.82,0,0,0,2.47,1.71l1.82-.69h0l31.72-12.27a.76.76,0,0,0,.49-.71v-3A.76.76,0,0,0,173.89,127.22Z"/><path class="cls-1" d="M143.93,39.09a2.23,2.23,0,0,0-2-2.23l-40.52-3.68a.76.76,0,0,0-.83.76v2.79a.76.76,0,0,0,.69.76l34.39,3a.46.46,0,0,1,.26.8l-17.73,15.4a2.48,2.48,0,0,1-1.84.6L44,51a.79.79,0,0,0-.87.69V52a.75.75,0,0,0,0,.26V73.55a.76.76,0,0,0,.76.76h2.77a.76.76,0,0,0,.76-.76V56.06a.46.46,0,0,1,.5-.45L115,61.52a.46.46,0,0,1,.42.45V79.57a.46.46,0,0,1-.5.45L85.74,77.33a.76.76,0,0,0-.83.76v2.78a.76.76,0,0,0,.69.76l31.14,2.9a3.27,3.27,0,0,0,2.58-.91l10-9.71a1.87,1.87,0,0,0,.57-1.35V69.19a.76.76,0,0,0-1.29-.55l-8.17,7.87a.46.46,0,0,1-.77-.33V61.54a.46.46,0,0,1,.16-.34l19-16.52a.46.46,0,0,1,.76.34V56.4a.76.76,0,0,0,.76.76h2.77a.76.76,0,0,0,.76-.76Z"/><path class="cls-1" d="M123.45,139.74,73.68,127.88a.76.76,0,0,1-.58-.74V115.73a.76.76,0,0,0-.58-.74l-2.77-.67a.76.76,0,0,0-.94.74v14.63a1.83,1.83,0,0,0,1.4,1.78L123,144a1.08,1.08,0,0,0,1.33-1.05v-2.19A1.08,1.08,0,0,0,123.45,139.74Z"/><path class="cls-1" d="M88.85,3.44a.64.64,0,0,0,0-.17l-.2-1.86A1.58,1.58,0,0,0,86.91,0L40.85,5.07a.65.65,0,0,0-.57.71l.31,2.79a.65.65,0,0,0,.71.57L79.83,4.91a.39.39,0,0,1,.31.66l-8.56,8.19a.39.39,0,0,1-.23.11L18.54,19.68A1.72,1.72,0,0,0,17,21.58a.64.64,0,0,0,0,.17l1.56,17.1a.65.65,0,0,0,.7.58l2.8-.26a.65.65,0,0,0,.58-.7l-1.33-14.6a.39.39,0,0,1,.34-.42l48.22-5.3a.66.66,0,0,1,.73.59L72,33.12a.66.66,0,0,1-.58.72l-39,4.8a.65.65,0,0,0-.57.71l.31,2.79a.65.65,0,0,0,.71.57l41.77-5.1a2.74,2.74,0,0,0,1.6-.75L84,29.36a.76.76,0,0,0,.23-.63l-.35-3.25A.76.76,0,0,0,82.6,25l-6,5.79a.66.66,0,0,1-1.11-.41L74.2,17.27a.66.66,0,0,1,.2-.54l10-9.6a.39.39,0,0,1,.65.24l.71,7.75a.65.65,0,0,0,.7.58l2.8-.26a.65.65,0,0,0,.58-.7Z"/></g></g></g></g></svg>