<svg xmlns="http://www.w3.org/2000/svg" viewBox="0 0 333.76 119.42"><defs><style>.cls-1{isolation:isolate;}.cls-2{fill:#fff;}.cls-3,.cls-4{fill:none;stroke:#fff;stroke-linecap:round;stroke-linejoin:round;}.cls-3{stroke-width:3.5px;}.cls-4{stroke-width:3px;}</style></defs><title>開催日時</title><g id="レイヤー_2" data-name="レイヤー 2"><g id="レイヤー_1-2" data-name="レイヤー 1"><g id="レイヤー_2-2" data-name="レイヤー 2"><g id="レイヤー_1-2-2" data-name="レイヤー 1-2"><g class="cls-1"><g class="cls-1"><path class="cls-2" d="M23.14,46.36a3.22,3.22,0,0,1-2.09.81,2.08,2.08,0,0,1-1.73-.79,2.19,2.19,0,0,1-.39-1.9,3.14,3.14,0,0,1,1.21-1.89A12.1,12.1,0,0,1,28,39.48a7.84,7.84,0,0,1,6.52,3A8.16,8.16,0,0,1,36,49.58v0Q34.63,56,25.66,63.38t-10,12.49l-1,4.72H26.74a2.08,2.08,0,0,1,1.73.79,2.19,2.19,0,0,1,.39,1.9,3.39,3.39,0,0,1-1.19,1.89A3.16,3.16,0,0,1,25.6,86H10.78A2.07,2.07,0,0,1,9,85.16a2.18,2.18,0,0,1-.39-1.89l1.58-7.41q1.54-7.34,10.51-14.73t9.84-11.53a3.92,3.92,0,0,0-.66-3.33,3.61,3.61,0,0,0-3-1.38A5.87,5.87,0,0,0,23.14,46.36Z"/></g><g class="cls-1"><path class="cls-2" d="M43.54,80.21a2.81,2.81,0,0,1,.51,2.37A4.18,4.18,0,0,1,42.54,85a4,4,0,0,1-2.59,1,2.58,2.58,0,0,1-2.16-1,2.73,2.73,0,0,1-.47-2.37,4.39,4.39,0,0,1,4.07-3.37A2.58,2.58,0,0,1,43.54,80.21Z"/></g><g class="cls-1"><path class="cls-2" d="M67.45,46.32a3.22,3.22,0,0,1-2.09.81,2.08,2.08,0,0,1-1.73-.79,2.19,2.19,0,0,1-.39-1.9,3.14,3.14,0,0,1,1.21-1.89,12.1,12.1,0,0,1,7.88-3.1,7.84,7.84,0,0,1,6.52,3,8.16,8.16,0,0,1,1.44,7.14v0Q78.94,55.95,70,63.35t-10,12.49l-1,4.72H71a2.08,2.08,0,0,1,1.73.79,2.19,2.19,0,0,1,.39,1.9A3.39,3.39,0,0,1,72,85.12a3.16,3.16,0,0,1-2.07.81H55.09a2.07,2.07,0,0,1-1.73-.81A2.18,2.18,0,0,1,53,83.25l1.58-7.41q1.54-7.34,10.51-14.73T74.9,49.59a3.92,3.92,0,0,0-.66-3.33,3.61,3.61,0,0,0-3-1.38A5.87,5.87,0,0,0,67.45,46.32Z"/></g><g class="cls-1"><path class="cls-2" d="M84.26,67.09a3.32,3.32,0,0,1,1.19-1.9,3.19,3.19,0,0,1,2.07-.79,2.08,2.08,0,0,1,1.73.79,2.2,2.2,0,0,1,.39,1.9l-2,9.4a3.85,3.85,0,0,0,.69,3.33,3.67,3.67,0,0,0,3,1.38A5.56,5.56,0,0,0,95,79.82a5.77,5.77,0,0,0,2.07-3.34l2-9.4a3.32,3.32,0,0,1,1.19-1.9,3.2,3.2,0,0,1,2.07-.79,2.09,2.09,0,0,1,1.73.79,2.2,2.2,0,0,1,.39,1.9l-2,9.4A12.41,12.41,0,0,1,98,83.62a12,12,0,0,1-7.76,3,7.84,7.84,0,0,1-6.52-3,8.24,8.24,0,0,1-1.47-7.14Zm21.92-8.2A3.32,3.32,0,0,1,105,60.8a3.2,3.2,0,0,1-2.07.79,2.08,2.08,0,0,1-1.73-.79,2.19,2.19,0,0,1-.39-1.9l2-9.4a3.85,3.85,0,0,0-.69-3.33,3.67,3.67,0,0,0-3-1.38,5.57,5.57,0,0,0-3.62,1.38,5.78,5.78,0,0,0-2.07,3.34l-2,9.4a3.32,3.32,0,0,1-1.19,1.9,3.19,3.19,0,0,1-2.07.79,2.08,2.08,0,0,1-1.73-.79,2.19,2.19,0,0,1-.39-1.9l2-9.4a12.41,12.41,0,0,1,4.46-7.14,12,12,0,0,1,7.76-3,7.84,7.84,0,0,1,6.52,3,8.24,8.24,0,0,1,1.47,7.14Z"/></g><g class="cls-1"><path class="cls-2" d="M121.63,84.25a2.92,2.92,0,0,1-.64.87,2.29,2.29,0,0,1-1.45.55,1.48,1.48,0,0,1-1.19-.55,2,2,0,0,1-.28-1l-1.44-19a1.88,1.88,0,0,1,0-.57,2.28,2.28,0,0,1,.81-1.3,2.19,2.19,0,0,1,1.41-.54,1.47,1.47,0,0,1,1.19.53,1.33,1.33,0,0,1,.28.71l1,13.34,6.56-13.16a2.24,2.24,0,0,1,.69-.9,2.15,2.15,0,0,1,1.4-.53,1.46,1.46,0,0,1,1.19.53,1.32,1.32,0,0,1,.28.71l1,13.34L139,64.1a2.29,2.29,0,0,1,.69-.87,2.22,2.22,0,0,1,1.4-.53,1.35,1.35,0,0,1,1.17.54,1.56,1.56,0,0,1,.23,1.3,3.69,3.69,0,0,1-.23.67l-9.54,19a2.92,2.92,0,0,1-.64.87,2.29,2.29,0,0,1-1.45.55,1.48,1.48,0,0,1-1.19-.55,2,2,0,0,1-.28-1l-1-13Z"/></g><g class="cls-1"><path class="cls-2" d="M151.35,76.47a1.42,1.42,0,0,1-1.18-.54,1.49,1.49,0,0,1-.27-1.3,2.27,2.27,0,0,1,.81-1.3,2.18,2.18,0,0,1,1.41-.54h2.76l.78-3.67a2.65,2.65,0,0,0-.46-2.27,2.47,2.47,0,0,0-2.07-.94,3.84,3.84,0,0,0-2.48.94,3.92,3.92,0,0,0-1.42,2.27L147.1,79.23a2.6,2.6,0,0,0,.44,2.27,2.49,2.49,0,0,0,2.09.94,3.83,3.83,0,0,0,2.48-.94,2.24,2.24,0,0,1,1.45-.58,1.42,1.42,0,0,1,1.18.54,1.49,1.49,0,0,1,.27,1.3,2.53,2.53,0,0,1-.87,1.36,8.11,8.11,0,0,1-5.28,2,5.35,5.35,0,0,1-4.45-2,5.62,5.62,0,0,1-1-4.87l2.15-10.13a8.44,8.44,0,0,1,3.05-4.87,8.19,8.19,0,0,1,5.3-2,5.31,5.31,0,0,1,4.43,2,5.64,5.64,0,0,1,1,4.87l-1.17,5.51a2.33,2.33,0,0,1-.8,1.26,2.25,2.25,0,0,1-1.42.58Z"/></g><g class="cls-1"><path class="cls-2" d="M172,66.35a3.77,3.77,0,0,0-2.16.92,3.91,3.91,0,0,0-1.42,2.27l-2,9.21A2.63,2.63,0,0,0,166.9,81,2.5,2.5,0,0,0,169,82h3.21l5.45-25.72a2.27,2.27,0,0,1,.81-1.3,2.19,2.19,0,0,1,1.41-.54,1.43,1.43,0,0,1,1.18.54,1.5,1.5,0,0,1,.26,1.3L175.47,83.8a2.26,2.26,0,0,1-.81,1.3,2.18,2.18,0,0,1-1.41.54H168.2a5.34,5.34,0,0,1-4.44-2,5.61,5.61,0,0,1-1-4.87l2-9.21a8.44,8.44,0,0,1,3.05-4.87,8.11,8.11,0,0,1,4.71-2,1.55,1.55,0,0,1,1.3.54,1.49,1.49,0,0,1,.26,1.3,2.1,2.1,0,0,1-.83,1.29A2.18,2.18,0,0,1,172,66.35Z"/></g><g class="cls-1"><path class="cls-2" d="M197.36,65.63a2.08,2.08,0,0,1-1.74-.79,2.19,2.19,0,0,1-.39-1.9,3.32,3.32,0,0,1,1.19-1.9,3.19,3.19,0,0,1,2.07-.79h8.12a2.09,2.09,0,0,1,1.74.79,2.2,2.2,0,0,1,.39,1.9,3.32,3.32,0,0,1-1.19,1.9,3.19,3.19,0,0,1-2.07.79Z"/></g><g class="cls-1"><path class="cls-2" d="M235.37,46.21a3.22,3.22,0,0,1-2.09.81,2.08,2.08,0,0,1-1.74-.79,2.19,2.19,0,0,1-.39-1.9,3.14,3.14,0,0,1,1.21-1.89,12.09,12.09,0,0,1,7.88-3.1,7.84,7.84,0,0,1,6.52,3,8.16,8.16,0,0,1,1.44,7.14v0q-1.34,6.37-10.31,13.77t-10,12.49l-1,4.72H239a2.08,2.08,0,0,1,1.74.79,2.2,2.2,0,0,1,.39,1.9A3.39,3.39,0,0,1,239.9,85a3.16,3.16,0,0,1-2.07.81H223a2.06,2.06,0,0,1-1.73-.81,2.18,2.18,0,0,1-.39-1.89l1.58-7.41Q224,68.38,233,61t9.84-11.53a3.92,3.92,0,0,0-.66-3.33,3.61,3.61,0,0,0-3-1.38A5.86,5.86,0,0,0,235.37,46.21Z"/></g><g class="cls-1"><path class="cls-2" d="M248,85.8a2.08,2.08,0,0,1-1.74-.79,2.19,2.19,0,0,1-.39-1.9,3.32,3.32,0,0,1,1.19-1.9,3.19,3.19,0,0,1,2.07-.79h4l7.42-35.06h-4a2.08,2.08,0,0,1-1.74-.79,2.19,2.19,0,0,1-.39-1.9,3.31,3.31,0,0,1,1.2-1.9A3.19,3.19,0,0,1,257.7,40h6.74a2.11,2.11,0,0,1,1.72.77,2.27,2.27,0,0,1,.37,1.92l-8,37.76h2.73a2.08,2.08,0,0,1,1.73.79,2.19,2.19,0,0,1,.39,1.9,3.32,3.32,0,0,1-1.19,1.9,3.2,3.2,0,0,1-2.07.79Z"/></g><g class="cls-1"><path class="cls-2" d="M280.72,59a2.25,2.25,0,0,1,.83-1.3,2.2,2.2,0,0,1,1.4-.54,1.43,1.43,0,0,1,1.18.54,1.5,1.5,0,0,1,.26,1.3l-.78,3.65h2.3a1.42,1.42,0,0,1,1.18.54,1.5,1.5,0,0,1,.26,1.3,2.27,2.27,0,0,1-.81,1.3,2.19,2.19,0,0,1-1.41.54h-2.3L280,79.6a1.89,1.89,0,0,0,.31,1.63,1.76,1.76,0,0,0,1.48.67,1.43,1.43,0,0,1,1.21.55,1.49,1.49,0,0,1,.27,1.29,2.27,2.27,0,0,1-.81,1.3,2.22,2.22,0,0,1-1.44.54,4.6,4.6,0,0,1-3.84-1.75,4.84,4.84,0,0,1-.85-4.21l2.82-13.37a1.34,1.34,0,0,1-.74-.5,1.47,1.47,0,0,1-.28-1.29,2.29,2.29,0,0,1,.83-1.31,2.41,2.41,0,0,1,1-.48Z"/></g><g class="cls-1"><path class="cls-2" d="M295.91,66.29l-3.68,17.43a2.27,2.27,0,0,1-.81,1.3,2.19,2.19,0,0,1-1.41.54,1.42,1.42,0,0,1-1.18-.54,1.5,1.5,0,0,1-.26-1.3l5.84-27.56a2.26,2.26,0,0,1,.81-1.3,2.18,2.18,0,0,1,1.41-.54,1.42,1.42,0,0,1,1.18.54,1.49,1.49,0,0,1,.26,1.3l-1.37,6.45h3.21a5.34,5.34,0,0,1,4.45,2,5.62,5.62,0,0,1,1,4.87l-3,14.22a2.26,2.26,0,0,1-.81,1.3,2.17,2.17,0,0,1-1.41.54,1.42,1.42,0,0,1-1.18-.54,1.49,1.49,0,0,1-.27-1.3l3-14.22a2.63,2.63,0,0,0-.47-2.27,2.5,2.5,0,0,0-2.08-.94Z"/></g><g class="cls-1"><path class="cls-2" d="M323.18,64.41a2.28,2.28,0,0,1,.81-1.3,2.19,2.19,0,0,1,1.41-.54,1.42,1.42,0,0,1,1.18.54,1.5,1.5,0,0,1,.27,1.3L322.78,83.7A2.27,2.27,0,0,1,322,85a2.19,2.19,0,0,1-1.41.54H315.5a5.34,5.34,0,0,1-4.44-2,5.62,5.62,0,0,1-1-4.87l3-14.24a2.28,2.28,0,0,1,.81-1.3,2.19,2.19,0,0,1,1.41-.54,1.42,1.42,0,0,1,1.18.54,1.49,1.49,0,0,1,.27,1.3l-3,14.24a2.63,2.63,0,0,0,.47,2.27,2.5,2.5,0,0,0,2.08.94h3.21Z"/></g></g><g class="cls-1"><g class="cls-1"><path class="cls-2" d="M10.09,1.73a1.69,1.69,0,0,1,.61-1,1.63,1.63,0,0,1,1.05-.4,1.09,1.09,0,0,1,.89.39,1.2,1.2,0,0,1,.22.72l.84,15.46L21.13,1.47a1.84,1.84,0,0,1,.55-.72,1.61,1.61,0,0,1,1-.39,1.06,1.06,0,0,1,.88.4,1.12,1.12,0,0,1,.2,1,2.22,2.22,0,0,1-.09.29l-9.86,20.5a2,2,0,0,1-.5.72,1.66,1.66,0,0,1-1.08.43,1.1,1.1,0,0,1-.89-.41,1.23,1.23,0,0,1-.21-.74L10,2C10,1.93,10.06,1.83,10.09,1.73Z"/></g><g class="cls-1"><path class="cls-2" d="M29.88.36a1.05,1.05,0,0,1,.88.41,1.11,1.11,0,0,1,.2,1,1.67,1.67,0,0,1-.6,1l-.24.19a5,5,0,0,0-.48.33,2.93,2.93,0,0,0-1.06,1.7l-3,14.25a2,2,0,0,0,.34,1.7,2.8,2.8,0,0,0,.33.31.61.61,0,0,1,.17.17,1.13,1.13,0,0,1,.21,1,1.68,1.68,0,0,1-.62,1,1.64,1.64,0,0,1-1,.4,1.18,1.18,0,0,1-.7-.21,3.2,3.2,0,0,1-.69-.69,4.21,4.21,0,0,1-.74-3.63l3-14.25a6.3,6.3,0,0,1,2.28-3.63A8.37,8.37,0,0,1,29,.62,1.54,1.54,0,0,1,29.88.36ZM32.83,3a.79.79,0,0,1-.29-.26,1.06,1.06,0,0,1-.21-1,1.69,1.69,0,0,1,.61-1A1.63,1.63,0,0,1,34,.38a1.19,1.19,0,0,1,.75.24,3.77,3.77,0,0,1,.63.65,4.21,4.21,0,0,1,.74,3.63l-3,14.25a6.3,6.3,0,0,1-2.28,3.63,6.73,6.73,0,0,1-1,.7,1.63,1.63,0,0,1-.79.21,1.05,1.05,0,0,1-.88-.41,1.11,1.11,0,0,1-.2-1,1.71,1.71,0,0,1,.62-1,1.53,1.53,0,0,1,.22-.15c.16-.1.32-.22.48-.34a2.92,2.92,0,0,0,1.06-1.7l3-14.25A2,2,0,0,0,33,3.21,2.21,2.21,0,0,0,32.83,3Z"/></g><g class="cls-1"><path class="cls-2" d="M42.45,1.73a1.69,1.69,0,0,1,.61-1,1.63,1.63,0,0,1,1.05-.4,1.06,1.06,0,0,1,.88.4,1.12,1.12,0,0,1,.2,1l-4.08,19.2h4.46a1.06,1.06,0,0,1,.88.4,1.12,1.12,0,0,1,.2,1,1.69,1.69,0,0,1-.61,1,1.63,1.63,0,0,1-1.05.4H39.16a1.06,1.06,0,0,1-.88-.4,1.12,1.12,0,0,1-.2-1Z"/></g><g class="cls-1"><path class="cls-2" d="M53.72,20.75A1.43,1.43,0,0,1,54,22a2.13,2.13,0,0,1-.77,1.21,2,2,0,0,1-1.32.51,1.31,1.31,0,0,1-1.1-.51A1.38,1.38,0,0,1,50.55,22a2.23,2.23,0,0,1,2.07-1.71A1.31,1.31,0,0,1,53.72,20.75Z"/></g><g class="cls-1"><path class="cls-2" d="M65.95,3.51a1.64,1.64,0,0,1-1.06.41,1.06,1.06,0,0,1-.88-.4,1.12,1.12,0,0,1-.2-1,1.6,1.6,0,0,1,.62-1,6.16,6.16,0,0,1,4-1.58,4,4,0,0,1,3.32,1.51,4.15,4.15,0,0,1,.73,3.63v0q-.69,3.24-5.25,7t-5.12,6.35l-.51,2.4h6.17a1.06,1.06,0,0,1,.88.4,1.12,1.12,0,0,1,.2,1,1.73,1.73,0,0,1-.61,1,1.61,1.61,0,0,1-1.05.41H59.64a1.05,1.05,0,0,1-.88-.41,1.11,1.11,0,0,1-.2-1l.81-3.77q.79-3.74,5.36-7.49t5-5.86a2,2,0,0,0-.33-1.7,1.84,1.84,0,0,0-1.55-.7A3,3,0,0,0,65.95,3.51Z"/></g><g class="cls-1"><path class="cls-2" d="M91.15,3.51a1.64,1.64,0,0,1-1.06.41,1.06,1.06,0,0,1-.88-.4,1.12,1.12,0,0,1-.2-1,1.6,1.6,0,0,1,.62-1,6.16,6.16,0,0,1,4-1.58,4,4,0,0,1,3.32,1.51,4.15,4.15,0,0,1,.73,3.63v0q-.69,3.24-5.25,7t-5.12,6.35l-.51,2.4H93a1.06,1.06,0,0,1,.88.4,1.12,1.12,0,0,1,.2,1,1.73,1.73,0,0,1-.61,1,1.61,1.61,0,0,1-1.05.41H84.84a1.05,1.05,0,0,1-.88-.41,1.11,1.11,0,0,1-.2-1l.81-3.77q.79-3.74,5.36-7.49t5-5.86a2,2,0,0,0-.33-1.7A1.84,1.84,0,0,0,93,2.78,3,3,0,0,0,91.15,3.51Z"/></g><g class="cls-1"><path class="cls-2" d="M99.79,14.09a1.69,1.69,0,0,1,.61-1,1.63,1.63,0,0,1,1.05-.4,1.06,1.06,0,0,1,.88.4,1.12,1.12,0,0,1,.2,1l-1,4.78a2,2,0,0,0,.35,1.7,1.87,1.87,0,0,0,1.55.7,2.83,2.83,0,0,0,1.84-.7,2.94,2.94,0,0,0,1.05-1.7l1-4.78a1.69,1.69,0,0,1,.61-1,1.63,1.63,0,0,1,1.05-.4,1.06,1.06,0,0,1,.88.4,1.12,1.12,0,0,1,.2,1l-1,4.78a6.31,6.31,0,0,1-2.27,3.63,6.08,6.08,0,0,1-4,1.51,4,4,0,0,1-3.32-1.51,4.19,4.19,0,0,1-.75-3.63ZM111,9.93a1.69,1.69,0,0,1-.61,1,1.63,1.63,0,0,1-1.05.4,1.06,1.06,0,0,1-.88-.4,1.11,1.11,0,0,1-.2-1l1-4.78a2,2,0,0,0-.35-1.7,1.87,1.87,0,0,0-1.55-.7,2.83,2.83,0,0,0-1.84.7,2.94,2.94,0,0,0-1.05,1.7l-1,4.78a1.69,1.69,0,0,1-.61,1,1.63,1.63,0,0,1-1.05.4,1.06,1.06,0,0,1-.88-.4,1.11,1.11,0,0,1-.2-1l1-4.78A6.32,6.32,0,0,1,104,1.51a6.09,6.09,0,0,1,4-1.51,4,4,0,0,1,3.32,1.51A4.2,4.2,0,0,1,112,5.14Z"/></g><g class="cls-1"><path class="cls-2" d="M112.66,23.67a1.06,1.06,0,0,1-.88-.4,1.12,1.12,0,0,1-.2-1,1.69,1.69,0,0,1,.61-1,1.63,1.63,0,0,1,1.05-.4h2.06l3.79-17.85h-2a1.06,1.06,0,0,1-.88-.4,1.12,1.12,0,0,1-.2-1,1.69,1.69,0,0,1,.61-1,1.63,1.63,0,0,1,1.05-.4h3.43a1.08,1.08,0,0,1,.87.39,1.16,1.16,0,0,1,.19,1L118,20.93h1.39a1.06,1.06,0,0,1,.88.4,1.12,1.12,0,0,1,.2,1,1.69,1.69,0,0,1-.61,1,1.63,1.63,0,0,1-1.05.4Z"/></g><g class="cls-1"><path class="cls-2" d="M131.49,13.13a1.07,1.07,0,0,1,.21,1,1.72,1.72,0,0,1-.61,1,1.76,1.76,0,0,1-1.17.41A3.92,3.92,0,0,1,127.05,14a4.21,4.21,0,0,1-.74-3.63l1.11-5.18a6.32,6.32,0,0,1,2.27-3.63,6.08,6.08,0,0,1,4-1.51A4,4,0,0,1,137,1.53a4.19,4.19,0,0,1,.75,3.63l-3,14.06h0l.07-.33a6.32,6.32,0,0,1-2.27,3.63,6.08,6.08,0,0,1-4,1.51,4,4,0,0,1-3.33-1.51,1.23,1.23,0,0,1-.21-1,1.69,1.69,0,0,1,.61-1,1.63,1.63,0,0,1,1.05-.4,1.06,1.06,0,0,1,.89.43,1.89,1.89,0,0,0,1.56.7,2.82,2.82,0,0,0,1.85-.7,3.54,3.54,0,0,0,1.13-2h0L135,5.16a2,2,0,0,0-.35-1.7,1.87,1.87,0,0,0-1.55-.7,2.83,2.83,0,0,0-1.84.7,2.94,2.94,0,0,0-1.05,1.7l-1.11,5.18a2,2,0,0,0,.34,1.7,1.77,1.77,0,0,0,1.35.69A1,1,0,0,1,131.49,13.13Z"/></g></g><line class="cls-3" x1="1.75" y1="117.67" x2="332.01" y2="117.67"/><line class="cls-4" x1="1.75" y1="107.21" x2="332.01" y2="107.21"/></g></g></g></g></svg>