<svg xmlns="http://www.w3.org/2000/svg" viewBox="0 0 710.95 464.64"><defs><style>.cls-1{fill:#efe3df;}.cls-2{fill:#e6c338;}.cls-3{fill:#422610;}</style></defs><title>アセット 78</title><g id="レイヤー_2" data-name="レイヤー 2"><path class="cls-1" d="M704.55,177a5.53,5.53,0,0,0,0-1.26l-1.26-13.6c-.59-6.37-5.43-11-10.81-10.26L407.78,188.91c-2.19.29-3.77,2.62-3.53,5.21l1.9,20.43c.24,2.59,2.21,4.47,4.4,4.18l238.22-31c2.28-.3,3.57,3,1.92,4.87l-52.94,60a2.26,2.26,0,0,1-1.39.77l-326.48,42.5c-5.85.76-10.06,7-9.42,13.91a5.53,5.53,0,0,0-.06,1.24L270,436.16c.2,2.6,2.14,4.51,4.34,4.28l17.29-1.87c2.2-.24,3.81-2.54,3.61-5.14L287,326.58a2.75,2.75,0,0,1,2.12-3.08l298.11-38.81c2.26-.29,4.29,1.66,4.5,4.34l8.42,105.22c.21,2.6-1.37,4.92-3.56,5.24L355.38,434.63c-2.19.29-3.77,2.62-3.53,5.21l1.9,20.43c.24,2.59,2.21,4.47,4.4,4.18L616.36,427.1a16,16,0,0,0,9.89-5.47l48.32-54.94a6.19,6.19,0,0,0,1.41-4.6l-2.15-23.79c-.42-4.61-5.13-6.63-7.95-3.41l-37.32,42.39c-2.46,2.79-6.55,1-6.87-3L614,278.21a5.35,5.35,0,0,1,1.24-3.94l62-70.25c1.45-1.64,3.86-.57,4,1.79l4.38,56.71c.2,2.6,2.14,4.51,4.34,4.28l17.29-1.87c2.2-.24,3.81-2.54,3.61-5.14Z"/><path class="cls-2" d="M11.66,2a9.72,9.72,0,0,1,6.88,2.45,8.23,8.23,0,0,1,2.65,6.32,8.13,8.13,0,0,1-2.68,6.33,10.14,10.14,0,0,1-7.06,2.42H5.83V32.18H0V2ZM10.22,15a5.6,5.6,0,0,0,3.64-1.07,3.85,3.85,0,0,0,1.31-3.16q0-4.17-5.36-4.17h-4V15Z"/><path class="cls-2" d="M45.55,2a10.12,10.12,0,0,1,6.93,2.35,7.78,7.78,0,0,1,2.68,6.13A7.66,7.66,0,0,1,53.83,15a8.81,8.81,0,0,1-3.94,3,8.76,8.76,0,0,1,2.57,2.12,27.16,27.16,0,0,1,2.79,4.52q2.76,5.49,4.1,7.56h-6.5A35.85,35.85,0,0,1,51,29a69.58,69.58,0,0,0-3.67-6.49,8.81,8.81,0,0,0-2.25-2.38,4.46,4.46,0,0,0-2.48-.7H40.51V32.18H34.68V2ZM44.23,14.87a5.27,5.27,0,0,0,3.6-1.15,4,4,0,0,0,1.31-3.13,3.71,3.71,0,0,0-1.3-3.1,5.83,5.83,0,0,0-3.69-1H40.51v8.4Z"/><path class="cls-2" d="M87.49,1.61a18.13,18.13,0,0,1,8.43,1.93,14.88,14.88,0,0,1,6,5.57,15,15,0,0,1,2.23,8A15.16,15.16,0,0,1,96,30.57a19.08,19.08,0,0,1-17.06,0A14.93,14.93,0,0,1,70.81,17.1,15.19,15.19,0,0,1,73,9.3a14.87,14.87,0,0,1,5.9-5.67A18,18,0,0,1,87.49,1.61ZM76.84,17.1a10.75,10.75,0,0,0,1.36,5.4A9.46,9.46,0,0,0,82,26.21a11.34,11.34,0,0,0,5.5,1.32,10.49,10.49,0,0,0,7.64-2.92,10,10,0,0,0,3-7.52,10.88,10.88,0,0,0-1.35-5.41A9.34,9.34,0,0,0,93,8a12.17,12.17,0,0,0-11,0,9.23,9.23,0,0,0-3.77,3.72A11,11,0,0,0,76.84,17.1Z"/><path class="cls-2" d="M127.4,0V29a11.2,11.2,0,0,1-2.59,7.74,8.76,8.76,0,0,1-6.87,2.9h-.57a4,4,0,0,1-.57,0l-.41-5q5.18,0,5.18-6.07V0Z"/><path class="cls-2" d="M169.53,2V6.56H155.86v7.93h13.09V19H155.86v8.57h14v4.56H150V2Z"/><path class="cls-2" d="M200,1.61a21.77,21.77,0,0,1,5,.58,25.43,25.43,0,0,1,5.31,2V9.67a25,25,0,0,0-5.15-2.31,17,17,0,0,0-4.94-.71A12.54,12.54,0,0,0,194.41,8a9.74,9.74,0,0,0-4,3.75,10.34,10.34,0,0,0-1.44,5.38,10.4,10.4,0,0,0,1.43,5.42,9.56,9.56,0,0,0,4,3.7,12.77,12.77,0,0,0,5.83,1.31,15.65,15.65,0,0,0,4.74-.71,34.32,34.32,0,0,0,5.69-2.57v5.49a26.33,26.33,0,0,1-5.4,2.18,22.71,22.71,0,0,1-5.75.65,18.64,18.64,0,0,1-8.53-1.9,14.26,14.26,0,0,1-5.91-5.48,14.91,14.91,0,0,1-2.15-7.83,15.41,15.41,0,0,1,2.21-8.19,14.86,14.86,0,0,1,6.09-5.6A19.05,19.05,0,0,1,200,1.61Z"/><path class="cls-2" d="M250.08,2V6.56H239.37V32.18h-5.83V6.56H222.83V2Z"/><path class="cls-3" d="M9.54,85a18.59,18.59,0,0,0,0,28H0V85Z"/><path class="cls-3" d="M27.25,98.14c.32-.15.38-.12.53.15A19.43,19.43,0,0,0,31,103a18.44,18.44,0,0,0,1.9-2.6,13.43,13.43,0,0,0,1.23-2.54c1.11.47,1.87.88,2.57,1.2.26.15.44.35.44.52a.79.79,0,0,1-.35.58,6.47,6.47,0,0,0-1.08,1.31,39,39,0,0,1-2.57,3.44c2.74,2,6.31,3.42,11.15,4.29a7.67,7.67,0,0,0-1.2,2.28c-.2.56-.29.79-.56.79a3.86,3.86,0,0,1-.67-.12A28.09,28.09,0,0,1,31,107c-2.45,2.13-5.54,3.65-10.54,5.11a3.25,3.25,0,0,1-.67.15c-.29,0-.35-.18-.58-.73a7.2,7.2,0,0,0-1.31-1.93A26.23,26.23,0,0,0,28.82,105a27.4,27.4,0,0,1-3.71-5.37c-.15-.26-.09-.35.26-.53Zm-3.24-4a7,7,0,0,0,1.11-1.78,15.18,15.18,0,0,1,2.31,1.26c.41.29.53.41.53.58s-.12.29-.38.47a3.84,3.84,0,0,0-1,1.05,23.86,23.86,0,0,1-5.63,5,1.63,1.63,0,0,1-.7.35c-.15,0-.26-.15-.5-.5a6.79,6.79,0,0,0-1.58-1.75A19.28,19.28,0,0,0,24,94.17Zm-1.63-2.3c-2.66,0-3.53.06-3.71.06s-.32,0-.32-.29V89.27c0-.29,0-.29.32-.29s1.05,0,3.71,0h7v-.53a12.81,12.81,0,0,0-.2-2.69c1.05,0,2.07.06,3.12.15.26,0,.44.15.44.29a1.52,1.52,0,0,1-.17.56,6,6,0,0,0-.12,1.72V89h7.33c2.63,0,3.53,0,3.71,0s.32,0,.32.29v2.36c0,.26,0,.29-.32.29s-1.08-.06-3.71-.06Zm13.45.79a.84.84,0,0,1,.35-.15c.09,0,.15.06.26.17a19.27,19.27,0,0,0,7.47,5.61,10,10,0,0,0-1.46,1.87c-.26.47-.38.67-.61.67a2,2,0,0,1-.7-.29,21.94,21.94,0,0,1-7.06-6.33c-.2-.26-.15-.35.18-.56Z"/><path class="cls-3" d="M54,93.65c.24-.29.32-.29.58-.15a22.87,22.87,0,0,1,4.17,3c.12.12.17.17.17.23s-.06.17-.17.35l-1.34,1.87c-.09.15-.15.21-.23.21s-.15-.06-.26-.18a22.34,22.34,0,0,0-4.08-3.18c-.15-.09-.23-.15-.23-.2a.75.75,0,0,1,.2-.35Zm.41,14.24a56.11,56.11,0,0,0,2.83-6.77c.41.41,1.05,1,1.6,1.49s.64.5.64.73a2,2,0,0,1-.18.67,55.91,55.91,0,0,1-2.77,6.45,5.31,5.31,0,0,0-.5,1.14c-.06.23-.15.38-.35.38a1,1,0,0,1-.55-.17,20.71,20.71,0,0,1-2.25-1.6A12.83,12.83,0,0,0,54.4,107.89Zm.73-21.57c.23-.29.32-.29.58-.15a24.44,24.44,0,0,1,4,3,.35.35,0,0,1,.18.26c0,.09-.06.17-.18.35l-1.31,1.84c-.23.29-.29.26-.53.09a23.88,23.88,0,0,0-4.12-3.3c-.15-.09-.2-.15-.2-.2s.06-.18.2-.35ZM62.08,102a17.09,17.09,0,0,0-.15-2.33,26,26,0,0,1,2.69.2c.35.06.55.15.55.35a2.4,2.4,0,0,1-.17.64,7.14,7.14,0,0,0-.12,1.43c0,4.64-1.31,7.33-4.17,9.52-.35.26-.55.41-.73.41s-.35-.15-.67-.5a7.11,7.11,0,0,0-1.75-1.37C60.85,108.42,62,106.25,62.08,102ZM73.46,92.1c.29-.2.38-.17.64.06a31.3,31.3,0,0,1,4.67,5.14c.17.26.17.29-.17.53L77,99.1a.7.7,0,0,1-.38.21c-.06,0-.15-.06-.23-.21-.41-.64-.85-1.28-1.34-1.93-4.06.5-8.41,1-12.11,1.26a3.48,3.48,0,0,0-1.26.26,1.22,1.22,0,0,1-.53.15c-.15,0-.29-.18-.38-.44a22.73,22.73,0,0,1-.56-2.69c1.23.06,2,0,2.89,0,.29,0,.58,0,.9,0a29.43,29.43,0,0,0,1.75-4.06h-.82c-2.83,0-3.79.06-4,.06s-.32,0-.32-.32v-2.1c0-.29,0-.32.32-.32s1.17.06,4,.06h2.6v-.5a15.41,15.41,0,0,0-.17-2.8c1.08,0,2.07.09,3.09.2.29,0,.47.17.47.32a1.48,1.48,0,0,1-.18.61,4,4,0,0,0-.15,1.61V89h3.77c2.86,0,3.85-.06,4-.06s.32,0,.32.32v2.1c0,.29,0,.32-.32.32s-1.17-.06-4-.06h-5.4a38.39,38.39,0,0,1-1.72,3.82c2-.17,4.09-.35,5.84-.53a15.91,15.91,0,0,0-1.2-1.23c-.23-.23-.2-.26.12-.5Zm-6.39,11.47a28.6,28.6,0,0,0-.2-3.91,22.54,22.54,0,0,1,2.83.24c.29,0,.44.15.44.32a3.45,3.45,0,0,1-.17.7,13.83,13.83,0,0,0-.15,2.63v3.94c0,2.28.06,3.24.06,3.42s0,.32-.32.32H67.33c-.29,0-.32,0-.32-.32s.06-1.14.06-3.42Zm8.06,4.79c0,.41,0,.58.2.7a1.6,1.6,0,0,0,.79.12c.41,0,.58-.06.76-.35s.32-1,.35-3a6,6,0,0,0,1.63.76c.73.24.73.29.7,1.05-.09,2.16-.38,2.95-.88,3.47s-1.23.88-3.09.88a4.25,4.25,0,0,1-2.42-.44c-.53-.29-.82-.88-.82-2v-7.12a20.33,20.33,0,0,0-.15-3c.82,0,1.84.09,2.74.2.35.06.5.17.5.35a1.61,1.61,0,0,1-.17.61,6.53,6.53,0,0,0-.15,2.22Z"/><path class="cls-3" d="M103.92,99A2.92,2.92,0,1,1,101,96.07,2.93,2.93,0,0,1,103.92,99Z"/><path class="cls-3" d="M125.76,95.75a.39.39,0,0,1,.29-.15.31.31,0,0,1,.26.15c1.17,1.17,2.33,2.36,3.44,3.59a25.49,25.49,0,0,0,1.05-6.1h-4c-2.51,0-3.36.06-3.53.06s-.32,0-.32-.35V90.76c0-.29,0-.32.32-.32s1,.06,3.53.06h1.49V88.63a12.4,12.4,0,0,0-.23-2.83,27.34,27.34,0,0,1,3.09.21c.29,0,.47.11.47.29a1.63,1.63,0,0,1-.17.58,5.49,5.49,0,0,0-.15,1.75V90.5h.85c2.54,0,3.39-.06,3.56-.06s.32,0,.32.32v2.19c0,.32,0,.35-.32.35l-1.87-.06a30.08,30.08,0,0,1-1.84,8.64c1.2,1.49,2.34,3,3.42,4.67.17.24.2.32-.09.61l-1.72,1.58a.58.58,0,0,1-.32.2c-.09,0-.15-.09-.26-.26-.76-1.34-1.58-2.62-2.45-3.88a27.6,27.6,0,0,1-5.28,6.34c-.29.26-.47.41-.61.41s-.32-.21-.58-.62a6,6,0,0,0-1.58-1.72,19.68,19.68,0,0,0,6-7.06,46.89,46.89,0,0,0-4.26-4.53c-.23-.17-.23-.26,0-.52Zm12.17,1.4c.29-.17.41-.17.58.06a22.07,22.07,0,0,1,3.38,5.46c.12.29.09.38-.2.56l-1.87,1.08c-.35.2-.41.17-.53-.12a24.34,24.34,0,0,0-3.18-5.52c-.2-.26-.14-.35.15-.52Zm8.29,5.78c0,2,.06,4.26.06,5.89s-.17,2.13-.9,2.75-1.81.64-4.64.64c-.88,0-.88,0-1.08-.88a7.23,7.23,0,0,0-.88-2.19c1.14.09,2.45.11,3.33.09s1.08-.23,1.08-.93V94.93h-2.8c-2.45,0-3.27.06-3.45.06s-.32,0-.32-.32V92.31c0-.29,0-.32.32-.32s1,.06,3.45.06h2.8V90a33,33,0,0,0-.17-4.11c1.05,0,2.13.09,3.09.17.29,0,.47.17.47.32a1.36,1.36,0,0,1-.17.61,9.11,9.11,0,0,0-.17,2.95V92c1.84,0,2.54-.06,2.69-.06s.32,0,.32.32v2.36c0,.29,0,.32-.32.32l-2.69-.06Z"/><path class="cls-3" d="M165.29,90.79c2.22,0,2.95-.06,3.12-.06s.32,0,.32.32v2.07c0,.32,0,.35-.32.35s-.9-.06-3.12-.06h-4c-2.22,0-2.95.06-3.12.06s-.29,0-.29-.35V91c0-.29,0-.32.29-.32s.9.06,3.12.06Zm2.54,16.58c0,3.38.06,4,.06,4.2s0,.32-.32.32h-2.13c-.29,0-.32,0-.32-.32v-.79h-3.24v1.34c0,.26,0,.29-.32.29h-2.13c-.32,0-.35,0-.35-.29s.06-.87.06-4.41v-2c0-1.84-.06-2.54-.06-2.75s0-.32.35-.32.79.06,2.65.06h2.8c1.9,0,2.48-.06,2.69-.06s.32,0,.32.32-.06.88-.06,2.25ZM165,86.79c1.87,0,2.45-.06,2.63-.06s.35,0,.35.32V89c0,.29,0,.32-.35.32s-.76-.06-2.63-.06h-2.8c-1.9,0-2.48.06-2.66.06s-.32,0-.32-.32V87.05c0-.29,0-.32.32-.32s.76.06,2.66.06Zm-.23,8.11c1.78,0,2.28-.06,2.45-.06s.35,0,.35.32v1.9c0,.29,0,.32-.35.32s-.67-.06-2.45-.06h-2.48c-1.78,0-2.31.06-2.48.06s-.32,0-.32-.32v-1.9c0-.29,0-.32.32-.32s.7.06,2.48.06Zm0,3.91c1.78,0,2.28-.06,2.45-.06s.35,0,.35.32v1.87c0,.29,0,.32-.35.32s-.67-.06-2.45-.06h-2.48c-1.78,0-2.31.06-2.48.06s-.32,0-.32-.32V99.08c0-.29,0-.32.32-.32s.7.06,2.48.06Zm-2.86,6.36v3.21h3.24v-3.21Zm11-7.85c-2.71,0-3.62.06-3.79.06s-.32,0-.32-.32V94.84c0-.26,0-.29.32-.29s1.08.06,3.79.06h1.9V90.73q-2,.35-4,.61c-.7.09-.7.06-.93-.64a5.43,5.43,0,0,0-1-2,41.65,41.65,0,0,0,11.06-2.22,6.4,6.4,0,0,0,1.49-.73,21.24,21.24,0,0,1,1.75,2.1.78.78,0,0,1,.2.5c0,.21-.18.32-.58.32a4.59,4.59,0,0,0-1.14.23c-1.17.41-2.42.79-3.74,1.11v4.58h2.39c2.71,0,3.65-.06,3.82-.06s.32,0,.32.29v2.22c0,.29,0,.32-.32.32s-1.11-.06-3.82-.06h-2.39v3.94h1.23c2.45,0,3.33-.06,3.5-.06s.32,0,.32.32-.06,1-.06,2.86V107c0,4,.06,4.76.06,4.93s0,.29-.32.29h-2.39c-.29,0-.32,0-.32-.29V110.9h-6.95v1.2c0,.26,0,.29-.32.29h-2.39c-.29,0-.32,0-.32-.29s.06-1,.06-5v-2.28c0-2.31-.06-3.12-.06-3.3s0-.32.32-.32,1.05.06,3.5.06h1.08V97.32Zm0,11h6.95v-4.41h-6.95Z"/><path class="cls-3" d="M208.94,99A2.92,2.92,0,1,1,206,96.07,2.93,2.93,0,0,1,208.94,99Z"/><path class="cls-3" d="M245.47,107.95c0,.56.09.85.32,1s.82.29,2.13.29,2-.15,2.31-.47.61-1,.73-2.92a6.36,6.36,0,0,0,2,.82c.79.2.85.24.73,1-.29,2.07-.67,2.95-1.55,3.5s-2.1.73-4.2.73c-2.39,0-3.76-.12-4.52-.64s-.91-1-.91-2.45V104H238.9c-.82,4.06-3.06,6.25-7.88,8a2.58,2.58,0,0,1-.64.2c-.23,0-.35-.2-.64-.73a6.75,6.75,0,0,0-1.49-1.9c4.55-1.2,6.65-2.57,7.5-5.57h-2.19c-2.77,0-3.74.06-3.91.06s-.35,0-.35-.32v-2.1c0-.29,0-.32.35-.32s1.14.06,3.91.06h2.63c0-.64.06-1.34.06-2.13v-1l-1.9.06c-.32,0-.35,0-.35-.32V96.89A38.41,38.41,0,0,1,230.09,99a2,2,0,0,1-.67.23c-.23,0-.35-.23-.61-.76a6.34,6.34,0,0,0-1.2-1.6,32.55,32.55,0,0,0,5.4-2.69,24,24,0,0,0-2.95-2.83c-.15-.12-.23-.21-.23-.29s.09-.15.23-.26l1.46-1.17c.26-.2.32-.26.58-.06a38.15,38.15,0,0,1,3.18,2.95,17.43,17.43,0,0,0,3.27-3.48h-3.27c-2.19,0-2.89.06-3.06.06s-.35,0-.35-.32v-2c0-.29,0-.32.35-.32s.88.06,3.06.06h4c1.63,0,2.45-.06,2.65-.06s.35,0,.5.35a9,9,0,0,0,1.34,2.51c.12.2.26.38.41.58A14.26,14.26,0,0,0,246,88.07a7.29,7.29,0,0,0,.82-1.23A21.87,21.87,0,0,1,249,88.19c.26.17.32.32.32.47s-.12.32-.38.44a2.9,2.9,0,0,0-1,.79,25.85,25.85,0,0,1-2,1.92c.53.47,1.05.94,1.6,1.34a24.48,24.48,0,0,0,2.48-2.42,7.2,7.2,0,0,0,.82-1.25c.85.47,1.6.9,2.28,1.34.26.17.35.32.35.5s-.15.32-.38.41a2.7,2.7,0,0,0-1,.79c-.64.64-1.4,1.34-2.25,2.07a27.87,27.87,0,0,0,4.76,2,8.13,8.13,0,0,0-1.05,1.84c-.23.55-.32.76-.55.76a1.79,1.79,0,0,1-.67-.21,31,31,0,0,1-4.49-2.33V98c0,.29,0,.32-.32.32l-2-.06v3.12h2.95c2.8,0,3.74-.06,3.94-.06s.32,0,.32.32v2.1c0,.29,0,.32-.32.32s-1.14-.06-3.94-.06h-2.95Zm1-12.26a19.83,19.83,0,0,1-5.28-5.87,21.72,21.72,0,0,1-5.49,5.87Zm-4,5.69V98.26h-3.21v1c0,.76,0,1.46-.06,2.13Z"/><path class="cls-3" d="M266.93,100.33c-2.6,0-3.44.06-3.65.06s-.29,0-.29-.32V98c0-.29,0-.32.29-.32s1.05.06,3.65.06h7.35V95.63H270.5c-2.83,0-3.82.06-4,.06s-.35,0-.35-.32v-2c0-.29,0-.32.35-.32s1.17.06,4,.06h3.79v-2h-5.11c-2.8,0-3.74.06-3.91.06s-.35,0-.35-.32v-2c0-.29,0-.32.35-.32s1.11.06,3.91.06h5.11v-.29a12.33,12.33,0,0,0-.23-2.77c1.05,0,2.19.09,3.21.2.29,0,.44.17.44.29a1.73,1.73,0,0,1-.15.64,3.19,3.19,0,0,0-.2,1.6v.32H283c2.83,0,3.76-.06,3.94-.06s.32,0,.32.32v2c0,.29,0,.32-.32.32s-1.11-.06-3.94-.06h-5.61v2h4.38c2.86,0,3.85-.06,4-.06s.32,0,.32.32v2c0,.29,0,.32-.32.32s-1.17-.06-4-.06h-4.38v2.13h7.85c2.6,0,3.47-.06,3.65-.06s.29,0,.29.32v2c0,.29,0,.32-.29.32s-1.05-.06-3.65-.06h-6.27a14.43,14.43,0,0,0,2.25,3.68,17,17,0,0,0,2.54-2.25,5,5,0,0,0,.9-1.23,16.72,16.72,0,0,1,2.31,1.55.69.69,0,0,1,.29.44c0,.24-.12.35-.38.44a2.58,2.58,0,0,0-1,.58,31.23,31.23,0,0,1-2.92,2.28,16.75,16.75,0,0,0,6.8,3.42,7.88,7.88,0,0,0-1.55,2c-.26.5-.38.67-.61.67a3,3,0,0,1-.7-.2A18.57,18.57,0,0,1,276,100.33h-.35a24.35,24.35,0,0,1-2.33,2.19v6c2-.38,4-.84,6.16-1.43a8.17,8.17,0,0,0-.15,1.72c0,.9,0,.9-.93,1.14-3.59.93-7,1.61-9.69,2.07a2.88,2.88,0,0,0-1.11.29.77.77,0,0,1-.47.17c-.2,0-.38-.09-.47-.41a26.72,26.72,0,0,1-.7-2.66c1.14-.06,2.25-.15,3.47-.29l.93-.12v-4.44a31.61,31.61,0,0,1-5.31,2.57,2.2,2.2,0,0,1-.67.17c-.26,0-.38-.2-.64-.73a6.58,6.58,0,0,0-1.23-1.63,24.16,24.16,0,0,0,9.37-4.64Z"/><path class="cls-3" d="M307.08,85v28h-9.54a18.59,18.59,0,0,0,0-28Z"/><path class="cls-3" d="M1.08,155.07a4.84,4.84,0,0,1,5.08-3.63c3.06,0,5,1.78,5,4.22A3.65,3.65,0,0,1,8,159.44v.15a4.09,4.09,0,0,1,3.54,4.22c0,3-2.16,5-5.37,5-2.77,0-4.6-1.12-5.35-3.72l2.71-.79c.37,1.69,1.17,2.38,2.62,2.38s2.58-1.06,2.58-2.84-.9-3-3.26-3H4.18v-2.24H5.35c2.2,0,3.08-.95,3.08-2.64a2.13,2.13,0,0,0-2.31-2.35,2.33,2.33,0,0,0-2.33,2.31Z"/><path class="cls-3" d="M26,155.81A28.53,28.53,0,0,1,33.88,154c3.94,0,6.47,2.38,6.47,5.83,0,2.88-1.25,4.71-3.87,6.12a18.72,18.72,0,0,1-5.59,1.83c-.44.09-.62.07-.77-.35a4.09,4.09,0,0,0-1.54-1.74,20.65,20.65,0,0,0,6-1.63,4.8,4.8,0,0,0,3-4.38c0-2.07-1.34-3.34-3.79-3.34-2,0-4.6.79-7.94,2.27a14,14,0,0,0-1.52.79c-.31.26-.48.33-.59.33s-.4-.13-.64-.46A12.78,12.78,0,0,1,21.69,157,19.47,19.47,0,0,0,26,155.81Z"/><path class="cls-3" d="M56.92,155a27.53,27.53,0,0,1-2.75,9.48c-.95,1.65-2.09,2.53-3.74,2.53-1.94,0-3.89-2.07-3.89-5.65A8.11,8.11,0,0,1,49,155.62a9.63,9.63,0,0,1,7.15-2.82c5.28,0,8.38,3.26,8.38,7.63,0,4.09-2.31,6.67-6.78,8-.46.13-.66,0-.95-.4a4.68,4.68,0,0,0-1.54-1.39c3.72-.88,6.64-2.42,6.64-6.58A5,5,0,0,0,57,155Zm-6.32,2.13a6.34,6.34,0,0,0-1.72,4.07c0,2,.81,3.15,1.5,3.15S51.44,164,52,163a25.15,25.15,0,0,0,2.33-7.88A6.63,6.63,0,0,0,50.6,157.11Z"/><path class="cls-3" d="M84,156.5H76.32a30.34,30.34,0,0,0-3.3.13c-.24,0-.33-.11-.33-.37-.07-.59-.11-1.63-.11-2.35a31.29,31.29,0,0,0,3.67.15h6.54c1.14,0,2.31,0,3.48-.09.35,0,.46.09.44.37,0,1.17,0,2.31,0,3.48v5.26c0,1.61.07,3.37.09,4,0,.22-.09.29-.4.31a14.22,14.22,0,0,1-1.94,0c-.35,0-.42,0-.42-.37v-.88H76.43c-1.39,0-2.55.07-3.61.09-.2,0-.29-.09-.31-.33a21,21,0,0,1-.11-2.29c1,.07,2.31.11,4,.11H84Z"/><path class="cls-3" d="M97.39,153a.41.41,0,0,1,.31-.18A.58.58,0,0,1,98,153a22.92,22.92,0,0,1,4.2,3.12c.13.13.2.22.2.31a.47.47,0,0,1-.13.29c-.33.44-1.06,1.32-1.36,1.65-.11.11-.18.18-.26.18s-.18-.07-.29-.18a23.29,23.29,0,0,0-4.49-3.59C96.34,154.16,97,153.48,97.39,153Zm1.91,11.6a32.62,32.62,0,0,0,6.34-4.09,33.06,33.06,0,0,0,6-6,9.8,9.8,0,0,0,.62,2.57,1.09,1.09,0,0,1,.11.42c0,.2-.11.38-.35.66a36,36,0,0,1-5.06,4.67,47.27,47.27,0,0,1-6.65,4.31,7.56,7.56,0,0,0-1.47,1,.61.61,0,0,1-.4.22.57.57,0,0,1-.37-.24,15.24,15.24,0,0,1-1.76-2.44A13.24,13.24,0,0,0,99.31,164.64Z"/><path class="cls-3" d="M129.71,159.47a12.56,12.56,0,0,1-1.3,5.61,11.09,11.09,0,0,1-3.87,4.16,1.35,1.35,0,0,1-.66.26.65.65,0,0,1-.46-.22,5.75,5.75,0,0,0-2-1.17,9.78,9.78,0,0,0,4.38-3.92,9.35,9.35,0,0,0,1.12-4.73h-4.18c-1.1,0-2.18.07-3.3.13-.2,0-.26-.13-.29-.42a13.31,13.31,0,0,1-.18-2.11c1.23.11,2.46.11,3.74.11h9.88c1.72,0,3,0,4.29-.13.22,0,.24.13.24.44s0,1.41,0,1.69-.13.37-.33.37c-1.14,0-2.66-.09-4.18-.09Zm-4.36-5.11c-1,0-1.89,0-3.12.09-.29,0-.35-.11-.37-.37-.07-.53-.09-1.32-.15-2.11,1.54.09,2.66.11,3.65.11h4.93c1.23,0,2.62,0,3.72-.09.22,0,.26.13.26.42a9.8,9.8,0,0,1,0,1.61c0,.31,0,.42-.29.42-1.19,0-2.49-.07-3.7-.07Z"/><path class="cls-3" d="M145.79,153a.41.41,0,0,1,.31-.18.58.58,0,0,1,.29.11,22.92,22.92,0,0,1,4.2,3.12c.13.13.2.22.2.31a.47.47,0,0,1-.13.29c-.33.44-1.06,1.32-1.36,1.65-.11.11-.18.18-.26.18s-.18-.07-.29-.18a23.29,23.29,0,0,0-4.49-3.59C144.74,154.16,145.38,153.48,145.79,153Zm1.91,11.6a32.62,32.62,0,0,0,6.34-4.09,33.06,33.06,0,0,0,6-6,9.8,9.8,0,0,0,.62,2.57,1.09,1.09,0,0,1,.11.42c0,.2-.11.38-.35.66a36,36,0,0,1-5.06,4.67,47.27,47.27,0,0,1-6.65,4.31,7.56,7.56,0,0,0-1.47,1,.61.61,0,0,1-.4.22.57.57,0,0,1-.37-.24,15.24,15.24,0,0,1-1.76-2.44A13.24,13.24,0,0,0,147.71,164.64Z"/><path class="cls-3" d="M169.69,153.55a.41.41,0,0,1,.59.15,17.66,17.66,0,0,1,2.46,4.16.84.84,0,0,1,.09.29c0,.13-.09.22-.26.33a13.58,13.58,0,0,1-1.69.86c-.33.13-.46,0-.57-.33a17.51,17.51,0,0,0-2.57-4.45A17.26,17.26,0,0,1,169.69,153.55Zm15.4.33a.51.51,0,0,1,.24.44.54.54,0,0,1-.18.37,4.39,4.39,0,0,0-.86,1.45,34,34,0,0,1-4.27,7.48,23.73,23.73,0,0,1-5.81,5.46.93.93,0,0,1-.51.2.64.64,0,0,1-.37-.15,6.74,6.74,0,0,0-2.11-1,25.23,25.23,0,0,0,6.54-5.81,26.43,26.43,0,0,0,3.81-6.82,9.92,9.92,0,0,0,.64-2.88A15.78,15.78,0,0,1,185.09,153.88Zm-9.66-1.69a.41.41,0,0,1,.57.18,18.33,18.33,0,0,1,2.16,4.07.43.43,0,0,1-.22.62,14.51,14.51,0,0,1-1.67.79c-.35.13-.48.09-.59-.26a17.69,17.69,0,0,0-2.27-4.44C174.07,152.82,174.77,152.47,175.43,152.18Z"/><path class="cls-3" d="M203.08,165.3c0,.24-.13.35-.42.4a11.91,11.91,0,0,1-1.56.11c-.2,0-.29-.13-.29-.35,0-.79,0-1.89,0-2.68-2,1-2.66,1.87-2.66,2.93s.75,1.52,3.06,1.52a37.59,37.59,0,0,0,5.48-.44c.2,0,.29,0,.31.24a9.82,9.82,0,0,1,.2,1.8c0,.26-.07.42-.24.42a39.25,39.25,0,0,1-5.46.29c-3.61,0-5.52-1.08-5.52-3.63,0-2.11,1.32-3.65,4.64-5.37-.07-1.12-.33-1.56-1.32-1.52a5.31,5.31,0,0,0-3,1.58,29.6,29.6,0,0,0-2.2,2.4c-.11.13-.18.2-.26.2a.44.44,0,0,1-.24-.15,10.48,10.48,0,0,1-1.25-1.45.36.36,0,0,1-.09-.2c0-.09,0-.15.15-.24a22.5,22.5,0,0,0,4.6-5.46c-1,0-2.22.07-3.52.07-.2,0-.26-.11-.31-.35s-.15-1.17-.22-1.83a48.62,48.62,0,0,0,5.06,0,17.09,17.09,0,0,0,.66-1.89,5.31,5.31,0,0,0,.15-1.34,13.77,13.77,0,0,1,2.51.62.39.39,0,0,1,.26.37.43.43,0,0,1-.15.33,1.71,1.71,0,0,0-.37.53c-.13.31-.24.59-.51,1.19a35.54,35.54,0,0,0,4-.68c.24,0,.31,0,.35.22a7.42,7.42,0,0,1,.22,1.58c0,.22-.07.31-.37.35-1.65.24-3.54.48-5.15.66a22.77,22.77,0,0,1-1.65,2.44l0,0a4.37,4.37,0,0,1,2.2-.68,2.43,2.43,0,0,1,2.68,2.38c.86-.4,2.11-1,3.23-1.54a6.62,6.62,0,0,0,1.67-1.19,13.55,13.55,0,0,1,1.54,1.94.87.87,0,0,1,.18.48c0,.18-.11.26-.33.31a7.06,7.06,0,0,0-1.34.33c-1.43.51-2.86,1-4.73,1.76Z"/><path class="cls-3" d="M217.8,166.66c-1.91,0-2.57,0-2.71,0s-.24,0-.24-.24v-1.41c0-.22,0-.24.24-.24s.79,0,2.71,0h.86v-1.45h-.33c-1.67,0-2.27,0-2.4,0s-.24,0-.24-.22,0-.73,0-2.07v-3.41c0-1.32,0-1.91,0-2s0-.24.24-.24.73,0,2.4,0h.35V154.1h-.81c-1.85,0-2.49,0-2.62,0s-.24,0-.24-.24v-1.43c0-.2,0-.22.24-.22s.77,0,2.62,0h.81a13.54,13.54,0,0,0-.15-2.27,18.63,18.63,0,0,1,2.09.15c.24,0,.35.11.35.22a1,1,0,0,1-.11.4,3.54,3.54,0,0,0-.15,1.43v.07h.62c1.85,0,2.49,0,2.62,0s.24,0,.24.22v1.43c0,.22,0,.24-.24.24s-.77,0-2.62,0h-.62v1.41H221c1.67,0,2.27,0,2.42,0s.22,0,.22.24,0,.73,0,2v3.41c0,1.34,0,1.94,0,2.07s0,.22-.22.22-.75,0-2.42,0h-.35v1.45h.46c1.91,0,2.57,0,2.71,0s.24,0,.24.24v1.41c0,.22,0,.24-.24.24s-.79,0-2.71,0h-.46c0,2.07,0,3.19,0,3.28s0,.24-.24.24h-1.63c-.22,0-.24,0-.24-.24s0-1.23,0-3.28Zm1-8v-1.58h-1.23v1.58Zm0,3.15v-1.65h-1.23v1.65Zm1.85-4.73v1.58h1.23v-1.58Zm1.23,3.08h-1.23v1.65h1.23Zm6.62-7a22.36,22.36,0,0,0-.18-3.15,20.32,20.32,0,0,1,2.13.15c.22,0,.35.11.35.22a.91.91,0,0,1-.11.42,7.46,7.46,0,0,0-.15,2.11v1.76h.95c1.85,0,2.49,0,2.64,0s.24,0,.24.26,0,1.17,0,4.36v4.16c0,5.17,0,6.16,0,6.29s0,.22-.24.22H232.5c-.24,0-.26,0-.26-.22v-.92H226.8v1c0,.2,0,.22-.26.22H225c-.22,0-.24,0-.24-.22s0-1.12,0-6.31v-3.72c0-3.7,0-4.73,0-4.86s0-.26.24-.26.75,0,2.62,0h.86Zm-1.67,7.48h1.67v-4H226.8Zm1.67,6.27v-4.4H226.8V167Zm2-10.3v4h1.72v-4Zm1.72,10.3v-4.4h-1.72V167Z"/><path class="cls-3" d="M244.51,152.51c.37.2.51.33.51.53s0,.22-.33.66a5.18,5.18,0,0,0-.53,1.56,35.64,35.64,0,0,0-.92,7.11,21.25,21.25,0,0,0,.13,2.57c.46-1,.86-1.74,1.5-3.28a5.71,5.71,0,0,0,.77,1.39.87.87,0,0,1,.15.33.61.61,0,0,1-.11.35,21.5,21.5,0,0,0-1.25,3.32,2.5,2.5,0,0,0-.07.68c0,.26,0,.44,0,.62s-.09.24-.29.29a10.94,10.94,0,0,1-1.8.35c-.15,0-.24-.09-.29-.24a20.62,20.62,0,0,1-1-6.56,42,42,0,0,1,.75-7.22,17.72,17.72,0,0,0,.4-3.28A9.72,9.72,0,0,1,244.51,152.51Zm4.71,10.36c.18,0,.22.09.22.33.13,1.52,1.19,2.07,3.59,2.07a31.57,31.57,0,0,0,4.2-.29c.22,0,.26,0,.31.29a16.43,16.43,0,0,1,.13,1.89c0,.26,0,.29-.37.33a29.57,29.57,0,0,1-3.59.24c-3.26,0-4.77-.53-5.72-1.83a4.85,4.85,0,0,1-.77-2.86ZM248,154.65c0-.26.09-.33.31-.37a35.25,35.25,0,0,1,4.77-.4c1.32,0,2.33,0,3.26.13.46,0,.51.07.51.29,0,.66,0,1.25,0,1.87,0,.2-.09.29-.29.26-1.32-.09-2.46-.13-3.59-.13a26.9,26.9,0,0,0-5,.51C247.94,155.57,247.94,155,248,154.65Z"/><path class="cls-3" d="M264.51,164.64a.47.47,0,0,1,.33-.18.45.45,0,0,1,.29.13,16.39,16.39,0,0,1,4.38,4c.13.18.15.24.15.33s0,.2-.22.35l-1.34,1.14c-.15.13-.24.2-.31.2s-.2,0-.31-.22a16.43,16.43,0,0,0-4.16-4.2c-.13-.09-.2-.15-.2-.22s0-.13.15-.26Z"/><path class="cls-3" d="M13.42,215.13a10.88,10.88,0,0,1-3.1,3.56.91.91,0,0,1-.53.22.71.71,0,0,1-.44-.2,5.42,5.42,0,0,0-1.72-.9,8.79,8.79,0,0,0,3.3-3.08A5.6,5.6,0,0,1,9,213.66a4.78,4.78,0,0,1-1.12-1.5.84.84,0,0,1-.09-.29.62.62,0,0,1,.15-.35,7.18,7.18,0,0,0,.75-1.74,5.23,5.23,0,0,0,1.39,2,4.38,4.38,0,0,0,1.74.9,20.24,20.24,0,0,0,.4-4.07c0-1.1,0-1.87-.13-3a7.74,7.74,0,0,0-3.92,2.27,11.9,11.9,0,0,0-2.53,3.78,6,6,0,0,0-.37,2.68c0,.24-.13.33-.42.4a13.11,13.11,0,0,1-1.54.29.37.37,0,0,1-.4-.35,20.12,20.12,0,0,1-.51-4.38c0-1.19.11-3.15.37-5.59.07-.77.13-1.56.13-2.11a3.47,3.47,0,0,0-.07-.9,12,12,0,0,1,2.53.73.41.41,0,0,1,.31.42,1.28,1.28,0,0,1-.09.4,2.91,2.91,0,0,0-.33.86c-.33,1.61-.44,2.53-.53,3.3s-.11,1.3-.15,2.53a11.88,11.88,0,0,1,2.77-4.11,10,10,0,0,1,4.58-2.29c-.09-.77-.2-1.43-.31-2a4.22,4.22,0,0,0-.57-1.52,9.06,9.06,0,0,1,2.55.07c.4.07.51.2.51.42a5.54,5.54,0,0,0,0,.59c.11.73.22,1.54.29,2.29h.35A5.44,5.44,0,0,1,20.11,209a5.89,5.89,0,0,1-2.27,4.84,7,7,0,0,1-4,1.32Zm2.77-2.95a3.77,3.77,0,0,0,1.5-3.32c0-2-1.08-3.1-3.15-3.32.07,1.54.09,2.42.09,3.21a23.3,23.3,0,0,1-.4,4.16A3.48,3.48,0,0,0,16.19,212.18Z"/><path class="cls-3" d="M31,208a21.62,21.62,0,0,1,6.42-1.34c3,0,5,2,5,4.71a5.26,5.26,0,0,1-3.15,4.93,11.94,11.94,0,0,1-4.55,1.45c-.4.07-.57,0-.73-.31A4.63,4.63,0,0,0,32.69,216a16,16,0,0,0,5.3-1.52,3.44,3.44,0,0,0,2-3.28c0-1.56-1-2.42-2.73-2.42A19.68,19.68,0,0,0,31,210.54a7,7,0,0,0-1.23.68.68.68,0,0,1-.44.22c-.2,0-.35-.13-.57-.4a11.29,11.29,0,0,1-1.19-2.13A23.7,23.7,0,0,0,31,208Z"/><path class="cls-3" d="M61.18,203c.24-.07.33,0,.35.22.07.48.13,1.12.15,1.58,0,.29,0,.35-.33.42a35.28,35.28,0,0,1-3.83.84c-1.5,4.88-2.62,8.25-4,11.9-.11.31-.24.29-.48.22s-1.3-.55-1.76-.81a.35.35,0,0,1-.18-.44,82.63,82.63,0,0,0,3.81-10.43c-1.28.13-2.82.24-3.85.24-.33,0-.42-.07-.46-.35-.09-.46-.2-1.21-.31-2a10.09,10.09,0,0,0,1.63.07,29.87,29.87,0,0,0,3.56-.22c.22-.88.4-1.85.55-2.75a15.16,15.16,0,0,0,.13-2,12.86,12.86,0,0,1,2.77.62.37.37,0,0,1,.24.35.53.53,0,0,1-.11.35,4.18,4.18,0,0,0-.46.88c-.22.79-.37,1.54-.53,2.09C58.92,203.56,60.11,203.27,61.18,203Zm-.86,10.52c.22,0,.31.09.33.31.18,1.61,1.25,2.07,3.37,2.07a33,33,0,0,0,3.7-.31c.18,0,.24,0,.26.2a13.75,13.75,0,0,1,.18,1.91c0,.26,0,.33-.35.35a26.06,26.06,0,0,1-3,.24c-2.88,0-4.38-.4-5.37-1.43a4.29,4.29,0,0,1-1-3A11.22,11.22,0,0,1,60.33,213.48Zm-.24-5.83c0-.31.07-.37.4-.44a23.06,23.06,0,0,1,4.29-.51,15.92,15.92,0,0,1,2.57.22c.31,0,.37.07.37.33a15.65,15.65,0,0,1,0,1.76c0,.37-.11.46-.42.4a14.69,14.69,0,0,0-2.73-.26,24.34,24.34,0,0,0-4.42.51C60.13,208.89,60.08,208.09,60.08,207.65Z"/><path class="cls-3" d="M81.07,200.55c.29.11.42.24.42.44a.51.51,0,0,1-.15.35,2.53,2.53,0,0,0-.4,1c-.31,1.5-.48,3.06-.62,4.2a22.25,22.25,0,0,0-.07,2.42c.48-.86.95-1.69,1.54-2.82a4.58,4.58,0,0,0,.68,1.43.5.5,0,0,1,.13.35,1,1,0,0,1-.22.55,17.91,17.91,0,0,0-1.3,2.82A2.75,2.75,0,0,0,81,212a.31.31,0,0,1-.29.35c-.26.07-1.21.2-1.76.26-.15,0-.26-.13-.31-.29a14.09,14.09,0,0,1-.66-4.47,46.48,46.48,0,0,1,.53-5.48,20.4,20.4,0,0,0,.18-2.51A11.57,11.57,0,0,1,81.07,200.55Zm7.15-.37c.44.11.48.22.44.59a7.63,7.63,0,0,0,0,1c.15,2.09.31,4.09.31,5.68,0,3.13-.51,5.83-1.67,7.64a12.13,12.13,0,0,1-3.63,3.54.76.76,0,0,1-.44.15.64.64,0,0,1-.46-.24,5.1,5.1,0,0,0-1.87-1,10.88,10.88,0,0,0,3.74-2.95c1.28-1.74,1.85-3.54,1.85-7,0-1.56-.11-3.85-.26-5.26a10.55,10.55,0,0,0-.46-2.4A12.72,12.72,0,0,1,88.22,200.17Z"/><path class="cls-3" d="M106.46,200.28c.26.07.4.18.4.35s-.15.62-.15.92.07,1,.11,1.47a31,31,0,0,0,.7,3.78l3.12-1.67a5.44,5.44,0,0,0,1.52-1.19,11.28,11.28,0,0,1,1.61,2.07.89.89,0,0,1,.15.46c0,.22-.13.4-.44.44a10.57,10.57,0,0,0-2.11.66,30.65,30.65,0,0,0-5.17,2.58c-1.91,1.25-2.6,2.29-2.6,3.32,0,1.3,1,1.85,3.5,1.85a38.38,38.38,0,0,0,6.71-.51c.24,0,.35,0,.4.26a19.3,19.3,0,0,1,.22,2c0,.24-.13.35-.4.37a47.07,47.07,0,0,1-6.56.33c-4.16,0-6.36-1.36-6.36-4.22,0-2.44,1.61-4,4.18-5.68a33.44,33.44,0,0,1-1.14-5.37,9.87,9.87,0,0,0-.57-2.55A12.72,12.72,0,0,1,106.46,200.28Z"/><path class="cls-3" d="M129.62,200.5c.38.09.53.2.53.42a2.14,2.14,0,0,1-.22.73,13.16,13.16,0,0,0-.31,2.68c-.22,3.39-.33,5.63-.33,8.51,0,2.22.26,2.73,2,2.73,2,0,5-1.19,7.7-4a7.62,7.62,0,0,0,.51,2.09,1.46,1.46,0,0,1,.18.53c0,.2-.09.37-.44.68a12.57,12.57,0,0,1-8.34,3.3c-2.82,0-4.14-1.12-4.14-4.49,0-3.7.2-6.87.31-9.51a14.63,14.63,0,0,0-.22-4A22.85,22.85,0,0,1,129.62,200.5Z"/><path class="cls-3" d="M158,203c.24-.07.33,0,.35.22.07.48.13,1.12.15,1.58,0,.29,0,.35-.33.42a35.32,35.32,0,0,1-3.83.84c-1.5,4.88-2.62,8.25-4,11.9-.11.31-.24.29-.48.22s-1.3-.55-1.76-.81a.35.35,0,0,1-.18-.44,82.64,82.64,0,0,0,3.81-10.43c-1.28.13-2.82.24-3.85.24-.33,0-.42-.07-.46-.35-.09-.46-.2-1.21-.31-2a10.11,10.11,0,0,0,1.63.07,29.89,29.89,0,0,0,3.56-.22c.22-.88.4-1.85.55-2.75a15.16,15.16,0,0,0,.13-2,12.86,12.86,0,0,1,2.77.62.37.37,0,0,1,.24.35.53.53,0,0,1-.11.35,4.22,4.22,0,0,0-.46.88c-.22.79-.37,1.54-.53,2.09C155.72,203.56,156.91,203.27,158,203Zm-.86,10.52c.22,0,.31.09.33.31.18,1.61,1.25,2.07,3.37,2.07a33.08,33.08,0,0,0,3.7-.31c.18,0,.24,0,.26.2a13.75,13.75,0,0,1,.18,1.91c0,.26,0,.33-.35.35a26.08,26.08,0,0,1-3,.24c-2.88,0-4.38-.4-5.37-1.43a4.29,4.29,0,0,1-1-3A11.22,11.22,0,0,1,157.13,213.48Zm-.24-5.83c0-.31.07-.37.4-.44a23.05,23.05,0,0,1,4.29-.51,15.94,15.94,0,0,1,2.58.22c.31,0,.37.07.37.33a15.43,15.43,0,0,1,0,1.76c0,.37-.11.46-.42.4a14.68,14.68,0,0,0-2.73-.26,24.35,24.35,0,0,0-4.42.51C156.93,208.89,156.88,208.09,156.88,207.65Z"/><path class="cls-3" d="M173.82,218.21c-2,0-2.66,0-2.79,0s-.24,0-.24-.24v-1.69c0-.2,0-.22.24-.22s.81,0,2.79,0h5.32v-3.28h-2.79c-2.13,0-2.88,0-3,0s-.26,0-.26-.24V211c0-.22,0-.24.26-.24s.88,0,3,0h8.21c2.13,0,2.88,0,3,0s.26,0,.26.24v1.63c0,.22,0,.24-.26.24s-.88,0-3,0h-3.1v3.28H187c2,0,2.66,0,2.79,0s.24,0,.24.22V218c0,.22,0,.24-.24.24s-.81,0-2.79,0Zm12.72-16.92c2,0,2.75,0,2.9,0s.24,0,.24.26,0,.48,0,1v.77c0,1.76,0,2.07,0,2.18s0,.26-.24.26h-1.83c-.22,0-.24,0-.24-.26v-2.22h-14v2.6c0,.24,0,.26-.24.26h-1.83c-.22,0-.24,0-.24-.26s0-.46,0-2.33v-.73c0-.75,0-1.12,0-1.25s0-.26.24-.26.88,0,2.9,0h4.8v-.68a6.45,6.45,0,0,0-.15-1.58c.81,0,1.58,0,2.35.11.22,0,.33.11.33.24a1.47,1.47,0,0,1-.11.42,2,2,0,0,0-.11.81v.68Zm-7.5,3.15c.2.09.33.2.33.37s-.07.26-.26.44a2.66,2.66,0,0,0-.44.92c-.84,2-2.4,3.43-5.32,4.2-.57.15-.62.18-.95-.4a5.07,5.07,0,0,0-1.1-1.34c3.17-.51,4.71-1.56,5.35-3.37a6.44,6.44,0,0,0,.37-1.52A16.88,16.88,0,0,1,179,204.44Zm4.18,2.31c0,.46,0,.68.22.79a3,3,0,0,0,1.41.2,2.43,2.43,0,0,0,1.43-.29c.26-.24.37-.7.37-1.65a5.45,5.45,0,0,0,1.5.59c.59.13.62.18.55.73-.13,1.17-.44,1.67-1,2a9.83,9.83,0,0,1-6.09,0c-.4-.29-.55-.66-.55-1.52V206a13.38,13.38,0,0,0-.11-2.09c.79,0,1.58.11,2.18.2.22,0,.35.13.35.26a.78.78,0,0,1-.13.42,2.15,2.15,0,0,0-.11,1Z"/><path class="cls-3" d="M199.32,203.05a17,17,0,0,1-2.4,2.84c-.24.24-.4.37-.51.37s-.26-.13-.48-.44a4,4,0,0,0-1.12-1,13,13,0,0,0,3.83-4.84,4.78,4.78,0,0,0,.4-1.17,14.8,14.8,0,0,1,2,.48c.2.07.31.18.31.31s-.07.2-.15.29a1.23,1.23,0,0,0-.37.48l-.33.68h9.83c2.16,0,2.88,0,3,0s.26,0,.26.24v1.61c0,.22,0,.24-.26.24s-.86,0-3,0Zm-.31,7.48c.22-.2.26-.22.44-.09.95.64,1.94,1.32,2.95,2.09.44-.51.86-1,1.28-1.61a7.18,7.18,0,0,0,.66-1.23,8.47,8.47,0,0,1,1.89.9c.2.15.29.29.29.4s-.11.24-.29.35a2.12,2.12,0,0,0-.59.64,17.82,17.82,0,0,1-1.52,1.89q1.45,1.19,3,2.58a.38.38,0,0,1,.18.26.34.34,0,0,1-.13.24l-1.23,1.28c-.13.13-.22.2-.31.2s-.13,0-.22-.13c-.92-1-1.87-2-2.86-2.86a20,20,0,0,1-5.43,3.3,1.68,1.68,0,0,1-.55.18c-.15,0-.26-.13-.48-.51a4.94,4.94,0,0,0-1.12-1.28,16.67,16.67,0,0,0,5.94-3.1c-.92-.75-1.89-1.47-2.9-2.16-.2-.13-.2-.18,0-.4Zm.24-1.14c-2.13,0-2.88,0-3,0s-.26,0-.26-.24v-1.65c0-.22,0-.24.26-.24s.88,0,3,0h8.58c2.18,0,2.91,0,3,0s.26,0,.26.26a24.79,24.79,0,0,0,0,2.84,23.85,23.85,0,0,0,.42,4.27c.29,1.25.37,1.8.81,1.8.26,0,.46-.73.62-2.82a3.9,3.9,0,0,0,1.52.95c.46.18.44.24.33.95-.37,2.53-.95,3.5-2.31,3.5s-2.33-1-3.06-3.48a24.77,24.77,0,0,1-.59-6.18Zm3-3.28c-2.09,0-2.79,0-2.91,0s-.24,0-.24-.26v-1.47c0-.22,0-.24.24-.24s.81,0,2.91,0h6.2c2.07,0,2.79,0,2.93,0s.24,0,.24.24v1.47c0,.24,0,.26-.24.26s-.86,0-2.93,0Z"/><path class="cls-3" d="M230.21,204a27.53,27.53,0,0,1-2.75,9.48c-.95,1.65-2.09,2.53-3.74,2.53-1.94,0-3.89-2.07-3.89-5.65a8.11,8.11,0,0,1,2.49-5.72,9.63,9.63,0,0,1,7.15-2.82c5.28,0,8.38,3.26,8.38,7.63,0,4.09-2.31,6.67-6.78,8-.46.13-.66,0-.95-.4a4.68,4.68,0,0,0-1.54-1.39c3.72-.88,6.64-2.42,6.64-6.58A5,5,0,0,0,230.3,204Zm-6.32,2.13a6.34,6.34,0,0,0-1.72,4.07c0,2,.81,3.15,1.5,3.15s1.06-.29,1.65-1.34a25.15,25.15,0,0,0,2.33-7.88A6.63,6.63,0,0,0,223.89,206.11Z"/><path class="cls-3" d="M251.68,201.84a16.5,16.5,0,0,0-.18-2.82c.81,0,1.69.07,2.44.15.2,0,.37.11.37.26a1,1,0,0,1-.11.44,5.23,5.23,0,0,0-.18,1.78v1.65h4.27c2.11,0,2.84,0,3,0s.24,0,.24.24,0,.81,0,2.73v2.55c0,3.52,0,4.16,0,4.29s0,.24-.24.24h-1.87c-.22,0-.24,0-.24-.24v-.92H254v2.71c0,2.62,0,4,0,4.07s0,.24-.24.24h-2c-.22,0-.24,0-.24-.24s0-1.43,0-4v-2.75h-4.86v1c0,.24,0,.26-.24.26h-1.87c-.22,0-.24,0-.24-.26s0-.79,0-4.31V206.6c0-2.25,0-2.95,0-3.08s0-.24.24-.24.88,0,3,0h4ZM246.82,210h4.86v-4.58h-4.86Zm7.22-4.58V210h5.15v-4.58Z"/><path class="cls-3" d="M278.54,204.26c-2.68.51-5,1-7.39,1.45-.84.2-1.06.24-1.39.35a1.29,1.29,0,0,1-.48.18.51.51,0,0,1-.42-.33,15.33,15.33,0,0,1-.81-2.38,30.29,30.29,0,0,0,3.5-.37c2.71-.4,7.55-1.12,13.22-1.87.33,0,.44.09.46.24a12.72,12.72,0,0,1,.24,1.94c0,.26-.13.33-.42.33a9.81,9.81,0,0,0-2.68.48c-3.74,1.28-5.61,3.85-5.61,6.49,0,2.84,2,4.38,5.85,4.62.35,0,.48.09.48.33a7.82,7.82,0,0,1-.24,1.89c-.07.33-.15.46-.42.46-3.87,0-8.12-2.22-8.12-6.8,0-3.12,1.56-5.24,4.22-7Zm4.36,2.38c.11-.09.2-.07.33,0a10.1,10.1,0,0,1,2.09,2.35.22.22,0,0,1-.07.35l-.92.68A.23.23,0,0,1,284,210a10.9,10.9,0,0,0-2.22-2.55Zm2-1.43c.13-.09.2-.07.33,0a9.2,9.2,0,0,1,2.09,2.27.25.25,0,0,1-.07.4l-.88.68a.23.23,0,0,1-.37-.07,10.39,10.39,0,0,0-2.2-2.53Z"/><path class="cls-3" d="M292.6,213.64a.47.47,0,0,1,.33-.18.45.45,0,0,1,.29.13,16.39,16.39,0,0,1,4.38,4c.13.18.15.24.15.33s0,.2-.22.35l-1.34,1.14c-.15.13-.24.2-.31.2s-.2,0-.31-.22a16.43,16.43,0,0,0-4.16-4.2c-.13-.09-.2-.15-.2-.22s0-.13.15-.26Z"/><path class="cls-3" d="M323.09,207.56a9.79,9.79,0,0,1,6.31-2.57,5.23,5.23,0,0,1,5.48,5.59c0,3.39-2.07,5.72-5.85,7.08a.84.84,0,0,1-.37.09.72.72,0,0,1-.57-.31,6.49,6.49,0,0,0-1.74-1.45,10.12,10.12,0,0,0,4.42-2.18,4.25,4.25,0,0,0,1.5-3.32,3.08,3.08,0,0,0-3.28-3.41c-2,0-3.74,1-5.9,2.82,0,2.82.09,5.48.13,8.45a.25.25,0,0,1-.29.26c-.24,0-1.23.09-2,.09-.2,0-.26-.09-.24-.31,0-2.24.07-4.55.11-6.8-1.06,1.58-2.16,3.19-3,4.36-.11.13-.2.22-.31.22a.38.38,0,0,1-.24-.13,15.09,15.09,0,0,1-1.34-1.32.31.31,0,0,1-.13-.24.38.38,0,0,1,.13-.26c1.94-2.35,3.19-3.92,4.84-6.18,0-.55,0-1.14,0-1.56-.64.2-1.67.51-2.51.81-.37.15-.59.37-.73.37s-.31-.13-.44-.4a18.9,18.9,0,0,1-.88-1.94,10.61,10.61,0,0,0,1.5-.22c.57-.13,1.43-.33,3.12-.79,0-.95,0-1.91,0-2.86a8,8,0,0,0-.22-1.91,16.69,16.69,0,0,1,2.55.37c.46.13.55.37.4.77a3.71,3.71,0,0,0-.22.95c0,.53-.07,1-.11,2l.18-.07a.4.4,0,0,1,.15,0c.15,0,.4.22.59.51s.35.53.35.68,0,.24-.37.62-.64.81-1.17,1.58Z"/><path class="cls-3" d="M351.58,203c.24-.07.33,0,.35.22.07.48.13,1.12.15,1.58,0,.29,0,.35-.33.42a35.32,35.32,0,0,1-3.83.84c-1.5,4.88-2.62,8.25-4,11.9-.11.31-.24.29-.48.22s-1.3-.55-1.76-.81a.35.35,0,0,1-.18-.44,82.64,82.64,0,0,0,3.81-10.43c-1.28.13-2.82.24-3.85.24-.33,0-.42-.07-.46-.35-.09-.46-.2-1.21-.31-2a10.11,10.11,0,0,0,1.63.07,29.89,29.89,0,0,0,3.56-.22c.22-.88.4-1.85.55-2.75a15.16,15.16,0,0,0,.13-2,12.86,12.86,0,0,1,2.77.62.37.37,0,0,1,.24.35.53.53,0,0,1-.11.35,4.22,4.22,0,0,0-.46.88c-.22.79-.37,1.54-.53,2.09C349.32,203.56,350.51,203.27,351.58,203Zm-.86,10.52c.22,0,.31.09.33.31.18,1.61,1.25,2.07,3.37,2.07a33.08,33.08,0,0,0,3.7-.31c.18,0,.24,0,.26.2a13.75,13.75,0,0,1,.18,1.91c0,.26,0,.33-.35.35a26.08,26.08,0,0,1-3,.24c-2.88,0-4.38-.4-5.37-1.43a4.29,4.29,0,0,1-1-3A11.22,11.22,0,0,1,350.73,213.48Zm-.24-5.83c0-.31.07-.37.4-.44a23.05,23.05,0,0,1,4.29-.51,15.94,15.94,0,0,1,2.58.22c.31,0,.37.07.37.33a15.43,15.43,0,0,1,0,1.76c0,.37-.11.46-.42.4a14.68,14.68,0,0,0-2.73-.26,24.35,24.35,0,0,0-4.42.51C350.53,208.89,350.48,208.09,350.48,207.65Z"/><path class="cls-3" d="M371.62,200.5c.38.09.53.2.53.42a2.14,2.14,0,0,1-.22.73,13.16,13.16,0,0,0-.31,2.68c-.22,3.39-.33,5.63-.33,8.51,0,2.22.26,2.73,2,2.73,2,0,5-1.19,7.7-4a7.62,7.62,0,0,0,.51,2.09,1.46,1.46,0,0,1,.18.53c0,.2-.09.37-.44.68a12.57,12.57,0,0,1-8.34,3.3c-2.82,0-4.14-1.12-4.14-4.49,0-3.7.2-6.87.31-9.51a14.63,14.63,0,0,0-.22-4A22.85,22.85,0,0,1,371.62,200.5Z"/><path class="cls-3" d="M400,203c.24-.07.33,0,.35.22.07.48.13,1.12.15,1.58,0,.29,0,.35-.33.42a35.32,35.32,0,0,1-3.83.84c-1.5,4.88-2.62,8.25-4,11.9-.11.31-.24.29-.48.22s-1.3-.55-1.76-.81a.35.35,0,0,1-.18-.44,82.64,82.64,0,0,0,3.81-10.43c-1.28.13-2.82.24-3.85.24-.33,0-.42-.07-.46-.35-.09-.46-.2-1.21-.31-2a10.11,10.11,0,0,0,1.63.07,29.89,29.89,0,0,0,3.56-.22c.22-.88.4-1.85.55-2.75a15.16,15.16,0,0,0,.13-2,12.86,12.86,0,0,1,2.77.62.37.37,0,0,1,.24.35.53.53,0,0,1-.11.35,4.22,4.22,0,0,0-.46.88c-.22.79-.37,1.54-.53,2.09C397.72,203.56,398.91,203.27,400,203Zm-.86,10.52c.22,0,.31.09.33.31.18,1.61,1.25,2.07,3.37,2.07a33.08,33.08,0,0,0,3.7-.31c.18,0,.24,0,.26.2a13.75,13.75,0,0,1,.18,1.91c0,.26,0,.33-.35.35a26.08,26.08,0,0,1-3,.24c-2.88,0-4.38-.4-5.37-1.43a4.29,4.29,0,0,1-1-3A11.22,11.22,0,0,1,399.13,213.48Zm-.24-5.83c0-.31.07-.37.4-.44a23.05,23.05,0,0,1,4.29-.51,15.94,15.94,0,0,1,2.58.22c.31,0,.37.07.37.33a15.43,15.43,0,0,1,0,1.76c0,.37-.11.46-.42.4a14.68,14.68,0,0,0-2.73-.26,24.35,24.35,0,0,0-4.42.51C398.93,208.89,398.88,208.09,398.88,207.65Z"/><path class="cls-3" d="M418.59,201.71a7.26,7.26,0,0,0,0-2.13,14.4,14.4,0,0,1,2.64.46c.29.09.44.22.44.4a.72.72,0,0,1-.15.35,2.28,2.28,0,0,0-.37.81c-.11.59-.2,1-.31,1.8a40.28,40.28,0,0,0,4.14-.81c.31-.09.42-.07.46.22a10,10,0,0,1,.15,1.63c0,.24-.07.31-.26.35-1.89.42-3.08.66-4.93.9-.31,1.83-.62,3.3-1,4.84a9.52,9.52,0,0,1,6.31-2.33c2.93,0,4.91,1.89,4.91,4.16a4.93,4.93,0,0,1-2.51,4.44,14.65,14.65,0,0,1-5.61,1.76,10.2,10.2,0,0,1-1.63.15c-.22,0-.37-.11-.55-.53a4.2,4.2,0,0,0-1.19-1.56,17.16,17.16,0,0,0,6.32-1.21c1.69-.7,2.51-1.72,2.51-3.1,0-1.14-.84-2.09-2.51-2.09a7.32,7.32,0,0,0-5.79,2.73c-.2.29-.42.55-.62.84s-.22.35-.42.33a6.21,6.21,0,0,1-1.65-.48c-.35-.15-.48-.24-.48-.44a1.5,1.5,0,0,1,.09-.44c.11-.37.2-.7.29-1,.48-1.94.79-3.56,1.17-5.76-1.19.09-2.58.2-3.7.2a.38.38,0,0,1-.42-.31c-.07-.26-.22-1.19-.31-1.92,1.72,0,3.08-.07,4.77-.2C418.44,203,418.53,202.24,418.59,201.71Z"/><path class="cls-3" d="M448,204a27.53,27.53,0,0,1-2.75,9.48c-.95,1.65-2.09,2.53-3.74,2.53-1.94,0-3.89-2.07-3.89-5.65a8.1,8.1,0,0,1,2.49-5.72,9.63,9.63,0,0,1,7.15-2.82c5.28,0,8.38,3.26,8.38,7.63,0,4.09-2.31,6.67-6.78,8-.46.13-.66,0-.95-.4a4.68,4.68,0,0,0-1.54-1.39c3.72-.88,6.64-2.42,6.64-6.58A5,5,0,0,0,448.1,204Zm-6.31,2.13a6.33,6.33,0,0,0-1.72,4.07c0,2,.81,3.15,1.5,3.15s1.06-.29,1.65-1.34a25.13,25.13,0,0,0,2.33-7.88A6.63,6.63,0,0,0,441.69,206.11Z"/><path class="cls-3" d="M472,200a18.85,18.85,0,0,0,9.39,6.56,5.17,5.17,0,0,0-.9,1.85c-.11.42-.18.57-.37.57a1.32,1.32,0,0,1-.53-.2,23.47,23.47,0,0,1-4.62-2.73v1.69c0,.22,0,.24-.24.24s-.66,0-2.38,0h-3.06c-1.69,0-2.22,0-2.35,0s-.26,0-.26-.24V206a28.72,28.72,0,0,1-4.42,2.86,1.26,1.26,0,0,1-.51.2c-.15,0-.24-.15-.4-.53a3.91,3.91,0,0,0-1-1.52,19.06,19.06,0,0,0,8.49-6.69,5.62,5.62,0,0,0,.81-1.56,18.51,18.51,0,0,1,2.35.48c.26,0,.4.13.4.31a.37.37,0,0,1-.22.33Zm-4.93,11.86c-2.13,0-2.86,0-3,0s-.24,0-.24-.26v-1.72c0-.22,0-.24.24-.24s.86,0,3,0H475a2.12,2.12,0,0,0,.77-.09,1.25,1.25,0,0,1,.33-.09c.22,0,.42.07,1,.62.73.7.77.88.77,1s-.07.31-.29.48a3.38,3.38,0,0,0-.73,1.06,49,49,0,0,1-4.29,6.4c-.09.11-.15.18-.26.18a4.44,4.44,0,0,1-1.1-.4c-.84-.33-1.12-.44-1.12-.59s0-.11.13-.2a26.75,26.75,0,0,0,4.27-6.25Zm-.13-6.05c.13,0,.66,0,2.35,0h3.06c1.5,0,2.07,0,2.29,0a20.43,20.43,0,0,1-3.92-4,21.31,21.31,0,0,1-3.83,4Z"/><path class="cls-3" d="M491.72,202.39a15.06,15.06,0,0,0,.22-2.44,16.1,16.1,0,0,1,2.64.73.44.44,0,0,1,.2.77,2.78,2.78,0,0,0-.44.84c-.29.9-.51,1.72-.79,2.64a17,17,0,0,1,1.76-.09c2,0,3.15,1.43,3.15,4.25a18.75,18.75,0,0,1-1.19,6.89,3.15,3.15,0,0,1-3,2.07,5.83,5.83,0,0,1-2.29-.33.59.59,0,0,1-.4-.62,6.3,6.3,0,0,0-.42-2,5.86,5.86,0,0,0,2.53.57c.73,0,1.06-.26,1.41-1.17A17,17,0,0,0,496,209c0-1.54-.29-2-1.25-2a14.6,14.6,0,0,0-1.85.15,60.7,60.7,0,0,1-4.42,10.34.36.36,0,0,1-.57.2,10,10,0,0,1-1.52-1,.45.45,0,0,1-.18-.33.41.41,0,0,1,.09-.24,46.37,46.37,0,0,0,4-8.62c-.86.13-1.56.26-2.16.37a6.48,6.48,0,0,0-1.21.35.48.48,0,0,1-.7-.29,20.3,20.3,0,0,1-.68-2.27c1,0,1.94-.07,2.9-.15s1.74-.2,2.6-.33C491.41,203.91,491.57,203.14,491.72,202.39Zm8.71,1.47c.15-.09.26,0,.42.11a14.72,14.72,0,0,1,3.65,5.35.32.32,0,0,1-.09.44,9,9,0,0,1-1.65,1.1c-.22.11-.44.09-.51-.18a14.9,14.9,0,0,0-3.61-5.7A18.59,18.59,0,0,1,500.44,203.87Zm.59-3.08c.11-.09.2-.07.33,0a10.12,10.12,0,0,1,2.09,2.35.22.22,0,0,1-.07.35l-.92.68a.23.23,0,0,1-.37-.07,10.9,10.9,0,0,0-2.22-2.55Zm2-1.43c.13-.09.2-.07.33,0a9.2,9.2,0,0,1,2.09,2.27.25.25,0,0,1-.07.4l-.88.68a.23.23,0,0,1-.37-.07,10.39,10.39,0,0,0-2.2-2.53Z"/><path class="cls-3" d="M512.36,218.57c-1.94,0-2.6,0-2.73,0s-.22,0-.22-.22v-1.43c0-.22,0-.24.22-.24s.79,0,2.73,0h5.59v-1.08h-3.74c-2.13,0-2.86,0-3,0s-.24,0-.24-.26v-1.25c0-.24,0-.26.24-.26s.86,0,3,0h3.74v-1.1h-2.68c-2.16,0-2.93,0-3.06,0s-.26,0-.26-.24,0-.64,0-2v-2.93c0-1.23,0-1.76,0-1.89s0-.26.26-.26.9,0,3.06,0h2.68v-1h-5.59c-2,0-2.62,0-2.75,0s-.22,0-.22-.24v-1.39c0-.22,0-.24.22-.24s.79,0,2.75,0h5.59v-1.1c-2,.13-3.92.2-5.83.22-.46,0-.46,0-.64-.55a4,4,0,0,0-.68-1.21c2.75,0,5.17-.09,7.5-.24,2.13-.15,3.85-.4,5.19-.62a12.11,12.11,0,0,0,1.85-.42,11.22,11.22,0,0,1,1.36,1.34.46.46,0,0,1,.18.37c0,.18-.2.26-.44.26a10.78,10.78,0,0,0-1.32.13c-1.54.26-3.19.4-5,.53v1.28h5.92c2,0,2.62,0,2.75,0s.22,0,.22.24v1.39c0,.22,0,.24-.22.24s-.79,0-2.75,0h-5.92v1h3c2.16,0,2.93,0,3.06,0s.26,0,.26.26,0,.66,0,1.89v2.93c0,1.32,0,1.83,0,2s0,.24-.26.24-.9,0-3.06,0h-3V214h4.07c2.13,0,2.86,0,3,0s.26,0,.26.26v1.25c0,.24,0,.26-.26.26s-.86,0-3,0h-4.07v1.08h6c1.94,0,2.6,0,2.73,0s.22,0,.22.24v1.43c0,.2,0,.22-.22.22s-.79,0-2.73,0Zm5.59-10.06v-1.23h-3.83v1.23Zm0,2.77V210h-3.83v1.28Zm2.2-4v1.23h4.11v-1.23Zm4.11,2.73h-4.11v1.28h4.11Z"/><path class="cls-3" d="M544.48,202.88c.2-.07.29-.07.33.18a11.82,11.82,0,0,1,.2,1.78c0,.2-.09.24-.26.26-1.19.24-2.27.4-3.63.59a60.82,60.82,0,0,1-4.29,9.44c-.09.15-.15.22-.24.22a.61.61,0,0,1-.26-.11,10.38,10.38,0,0,1-1.52-1.12c-.11-.09-.15-.15-.15-.24a.42.42,0,0,1,.11-.26,44.41,44.41,0,0,0,3.81-7.68c-.84,0-1.52,0-2.2,0-.48,0-.66,0-1.21,0-.22,0-.26-.07-.31-.35a11.45,11.45,0,0,1-.22-1.87c.9.07,1.41.09,2,.09.86,0,1.52,0,2.53-.11.26-.92.42-1.67.57-2.46a8.52,8.52,0,0,0,.13-1.78,20.42,20.42,0,0,1,2.57.46c.22,0,.35.18.35.33a.54.54,0,0,1-.2.42,2.42,2.42,0,0,0-.35.81c-.15.53-.33,1.21-.53,1.87A23.56,23.56,0,0,0,544.48,202.88Zm.62,5.9a7.71,7.71,0,0,0-.18-1.56,11.86,11.86,0,0,1,2.4.42.34.34,0,0,1,.31.35,2.75,2.75,0,0,1-.13.46,2.3,2.3,0,0,0-.09.9,28.78,28.78,0,0,0,.24,3.74,17.27,17.27,0,0,1,4,2c.22.15.24.24.13.46a13.56,13.56,0,0,1-1,1.78c-.07.11-.13.15-.2.15s-.13,0-.22-.13a16.36,16.36,0,0,0-2.68-1.85c0,2.2-1.58,3.21-4.09,3.21s-4-1.23-4-3.12,1.58-3.21,4.07-3.21a11.32,11.32,0,0,1,1.74.13C545.16,211.15,545.12,209.81,545.1,208.77Zm-1.56,5.54c-1.1,0-2,.44-2,1.28s.62,1.06,1.87,1.06,1.92-.64,1.92-1.56a2.49,2.49,0,0,0,0-.44A5.61,5.61,0,0,0,543.53,214.32Zm4.09-10.58c.13-.22.24-.24.46-.15a17.16,17.16,0,0,1,4.31,2.07c.13.09.2.15.2.24a.52.52,0,0,1-.09.26,13.36,13.36,0,0,1-.92,1.63c-.07.11-.13.15-.2.15a.31.31,0,0,1-.2-.09,19,19,0,0,0-4.55-2.4C547,204.79,547.34,204.13,547.63,203.74Z"/><path class="cls-3" d="M566.24,208.25a6.62,6.62,0,0,1,3.5-1,5.11,5.11,0,0,1,5.46,5.28c0,3.67-3,6-7.68,6-2.77,0-4.44-1.19-4.44-3.24a2.92,2.92,0,0,1,3.1-2.68,4,4,0,0,1,4.14,3.21,3.31,3.31,0,0,0,2.24-3.34,3.21,3.21,0,0,0-3.46-3.32,9,9,0,0,0-5.63,2.33c-.64.57-1.25,1.21-1.91,1.87-.15.15-.26.24-.37.24a.54.54,0,0,1-.33-.2,9.92,9.92,0,0,1-1.3-1.43c-.13-.18-.07-.33.11-.51a52.85,52.85,0,0,0,5.21-4.86c1.36-1.41,2.4-2.51,3.41-3.76-1.32.24-2.88.55-4.25.84a6.82,6.82,0,0,0-.92.26,1.62,1.62,0,0,1-.44.11.5.5,0,0,1-.48-.37,10.52,10.52,0,0,1-.77-2.38,10.62,10.62,0,0,0,2,0c1.34-.13,3.28-.42,5-.75a5.9,5.9,0,0,0,1.21-.33,1.14,1.14,0,0,1,.42-.18.78.78,0,0,1,.51.18,8.28,8.28,0,0,1,1.47,1.41.76.76,0,0,1,.24.53.58.58,0,0,1-.37.53,3.54,3.54,0,0,0-1,.7c-1.61,1.56-3.08,3.1-4.75,4.71Zm0,6.27c-.64,0-1.06.37-1.06.84,0,.68.59,1.14,1.92,1.14a4.79,4.79,0,0,0,1-.09C567.84,215.2,567.18,214.52,566.26,214.52Z"/><path class="cls-3" d="M588.06,216.48a3.19,3.19,0,1,1-3.19-3.17A3.17,3.17,0,0,1,588.06,216.48Zm-5,0a1.83,1.83,0,1,0,1.83-1.83A1.8,1.8,0,0,0,583,216.48Z"/><path class="cls-3" d="M12.19,249a18.85,18.85,0,0,0,9.39,6.56,5.17,5.17,0,0,0-.9,1.85c-.11.42-.18.57-.37.57a1.32,1.32,0,0,1-.53-.2,23.47,23.47,0,0,1-4.62-2.73v1.69c0,.22,0,.24-.24.24s-.66,0-2.38,0H9.48c-1.69,0-2.22,0-2.35,0s-.26,0-.26-.24V255a28.72,28.72,0,0,1-4.42,2.86,1.26,1.26,0,0,1-.51.2c-.15,0-.24-.15-.4-.53a3.91,3.91,0,0,0-1-1.52A19.06,19.06,0,0,0,9,249.33a5.62,5.62,0,0,0,.81-1.56,18.51,18.51,0,0,1,2.35.48c.26,0,.4.13.4.31a.37.37,0,0,1-.22.33ZM7.26,260.88c-2.13,0-2.86,0-3,0s-.24,0-.24-.26v-1.72c0-.22,0-.24.24-.24s.86,0,3,0h7.92a2.12,2.12,0,0,0,.77-.09,1.25,1.25,0,0,1,.33-.09c.22,0,.42.07,1,.62.73.7.77.88.77,1s-.07.31-.29.48a3.38,3.38,0,0,0-.73,1.06,49,49,0,0,1-4.29,6.4c-.09.11-.15.18-.26.18a4.44,4.44,0,0,1-1.1-.4c-.84-.33-1.12-.44-1.12-.59s0-.11.13-.2a26.75,26.75,0,0,0,4.27-6.25Zm-.13-6.05c.13,0,.66,0,2.35,0h3.06c1.5,0,2.07,0,2.29,0a20.43,20.43,0,0,1-3.92-4,21.31,21.31,0,0,1-3.83,4Z"/><path class="cls-3" d="M36.61,253a27.53,27.53,0,0,1-2.75,9.48c-.95,1.65-2.09,2.53-3.74,2.53-1.94,0-3.89-2.07-3.89-5.65a8.11,8.11,0,0,1,2.49-5.72,9.63,9.63,0,0,1,7.15-2.82c5.28,0,8.38,3.26,8.38,7.63,0,4.09-2.31,6.67-6.78,8-.46.13-.66,0-.95-.4A4.68,4.68,0,0,0,35,264.66c3.72-.88,6.64-2.42,6.64-6.58A5,5,0,0,0,36.7,253Zm-6.32,2.13a6.34,6.34,0,0,0-1.72,4.07c0,2,.81,3.15,1.5,3.15s1.06-.29,1.65-1.34a25.15,25.15,0,0,0,2.33-7.88A6.63,6.63,0,0,0,30.29,255.11Z"/><path class="cls-3" d="M52.27,268.05c-.22,0-.24,0-.24-.24s0-1.3,0-7.17v-4.07c0-4.09,0-5.3,0-5.46s0-.24.24-.24.92,0,3.06,0h1.43a14.42,14.42,0,0,0,.81-2.07,5,5,0,0,0,.24-1c.75.07,1.72.22,2.35.33.2,0,.31.18.31.29a.44.44,0,0,1-.18.31,1.51,1.51,0,0,0-.33.53,17.36,17.36,0,0,1-.77,1.65h4.29c2.13,0,2.9,0,3.06,0s.24,0,.24.24,0,1.36,0,4.86v4.64c0,5.88,0,7,0,7.15s0,.24-.24.24h-2c-.22,0-.24,0-.24-.24v-1H54.43v1c0,.22,0,.24-.24.24Zm2.16-12.63h9.92V253H54.43ZM64.35,260v-2.46H54.43V260Zm0,4.71V262H54.43v2.64Z"/><path class="cls-3" d="M86.51,248.47c.29-.13.33-.11.42.11a17.61,17.61,0,0,0,7.13,8.12,7.54,7.54,0,0,0-1.28,1.65c-.2.33-.29.48-.42.48s-.24-.11-.46-.29a18.38,18.38,0,0,1-2.09-1.78c0,.64,0,1.41-.07,2.18a44,44,0,0,1-.55,6.16c-.29,1.74-1.12,2.71-3.28,2.71-.55,0-1,0-1.5,0-.68,0-.66,0-.81-.77a4.52,4.52,0,0,0-.68-1.76,16.36,16.36,0,0,0,2.51.2c.92,0,1.3-.35,1.47-1.36a36.36,36.36,0,0,0,.42-5.46H83.4a10.65,10.65,0,0,1-6.69,9.33,1.45,1.45,0,0,1-.53.18c-.18,0-.24-.15-.46-.53a4.16,4.16,0,0,0-1.12-1.32c4-1.45,5.94-3.78,6.36-7.66H80.7c-2.07,0-2.77,0-2.9,0s-.24,0-.24-.24v-1.61a23.93,23.93,0,0,1-2.13,1.83c-.24.18-.37.29-.48.29s-.24-.15-.46-.48a5,5,0,0,0-1.23-1.34,17.19,17.19,0,0,0,6.36-7.26,6.21,6.21,0,0,0,.44-1.41,15.55,15.55,0,0,1,2.29.77c.24.11.31.22.31.37a.46.46,0,0,1-.18.33,1.75,1.75,0,0,0-.51.7,19.85,19.85,0,0,1-4,5.83c.31,0,1.08,0,2.77,0h5.92c1.91,0,2.64,0,2.86,0a23.19,23.19,0,0,1-4.73-7c-.09-.24,0-.26.2-.37Z"/><path class="cls-3" d="M106.46,249.28c.26.07.4.18.4.35s-.15.62-.15.92.07,1,.11,1.47a31,31,0,0,0,.7,3.78l3.12-1.67a5.44,5.44,0,0,0,1.52-1.19,11.28,11.28,0,0,1,1.61,2.07.89.89,0,0,1,.15.46c0,.22-.13.4-.44.44a10.57,10.57,0,0,0-2.11.66,30.65,30.65,0,0,0-5.17,2.58c-1.91,1.25-2.6,2.29-2.6,3.32,0,1.3,1,1.85,3.5,1.85a38.38,38.38,0,0,0,6.71-.51c.24,0,.35,0,.4.26a19.3,19.3,0,0,1,.22,2c0,.24-.13.35-.4.37a47.07,47.07,0,0,1-6.56.33c-4.16,0-6.36-1.36-6.36-4.22,0-2.44,1.61-4,4.18-5.68a33.44,33.44,0,0,1-1.14-5.37,9.87,9.87,0,0,0-.57-2.55A12.72,12.72,0,0,1,106.46,249.28Z"/><path class="cls-3" d="M140.89,261.69c0,1.91,0,3.08,0,3.85a2.29,2.29,0,0,1-.64,1.8c-.44.37-1.28.51-3.12.55-.7,0-.68,0-.84-.66a5.23,5.23,0,0,0-.62-1.61c.68,0,1.25.09,1.85.09s.92-.15.92-.7V254h-13v10.54c0,2.07,0,3.1,0,3.23s0,.22-.24.22h-2c-.22,0-.24,0-.24-.22s0-1.21,0-3.52v-8.6c0-2.31,0-3.39,0-3.54s0-.24.24-.24.9,0,3,0h2.57a22.77,22.77,0,0,0,1.17-2.53,5.52,5.52,0,0,0,.33-1.23c.9.11,1.83.24,2.46.37.2,0,.26.15.26.29a.51.51,0,0,1-.18.37,1.28,1.28,0,0,0-.37.53c-.33.7-.73,1.5-1.12,2.2h6.25c2.09,0,2.84,0,3,0s.26,0,.26.24,0,1.34,0,3.65ZM128,264.53c-.22,0-.24,0-.24-.24s0-.7,0-3.67v-1.89c0-1.69,0-2.27,0-2.42s0-.24.24-.24.68,0,2.33,0h3.15c1.67,0,2.2,0,2.35,0s.24,0,.24.24,0,.7,0,2v2.07c0,2.9,0,3.43,0,3.56s0,.24-.24.24h-1.65c-.24,0-.26,0-.26-.24v-.66h-4v1c0,.22,0,.24-.24.24Zm1.89-3.19h4v-3.28h-4Z"/><path class="cls-3" d="M153.94,250.43a5.57,5.57,0,0,0-.77-1.41,15.53,15.53,0,0,1,2.66-.24c.31,0,.48.18.48.4s0,.29,0,.42a3.91,3.91,0,0,0,.09.66c.15.57.22.77.35,1.14a34.3,34.3,0,0,0,4.49-1.17c.2-.09.31-.07.37.11.13.42.29,1,.38,1.47a.34.34,0,0,1-.26.4c-1.47.46-2.82.79-4.31,1.12.2.55.48,1.23.77,1.85a25.88,25.88,0,0,0,4-1.14c.22-.11.33-.07.4.13a8.26,8.26,0,0,1,.4,1.45c0,.2,0,.31-.18.4a27.15,27.15,0,0,1-3.72,1.08,16.42,16.42,0,0,0,2.88,3.81c.22.2.22.29.11.53a6.38,6.38,0,0,1-.9,1.36c-.13.15-.22.22-.35.22a.58.58,0,0,1-.31-.13,5.57,5.57,0,0,0-1.3-.7,10.73,10.73,0,0,0-4.14-.7c-2.07,0-3.28.64-3.28,1.67,0,1.43,1.87,1.89,5.24,1.89.81,0,1.63-.09,2.42-.13.22,0,.29.11.26.29a14.3,14.3,0,0,1-.44,2c-.07.22-.15.31-.46.33q-.76.07-1.58.07c-5.06,0-7.75-1.43-7.75-4.14,0-2.35,2-3.83,5.46-3.83a10.19,10.19,0,0,1,3.78.55,25.52,25.52,0,0,1-1.83-2.6,51.87,51.87,0,0,1-6,.66c-.24,0-.33-.09-.4-.31a11.07,11.07,0,0,1-.4-1.8,38.36,38.36,0,0,0,5.92-.55c-.22-.46-.55-1.21-.84-1.83a38.24,38.24,0,0,1-5.35.53c-.26,0-.4-.09-.44-.31s-.22-1.06-.35-1.76a38.83,38.83,0,0,0,5.48-.35C154.29,251.35,154.15,251,153.94,250.43Z"/><path class="cls-3" d="M176,255.29a27.16,27.16,0,0,1-4.07,2.6,1.61,1.61,0,0,1-.51.22c-.15,0-.24-.15-.42-.55a5.35,5.35,0,0,0-1-1.47,19.59,19.59,0,0,0,8.47-6.73,6.9,6.9,0,0,0,.86-1.56c.86.13,1.67.26,2.31.42.26.09.4.15.4.35a.38.38,0,0,1-.22.33.59.59,0,0,0-.18.15,19.85,19.85,0,0,0,9.39,6.71,5.84,5.84,0,0,0-.92,1.67c-.13.42-.22.57-.4.57a1.32,1.32,0,0,1-.53-.2,24,24,0,0,1-4.29-2.46v1.54c0,.22,0,.24-.24.24s-.73,0-2.49,0h-3.41c-1.76,0-2.33,0-2.49,0s-.24,0-.24-.24Zm-2.09,12.83c-.22,0-.24,0-.24-.24s0-.73,0-3.92v-1.89c0-1.89,0-2.53,0-2.66s0-.24.24-.24.9,0,3,0h7c2.11,0,2.88,0,3,0s.26,0,.26.24,0,.77,0,2.33v2.16c0,3.17,0,3.76,0,3.87s0,.24-.26.24h-1.87c-.22,0-.24,0-.24-.24V267H176v.84c0,.22,0,.24-.26.24ZM176,265h8.82v-3.83H176Zm6.09-10c1.3,0,2,0,2.27,0a19.67,19.67,0,0,1-4-4.18,21.74,21.74,0,0,1-4,4.16c.26,0,.88,0,2.38,0Z"/><path class="cls-3" d="M199,251.9c.2.09.35.24.35.4a1.94,1.94,0,0,1-.18.62,9.82,9.82,0,0,0-.2,2.16,27.75,27.75,0,0,0,.4,5c.31,1.74.88,3.23,1.8,3.23.7,0,1.25-.77,2.11-3.06a8.4,8.4,0,0,0,1.41,1.69.68.68,0,0,1,.15.81c-.84,2.24-2.2,3.43-3.74,3.43-1.72,0-3.52-2-4.11-5.74a40,40,0,0,1-.53-6.4,11.8,11.8,0,0,0-.26-2.88A9.52,9.52,0,0,1,199,251.9Zm10.21,1.39a.65.65,0,0,1,.24-.09.34.34,0,0,1,.24.13,14.55,14.55,0,0,1,4.31,7.53c.07.29-.07.37-.24.48a7.43,7.43,0,0,1-1.72.88c-.26.09-.42,0-.46-.24a14.83,14.83,0,0,0-4.11-7.68C208.28,253.77,208.83,253.46,209.18,253.29Z"/><path class="cls-3" d="M220,262.64a.47.47,0,0,1,.33-.18.45.45,0,0,1,.29.13,16.38,16.38,0,0,1,4.38,4c.13.18.15.24.15.33s0,.2-.22.35l-1.34,1.14c-.15.13-.24.2-.31.2s-.2,0-.31-.22a16.42,16.42,0,0,0-4.16-4.2c-.13-.09-.2-.15-.2-.22s0-.13.15-.26Z"/><path class="cls-3" d="M4.58,307.76c-2,0-2.68,0-2.82,0s-.24,0-.24-.24v-1.69c0-.22,0-.24.24-.24s.84,0,2.82,0H9.66v-3.12H6.51c-2.13,0-2.9,0-3,0s-.22,0-.22-.24v-1.74c0-.22,0-.24.22-.24s.9,0,3,0H9.66v-.77A12.88,12.88,0,0,0,9.51,297c.81,0,1.67.07,2.42.15.22,0,.35.13.35.24s-.13.4-.15.57A7.65,7.65,0,0,0,12,299.6v.81h3.52c2.13,0,2.9,0,3,0s.22,0,.22.24v1.74c0,.22,0,.24-.22.24s-.9,0-3,0H12v3.13h5.41c2,0,2.68,0,2.82,0s.26,0,.26.24v1.69c0,.22,0,.24-.26.24s-.81,0-2.82,0H13a20.38,20.38,0,0,0,8.29,6.07,6.22,6.22,0,0,0-1.14,1.61c-.15.37-.24.51-.37.51a1.63,1.63,0,0,1-.53-.22,20,20,0,0,1-7.33-6.51c0,3.26.11,6.65.11,7.72,0,.22,0,.24-.24.24h-2c-.22,0-.24,0-.24-.24,0-1,.11-4.45.13-7.68a20.85,20.85,0,0,1-7,6.42,1.22,1.22,0,0,1-.51.24c-.13,0-.22-.15-.4-.53a5.38,5.38,0,0,0-1.06-1.52,18.61,18.61,0,0,0,7.66-6.12Z"/><path class="cls-3" d="M28.62,308.87c-2,0-2.66,0-2.79,0s-.24,0-.24-.26V307c0-.22,0-.24.24-.24s.81,0,2.79,0H33.9v-4.71h-4c-2.11,0-2.82,0-2.95,0s-.24,0-.24-.24v-1.63c0-.22,0-.24.24-.24s.84,0,2.95,0h4v-.46a14.39,14.39,0,0,0-.15-2.6c.79,0,1.61.07,2.38.15.22,0,.31.13.31.22a2.79,2.79,0,0,1-.13.62,7.33,7.33,0,0,0-.11,1.58v.48h4.38c2.11,0,2.82,0,2.95,0s.26,0,.26.24v1.63c0,.22,0,.24-.26.24s-.84,0-2.95,0H36.19v4.71h1.39a18.47,18.47,0,0,0,1.45-3,5.9,5.9,0,0,0,.35-1.17,20.63,20.63,0,0,1,2.22.55c.26.09.35.2.35.35a.3.3,0,0,1-.2.29,2.4,2.4,0,0,0-.55.79c-.42.73-.81,1.41-1.32,2.18h1.89c2,0,2.66,0,2.79,0s.24,0,.24.24v1.61c0,.24,0,.26-.24.26s-.81,0-2.79,0h-4.2a20.35,20.35,0,0,0,7.9,5.3,6.22,6.22,0,0,0-1.14,1.61c-.18.4-.24.55-.4.55a1.58,1.58,0,0,1-.51-.22,19.42,19.42,0,0,1-7.31-6.2c0,3.19.11,6.27.11,7.08,0,.22,0,.24-.24.24H34.08c-.22,0-.24,0-.24-.24,0-.86.09-3.85.11-7a19.11,19.11,0,0,1-6.87,6,1.65,1.65,0,0,1-.53.22c-.15,0-.22-.15-.42-.53a5.69,5.69,0,0,0-1-1.45,18,18,0,0,0,7.33-5.41Zm1.47-6.1c.24-.09.31-.09.44.11a16.35,16.35,0,0,1,1.39,2.71c.09.22,0,.26-.22.35l-1.58.59c-.29.11-.33.09-.42-.13a13.46,13.46,0,0,0-1.32-2.71c-.13-.22-.09-.29.18-.37Z"/><path class="cls-3" d="M60.81,302a27.53,27.53,0,0,1-2.75,9.48C57.11,313.11,56,314,54.32,314c-1.94,0-3.89-2.07-3.89-5.65a8.1,8.1,0,0,1,2.49-5.72,9.63,9.63,0,0,1,7.15-2.82c5.28,0,8.38,3.26,8.38,7.63,0,4.09-2.31,6.67-6.78,8-.46.13-.66,0-.95-.4a4.68,4.68,0,0,0-1.54-1.39c3.72-.88,6.64-2.42,6.64-6.58A5,5,0,0,0,60.9,302Zm-6.31,2.13a6.33,6.33,0,0,0-1.72,4.07c0,2,.81,3.15,1.5,3.15s1.06-.29,1.65-1.34a25.13,25.13,0,0,0,2.33-7.88A6.63,6.63,0,0,0,54.49,304.11Z"/><path class="cls-3" d="M76.47,317.05c-.22,0-.24,0-.24-.24s0-1.3,0-7.17v-4.07c0-4.09,0-5.3,0-5.46s0-.24.24-.24.92,0,3.06,0H81a14.42,14.42,0,0,0,.81-2.07,5,5,0,0,0,.24-1c.75.07,1.72.22,2.35.33.2,0,.31.18.31.29a.44.44,0,0,1-.18.31,1.51,1.51,0,0,0-.33.53,17.36,17.36,0,0,1-.77,1.65h4.29c2.13,0,2.9,0,3.06,0s.24,0,.24.24,0,1.36,0,4.86v4.64c0,5.88,0,7,0,7.15s0,.24-.24.24h-2c-.22,0-.24,0-.24-.24v-1H78.63v1c0,.22,0,.24-.24.24Zm2.16-12.63h9.92V302H78.63ZM88.55,309v-2.46H78.63V309Zm0,4.71V311H78.63v2.64Z"/><path class="cls-3" d="M110.71,297.47c.29-.13.33-.11.42.11a17.62,17.62,0,0,0,7.13,8.12,7.57,7.57,0,0,0-1.28,1.65c-.2.33-.29.48-.42.48s-.24-.11-.46-.29a18.28,18.28,0,0,1-2.09-1.78c0,.64,0,1.41-.07,2.18a44,44,0,0,1-.55,6.16c-.29,1.74-1.12,2.71-3.28,2.71-.55,0-1,0-1.5,0-.68,0-.66,0-.81-.77a4.52,4.52,0,0,0-.68-1.76,16.37,16.37,0,0,0,2.51.2c.92,0,1.3-.35,1.47-1.36a36.36,36.36,0,0,0,.42-5.46H107.6a10.64,10.64,0,0,1-6.69,9.33,1.46,1.46,0,0,1-.53.18c-.18,0-.24-.15-.46-.53a4.16,4.16,0,0,0-1.12-1.32c4-1.45,5.94-3.78,6.36-7.66h-.26c-2.07,0-2.77,0-2.9,0s-.24,0-.24-.24v-1.61a24.08,24.08,0,0,1-2.13,1.83c-.24.18-.37.29-.48.29s-.24-.15-.46-.48a4.93,4.93,0,0,0-1.23-1.34,17.18,17.18,0,0,0,6.36-7.26,6.21,6.21,0,0,0,.44-1.41,15.49,15.49,0,0,1,2.29.77c.24.11.31.22.31.37a.45.45,0,0,1-.18.33,1.77,1.77,0,0,0-.51.7,19.87,19.87,0,0,1-4,5.83c.31,0,1.08,0,2.77,0h5.92c1.91,0,2.64,0,2.86,0a23.17,23.17,0,0,1-4.73-7c-.09-.24,0-.26.2-.37Z"/><path class="cls-3" d="M134.38,312.3c0,.24-.13.35-.42.4a11.91,11.91,0,0,1-1.56.11c-.2,0-.29-.13-.29-.35,0-.79,0-1.89,0-2.68-2,1-2.66,1.87-2.66,2.93s.75,1.52,3.06,1.52a37.59,37.59,0,0,0,5.48-.44c.2,0,.29,0,.31.24a9.82,9.82,0,0,1,.2,1.8c0,.26-.07.42-.24.42a39.25,39.25,0,0,1-5.46.29c-3.61,0-5.52-1.08-5.52-3.63,0-2.11,1.32-3.65,4.64-5.37-.07-1.12-.33-1.56-1.32-1.52a5.31,5.31,0,0,0-3,1.58,29.6,29.6,0,0,0-2.2,2.4c-.11.13-.18.2-.26.2a.44.44,0,0,1-.24-.15,10.48,10.48,0,0,1-1.25-1.45.36.36,0,0,1-.09-.2c0-.09,0-.15.15-.24a22.5,22.5,0,0,0,4.6-5.46c-1,0-2.22.07-3.52.07-.2,0-.26-.11-.31-.35s-.15-1.17-.22-1.83a48.62,48.62,0,0,0,5.06,0,17.09,17.09,0,0,0,.66-1.89,5.31,5.31,0,0,0,.15-1.34,13.77,13.77,0,0,1,2.51.62.39.39,0,0,1,.26.37.43.43,0,0,1-.15.33,1.71,1.71,0,0,0-.37.53c-.13.31-.24.59-.51,1.19a35.54,35.54,0,0,0,4-.68c.24,0,.31,0,.35.22a7.42,7.42,0,0,1,.22,1.58c0,.22-.07.31-.37.35-1.65.24-3.54.48-5.15.66a22.77,22.77,0,0,1-1.65,2.44l0,0a4.37,4.37,0,0,1,2.2-.68,2.43,2.43,0,0,1,2.68,2.38c.86-.4,2.11-1,3.23-1.54a6.62,6.62,0,0,0,1.67-1.19,13.55,13.55,0,0,1,1.54,1.94.87.87,0,0,1,.18.48c0,.18-.11.26-.33.31a7.06,7.06,0,0,0-1.34.33c-1.43.51-2.86,1-4.73,1.76Z"/><path class="cls-3" d="M150.41,299.05a9.47,9.47,0,0,0-.13-2c.77,0,1.41,0,2.13.11.2,0,.29.09.29.22a1.35,1.35,0,0,1-.09.35,4.19,4.19,0,0,0-.11,1.25v1h.29c1.76,0,2.31,0,2.44,0s.26,0,.26.24v1.56c0,.22,0,.24-.26.24s-.68,0-2.44,0h0a11.75,11.75,0,0,0,3,3.19,5.44,5.44,0,0,0-.77,1.3c-.13.31-.22.46-.35.46s-.24-.11-.44-.33a10.85,10.85,0,0,1-1.8-2.44c0,2.77.11,4.78.11,5.19,0,.24,0,.26-.24.26h-1.67c-.22,0-.24,0-.24-.26,0-.4.07-2.18.09-4.75a12,12,0,0,1-2.64,3.37c-.2.18-.33.26-.44.26s-.26-.15-.44-.48a5.06,5.06,0,0,0-.95-1.3,12.52,12.52,0,0,0,4.07-4.47h-.73c-1.78,0-2.35,0-2.49,0s-.24,0-.24-.24V300.2c0-.22,0-.24.24-.24s.7,0,2.49,0h1.08Zm-3.78,16c-.29-.2-.26-.29-.13-.44a12,12,0,0,0,1.85-3.89c.07-.24.11-.22.4-.11l1.39.53c.29.11.31.15.24.4a16,16,0,0,1-2,4.38c-.07.11-.11.15-.18.15a.42.42,0,0,1-.26-.11Zm7.46-1.3c0,.44.09.73.31.86a4.82,4.82,0,0,0,2,.24,5.4,5.4,0,0,0,2.62-.33,2.74,2.74,0,0,0,.55-2,5.62,5.62,0,0,0,1.65.64c.57.11.55.18.46.77-.2,1.43-.55,2-1.21,2.35-.81.46-2,.55-4.27.55-2,0-3.15-.13-3.67-.48s-.75-.75-.75-1.87V312a12.32,12.32,0,0,0-.13-1.83c.73,0,1.61,0,2.24.11.29,0,.4.13.4.24a.76.76,0,0,1-.09.35,2.46,2.46,0,0,0-.15,1ZM162.14,298c1.72,0,2.29,0,2.44,0s.24,0,.24.24,0,.9,0,2.57v5.81c0,1.67,0,2.44,0,2.57s0,.26-.24.26-.73,0-2.44,0H159c-1.08,0-1.67,0-2,0a14.49,14.49,0,0,1,2.13,2.49c.11.18.11.24-.13.4l-1.28.79a.62.62,0,0,1-.29.13c-.07,0-.11,0-.18-.15a12.23,12.23,0,0,0-2.2-2.86c-.13-.15-.11-.24.11-.37l1.17-.68c0-.18,0-.95,0-2.55v-5.81c0-1.67,0-2.42,0-2.57s0-.24.26-.24.68,0,2.42,0Zm-3.7,3.3h4.25v-1.5h-4.25Zm4.25,3.1v-1.47h-4.25v1.47Zm0,1.63h-4.25v1.54h4.25Zm.57,4.25c.26-.11.33-.09.46.09a17.07,17.07,0,0,1,2.4,4c.07.18,0,.24-.2.4l-1.47.86a.61.61,0,0,1-.29.13c-.07,0-.11-.07-.15-.2a13.83,13.83,0,0,0-2.27-4.14c-.15-.2-.13-.24.15-.4Z"/><path class="cls-3" d="M172.48,308.82c0-.9,0-2.07,0-3.17-.42.59-.88,1.19-1.34,1.76-.15.2-.26.29-.37.29s-.18-.15-.26-.46a8.68,8.68,0,0,0-.7-1.72,19.8,19.8,0,0,0,3.94-7,7.43,7.43,0,0,0,.35-1.54,16.21,16.21,0,0,1,2,.64c.24.09.37.15.37.33s-.09.24-.22.37a2.66,2.66,0,0,0-.53,1.06,27.07,27.07,0,0,1-1.19,2.82v11.4c0,2.16,0,3.23,0,3.34s0,.24-.24.24h-1.74c-.22,0-.24,0-.24-.24s0-1.19,0-3.34Zm9.73-1.65a8.94,8.94,0,0,1,2.51,6.21c0,2.71-1.19,3.65-2.62,3.65-.33,0-.7,0-1.12,0-.66,0-.66-.07-.77-.64a5.51,5.51,0,0,0-.51-1.47,11.17,11.17,0,0,0,1.76.15c.86,0,1.23-.29,1.23-2a2.75,2.75,0,0,0,0-.42,20.59,20.59,0,0,1-6.16,3.39,1.65,1.65,0,0,1-.42.11c-.15,0-.22-.09-.33-.37a4.16,4.16,0,0,0-.86-1.3,22.25,22.25,0,0,0,7.42-3.65c-.09-.24-.18-.48-.29-.73a22.39,22.39,0,0,1-5.44,2.84,1.43,1.43,0,0,1-.44.13c-.15,0-.22-.11-.33-.37a3.52,3.52,0,0,0-.79-1.19,20.87,20.87,0,0,0,6.14-2.77,3.58,3.58,0,0,0-.46-.55,20.46,20.46,0,0,1-3.92,1.83,1.46,1.46,0,0,1-.48.13c-.15,0-.22-.11-.33-.37a4.83,4.83,0,0,0-.79-1.25,18.56,18.56,0,0,0,5.21-2H180c-2.07,0-2.86,0-3,0s-.24,0-.24-.24,0-.55,0-1.5v-.9l-.29.2c-.26.2-.42.31-.53.31s-.2-.13-.33-.37a5.72,5.72,0,0,0-.86-1.19,13,13,0,0,0,4.36-4.36,6.11,6.11,0,0,0,.62-1.41c.81.13,1.39.24,1.94.37.24.07.4.15.4.31a.45.45,0,0,1-.26.4,1.85,1.85,0,0,0-.53.64h3.19a1.52,1.52,0,0,0,.55-.07.85.85,0,0,1,.29-.09c.18,0,.33.09.86.59s.55.55.55.73-.11.26-.31.37a2,2,0,0,0-.53.53,9.94,9.94,0,0,1-.88,1h.92c2.09,0,2.88,0,3,0s.24,0,.24.24,0,.51,0,1.45v1.32c0,.95,0,1.3,0,1.43s0,.24-.24.24-.95,0-3,0h-.35a14.39,14.39,0,0,0,.88,2.64c.4-.37.77-.77,1.1-1.14a6.67,6.67,0,0,0,.64-1c.64.37,1.19.7,1.58,1,.2.15.29.24.29.37s-.13.26-.29.33a2.8,2.8,0,0,0-.75.57c-.51.51-1,1-1.65,1.52a11.73,11.73,0,0,0,3.5,3.3,5.94,5.94,0,0,0-1,1.41c-.18.33-.29.48-.44.48s-.29-.11-.53-.33c-2.68-2.31-4.25-5.13-5.26-9.18h-.44Zm-.33-2.24v-1.58h-3.12v1.58Zm.75-3.12a8.62,8.62,0,0,0,1.17-1.41H180.2c-.37.46-.77.95-1.21,1.41Zm4.53,1.54h-3.28v1.58h3.28Z"/><path class="cls-3" d="M202.23,298.5c.37.09.53.2.53.42a2.12,2.12,0,0,1-.22.73,13.28,13.28,0,0,0-.31,2.68c-.22,3.39-.33,5.63-.33,8.51,0,2.22.26,2.73,2,2.73,2,0,5-1.19,7.7-4a7.66,7.66,0,0,0,.51,2.09,1.44,1.44,0,0,1,.18.53c0,.2-.09.37-.44.68a12.57,12.57,0,0,1-8.34,3.3c-2.82,0-4.14-1.12-4.14-4.49,0-3.7.2-6.87.31-9.51a14.63,14.63,0,0,0-.22-4A22.88,22.88,0,0,1,202.23,298.5Z"/><path class="cls-3" d="M222.53,310.08a21.88,21.88,0,0,1-.48,2.4,14.49,14.49,0,0,1-1.52,3.48c-.15.26-.26.4-.37.4s-.22-.13-.44-.4a5.43,5.43,0,0,0-1.28-1.21,10.85,10.85,0,0,0,1.78-3.81,17.74,17.74,0,0,0,.48-4.51c0-1.61,0-2.22,0-2.46s0-.24.22-.24.75,0,2.53,0H227c1.78,0,2.4,0,2.51,0s.24,0,.24.24,0,.57,0,1.78v2.38c0,1.17,0,1.63,0,1.76s0,.24-.24.24-.73,0-2.51,0Zm.42-8.27a16.62,16.62,0,0,1-2.79,2,1.41,1.41,0,0,1-.51.22c-.15,0-.22-.18-.37-.51a5.23,5.23,0,0,0-.81-1.39,13,13,0,0,0,5.15-4.09,4.58,4.58,0,0,0,.64-1.14c.73.11,1.32.22,2,.37.18,0,.29.11.29.29s-.07.2-.22.29a12,12,0,0,0,4.78,3.26,5.3,5.3,0,0,0-.73,1.41c-.13.37-.2.53-.33.53a1.2,1.2,0,0,1-.48-.2,13.32,13.32,0,0,1-1.85-1.19v1.06c0,.22,0,.24-.24.24s-.4,0-1.5,0h-1.28c-1.08,0-1.36,0-1.5,0s-.26,0-.26-.24Zm7.19,12.39c0,1.91,0,2.44,0,2.57s0,.22-.24.22H228.3c-.22,0-.24,0-.24-.22v-.51h-3.56v.66c0,.22,0,.24-.24.24h-1.58c-.22,0-.24,0-.24-.24s0-.64,0-2.6v-1.25c0-1,0-1.47,0-1.63s0-.24.24-.24.66,0,2.31,0h2.66c1.63,0,2.16,0,2.31,0s.24,0,.24.24,0,.59,0,1.36Zm-2.49-6.56h-4.88l-.07.88h5Zm-4.86-2.33v.86h4.86v-.86Zm3.19-4c.68,0,1,0,1.23,0a13,13,0,0,1-2-2,16.56,16.56,0,0,1-1.74,2c.22,0,.57,0,1.19,0Zm-1.5,11.55v1.8h3.56v-1.8Zm7.11-10.65a20.36,20.36,0,0,0-.15-3.26c.79,0,1.47.07,2.24.15.2,0,.29.11.29.24a2,2,0,0,1-.13.48,14.93,14.93,0,0,0-.07,2.35v6.07c0,1.87,0,2.77,0,2.9s0,.26-.22.26h-1.8c-.2,0-.22,0-.22-.26s0-1,0-2.9Zm6.36,7.55c0,1.54,0,3.28,0,4.38s-.15,1.72-.79,2.16-1.25.55-3.32.55c-.66,0-.66,0-.81-.7a4.87,4.87,0,0,0-.7-1.67,21.49,21.49,0,0,0,2.38.11c.7,0,1-.18,1-.88v-13.2a18.66,18.66,0,0,0-.18-3.15c.81,0,1.56.07,2.33.15.22,0,.33.13.33.24a1.57,1.57,0,0,1-.11.48,6.75,6.75,0,0,0-.13,2.22Z"/><path class="cls-3" d="M248.14,312.3a3.34,3.34,0,0,0,1.8,1.83,12.59,12.59,0,0,0,4.07.44c2.84,0,6.23-.13,9.51-.46a4.2,4.2,0,0,0-.59,1.69c-.11.7-.11.7-.81.75-2.79.15-5.46.2-7.75.2a15.12,15.12,0,0,1-5.15-.62,4.26,4.26,0,0,1-2.16-2,27.23,27.23,0,0,1-2.22,1.94,2,2,0,0,0-.44.44.37.37,0,0,1-.33.2.42.42,0,0,1-.31-.26,18.89,18.89,0,0,1-.9-2.07,10,10,0,0,0,1.3-.68,13.9,13.9,0,0,0,1.83-1.41v-4.88h-1.06c-1.17,0-1.47,0-1.58,0s-.26,0-.26-.26v-1.67c0-.22,0-.24.26-.24s.42,0,1.58,0h1.36c1.19,0,1.52,0,1.65,0s.24,0,.24.24,0,.75,0,2.09Zm-3.19-14.5a.49.49,0,0,1,.26-.13c.07,0,.13,0,.22.13a19,19,0,0,1,2.75,3.26c.15.2.11.24-.13.44l-1.23,1c-.13.11-.2.15-.26.15s-.13-.07-.2-.18a17.25,17.25,0,0,0-2.71-3.41c-.15-.18-.13-.22.11-.4Zm7.28,8.1c-2.13,0-2.86,0-3,0s-.26,0-.26-.22v-1.54c0-.22,0-.24.26-.24s.86,0,3,0h2.44v-2.2h-2.82c-.26.46-.57.92-.88,1.36-.22.29-.33.44-.46.44s-.26-.11-.48-.31a5.25,5.25,0,0,0-1.32-.81,12.17,12.17,0,0,0,2.2-3.48,6.41,6.41,0,0,0,.37-1.39,13.79,13.79,0,0,1,1.94.57c.22.09.33.15.33.29s-.07.2-.18.31a2.43,2.43,0,0,0-.44.77l-.13.33h1.87v-.4a12.73,12.73,0,0,0-.15-2.33c.84,0,1.58,0,2.24.11.2,0,.33.11.33.24a.66.66,0,0,1-.11.37,4.19,4.19,0,0,0-.13,1.5v.51h1.76c1.94,0,2.57,0,2.71,0s.24,0,.24.26v1.5c0,.22,0,.24-.24.24s-.77,0-2.71,0h-1.76V304h2.6c2.13,0,2.88,0,3,0s.26,0,.26.24v1.54c0,.2,0,.22-.26.22s-.88,0-3,0Zm5.79,1.36c1.94,0,2.62,0,2.75,0s.24,0,.24.24,0,.57,0,1.69v2.11c0,1.12,0,1.56,0,1.69s0,.24-.24.24-.81,0-2.75,0h-4.36c-1.94,0-2.62,0-2.77,0s-.24,0-.24-.24,0-.57,0-1.69v-2.11c0-1.12,0-1.54,0-1.69s0-.24.24-.24.84,0,2.77,0Zm.73,1.87h-5.87v2.13h5.88Z"/><path class="cls-3" d="M277.09,299.23a7,7,0,0,0-.26-1.61,22.35,22.35,0,0,1,2.57.31c.37.07.62.22.62.42a.93.93,0,0,1-.2.51,2.28,2.28,0,0,0-.18.64c0,.29,0,.57,0,1.41,2.38-.09,4.64-.11,6.75-.11.26,0,.31,0,.33.33,0,.55,0,1.12,0,1.67,0,.24-.11.31-.37.29-2.29-.07-4.42-.07-6.71,0,0,1.34,0,2.75,0,4.09a6.83,6.83,0,0,1,.33,2.18,8.22,8.22,0,0,1-3.92,7.11,2.09,2.09,0,0,1-.86.42,1.25,1.25,0,0,1-.66-.33,4.9,4.9,0,0,0-1.67-.88,7.35,7.35,0,0,0,4.51-4.84,2.54,2.54,0,0,1-2.07.88,3,3,0,0,1-3.06-3.37,3.21,3.21,0,0,1,3.32-3.3,2.69,2.69,0,0,1,1.67.44c0-.77,0-1.52,0-2.24-2.77.15-5.87.42-7.61.66-.48.07-.84.26-1,.26s-.31-.09-.37-.31a15.38,15.38,0,0,1-.55-2.22,14.54,14.54,0,0,0,2.68-.09c1.34-.11,4.18-.29,6.82-.44C277.11,300.37,277.11,299.82,277.09,299.23Zm-2.82,8.91a1.36,1.36,0,0,0,1.41,1.5,1.41,1.41,0,0,0,1.5-1.52,1.32,1.32,0,0,0-1.45-1.41A1.4,1.4,0,0,0,274.28,308.14Z"/><path class="cls-3" d="M300,306.25a6.62,6.62,0,0,1,3.5-1,5.11,5.11,0,0,1,5.46,5.28c0,3.67-3,6-7.68,6-2.77,0-4.44-1.19-4.44-3.24a2.92,2.92,0,0,1,3.1-2.68,4,4,0,0,1,4.14,3.21,3.31,3.31,0,0,0,2.24-3.34,3.21,3.21,0,0,0-3.46-3.32,9,9,0,0,0-5.63,2.33c-.64.57-1.25,1.21-1.91,1.87-.15.15-.26.24-.37.24a.54.54,0,0,1-.33-.2,9.92,9.92,0,0,1-1.3-1.43c-.13-.18-.07-.33.11-.51a52.85,52.85,0,0,0,5.21-4.86c1.36-1.41,2.4-2.51,3.41-3.76-1.32.24-2.88.55-4.25.84a6.82,6.82,0,0,0-.92.26,1.62,1.62,0,0,1-.44.11.5.5,0,0,1-.48-.37,10.52,10.52,0,0,1-.77-2.38,10.62,10.62,0,0,0,2,0c1.34-.13,3.28-.42,5-.75a5.9,5.9,0,0,0,1.21-.33,1.14,1.14,0,0,1,.42-.18.78.78,0,0,1,.51.18,8.28,8.28,0,0,1,1.47,1.41.76.76,0,0,1,.24.53.58.58,0,0,1-.37.53,3.54,3.54,0,0,0-1,.7c-1.61,1.56-3.08,3.1-4.75,4.71Zm0,6.27c-.64,0-1.06.37-1.06.84,0,.68.59,1.14,1.92,1.14a4.79,4.79,0,0,0,1-.09C301.64,313.2,301,312.52,300.06,312.52Z"/><path class="cls-3" d="M321.27,303.08a4.92,4.92,0,0,1,5.17-4.64c3,0,5,1.63,5,4.53,0,1.87-.81,3.28-3.39,5.68-2.31,2.07-3.41,3.3-4.09,4.67h7.55v2.2H321.11v-2a21.25,21.25,0,0,1,4.8-6.23c2.2-2.11,2.68-3,2.68-4.38a2.1,2.1,0,0,0-2.2-2.33c-1.39,0-2.25,1-2.38,3Z"/><path class="cls-3" d="M344.61,316.85c-.22,0-.24,0-.24-.24s0-1.45,0-7.83v-4.25c0-4.27,0-5.61,0-5.74s0-.26.24-.26.9,0,3,0h7.55c2.13,0,2.9,0,3,0s.24,0,.24.26,0,1.47,0,5.08v4.88c0,6.31,0,7.61,0,7.75s0,.24-.24.24h-2c-.22,0-.24,0-.24-.24v-1.08h-9.22v1.19c0,.22,0,.24-.24.24Zm2.2-11.09H356v-5h-9.22Zm9.22,7.48v-5.32h-9.22v5.32Z"/><path class="cls-3" d="M372.28,297.73c1.43,0,2.09,0,2.22,0s.22,0,.22.26,0,.77,0,2.09v2.73c0,1.34,0,2,0,2.09s0,.26-.22.26-.79,0-2.22,0h-3.56v7.13c0,3,0,4.53,0,4.69s0,.24-.24.24h-1.87c-.22,0-.24,0-.24-.24s0-1.65,0-4.69v-9.53c0-3.06,0-4.6,0-4.73s0-.26.24-.26,1,0,2.6,0Zm-3.56,1.65v1.3h3.81v-1.3Zm3.81,2.79h-3.81v1.32h3.81Zm-.84,13.44c-.22,0-.24,0-.24-.26s0-.73,0-4v-1.94c0-1.94,0-2.6,0-2.75s0-.24.24-.24.68,0,2.35,0h3c1.67,0,2.2,0,2.35,0s.24,0,.24.24,0,.79,0,2.38v2.18c0,3.19,0,3.78,0,3.89s0,.24-.24.24h-1.58c-.22,0-.24,0-.24-.24v-.68h-4v.9c0,.24,0,.26-.26.26Zm1.83-6h4v-1.47h-4Zm4,3.12v-1.54h-4v1.54Zm7.24-2.88c0,1.54.09,3.3.09,4.38a2.39,2.39,0,0,1-.64,2c-.46.42-1.08.59-3.15.59-.66,0-.66,0-.79-.68a6.93,6.93,0,0,0-.53-1.61,15.19,15.19,0,0,0,1.85.11c.73,0,.9-.2.9-.86v-8.78h-3.61c-1.72,0-2.29,0-2.42,0s-.24,0-.24-.26,0-.64,0-1.94v-3c0-1.28,0-1.8,0-1.94s0-.26.24-.26.7,0,2.42,0h3.23c1.72,0,2.31,0,2.44,0s.24,0,.24.26,0,1,0,2.9Zm-6.34-10.52v1.3h4.07v-1.3Zm4.07,4.11v-1.32h-4.07v1.32Z"/><path class="cls-3" d="M396.07,314.48a3.19,3.19,0,1,1-3.19-3.17A3.17,3.17,0,0,1,396.07,314.48Zm-5,0a1.83,1.83,0,1,0,1.83-1.83A1.79,1.79,0,0,0,391.05,314.48Z"/><path class="cls-3" d="M2.2,411C2,411,2,411,2,410.74s0-1.06,0-6v-3.5c0-3.48,0-4.45,0-4.58s0-.24.24-.24.66,0,2.22,0H7c1.56,0,2.07,0,2.22,0s.24,0,.24.24,0,1.06,0,3.94v3.79c0,4.66,0,5.54,0,5.68s0,.24-.24.24H7.55c-.24,0-.26,0-.26-.24V409H4.16v1.72c0,.22,0,.22-.26.22Zm2-12.48v3.21H7.28v-3.21ZM7.28,407v-3.34H4.16V407ZM20,409.53c0,1,0,2.16,0,3a2.12,2.12,0,0,1-.64,1.8c-.51.44-1.39.57-2.95.57-.68,0-.68,0-.84-.68a5.86,5.86,0,0,0-.62-1.65c.75.07,1.47.09,1.89.09.68,0,.86-.2.86-.77V407.7H13.27a10.18,10.18,0,0,1-3.92,7.06c-.26.22-.4.33-.53.33s-.24-.13-.48-.4A5.9,5.9,0,0,0,7,413.6c3.34-2.42,4.38-4.36,4.38-11.75v-2.71c0-1.94,0-2.93,0-3.08s0-.24.26-.24.7,0,2.46,0h3.28c1.74,0,2.33,0,2.46,0s.26,0,.26.24,0,1.14,0,3.08Zm-2.25-3.85v-2.88H13.64c0,1.06-.07,2-.13,2.88Zm-4.14-7.75v2.84h4.14v-2.84Z"/><path class="cls-3" d="M28.4,414.85c-.22,0-.24,0-.24-.24s0-1.45,0-7.83v-4.25c0-4.27,0-5.61,0-5.74s0-.26.24-.26.9,0,3,0H39c2.13,0,2.9,0,3,0s.24,0,.24.26,0,1.47,0,5.08v4.88c0,6.31,0,7.61,0,7.75s0,.24-.24.24h-2c-.22,0-.24,0-.24-.24v-1.08H30.6v1.19c0,.22,0,.24-.24.24Zm2.2-11.09h9.22v-5H30.6Zm9.22,7.48v-5.32H30.6v5.32Z"/><path class="cls-3" d="M60.81,400a27.53,27.53,0,0,1-2.75,9.48C57.11,411.11,56,412,54.32,412c-1.94,0-3.89-2.07-3.89-5.65a8.1,8.1,0,0,1,2.49-5.72,9.63,9.63,0,0,1,7.15-2.82c5.28,0,8.38,3.26,8.38,7.63,0,4.09-2.31,6.67-6.78,8-.46.13-.66,0-.95-.4a4.68,4.68,0,0,0-1.54-1.39c3.72-.88,6.64-2.42,6.64-6.58A5,5,0,0,0,60.9,400Zm-6.31,2.13a6.33,6.33,0,0,0-1.72,4.07c0,2,.81,3.15,1.5,3.15s1.06-.29,1.65-1.34a25.13,25.13,0,0,0,2.33-7.88A6.63,6.63,0,0,0,54.49,402.11Z"/><path class="cls-3" d="M81.09,403.56A9.79,9.79,0,0,1,87.41,401a5.23,5.23,0,0,1,5.48,5.59c0,3.39-2.07,5.72-5.85,7.08a.84.84,0,0,1-.37.09.72.72,0,0,1-.57-.31A6.49,6.49,0,0,0,84.35,412a10.12,10.12,0,0,0,4.42-2.18,4.25,4.25,0,0,0,1.5-3.32A3.08,3.08,0,0,0,87,403.08c-2,0-3.74,1-5.9,2.82,0,2.82.09,5.48.13,8.45a.25.25,0,0,1-.29.26c-.24,0-1.23.09-2,.09-.2,0-.26-.09-.24-.31,0-2.24.07-4.55.11-6.8-1.06,1.58-2.16,3.19-3,4.36-.11.13-.2.22-.31.22a.38.38,0,0,1-.24-.13A15.09,15.09,0,0,1,74,410.72a.31.31,0,0,1-.13-.24.38.38,0,0,1,.13-.26c1.94-2.35,3.19-3.92,4.84-6.18,0-.55,0-1.14,0-1.56-.64.2-1.67.51-2.51.81-.37.15-.59.37-.73.37s-.31-.13-.44-.4a18.9,18.9,0,0,1-.88-1.94,10.61,10.61,0,0,0,1.5-.22c.57-.13,1.43-.33,3.12-.79,0-.95,0-1.91,0-2.86a8,8,0,0,0-.22-1.91,16.69,16.69,0,0,1,2.55.37c.46.13.55.37.4.77a3.71,3.71,0,0,0-.22.95c0,.53-.07,1-.11,2l.18-.07a.4.4,0,0,1,.15,0c.15,0,.4.22.59.51s.35.53.35.68,0,.24-.37.62-.64.81-1.17,1.58Z"/><path class="cls-3" d="M109.58,399c.24-.07.33,0,.35.22.07.48.13,1.12.15,1.58,0,.29,0,.35-.33.42a35.32,35.32,0,0,1-3.83.84c-1.5,4.88-2.62,8.25-4,11.9-.11.31-.24.29-.48.22s-1.3-.55-1.76-.81a.35.35,0,0,1-.18-.44,82.64,82.64,0,0,0,3.81-10.43c-1.28.13-2.82.24-3.85.24-.33,0-.42-.07-.46-.35-.09-.46-.2-1.21-.31-2a10.11,10.11,0,0,0,1.63.07,29.89,29.89,0,0,0,3.56-.22c.22-.88.4-1.85.55-2.75a15.16,15.16,0,0,0,.13-2,12.86,12.86,0,0,1,2.77.62.37.37,0,0,1,.24.35.53.53,0,0,1-.11.35,4.22,4.22,0,0,0-.46.88c-.22.79-.37,1.54-.53,2.09C107.32,399.56,108.51,399.27,109.58,399Zm-.86,10.52c.22,0,.31.09.33.31.18,1.61,1.25,2.07,3.37,2.07a33.08,33.08,0,0,0,3.7-.31c.18,0,.24,0,.26.2a13.75,13.75,0,0,1,.18,1.91c0,.26,0,.33-.35.35a26.08,26.08,0,0,1-3,.24c-2.88,0-4.38-.4-5.37-1.43a4.29,4.29,0,0,1-1-3A11.22,11.22,0,0,1,108.73,409.48Zm-.24-5.83c0-.31.07-.37.4-.44a23.05,23.05,0,0,1,4.29-.51,15.94,15.94,0,0,1,2.58.22c.31,0,.37.07.37.33a15.43,15.43,0,0,1,0,1.76c0,.37-.11.46-.42.4a14.68,14.68,0,0,0-2.73-.26,24.35,24.35,0,0,0-4.42.51C108.53,404.89,108.48,404.09,108.48,403.65Z"/><path class="cls-3" d="M129.62,396.5c.38.09.53.2.53.42a2.14,2.14,0,0,1-.22.73,13.16,13.16,0,0,0-.31,2.68c-.22,3.39-.33,5.63-.33,8.51,0,2.22.26,2.73,2,2.73,2,0,5-1.19,7.7-4a7.62,7.62,0,0,0,.51,2.09,1.46,1.46,0,0,1,.18.53c0,.2-.09.37-.44.68a12.57,12.57,0,0,1-8.34,3.3c-2.82,0-4.14-1.12-4.14-4.49,0-3.7.2-6.87.31-9.51a14.63,14.63,0,0,0-.22-4A22.85,22.85,0,0,1,129.62,396.5Z"/><path class="cls-3" d="M148.24,404.29c.73-.57,2.31-1.94,3.94-3.41a2.77,2.77,0,0,1,1.91-.92,2.63,2.63,0,0,1,1.91.81c1.65,1.32,2.6,2.2,4.75,3.79a50.65,50.65,0,0,0,5.19,3.23c.22.09.33.26.22.46a9.23,9.23,0,0,1-1.08,2.07c-.11.15-.2.22-.29.22a.52.52,0,0,1-.31-.11c-1.06-.62-3.45-2.38-4.75-3.39-1.58-1.19-3.17-2.6-4.62-3.89a1.41,1.41,0,0,0-1-.51c-.24,0-.46.2-.75.46-1.08,1.08-2.66,2.6-3.7,3.63a5.49,5.49,0,0,0-.79,1,.47.47,0,0,1-.4.26.58.58,0,0,1-.42-.2,20.29,20.29,0,0,1-1.8-2.29A7.54,7.54,0,0,0,148.24,404.29Z"/><path class="cls-3" d="M181.81,400a27.53,27.53,0,0,1-2.75,9.48c-.95,1.65-2.09,2.53-3.74,2.53-1.94,0-3.89-2.07-3.89-5.65a8.1,8.1,0,0,1,2.49-5.72,9.63,9.63,0,0,1,7.15-2.82c5.28,0,8.38,3.26,8.38,7.63,0,4.09-2.31,6.67-6.78,8-.46.13-.66,0-.95-.4a4.68,4.68,0,0,0-1.54-1.39c3.72-.88,6.64-2.42,6.64-6.58A5,5,0,0,0,181.9,400Zm-6.31,2.13a6.33,6.33,0,0,0-1.72,4.07c0,2,.81,3.15,1.5,3.15s1.06-.29,1.65-1.34a25.13,25.13,0,0,0,2.33-7.88A6.63,6.63,0,0,0,175.49,402.11Z"/><path class="cls-3" d="M197.71,409c0-.77,0-1.87.07-2.75-.55.53-1.1,1-1.69,1.52-.22.18-.35.29-.46.29s-.2-.13-.31-.46a4.76,4.76,0,0,0-.79-1.56,20.49,20.49,0,0,0,4.58-4.8,11.16,11.16,0,0,0,.59-1.14,13.34,13.34,0,0,1,1.65,1.08c.2.18.26.26.26.4a.33.33,0,0,1-.15.24,1.52,1.52,0,0,0-.46.51c-.33.48-.66,1-1,1.43v8.49c0,1.76,0,2.6,0,2.71s0,.24-.24.24h-1.87c-.22,0-.24,0-.24-.24s0-.95,0-2.71Zm3.72-12.92c.2.15.31.24.31.4s-.13.24-.33.35a3.22,3.22,0,0,0-.59.62,21.68,21.68,0,0,1-4.25,3.76,1,1,0,0,1-.48.22c-.15,0-.24-.15-.42-.51a5.2,5.2,0,0,0-1-1.36A17.53,17.53,0,0,0,199,396a6.13,6.13,0,0,0,.64-1A10.34,10.34,0,0,1,201.43,396.08Zm3.83,7.81c-2.09,0-2.82,0-3,0s-.24,0-.24-.24V402c0-.22,0-.24.24-.24s.88,0,3,0h6.29c2.09,0,2.82,0,2.93,0s.24,0,.24.24v1.74c0,.22,0,.24-.24.24s-.84,0-2.93,0h-.46v4.16c0,2,.07,3.19.07,4.16a2.44,2.44,0,0,1-.75,2.2c-.48.42-1.32.51-3.48.53-.7,0-.7,0-.86-.68a5.57,5.57,0,0,0-.66-1.69c.9.07,1.56.09,2.38.09s1-.15,1-.7v-8.05Zm.88-5.43c-1.94,0-2.6,0-2.71,0s-.24,0-.24-.24V396.5c0-.22,0-.24.24-.24s.77,0,2.71,0h4.58c2,0,2.6,0,2.73,0s.26,0,.26.24v1.76c0,.22,0,.24-.26.24s-.77,0-2.73,0Z"/><path class="cls-3" d="M225.52,411.68c1.19-.13,2.44-.31,3.74-.53a9.15,9.15,0,0,0-.2,1l-.07.4a12.43,12.43,0,0,0,2.51-4.93,30.18,30.18,0,0,0,.73-5.61l-1.89,0c-.24,0-.26,0-.26-.24v-1.61c0-.22,0-.24.26-.24s.62,0,2,0c0-.57,0-1.14,0-1.76a21.81,21.81,0,0,0-.15-3.1c.79,0,1.43.07,2.2.15.22,0,.33.11.33.24a1.7,1.7,0,0,1-.13.53,9.41,9.41,0,0,0-.13,2.24c0,.59,0,1.14,0,1.69h1.25c1.69,0,2.27,0,2.4,0s.26,0,.26.26c0,.75,0,1.39,0,2.09a67.3,67.3,0,0,1-.64,10.08,2.51,2.51,0,0,1-2.79,2.42c-.46,0-.84,0-1.21,0s-.51,0-.57-.77a5,5,0,0,0-.44-1.47,11.88,11.88,0,0,0,1.83.18c.66,0,1-.35,1.19-1.39a62.66,62.66,0,0,0,.55-9.31h-1.85a38.69,38.69,0,0,1-.81,6.31,14,14,0,0,1-3.26,6.27c-.22.22-.35.33-.46.33s-.22-.11-.42-.31a4.09,4.09,0,0,0-1.41-1.06c.24-.22.48-.44.7-.68a1.7,1.7,0,0,1-.42.09c-2.33.46-5.19.88-7.68,1.14a3.49,3.49,0,0,0-.81.15.86.86,0,0,1-.37.13c-.13,0-.24-.13-.31-.37-.13-.57-.26-1.28-.37-1.94a20.12,20.12,0,0,0,2.31,0c.77,0,1.61-.09,2.49-.18v-1.28h-1.3c-1.92,0-2.55,0-2.68,0s-.24,0-.24-.22v-1.32c0-.22,0-.24.24-.24s.77,0,2.68,0h1.3V408h-.88c-1.87,0-2.51,0-2.64,0s-.26,0-.26-.24,0-.66,0-1.83v-2.35c0-1.19,0-1.69,0-1.8s0-.24.26-.24.77,0,2.64,0h.88v-1h-1.63c-2,0-2.66,0-2.79,0s-.24,0-.24-.24v-1.3c0-.22,0-.24.24-.24s.81,0,2.79,0h1.63v-1c-.95.09-1.89.18-2.84.22-.62,0-.64,0-.81-.48a4.43,4.43,0,0,0-.68-1.19,42.16,42.16,0,0,0,7.79-.84,8,8,0,0,0,1.21-.37,9.57,9.57,0,0,1,1.25,1.21.54.54,0,0,1,.18.4c0,.13-.18.22-.46.22a6.4,6.4,0,0,0-1,.15c-.88.18-1.76.33-2.66.44v1.23h1.28c2,0,2.64,0,2.77,0s.22,0,.22.24v1.3c0,.22,0,.24-.18.24s-.86,0-2.82,0h-1.28v1h.95c1.85,0,2.49,0,2.64,0s.24,0,.24.24,0,.62,0,1.8V406c0,1.17,0,1.69,0,1.83s0,.24-.24.24-.79,0-2.64,0h-.95v.95h.81c1.89,0,2.55,0,2.68,0s.24,0,.24.24v1.32c0,.2,0,.22-.24.22s-.79,0-2.68,0h-.81Zm-2-7.55V403h-1.83v1.14Zm0,2.44v-1.17h-1.83v1.17Zm2-3.59v1.14h1.91V403Zm1.91,2.42h-1.91v1.17h1.91Z"/><path class="cls-3" d="M246.4,414.39c-2,0-2.66,0-2.79,0s-.24,0-.24-.24v-1.72c0-.2,0-.22.24-.22s.81,0,2.79,0h13.27c2,0,2.66,0,2.79,0s.24,0,.24.22v1.72c0,.22,0,.24-.24.24s-.81,0-2.79,0Zm12.7-17.47c2,0,2.75,0,2.9,0s.24,0,.24.22,0,.53,0,1.14v.92c0,1.91,0,2.24,0,2.38s0,.24-.24.24h-1.8c-.22,0-.24,0-.24-.24v-2.71H246v2.71c0,.22,0,.24-.24.24h-1.8c-.22,0-.24,0-.24-.24s0-.46,0-2.38v-.77c0-.77,0-1.14,0-1.3s0-.22.24-.22.88,0,2.91,0h4.84v-.15a8.31,8.31,0,0,0-.15-1.83,21.15,21.15,0,0,1,2.35.13c.22,0,.33.11.33.22a1.62,1.62,0,0,1-.11.44,3,3,0,0,0-.11,1v.15Zm-3,6.49c2.07,0,2.79,0,2.93,0s.26,0,.26.22,0,.7,0,2v3.17c0,1.32,0,1.87,0,2s0,.24-.26.24-.86,0-2.93,0h-6.27c-2.07,0-2.77,0-2.93,0s-.24,0-.24-.24,0-.68,0-2v-3.17c0-1.34,0-1.91,0-2s0-.22.24-.22.86,0,2.93,0ZM250,402.13c-2.07,0-2.77,0-2.91,0s-.24,0-.24-.24v-1.52c0-.22,0-.24.24-.24s.84,0,2.91,0h6c2.07,0,2.77,0,2.9,0s.24,0,.24.24v1.52c0,.22,0,.24-.24.24s-.84,0-2.9,0Zm-1,3v1.19H257v-1.19ZM257,408H249v1.23H257Z"/><path class="cls-3" d="M270.45,401c-1.94,0-2.62,0-2.75,0s-.24,0-.24-.24v-1.67c0-.22,0-.24.24-.24s.81,0,2.75,0H284c1.94,0,2.62,0,2.75,0s.24,0,.24.24v1.67c0,.22,0,.24-.24.24s-.81,0-2.75,0Zm0,14.15c-.24,0-.26,0-.26-.24s0-.62,0-3.15v-1.23c0-1.28,0-1.78,0-1.89s0-.26.26-.26.9,0,3,0h7.42c2.16,0,2.9,0,3.06,0s.24,0,.24.26,0,.62,0,1.61v1.45c0,2.49,0,3,0,3.1s0,.24-.24.24h-1.83c-.24,0-.26,0-.26-.24v-.64h-9.35v.75c0,.22,0,.24-.26.24Zm3.1-17.43c-2.13,0-2.88,0-3,0s-.24,0-.24-.24v-1.5c0-.24,0-.26.24-.26s.88,0,3,0h7.33c2.13,0,2.88,0,3,0s.24,0,.24.26v1.5c0,.22,0,.24-.24.24s-.88,0-3,0Zm.31,6.38c-2.11,0-2.84,0-3,0s-.24,0-.24-.24v-1.47c0-.2,0-.22.24-.22s.86,0,3,0h6.71c2.11,0,2.84,0,3,0s.26,0,.26.22v1.47c0,.22,0,.24-.26.24s-.86,0-3,0Zm0,3.08c-2.11,0-2.84,0-3,0s-.24,0-.24-.24v-1.45c0-.22,0-.24.24-.24s.86,0,3,0h6.71c2.11,0,2.84,0,3,0s.26,0,.26.24V407c0,.22,0,.24-.26.24s-.86,0-3,0Zm-1.34,5.1h9.35v-2h-9.35Z"/><path class="cls-3" d="M303.78,410.3c0,.24-.13.35-.42.4a11.91,11.91,0,0,1-1.56.11c-.2,0-.29-.13-.29-.35,0-.79,0-1.89,0-2.68-2,1-2.66,1.87-2.66,2.93s.75,1.52,3.06,1.52a37.58,37.58,0,0,0,5.48-.44c.2,0,.29,0,.31.24a9.9,9.9,0,0,1,.2,1.8c0,.26-.07.42-.24.42a39.26,39.26,0,0,1-5.46.29c-3.61,0-5.52-1.08-5.52-3.63,0-2.11,1.32-3.65,4.64-5.37C301.27,404.4,301,404,300,404a5.31,5.31,0,0,0-3,1.58,29.62,29.62,0,0,0-2.2,2.4c-.11.13-.18.2-.26.2a.44.44,0,0,1-.24-.15,10.54,10.54,0,0,1-1.25-1.45.35.35,0,0,1-.09-.2c0-.09,0-.15.15-.24a22.52,22.52,0,0,0,4.6-5.46c-1,0-2.22.07-3.52.07-.2,0-.26-.11-.31-.35s-.15-1.17-.22-1.83a48.6,48.6,0,0,0,5.06,0,16.89,16.89,0,0,0,.66-1.89,5.36,5.36,0,0,0,.15-1.34,13.78,13.78,0,0,1,2.51.62.4.4,0,0,1,.26.37.43.43,0,0,1-.15.33,1.71,1.71,0,0,0-.37.53c-.13.31-.24.59-.51,1.19a35.56,35.56,0,0,0,4-.68c.24,0,.31,0,.35.22a7.42,7.42,0,0,1,.22,1.58c0,.22-.07.31-.37.35-1.65.24-3.54.48-5.15.66a22.77,22.77,0,0,1-1.65,2.44l0,0a4.37,4.37,0,0,1,2.2-.68,2.43,2.43,0,0,1,2.68,2.38c.86-.4,2.11-1,3.24-1.54a6.62,6.62,0,0,0,1.67-1.19,13.6,13.6,0,0,1,1.54,1.94.87.87,0,0,1,.18.48c0,.18-.11.26-.33.31a7,7,0,0,0-1.34.33c-1.43.51-2.86,1-4.73,1.76Z"/><path class="cls-3" d="M332.25,399.19a12.25,12.25,0,0,1,1.43.81c.15.11.22.18.22.31s-.09.18-.22.24a1.9,1.9,0,0,0-.48.33,14.51,14.51,0,0,1-1.76,1.36,2.18,2.18,0,0,0,1.52.66c.46,0,.75-.37.88-1.69a4.55,4.55,0,0,0,1.21.64c.4.15.46.22.4.66-.26,1.54-1,2.31-2.24,2.31a5.14,5.14,0,0,1-3.59-1.54,19.82,19.82,0,0,1-4.14,1.39c-.64.15-.64.15-.9-.46a6.46,6.46,0,0,0-.62-1.12,19.47,19.47,0,0,0,4.4-1.25,11.59,11.59,0,0,1-1.14-2c-1.87.26-2.31.35-2.53.4s-.24,0-.26-.22l-.13-1.25a3.2,3.2,0,0,0-.44.75c-.15.35-.22.51-.37.51s-.26-.11-.53-.31-.33-.24-.48-.35v1.21c0,.22,0,.24-.22.24s-.33,0-1.19,0h-.9c-.81,0-1,0-1.14,0s-.24,0-.24-.24v-1a17.23,17.23,0,0,1-2.09,1.74,1.22,1.22,0,0,1-.48.22c-.13,0-.2-.18-.35-.55a5.2,5.2,0,0,0-.64-1.36A11.44,11.44,0,0,0,319,396a3.87,3.87,0,0,0,.53-1.1c.68.09,1.52.24,2,.33.22,0,.35.15.35.29s-.07.24-.31.37a8,8,0,0,0,2.86,2.42c.2,0,.59,0,2.07-.2l-.13-.48a16,16,0,0,1-.42-1.58c-.09-.37-.18-.68-.26-.95.7,0,1.41,0,2,0,.42,0,.59.11.59.29s-.11.33-.11.55a3.17,3.17,0,0,0,.13.79,7.72,7.72,0,0,0,.29,1.06l3.21-.44c1.69-.24,2.35-.35,2.62-.4s.24,0,.26.2l.15,1.34c0,.22,0,.24-.22.26Zm-1.8,5.39c.2-.18.22-.18.46,0a13.69,13.69,0,0,1,1.54,1c.15.11.13.2-.11.42l-.68.59.46-.07c1.69-.24,2.4-.37,2.62-.42s.24,0,.26.2l.18,1.43c0,.24,0,.26-.22.29l-2.62.37-2.84.4a10.82,10.82,0,0,0,.84,1.67q.43-.33.86-.73a5.29,5.29,0,0,0,1.06-1.3,15.17,15.17,0,0,1,1.61.86c.15.09.26.18.26.31s-.09.22-.24.29a2.74,2.74,0,0,0-.68.59,18.45,18.45,0,0,1-1.72,1.52,2.85,2.85,0,0,0,1.87,1.12c.44,0,.7-.4.86-2a5.41,5.41,0,0,0,1.17.7c.57.29.57.29.46.88-.31,1.78-1.06,2.42-2.18,2.42a5.05,5.05,0,0,1-3.92-2,20.55,20.55,0,0,1-5,1.94c-.59.15-.64.15-.88-.42a4.65,4.65,0,0,0-.68-1.21c-.26,0-.77,0-1.83,0h-2.57c0,1,0,1.5,0,1.58s0,.24-.24.24H317c-.22,0-.24,0-.24-.24s0-1,0-2.88v-7.33c0-1.91,0-2.79,0-2.95s0-.22.24-.22.86,0,2.29,0h2.2c1.17,0,1.67,0,1.8,0s.24,0,.24.22,0,.7,0,1.94V406c0,1.21,0,1.78,0,1.92s0,.24-.24.24-.64,0-1.8,0h-2.66v1h2.57c1.45,0,1.89,0,2,0s.26,0,.26.24v1.23c0,.24,0,.26-.26.26s-.57,0-2,0h-2.57v1h2.57c1.47,0,1.91,0,2,0s.26,0,.26.24v1.25a17.91,17.91,0,0,0,4.86-1.67,12.55,12.55,0,0,1-1.17-2.53l-2.86.44c-.2,0-.22,0-.26-.22l-.24-1.45c0-.22,0-.22.22-.24s.84-.09,2.62-.33c-.09-.33-.15-.68-.22-1.06s-.22-1-.35-1.45a19.23,19.23,0,0,1,2,0c.42,0,.57.13.57.29a3.51,3.51,0,0,1-.09.46,2.41,2.41,0,0,0,0,.88l.13.57,2.18-.31a12,12,0,0,0-1.43-1.06c-.18-.11-.18-.2,0-.37Zm-11.62-1.43v1h2.75v-1Zm2.75,2.44h-2.75v1h2.75Zm-.53-6.36c.86,0,1.06,0,1.23,0a9.19,9.19,0,0,1-1.69-1.76,17.79,17.79,0,0,1-1.45,1.78c.15,0,.42,0,1,0Zm8.25.35a7.7,7.7,0,0,0,.86,1.34,8.08,8.08,0,0,0,1.34-1,3.63,3.63,0,0,0,.68-.75Zm1.19-4.42c.26-.22.26-.22.53-.07a15.45,15.45,0,0,1,1.61,1c.2.15.18.2,0,.4l-.88.79c-.2.15-.24.15-.48-.07a11,11,0,0,0-1.56-1.14c-.18-.11-.18-.15,0-.31Z"/><path class="cls-3" d="M352.7,394.83a15.5,15.5,0,0,0,0,20.55L352,416c-3.65-3.23-5.24-6.62-5.24-10.89s1.61-7.63,5.24-10.89Z"/><path class="cls-3" d="M367.31,397.07c.24.13.33.26.33.44a1.13,1.13,0,0,1-.15.48,4.45,4.45,0,0,0-.4,1.21,43.72,43.72,0,0,0-1.1,8c0,.88,0,1.89.07,2.82.44-1,.9-2,1.36-3.06a5.87,5.87,0,0,0,.77,1.39.47.47,0,0,1,.13.31.64.64,0,0,1-.13.35,13,13,0,0,0-1.12,3.34,4.15,4.15,0,0,0,0,1.17c0,.15-.07.22-.26.29a9.27,9.27,0,0,1-1.65.38c-.24.07-.33,0-.44-.26a20.49,20.49,0,0,1-.95-6.71,47.85,47.85,0,0,1,.9-8.34,11.07,11.07,0,0,0,.15-2.6A17.16,17.16,0,0,1,367.31,397.07Zm7.57,5.88a44.69,44.69,0,0,1-4.53,0c-.29,0-.37-.07-.4-.29a13.5,13.5,0,0,1-.15-2,31.77,31.77,0,0,0,5,.07c0-.79,0-1.5,0-2.31a9,9,0,0,0-.29-2.16,12.28,12.28,0,0,1,2.66.42c.24.07.4.18.4.37a.94.94,0,0,1-.13.37,2.47,2.47,0,0,0-.18.77c0,.75,0,1.32,0,2.33,1-.09,2.18-.24,3.13-.4.26-.07.31,0,.35.26a8.71,8.71,0,0,1,.13,1.56c0,.2-.09.31-.24.33a24.89,24.89,0,0,1-3.39.46c0,2.46,0,4,.15,5.9a14.43,14.43,0,0,1,3.65,2.11c.2.13.22.2.11.44a11.93,11.93,0,0,1-1,1.69.27.27,0,0,1-.2.13.3.3,0,0,1-.2-.11,13.09,13.09,0,0,0-2.38-1.76c-.18,1.85-1.43,2.86-4,2.86s-3.94-1.19-3.94-3.08,1.63-3.1,3.85-3.1A9.14,9.14,0,0,1,375,408C374.93,406.29,374.9,404.69,374.88,402.95Zm-1.78,6.84c-1,0-1.65.37-1.65,1.06s.48,1.1,1.78,1.1c1.1,0,1.8-.64,1.8-1.43a3,3,0,0,0,0-.44A6.14,6.14,0,0,0,373.1,409.79Z"/><path class="cls-3" d="M397.12,398.88c.2-.07.29-.07.33.18a12,12,0,0,1,.2,1.78c0,.2-.09.24-.26.26-1.19.24-2.27.4-3.63.59a60.82,60.82,0,0,1-4.29,9.44c-.09.15-.15.22-.24.22a.61.61,0,0,1-.26-.11,10.39,10.39,0,0,1-1.52-1.12c-.11-.09-.15-.15-.15-.24a.42.42,0,0,1,.11-.26,44.41,44.41,0,0,0,3.81-7.68c-.84,0-1.52,0-2.2,0-.48,0-.66,0-1.21,0-.22,0-.26-.07-.31-.35a11.57,11.57,0,0,1-.22-1.87c.9.07,1.41.09,2,.09.86,0,1.52,0,2.53-.11.26-.92.42-1.67.57-2.46a8.52,8.52,0,0,0,.13-1.78,20.47,20.47,0,0,1,2.58.46c.22,0,.35.18.35.33a.54.54,0,0,1-.2.42,2.42,2.42,0,0,0-.35.81c-.15.53-.33,1.21-.53,1.87A23.57,23.57,0,0,0,397.12,398.88Zm.62,5.9a7.78,7.78,0,0,0-.18-1.56,11.85,11.85,0,0,1,2.4.42.34.34,0,0,1,.31.35,2.75,2.75,0,0,1-.13.46,2.28,2.28,0,0,0-.09.9,28.77,28.77,0,0,0,.24,3.74,17.23,17.23,0,0,1,4,2c.22.15.24.24.13.46a13.56,13.56,0,0,1-1,1.78c-.07.11-.13.15-.2.15s-.13,0-.22-.13a16.4,16.4,0,0,0-2.68-1.85c0,2.2-1.58,3.21-4.09,3.21s-4-1.23-4-3.12,1.58-3.21,4.07-3.21a11.32,11.32,0,0,1,1.74.13C397.81,407.15,397.76,405.81,397.74,404.77Zm-1.56,5.54c-1.1,0-2,.44-2,1.28s.62,1.06,1.87,1.06S398,412,398,411.09a2.6,2.6,0,0,0,0-.44A5.62,5.62,0,0,0,396.18,410.32Zm4.09-10.58c.13-.22.24-.24.46-.15a17.16,17.16,0,0,1,4.31,2.07c.13.09.2.15.2.24a.53.53,0,0,1-.09.26,13.37,13.37,0,0,1-.92,1.63c-.07.11-.13.15-.2.15a.31.31,0,0,1-.2-.09,19,19,0,0,0-4.55-2.4C399.65,400.79,400,400.13,400.27,399.74Z"/><path class="cls-3" d="M415.65,397.36a5.77,5.77,0,0,0-.26-1.8,14.37,14.37,0,0,1,2.62.37c.29.07.46.2.46.37a1.05,1.05,0,0,1-.18.51,1.85,1.85,0,0,0-.18.75c0,.42,0,.77,0,1.47,1-.15,2-.33,3-.59.37-.09.4,0,.42.26a13,13,0,0,1,.11,1.58c0,.26-.09.31-.26.35a30.83,30.83,0,0,1-3.41.59c-.07,1.58-.09,2.42-.13,4a4.6,4.6,0,0,1,.2,1.47,3.78,3.78,0,0,1-1.06,2.86,2.75,2.75,0,0,0-.31,1.32c0,.86.44,1.43,2.88,1.43,3.34,0,5.06-.84,5.06-2.6a9.24,9.24,0,0,0-.46-2.91,7.46,7.46,0,0,0,2.22.64.54.54,0,0,1,.44.4,8.55,8.55,0,0,1,.33,2.42c0,2.77-2.22,4.33-7.28,4.33-3.89,0-5.57-1-5.57-3.12a4.39,4.39,0,0,1,.22-1.45,1.64,1.64,0,0,1-.35,0,2.91,2.91,0,0,1-2.64-3.17,3.18,3.18,0,0,1,2.93-3.45,3.24,3.24,0,0,1,1.17.18c0-.73,0-1.41,0-2.13-1.39.07-2.6.07-3.67,0-.2,0-.26-.09-.29-.33-.07-.44-.13-1.08-.2-1.85a32.22,32.22,0,0,0,4.16,0Zm-2.24,9.33c0,.92.46,1.47,1.28,1.45s1.14-.64,1.12-1.61a1.18,1.18,0,0,0-1.19-1.34C413.82,405.19,413.4,405.81,413.4,406.69Zm11.84-6.86a.33.33,0,0,1,.46-.09,14,14,0,0,1,4.16,3,.3.3,0,0,1,.11.22.47.47,0,0,1-.11.24,11,11,0,0,1-1.25,1.52.34.34,0,0,1-.24.13c-.07,0-.15-.07-.24-.18a13.5,13.5,0,0,0-4.29-3.32C424.38,400.73,424.93,400.13,425.24,399.82Z"/><path class="cls-3" d="M440.31,412.85c0,.15-.07.22-.29.31a5.49,5.49,0,0,1-1.52.46c-.26,0-.37,0-.51-.29a18.82,18.82,0,0,1-1.3-6.82,50.18,50.18,0,0,1,.66-7,23.81,23.81,0,0,0,.24-3.28,10.79,10.79,0,0,1,2.31.77c.35.18.48.33.48.48a.79.79,0,0,1-.13.44,12.66,12.66,0,0,0-.42,1.63,41,41,0,0,0-.84,6.6,18.73,18.73,0,0,0,.22,3.48c.55-1.17.95-1.91,1.47-3.15a6.32,6.32,0,0,0,.73,1.47.66.66,0,0,1,.2.42,1.65,1.65,0,0,1-.26.73,16.54,16.54,0,0,0-1,2.68,2.69,2.69,0,0,0-.07.57Zm7.61-10c-1.17.09-2,.13-2.64.13-.46,0-1,0-1.85,0-.31,0-.48-.11-.51-.35-.09-.44-.13-1-.24-2,.81.09,1.91.11,2.73.11.62,0,1.65,0,2.44-.09,0-1.1,0-2.09-.13-2.93a6.87,6.87,0,0,0-.37-1.8,13.37,13.37,0,0,1,2.84.31c.24.07.35.18.35.35a.89.89,0,0,1-.15.44,2.67,2.67,0,0,0-.11.92v2.44c.95-.13,1.89-.29,2.82-.48.26-.07.37,0,.4.2.09.55.13,1.08.18,1.65,0,.29-.09.37-.29.4-1.06.2-2,.33-3,.44l0,3.39a11.48,11.48,0,0,1-1,5.1,7.75,7.75,0,0,1-3.15,3.41,1,1,0,0,1-.55.2.46.46,0,0,1-.44-.2,7.26,7.26,0,0,0-1.72-1.08,7.14,7.14,0,0,0,3.72-3.65,12.16,12.16,0,0,0,.68-4.91Z"/><path class="cls-3" d="M464.27,394.21c3.61,3.26,5.21,6.67,5.21,10.89s-1.58,7.66-5.21,10.89l-.68-.62a15.5,15.5,0,0,0,0-20.55Z"/><path class="cls-3" d="M486.09,397.51c.37.2.51.33.51.53s0,.22-.33.66a5.21,5.21,0,0,0-.53,1.56,35.64,35.64,0,0,0-.92,7.11,21.25,21.25,0,0,0,.13,2.57c.46-1,.86-1.74,1.5-3.28a5.71,5.71,0,0,0,.77,1.39.87.87,0,0,1,.15.33.61.61,0,0,1-.11.35,21.5,21.5,0,0,0-1.25,3.32,2.49,2.49,0,0,0-.07.68c0,.26,0,.44,0,.62s-.09.24-.29.29a10.93,10.93,0,0,1-1.8.35c-.15,0-.24-.09-.29-.24a20.62,20.62,0,0,1-1-6.56,42,42,0,0,1,.75-7.22,17.74,17.74,0,0,0,.4-3.28A9.72,9.72,0,0,1,486.09,397.51Zm4.71,10.36c.18,0,.22.09.22.33.13,1.52,1.19,2.07,3.59,2.07a31.59,31.59,0,0,0,4.2-.29c.22,0,.26,0,.31.29a16.21,16.21,0,0,1,.13,1.89c0,.26,0,.29-.37.33a29.56,29.56,0,0,1-3.59.24c-3.26,0-4.77-.53-5.72-1.83a4.84,4.84,0,0,1-.77-2.86Zm-1.23-8.23c0-.26.09-.33.31-.37a35.27,35.27,0,0,1,4.77-.4c1.32,0,2.33,0,3.26.13.46,0,.51.07.51.29,0,.66,0,1.25,0,1.87,0,.2-.09.29-.29.26-1.32-.09-2.46-.13-3.59-.13a26.9,26.9,0,0,0-5,.51C489.52,400.57,489.52,400,489.57,399.65Z"/><path class="cls-3" d="M506.09,409.64a.47.47,0,0,1,.33-.18.45.45,0,0,1,.29.13,16.38,16.38,0,0,1,4.38,4c.13.18.15.24.15.33s0,.2-.22.35l-1.34,1.14c-.15.13-.24.2-.31.2s-.2,0-.31-.22a16.42,16.42,0,0,0-4.16-4.2c-.13-.09-.2-.15-.2-.22s0-.13.15-.26Z"/><path class="cls-3" d="M3,448.54H4.6v3H1.5v-3l1.61-3.43H4.49Zm4.33,0H8.93v3H5.83v-3l1.61-3.43H8.82Z"/><path class="cls-3" d="M27.92,450.5H20.24a30.34,30.34,0,0,0-3.3.13c-.24,0-.33-.11-.33-.37-.07-.59-.11-1.63-.11-2.35a31.29,31.29,0,0,0,3.67.15h6.54c1.14,0,2.31,0,3.48-.09.35,0,.46.09.44.37,0,1.17,0,2.31,0,3.48v5.26c0,1.61.07,3.37.09,4,0,.22-.09.29-.4.31a14.22,14.22,0,0,1-1.94,0c-.35,0-.42,0-.42-.37v-.88H20.35c-1.39,0-2.55.07-3.61.09-.2,0-.29-.09-.31-.33a21,21,0,0,1-.11-2.29c1,.07,2.31.11,4,.11h7.55Z"/><path class="cls-3" d="M52.12,450.5H44.44a30.31,30.31,0,0,0-3.3.13c-.24,0-.33-.11-.33-.37-.07-.59-.11-1.63-.11-2.35a31.31,31.31,0,0,0,3.67.15h6.54c1.14,0,2.31,0,3.48-.09.35,0,.46.09.44.37,0,1.17,0,2.31,0,3.48v5.26c0,1.61.07,3.37.09,4,0,.22-.09.29-.4.31a14.24,14.24,0,0,1-1.94,0c-.35,0-.42,0-.42-.37v-.88H44.55c-1.39,0-2.55.07-3.61.09-.2,0-.29-.09-.31-.33a20.74,20.74,0,0,1-.11-2.29c1,.07,2.31.11,4,.11h7.55Z"/><path class="cls-3" d="M70.11,449.66c.09-1.08.13-1.78.15-3a8.47,8.47,0,0,0-.15-1.74,17.35,17.35,0,0,1,2.86.46.45.45,0,0,1,.37.46,1,1,0,0,1-.11.42,2,2,0,0,0-.29,1c-.07.71-.09,1.23-.2,2.31H76.1c1,0,2,0,3.06,0,.35,0,.46.07.46.31s0,1.17-.09,2.33a37.59,37.59,0,0,1-.81,7.24c-.44,1.69-1.19,2.62-2.6,3a9.25,9.25,0,0,1-2.22.24.53.53,0,0,1-.53-.44,4.61,4.61,0,0,0-1.28-2,9,9,0,0,0,3-.2c.59-.2.88-.55,1.14-1.54a30.87,30.87,0,0,0,.66-6.6H72.45a16.37,16.37,0,0,1-2,6.09,14.19,14.19,0,0,1-4.66,4.53,1,1,0,0,1-.51.18.57.57,0,0,1-.42-.22,5.6,5.6,0,0,0-1.85-1.28,12.25,12.25,0,0,0,5.17-4.49A12.81,12.81,0,0,0,69.81,452h-2c-1.08,0-2.13,0-3.17.11-.22,0-.31-.11-.33-.37-.09-.53-.13-1.32-.18-2.13,1.39.09,2.38.09,3.65.09Z"/><path class="cls-3" d="M92.62,452.81c-1.1,0-2.2,0-3.3.09-.2,0-.29-.13-.33-.42a16.77,16.77,0,0,1-.24-2.22,39,39,0,0,0,4,.18h7.55a2.43,2.43,0,0,0,1.17-.24.47.47,0,0,1,.29-.13.57.57,0,0,1,.33.15,13,13,0,0,1,1.47,1.36.65.65,0,0,1,.22.46.53.53,0,0,1-.24.42,2.53,2.53,0,0,0-.75,1,19.23,19.23,0,0,1-9,9.73,1.06,1.06,0,0,1-.44.15.72.72,0,0,1-.48-.26,6.46,6.46,0,0,0-2-1.14c4.07-1.89,7.66-4.93,9.24-9.18Zm1.47-4.73c-1,0-2.09,0-3,.09-.22,0-.29-.13-.31-.48a19.32,19.32,0,0,1-.11-2.11,30.37,30.37,0,0,0,3.61.15h4c1.43,0,2.6-.07,3.46-.11.2,0,.26.11.26.35a11.18,11.18,0,0,1,0,1.72c0,.37-.07.46-.4.44-.73,0-1.76,0-3.1,0Z"/><path class="cls-3" d="M114,448.41l-1.61,3.43H111l1.45-3.43h-1.56v-3H114Zm4.33,0-1.61,3.43h-1.39l1.45-3.43h-1.56v-3h3.1Z"/><path class="cls-3" d="M143.42,445.08c.26.09.4.22.4.4a.48.48,0,0,1-.11.35,1.71,1.71,0,0,0-.31.79c-.07.4-.11.73-.18,1.1a42.44,42.44,0,0,0,5.72-.92c.26-.07.33,0,.37.22a6.87,6.87,0,0,1,.22,1.5c0,.29-.22.4-.46.44a46.7,46.7,0,0,1-6.25.92c-.09.92-.13,1.45-.15,2.22a13.23,13.23,0,0,1,3.37-.48,5.42,5.42,0,0,0,.37-1.61,8.87,8.87,0,0,1,2,.81c.26.18.4.35.4.48a.38.38,0,0,1-.13.26,1.94,1.94,0,0,0-.29.44c2.84.75,4.51,2.62,4.51,5.37,0,3.19-2.62,5.26-6.12,6.21-.48.13-.73.07-1-.42a5.58,5.58,0,0,0-1.3-1.36,12.67,12.67,0,0,0,4.09-1.61,3.79,3.79,0,0,0,1.76-3.3,3.28,3.28,0,0,0-2.73-3.19,23.27,23.27,0,0,1-4.16,5.76,6.69,6.69,0,0,0,.4,1c.13.29,0,.4-.18.55a7,7,0,0,1-1.32.77c-.22.11-.31.11-.44-.11a4.35,4.35,0,0,1-.37-.86,6.92,6.92,0,0,1-3.83,1.58c-1.5,0-2.44-1-2.44-2.73,0-2.82,2.44-5.5,5.15-6.84,0-.95.07-1.91.11-2.75-1.3,0-1.89,0-2.27,0a8.77,8.77,0,0,1-1.25,0c-.24,0-.37-.13-.4-.51s-.07-1.06-.11-1.67a33.59,33.59,0,0,0,4.27.09c.09-.79.18-1.78.18-2.4a5.14,5.14,0,0,0-.09-1A12.11,12.11,0,0,1,143.42,445.08Zm-5.85,14.13a.75.75,0,0,0,.73.84,4.72,4.72,0,0,0,2.55-1.28,28.58,28.58,0,0,1-.44-3.79C138.71,456.2,137.57,457.78,137.57,459.21Zm7.81-5.72a10.38,10.38,0,0,0-2.82.51,23.52,23.52,0,0,0,.26,3.3A20.18,20.18,0,0,0,145.38,453.49Z"/><path class="cls-3" d="M169.33,447.88c.2-.07.29-.07.33.18a11.82,11.82,0,0,1,.2,1.78c0,.2-.09.24-.26.26-1.19.24-2.27.4-3.63.59a60.82,60.82,0,0,1-4.29,9.44c-.09.15-.15.22-.24.22a.61.61,0,0,1-.26-.11,10.38,10.38,0,0,1-1.52-1.12c-.11-.09-.15-.15-.15-.24a.42.42,0,0,1,.11-.26,44.41,44.41,0,0,0,3.81-7.68c-.84,0-1.52,0-2.2,0-.48,0-.66,0-1.21,0-.22,0-.26-.07-.31-.35a11.45,11.45,0,0,1-.22-1.87c.9.07,1.41.09,2,.09.86,0,1.52,0,2.53-.11.26-.92.42-1.67.57-2.46a8.52,8.52,0,0,0,.13-1.78,20.42,20.42,0,0,1,2.57.46c.22,0,.35.18.35.33a.54.54,0,0,1-.2.42,2.42,2.42,0,0,0-.35.81c-.15.53-.33,1.21-.53,1.87A23.56,23.56,0,0,0,169.33,447.88Zm.62,5.9a7.71,7.71,0,0,0-.18-1.56,11.86,11.86,0,0,1,2.4.42.34.34,0,0,1,.31.35,2.75,2.75,0,0,1-.13.46,2.3,2.3,0,0,0-.09.9,28.78,28.78,0,0,0,.24,3.74,17.27,17.27,0,0,1,4,2c.22.15.24.24.13.46a13.56,13.56,0,0,1-1,1.78c-.07.11-.13.15-.2.15s-.13,0-.22-.13a16.36,16.36,0,0,0-2.68-1.85c0,2.2-1.58,3.21-4.09,3.21s-4-1.23-4-3.12,1.58-3.21,4.07-3.21a11.32,11.32,0,0,1,1.74.13C170,456.15,170,454.81,170,453.77Zm-1.56,5.54c-1.1,0-2,.44-2,1.28s.62,1.06,1.87,1.06,1.92-.64,1.92-1.56a2.49,2.49,0,0,0,0-.44A5.61,5.61,0,0,0,168.39,459.32Zm4.09-10.58c.13-.22.24-.24.46-.15a17.16,17.16,0,0,1,4.31,2.07c.13.09.2.15.2.24a.52.52,0,0,1-.09.26,13.36,13.36,0,0,1-.92,1.63c-.07.11-.13.15-.2.15a.31.31,0,0,1-.2-.09,19,19,0,0,0-4.55-2.4C171.86,449.79,172.19,449.13,172.48,448.74Z"/><path class="cls-3" d="M194.24,448c.24-.07.33,0,.35.22.07.48.13,1.12.15,1.58,0,.29,0,.35-.33.42a35.28,35.28,0,0,1-3.83.84c-1.5,4.88-2.62,8.25-4,11.9-.11.31-.24.29-.48.22s-1.3-.55-1.76-.81a.35.35,0,0,1-.18-.44,82.63,82.63,0,0,0,3.81-10.43c-1.28.13-2.82.24-3.85.24-.33,0-.42-.07-.46-.35-.09-.46-.2-1.21-.31-2a10.09,10.09,0,0,0,1.63.07,29.87,29.87,0,0,0,3.56-.22c.22-.88.4-1.85.55-2.75a15.16,15.16,0,0,0,.13-2A12.86,12.86,0,0,1,192,445a.37.37,0,0,1,.24.35.53.53,0,0,1-.11.35,4.18,4.18,0,0,0-.46.88c-.22.79-.37,1.54-.53,2.09C192,448.56,193.16,448.27,194.24,448Zm-.86,10.52c.22,0,.31.09.33.31.18,1.61,1.25,2.07,3.37,2.07a33,33,0,0,0,3.7-.31c.18,0,.24,0,.26.2a13.75,13.75,0,0,1,.18,1.91c0,.26,0,.33-.35.35a26.06,26.06,0,0,1-3,.24c-2.88,0-4.38-.4-5.37-1.43a4.29,4.29,0,0,1-1-3A11.22,11.22,0,0,1,193.38,458.48Zm-.24-5.83c0-.31.07-.37.4-.44a23.06,23.06,0,0,1,4.29-.51,15.92,15.92,0,0,1,2.57.22c.31,0,.37.07.37.33a15.65,15.65,0,0,1,0,1.76c0,.37-.11.46-.42.4a14.69,14.69,0,0,0-2.73-.26,24.34,24.34,0,0,0-4.42.51C193.18,453.89,193.14,453.09,193.14,452.65Z"/><path class="cls-3" d="M218.07,449a27.53,27.53,0,0,1-2.75,9.48c-.95,1.65-2.09,2.53-3.74,2.53-1.94,0-3.89-2.07-3.89-5.65a8.11,8.11,0,0,1,2.49-5.72,9.63,9.63,0,0,1,7.15-2.82c5.28,0,8.38,3.26,8.38,7.63,0,4.09-2.31,6.67-6.78,8-.46.13-.66,0-.95-.4a4.68,4.68,0,0,0-1.54-1.39c3.72-.88,6.64-2.42,6.64-6.58a5,5,0,0,0-4.93-5.11Zm-6.32,2.13a6.34,6.34,0,0,0-1.72,4.07c0,2,.81,3.15,1.5,3.15s1.06-.29,1.65-1.34a25.15,25.15,0,0,0,2.33-7.88A6.63,6.63,0,0,0,211.75,451.11Z"/><path class="cls-3" d="M234.43,454.76c-2,0-2.68,0-2.82,0s-.24,0-.24-.24v-1.69c0-.22,0-.24.24-.24s.84,0,2.82,0h5.08v-3.12h-3.15c-2.13,0-2.9,0-3,0s-.22,0-.22-.24v-1.74c0-.22,0-.24.22-.24s.9,0,3,0h3.15v-.77a12.88,12.88,0,0,0-.15-2.62c.81,0,1.67.07,2.42.15.22,0,.35.13.35.24s-.13.4-.15.57a7.65,7.65,0,0,0-.11,1.61v.81h3.52c2.13,0,2.9,0,3,0s.22,0,.22.24v1.74c0,.22,0,.24-.22.24s-.9,0-3,0h-3.52v3.13h5.41c2,0,2.68,0,2.82,0s.26,0,.26.24v1.69c0,.22,0,.24-.26.24s-.81,0-2.82,0h-4.4a20.38,20.38,0,0,0,8.29,6.07,6.22,6.22,0,0,0-1.14,1.61c-.15.37-.24.51-.37.51a1.63,1.63,0,0,1-.53-.22,20,20,0,0,1-7.33-6.51c0,3.26.11,6.65.11,7.72,0,.22,0,.24-.24.24h-2c-.22,0-.24,0-.24-.24,0-1,.11-4.45.13-7.68a20.85,20.85,0,0,1-7,6.42,1.22,1.22,0,0,1-.51.24c-.13,0-.22-.15-.4-.53a5.38,5.38,0,0,0-1.06-1.52,18.61,18.61,0,0,0,7.66-6.12Z"/><path class="cls-3" d="M258.48,455.87c-2,0-2.66,0-2.79,0s-.24,0-.24-.26V454c0-.22,0-.24.24-.24s.81,0,2.79,0h5.28v-4.71h-4c-2.11,0-2.82,0-2.95,0s-.24,0-.24-.24v-1.63c0-.22,0-.24.24-.24s.84,0,2.95,0h4v-.46a14.39,14.39,0,0,0-.15-2.6c.79,0,1.61.07,2.38.15.22,0,.31.13.31.22a2.79,2.79,0,0,1-.13.62,7.33,7.33,0,0,0-.11,1.58v.48h4.38c2.11,0,2.82,0,2.95,0s.26,0,.26.24v1.63c0,.22,0,.24-.26.24s-.84,0-2.95,0H266v4.71h1.39a18.47,18.47,0,0,0,1.45-3,5.9,5.9,0,0,0,.35-1.17,20.63,20.63,0,0,1,2.22.55c.26.09.35.2.35.35a.3.3,0,0,1-.2.29,2.4,2.4,0,0,0-.55.79c-.42.73-.81,1.41-1.32,2.18h1.89c2,0,2.66,0,2.79,0s.24,0,.24.24v1.61c0,.24,0,.26-.24.26s-.81,0-2.79,0h-4.2a20.35,20.35,0,0,0,7.9,5.3,6.22,6.22,0,0,0-1.14,1.61c-.18.4-.24.55-.4.55a1.58,1.58,0,0,1-.51-.22,19.42,19.42,0,0,1-7.31-6.2c0,3.19.11,6.27.11,7.08,0,.22,0,.24-.24.24h-1.91c-.22,0-.24,0-.24-.24,0-.86.09-3.85.11-7a19.11,19.11,0,0,1-6.87,6,1.65,1.65,0,0,1-.53.22c-.15,0-.22-.15-.42-.53a5.69,5.69,0,0,0-1-1.45,18,18,0,0,0,7.33-5.41Zm1.47-6.1c.24-.09.31-.09.44.11a16.35,16.35,0,0,1,1.39,2.71c.09.22,0,.26-.22.35l-1.58.59c-.29.11-.33.09-.42-.13a13.46,13.46,0,0,0-1.32-2.71c-.13-.22-.09-.29.18-.37Z"/><path class="cls-3" d="M291.63,459.3c0,.24-.13.35-.42.4a11.91,11.91,0,0,1-1.56.11c-.2,0-.29-.13-.29-.35,0-.79,0-1.89,0-2.68-2,1-2.66,1.87-2.66,2.93s.75,1.52,3.06,1.52a37.58,37.58,0,0,0,5.48-.44c.2,0,.29,0,.31.24a9.9,9.9,0,0,1,.2,1.8c0,.26-.07.42-.24.42a39.26,39.26,0,0,1-5.46.29c-3.61,0-5.52-1.08-5.52-3.63,0-2.11,1.32-3.65,4.64-5.37-.07-1.12-.33-1.56-1.32-1.52a5.31,5.31,0,0,0-3,1.58,29.62,29.62,0,0,0-2.2,2.4c-.11.13-.18.2-.26.2a.44.44,0,0,1-.24-.15,10.54,10.54,0,0,1-1.25-1.45.35.35,0,0,1-.09-.2c0-.09,0-.15.15-.24a22.52,22.52,0,0,0,4.6-5.46c-1,0-2.22.07-3.52.07-.2,0-.26-.11-.31-.35s-.15-1.17-.22-1.83a48.6,48.6,0,0,0,5.06,0,16.89,16.89,0,0,0,.66-1.89,5.36,5.36,0,0,0,.15-1.34,13.78,13.78,0,0,1,2.51.62.4.4,0,0,1,.26.37.43.43,0,0,1-.15.33,1.71,1.71,0,0,0-.37.53c-.13.31-.24.59-.51,1.19a35.56,35.56,0,0,0,4-.68c.24,0,.31,0,.35.22a7.42,7.42,0,0,1,.22,1.58c0,.22-.07.31-.37.35-1.65.24-3.54.48-5.15.66a22.76,22.76,0,0,1-1.65,2.44l0,0a4.37,4.37,0,0,1,2.2-.68,2.43,2.43,0,0,1,2.68,2.38c.86-.4,2.11-1,3.24-1.54a6.62,6.62,0,0,0,1.67-1.19,13.6,13.6,0,0,1,1.54,1.94.87.87,0,0,1,.18.48c0,.18-.11.26-.33.31a7,7,0,0,0-1.34.33c-1.43.51-2.86,1-4.73,1.76Z"/><path class="cls-3" d="M316.12,447.17a3.23,3.23,0,0,0,1.52-.2.36.36,0,0,1,.24-.09.73.73,0,0,1,.37.18,8.06,8.06,0,0,1,1.43,1.54.59.59,0,0,1,.11.29.61.61,0,0,1-.29.44,4.06,4.06,0,0,0-.81,1,34.88,34.88,0,0,1-2.82,4.12,51.71,51.71,0,0,1,6.09,5.32.5.5,0,0,1,.18.31.55.55,0,0,1-.15.33,11.86,11.86,0,0,1-1.47,1.5.38.38,0,0,1-.26.13.45.45,0,0,1-.31-.18,40.08,40.08,0,0,0-5.72-5.46,31.63,31.63,0,0,1-7.39,5.81,1.39,1.39,0,0,1-.51.18.49.49,0,0,1-.37-.2,6,6,0,0,0-1.85-1.43A27.44,27.44,0,0,0,316,449.59l-5.68,0c-1.14,0-2.29,0-3.48.13-.18,0-.24-.13-.29-.37a12.79,12.79,0,0,1-.2-2.29c1.19.09,2.29.09,3.72.09Z"/><path class="cls-3" d="M341.79,447.83a2.16,2.16,0,0,0,1.21-.33.64.64,0,0,1,.37-.15.76.76,0,0,1,.4.18,7.17,7.17,0,0,1,1.5,1.34.54.54,0,0,1,.18.4.56.56,0,0,1-.24.42,2.76,2.76,0,0,0-.66.84,34.38,34.38,0,0,1-3.23,5.32,19.51,19.51,0,0,1,2.38,2.22.43.43,0,0,1,.13.31.42.42,0,0,1-.13.29,13.45,13.45,0,0,1-1.36,1.39.46.46,0,0,1-.26.11.38.38,0,0,1-.24-.13,24.27,24.27,0,0,0-2.13-2.13,26.81,26.81,0,0,1-7,5.5,1.2,1.2,0,0,1-.55.2.66.66,0,0,1-.42-.2,6.26,6.26,0,0,0-2.09-1.12,26.67,26.67,0,0,0,8.1-6,18.4,18.4,0,0,0-3.17-2.07c.48-.53.95-1.1,1.45-1.56a.42.42,0,0,1,.29-.15.57.57,0,0,1,.22.09,22.06,22.06,0,0,1,2.84,1.76A21.16,21.16,0,0,0,341.9,450l-5.46.11a26.6,26.6,0,0,1-4.71,5,.79.79,0,0,1-.44.2.5.5,0,0,1-.35-.15,9.16,9.16,0,0,0-1.85-1,24.56,24.56,0,0,0,6.23-6.91,8.11,8.11,0,0,0,1.19-2.71,13.8,13.8,0,0,1,2.57,1.08.38.38,0,0,1,.24.35.59.59,0,0,1-.26.44,1.83,1.83,0,0,0-.46.46c-.18.31-.31.53-.68,1.1Z"/><path class="cls-3" d="M357.24,455.67a17.63,17.63,0,0,0-3.23.26c-.26,0-.44-.13-.51-.46a23.76,23.76,0,0,1-.33-2.66,28.31,28.31,0,0,0,4.75.26H365c1.67,0,3.37,0,5.06-.07.33,0,.4,0,.4.31a16.24,16.24,0,0,1,0,2.07c0,.26-.09.35-.4.33-1.65,0-3.28,0-4.91,0Z"/><path class="cls-3" d="M385.33,451.16a31,31,0,0,1,7,3c.24.13.35.29.24.57a12.85,12.85,0,0,1-.95,1.91c-.09.15-.18.24-.29.24a.33.33,0,0,1-.24-.11,24.41,24.41,0,0,0-5.79-2.82v4.86c0,1.43,0,2.73.09,4.31,0,.26-.09.33-.4.33a14.56,14.56,0,0,1-2,0c-.31,0-.42-.07-.42-.33.07-1.63.09-2.93.09-4.33V448a16.78,16.78,0,0,0-.22-3.26,16.3,16.3,0,0,1,2.75.35c.31.07.42.2.42.37a1.15,1.15,0,0,1-.18.51,5.72,5.72,0,0,0-.15,2.07Z"/><path class="cls-3" d="M407.88,445.5c.37.09.53.2.53.42a2.12,2.12,0,0,1-.22.73,13.28,13.28,0,0,0-.31,2.68c-.22,3.39-.33,5.63-.33,8.51,0,2.22.26,2.73,2,2.73,2,0,5-1.19,7.7-4a7.66,7.66,0,0,0,.51,2.09,1.44,1.44,0,0,1,.18.53c0,.2-.09.37-.44.68a12.57,12.57,0,0,1-8.34,3.3c-2.82,0-4.14-1.12-4.14-4.49,0-3.7.2-6.87.31-9.51a14.63,14.63,0,0,0-.22-4A22.88,22.88,0,0,1,407.88,445.5Z"/><path class="cls-3" d="M440.31,449a.18.18,0,0,1,.26.13,15.5,15.5,0,0,1,.53,1.87c0,.24,0,.29-.18.33a33,33,0,0,1-5.57,1c0,1.78.15,3,.37,5.08a25.85,25.85,0,0,1,6.38,2.84c.15.09.18.2.09.37a9.83,9.83,0,0,1-1.17,1.85c-.13.13-.2.2-.37.07a20.6,20.6,0,0,0-4.88-2.77,4.34,4.34,0,0,1,0,.51c-.09,1.89-1.5,3.3-4.45,3.3-2.71,0-4.69-1.21-4.69-3.23s2.09-3.37,4.82-3.37a15.46,15.46,0,0,1,1.85.07c-.26-2.88-.33-5-.37-7.06,0-.79,0-1.91-.07-3a6.5,6.5,0,0,0-.31-2,20.2,20.2,0,0,1,2.82.4c.24.07.35.2.35.37a.65.65,0,0,1-.11.33,2.71,2.71,0,0,0-.26,1.19c0,.66,0,1.63,0,2.77A21.27,21.27,0,0,0,440.31,449Zm-7,10.17a10.26,10.26,0,0,0-2-.22c-1.54,0-2.53.51-2.53,1.3s.88,1.12,2.27,1.12c1.65,0,2.38-1,2.31-1.89Z"/><path class="cls-3" d="M454.56,450.87a15.78,15.78,0,0,1,5-1.1c2.95,0,4.64,2,4.64,5.24a8.63,8.63,0,0,1-1.78,5.26,12.43,12.43,0,0,1-4.25,3.5,1,1,0,0,1-.37.11.71.71,0,0,1-.53-.29,5.43,5.43,0,0,0-1.83-1.17,12,12,0,0,0,4.84-3.67,6.44,6.44,0,0,0,1.21-3.89c0-1.83-.77-2.77-2-2.77A7.36,7.36,0,0,0,456,453a10.47,10.47,0,0,0-1.87,1.06.8.8,0,0,1-.48.22c-.29,0-.48-.29-.62-.48a15.06,15.06,0,0,1-1.12-2.31A11.44,11.44,0,0,0,454.56,450.87Zm8-5.06a.31.31,0,0,1,.29.4,17.65,17.65,0,0,1-.48,1.94c-.07.22-.13.33-.31.31a29.08,29.08,0,0,1-6.38-1.69c-.11,0-.22-.15-.15-.44a10.41,10.41,0,0,1,.66-2.07A27.6,27.6,0,0,0,462.6,445.81Z"/><path class="cls-3" d="M479.12,461.48a3.19,3.19,0,1,1-3.19-3.17A3.17,3.17,0,0,1,479.12,461.48Zm-5,0a1.83,1.83,0,1,0,1.83-1.83A1.8,1.8,0,0,0,474.1,461.48Z"/></g></svg>