<svg xmlns="http://www.w3.org/2000/svg" viewBox="0 0 183.22 29.89"><defs><style>.cls-1{fill:#ffc832;}</style></defs><title>アセット 134</title><g id="レイヤー_2" data-name="レイヤー 2"><g id="オブジェクト"><path class="cls-1" d="M8.7.29a7.23,7.23,0,0,1,5.13,1.83,6.12,6.12,0,0,1,2,4.71,6.05,6.05,0,0,1-2,4.72,7.53,7.53,0,0,1-5.27,1.81H4.35V22.8H0V.29ZM7.62,10a4.2,4.2,0,0,0,2.72-.8,2.87,2.87,0,0,0,1-2.36q0-3.1-4-3.11h-3V10Z"/><path class="cls-1" d="M34,.29a7.55,7.55,0,0,1,5.17,1.76,5.8,5.8,0,0,1,2,4.57,5.73,5.73,0,0,1-1,3.35,6.53,6.53,0,0,1-2.95,2.24,6.7,6.7,0,0,1,1.92,1.58,20.48,20.48,0,0,1,2.08,3.37q2.07,4.1,3.06,5.64H39.42a27.19,27.19,0,0,1-1.35-2.37,52.75,52.75,0,0,0-2.74-4.84,6.56,6.56,0,0,0-1.68-1.77,3.29,3.29,0,0,0-1.85-.53H30.22V22.8H25.87V.29Zm-1,9.6A4,4,0,0,0,35.68,9a3,3,0,0,0,1-2.34,2.75,2.75,0,0,0-1-2.31,4.33,4.33,0,0,0-2.75-.76H30.22V9.89Z"/><path class="cls-1" d="M64.44,0a13.52,13.52,0,0,1,6.29,1.44A11.06,11.06,0,0,1,75.18,5.6a11.15,11.15,0,0,1,1.66,6A11.33,11.33,0,0,1,70.78,21.6a13.52,13.52,0,0,1-6.38,1.49,13.32,13.32,0,0,1-6.35-1.51A11.36,11.36,0,0,1,53.59,5.74,11.05,11.05,0,0,1,58,1.51,13.36,13.36,0,0,1,64.44,0ZM56.49,11.55a8,8,0,0,0,1,4,7,7,0,0,0,2.83,2.77,8.38,8.38,0,0,0,4.1,1,7.82,7.82,0,0,0,5.69-2.18,7.48,7.48,0,0,0,2.23-5.61,8.09,8.09,0,0,0-1-4,6.91,6.91,0,0,0-2.84-2.78,8.51,8.51,0,0,0-4.12-1,8.39,8.39,0,0,0-4.11,1,6.82,6.82,0,0,0-2.81,2.77A8.13,8.13,0,0,0,56.49,11.55Z"/><path class="cls-1" d="M93.62.29V22a8.34,8.34,0,0,1-1.94,5.77,6.49,6.49,0,0,1-5.12,2.17h-.43l-.42,0L85.4,26.1q3.87,0,3.87-4.52V.29Z"/><path class="cls-1" d="M123.13.29v3.4h-10.2V9.6h9.76V13h-9.76v6.4h10.42v3.4H108.58V.29Z"/><path class="cls-1" d="M145.83,0a16.23,16.23,0,0,1,3.75.44,18.76,18.76,0,0,1,4,1.48V6a18.44,18.44,0,0,0-3.84-1.72A12.51,12.51,0,0,0,146,3.75a9.28,9.28,0,0,0-4.34,1,7.29,7.29,0,0,0-3,2.79,7.67,7.67,0,0,0-1.07,4,7.75,7.75,0,0,0,1.06,4,7.16,7.16,0,0,0,3,2.76,9.53,9.53,0,0,0,4.35,1,11.59,11.59,0,0,0,3.54-.54,25.64,25.64,0,0,0,4.24-1.91V21a19.56,19.56,0,0,1-4,1.63,17,17,0,0,1-4.28.48,13.86,13.86,0,0,1-6.37-1.42,10.51,10.51,0,0,1-4.4-4.08,11.14,11.14,0,0,1-1.61-5.84,11.51,11.51,0,0,1,1.65-6.11,11.11,11.11,0,0,1,4.55-4.17A14.19,14.19,0,0,1,145.83,0Z"/><path class="cls-1" d="M183.22.29v3.4h-8V22.8h-4.34V3.69h-8V.29Z"/></g></g></svg>