<svg xmlns="http://www.w3.org/2000/svg" viewBox="0 0 196.54 23.09"><defs><style>.cls-1{fill:#ffc832;}</style></defs><title>アセット 152</title><g id="レイヤー_2" data-name="レイヤー 2"><g id="オブジェクト"><path class="cls-1" d="M7.69,0A13.22,13.22,0,0,1,14,1.64V5.51A12.36,12.36,0,0,0,7.81,3.4,4.41,4.41,0,0,0,5.25,4a2,2,0,0,0-.93,1.7c0,.85.57,1.63,1.72,2.35.32.21,1.57.82,3.72,1.8a10.75,10.75,0,0,1,4,2.9A6.13,6.13,0,0,1,15,16.63a5.87,5.87,0,0,1-2.09,4.68,8,8,0,0,1-5.41,1.78,13,13,0,0,1-3.71-.47A16.42,16.42,0,0,1,.29,21V16.69c2.41,2,4.67,3,6.8,3A4.42,4.42,0,0,0,9.67,19a2.16,2.16,0,0,0,1-1.84,2.89,2.89,0,0,0-1.71-2.54C8,14.1,6.78,13.48,5.29,12.76a10.65,10.65,0,0,1-4-2.82A5.76,5.76,0,0,1,0,6.2,5.49,5.49,0,0,1,2.11,1.68,8.71,8.71,0,0,1,7.69,0Z"/><path class="cls-1" d="M37.39.29a7.24,7.24,0,0,1,5.13,1.83,6.12,6.12,0,0,1,2,4.71,6.05,6.05,0,0,1-2,4.72,7.53,7.53,0,0,1-5.27,1.81H33V22.8H28.69V.29ZM36.31,10A4.17,4.17,0,0,0,39,9.16,2.87,2.87,0,0,0,40,6.8q0-3.1-4-3.11H33V10Z"/><path class="cls-1" d="M66.1,0a13.55,13.55,0,0,1,6.29,1.44A11.06,11.06,0,0,1,76.84,5.6a11.15,11.15,0,0,1,1.66,6A11.33,11.33,0,0,1,72.44,21.6a13.52,13.52,0,0,1-6.38,1.49,13.32,13.32,0,0,1-6.35-1.51A11.36,11.36,0,0,1,55.25,5.74a11.05,11.05,0,0,1,4.4-4.23A13.36,13.36,0,0,1,66.1,0ZM58.15,11.55a8,8,0,0,0,1,4A7,7,0,0,0,62,18.35a8.38,8.38,0,0,0,4.1,1,7.82,7.82,0,0,0,5.69-2.18A7.48,7.48,0,0,0,74,11.55a8.09,8.09,0,0,0-1-4,6.91,6.91,0,0,0-2.84-2.78,8.51,8.51,0,0,0-4.12-1,8.39,8.39,0,0,0-4.11,1,6.82,6.82,0,0,0-2.81,2.77A8.13,8.13,0,0,0,58.15,11.55Z"/><path class="cls-1" d="M93,.29,106.37,16V.29h4.26V22.8h-3.74l-13.46-16v16H89.18V.29Z"/><path class="cls-1" d="M134,0a16.29,16.29,0,0,1,3.75.44,18.76,18.76,0,0,1,4,1.48V6a18.44,18.44,0,0,0-3.84-1.72,12.51,12.51,0,0,0-3.68-.54,9.28,9.28,0,0,0-4.34,1,7.23,7.23,0,0,0-3,2.79,7.67,7.67,0,0,0-1.07,4,7.75,7.75,0,0,0,1.06,4,7.16,7.16,0,0,0,3,2.76,9.53,9.53,0,0,0,4.35,1,11.48,11.48,0,0,0,3.53-.54A25.32,25.32,0,0,0,142,16.89V21a19.56,19.56,0,0,1-4,1.63,17,17,0,0,1-4.28.48,13.86,13.86,0,0,1-6.37-1.42,10.51,10.51,0,0,1-4.4-4.08,11.14,11.14,0,0,1-1.61-5.84,11.51,11.51,0,0,1,1.65-6.11,11,11,0,0,1,4.55-4.17A14.19,14.19,0,0,1,134,0Z"/><path class="cls-1" d="M167.25.29v3.4h-10.2V9.6h9.77V13h-9.77v6.4h10.43v3.4H152.7V.29Z"/><path class="cls-1" d="M186.24.29a7.58,7.58,0,0,1,5.18,1.76,5.79,5.79,0,0,1,2,4.57,5.73,5.73,0,0,1-1,3.35,6.49,6.49,0,0,1-2.94,2.24,6.7,6.7,0,0,1,1.92,1.58,20.48,20.48,0,0,1,2.08,3.37q2.06,4.1,3.06,5.64h-4.85a27.19,27.19,0,0,1-1.35-2.37,52.75,52.75,0,0,0-2.74-4.84,6.56,6.56,0,0,0-1.68-1.77,3.31,3.31,0,0,0-1.85-.53h-1.58V22.8h-4.35V.29Zm-1,9.6A3.92,3.92,0,0,0,187.94,9a3,3,0,0,0,1-2.34,2.75,2.75,0,0,0-1-2.31,4.33,4.33,0,0,0-2.75-.76h-2.71V9.89Z"/></g></g></svg>