<svg xmlns="http://www.w3.org/2000/svg" viewBox="0 0 316.44 20.83"><defs><style>.cls-1{fill:#422610;}</style></defs><title>アセット 8</title><g id="レイヤー_2" data-name="レイヤー 2"><path class="cls-1" d="M9.34,2.64a6.93,6.93,0,0,0-.26-1.59,22.1,22.1,0,0,1,2.54.3c.37.07.61.22.61.41a.92.92,0,0,1-.2.5,2.24,2.24,0,0,0-.17.63c0,.28,0,.56,0,1.39,2.35-.09,4.58-.11,6.67-.11.26,0,.3,0,.33.33,0,.54,0,1.11,0,1.65,0,.24-.11.3-.37.28-2.26-.07-4.37-.07-6.63,0,0,1.33,0,2.72,0,4a6.77,6.77,0,0,1,.33,2.15,8.11,8.11,0,0,1-3.87,7,2.07,2.07,0,0,1-.85.41,1.23,1.23,0,0,1-.65-.33,4.84,4.84,0,0,0-1.65-.87A7.26,7.26,0,0,0,9.6,14.05a2.51,2.51,0,0,1-2,.87,3,3,0,0,1-3-3.32A3.17,3.17,0,0,1,7.82,8.34a2.66,2.66,0,0,1,1.65.43c0-.76,0-1.5,0-2.22-2.74.15-5.8.41-7.52.65-.48.06-.83.26-1,.26s-.3-.09-.37-.3A15.22,15.22,0,0,1,0,5a14.34,14.34,0,0,0,2.65-.09C4,4.77,6.78,4.6,9.39,4.45,9.37,3.77,9.37,3.23,9.34,2.64Zm-2.78,8.8A1.35,1.35,0,0,0,8,12.92a1.4,1.4,0,0,0,1.48-1.5A1.3,1.3,0,0,0,8,10,1.38,1.38,0,0,0,6.56,11.44Z"/><path class="cls-1" d="M25.49,10.12c.72-.56,2.28-1.91,3.89-3.37a2.74,2.74,0,0,1,1.89-.91,2.6,2.6,0,0,1,1.89.8c1.63,1.3,2.56,2.17,4.69,3.74A50.16,50.16,0,0,0,43,13.57c.22.09.33.26.22.46a9.16,9.16,0,0,1-1.06,2c-.11.15-.2.22-.28.22a.51.51,0,0,1-.3-.11c-1-.61-3.41-2.35-4.69-3.35-1.56-1.17-3.13-2.56-4.56-3.85a1.39,1.39,0,0,0-1-.5c-.24,0-.46.2-.74.46C29.53,10,28,11.51,26.94,12.53a5.36,5.36,0,0,0-.78,1,.47.47,0,0,1-.39.26.57.57,0,0,1-.41-.2,20.06,20.06,0,0,1-1.78-2.26A7.45,7.45,0,0,0,25.49,10.12ZM37.61,4c.11-.09.2-.06.33,0A10,10,0,0,1,40,6.34a.22.22,0,0,1-.07.35L39,7.36a.23.23,0,0,1-.37-.06,10.78,10.78,0,0,0-2.19-2.52Zm1.93-1.41c.13-.09.2-.07.33,0a9.06,9.06,0,0,1,2.06,2.24.25.25,0,0,1-.06.39L41,5.9a.22.22,0,0,1-.37-.06,10.27,10.27,0,0,0-2.17-2.5Z"/><path class="cls-1" d="M58.79,5.53c-2.65.5-5,1-7.3,1.43-.83.2-1,.24-1.37.35a1.27,1.27,0,0,1-.48.17.51.51,0,0,1-.41-.33,15.15,15.15,0,0,1-.8-2.35,30,30,0,0,0,3.46-.37c2.67-.39,7.45-1.11,13.06-1.85.33,0,.43.09.46.24a12.36,12.36,0,0,1,.24,1.91c0,.26-.13.33-.41.33a9.7,9.7,0,0,0-2.65.48C58.88,6.81,57,9.36,57,12c0,2.8,2,4.32,5.78,4.56.35,0,.48.09.48.33a7.72,7.72,0,0,1-.24,1.87c-.06.33-.15.46-.41.46-3.82,0-8-2.19-8-6.71,0-3.09,1.54-5.17,4.17-6.89Z"/><path class="cls-1" d="M82.54,5.36a27.21,27.21,0,0,1-2.72,9.37c-.93,1.63-2.06,2.5-3.69,2.5-1.91,0-3.85-2-3.85-5.58A8,8,0,0,1,74.74,6,9.51,9.51,0,0,1,81.8,3.21c5.21,0,8.28,3.22,8.28,7.54,0,4-2.28,6.58-6.69,7.91-.46.13-.65,0-.93-.39a4.61,4.61,0,0,0-1.52-1.37c3.67-.87,6.56-2.39,6.56-6.5a4.94,4.94,0,0,0-4.87-5ZM76.3,7.47a6.26,6.26,0,0,0-1.69,4c0,2,.8,3.11,1.48,3.11s1-.28,1.63-1.33A24.82,24.82,0,0,0,80,5.49,6.54,6.54,0,0,0,76.3,7.47Z"/><path class="cls-1" d="M99.92,8.49a10.85,10.85,0,0,0,1-3.22,21.49,21.49,0,0,1,2.69,1.11.37.37,0,0,1,.26.35.65.65,0,0,1-.22.43,4.16,4.16,0,0,0-.76,1.33,23.94,23.94,0,0,1-4.65,7.3.82.82,0,0,1-.61.33.73.73,0,0,1-.5-.22A6,6,0,0,0,95.2,15,19.25,19.25,0,0,0,99.92,8.49Zm8.13-3a.52.52,0,0,1,.3-.13.44.44,0,0,1,.33.17,27.31,27.31,0,0,1,5.45,8,.55.55,0,0,1,.09.3.42.42,0,0,1-.22.35,13.11,13.11,0,0,1-1.8,1.15c-.28.13-.43.09-.52-.2a28.4,28.4,0,0,0-5.37-8.45C107.09,6.19,107.68,5.77,108,5.53Z"/><path class="cls-1" d="M124.38,12a17.38,17.38,0,0,0-3.19.26c-.26,0-.43-.13-.5-.46a23.55,23.55,0,0,1-.33-2.63,28,28,0,0,0,4.69.26h7c1.65,0,3.32,0,5-.07.33,0,.39,0,.39.3a15.84,15.84,0,0,1,0,2c0,.26-.09.35-.39.33-1.63,0-3.24,0-4.85,0Z"/><path class="cls-1" d="M151.65,7.51a30.64,30.64,0,0,1,6.91,3c.24.13.35.28.24.56a12.67,12.67,0,0,1-.93,1.89c-.09.15-.17.24-.28.24a.33.33,0,0,1-.24-.11,24,24,0,0,0-5.71-2.78v4.8c0,1.41,0,2.69.09,4.26,0,.26-.09.33-.39.33a14.52,14.52,0,0,1-1.93,0c-.3,0-.41-.07-.41-.33.07-1.61.09-2.89.09-4.28V4.36a16.6,16.6,0,0,0-.22-3.22,16,16,0,0,1,2.72.35c.3.06.41.2.41.37a1.14,1.14,0,0,1-.17.5,5.66,5.66,0,0,0-.15,2Zm5.06-5.35c.11-.09.2-.06.33,0a10,10,0,0,1,2.06,2.33.22.22,0,0,1-.06.35l-.91.67a.23.23,0,0,1-.37-.06A10.78,10.78,0,0,0,155.56,3ZM158.65.75c.13-.09.2-.06.33,0A9.09,9.09,0,0,1,161,3a.25.25,0,0,1-.07.39l-.87.67a.22.22,0,0,1-.37-.07,10.3,10.3,0,0,0-2.17-2.5Z"/><path class="cls-1" d="M174.14,4.9c.37.11.41.37.28.67a3.14,3.14,0,0,0-.26,1.48A16.25,16.25,0,0,1,173,13.44a11.19,11.19,0,0,1-3.09,4.08,1,1,0,0,1-.56.28.74.74,0,0,1-.41-.17,7.68,7.68,0,0,0-1.85-.91,10.78,10.78,0,0,0,3.61-4.32c.61-1.48.89-2.67.91-6.15a5.84,5.84,0,0,0-.22-1.83A17.53,17.53,0,0,1,174.14,4.9ZM179,14.09a22.16,22.16,0,0,0,3.08-2,20.84,20.84,0,0,0,3.8-3.69,6.24,6.24,0,0,0,.67,2.19,1.1,1.1,0,0,1,.13.37c0,.15-.09.3-.33.54a27.42,27.42,0,0,1-3.22,2.85,36.16,36.16,0,0,1-3.87,2.61,7,7,0,0,0-.63.46.69.69,0,0,1-.43.17.93.93,0,0,1-.46-.17,6.3,6.3,0,0,1-1.3-1.33.87.87,0,0,1-.2-.46.66.66,0,0,1,.09-.33c.15-.28.13-.54.13-1.65V6.84a17.31,17.31,0,0,0-.22-3.78,20.72,20.72,0,0,1,2.72.46c.28.07.39.2.39.37a1.39,1.39,0,0,1-.17.54,6,6,0,0,0-.2,2.41Z"/><path class="cls-1" d="M203,15.55c0,.24-.13.35-.41.39A11.75,11.75,0,0,1,201,16c-.2,0-.28-.13-.28-.35,0-.78,0-1.87,0-2.65-1.93,1-2.63,1.85-2.63,2.89s.74,1.5,3,1.5a37.09,37.09,0,0,0,5.41-.43c.2,0,.28,0,.3.24a9.75,9.75,0,0,1,.2,1.78c0,.26-.07.41-.24.41a38.6,38.6,0,0,1-5.39.28c-3.56,0-5.45-1.06-5.45-3.59,0-2.09,1.3-3.61,4.58-5.3-.06-1.11-.33-1.54-1.3-1.5a5.25,5.25,0,0,0-3,1.56,29.32,29.32,0,0,0-2.17,2.37c-.11.13-.17.2-.26.2a.43.43,0,0,1-.24-.15,10.37,10.37,0,0,1-1.24-1.43.35.35,0,0,1-.09-.2c0-.09,0-.15.15-.24A22.21,22.21,0,0,0,197,6.05c-1,0-2.19.07-3.48.07-.2,0-.26-.11-.3-.35S193,4.62,193,4a47.92,47.92,0,0,0,5,0,16.82,16.82,0,0,0,.65-1.87,5.29,5.29,0,0,0,.15-1.33,13.76,13.76,0,0,1,2.48.61.39.39,0,0,1,.26.37.42.42,0,0,1-.15.33,1.71,1.71,0,0,0-.37.52c-.13.3-.24.59-.5,1.17a35,35,0,0,0,4-.67c.24,0,.3,0,.35.22A7.33,7.33,0,0,1,205,4.86c0,.22-.06.3-.37.35-1.63.24-3.5.48-5.08.65a22.59,22.59,0,0,1-1.63,2.41l0,0a4.32,4.32,0,0,1,2.17-.67A2.4,2.4,0,0,1,202.77,10c.85-.39,2.09-1,3.19-1.52a6.53,6.53,0,0,0,1.65-1.17,13.35,13.35,0,0,1,1.52,1.91.86.86,0,0,1,.17.48c0,.17-.11.26-.33.3a7,7,0,0,0-1.33.33c-1.41.5-2.83,1-4.67,1.74Z"/><path class="cls-1" d="M222.54,3.21a7.18,7.18,0,0,0-1.09-1.76A17.13,17.13,0,0,1,224,1.1c.56,0,.74.15.74.46a2.82,2.82,0,0,0,0,.61,9.08,9.08,0,0,0,.35,1.09c.26.65.46,1.17.74,1.76a33.4,33.4,0,0,0,4.54-1.35c.22-.11.28-.09.41.15a9.35,9.35,0,0,1,.54,1.67c.07.22,0,.33-.17.37a34.68,34.68,0,0,1-4.32,1.26,24.7,24.7,0,0,0,3.32,4.58,6,6,0,0,0,.56.48c.13.11.22.17.22.28a.68.68,0,0,1-.13.37,8.62,8.62,0,0,1-.85,1.41c-.17.24-.28.33-.43.33s-.17,0-.35-.17a7.19,7.19,0,0,0-.89-.56,9.93,9.93,0,0,0-4.61-1.11c-2.26,0-3.63.67-3.63,2,0,1.63,2,2.3,5.39,2.3a21.47,21.47,0,0,0,3.48-.3,13.23,13.23,0,0,1-.46,2.32c-.06.22-.15.26-.41.3a19.48,19.48,0,0,1-2.41.15c-5.13,0-7.89-1.63-7.89-4.5,0-2.48,2.13-4.22,5.71-4.22a11.08,11.08,0,0,1,3.87.59,14,14,0,0,1-2.8-3.85c-1.37.24-2.63.41-4.19.54-.59,0-1.59.11-2.13.11-.2,0-.28-.13-.35-.39a17.1,17.1,0,0,1-.5-2,26.87,26.87,0,0,0,2.72,0,29.77,29.77,0,0,0,3.43-.41C223.19,4.66,222.89,4,222.54,3.21Z"/><path class="cls-1" d="M243.79,18.5c0,.15-.07.22-.28.3a5.38,5.38,0,0,1-1.5.46c-.26,0-.37,0-.5-.28a18.52,18.52,0,0,1-1.28-6.69,49.38,49.38,0,0,1,.65-7,23.57,23.57,0,0,0,.24-3.24,10.69,10.69,0,0,1,2.28.76c.35.17.48.33.48.48a.79.79,0,0,1-.13.43,12.26,12.26,0,0,0-.41,1.61,40.46,40.46,0,0,0-.83,6.52,18.48,18.48,0,0,0,.22,3.43c.54-1.15.93-1.89,1.46-3.11a6.28,6.28,0,0,0,.72,1.46.65.65,0,0,1,.2.41,1.62,1.62,0,0,1-.26.72,16.25,16.25,0,0,0-1,2.65,2.63,2.63,0,0,0-.07.56Zm7.52-9.84c-1.15.09-2,.13-2.61.13-.46,0-1,0-1.83,0-.3,0-.48-.11-.5-.35-.09-.43-.13-1-.24-2,.8.09,1.89.11,2.69.11.61,0,1.63,0,2.41-.09,0-1.09,0-2.06-.13-2.89a6.76,6.76,0,0,0-.37-1.78,13.21,13.21,0,0,1,2.8.3c.24.07.35.17.35.35a.87.87,0,0,1-.15.43,2.64,2.64,0,0,0-.11.91V6.23c.93-.13,1.87-.28,2.78-.48.26-.07.37,0,.39.2.09.54.13,1.06.17,1.63,0,.28-.09.37-.28.39-1,.2-2,.33-3,.43l0,3.35a11.32,11.32,0,0,1-1,5,7.64,7.64,0,0,1-3.11,3.37,1,1,0,0,1-.54.2.45.45,0,0,1-.43-.2A7.16,7.16,0,0,0,247,19.09a7.05,7.05,0,0,0,3.67-3.61,12,12,0,0,0,.67-4.85ZM255.13.95a.23.23,0,0,1,.3.09,10.13,10.13,0,0,1,1.67,2.63c.07.15,0,.24-.13.33l-.89.46a.24.24,0,0,1-.37-.13A10.32,10.32,0,0,0,254,1.49Zm2-.91c.13-.07.2,0,.3.09a9.19,9.19,0,0,1,1.67,2.54A.24.24,0,0,1,259,3l-.87.43c-.2.09-.28,0-.35-.11A10.42,10.42,0,0,0,256,.54Z"/><path class="cls-1" d="M278.12,5.36a.18.18,0,0,1,.26.13,15.39,15.39,0,0,1,.52,1.85c0,.24,0,.28-.17.33a32.48,32.48,0,0,1-5.5,1c0,1.76.15,3,.37,5a25.49,25.49,0,0,1,6.3,2.8c.15.09.17.2.09.37a9.76,9.76,0,0,1-1.15,1.83c-.13.13-.2.2-.37.07A20.32,20.32,0,0,0,273.64,16a4.24,4.24,0,0,1,0,.5c-.09,1.87-1.48,3.26-4.39,3.26-2.67,0-4.63-1.2-4.63-3.19s2.06-3.32,4.76-3.32a15.21,15.21,0,0,1,1.83.06c-.26-2.85-.33-4.91-.37-7,0-.78,0-1.89-.07-3a6.37,6.37,0,0,0-.3-2,19.91,19.91,0,0,1,2.78.39c.24.06.35.2.35.37a.64.64,0,0,1-.11.33,2.69,2.69,0,0,0-.26,1.17c0,.65,0,1.61,0,2.74A21.06,21.06,0,0,0,278.12,5.36Zm-6.89,10a10.14,10.14,0,0,0-2-.22c-1.52,0-2.5.5-2.5,1.28s.87,1.11,2.24,1.11c1.63,0,2.35-1,2.28-1.87Z"/><path class="cls-1" d="M292.2,7.23a15.59,15.59,0,0,1,5-1.09c2.91,0,4.58,2,4.58,5.17A8.51,8.51,0,0,1,300,16.51,12.26,12.26,0,0,1,295.8,20a1,1,0,0,1-.37.11.71.71,0,0,1-.52-.28,5.37,5.37,0,0,0-1.8-1.15A11.81,11.81,0,0,0,297.89,15a6.37,6.37,0,0,0,1.2-3.85c0-1.8-.76-2.74-2-2.74a7.28,7.28,0,0,0-3.41.93,10.36,10.36,0,0,0-1.85,1,.79.79,0,0,1-.48.22c-.28,0-.48-.28-.61-.48a14.94,14.94,0,0,1-1.11-2.28A11.33,11.33,0,0,0,292.2,7.23Zm7.93-5a.31.31,0,0,1,.28.39,17.76,17.76,0,0,1-.48,1.91c-.07.22-.13.33-.3.3a28.65,28.65,0,0,1-6.3-1.67c-.11,0-.22-.15-.15-.43a10.27,10.27,0,0,1,.65-2A27.27,27.27,0,0,0,300.13,2.23Z"/><path class="cls-1" d="M316.44,17.7a3.15,3.15,0,1,1-3.15-3.13A3.13,3.13,0,0,1,316.44,17.7Zm-5,0a1.8,1.8,0,1,0,1.8-1.8A1.77,1.77,0,0,0,311.49,17.7Z"/></g></svg>