<svg xmlns="http://www.w3.org/2000/svg" viewBox="0 0 247.83 22.51"><defs><style>.cls-1{fill:#ffc832;}</style></defs><title>アセット 134</title><g id="レイヤー_2" data-name="レイヤー 2"><g id="オブジェクト"><path class="cls-1" d="M20.33,0V3.4h-8V22.51H8V3.4H0V0Z"/><path class="cls-1" d="M34.69,0V22.51H30.33V0Z"/><path class="cls-1" d="M50.26,0l7.4,8.88L65.05,0h3.89V22.51H64.59V6.7h-.13L58,14.63h-.62L50.82,6.7H50.7V22.51H46.35V0Z"/><path class="cls-1" d="M95.05,0V3.4H84.85V9.31h9.76v3.4H84.85v6.4H95.27v3.4H80.5V0Z"/><path class="cls-1" d="M140.38,0V3.4h-8V22.51H128V3.4h-8V0Z"/><path class="cls-1" d="M161.69,0l9.94,22.51H167L164.7,17h-10l-2.18,5.48H148L157.24,0ZM156,13.73h7.26l-3.8-8.91Z"/><path class="cls-1" d="M189.12,0a7.68,7.68,0,0,1,5,1.61,5,5,0,0,1,2,4,4.6,4.6,0,0,1-.82,2.72,5.46,5.46,0,0,1-2.36,1.87v.19a6.51,6.51,0,0,1,3.67,2.11,5.58,5.58,0,0,1,1.31,3.68,6,6,0,0,1-1,3.34,5.87,5.87,0,0,1-2.66,2.22,10,10,0,0,1-4,.74h-9.43V0ZM188,9.35a4.18,4.18,0,0,0,2.73-.83,2.8,2.8,0,0,0,1-2.28,2.55,2.55,0,0,0-.92-2.07,3.6,3.6,0,0,0-2.42-.77h-3.13V9.35Zm1,9.76a5.6,5.6,0,0,0,3.33-.83,2.82,2.82,0,0,0,1.13-2.44,2.64,2.64,0,0,0-1.12-2.26,4.88,4.88,0,0,0-3-.83h-4.1v6.36Z"/><path class="cls-1" d="M212.55,0V19.11h10.92v3.4H208.2V0Z"/><path class="cls-1" d="M247.6,0V3.4H237.4V9.31h9.77v3.4H237.4v6.4h10.43v3.4H233.05V0Z"/></g></g></svg>