<svg xmlns="http://www.w3.org/2000/svg" viewBox="0 0 251.76 273.56"><defs><style>.cls-1{fill:#422610;}.cls-2{fill:#e5c337;}.cls-3{fill:#3e5aa6;}.cls-4{fill:#ad3123;}.cls-5{fill:#7ba32c;}</style></defs><title>アセット 25</title><g id="レイヤー_2" data-name="レイヤー 2"><g id="ロゴ"><path class="cls-1" d="M98.37,256.44l-2.06-2.2a1.43,1.43,0,0,1,0-1.93c4.1-4.61,4.64-11.09,4.51-15.12a1.41,1.41,0,0,0-1.41-1.36l-18.15-.07a1.42,1.42,0,0,1-1.41-1.42v-3a1.42,1.42,0,0,1,1.42-1.41l23.29.09a1.42,1.42,0,0,1,1.39,1.15l.24,1.21c.12.62,2.77,14.84-5.75,24.08A1.41,1.41,0,0,1,98.37,256.44Z"/><path class="cls-1" d="M81.31,255.9l-2-2.22a1.42,1.42,0,0,1,0-1.94c8.4-8.61,7.47-20.37,7.14-23a1.64,1.64,0,0,1,.14-1,1.05,1.05,0,0,1,.53-.42l3.17-1.08a1.42,1.42,0,0,1,1.86,1.18c.53,4.8,1,18.62-8.79,28.54A1.42,1.42,0,0,1,81.31,255.9Z"/><path class="cls-1" d="M165.58,256.44l-2.06-2.2a1.43,1.43,0,0,1,0-1.93c4.1-4.61,4.64-11.09,4.51-15.12a1.41,1.41,0,0,0-1.41-1.36l-18.15-.07a1.42,1.42,0,0,1-1.41-1.42v-3a1.42,1.42,0,0,1,1.42-1.41l23.29.09a1.42,1.42,0,0,1,1.39,1.15l.24,1.21c.12.62,2.77,14.84-5.75,24.08A1.41,1.41,0,0,1,165.58,256.44Z"/><path class="cls-1" d="M148.52,255.9l-2-2.22a1.42,1.42,0,0,1,0-1.94c8.4-8.61,7.47-20.37,7.14-23a1.64,1.64,0,0,1,.14-1,1.05,1.05,0,0,1,.53-.42l3.17-1.08a1.42,1.42,0,0,1,1.86,1.18c.53,4.8,1,18.62-8.79,28.54A1.42,1.42,0,0,1,148.52,255.9Z"/><path class="cls-1" d="M180.29,241.29v-3.08a1.53,1.53,0,0,1,1.51-1.45c9.78-.65,13.15-7.53,14.13-10.4a1.61,1.61,0,0,1,1.8-1l3.37.55a1.45,1.45,0,0,1,1.26,1.79c-1.74,5.7-7.61,14.32-20.4,15A1.54,1.54,0,0,1,180.29,241.29Z"/><path class="cls-1" d="M195,256.4h-3.15a1.43,1.43,0,0,1-1.49-1.35V237.41a1.43,1.43,0,0,1,1.49-1.35H195a1.43,1.43,0,0,1,1.49,1.35v17.64A1.43,1.43,0,0,1,195,256.4Z"/><rect class="cls-1" x="207.81" y="230.3" width="18.07" height="5.91" rx="1.43" ry="1.43"/><rect class="cls-1" x="213.1" y="241.9" width="20.65" height="5.91" rx="1.43" ry="1.43"/><path class="cls-1" d="M217.27,256.09l-.52-30.45a1.41,1.41,0,0,1,1.41-1.42l3,0a1.42,1.42,0,0,1,1.46,1.37l.52,30.45a1.41,1.41,0,0,1-1.41,1.42l-3,0A1.42,1.42,0,0,1,217.27,256.09Z"/><rect class="cls-1" x="231.62" y="229.47" width="5.91" height="5.27" rx="1.43" ry="1.43"/><rect class="cls-1" x="239.7" y="229.47" width="5.91" height="5.27" rx="1.43" ry="1.43"/><path class="cls-1" d="M236.29,243.68l-4.2-2.43a1.55,1.55,0,0,0-2.33,1.35v4.85a1.55,1.55,0,0,0,2.33,1.35l4.2-2.43A1.55,1.55,0,0,0,236.29,243.68Z"/><path class="cls-1" d="M69.26,257.1H48.39a1.62,1.62,0,0,1-1.62-1.62v-2.36a1.62,1.62,0,0,1,1.62-1.62H63.66a1.62,1.62,0,0,0,1.62-1.62v-15a1.62,1.62,0,0,0-1.62-1.62H48.53a1.62,1.62,0,0,1-1.62-1.62v-2.36a1.62,1.62,0,0,1,1.62-1.62H69.26a1.62,1.62,0,0,1,1.62,1.62v26.16A1.62,1.62,0,0,1,69.26,257.1Z"/><path class="cls-1" d="M37.77,260.22H16.91a1.71,1.71,0,0,1-1.62-1.79v-2.61A1.71,1.71,0,0,1,16.91,254H32.18a1.71,1.71,0,0,0,1.62-1.79V235.68a1.71,1.71,0,0,0-1.62-1.79H17.05a1.71,1.71,0,0,1-1.62-1.79v-2.61a1.71,1.71,0,0,1,1.62-1.79H37.77a1.71,1.71,0,0,1,1.62,1.79v28.94A1.71,1.71,0,0,1,37.77,260.22Z"/><path class="cls-1" d="M88.22,273.48H86.45a.28.28,0,0,1-.22-.1l-2-2.46a.28.28,0,0,0-.49.18v2.1a.28.28,0,0,1-.28.28H82a.28.28,0,0,1-.28-.28V267a.28.28,0,0,1,.28-.28h1.48a.28.28,0,0,1,.28.28v2a.28.28,0,0,0,.5.18l1.87-2.31a.28.28,0,0,1,.22-.1h1.5a.28.28,0,0,1,.22.45l-2,2.54a.28.28,0,0,0,0,.35l2.41,3A.28.28,0,0,1,88.22,273.48Z"/><path class="cls-1" d="M105.91,273.48h-1.47a.28.28,0,0,1-.26-.17l-.41-1a.28.28,0,0,0-.26-.17h-2.56a.28.28,0,0,0-.26.17l-.42,1a.28.28,0,0,1-.26.17H98.54a.28.28,0,0,1-.26-.39l2.74-6.2a.28.28,0,0,1,.26-.17h1.89a.28.28,0,0,1,.26.17l2.73,6.2A.28.28,0,0,1,105.91,273.48Zm-2.83-2.93-.58-1.44a.28.28,0,0,0-.52,0l-.59,1.44a.28.28,0,0,0,.26.38h1.16A.28.28,0,0,0,103.07,270.55Z"/><path class="cls-1" d="M122.83,273l-.38.14-.3.1-.42.11a9,9,0,0,1-.93.16,8.08,8.08,0,0,1-1,.06,4.76,4.76,0,0,1-1.9-.38,3.13,3.13,0,0,1-1.4-1.17,3.44,3.44,0,0,1-.52-1.94,4.09,4.09,0,0,1,.27-1.46,2.55,2.55,0,0,1,.83-1.14,3.84,3.84,0,0,1,.93-.54,4,4,0,0,1,.92-.25,7.13,7.13,0,0,1,1-.06,6.71,6.71,0,0,1,1.47.13q.49.11,1.07.29a.29.29,0,0,1,.21.27v1.39a5.59,5.59,0,0,0-1-.45,3.88,3.88,0,0,0-1.28-.18,2.62,2.62,0,0,0-1.41.33,1.85,1.85,0,0,0-.74.8,2.19,2.19,0,0,0-.21.9,1.92,1.92,0,0,0,.24.94,1.75,1.75,0,0,0,.72.69,2.42,2.42,0,0,0,1.17.26,3.66,3.66,0,0,0,.83-.1v-.8h-.92V270a.28.28,0,0,1,.28-.28h2.14a.28.28,0,0,1,.28.28Z"/><path class="cls-1" d="M140.89,270.09a3.56,3.56,0,0,1-.44,1.74,3.16,3.16,0,0,1-1.3,1.26,4.36,4.36,0,0,1-2.1.47,4.28,4.28,0,0,1-2.12-.49,3.17,3.17,0,0,1-1.29-1.28,3.66,3.66,0,0,1,0-3.41,3.14,3.14,0,0,1,1.29-1.28,4.3,4.3,0,0,1,2.12-.49,4.7,4.7,0,0,1,1.67.28,3.34,3.34,0,0,1,1.21.75,3.16,3.16,0,0,1,.72,1.11A3.65,3.65,0,0,1,140.89,270.09Zm-2.08,0a2.07,2.07,0,0,0-.11-.7,1.49,1.49,0,0,0-.34-.55,1.59,1.59,0,0,0-.55-.36,2.05,2.05,0,0,0-.76-.13,1.74,1.74,0,1,0,0,3.47,1.93,1.93,0,0,0,1-.22,1.48,1.48,0,0,0,.6-.61A1.92,1.92,0,0,0,138.81,270.09Z"/><path class="cls-1" d="M156.1,271.51a1.86,1.86,0,0,1-.32,1.1,2,2,0,0,1-.91.71,3.38,3.38,0,0,1-1.33.25l-.51,0a5.88,5.88,0,0,1-.81-.15,6.36,6.36,0,0,1-1.05-.36v-1.66a7.45,7.45,0,0,0,1,.53,2.69,2.69,0,0,0,1.06.21.92.92,0,0,0,.68-.17.51.51,0,0,0,.15-.32.55.55,0,0,0-.26-.46,3.72,3.72,0,0,0-.77-.39,6.06,6.06,0,0,1-1-.51,2.32,2.32,0,0,1-.69-.69,1.78,1.78,0,0,1-.27-1,1.8,1.8,0,0,1,1.09-1.69,3.1,3.1,0,0,1,1.35-.26,4.74,4.74,0,0,1,1,.11,4.56,4.56,0,0,1,.79.25,3.14,3.14,0,0,1,.43.21v1.59a5.55,5.55,0,0,0-.92-.53,2.58,2.58,0,0,0-1.09-.23.84.84,0,0,0-.55.15.46.46,0,0,0-.17.36.44.44,0,0,0,.17.35,3,3,0,0,0,.61.36,12.08,12.08,0,0,1,1.25.66,2.47,2.47,0,0,1,.73.68A1.63,1.63,0,0,1,156.1,271.51Z"/><path class="cls-1" d="M173.57,273.48h-1.48a.28.28,0,0,1-.28-.28v-2.08a.28.28,0,0,0-.28-.28H169a.28.28,0,0,0-.28.28v2.08a.28.28,0,0,1-.28.28H167a.28.28,0,0,1-.28-.28V267a.28.28,0,0,1,.28-.28h1.48a.28.28,0,0,1,.28.28v1.93a.28.28,0,0,0,.28.28h2.51a.28.28,0,0,0,.28-.28V267a.28.28,0,0,1,.28-.28h1.48a.28.28,0,0,1,.28.28v6.2A.28.28,0,0,1,173.57,273.48Z"/><path class="cls-1" d="M186.53,273.48H185a.28.28,0,0,1-.28-.28V267a.28.28,0,0,1,.28-.28h1.48a.28.28,0,0,1,.28.28v6.2A.28.28,0,0,1,186.53,273.48Z"/><path class="cls-1" d="M205.32,273.48h-1.48a.28.28,0,0,1-.28-.28v-2.85a.28.28,0,0,0-.5-.18l-1.34,1.66h-.16l-1.35-1.66a.28.28,0,0,0-.5.18v2.85a.28.28,0,0,1-.28.28H198a.28.28,0,0,1-.28-.28V267a.28.28,0,0,1,.28-.28h1.44a.28.28,0,0,1,.22.1l1.78,2.17a.28.28,0,0,0,.43,0l1.79-2.17a.28.28,0,0,1,.22-.1h1.44a.28.28,0,0,1,.28.28v6.2A.28.28,0,0,1,205.32,273.48Z"/><path class="cls-1" d="M223.52,273.48H222a.28.28,0,0,1-.26-.17l-.41-1a.28.28,0,0,0-.26-.17h-2.56a.28.28,0,0,0-.26.17l-.42,1a.28.28,0,0,1-.26.17h-1.47a.28.28,0,0,1-.26-.39l2.74-6.2a.28.28,0,0,1,.26-.17h1.89a.28.28,0,0,1,.26.17l2.73,6.2A.28.28,0,0,1,223.52,273.48Zm-2.83-2.93-.58-1.44a.28.28,0,0,0-.52,0l-.59,1.44a.28.28,0,0,0,.26.38h1.16A.28.28,0,0,0,220.69,270.55Z"/><path class="cls-1" d="M134,231.6H118.92a1.42,1.42,0,0,1-1.53-1.28v-2.71a1.42,1.42,0,0,1,1.53-1.28H134a1.42,1.42,0,0,1,1.53,1.28v2.71A1.42,1.42,0,0,1,134,231.6Z"/><rect class="cls-1" x="115.1" y="234.86" width="24.47" height="5.01" rx="1" ry="1"/><path class="cls-1" d="M119.27,255.7a35.81,35.81,0,0,1-4.33-.26,1,1,0,0,1-.86-1.17l.7-3.91-.44,2.47.27-1.52a1,1,0,0,1,1.09-.82c2.67.31,10.48.81,15.14-3.1,2.32-1.94,3.54-4.71,3.71-8.44a1,1,0,0,1,1-.95h3a1,1,0,0,1,1,1.05c-.22,5.21-2.07,9.31-5.51,12.19C129.64,254.92,123.59,255.7,119.27,255.7Z"/><path class="cls-1" d="M133.08,239.87c.83,0,1.46.59.91,2.63l3.26-1.87L134.9,238S132.25,239.89,133.08,239.87Z"/><path class="cls-1" d="M220.37,86.55a1.09,1.09,0,0,0-1.46.52l-1.68,3.52a1.09,1.09,0,0,0,.52,1.46l3.88,1.85a.65.65,0,0,1-.25,1.23L208,95.77a1.09,1.09,0,0,0-1,1.14l.19,3.9a1.09,1.09,0,0,0,1.14,1l23.53-1.13a.65.65,0,0,1,.68.65l0,16.84a.65.65,0,0,1-.62.64l-22.33,1.07a1.09,1.09,0,0,0-1,1.14l.19,3.9a1.09,1.09,0,0,0,1.14,1l27.61-1.32h.08a1.26,1.26,0,0,0,1-1.2l.06-27.1a2.53,2.53,0,0,0-1.49-2.31Z"/><path class="cls-2" d="M120,136.05,59.33,156.94a1.08,1.08,0,0,1-1.43-1l0-13.88a2.16,2.16,0,0,1,1.45-2l38.51-13.26a1.08,1.08,0,0,0,.73-1v-4.16a1.08,1.08,0,0,0-1.43-1L54.92,135.08a.65.65,0,0,1-.34,0l-39.86-8.43a.65.65,0,0,1-.07-1.25l29.14-9.88a1.08,1.08,0,0,0,.73-1v-4.15a1.08,1.08,0,0,0-1.42-1L1.46,123.47a2.16,2.16,0,0,0-1.46,2V152a3.39,3.39,0,0,0,2.69,3.32L37.2,162.7a1.08,1.08,0,0,0,1.3-1.05v-4a1.08,1.08,0,0,0-.86-1.06l-30.7-6.5A1.08,1.08,0,0,1,6.09,149V131.62a.65.65,0,0,1,.78-.63l44.39,9.62a.65.65,0,0,1,.51.63l0,21.74a2.16,2.16,0,0,0,2.88,2l2.05-.73,64-22a1.08,1.08,0,0,0,.73-1v-4.16A1.08,1.08,0,0,0,120,136.05ZM54.51,137.7v-.06l0,.06Z"/><path class="cls-3" d="M246.54,180.36l-42.73,16.52a1.08,1.08,0,0,1-1.47-1V177.52a1.08,1.08,0,0,1,.69-1l47.59-18.43a1.77,1.77,0,0,0,1.13-1.64v-4.2a1.08,1.08,0,0,0-.83-1l-66.17-15.87a1.08,1.08,0,0,0-1.33,1v4a1.08,1.08,0,0,0,.83,1l55.26,13.25a.6.6,0,0,1,.08,1.13l-40,15.45a1.08,1.08,0,0,1-.64,0l-79.9-19.16a1.08,1.08,0,0,0-1.33,1v4a1.08,1.08,0,0,0,.83,1l76.82,18.42a1.08,1.08,0,0,1,.83,1v24.76a2.59,2.59,0,0,0,3.5,2.42l2.58-1h0l45-17.39a1.08,1.08,0,0,0,.69-1v-4.21A1.08,1.08,0,0,0,246.54,180.36Z"/><path class="cls-4" d="M204.06,55.42a3.17,3.17,0,0,0-2.88-3.16l-57.45-5.21a1.08,1.08,0,0,0-1.17,1.07v3.95a1.08,1.08,0,0,0,1,1.07l48.76,4.32a.65.65,0,0,1,.37,1.13L167.52,80.43a3.52,3.52,0,0,1-2.61.85l-102.51-9a1.12,1.12,0,0,0-1.23,1v.5a1.07,1.07,0,0,0-.07.37v30.16a1.08,1.08,0,0,0,1.08,1.08h3.93a1.08,1.08,0,0,0,1.08-1.08V79.49a.65.65,0,0,1,.7-.64L163,87.23a.65.65,0,0,1,.59.64v24.94a.65.65,0,0,1-.71.64l-41.32-3.82a1.08,1.08,0,0,0-1.18,1.07v3.95a1.08,1.08,0,0,0,1,1.07l44.15,4.12a4.63,4.63,0,0,0,3.65-1.29l14.21-13.76a2.66,2.66,0,0,0,.81-1.91V98.1a1.08,1.08,0,0,0-1.83-.78l-11.59,11.16a.65.65,0,0,1-1.1-.47V87.25a.65.65,0,0,1,.22-.49l27-23.42a.65.65,0,0,1,1.07.49V80A1.08,1.08,0,0,0,199,81H203A1.08,1.08,0,0,0,204,80Z"/><path class="cls-3" d="M175,198.11l-70.57-16.8a1.08,1.08,0,0,1-.83-1V164.08a1.08,1.08,0,0,0-.83-1l-3.93-.95a1.08,1.08,0,0,0-1.33,1v20.74a2.59,2.59,0,0,0,2,2.52l74.78,17.8a1.53,1.53,0,0,0,1.89-1.49V199.6A1.53,1.53,0,0,0,175,198.11Z"/><path class="cls-5" d="M126,4.88a.91.91,0,0,0,0-.24L125.69,2a2.25,2.25,0,0,0-2.48-2L57.91,7.19a.92.92,0,0,0-.81,1l.44,4a.92.92,0,0,0,1,.81l54.63-6a.55.55,0,0,1,.44.94L101.48,19.52a.55.55,0,0,1-.32.15L26.29,27.9a2.44,2.44,0,0,0-2.16,2.69.91.91,0,0,0,0,.24l2.22,24.24a.92.92,0,0,0,1,.83l4-.36a.92.92,0,0,0,.83-1L30.22,33.85a.55.55,0,0,1,.49-.6l68.36-7.52a.93.93,0,0,1,1,.84L102,47a.93.93,0,0,1-.82,1L45.9,54.78a.92.92,0,0,0-.81,1l.44,4a.92.92,0,0,0,1,.81l59.22-7.23A3.89,3.89,0,0,0,108,52.26L119.1,41.62a1.08,1.08,0,0,0,.32-.89l-.49-4.61a1.08,1.08,0,0,0-1.82-.66l-8.56,8.21a.93.93,0,0,1-1.58-.59l-1.76-18.6a.93.93,0,0,1,.28-.76l14.23-13.6a.55.55,0,0,1,.93.35l1,11a.92.92,0,0,0,1,.83l4-.36a.92.92,0,0,0,.83-1Z"/></g></g></svg>